<?xml version="1.0" encoding="utf-8"?>
<!-- Generator: Adobe Illustrator 23.0.2, SVG Export Plug-In . SVG Version: 6.00 Build 0)  -->
<svg version="1.1" id="Layer_1" xmlns="http://www.w3.org/2000/svg" xmlns:xlink="http://www.w3.org/1999/xlink" x="0px" y="0px"
	 viewBox="0 0 495.1 503.4" style="enable-background:new 0 0 495.1 503.4;" xml:space="preserve">
<style type="text/css">
	.st0{fill:#E1F0FF;}
	.st1{fill:#38A1FC;}
	.st2{fill:#010101;}
	.st3{fill:#000101;}
	.st4{fill:#030303;}
	.st5{fill:#010102;}
	.st6{fill:#050505;}
	.st7{fill:#040404;}
	.st8{fill:#020305;}
	.st9{fill:#060606;}
	.st10{fill:#030304;}
	.st11{fill:#060607;}
	.st12{fill:#070707;}
	.st13{fill:#020304;}
	.st14{fill:#030609;}
	.st15{fill:#030507;}
	.st16{fill:#080909;}
	.st17{fill:#0A0B0B;}
	.st18{fill:#090909;}
	.st19{fill:#03060A;}
	.st20{fill:#0B0B0C;}
	.st21{fill:#101010;}
	.st22{fill:#BCCDE3;}
	.st23{fill:#4B8EE2;}
	.st24{fill:#FFFFFF;}
	.st25{fill:#020406;}
	.st26{fill:#050709;}
	.st27{fill:#030405;}
	.st28{fill:#4B8BDA;}
	.st29{fill:#FEFEFE;}
	.st30{fill:#010202;}
	.st31{fill:#050506;}
	.st32{fill:#030508;}
	.st33{fill:#050607;}
	.st34{fill:#04070B;}
	.st35{fill:#060B12;}
	.st36{fill:#224066;}
	.st37{fill:#0A0A0A;}
	.st38{fill:#0C0C0C;}
	.st39{fill:#4A8DE0;}
	.st40{fill:#427CC6;}
	.st41{fill:#393939;}
	.st42{fill:#8D8C8C;}
	.st43{fill:#ADADAD;}
	.st44{fill:#FFD574;}
	.st45{fill:#020101;}
</style>
<title>Asset 236</title>
<g>
	<g id="Layer_1-2">
		<path class="st0" d="M338,437.2c1.3,0.9,2.8,1.4,4.4,1.2c7.3,0,14.7,0.7,22,0.7c3.3,0,6.7,0.5,10,0.4c9.6-0.5,19.2-0.7,28.7-3
			c6.9-1.8,14.1-2.5,21.3-1.9c5.5,0.5,10.8,2.2,15.5,4.9c3.5,2,6.7,4.3,8.9,7.8c1.7,2.7,2.6,5.8,2.6,9c0,1.8,0,3.5,0,5.3
			c0.1,10-4.6,17.3-13,22.5c-2,1.3-4.1,2.6-6.1,3.9c-2.4,1.5-5,2.5-7.7,3c-2,0.5-3.9,1.3-5.8,2c-8.7,3-17.7,4.8-26.7,6.5
			c-5.6,1-11.3,1.8-17,2.6c-2.8,0.4-5.7,0.4-8.6,0.7c-6.6,0.7-13.2,0.8-19.8,0.4c-4.5-0.3-9.1-0.3-13.6-0.8
			c-5.3-0.5-10.5-1.2-15.7-1.9c-6.4-0.9-12.8-1.9-19.1-3.3c-9.5-2-18.9-4.6-28.1-7.8c-7.3-2.6-14.5-5.4-21-9.6
			c-4.3-2.7-8.5-5.6-11.4-10.1c-4.5-6.9-3.1-14.2,1.7-19.8c2.8-3.2,6.5-5.2,10.4-6.9c7-2.9,14.4-4.8,22-5.7c3.2-0.5,6.5-0.8,9.7-0.7
			c1.8,0,3.7-0.2,5.5-0.5c1.3,0,1.6,1.1,2.1,1.9c1.7,2.8,3.2,5.6,4.5,8.6c1.6,3.6,3.7,7,6,10.1c-0.1,1.7-0.3,3.4-0.7,5
			c-0.6,3.6,0.5,6.4,3.7,8.3c5.9,3.5,12.5,5.3,19.2,6.6c3,0.5,6.1,0.8,9.2,0.7c6-0.1,12.1,0.2,18.1,1c6.1,0.6,12.3-0.2,18.1-2.5
			c1.2,0,2.5,0,3.7,0.3c-0.4-1.1-1.5-1.5-1.7-2.5s0.2-2.1,0.3-3.2c0-0.8-0.2-1.6-0.5-2.3c-0.4-1.1-0.3-2,1-2.3
			c0.7-0.2,1.4,0.2,2.3-0.4c-2.5-3-6.7-1.9-9.4-4c-8.7-5.8-18-6.6-27.6-2.8c-2,0.8-3.9,1.7-5.9,2.5c-3,1.3-4.4,0.2-3.8-2.9
			c0.5-3.6,1.6-7.1,3.3-10.3c2.6-2.2,4.7-5,6.1-8.1C335.8,438.8,336.3,437.4,338,437.2z"/>
		<path class="st1" d="M305,95.5c0.5,0.4,1.2,0.2,1.8,0.4c1.3,0.9,2.3-0.3,3.5-0.4c0.7-0.1,1.3,0.3,1.9,0.2c0.7,0.7,1.9,0.8,2.7,0.3
			c0.5-0.3,1.1-1,1.9-0.3c2.6,0.9,5.4,1,8.1,1.6c6.1,1.2,11.7,3.9,17.2,6.7c0.2,1.8,1.7,0.7,2.5,1.2c0.2,0.9,1,1.2,1.7,1.6
			c-0.9,3,1.6,1,2.3,1.6c0.5,1.2,1,2.4,2.6,2.3c-0.5,1.7-0.5,1.7,0.8,2.3c0.1,0.3,0.2,0.5,0.4,0.8c3.7,4.5,4.8,9.7,4.8,15.3
			c0,2.4,0.3,4.8,0.5,7.2c0.4,3.3-0.1,6.7-1.4,9.8c-0.4,0.9-0.6,1.5,0.5,2c6.4,2.9,9.4,8.4,11.4,14.7c1.3,4.4,1.7,9,1.3,13.5
			c-1.1,1.1-2.3,0.3-3.4,0.1c-1.9-0.5-3.9-1.1-6.3-0.7c3.4,1.4,7.2,0.4,9.5,3.5c0.3,0.8,0.3,1.7,0,2.5c-1.1,1.2-2,0.2-3-0.2
			c-1.5-0.6-2.9-1.7-5.3-1.9c1.5,1.4,3,1.7,4.1,2.4s2.8,1.1,3.3,2.8c-0.3,0.7-0.9,1.3-1.7,1.6c-1.9,0.4-2.5-1.6-4.2-2.1
			c0.9,2.1,3.5,2.7,3.7,5.1c-0.7,0.9-1,2-1.8,2.9c-1.7-0.3-1.6-2.1-2.6-3c-0.8-0.8-1.2-1.9-2.5-2.7c0.6,1.8,1.7,2.9,2.4,4.3
			c0.5,1,1.6,1.9,1,3.3c-2.9,3.1-6.4,5.5-10.3,7c-2,0.6-3.3,2.6-3,4.7c0.1,1.3,0.8,3.1-1.3,3.7c-1.1-1.6-0.6-3.4-0.6-5.1
			c0-1.3-0.4-1.5-1.4-0.9c-7.6,4.6-16,5.8-24.6,6.8c-3.2,0.3-6.5,0-9.5,1.4c-0.6,0.3-1.3,0.1-1.6-0.5c-0.4-0.6-1.3-0.8-1.9-0.4
			c-1,0-2-0.1-3-0.4c-1-0.7-2.1-0.3-3.2-0.4c-5.4-2.6-10.7-5.2-15.2-9.1c-0.9-0.6-1.6-1.3-2.2-2.1c-0.9-5.9-4.3-10.4-8.4-14.4
			c-1.6-1.4-3.2-2.9-4.5-4.5c-0.2-1.2-0.9-2.2-2-2.8c-3.5-2-6.5-4.8-9.8-7.2c-5.4-3.8-10.4-8.4-15.5-12.6c-0.8-0.6-1.2-1.5-1-2.4
			c0.1-1.6,0.5-3.1,1.3-4.5c2.2-3.4,4.7-6.7,7.4-9.7c4.6-2.6,9.8-4.1,15.1-4.5c3.5-0.1,7.1,0.2,10.5,0.8c7.5,1.1,14.8,2.8,22.4,2.4
			c2.1,0,4.3-0.4,6.3-1.1c1.8-0.7,2.3-1.9,1.7-3.8c-1.7-5-6.3-7.1-11.2-5c-2.3,0.9-4.2,2.4-5.8,4.2c-2.6,3-5.7,3.9-9.5,3
			c-3.6-0.8-7.3-1.2-11.1-1.4c-4.9-0.2-9.7,0.5-14.3,2.2c-0.8,0.3-1.8,1-2.6,0.1s-0.2-2,0.2-2.9c3.1-6.8,7-13.2,12.5-18.3
			c0.9-0.8,2.4-1.6,1-3.2c-0.2-0.2-0.3-0.5-0.4-0.7c1.3-0.5,2.5-1.2,3.5-2.1c8.9-7,18.5-12.7,30-14.1c0.4-0.1,0.7-0.2,1.1-0.3
			C302.7,96,303.8,95.4,305,95.5z"/>
		<path d="M272.1,179.8c2,1.8,4,3.6,5.9,5.4c2.1,2.1,3.9,4.5,5.2,7.1c1.2,2,1.9,4.3,1.8,6.6c0.8,2.1-0.2,3.8-1.1,5.5
			c-1,1.9-0.8,3,1.2,4c3.4,1.8,6.2,4.3,9.7,6c3,1.4,3.6,1.2,5.5-1.6c0.7-1,0.8-2.5,2.3-3c0.9-1.3,1.8-0.9,2.6,0
			c0.5,2.7-1.1,4.7-2.7,6.4c-2,2.2-2.3,4.3-0.9,6.8c0.8,1.3,0.5,3.7,2.2,3.9s2.4-2.1,3.4-3.3c2.4-2.4,3-6.2,1.5-9.3
			c-0.5-1.2-1.2-2.6-0.5-4c0.9-1.1,1.5-1.2,2.1-0.3c0.3,0.4,0.1,1.1,0.6,1.4c1.2,0.7,1.3,2,1.6,3.1c1.3,3.6,1.3,3.6,5.2,3.6
			c7.3,0.1,13.8-2.6,20.3-5.4c0.7-0.3,1.3-0.7,2-1c3.3-1.3,5.8-3.1,5.1-7.2c0-0.7,0.2-1.3,0.7-1.8c0.6-0.4,1.1-0.9,2.1-0.7
			c0.1,2.3,0.2,4.7,0.3,7c0.7,1.6-0.5,2.4-1.4,3.2c-1.5,1.2-3.1,2.1-4.8,2.9c-8.4,4-16.9,7.5-26.5,6.7c-1.8-0.2-3.6,0.8-4.3,2.5
			c-0.7,1.3-1.6,2.6-2.6,3.6c-2.7,2.4-3.1,5.5-3.4,8.8c-1,9.7-2.1,19.4-3.1,29.1c-0.6,4.1-0.8,8.3-0.8,12.5
			c0.2,4.9-1.4,8.8-5.5,11.8c-2.6,1.9-4.8,4.4-7.3,6.4c-3.9,3.2-5.6,2.8-7.7-1.9c-4.1-9.2-4-18.3,0.3-27.5
			c4.8-10.6,9-21.5,14.2-31.9c0.3-0.8,0.7-1.5,1.2-2.2c3.4-4,2.6-8,0.5-12.2c-0.4-0.9-1.1-1.7-2-2.2c-4-1.7-7.4-4.3-11-6.6
			c-2.8-1.8-2.8-1.8-4.8,1c-3.2,4.6-7.1,8.7-11.5,12.1c-0.6,0.5-1.3,1-2.1,1.4c-0.7,0.5-1.7,0.4-2.3-0.3c-0.6-0.7-0.6-1.8,0.1-2.4
			c0,0,0.1-0.1,0.1-0.1c0.7-0.7,1.5-1.4,2.3-2c6-5,11-11.2,14.5-18.2c2-4,2-7.7-0.7-11.5c-3.2-4.5-7.2-8.3-11.8-11.4
			c-6.8-4.6-13.8-8.8-20-14.2c-4.3-3.6-8.1-7.7-11.3-12.3c-3.8-5.5-8-10.8-11.2-16.7c-0.9-1.7-1.9-1.7-3.3-0.8
			c-4.4,3-8.4,6.4-12.7,9.5c-8.6,6.1-18.2,10.1-28.3,13c-4.1,1.2-4.2,1.2-2,4.8c6.2,9.9,12.6,19.8,20.6,28.5c3.8,4,8.3,7.2,13.3,9.6
			c4.1,2.1,8.4,4,12,7.1c5.7,5,9.6,10.8,10.1,18.8c0.4,7.8-0.6,15.4-1.7,23c-0.2,1.6-0.5,3.1-1,4.6c-3.2,8.5,0,15.7,4.3,22.6
			c4.5,6.9,10.1,12.9,16.7,17.9c14.3,11.2,30.1,20,45.6,29.2c1.5,0.9,3.2,1.4,5,1.5c3.9,0.2,7.8,0.8,11.7,0.4
			c2.6-0.3,5.2-0.1,7.8-0.1c9.6-0.1,19.1-1.6,28.6-2.8c1.1,0,2-0.8,2-1.9c0-0.2,0-0.4-0.1-0.6c-0.9-6.5-1.2-13.1-1.9-19.7
			c-0.6-6.3-0.9-12.6-1.4-18.9c-0.6-7.6-1.5-15.2-1.9-22.8c-0.1-2.1-1-4-2.7-5.3c-1.7-1.5-3-3.4-3.9-5.4c-0.5-1-1.1-2.2,0.2-3
			s2.3,0.2,3,1.3c0.9,1.5,2,2.9,3.2,4.2c1.2,1.4,3.1,1.9,4.8,1.2c11.1-4.2,22.4-7.4,33.4-11.8c4.7-1.9,8.8-5.1,11.6-9.3
			c2.1-3,4.2-5.9,6.1-9c1.5-2.3,2-5.1,1.2-7.7c-3.3-11.9-5.9-24.1-9.2-36c-0.8-3-1.1-3.2-4-2.6c-4.2,0.9-8.3,1.9-13,2.8
			c2.6,1.6,5,2.9,7.4,4.2c2.1,1,4,2.4,5.6,4.1c0.8,0.8,1.6,1.9,0.5,2.9s-2.1,0.4-3-0.3c-3.4-2.3-6.9-4.5-10.5-6.4
			c-3.5-1.9-7.4-3.1-10.8-5.2c-2.4-1.7-5.2-1.7-7.9-2.3c-0.8-0.2-1.6-0.3-2.4-0.5c-0.4-0.1-0.5-0.5-0.5-0.9c0-0.4,0.3-0.7,0.6-0.8
			c0.6-0.1,1.3-0.1,1.9-0.1c1.9,0.1,3.9,0.5,5.7,1.1c1,0.4,2,0.6,3,0.6c1.9,1.2,4.1,1.6,6.3,1.2c6.5-1.2,12.8-2.7,19.2-4.2
			c1.1-0.3,1.2-0.8,1.1-1.8c-0.1-2.9,0-2.9,2.8-3.4c1.1-0.2,2.2-0.5,3.2-0.9c2-0.7,2.2-0.6,3.2,1.6c0.8,0.9,1.4,2,1.6,3.2
			c3.2,10.9,6.3,21.8,8.5,32.9c0.3,1.3,0.4,2.6,0.2,3.9c0.1,2.5,0.4,5,1,7.4c0.5,2.5,0.1,4.4-2.2,5.7c-0.7,0.4-1.4,1-1.9,1.6
			c-2.1,2.1-2.2,2.2-4.3,0.1c-2,2.9-4,5.8-5.8,8.8c-3.7,5.8-9.2,10.2-15.6,12.6c-6.2,2.5-12.6,4.5-19,6.6c-5,1.6-9.7,3.7-14.7,5.3
			c-1.1,0.4-1.4,1-1.3,2.1c0.5,6.1,0.9,12.2,1.4,18.4c0.5,5.8,1,11.7,1.4,17.5c0.8,9.7,1.4,19.5,2.7,29.2c0.1,1,0.2,2.1-0.7,2.5
			c-1.7,0.5-1.5,1.7-1.3,2.9c0.8,5.3,1.5,10.7,2.4,16c1.4,8.2,3.1,16.5,4,24.8c0.9,9.5-0.1,19-2.8,28.1c-1.3,4.6-3.2,9.1-5.5,13.4
			c-4.4,8.2-9.3,16.2-14.6,23.8c-0.4,0.5-0.7,1.1-1,1.6c-1.5,1.7-2.7,3.7-3.6,5.8c-1,2.2-2.6,4-4.7,5.2c-0.9,0.9-2,1.6-3.2,2.1
			c-7,2.9-14.3,5.2-21.6,6.9c-1.9,0.4-3.7,0.7-5.2-0.8c-2-1.1-3-3-3.9-4.9c-2.2-4.9-4.7-9.6-7.5-14.2c-0.3-0.4-0.5-0.7-0.9-1
			l-0.2-0.5c-0.1-0.2-0.3-0.4-0.4-0.6c-1.6-2.8-3.6-5.4-5.9-7.7c-7.3-7.6-14.7-15.2-22.1-22.8c-0.1-0.1-0.3-0.2-0.5-0.3
			c-0.6-0.1-1.2-0.4-1.7-0.9c-6.1-7-11.5-14.3-13.6-23.6c-0.3-1.7-0.4-3.4-0.3-5.2c-0.3-1.5-0.6-3.1-0.9-4.6c-0.1-0.5-0.3-1-0.5-1.4
			c-3.7,1.3-7.5,2.2-11.4,2.7c-9.9,0.8-19.2-0.6-27.8-6.1c-7.1-4.6-14.1-9.3-21.5-13.4c-8.7-4.9-17.9-8.7-27.8-10.2
			c-5.9-0.8-11.8-1.2-17.8-1.4c-1.8,0-3.5-0.2-5.2-0.7c-1.4,0.3-2.7-0.6-3-2c-0.1-0.2-0.1-0.5,0-0.7c-0.2-5.4-1-10.7-0.7-16
			c0-0.8,0.3-1.6,0.7-2.3c0.7-1.6,1.9-3,3.4-3.9c2.6-1.8,4.9-4.1,6.6-6.7c3.6-4.9,6.8-10,9.6-15.4c3.7-7,7.4-14,12.2-20.3
			c3.8-5.1,8.3-9.6,13.3-13.5c5.2-4.1,11.2-6,17.6-7.3c7.9-1.6,14.9,0.9,21.6,4.6c3.9,2.3,8,4.4,12.1,6.3c4.3,1.8,4.4,1.8,5.2-2.7
			c1.2-6.2,2.5-12.4,3.1-18.7c0.5-5.5,0.8-11-0.2-16.4c-0.5-2.6-1.7-5.1-3.4-7.2c-3.1-4.3-7.4-7.7-12.2-9.9
			c-11.6-5-20.4-13.1-27.4-23.5c-4.8-7.2-10.1-14.1-14-21.9c-0.2-0.8-1.1-1.3-1.9-1.1c0,0,0,0,0,0c-1.6,0.3-2.6-0.5-3.3-2
			c-0.3-0.6-0.6-1.2-0.8-1.8c-1.1-3.4-0.6-4.4,2.8-5.6l0.8-0.3c1.9-1.5,4.3-1.7,6.4-2.6c6.8-2.7,13.3-6.2,19.2-10.5
			c5.8-4.2,12.1-7.6,17.6-12.2c0.5-0.4,1.1-0.6,1.8-0.6c0.5-0.4,1-0.9,1.5-1.2c1.9-1.3,3.6-1.1,4.2,1c3.5,11.2,11.3,19.8,17.6,29.3
			c0.9,0.2,1.7,0.8,2.2,1.6c6,7.2,13.4,12.7,21.3,17.6c0.2,0.1,0.5,0.3,0.7,0.4C267,176,270.3,177,272.1,179.8z"/>
		<path class="st1" d="M217.1,125.3c-2.8,2.4-5.8,4.6-8.9,6.6c-3.9,2.5-7.8,5.1-11.6,7.8c-6.4,4.4-13.3,7.9-20.5,10.5
			c-1.3,0.5-2.6,0.9-4,1c0.4-5.4,1.6-10.6,2.4-16c1.1-7.9,2.2-15.8,3.2-23.7c0.6-4,1-8.1,1.1-12.2c0-5.2-1.5-6.9-6.4-8.3
			c-9.7-2.7-19-6.3-27-12.9c-3.8-3.2-6-7-5.8-12.1c0-3,0.2-5.9,0.5-8.9c0.7-3.8,2.1-4.5,5.6-2.7c0.6,3.4,0.4,6.8,0.9,10.2
			c0.5,3.8,2,6.9,5.5,8.7c-3.7-2.1-4.9-5.6-5.3-9.5c-0.3-1.9-0.5-3.8-0.6-5.8c0-1-0.1-2.1,0.7-2.8l4.3,0.6c1.2,1,0.8,2.4,0.8,3.6
			c0.1,3.8,2,7.4,5.2,9.5c-4.2-3.9-5.9-9.1-4.2-13.2c3.3-0.5,5.1,0.3,6.1,3.3c0.9,2.7,2.5,3.7,5.2,4.1c9.9,1.1,19.5,4.3,28.1,9.3
			c2.2,1.2,3.8,3.4,4.2,5.9c0.4,2,0.6,4.1,0.5,6.1c0,2,0,3.9,0.1,5.9c0.1,3.1,0.9,6.1,2.5,8.8c5.1,8.2,9.7,16.7,15.6,24.5
			C215.9,124.2,216.4,124.8,217.1,125.3z"/>
		<path d="M19.6,369.8C8.8,360.2,1.6,348.6,0.2,334c-1.1-12.1,1.9-23,11-31.7c6.2-5.9,13.4-7.6,21.6-6.1c4.4,0.9,8.6,2.4,12.5,4.6
			c3.9,2.2,7.7,4.5,11.3,7.1c0.4,1.4-0.5,2.3-1.2,3.2c-3.5,4.9-7.7,9.3-11.4,14c-10.1,12.6-17.8,26.9-22.8,42.2
			C20.9,368.3,21.1,369.6,19.6,369.8z"/>
		<path class="st1" d="M180.5,437.4c-1.1,0.4-2.3,0.6-3.5,0.5c-7.7,0.3-15.4,0.1-23.1-0.6c-6.3-0.6-12.6-1-18.7-2.2
			c-1.3-2.5-0.8-5.1-0.6-7.6c1.3-18.1,5.6-35.8,12.7-52.5c0.6-1.5,1.1-3.2,2.7-4.1l21.7,7.3c0.6,0.8,0.8,1.9,0.6,2.9
			c-0.8,12-0.9,24,1.7,35.8c1.3,5.9,3.2,11.7,5.8,17.2C180.2,435,181,436,180.5,437.4z"/>
		<path class="st1" d="M124.3,358.6c7.2,4.1,14.7,7.7,22.4,10.8c0.2,0.1,0.3,0.2,0.4,0.4c0.6,1.1-0.1,2-0.5,2.9
			c-6.2,14.8-10.8,30.1-12.6,46.1c-0.6,4.1-0.9,8.3-0.8,12.5c0.1,1.2,0.3,2.4-0.5,3.5c-10.8-1.8-21.3-4.9-31.4-9.2
			c-0.4-0.2-0.9-0.2-1.2-0.6c-0.4-0.9-0.5-2-0.2-3c2.1-13.8,4.5-27.5,10.2-40.4c3.2-7.3,6.8-14.5,11.7-20.8
			C122.4,359.9,123.3,359.1,124.3,358.6z"/>
		<path class="st1" d="M97.6,424c-4.9-1.9-9.7-4.2-14.3-6.7c-5.2-2.7-10.2-5.6-15.1-8.8c-0.2-0.9-0.1-1.9,0.2-2.7
			c3.7-12.8,7.1-25.8,13.6-37.6c4.5-8.4,9.9-16.4,16-23.8c0.4-0.7,1.2-1.2,2-1.4c7,5.2,14.4,9.8,21.7,14.4c0,0.9-0.4,1.8-1,2.5
			c-10,13.6-16.1,29-19.5,45.5c-1.1,5.5-1.9,11-2.8,16.5C98.5,422.6,98.6,423.5,97.6,424z"/>
		<path class="st1" d="M76.6,323.9L90.1,335c2.6,2.1,5.2,4.2,7.7,6.3c0.3,1.2-0.7,1.9-1.3,2.6c-10.3,12.3-18.3,26.4-23.5,41.5
			c-2.1,6.1-3.8,12.3-5.4,18.5c-0.3,1.1-0.1,2.5-1.7,2.9c-3.9-2.1-7.6-4.6-11.1-7.3c-4.8-3.4-9.4-6.9-13.8-10.7
			c0.8-4.4,2.7-8.5,4.4-12.6c4.1-9.8,7.9-19.7,12.9-29.1c4.2-7.9,9-15.4,15.8-21.5C74.9,325,75.5,324.1,76.6,323.9z"/>
		<path class="st1" d="M415.7,208.9c-0.8-2.6-1.5-5.3-1.9-8.1c-2.3-10.8-5.7-21.3-8.5-31.9c1.7,0.2,2.6-1.3,3.8-2.1
			c3-1.7,4.7-5,4.5-8.4c-0.1-2.1,0.1-4.3,0-6.4c-0.1-1.6,0.1-3.2,0.5-4.7c0.8-2.3,1.1-4.7,0.8-7.1c-0.4-1.9,0.7-3.6,2.3-4.8
			c3.1-2.3,5.1-5.8,5.6-9.6c0.1-0.8,0.1-1.7,0-2.5c-0.3-1.3-0.2-2.6,0.2-3.8c1.2-3.3,4.6-4.2,7.1-1.7c1.5,1.5,2.5,3.6,2.6,5.7
			c0.2,2.1,0.1,4.3-0.3,6.4c-0.4,2.1,0.1,2.6,2.2,2.1c2.1-0.5,4.3-0.5,6.3,0c0.8,0.2,1.7,0.3,2.5,0.3c3.3,0.2,4.8-1,5.3-4.3
			c0.1-1.5,0.3-3,0.6-4.4c1.1-3.1,3-3.6,5.6-1.5c0.8,2.2-0.1,4.3-0.4,6.5c-0.6,4.6-1.6,9.1-4.9,12.8c2.5-2.3,4.1-5.4,4.5-8.8
			c0.7-3.6,1-7.2,2-10.6c0.7-0.4,1.5-0.8,2.2-1.2c2.9-1.7,5.7,0.8,5.2,3.6c-0.4,3.5-0.4,7.1,0,10.6c0.1,1.7,0,3.3,0,5
			c-0.1,2-1,3.8-2.6,5c-2.8,2.3-6,4.1-9.4,5.4c-4.4,1.9-8.8,3.4-13.4,4.7c-3.8,0.9-6.8,3.8-7.8,7.6c-1.4,4.6-2.3,9.2-3.3,13.8
			c-1.7,7.8-3.8,15.5-6.2,23.1C419.8,203.1,418.1,206.2,415.7,208.9z"/>
		<path class="st1" d="M174.4,378.8c6.4,1.7,12.8,3.1,19.4,4c4.1,0.5,8.3,0.7,12.5,1.1c0.7,1,1.1,2.2,1.1,3.4
			c1.5,14.3,5.9,27.4,14.5,39c0.6,0.6,0.9,1.4,0.9,2.3c-7.4,3-15,5.2-22.9,6.6c-5.4,1.1-10.8,1.8-16.2,2.1c-1.6-0.8-2.1-2.3-2.8-3.7
			c-5.1-11-7.8-23-7.9-35.2c-0.1-5.6-0.5-11.4,0.5-17C173.5,380.4,173.8,379.5,174.4,378.8z"/>
		<path class="st1" d="M19.6,369.8c0.2-0.2,0.3-0.5,0.4-0.7c2.7-10.3,7.5-19.7,12.8-28.9c4.2-7.2,9.1-14,14.6-20.3
			c2.7-3.2,5.4-6.4,7.9-9.8c0.6-0.6,1-1.3,1.3-2.1c6.3,4.3,12.1,9.3,18,14.1c-1.5,2.7-4,4.3-5.9,6.6c-8.2,10-14.1,21.2-18.9,33
			c-3.2,7.7-6.6,15.4-9.4,23.3c-0.3,0.8-0.5,1.6-1.4,2C32.2,381.7,25.8,375.9,19.6,369.8z"/>
		<path class="st1" d="M242.7,374.6c0.8,1.2,0.4,2.7,0.7,4c1.9,8.5,6.2,15.6,11.8,22.1c1,1.2,2,2.4,3,3.6
			c-8.6,11.1-20.1,18.2-32.9,23.4c-3-2-4.4-5.3-6.1-8.2c-5.9-10.1-9.4-21.4-10.4-33c-0.1-0.9-0.5-1.8,0.3-2.7c0.1,0,0.2,0,0.3,0
			c11.4,0.9,21.6-3.6,32-7.4C242.2,376.2,242.7,375.4,242.7,374.6z"/>
		<path class="st1" d="M126.8,318.3c-0.3,5.9,0.5,11.8,0.7,17.7c0,1.7,0.5,3,2.4,3.4c-6.3,2.2-12.5,1.1-18.7-0.1
			c-9-1.7-15.4-7.4-21.6-13.6c0.6-1,1.8-1,2.7-1.3c0.8-0.2,1.6-0.5,2.3-1c0.7-0.5,1-1.4,0.6-2.2c-0.4-0.9-1.2-0.7-2-0.5
			c-1.2,0.2-2.3,0.7-3.5,1c-1,0.3-1.9,0.8-2.9,0.1l-0.5-1.2c2.7-3.2,6.6-3.5,10.3-4c3.5-0.4,4.3,0,10.9,3.3c-3.6-3.9-8.1-4.6-13.1-4
			c-3.2,0.4-6.1,1.7-9,2.8c-0.5-0.9-0.9-1.9-1.1-3c-0.2-0.8-0.9-1.4-1.8-1.4c0.2-1.5,1.4-1,2.2-1.1c1.2-0.1,2.4,0,3.6-0.2
			c0.9-0.2,1.7-0.5,1.7-1.6s-1-1.1-1.9-1.2c-1.3-0.2-2.6,0.7-3.8-0.3c2.2-3.7,5.7-5,9.7-4.8c4.1,0.3,8,2,11,5
			c1.7,1.6,3.4,3.1,5.1,4.7C115,319.3,120.5,320.8,126.8,318.3z"/>
		<path class="st1" d="M263.8,174.1c-8-4.6-15.3-10.5-21.4-17.5c-0.7-0.8-1.3-1.6-1.9-2.3c0.2-0.2,0.5-0.4,0.6-0.6
			c1.1-4.6,4.2-8,6.8-11.7s2.7-5.7,0.3-9.4c-1.1-1.8-2.4-3.5-3.6-5.3c-2.3-3.3-2.6-7.8,2.2-10.8c1.6-1,3.3-1.7,5.1-2
			c5-0.9,10-1.9,15.1-2l0.3,0.3c-0.2,1.8-1.5,2.9-2.7,4.1c-5.8,5.6-9.5,12.5-12.4,19.9c-0.5,1.4-0.5,2.9-0.1,4.3
			c-1.7,2.4-3.4,4.8-5.2,7.1c-1.6,1.9-2.6,4.3-2.9,6.7c-0.2,0.7,0.1,1.5,0.7,1.8c4.7,3.8,9.4,7.7,14.2,11.6c0.9,0.8,2,1.4,3,2
			c0.5,0.3,1.1,0.4,1.4,0.8c1.9,2.7,5.1,3.7,7.6,5.7c0.9,0.6,1.5,1.7,1.3,2.8l-7.9-5.3C264.1,174.3,264.2,173.8,263.8,174.1z"/>
		<path class="st2" d="M472.6,234.9c0.4,28.1-7.5,53.8-22.1,77.5c-0.4,0.6-0.8,1.2-1.3,1.8c-0.3,0.4-0.8,0.5-1.3,0.2
			c-0.4-0.2-0.6-0.7-0.5-1.2c0.3-1.1,0.8-2.1,1.5-3c5.8-9.6,10.5-19.7,14.2-30.2c5.1-15.7,7.5-32.1,7-48.6c-0.2-9.1-1-18.2-2.4-27.2
			c-0.5-3.3-1.4-6.6-2.6-9.7c-0.7-1.9-1.3-3.9-2-5.8c-0.3-0.7-0.5-1.5,0.4-1.9s1.4,0.3,1.6,1.1c1.7,5,4,9.8,4.8,15.1
			C471.7,213.5,472.5,224.2,472.6,234.9z"/>
		<path class="st2" d="M104.8,190c1.1-22.5,6.3-44.6,15.4-65.1c3.4-8.1,7.9-15.6,13.4-22.4c0.4-0.5,0.8-1,1.3-1.5
			c0.3-0.4,1-0.5,1.4-0.2c0,0,0.1,0,0.1,0.1c0.5,0.4,0.6,1,0.2,1.5c-0.2,0.4-0.5,0.8-0.8,1.2c-8.4,10.2-13.8,22-18.2,34.3
			c-4.8,13.4-8,27.3-9.6,41.5c-1.1,10.1-1.7,20.2-0.2,30.3c0.2,1.1,0.4,2.2,0.6,3.3c0.1,0.5-0.2,0.9-0.6,1.1c-0.5,0.2-1.1,0-1.3-0.5
			c0,0,0-0.1,0-0.1c-0.3-0.8-0.5-1.6-0.7-2.4C104.7,204.1,104.4,197,104.8,190z"/>
		<path class="st2" d="M305.1,17.7c22.4,0.8,44.1,4.8,64.5,14.6c0.9,0.4,1.8,0.9,2.7,1.4c0.5,0.3,0.8,0.9,0.5,1.4c0,0,0,0,0,0
			c-0.3,0.5-0.9,0.7-1.4,0.5c-0.5-0.1-1.1-0.3-1.6-0.6C353.7,27,336.4,23,318.5,20.9c-15.6-1.8-31-0.1-46.3,3.3
			c-3.4,0.9-6.8,2.1-10,3.5c-0.5,0.2-1,0.5-1.5,0.6c-0.4,0.1-0.8-0.1-1-0.4c-0.3-0.4-0.2-0.9,0.1-1.3c0.8-0.7,1.6-1.2,2.6-1.5
			c5.7-2.5,11.7-4.2,17.9-5.1C288.6,18.8,296.8,17.6,305.1,17.7z"/>
		<path class="st3" d="M39.1,387c4.6-13,9.9-25.8,15.9-38.2c4.4-9.4,10.4-17.9,17.7-25.1c0.5-0.7,1.2-1.2,2-1.5
			c0.7,0.5,1.4,1.1,1.9,1.8c-9.9,9.4-16.9,20.7-22.2,33.1c-4.3,10-8.8,19.9-12.4,30.1c-0.2,0.6-0.5,1.2-1,1.7L39.1,387z"/>
		<path class="st3" d="M66,406.8c1.4-4.9,3-9.8,4.2-14.7c3.1-12,8.5-23,14.9-33.5c3.7-6.1,8-11.9,12.7-17.3c0.9,0.4,1.7,1,2.3,1.7
			c-9.5,11-17.1,23.4-22.7,36.9c-3.5,8.3-5.6,17.2-8.2,25.7c-0.1,1-0.5,2-1,2.9C67.4,408.1,66.6,407.5,66,406.8z"/>
		<path class="st3" d="M97.6,424c1.9-16.5,5.2-32.6,12.5-47.7c3.1-6.8,7-13.1,11.7-18.9c0.9,0.3,1.7,0.7,2.4,1.3
			c-0.2,0.4-0.4,0.8-0.7,1.2c-10.2,13.1-16.2,28-19.7,44.1c-1.4,6.4-2.5,12.9-3.4,19.5c-0.1,0.5-0.2,1.1-0.4,1.6
			C99.2,424.9,98.4,424.6,97.6,424z"/>
		<path class="st2" d="M132.8,434.9c-0.6-0.9-0.4-2-0.4-3c0.4-15.3,3.1-30.5,8.1-45c1.9-5.8,4.1-11.5,6.6-17.1c1,0.1,2,0.4,2.8,1
			c-5.5,12-9.6,24.6-12.1,37.6c-1.7,8.8-2.6,17.7-2.7,26.6L132.8,434.9z"/>
		<path class="st2" d="M174.4,378.8c-0.6,6.3-0.8,12.6-0.7,18.9c0.2,10.7,2.3,21.2,6,31.3c1.2,2.8,2.5,5.6,4,8.3l-1.9,0.3
			c-0.5,0.2-1,0.1-1.4-0.2l0,0c-4.1-7.8-6.9-16.3-8.3-25c-1.6-10.5-1.9-21.1-0.8-31.7c0.1-0.8,0.1-1.7,0.2-2.5
			C172.5,378.1,173.5,378.3,174.4,378.8z"/>
		<path class="st4" d="M495.1,208.2c0.1,2.8-0.1,5.7-0.4,8.5c-0.1,0.5-0.2,1.1-0.3,1.6c-0.1,0.4-0.5,0.6-0.9,0.6
			c-0.5,0.1-0.9-0.2-1.1-0.7c-0.1-0.9-0.2-1.8-0.1-2.8c1.1-16.8-1.2-33.7-6.9-49.6c-0.8-2.3-1.8-4.5-2.7-6.7
			c-0.2-0.4-0.4-0.8-0.6-1.3c-0.2-0.5,0-1,0.4-1.2c0.4-0.2,0.9-0.2,1.3,0.2c0.7,0.7,1.2,1.6,1.5,2.6c3.3,7.6,5.8,15.5,7.3,23.6
			C494.3,191.4,495.1,199.8,495.1,208.2z"/>
		<path class="st5" d="M209.1,383.9c0.6,3.9,1.2,7.9,1.9,11.8c2.1,10.9,6.6,21.2,13.2,30.1c0.5,0.5,0.9,1.2,1.1,1.9l-2.4,0.9
			c-6.6-8.1-11.3-17.5-13.8-27.6c-1.4-5.6-2.4-11.3-2.8-17L209.1,383.9z"/>
		<path class="st4" d="M293.3,1.5c-0.1,0.5-0.6,0.9-1.2,0.9c-0.9,0.1-1.9,0.2-2.8,0.2c-10.6,0.5-21.1,2.3-31.2,5.3
			c-4.6,1.3-8.7,3.6-13,5.6c-0.8,0.4-1.9,1.5-2.7,0.3c-0.8-1.5,0.8-1.8,1.7-2.2c8.8-4.9,18.2-7.7,28.1-9.5c6-1,12-1.6,18-2.1
			c0.8-0.1,1.7,0,2.5,0.3C293.2,0.5,293.4,1,293.3,1.5z"/>
		<path class="st4" d="M343.8,48.1c12.2,0.4,23.7,3.1,34.3,9.2c1,0.6,2,1.3,3,2c0.5,0.3,0.7,0.9,0.4,1.4c0,0,0,0.1-0.1,0.1
			c-0.3,0.5-1,0.7-1.5,0.4c-0.7-0.3-1.3-0.7-2-1c-9.1-5.4-19.4-8.6-30-9.4c-1.8-0.2-3.5-0.2-5.3-0.4c-0.8-0.1-1.8,0-1.8-1.2
			c0.1-1,0.9-1,1.7-1C343,48,343.4,48.1,343.8,48.1z"/>
		<path class="st6" d="M133,128.6c0-1.5,0.3-2.9,0.8-4.3c3-9.5,8.5-17.5,15.3-24.6c0.3-0.3,0.6-0.5,0.9-0.7c0.4-0.3,0.9-0.3,1.3,0
			c0.5,0.3,0.6,0.9,0.4,1.4c0,0,0,0.1-0.1,0.1c-0.5,0.7-1,1.3-1.6,1.9c-5.6,6.1-10.4,12.6-13.2,20.5c-0.7,1.7-1.2,3.5-1.5,5.3
			c-0.1,0.8-0.2,1.6-1.2,1.6c-0.6,0-1-0.4-1.1-0.9C133,128.8,133,128.7,133,128.6z"/>
		<path class="st7" d="M452.2,239.6c0,3.5-0.3,6.9-0.8,10.3c0,0.2,0,0.4-0.1,0.6c-0.3,0.8-0.2,2.1-1.5,1.9c-1.2-0.3-1-1.4-0.9-2.3
			c0.3-2.3,0.5-4.6,0.8-6.9c0.9-8-1.1-15.7-2.8-23.4c-0.1-0.7-0.3-1.4-0.4-2.2c-0.1-0.6,0.3-1.1,0.8-1.2c0,0,0,0,0,0
			c0.6-0.1,1.1,0.3,1.2,0.9c0.4,1.3,0.6,2.5,0.9,3.8C450.8,227.2,452.5,233.3,452.2,239.6z"/>
		<path class="st6" d="M122.4,195c0.1-8.4,1.9-16.6,5.2-24.3c0.4-0.9,0.7-2.3,2-1.8s0.6,1.9,0.2,2.9c-2.4,5.8-4,11.9-4.8,18.2
			c-0.3,2.9-0.4,5.9-0.3,8.9c0,0.9,0.4,2.1-1,2.1s-1.2-1.2-1.2-2.1C122.4,197.6,122.4,196.3,122.4,195z"/>
		<path class="st6" d="M91.6,196.6c0.7,0,1.1,0.3,1.2,0.8c0.1,0.7,0.2,1.5,0.2,2.2c0,8.5,1.6,17,4.6,25c0.1,0.2,0.2,0.5,0.3,0.8
			c0.1,0.6,0,1.1-0.6,1.4c-0.5,0.2-1,0-1.2-0.4c-0.4-0.6-0.7-1.3-1-2c-3-8.1-4.5-16.6-4.4-25.3c0-0.6,0.1-1.1,0.2-1.6
			C90.8,196.9,91.1,196.6,91.6,196.6z"/>
		<path class="st8" d="M85.4,318.7c0.1-0.4,0.4-0.8,0.8-1c4.3-1.9,8.8-3.2,13.5-2.6c2.8,0.3,5.4,1.5,7.6,3.3c0.6,0.5,1.1,1,1.5,1.7
			c0.4,0.4,0.4,1.1-0.1,1.5s-1.1,0.4-1.5-0.1c0,0-0.1-0.1-0.1-0.1c-5.9-6-12.4-4.5-19.1-1.7c-0.6,0.3-1.2,0.6-1.7,1
			C86,319.9,85.7,319.3,85.4,318.7z"/>
		<path class="st9" d="M344.5,105.1c-0.4,0.3-0.7,0.5-1.1,0.8c-0.7,0.3-1.5,0.5-2-0.3s0.5-1.1,0.6-1.7c4.6-2.9,9.2-5.9,13.9-8.8
			c1.3-0.8,2.8-1.5,4.1-2.3c0.5-0.4,1.2-0.3,1.6,0.2c0,0,0.1,0.1,0.1,0.1c0.5,0.8,0,1.2-0.6,1.6s-1.5,0.8-2.2,1.3
			C354.1,99.2,349.3,102.1,344.5,105.1z"/>
		<path class="st10" d="M86.8,321.8c2-0.6,4-1.2,6.1-1.8s2.9-0.2,3.3,1c0.4,1.4-0.3,2.9-1.6,3.5c-1.6,0.9-3.4,0.8-5.1,1.3
			c-1.5,0.4-3.1,0.3-4.6-0.1c-1.2-0.4-1.4-1.2-0.5-2.1C85.2,322.9,85.9,322.3,86.8,321.8z"/>
		<path class="st11" d="M305,95.5c-1,1-2,1.6-3.3,0.5c3.7-5,6.8-10.4,10.1-15.6c0.5-0.9,0.9-2.5,2.3-1.8c1.6,0.8,0.3,2.1-0.3,3.1
			C310.9,86.4,307.9,91,305,95.5z"/>
		<path class="st12" d="M437.1,291.5c-0.1,0.3-0.2,0.7-0.3,1c-1.7,5-3.7,9.9-6,14.6c-0.5,0.9-0.9,2.4-2.3,1.7s-0.3-1.8,0.1-2.7
			c2.3-4.5,4-9.1,5.8-13.8c0.2-0.5,0.4-1,0.6-1.6s0.6-1,1.3-0.9C437.2,290.1,437.1,290.9,437.1,291.5z"/>
		<path class="st13" d="M84.4,309.9c1.6-0.3,3.3-0.5,4.9-0.5c0.9,0.1,1.6,0.3,1.9,1.3c0.2,0.8,0,1.7-0.7,2.3c-0.8,0.6-1.8,0.9-2.8,1
			c-1.7,0.3-3.5-0.4-5.2,0.3c-0.5,0.1-1.1,0.1-1.6,0c-0.7-0.2-1.6-0.2-1.6-1.2c0-0.8,0.5-1.4,1.3-1.6
			C81.8,310.8,83.1,310.4,84.4,309.9z"/>
		<path class="st14" d="M456.1,122.1c0.7,1.7-0.1,3.3-0.3,4.9c-0.2,2-0.7,4-1,6c-0.5,2.8-1.7,5.5-3.4,7.8c-0.4,0.5-0.8,1-1.3,1.5
			c-0.6,0.6-1.4,1.3-2.1,0.6s0.3-1.4,0.8-1.9c2.4-2.5,3.9-5.7,4.4-9.1c0.5-3.2,1.1-6.4,1.7-9.6L456.1,122.1z"/>
		<path class="st15" d="M147,55.1c0,3.6,0.3,7.2,1,10.8c0.3,2.8,2,5.3,4.6,6.6c0.8,0.4,2.2,0.8,1.6,1.9s-1.6,0-2.4-0.4
			c-2.9-1.4-5-4.1-5.4-7.3c-0.8-3.5-1.1-7.2-1-10.8c0-0.6,0-1.1,0.5-1.5L147,55.1z"/>
		<path class="st16" d="M348.5,108.3c-2.3,1.3-2.3,1.3-3.9-0.2c0.2-0.8,1.1-0.8,1.6-1.4c3.3-1.4,6.4-2.9,9.5-4.6
			c0.5-0.3,1-0.5,1.5-0.8s1.3-0.4,1.7,0.2s0,1.3-0.5,1.6c-0.8,0.5-1.6,1-2.4,1.4C353.5,105.9,351,107.1,348.5,108.3z"/>
		<path class="st17" d="M310.2,95.9c-0.6,0.5-1.2,0.8-1.9,1c-0.8,0.1-1.5,0-1.6-1c2.4-2.5,4.9-5,7.3-7.5c0.6-0.6,1.3-1.1,2-1.6
			c0.4-0.3,0.9-0.3,1.3,0.1c0.4,0.3,0.4,0.9,0.2,1.3c-0.4,0.5-0.8,1-1.2,1.5c-1.6,1.7-3.3,3.5-5,5.2C311,95.3,310.7,95.7,310.2,95.9
			z"/>
		<path class="st18" d="M316.7,95.7c-1.1,0.8-2.4,1.4-3.8,1.6c-1.2,0.1-0.7-0.7-0.7-1.3c-0.1-0.3-0.1-0.4,0.3-0.5
			c2.7-1.5,5.2-3.2,7.7-5c0.3-0.2,0.6-0.5,0.9-0.7c0.8-0.5,1.6-1.4,2.4-0.3s-0.3,1.7-1,2.2C320.5,93.1,318.6,94.4,316.7,95.7z"/>
		<path class="st19" d="M153.1,55.7c-0.1,1.9,0.1,3.9,0.5,5.8c0.4,2.8,2.1,5.2,4.5,6.7c0.3,0.2,0.6,0.4,0.9,0.6
			c0.3,0.2,0.4,0.7,0.2,1c-0.2,0.3-0.6,0.5-0.9,0.4c-0.9-0.3-1.7-0.7-2.4-1.3c-2.5-2.1-4.1-5.1-4.4-8.4c-0.2-1.5-0.1-3.1-0.2-4.7
			C151.9,55.6,152.5,55.5,153.1,55.7z"/>
		<path class="st20" d="M352,112.9c-0.9-0.1-2.1,1.1-2.7-0.2c-0.7-1.6,1.3-1.3,1.9-2.1l5.3-1.6c0.5-0.2,1.1-0.3,1.6-0.4
			c0.7-0.2,1.4,0,1.6,0.7s-0.3,1-0.8,1.3c-0.6,0.3-1.2,0.5-1.8,0.7L352,112.9z"/>
		<path class="st21" d="M467.1,165.7c0,0.4-0.2,0.8-0.5,1.1c-0.4,0.3-0.9,0.2-1.2-0.2c0,0,0,0,0,0c-1.4-2.1-2.7-4.4-3.8-6.8
			c-0.2-0.5,0-1.2,0.5-1.5c0.5-0.3,1.1-0.1,1.4,0.4c0,0,0,0.1,0,0.1c1.2,2.1,2.4,4.2,3.5,6.3C467,165.2,467.1,165.4,467.1,165.7z"/>
		<path class="st22" d="M312.5,95.5c-0.1,0.2-0.2,0.3-0.3,0.5l-2.1-0.1c0.1-0.5,0.5-1,1-1.1C311.4,95.3,312,95.4,312.5,95.5z"/>
		<path class="st23" d="M180.5,437.3l1.4,0.2C181.3,438,180.9,437.8,180.5,437.3z"/>
		<path class="st24" d="M286.7,435.1c0.3,0,0.5,0.3,0.4,0.6c0,0,0,0,0,0C286.8,435.6,286.6,435.4,286.7,435.1
			C286.7,435.1,286.7,435.1,286.7,435.1z"/>
		<path class="st1" d="M299.6,456.4c2.1,0.6,4.4,0.5,6.5-0.2c7.2-1.8,14.2-4.1,21-7c0.8-0.4,1.7-0.6,2.6-1c-1.4,3.2-2.4,6.4-3,9.8
			c-0.1,0.5-0.2,1.1-0.3,1.6c0,1.6,0.6,2.1,2,1.4c2.3-1.2,4.7-2.2,7.1-3.1c9.5-3.8,18.5-2.9,27.2,2.4c0.5,0.2,0.9,0.6,1.2,1.1
			c-0.6,0.5-1.3,0.7-2,0.7c-1.8,0.2-2.2,1.3-1.8,2.9c-0.1,0.3-0.3,0.5-0.5,0.6c-2.2,0.4-4.2-0.5-6.3-0.6c-1.4-0.2-2.8-0.1-4.1,0.4
			c6.2,0,11.9,2.6,17.9,3.7c1.2,0,2.4,0.5,3.3,1.2c0.3,1.2-0.4,2.2-0.6,3.4c-1.1,0.4-2-0.3-2.9-0.6c-1.3-0.5-2.6-0.8-4-0.8
			c-0.4,0-1,0-1.1,0.6s0.3,0.8,0.7,1.1c1.1,0.6,2.4,1,3.6,1.3c0.7,0.2,1.9-0.1,1.9,1.3c-5.7,2.7-11.8,3.1-18,2.8
			c-3.6-0.2-7.2-0.7-10.8-0.9c-2.3-0.1-4.6-0.1-7,0c-9.5,0.3-18.4-2.2-27-5.9c-0.6-0.3-1.2-0.6-1.7-0.9c-4.7-2.8-5.8-5.3-4.8-10.7
			C299,459.3,299.3,457.8,299.6,456.4z"/>
		<path class="st25" d="M370.4,470.2c-3-0.1-5.9-0.7-8.7-1.6c-3.9-1.4-8.1-2.1-12.3-2.1c-0.4,0-0.7,0-1.1,0c-0.5,0-0.9-0.4-0.9-0.9
			c0-0.5,0.2-0.9,0.7-1.1c0.7-0.3,1.4-0.4,2.2-0.3c3.2,0,6.5,0.4,9.6,1.1c0.8-0.1,1.7,0.1,2.4,0.5l0.7,0.3c0.5,0.2,1,0.3,1.5,0.4
			c1.8,0.8,3.9,0.4,5.4,1.8C370.3,468.8,370.5,469.5,370.4,470.2z"/>
		<path class="st26" d="M359.9,464.7c-1.6-2-1.5-2.5,0.9-3c1.1-0.2,2.2-0.2,3.3-0.3c1.4,0.7,3,0.7,4.5,1.1c1.6,0.3,3.2,1,4.5,2.1
			c0.5,0.4,0.9,0.8,0.6,1.4c-0.2,0.6-0.9,0.9-1.5,0.7c0,0-0.1,0-0.1,0c-0.6-0.2-1.3-0.4-1.9-0.5c-1.5,0.3-3.1,0.5-4.6,0.4
			c-0.4,0-0.8-0.1-1.3-0.1c-0.7,0-1.4-0.1-2-0.3C361.6,465.5,360.4,465.7,359.9,464.7z"/>
		<path class="st27" d="M367.9,476.3c-1.2-0.3-2.5-0.6-3.7-1c-0.7-0.2-1.4-0.4-2.1-0.7c-1-0.5-2-1.3-1.7-2.5s1.6-0.8,2.6-0.8
			c2.5,0.1,4.6,1.2,6.7,2.3c0.9,1.1,2.7,1.4,2.8,3.3C370.9,477.2,369.5,476.2,367.9,476.3z"/>
		<path class="st28" d="M365.5,465.9c1.6,0,3.2-0.3,4.7,0.3c-1.4,0.5-0.3,1.4-0.4,2.1c-2.1-0.1-4.1-0.6-6-1.4
			c-0.4-0.2-0.9-0.1-1.2-0.5c-0.1-0.1-0.3-0.1-0.4-0.1c-0.2,0-0.3-0.1-0.2-0.2s0.1-0.2,0.1-0.2h2.2
			C364.6,466.2,365.1,466.2,365.5,465.9z"/>
		<path class="st24" d="M368.9,179.2c0.9-0.1,1.9,0.1,2.7,0.6c6.6,2.9,13.2,6,19.1,10.3c0.8,0.6,1.8,1.6,2.6,0.5s-0.4-1.8-1.2-2.4
			c-3.8-2.8-7.8-5.2-12-7.1c-0.9-0.3-1.7-0.8-2.4-1.5l17.3-3.8c0.4-0.1,0.9-0.1,1.5-0.2c1.4,5.5,2.9,11,4.3,16.5
			c2.2,8.4,3.9,16.8,6.4,25.1c0.4,0.9,0.4,1.9,0,2.7c-4.3,8-8.6,16.1-17,20.9c-3,1.6-6.2,3-9.5,4.1c-8.6,2.9-17.3,5.6-25.8,8.9
			c-4,1.5-5.5,1-8-2.5c-0.9-1.2-1.6-2.5-2.4-3.8c-0.4-0.6-0.9-1-1.6-0.6s-0.6,1.1-0.2,1.7c1.5,2.7,3,5.4,5.6,7.2
			c0.8,0.5,1.2,1.3,1.2,2.3c0.5,6.2,1,12.4,1.5,18.6c1.2,14.2,2.3,28.4,3.5,42.5c0.1,1.2,0.2,2.4,0.5,3.6c0.2,1.3-0.1,1.8-1.5,2
			c-13.7,2.1-27.6,3.2-41.4,3.2c-2.1,0-4.3-0.1-6.4-0.3c-2.6-0.1-5.2-0.9-7.4-2.1c-12.3-7.4-24.7-14.5-36.6-22.6
			c-7.5-5-14.4-11-20.4-17.7c-3.8-4.2-6.4-9.1-8.8-14.1c-1.9-4-2.4-8.6-1.2-12.8c2-7.9,3.1-16.1,3.4-24.3c0.1-4.3,0-8.6-1.3-12.7
			c-0.5-1.8-1.4-3.4-2.5-4.9c-3.7-5-8.1-9.2-14-11.7c-11.4-4.9-20-13.1-26.8-23.3c-4.2-6.3-8.9-12.2-12.4-18.9
			c-0.4-0.8-0.8-1.6-1.3-2.6c0.8-0.5,1.7-0.8,2.6-0.9c14.2-3.6,27.4-10.4,38.6-19.9c1-0.8,2.1-1.6,3.1-2.4s2.4-1.7,3.6-2.4
			c0.6,0,0.8,0.4,0.9,0.7c3.8,7.3,8.8,13.8,13.6,20.4c5.3,7.4,12.4,12.8,19.8,17.9c4.6,3.2,9.5,5.9,13.8,9.4
			c4.3,3.2,7.7,7.4,10,12.2c0.6,1.3,0.8,2.9,0.4,4.3c-0.4,1.9-1.1,3.7-2,5.5c-3.8,7.2-9.1,13.5-15.4,18.6c-0.8,0.6-2.7,1.2-1.5,2.7
			c1,1.2,2-0.3,2.8-0.9c5.1-3.9,9.6-8.6,13.2-13.9l1.4-2c1.9,1.2,3.7,2.3,5.4,3.4c3.2,2.1,6.3,4.3,10,5.6c0.6,0.2,1.1,0.7,1.2,1.4
			c0.4,1.6,1,3.2,1.7,4.7c1.2,2.3,0.7,4.1-0.5,6.2c-7.4,13.3-13,27.3-18.6,41.4c-3.4,8.5-1.2,16.5,2.4,24.2c1,2.1,2.2,2.3,4,0.9
			s3.6-3,5.3-4.5c1.4-1.5,3-2.8,4.6-4c3-1.9,4.1-4.7,4.2-8.1c0.4-15.7,2.9-31.3,4.3-46.9c0-2.1,1-4.1,2.6-5.5
			c1.8-1.5,2.9-3.6,4.1-5.6c0.4-1,1.5-1.6,2.6-1.5c11.9,0.9,22.2-3.6,32.2-9.3c1.1-0.5,1.9-1.6,2-2.9c0.5-1.9,0.2-3.9,0.3-5.8
			c-0.1-0.8,0.4-1.6,1.2-1.9c4.7-1.7,9-4.4,12.6-7.8c1.6,0.4,1.9,1.9,2.4,3.2c2.4,5.3,4.2,10.9,5.3,16.6c0,0.9,0.5,1.8,1.3,2.3
			c-0.5-4-1.5-8-2.8-11.9c-1.1-3.1-2.4-6.2-3.8-9.2c-0.4-0.9-1.2-1.7-0.6-2.8c0-1.1,0.6-2.2,1.6-2.8c1.9,0.4,2.5,2.3,3.7,3.5
			c0.8,0.9,1.3,2,2.5,2.6c-0.8-2-2.1-3.9-3.6-5.5c-0.9-1-2.2-1.8-1.8-3.5l1.4-1.6c2.7,0.2,4.1,2.3,6,3.7c1.3,1,2.2,2.5,3.9,3
			c-1.8-2.9-4.5-5-7.1-7c-0.8-0.6-2.1-0.9-2.1-2.4L368.9,179.2z"/>
		<path d="M334.9,141.2c4.6,0,8.7,1.5,12.9,3c5.9,2.1,8,7.1,10.2,12.1c0.7,1.5,0.5,3.2-0.5,4.5c-0.7,0.8-0.5,1.7-0.4,2.6
			c0.2,3.9,0.5,7.9-0.5,11.7c-1.6,6.6-5.1,11.5-12.2,13c-0.7,0.1-1.3,0.2-1.4,1.1s-0.2,2-1.4,2s-0.9-1.4-1.5-2.2l-5.8,6
			c-1.6,1.9-4.1,2.8-6.5,2.3c-2-0.4-4.1-0.3-6-1.1c-2.2-0.9-2.6-1.7-1.5-3.8c1.6-3.4,1.9-7.3,0.7-10.9c-0.3-1-0.7-1.6-1.9-1.7
			c-4.3-0.1-7.9-2.1-11-4.8c-1.1-1-2-1.1-3.1-0.1c-1.5,1.3-3.2,2.6-4.8,3.9c-0.7,0.5-1,1.4-0.5,2.2c2.3,5,4.8,9.9,8.5,14
			c4,4.3,9.4,5.4,15.1,5.2c1.1-0.1,2.2-0.3,3.3-0.6c0.8-0.2,1.6-0.3,1.9,0.6c0.4,1.1-0.5,1.5-1.3,1.7c-2.7,0.8-5.5,1-8.3,0.6
			c-6.6-0.7-12.5-4.5-15.8-10.2c-2.1-3.3-4-6.8-5.6-10.4c-1,0.6-1.9,1.4-2.5,2.4c-0.5,0.6-0.9,1.2-1.4,1.8c-0.3,0.5-1,0.7-1.5,0.4
			c-0.7-0.4-0.6-1.1-0.3-1.7c0.8-1.6,1.9-3,3.2-4.2c1-0.7,1.3-2.1,0.6-3.2c-2-4.2-4.2-8.3-6.5-12.4c-0.7-1.2-1.4-1.2-2.5-0.8
			c-4.7,1.5-9.2,3.5-13.5,5.9c-0.5,0.3-1,0.6-1.5,0.8c-0.7,0.4-1.6,1-2.2,0s0.4-1.5,1-2c1.8-1.2,3.6-2.3,5.6-3.1
			c3.4-1.6,6.9-2.8,10.6-4.2c-1.7-2.3-3.5-4-6.4-4c-0.7,0-1.5-0.1-2.2-0.1c-1-0.1-2.4,0.4-2.3-1.2s1.5-1,2.5-1c1.7,0,3.4,0,5,0
			c3.9-0.1,7.8,0.2,11.7-0.6c3.7-0.8,7.2-2.2,10.5-4.2c-2.1-0.8-4.2-1.3-6.5-1.4c-1.7-0.2-3.3-0.2-5-0.4c-0.6,0-1.1-0.3-1.2-0.9
			s0.5-0.9,1-1.1c1.4-0.4,2.8-0.4,4.2-0.2c2.9,0.2,5.7,0.8,8.5,1.6c1.4,0.5,3,0.3,4.1-0.7c4-3,8.6-5,13.5-5.9
			c1.1-0.3,2.2-0.4,3.3-0.3C329.8,140.8,332.4,140.8,334.9,141.2z"/>
		<path class="st3" d="M252.1,141.2c-1.4-0.9-1.4-2.1-0.9-3.6c3-8.3,7.2-15.8,13.6-22c0.9-0.8,1.6-1.8,2.4-2.7
			c1-0.1,1.7,0.4,2.8,1.1c-7.3,6.3-12.9,14.2-16.5,23.1c0.3,0.5,0.6,0.5,0.8,0.4c7.7-3.4,15.7-3.4,23.8-2.1c2,0.3,4.1,0.5,6.1,0.9
			c1.4,0.3,2.8,0,3.9-1c1.3-1.1,2.5-2.2,3.7-3.4c1.6-1.7,3.7-2.9,5.9-3.6c4.3-1.5,9.1,0.7,10.7,5c1.7,3.9,1.1,5.1-3,6.1
			c-4.5,1-9.1,1.1-13.6,0.4c-4.1-0.6-8.3-1.2-12.4-1.9C270,136.3,260.8,136.6,252.1,141.2z"/>
		<path class="st24" d="M345.9,202.8c0,0.8,0.1,1.7,0.1,2.5c0,4.3,0,4.3-3.9,6.3c-4.4,2.3-8.9,4.2-13.6,5.7
			c-4.4,1.5-8.9,1.7-13.5,1.7c-1.1,0.1-2-0.6-2.2-1.7l-1.8-5.9c0.2-1.5,1.5-1.2,2.4-1.2c3.6-0.2,7.2-0.9,10.8-1.1
			C331.8,208.6,339.2,206.4,345.9,202.8z"/>
		<path class="st29" d="M302.6,209.8c-0.6,1.8-1.6,3.5-2.9,5c-1.2,1.5-1.9,1.7-3.6,0.9c-1.9-0.9-3.8-1.9-5.6-3
			c-2.4-1.4-4.6-3.1-7-4.5c-1.1-0.7-1.7-1.3-0.8-2.6c1.2-2.1,2-4.4,2.4-6.8c2.1,1.5,4.2,3,6.3,4.5c2.8,2,5.8,3.6,9,4.9
			C301.3,208.6,302.3,208.8,302.6,209.8z"/>
		<path class="st29" d="M308.3,210.3c0.7,2.5,1.5,5,2.2,7.5c0.2,0.7,0.5,1.4,0,2.1c-1.7,2.4-3,5.1-5.2,7.2c-1.7,1.7-2,1.6-3-0.6
			c-0.4-0.9-0.7-1.9-1.1-2.8c-1.4-2.9-2.4-5.5,0.9-8c1.7-1.3,2.4-3.7,3.1-5.8C306.3,209.8,307.3,210,308.3,210.3z"/>
		<path class="st30" d="M353.6,138.3c-0.3,5-1.1,6.5-5.9,4.2c-1.4-0.7-2.9-1.2-4.5-1.3c-1,0-1.7-0.8-1.7-1.8c0-0.2,0-0.4,0.1-0.6
			c0.6-2.5,2-4.7,4-6.2c2-1.6,4.9-1.3,6.6,0.7c0.5,0.6,0.9,1.4,1,2.2C353.4,136.6,353.5,137.6,353.6,138.3z"/>
		<path class="st7" d="M364.2,191.8c3.6,6.6,6.2,13.7,7.7,21.1c0.2,0.9,0.3,1.8,0.3,2.8c0,0.7-0.3,1.3-1.1,1.3c-0.6,0-1-0.4-1.1-1
			c-0.2-0.9-0.3-1.8-0.5-2.7c-1.4-6.8-3.7-13.4-7-19.6l-3.8-6.1c-0.4-0.7-0.8-1.4,0.1-2s1.4,0.1,1.8,0.8L364.2,191.8z"/>
		<path class="st8" d="M316.9,107.1c0,0.6-0.4,1-0.9,1c-0.1,0-0.2,0-0.4,0c-0.5-0.1-1-0.4-1.5-0.7c-1.1-0.8-2.1-1.6-3-2.5
			c-1.7-2-4.5-2.6-6.8-1.5c-2.3,1-4.6,2-6.9,3c-0.4,0.2-0.8,0.4-1.2,0.7c-0.7,0.3-1.5,0.6-1.9-0.3c-0.4-0.7,0.2-1.3,0.8-1.6
			c3.5-1.9,7-3.8,11-4.6c1.9-0.4,3.8,0.1,5.3,1.3c1.7,1.3,3.3,2.7,5,4.1C316.6,106.1,316.9,106.6,316.9,107.1z"/>
		<path class="st31" d="M368.6,181.9c3,2.4,6.2,4.4,8.8,7.1c0.6,0.6,1.1,1.2,1.6,1.9c0.3,0.4,0.2,0.9-0.1,1.3
			c-0.3,0.4-0.8,0.5-1.2,0.2c-0.7-0.5-1.3-1-1.9-1.6c-2.4-2.3-5-4.4-7.8-6.3c-2.1-1.5-4.4-2.7-6.8-3.6c-0.7-0.2-1.3-0.6-1.1-1.3
			s1-1,1.8-0.8c1.9,0.5,3.5,1.6,5.3,2.4C367.7,181.3,368.1,181.6,368.6,181.9z"/>
		<path class="st32" d="M341,111.5c2.1-0.1,4.1,1,5.1,2.8c0.6,0.9,1.5,1.7,2.5,2.2c0.7,0.4,1.3,0.9,0.8,1.8s-1.3,0.6-2,0.3
			c-1.2-0.4-2.3-1.3-3-2.4c-1.2-2.2-3.1-2.5-5.2-2.2c-1.3,0.3-2.5,0.6-3.7,1.1c-0.8,0.3-1.7,0.7-2.1-0.4c-0.3-0.9,0.5-1.3,1.2-1.6
			C336.5,112.1,338.8,111.6,341,111.5z"/>
		<path class="st33" d="M366.6,186.1c0.9,1.8,2.5,2.9,3.6,4.5c0.7,1.1,1.6,2.1,2.2,3.2c0.5,0.8,1.6,1.8,0.4,2.6s-1.8-0.5-2.3-1.3
			c-1.4-2.1-3-4.2-4.8-6.1c-1.2-1.4-2.6-2.7-4-3.9c-0.5-0.4-1-1-0.4-1.7s1.4-0.5,1.9,0.1C364.3,184.5,365.2,185.6,366.6,186.1z"/>
		<path class="st32" d="M346.4,127.1c1.4,0.1,2.8-0.1,4.1,0.6c0.6,0.3,1.1,0.8,0.8,1.6c-0.2,0.5-0.9,0.8-1.4,0.6
			c-0.9-0.3-1.8-0.4-2.7-0.4c-2.3-0.3-4.7,0.3-6.6,1.6c-0.6,0.4-1.3,0.6-1.7,0s-0.1-1.4,0.6-1.9C341.4,127.7,343.9,127,346.4,127.1z
			"/>
		<path class="st34" d="M300,124.6c-0.3,0-0.5,0.1-0.8,0.1c-0.8,0.2-1.8,0.4-1.9-0.8c-0.1-0.9,0.7-1.2,1.4-1.4
			c2.7-0.5,5.4,0.2,7.5,1.9c0.6,0.3,0.8,1.1,0.4,1.6c0,0,0,0,0,0.1c-0.4,0.7-1.1,0.5-1.7,0.1C303.6,125.2,301.8,124.7,300,124.6z"/>
		<path class="st35" d="M334.9,141.2h-7.6c2-0.9,4.2-0.3,6.5-0.6c-0.5-1.6,0.1-3.2-0.6-4.7c-0.2-0.5,0.1-1.1,0.6-1.3
			c0,0,0.1,0,0.1,0c0.6-0.2,1.2,0.1,1.4,0.6c0.9,1.5,0.9,3.3,0,4.7C335,140.4,334.7,140.6,334.9,141.2z"/>
		<path class="st24" d="M359.8,376.9c0,12.6-3.3,25-9.6,36c-4.3,7.4-8.6,14.8-13.5,21.8c-1.8,2.5-3.4,5.1-4.8,7.9
			c-0.7,1.6-2.1,2.9-3.7,3.6c-7.8,3.4-15.8,6.1-24,8c-3.2,0.7-4.3,0.1-5.8-2.9c-1.1-2.2-2.1-4.3-3.2-6.5
			c-4.1-8.6-9.7-16.4-16.4-23.1c-7.4-7.3-14.6-14.6-21.5-22.4c-5.1-5.8-9.3-12.1-11-19.8c-0.8-3.6-1.5-7.3-2.3-10.9
			c-0.2-1.1,0.4-1.3,1.1-1.6c2.1-0.8,4.2-1.6,6.2-2.4c0.6-0.2,1.2-0.5,1.7-0.9c0.4-0.2,0.6-0.8,0.4-1.2c-0.2-0.4-0.6-0.7-1.1-0.7
			c-0.9,0-1.8,0.3-2.7,0.7c-4.7,1.7-9.3,4-14.2,5.1c-11.5,2.6-22.5,1.6-32.7-5c-9.1-5.9-18.1-12-28-16.7c-9.1-4.4-18.9-7-29-7.6
			c-4.5-0.3-8.9-0.6-13.4-0.9c-2.4-0.2-2.6-0.4-2.7-2.6c-0.3-4.4-0.4-8.7-0.7-13.1c-0.3-2.3,0.8-4.5,2.8-5.6
			c2.7-1.6,4.8-4.2,6.7-6.7c4-5.4,7.5-11.1,10.6-17c3.5-6.6,7.1-13.3,11.7-19.3c3.6-4.7,7.7-9,12.3-12.6c5.3-4,11.6-6.5,18.2-7.1
			c6.6-0.8,5.1-0.8,9.1,3.8c2.1,2.4,3.8,5,5.7,7.6c2.7,3.5,5.7,6.9,8.8,10c2.7,3.1,6.9,4.4,10.9,3.6c1.7-0.3,3.5-0.3,5.3-0.5
			c0.9-0.2,1.8,0.2,2.2,1c4.9,8.5,11.9,14.9,19.5,20.9c9.3,7.3,19.5,13.3,29.6,19.5c4.3,2.6,8.7,5,12.9,7.7s8.8,3.4,13.6,3.4
			c8.5,0.1,16.9-0.2,25.4-0.9c2.7-0.2,2.6-0.2,3.4,2.3c1.1,3.4,1.9,7,2.2,10.6c0.2,3.7,2.2,7.1,5.4,9c3.6,2.5,6.8,5.5,10.3,8.1
			c1.8,1.2,2.9,3.2,3,5.3C359.4,368.9,359.7,372.9,359.8,376.9z"/>
		<path class="st24" d="M220.4,125.8c1,2,1,4.1,2.1,5.8c0.4,0.7-0.1,1-0.5,1.4c-14.3,11.6-29.6,21.5-48.1,25.1
			c-0.7,0.1-1.6,0.9-2.3-0.1c-0.7-1-1.1-2.2-1.1-3.4c0.1-0.8,0.9-0.8,1.6-0.9c4.3-0.8,8.3-2.6,12.4-4.2c4.2-1.7,8.2-3.9,11.9-6.6
			c6.3-4.5,13-8.3,19.1-13C217,128.6,218.6,127.3,220.4,125.8z"/>
		<path class="st24" d="M357.1,357.6c-1.1-0.9-2.2-1.7-3.2-2.6c-1.9-1.7-4-3.3-6.2-4.8c-3.1-2-5.1-4.6-5.4-8.6
			c-0.3-3.6-1.1-7.2-2.3-10.6c-0.2-0.6-0.3-1.2-0.3-1.8l13.4-1.8C354,337.5,355.7,347.4,357.1,357.6z"/>
		<path class="st29" d="M402.9,169.8c0.7,2.5,1.4,4.9,2.1,7.3c3.2,10.9,6.1,21.9,8.2,33c0.5,2.5,0.7,5,1.2,7.4
			c0.3,0.8-0.1,1.7-0.8,2.2c-0.8,0.6-1.6,1.2-2.7,2c-1-3.7-2-7.2-2.9-10.7c-2.9-11.6-5.7-23.3-9-34.8c-0.3-1-0.7-1.9-1-2.9
			c-0.6-1.9-0.3-2.3,1.5-2.7C400.6,170.3,401.6,170.1,402.9,169.8z"/>
		<path class="st29" d="M231.6,275.7c-2.8,0.2-5.1,0.3-7.4,0.7c-2.4,0.3-4.9-0.5-6.6-2.4c-2.7-2.5-5.2-5.3-7.6-8.1
			c-2.9-3.6-5.4-7.6-8.5-11.1c1.2-0.4,2,0.3,2.8,0.6c3.1,1.4,6.2,3,9.2,4.6c4.2,2.3,8.4,4.8,13.3,5.6c0.5,0.1,1,0.5,1.1,1
			C229.1,269.5,230.3,272.4,231.6,275.7z"/>
		<path class="st29" d="M298.3,278.9c-0.2,1.4-0.3,2.3-0.4,3.1c-0.5,3.6-1.6,4.3-5.1,4.1s-6.8-0.9-10.2-1.3c-0.9,0-1.7-0.7-1.8-1.7
			c0,0,0,0,0,0c-0.3-2.2-0.2-4.5,0.3-6.6c0.2-1,0.8-1.3,1.8-1.1c4.5,0.7,9,1.3,13.5,1.9C297.9,277.5,298.7,277.9,298.3,278.9z"/>
		<path class="st29" d="M282.6,272.8c0.9-3.1,2.1-6.2,3.5-9.2c0.3-0.7,0.9-0.6,1.4-0.6c3.6,0.6,7.1,1.1,10.7,1.7
			c0.5,0,0.8,0.4,0.8,0.9c0,0,0,0,0,0c-0.2,2.8-0.4,5.6-0.6,8.3c-0.1,0.8-0.7,0.8-1.3,0.7L282.6,272.8z"/>
		<path class="st24" d="M287.5,260.5c0.6-2.5,1.8-4.5,2.6-6.6c0.3-0.7,0.8-0.9,1.6-0.8c2.3,0.3,4.6,0.7,6.9,0.9
			c1.2,0.1,1.6,0.6,1.5,1.8c-0.2,1.7-0.4,3.5-0.6,5.3c-0.1,1-0.6,1.1-1.5,1C294.6,261.8,291.2,261.2,287.5,260.5z"/>
		<path class="st24" d="M291.7,250.6c0.9-2.5,2-5,3.2-7.5c0.2-0.4,0.4-0.8,1-0.9c1.7,0,3.3,0.2,4.9,0.6c0.6,0.1,0.5,0.7,0.5,1.1
			c-0.2,2.2-0.4,4.4-0.6,6.6c-0.1,0.9-0.6,1-1.4,0.9C296.8,251.3,294.3,251,291.7,250.6z"/>
		<path class="st24" d="M281.6,287.1l10.6,1.6c-2.3,2.4-4.8,4.7-7.5,6.7C283.3,292.9,282.3,290.1,281.6,287.1z"/>
		<path class="st24" d="M296.6,239.8c1.1-3.4,3-6.2,4.5-9.1c0.1-0.2,0.3-0.5,0.6-0.4c0.3,0.1,0.6,0.3,0.9,0.6
			c0.1,0.2,0.2,0.5,0.1,0.8c-0.5,2.8-0.2,5.7-1.1,8.7L296.6,239.8z"/>
		<path class="st23" d="M263.8,174.1c0.5-0.4,0.5,0,0.5,0.3L263.8,174.1z"/>
		<path class="st36" d="M362.1,465.9c0.1,0.1,0.1,0.2,0.1,0.4c-0.8-0.2-1.7-0.2-2.4-0.9v-0.6C360.5,465.3,361.6,465,362.1,465.9z"/>
		<path class="st36" d="M362.6,466.4c0.5-0.1,0.9,0.1,1.2,0.5C363.4,467,362.9,466.8,362.6,466.4z"/>
		<path class="st36" d="M365.5,465.9c-0.2,0.3-0.7,0.4-1,0.2c-0.1,0-0.1-0.1-0.2-0.2H365.5z"/>
		<path class="st37" d="M341,252.1c0.6,0.1,1.1,0.5,1.3,1c1.9,3.3,3.2,6.9,3.9,10.6c0.2,0.6-0.1,1.3-0.7,1.5c0,0-0.1,0-0.1,0
			c-0.8,0.2-1.2-0.3-1.4-1s-0.3-1.3-0.5-1.9c-0.7-2.9-1.7-5.7-3.2-8.3c-0.3-0.5-0.6-1.2,0-1.8C340.6,252.3,340.8,252.2,341,252.1z"
			/>
		<path class="st38" d="M242.4,232.9c-1.1,0.1-2.2-0.1-3.3-0.4c-0.5-0.2-1-0.5-1-1.2c0.1-0.9,0.8-1,1.4-0.9c2.3,0.4,4.6,0.3,6.9-0.4
			c0.9-0.3,1.7-0.6,2.6-0.9c0.6-0.3,1.3-0.1,1.6,0.5c0,0,0,0,0,0c0.3,0.8-0.2,1.3-0.8,1.5C247.5,232.3,245,232.9,242.4,232.9z"/>
		<path class="st1" d="M312.1,149.4c2.6-2.1,5.6-3.6,8.8-4.7c0.7-0.2,1.5-0.1,2.1,0.3c8.4,3.4,14.4,9.1,17.6,17.6
			c0.6,1.6,1,3.4,2.1,4.8c0.5,0.7,0.5,1.6,0.1,2.4c-0.3,0.9-0.7,1.7-1,2.6c-0.3,0.6-0.5,1.3,0.3,1.7c0.9,0.5,1.4-0.1,1.8-0.8
			c0.6-1.1,1-2.2,1.3-3.4c0.1-1,0.8-1.9,1.8-2.1c2.8-0.8,5-2.9,7.4-4.3c0.9,0.4,0.6,1.1,0.6,1.7c0.1,2.5,0.1,5-0.2,7.5
			c-0.4,3.8-2.2,7.4-5,10.1c-1.4,1.5-3.3,2.5-5.3,2.9c-1.1,0.2-1.9,0.2-1.9-1.1c0-0.3-0.1-0.6-0.2-0.8c-1.3-4.6-4.1-6.8-9-6.8
			c-2.4,0-4.8,0.1-7.2,0.4c-5.8,0.8-11.4,0.4-16-3.6c-0.3-0.3-0.8-0.5-0.9-1.2c1.9-1.2,4-2.1,6.3-2.6c2.5-0.7,5.1-1.2,7.6-1.9
			c0.6-0.1,1.3-0.3,1.9-0.5c0.4-0.1,0.6-0.5,0.6-0.9c0-0.5-0.4-0.9-0.9-1c-0.5-0.1-0.9,0-1.4,0.1c-4.8,0.9-9.7,1.9-14.2,4
			c-2.2,1-2.2,1-3.6-0.8c-0.3-0.4-0.5-0.7-0.9-1.1c0.7-1,1.8-1,2.7-1.2c3.2-0.8,6.5-1.5,9.8-2.3c0.5-0.1,0.9-0.1,1.4-0.3
			c0.6-0.2,1.2-0.6,1-1.4c-0.2-0.7-0.8-0.8-1.3-0.7c-0.6,0-1.1,0.1-1.7,0.2c-4.1,0.7-8.2,1.7-12.2,2.8c-1,0.5-2.3,0.2-2.8-0.9
			c-0.7-1.1-1.8-1.9-2.3-3.1c0.5-0.6,1.2-0.6,1.8-0.7c5.3-1,10.7-1.2,16.1-0.6c0.6,0.1,1.3,0.1,2,0.1c0.5,0,1-0.1,1.1-0.7
			c0.2-0.6-0.2-1.1-0.8-1.3c0,0,0,0,0,0c-0.5-0.1-1.1-0.2-1.6-0.3c-6.5-0.9-13-0.6-19.4,0.9c-1,0.4-2.2,0-2.7-1.1
			c0.4-0.6,1.1-0.5,1.6-0.7c3.5-1,6.8-2.5,9.9-4.4c1.1-0.8,2.5-0.9,3.6-0.4c5.4,2,10.6,4,14.7,8.3c0.5,0.5,1,0.9,1.7,0.3
			c0.5-0.5,0.5-1.2,0-1.7c0,0,0,0,0,0c-0.7-0.8-1.4-1.5-2.2-2.1c-3.2-2.5-6.7-4.4-10.4-5.8C313.8,150.4,312.8,150.3,312.1,149.4z"/>
		<path class="st24" d="M322.3,193.9c2.2-4.7,2.1-9.1,0.6-13.9c3.4-0.2,6.5-0.9,9.9-0.6c-0.1,3.8-1.2,7.4-3.1,10.6
			c-0.5,0.8-1.9,1.9-0.4,2.8c1.3,0.7,1.8-0.8,2.4-1.7c1.9-3,3-6.4,3.2-10c0.1-1.7,0.5-1.9,2-1.2c2.6,1.3,3.4,3.8,1.8,6.4
			c-1.9,3.1-4.5,5.4-7,7.8c-0.5,0.5-1.1,0.7-1.8,0.7C327.3,195,324.8,194.6,322.3,193.9z"/>
		<path class="st39" d="M290.8,163.2c0.2-0.2,0.3-0.3,0.5-0.4c5.3-1.8,5.5-1.8,8.7,3.4c-0.9,0.7-1.8,1.3-2.6,2
			c-0.5,0.3-0.7,1-0.4,1.5c0.4,0.7,1,0.7,1.7,0.3l0.5-0.3c2.7-1.4,3.8-1.1,5.2,1.6c0.3,0.5,0.3,0.9-0.1,1.2c-2,1.5-3.9,3.1-5.9,4.6
			c-0.3-0.3-0.4-0.4-0.5-0.5C295.7,171.9,293.4,167.5,290.8,163.2z"/>
		<path class="st40" d="M293.9,159.3c-5.6,2.1-4.5,1.8-7.1-1.6C289.3,157.5,291.7,156.8,293.9,159.3z"/>
		<path class="st24" d="M349.4,155.8l-0.3-1.1l0.2-0.2c0.2,0,0.4,0.1,0.5,0.2l0,0c0.2,0.2,0.3,0.4,0.4,0.6c0.7,1.2,1,2.6,1.1,4
			c0,0.5-0.3,0.9-0.8,0.9c0,0,0,0-0.1,0c-0.5,0-0.6-0.4-0.6-0.7c-0.1-0.7-0.1-1.5-0.1-2.2C349.6,156.7,349.5,156.2,349.4,155.8z"/>
		<path class="st41" d="M348.6,153.5c-0.3-0.2-0.6-0.6-0.2-0.7s0.7,0.3,0.8,0.7C349.1,153.8,348.9,153.8,348.6,153.5z"/>
		<path class="st42" d="M348.6,153.5h0.6c0.1,0.1,0.1,0.3,0,0.4c0.1,0.2,0.2,0.5,0.1,0.8l-0.1,0.1l-0.1-0.1
			C348.6,154.4,348.6,153.9,348.6,153.5z"/>
		<path class="st24" d="M349.4,155.8c0.4,0.3,0.5,0.9,0.3,1.4C349.4,156.7,349.3,156.2,349.4,155.8z"/>
		<path class="st24" d="M350.2,155.2c-0.2-0.1-0.4-0.3-0.4-0.6C350.1,154.7,350.2,154.9,350.2,155.2z"/>
		<path class="st24" d="M349.4,154.7l-0.1-0.8c0.3,0.1,0.5,0.4,0.6,0.8L349.4,154.7z"/>
		<path class="st24" d="M290,137.1c3.7-3.3,6.4-7.4,12.5-6.5c-2.2,1.9-3.3,3.8-3.2,6.3c0.1,1-0.7,1-1.3,1
			C295.3,137.9,292.6,137.7,290,137.1z"/>
		<path class="st24" d="M348.2,135.2c-0.8,0.9-1.4,1.9-1.7,3.1c-0.2,1.1-1,0.9-1.7,0.7c-1-0.3-0.5-1-0.2-1.5
			c0.5-1.2,1.4-2.2,2.5-2.9C347.7,134.2,348.2,134.1,348.2,135.2z"/>
		<path class="st43" d="M348.2,135.2c-0.1-0.7-0.7-0.6-1.2-0.6c0.7-0.9,1.5-0.7,2.4-0.5C349.2,134.6,348.8,135,348.2,135.2z"/>
		<path d="M133.7,270.3c-0.2,21.1-19.2,33.6-37.7,26.1c-5.7-2.3-10.9-5.8-15.1-10.3c-10.3-10.8-10-27.8,0.8-38.2
			c7.1-6.8,17.3-9.2,26.7-6.3c2.4,0.6,4.8,1.4,7.1,2.4C127,249.7,133.1,259,133.7,270.3z"/>
		<path class="st44" d="M100.5,292.1c-12.7,0.3-24.2-10.4-24.5-23.6c-0.6-13.6,10-25.1,23.6-25.6s25.1,10,25.6,23.6
			c0.6,13.6-10,25.1-23.6,25.6C101.2,292.1,100.9,292.1,100.5,292.1z"/>
		<path class="st44" d="M126.1,276.8c1.3,0.3,1.8,1.1,2.7,1.4c1.5,0.5,1.3,1.5,0.8,2.6c-1.7,3.9-1.2,3.4-4.6,1.1
			c-0.6-0.3-0.9-1-0.6-1.6c0-0.1,0.1-0.2,0.2-0.3C125.1,279.1,125.6,278,126.1,276.8z"/>
		<path class="st44" d="M130.5,276.4c-3.8-1.8-3.8-1.8-2.9-6.5C131.7,271.3,132,273.1,130.5,276.4z"/>
		<path class="st44" d="M120.9,285.8c0.4-1,1.1-1.8,1.9-2.5c0.9,0.4,1.8,0.9,2.5,1.6c0.9,0.5,1.2,1.7,0.6,2.6
			c-0.3,0.4-0.6,0.7-1.1,0.8c-0.5,0.2-0.9-0.1-1.2-0.4C122.7,287.3,121.8,286.5,120.9,285.8z"/>
		<path class="st44" d="M130.8,268.4c-2.4-0.6-3.6-2-3.4-4.4c0.1-0.8-0.5-1.6-0.2-2.4C129.9,262.3,130.6,263.6,130.8,268.4z"/>
		<path class="st44" d="M116.8,289.3c0.4-0.4,0.9-0.7,1.3-1.1c0.8-0.9,1.6-0.8,2.3,0c0.3,0.3,0.7,0.6,1,0.9s1.5,0.7,0.8,1.7
			c-0.5,1-1.7,1.3-2.7,0.8c-0.1-0.1-0.2-0.1-0.3-0.2C118.5,290.8,117.8,290.1,116.8,289.3z"/>
		<path class="st44" d="M111.9,292.4c3.2-2.1,3.2-2.1,5.9,1.1C114.5,295.5,114.8,295,111.9,292.4z"/>
		<path class="st44" d="M106.4,294.1c2.1-1.2,3.8-0.9,5.1,1.3C108.7,296.6,108.1,296.5,106.4,294.1z"/>
		<path class="st44" d="M125.2,254.6c0.6,0.8,1.2,1.6,1.8,2.4c0.3,0.4,0.5,0.8,0.5,1.3c-0.8,0.4-1.3,0-1.7-0.7c-0.5-1-0.9-2-1.3-3
			c0.1-0.2,0.4-0.3,0.6-0.1C125.1,254.6,125.1,254.6,125.2,254.6z"/>
		<path class="st44" d="M100.3,295.1c2.4-0.7,2.4-0.7,3.4,0.7C102.6,295.8,101.4,295.6,100.3,295.1z"/>
		<path class="st44" d="M123.3,253c-0.3-0.3-0.9-0.6-0.4-0.9s0.8,0.4,1.1,0.9c-0.1,0.2-0.4,0.3-0.6,0.2
			C123.4,253.1,123.4,253.1,123.3,253z"/>
		<path class="st44" d="M125.2,254.6h-0.7c-0.3,0-0.4-0.3-0.4-0.5c-0.2-0.2-0.2-0.5,0-0.7c0,0,0.1-0.1,0.1-0.1
			C124.6,253.6,125,254.1,125.2,254.6z"/>
		<path class="st44" d="M124.1,253.4c0,0.2,0,0.5-0.1,0.7c-0.3-0.3-0.6-0.7-0.7-1.2h0.7C124.1,253.1,124.1,253.3,124.1,253.4z"/>
		<path class="st45" d="M92.7,271.9c-1.2-0.8-2.4-1.7-3.5-2.7c-0.8-0.8-1.4-1.8-1.6-2.9c-0.3-2.3,1.3-3.6,3.4-2.8
			c0.7,0.2,1.1,0.7,1.1,1.4c-0.1,0.9-0.7,1-1.4,0.9c-0.3,0-0.5-0.1-0.7,0.5c0.8,1.4,2,2.5,3.5,3.1c0.5,0.3,1.1,0.2,1.5-0.3
			c0.4-0.4,0.7-0.9,1.1-1.3c2.3-2.9,2.3-2.9,0.5-6.1c-0.6-0.9-1-1.9-1.4-3c-0.9-3.1,0.8-5.2,4-5.1c1.5,0,3,0.2,4.4,0.8
			c1.1,0.5,2,0.8,2.8-0.6c0.3-0.6,1.1-1.2,1.9-0.5c0.5,0.5,0.6,1.3,0.1,1.8c-0.1,0.1-0.1,0.1-0.2,0.2c-1.1,1.1-0.5,1.9,0.3,2.8
			c0.9,0.9,1.6,2.1,1.9,3.4c0.3,2-1.2,3.5-2.9,2.9c-0.8-0.3-1.6-0.8-1.5-1.8s1-1,1.7-1.1c0-0.6-0.3-1.1-0.7-1.5
			c-0.3-0.4-0.6-0.7-1-1.2c-1.7,1.5-2.6,3.4-3.9,5c-0.6,0.8-0.2,1.4,0.2,2c0.8,1.1,1.3,2.5,1.4,3.9c0,2.6-1.3,4-3.9,3.9
			c-1.1,0-2.2-0.2-3.3-0.6c-0.9-0.4-1.9-0.1-2.4,0.8c-0.6,0.8-1.3,1.6-2,2.3c-0.4,0.4-1,0.4-1.4,0.1c0,0-0.1-0.1-0.1-0.1
			c-0.4-0.3-0.4-0.9-0.1-1.3C91.1,274,91.8,273.1,92.7,271.9z"/>
		<path class="st44" d="M100.1,262.6c-1.2-1.3-2.1-2.9-2.6-4.6c-0.3-1,0.1-1.6,1.2-1.7c0.7,0,1.3,0,2,0c3.2,0.3,3.4,0.8,1.6,3.4
			C101.6,260.6,100.9,261.5,100.1,262.6z"/>
		<path class="st44" d="M99.7,267.1c0.4,0.4,0.6,0.5,0.6,0.7c0.5,1.1,1.5,2.3,0.4,3.3s-2.6,0.5-4-0.3L99.7,267.1z"/>
		<path d="M226.7,36c-0.2,21.1-19.2,33.6-37.7,26.1c-5.7-2.3-10.9-5.8-15.1-10.3c-10.3-10.8-10-27.8,0.8-38.2
			c7.1-6.8,17.3-9.2,26.7-6.3c2.4,0.6,4.8,1.4,7.1,2.4C220,15.4,226.1,24.8,226.7,36z"/>
		<path class="st44" d="M193.5,57.8c-12.7,0.3-24.2-10.4-24.5-23.6c-0.6-13.6,10-25.1,23.6-25.6s25.1,10,25.6,23.6
			s-10,25.1-23.6,25.6C194.2,57.8,193.9,57.8,193.5,57.8z"/>
		<path class="st44" d="M219.1,42.5c1.3,0.3,1.9,1.1,2.7,1.4c1.5,0.5,1.3,1.5,0.8,2.6c-1.7,3.9-1.2,3.4-4.6,1.1
			c-0.6-0.3-0.9-1-0.6-1.6c0-0.1,0.1-0.2,0.2-0.3C218.1,44.8,218.6,43.7,219.1,42.5z"/>
		<path class="st44" d="M223.5,42.1c-3.8-1.8-3.8-1.8-2.9-6.5C224.7,37,225,38.8,223.5,42.1z"/>
		<path class="st44" d="M213.9,51.5c0.4-1,1.1-1.8,1.9-2.5c0.9,0.4,1.8,0.9,2.5,1.6c0.9,0.5,1.2,1.7,0.6,2.6
			c-0.3,0.4-0.6,0.7-1.1,0.8c-0.5,0.2-0.9-0.1-1.2-0.4C215.7,53,214.8,52.2,213.9,51.5z"/>
		<path class="st44" d="M223.8,34.1c-2.4-0.7-3.6-2-3.4-4.4c0.1-0.8-0.5-1.6-0.2-2.4C222.9,28,223.7,29.3,223.8,34.1z"/>
		<path class="st44" d="M209.8,55c0.4-0.4,0.9-0.7,1.3-1.1c0.8-0.9,1.6-0.8,2.3,0c0.3,0.3,0.7,0.6,1,0.9c0.4,0.5,1.5,0.7,0.8,1.7
			c-0.5,1-1.7,1.3-2.7,0.8c-0.1-0.1-0.2-0.1-0.3-0.2C211.5,56.5,210.8,55.8,209.8,55z"/>
		<path class="st44" d="M204.9,58c3.2-2.1,3.2-2.1,5.9,1.1C207.5,61.2,207.9,60.8,204.9,58z"/>
		<path class="st44" d="M199.4,59.8c2.1-1.2,3.8-0.9,5.1,1.3C201.7,62.3,201.1,62.2,199.4,59.8z"/>
		<path class="st44" d="M218.2,20.4c0.6,0.8,1.2,1.6,1.8,2.4c0.3,0.4,0.5,0.8,0.5,1.3c-0.8,0.4-1.4,0-1.7-0.7c-0.5-1-0.9-2-1.3-3
			c0.1-0.2,0.4-0.3,0.6-0.1C218.1,20.3,218.2,20.3,218.2,20.4z"/>
		<path class="st44" d="M193.3,60.8c2.4-0.7,2.4-0.7,3.4,0.7C195.6,61.5,194.4,61.3,193.3,60.8z"/>
		<path class="st44" d="M216.3,18.7c-0.3-0.3-0.9-0.6-0.4-0.9s0.9,0.4,1.1,0.9c-0.1,0.2-0.4,0.3-0.6,0.2
			C216.4,18.8,216.4,18.8,216.3,18.7z"/>
		<path class="st44" d="M218.2,20.4h-0.7c-0.3,0-0.4-0.3-0.4-0.5c-0.2-0.2-0.2-0.5,0-0.7c0,0,0.1-0.1,0.1-0.1
			C217.6,19.3,218,19.8,218.2,20.4z"/>
		<path class="st44" d="M217.1,19.1c0,0.3-0.1,0.5-0.1,0.7c-0.4-0.3-0.6-0.7-0.7-1.2h0.7C217.1,18.8,217.1,19,217.1,19.1z"/>
		<path class="st45" d="M185.7,37.6c-1.2-0.8-2.4-1.7-3.5-2.7c-0.8-0.8-1.4-1.8-1.6-2.9c-0.3-2.3,1.3-3.6,3.4-2.8
			c0.6,0.3,1.2,0.7,1.1,1.4s-0.7,1-1.4,0.9c-0.3,0-0.5-0.1-0.7,0.5c0.8,1.4,2,2.5,3.5,3.1c0.5,0.3,1.1,0.2,1.4-0.2
			c0.4-0.4,0.7-0.9,1.1-1.3c2.3-2.9,2.3-2.9,0.5-6.1c-0.6-0.9-1-2-1.4-3c-0.9-3.1,0.8-5.2,4-5.1c1.5,0,3,0.2,4.4,0.8
			c1.1,0.5,2,0.8,2.8-0.6c0.4-0.6,1.1-1.2,1.9-0.5c0.5,0.5,0.6,1.3,0.1,1.8c-0.1,0.1-0.1,0.1-0.2,0.2c-1.1,1.1-0.5,1.9,0.3,2.8
			c0.9,0.9,1.6,2.1,1.9,3.4c0.3,2-1.2,3.5-2.9,2.9c-0.8-0.3-1.6-0.8-1.5-1.8s1-1,1.7-1.1c0-0.6-0.3-1.1-0.6-1.5
			c-0.3-0.4-0.6-0.7-1-1.1c-1.7,1.5-2.6,3.4-3.9,5c-0.6,0.7-0.2,1.4,0.2,2c0.8,1.1,1.3,2.5,1.4,3.9c0,2.7-1.3,4-3.9,3.9
			c-1.1,0-2.2-0.2-3.3-0.6c-0.8-0.5-1.9-0.2-2.4,0.7c0,0,0,0,0,0c-0.6,0.8-1.3,1.6-2,2.3c-0.4,0.4-1,0.4-1.4,0.1
			c0,0-0.1-0.1-0.1-0.1c-0.4-0.3-0.4-0.9-0.1-1.3C184.1,39.7,184.8,38.8,185.7,37.6z"/>
		<path class="st44" d="M193.1,28.3c-1.2-1.3-2.1-2.9-2.6-4.7c-0.3-1,0.1-1.7,1.2-1.7c0.6,0,1.3,0,1.9,0c3.2,0.3,3.4,0.8,1.6,3.4
			C194.6,26.3,193.9,27.2,193.1,28.3z"/>
		<path class="st44" d="M192.7,32.8c0.4,0.4,0.6,0.5,0.6,0.7c0.5,1.1,1.5,2.3,0.4,3.3s-2.6,0.5-4-0.3L192.7,32.8z"/>
		<path d="M457.4,79.3c-0.2,21.2-19.2,33.6-37.7,26.2c-5.7-2.3-10.9-5.8-15.1-10.3c-10.3-10.8-10-27.9,0.8-38.2
			c7.1-6.8,17.3-9.2,26.6-6.3c2.4,0.6,4.8,1.4,7.1,2.4C450.7,58.7,456.7,68,457.4,79.3z"/>
		<path class="st44" d="M424.2,101.1c-12.7,0.3-24.2-10.4-24.5-23.6c-0.6-13.6,10-25.1,23.6-25.6c13.6-0.6,25.1,10,25.6,23.6
			s-10,25.1-23.6,25.6C424.9,101.1,424.5,101.1,424.2,101.1z"/>
		<path class="st44" d="M449.8,85.8c1.3,0.3,1.8,1.1,2.7,1.4c1.5,0.6,1.3,1.5,0.8,2.6c-1.7,3.9-1.2,3.4-4.6,1.1
			c-0.6-0.3-0.9-1-0.6-1.6c0-0.1,0.1-0.2,0.2-0.3C448.8,88.1,449.3,87,449.8,85.8z"/>
		<path class="st44" d="M454.2,85.4c-3.8-1.8-3.8-1.8-2.9-6.5C455.4,80.3,455.7,82.1,454.2,85.4z"/>
		<path class="st44" d="M444.6,94.8c0.4-1,1.1-1.8,1.9-2.5c0.9,0.4,1.8,0.9,2.5,1.6c0.9,0.5,1.2,1.7,0.6,2.6
			c-0.3,0.4-0.6,0.7-1.1,0.8c-0.5,0.2-0.9-0.1-1.2-0.4C446.4,96.3,445.5,95.5,444.6,94.8z"/>
		<path class="st44" d="M454.5,77.4c-2.4-0.6-3.6-2-3.4-4.4c0.1-0.8-0.5-1.6-0.2-2.4C453.6,71.3,454.3,72.6,454.5,77.4z"/>
		<path class="st44" d="M440.5,98.3c0.4-0.4,0.9-0.7,1.3-1.1c0.8-0.9,1.5-0.8,2.3,0c0.3,0.3,0.7,0.6,1,0.9s1.5,0.7,0.8,1.7
			c-0.5,1-1.7,1.3-2.7,0.8c-0.1-0.1-0.2-0.1-0.3-0.2C442.2,99.8,441.5,99.1,440.5,98.3z"/>
		<path class="st44" d="M435.6,101.3c3.2-2.1,3.2-2.1,5.9,1.1C438.2,104.5,438.5,104,435.6,101.3z"/>
		<path class="st44" d="M430.1,103.1c2.1-1.2,3.8-0.9,5.1,1.3C432.4,105.6,431.8,105.4,430.1,103.1z"/>
		<path class="st44" d="M448.9,63.7c0.6,0.8,1.2,1.6,1.8,2.4c0.3,0.4,0.5,0.8,0.5,1.3c-0.8,0.4-1.4,0-1.7-0.7c-0.5-1-0.9-2-1.3-3
			c0.1-0.2,0.4-0.3,0.6-0.1C448.8,63.6,448.8,63.6,448.9,63.7z"/>
		<path class="st44" d="M424,104.1c2.4-0.7,2.4-0.7,3.5,0.7C426.3,104.8,425.1,104.6,424,104.1z"/>
		<path class="st44" d="M447,62c-0.3-0.3-0.9-0.6-0.4-0.9s0.9,0.4,1.1,0.9c-0.1,0.2-0.4,0.3-0.6,0.2C447.1,62.1,447,62.1,447,62z"/>
		<path class="st44" d="M448.9,63.7h-0.7c-0.3,0-0.4-0.3-0.4-0.5c-0.2-0.2-0.2-0.5,0-0.7c0,0,0.1-0.1,0.1-0.1
			C448.3,62.6,448.7,63.1,448.9,63.7z"/>
		<path class="st44" d="M447.8,62.4c0,0.2,0,0.5-0.1,0.7c-0.3-0.3-0.6-0.7-0.7-1.2h0.7C447.8,62.1,447.8,62.3,447.8,62.4z"/>
		<path class="st45" d="M416.4,80.9c-1.2-0.8-2.4-1.7-3.5-2.7c-0.8-0.8-1.4-1.8-1.6-2.9c-0.3-2.3,1.3-3.6,3.4-2.7
			c0.6,0.2,1.1,0.7,1.1,1.4c-0.1,0.9-0.7,1-1.4,0.9c-0.3,0-0.5-0.1-0.7,0.5c0.8,1.4,2,2.5,3.5,3.1c0.5,0.3,1.1,0.2,1.5-0.3
			c0.4-0.4,0.7-0.9,1.1-1.3c2.3-2.9,2.3-2.9,0.5-6.1c-0.6-0.9-1-2-1.4-3c-0.9-3.1,0.8-5.2,4-5.1c1.5,0,3,0.2,4.4,0.8
			c1.1,0.5,2,0.8,2.8-0.6c0.4-0.6,1.1-1.2,1.9-0.5c0.5,0.5,0.6,1.3,0.1,1.8c-0.1,0.1-0.1,0.1-0.2,0.2c-1.1,1.1-0.5,1.9,0.3,2.8
			c0.9,0.9,1.5,2.1,1.8,3.4c0.3,2-1.2,3.5-2.9,2.9c-0.8-0.3-1.6-0.8-1.5-1.8s1-1,1.7-1.1c0-0.6-0.3-1.1-0.7-1.5
			c-0.3-0.4-0.6-0.7-1-1.2c-1.7,1.5-2.6,3.4-3.9,5c-0.6,0.7-0.2,1.4,0.2,2c0.8,1.1,1.3,2.5,1.4,3.9c0,2.7-1.3,4-3.9,3.9
			c-1.1,0-2.2-0.2-3.3-0.6c-0.9-0.5-1.9-0.1-2.4,0.7c0,0,0,0,0,0c-0.6,0.8-1.3,1.6-2,2.3c-0.4,0.4-1,0.4-1.4,0.1
			c0,0-0.1-0.1-0.1-0.1c-0.4-0.3-0.4-0.9-0.1-1.3C414.7,83,415.5,82.1,416.4,80.9z"/>
		<path class="st44" d="M423.7,71.6c-1.2-1.3-2.1-2.9-2.6-4.6c-0.3-1,0.1-1.7,1.2-1.7c0.6-0.1,1.3-0.1,2,0c3.2,0.3,3.4,0.8,1.6,3.4
			C425.2,69.6,424.6,70.5,423.7,71.6z"/>
		<path class="st44" d="M423.4,76.1c0.4,0.4,0.6,0.5,0.6,0.7c0.5,1.1,1.5,2.3,0.4,3.3s-2.5,0.6-4-0.3L423.4,76.1z"/>
		<path d="M427.9,342.3c-0.2,21.1-19.2,33.6-37.7,26.1c-5.7-2.3-10.9-5.8-15.1-10.3c-10.3-10.7-10-27.8,0.7-38.2
			c7.1-6.8,17.3-9.2,26.7-6.3c2.4,0.6,4.8,1.4,7.1,2.4C421.2,321.8,427.2,331.1,427.9,342.3z"/>
		<path class="st44" d="M394.7,364.2c-12.7,0.3-24.2-10.4-24.5-23.6c-0.6-13.6,10-25.1,23.6-25.6s25.1,10,25.6,23.6
			s-10,25.1-23.6,25.6C395.4,364.2,395,364.2,394.7,364.2z"/>
		<path class="st44" d="M420.3,348.8c1.3,0.3,1.9,1.1,2.7,1.4c1.5,0.5,1.3,1.5,0.8,2.6c-1.7,3.9-1.2,3.4-4.6,1.1
			c-0.6-0.3-0.9-1-0.6-1.6c0-0.1,0.1-0.2,0.2-0.3C419.3,351.1,419.8,350,420.3,348.8z"/>
		<path class="st44" d="M424.7,348.5c-3.7-1.8-3.7-1.8-2.9-6.5C425.9,343.4,426.2,345.1,424.7,348.5z"/>
		<path class="st44" d="M415.1,357.8c0.4-1,1.1-1.8,1.9-2.5c0.9,0.4,1.8,0.9,2.5,1.6c0.9,0.5,1.2,1.7,0.6,2.6
			c-0.3,0.4-0.6,0.7-1.1,0.8c-0.5,0.2-0.9-0.1-1.2-0.4C416.9,359.3,416,358.6,415.1,357.8z"/>
		<path class="st44" d="M425,340.4c-2.4-0.6-3.6-2-3.4-4.4c0.1-0.8-0.5-1.6-0.2-2.4C424.1,334.3,424.8,335.7,425,340.4z"/>
		<path class="st44" d="M411,361.4c0.4-0.4,0.9-0.7,1.3-1.1c0.8-0.9,1.5-0.8,2.3,0c0.3,0.3,0.7,0.6,1,0.9s1.5,0.7,0.8,1.7
			c-0.5,1-1.7,1.3-2.7,0.8c-0.1-0.1-0.2-0.1-0.3-0.2C412.7,362.9,412,362.2,411,361.4z"/>
		<path class="st44" d="M406.1,364.4c3.2-2.1,3.2-2.1,5.9,1.1C408.7,367.5,409,367.1,406.1,364.4z"/>
		<path class="st44" d="M400.6,366.1c2.1-1.2,3.8-0.9,5.1,1.3C402.9,368.6,402.3,368.5,400.6,366.1z"/>
		<path class="st44" d="M419.4,326.7c0.6,0.8,1.2,1.6,1.8,2.4c0.3,0.4,0.5,0.8,0.5,1.3c-0.8,0.4-1.4,0-1.7-0.7c-0.5-1-0.9-2-1.3-3
			c0.1-0.2,0.4-0.3,0.6-0.1C419.3,326.6,419.3,326.7,419.4,326.7z"/>
		<path class="st44" d="M394.5,367.2c2.4-0.7,2.4-0.7,3.5,0.7C396.8,367.9,395.6,367.6,394.5,367.2z"/>
		<path class="st44" d="M417.5,325c-0.3-0.3-0.9-0.6-0.4-0.9s0.8,0.4,1.1,0.9c-0.1,0.2-0.4,0.3-0.6,0.2
			C417.6,325.1,417.6,325.1,417.5,325z"/>
		<path class="st44" d="M419.4,326.7h-0.7c-0.3,0-0.4-0.3-0.4-0.5c-0.2-0.2-0.2-0.5,0-0.7c0,0,0.1-0.1,0.1-0.1
			C418.8,325.7,419.2,326.2,419.4,326.7z"/>
		<path class="st44" d="M418.3,325.5c0,0.2,0,0.5-0.1,0.7c-0.3-0.3-0.6-0.7-0.7-1.2h0.7C418.3,325.2,418.3,325.3,418.3,325.5z"/>
		<path class="st45" d="M386.9,344c-1.2-0.8-2.4-1.7-3.5-2.7c-0.8-0.8-1.4-1.8-1.6-2.9c-0.3-2.3,1.3-3.6,3.4-2.8
			c0.6,0.3,1.2,0.7,1.1,1.4s-0.7,1-1.4,0.9c-0.3,0-0.5-0.1-0.7,0.5c0.8,1.4,2,2.5,3.5,3.1c0.5,0.3,1.1,0.2,1.5-0.3
			c0.4-0.4,0.7-0.9,1.1-1.3c2.3-2.9,2.3-2.9,0.5-6.1c-0.6-0.9-1-1.9-1.4-3c-0.9-3.1,0.8-5.2,4-5.1c1.5,0,3,0.2,4.4,0.8
			c1.1,0.5,2,0.8,2.8-0.6c0.4-0.6,1.1-1.2,1.9-0.5c0.5,0.5,0.6,1.3,0.1,1.8c-0.1,0.1-0.1,0.1-0.2,0.2c-1.1,1.1-0.5,1.9,0.3,2.8
			c0.9,0.9,1.6,2.1,1.9,3.4c0.3,2-1.2,3.5-2.9,2.9c-0.8-0.3-1.6-0.8-1.5-1.8s1-1,1.7-1.1c0-0.6-0.3-1.1-0.7-1.5
			c-0.3-0.4-0.6-0.7-1-1.2c-1.7,1.5-2.6,3.4-3.9,5c-0.6,0.8-0.2,1.4,0.2,2c0.8,1.1,1.3,2.5,1.4,3.9c0,2.6-1.3,4-3.9,3.9
			c-1.1,0-2.2-0.2-3.3-0.6c-0.9-0.5-1.9-0.1-2.4,0.7c-0.6,0.8-1.3,1.6-2,2.3c-0.4,0.4-1,0.4-1.4,0.1c0,0-0.1-0.1-0.1-0.1
			c-0.4-0.3-0.4-0.9-0.1-1.3C385.3,346.1,386,345.1,386.9,344z"/>
		<path class="st44" d="M394.3,334.7c-1.2-1.4-2.1-2.9-2.6-4.7c-0.3-1,0.1-1.6,1.2-1.7c0.6,0,1.3,0,2,0c3.2,0.3,3.4,0.8,1.6,3.4
			C395.8,332.6,395.1,333.5,394.3,334.7z"/>
		<path class="st44" d="M393.9,339.2c0.4,0.4,0.6,0.5,0.6,0.7c0.5,1.1,1.5,2.3,0.4,3.3s-2.5,0.5-4-0.3L393.9,339.2z"/>
	</g>
</g>
</svg>
