<?xml version="1.0" encoding="utf-8"?>
<!-- Generator: Adobe Illustrator 23.0.2, SVG Export Plug-In . SVG Version: 6.00 Build 0)  -->
<svg version="1.1" id="Layer_1" xmlns="http://www.w3.org/2000/svg" xmlns:xlink="http://www.w3.org/1999/xlink" x="0px" y="0px"
	 viewBox="0 0 436.9 499.6" style="enable-background:new 0 0 436.9 499.6;" xml:space="preserve">
<style type="text/css">
	.st0{fill:#E3F2FF;}
	.st1{fill:#FFA76C;}
	.st2{fill:#030303;}
	.st3{fill:#020202;}
	.st4{fill:#040303;}
	.st5{fill:#050404;}
	.st6{fill:#030202;}
	.st7{fill:#040404;}
	.st8{fill:#050505;}
	.st9{fill:#060606;}
	.st10{fill:#080808;}
	.st11{fill:#080707;}
	.st12{fill:#FFFFFF;}
	.st13{fill:#010101;}
	.st14{fill:#020101;}
	.st15{fill:#FEFFFF;}
	.st16{fill:#38A1FC;}
	.st17{fill:#FEFEFE;}
	.st18{fill:#E5D4C9;}
	.st19{fill:#070808;}
	.st20{fill:#08090B;}
	.st21{fill:#070809;}
	.st22{fill:#0A0C0F;}
	.st23{fill:#0A0B0D;}
	.st24{fill:#090A0B;}
	.st25{fill:#08080A;}
	.st26{fill:#0B0D0F;}
	.st27{fill:#09090A;}
	.st28{fill:#090A0C;}
	.st29{fill:#08090A;}
	.st30{fill:#080A0D;}
	.st31{fill:#EBF3FC;}
	.st32{fill:#DFEEFA;}
	.st33{fill:#EFF0FB;}
	.st34{fill:#EFF8FD;}
	.st35{fill:#739CE5;}
</style>
<title>Asset 225</title>
<g>
	<g id="Layer_1-2">
		<ellipse class="st0" cx="231.2" cy="473.7" rx="94.6" ry="25.9"/>
		<path d="M198.6,454.4l-0.1-0.9c0.8-1.7,0.4-3.4,0.2-5.2c-0.5-5.3-1.7-10.4-2.4-15.6c-0.8-5.5-1.7-10.9-2.4-16.4
			c-0.1-1.2-0.8-2.3-2-2.7c-8-3.7-15.2-8.9-21.1-15.4c-11.3-11.6-20-25.5-25.7-40.6c-0.3-0.8-0.7-1.6-1.1-2.4
			c-2.1-1.8-2.4-4.4-3.1-6.8c-0.5-1.6-0.6-2.7-2.9-2.8s-2.8-2.6-3.3-4.5c0.1-1,0-2.1-0.3-3.1c0-0.5,0-1-0.1-1.6
			c0.1,0.6,0,1.1,0.1,1.5c0,0.1,0,0.2,0,0.3c0.2,0.7,0.3,1.4,0.2,2.1c-1.1,10-1.5,20.1-1.3,30.2c0.1,3.1,0.8,6.1,0.5,9.2
			c-0.1,1.1,0,2.4-1.4,2.9s-2.4-0.4-3.1-1.4c-1.1-1.5-1.9-3.1-2.6-4.9c-2.2-5.4-3.8-11-4.7-16.7c0-1-0.1-1.9-0.2-2.9
			c0-0.4-0.1-0.8-0.1-1.1c0-0.3,0-0.7,0.1-1c-0.1,0.3-0.1,0.7-0.1,1c0,0.4,0,0.8,0,1.2c0.2,0.5,0.2,1.1,0.2,1.6
			c0.1,5.4-0.7,10.8,0.2,16.3c0.5,3,1,6,1.7,9c0.2,0.8,0.4,1.5,0.5,2.3c0.1,0.9,0.1,1.9-1,2.2s-1.6-0.5-2-1.3
			c-0.5-1-0.9-2.1-1.4-3.1c-2.5-7.6-2.1-15.5-1.6-23.2c0.2-3.4,0-6.9,0.7-10.2c0.1-0.7,0.2-1.4,0.4-2.1c0.3-1,0.9-1.7,2-1.8
			c1,0,1.9,0.7,2.1,1.6c0.3,0.7,0.4,1.5,0.6,2.3c1.3,8,2.8,16,5.5,23.1c0.1-9-0.4-18.6,0.7-28.1c0.6-4.6,0.9-9.3,1.4-13.9
			c0.1-1.5,0.4-3,0.7-4.4c0.2-1,1-1.7,2-1.8c1.2,0,1.7,0.8,2,1.7c0.2,0.8,0.4,1.7,0.5,2.6c0.5,3.5,0.5,7.1,1.1,10.1
			c0.2-14.8,4.1-29.7,4.3-45c0.1-0.7,0.3-1.4,0.4-2c0.7-4.8,0.4-5.3-4-7.2c-5.8-2.4-10.9-6.1-14.9-10.9c-1.1-1.3-3.1-1.9-3.2-4
			c-2-1.9-2.5-4.8-1.3-7.3c0.4-1,0.5-2,0.9-3c0.7-2,1.5-2.3,3.3-1c0.5,0.3,0.8,0.9,1.6,1c1.6-3.8,2.9-7.7,4-11.6
			c4.7-15.4,10.9-30.2,17.5-44.8c2.9-6.5,5-13.3,8.3-19.6c7.1-13.7,13.9-27.6,22.3-40.6c5.1-7.9,11.3-15,17.7-21.9
			c1.4-0.6,1.4,0.4,1.6,1.3c-0.3,1.9-1.7,3.2-3,4.5c-1.3,1.3-1.3,2.1,0.4,3c9.6,4.6,19.6,7.4,30.4,6.8c1.3,0,2.6-0.6,3.3-1.7
			c0.6-1,1.3-1.8,2.1-2.6c2.7-2.3,3.3-2.4,5.9-0.7c1,1.1,1.9,2.3,2.6,3.6c1.6,2.6,2.4,3,5.4,1.8c4.8-2,9.4-4.3,13.9-6.8
			c3.8-2.1,7.9-3.9,11.3-6.8c2.5-2.1,2.6-2,0.8-4.7c-0.2-0.4-0.5-0.7-0.7-1.1c-0.4-0.7-0.9-1.5-0.6-2.2c0.4-1,1.2-1.5,2.1-0.3
			c11.2,14.5,20.8,30,30.4,45.5c8.8,14.1,15.5,29.3,21.3,44.8c6.6,17.5,11.9,35.4,16,53.6c1.4-0.5,2.7-1.1,4-1.8
			c0.8-0.5,1.8-0.3,2.3,0.5c0.1,0.1,0.1,0.2,0.1,0.3c0.9,1.7,1.7,3.5,2.3,5.3c0.5,1.4-0.1,2.9-1.3,3.7c-1.4,1-2.9,1.9-4.4,2.9
			c-1.4,1.5-3.1,2.7-5,3.3c-4.3,1.9-8.5,3.9-12.7,5.7s-4.3,1.9-3.3,6.4c3,13.6,6,27.3,8.5,41c0.8,3.5,0.5,7.2-0.9,10.5
			c-2,4.8-5.5,8.5-8.9,12.3c-8.4,9.4-18.3,17.3-29.3,23.4c-11.9,6.6-24.9,10.9-38.3,12.7c-24.4,3.4-47.5-1-69.6-11.6
			c-13-6.3-24.9-14.6-35.4-24.5c1.3,5.1,3,10,5.3,14.7c6.3,13.7,15.3,26,26.5,36.1c4.5,4.3,9.7,7.8,15.4,10.4
			c2.1,0.7,3.6,2.7,3.7,4.9c1.4,11.3,3.7,22.4,4.9,33.6c0.2,1.8,0.7,2.5,2.6,2.2c1.9-0.2,3.9-0.3,5.8-0.1c2,0.1,2.9-0.6,3.7-2.5
			c4.5-10.8,8.9-21.6,15.1-31.6c0.7-1.1,1.1-2.6,2.8-2.4s2.1,1.5,2.5,2.7c4,11.8,8.9,23.3,11.1,35.7c0.6,3,0.6,3,3.7,2.9
			c2.2-0.1,4.4-0.1,6.6,0c1.8,0,2.6-0.6,3-2.5c2.6-12,6.2-23.9,10.6-35.4c0.5-1.5,1.3-2.7,3-3c7.8-1.4,14.5-5.3,20.7-9.9
			c1.8-1.3,3.6-2.6,5.4-3.9c1.5-1,2.3-2.8,1.9-4.6c-0.6-2.9-0.3-5.8-0.8-8.6s0.7-5.7,1.6-8.5c0.4-0.9,1.1-1.6,2.1-1.9
			c9.1-3.4,18.2-6.6,27.3-9.7c0.3-0.1,0.7-0.1,1-0.1c2,0.4,2.1,1.5,0.9,2.9c-5.1,2.5-10.5,4-15.7,6c-3,1.1-6,2.1-8.9,3.2
			c-3.4,1.2-4.8,3.3-4.6,7c0.5,8.3,1.6,16.6,1.4,24.9c-0.1,2.9,0.6,3.4,3.5,2.8c10.6-2.3,21.4-3.9,32.1-6c1.9-0.4,2.8-1.1,3-3.2
			c1-10.4,2-20.8,3.3-31.1c0.4-1.6,0.5-3.3,0.3-4.9c-0.1-1.3,0-2.6,0.1-3.9c0.2-1.1,0.5-2,1.8-2.3c3.8-0.9,7.6-2,11.5-2.7
			c7.7-1.6,15.5-2.3,23.3-2.3c1.5,0.1,3-0.5,3.9-1.6c2.4-2.6,4.9-5,7.6-7.3c0.3-0.3,0.6-0.6,1-0.8c1.4-0.9,2.4-0.5,2.7,1.1
			c0.2,1.2,0.3,2.4,0.3,3.7c0,8.8,0.7,17.6,2.2,26.2c0.4,2.1,0.9,4.1,1.4,6.2c0.2,1,0.2,1.8-0.7,2.3s-1.3,1.6-1.8,2.5
			c-1.1,2.1-2.3,4.1-3.4,6.3c-2.1,4.3-5.7,6.2-10.3,6.7c-4.1,0.5-8.2,0.6-12.3,0.9c-0.7,0-1.4,0.1-2.1,0.2
			c-9.6,2.8-19.5,4.5-29.2,6.7c-9.3,2.1-18.8,3.4-28.2,5.3c-2.2,0.5-4.5,1-6.7,1.4c-0.9,0.2-1.9,0.3-2.9,0.3c-1.9,0-2.5-0.4-3-2.2
			c-0.8-3.1-1.1-6.2-0.8-9.4c0.2-1.1,0.2-2.3,0.1-3.4c-0.8-0.3-1.1,0.4-1.6,0.7c-3.7,2.6-7.3,5.2-11,7.8c-4.2,2.9-9,4.9-14,5.9
			c-1.6,0.2-2.8,1.3-3.3,2.8c-4.3,12.3-8.3,24.6-10.4,37.5c-0.1,0.2-0.1,0.3-0.2,0.5c-1.1,0.9-2.5,1.2-3.9,0.9
			c-3.1-0.4-6.2-0.4-9.3,0c-1.3,0.2-2.6,0-3.8-0.6c-0.8-0.6-1.2-1.5-1.3-2.5c-2.2-12.3-6.7-23.9-11.1-35.9
			c-3.2,5.3-5.7,10.8-8.3,16.2s-4.9,11.2-7.1,16.9c-1.1,0.7-2.4,1-3.8,0.8c-3.5,0-7-0.1-10.4,0.7
			C200.4,455.7,199.2,455.7,198.6,454.4z"/>
		<path class="st1" d="M270,116c-0.5-0.3-1-0.5-1.5,0c-0.7,0.8,0.4,1.3,0.4,2c-2.1,2.6-5,4.1-7.8,5.7c-8.1,4.4-16.8,7.5-25.8,9.2
			c-2.3-1.7-2.5-1.6-5.2,0.6c-4.4,0.7-8.6-0.3-12.8-1.2c-5.9-1.4-11.9-2.3-17.3-5.4c-1.6-0.9-3.3-1.7-4.1-3.5c0-0.8-0.1-1.6-1.3-1.4
			c-2.9-4.7-5.1-9.8-6.3-15.2c-1.9-8.3-1.1-17,2.4-24.8c2.4-5.8,5.3-11.5,7.8-17.3c1.5-3.3,2.5-6.8,2.8-10.4c1.7-0.5,3,0.6,4.4,1.3
			c4.5,2.2,9.2,4,14,5.3c1.3,0.4,2.6,0.5,3.9,0.7c2.6,0.5,3.1,1.3,2.4,3.9c-1.3,4.4-3,8.6-4.7,12.9c-1.7,4.1-2.6,8.4-2.6,12.8
			c0,1.9,0.5,3.7,1.5,5.3c0.6,1,1.4,1.9,2.7,1.9c2.1-0.1,3.1,1.1,3.9,2.9c0.6,1.6,1.7,2.9,3,4c4.7,3.7,10.2,1.9,11.9-3.9
			c0.5-2.1,0.5-4.2,0-6.3c-1.6-6.5-2.8-13.1-3.6-19.7c-0.4-3.4-0.4-6.9,0.2-10.2c0.1-1.6,1.3-3,2.9-3.2c6-1.5,11.7-3.8,17.1-6.8
			c0.8-0.5,1.7-1,2.7-0.6c0.5,4.6,2.3,8.8,4.1,12.9c2.1,4.5,4.2,9,6.3,13.6c2.7,5.6,4.2,11.8,4.4,18c0,5.3-0.9,10.5-4.4,14.8
			C270.7,114.3,270.2,115.1,270,116z"/>
		<path class="st1" d="M331.9,371.2c0.8-1.8,0.7-2.1-1.1-2.2c-1.5-7-2.1-14.2-2.9-21.3c-0.4-3.5-1-6.9-1.2-10.4
			c2.5-4.6,1-9.3,0.1-13.9c-2.7-13.6-5.4-27.2-8.6-40.7c-0.3-0.8,0-1.7,0.8-2.1c0.1,0,0.2-0.1,0.3-0.1c2.3-1,4.4-2.1,6.7-3.1
			c5-2.2,10-4.3,14.8-6.9c1.5,4.4,2.6,8.9,3.7,13.4c2,8.3,3.5,16.8,4.3,25.3c0.5,5.4,1,10.8,1.1,16.2c0,2.7,0.5,5.4,0.4,8.1
			c-0.4,9.3-0.3,18.6-1.9,27.7c-0.1,0.8-0.1,1.6,0,2.4c-0.7,0.5-1.1,1.3-1,2.2c0,1.4-0.1,2.7-0.2,4.1c-0.3,0.9-0.5,1.9-0.5,2.9
			c-0.5,3.6-2,6.9-4.2,9.8c-1,1.3-2.4,2.3-4,2.8c-0.8,0.2-1.6,0-2.3-0.4c-3.2-3.7-3.9-8.4-4.7-13
			C331.4,371.9,331.6,371.5,331.9,371.2z"/>
		<path class="st1" d="M120.6,270.7c2.9,2.7,5.4,5.7,8.4,8.2c3.8,3.3,8.3,5.7,13.1,7c1.3,0.3,1.8,0.8,1.5,2.2c-0.4,2,0,4-0.5,6
			c-2-0.1-2.6-1-2-3c0.9-2.9,0.8-2.7-2-3.5c-4.5-1.3-9.1-2.8-11.7-7.3c-0.5-0.9-4.7-2.1-5.7-1.7c-0.4,0.2-1.1,0.4-1,0.8
			c0.6,2.3-1.9,3.7-1.5,5.9c0.3,1.6-1.3,2.6-1.6,4.1c-0.3,2-0.2,4-0.8,6c-0.2,0.6-0.1,1.4-0.5,1.8c-3.1,3-2.4,6.8-2.4,10.4
			c0,0.3,0.1,0.6-0.1,0.8c-3.3,3.9-0.8,8.2-0.9,12.3c0,0.7,0.2,1.5-0.2,2.1c-1.4,2-1.5,4.1-1.8,6.4c-0.4,2.8,0.7,5.1,1,7.5
			c0.3,1.1,0.3,2.3-0.1,3.3c-0.5,1-0.3,2.1,0.3,3c0.5,0.6,0.8,1.4,0.7,2.2c-1.1,3.3,0.2,6.7,0,10c-0.2,2,0.5,4.1-0.4,6.1
			c-0.1,0.2,0,0.4,0.1,0.5c1.8,1.8,1.6,4.3,2.3,6.5s1.6,4.5,0.6,6.9c-0.1,0.2-0.1,0.5-0.1,0.8c1.6,3.1,1.6,6.8,3.3,10.2
			c0.8-0.9,0.3-2.4,1.5-2.7c0.6,1.2,1.2,2.5,1.7,3.8c0.1,0.4,0.6,0.7,1.1,0.6c0.4-0.1,0.7-0.6,0.5-1.1c-0.1-0.7-0.2-1.4-0.4-2.1
			c-2-7.7-2.7-15.6-2-23.5c0.1-1.1,0.2-2.3,0.2-3.4c1-0.3,0.5,0.8,1,1c1.1,4.1,1.8,8.2,3.2,12.2c0.9,2.9,2.1,5.8,3.5,8.5
			c0.4,0.9,1,1.6,1.8,2.3c1.1,0.8,2.2,0.3,2.2-1c0-1.9-0.1-3.9-0.2-5.8c-0.8-11.2-0.5-22.4,0.9-33.6c0.1-0.5,0.2-1,0.3-1.5
			c1-0.3,0.6,0.8,1,1c0.2,0.6,0.4,1.2,0.6,1.7c1,2.9,2,3.2,4.6,1.4c0.8,3.8,2,7.4,3.5,11c-0.2,0.5-0.4,1-0.3,1.5
			c0,9.2-0.1,18.5,0.1,27.7c0.1,4.3,0.1,8.6,1.1,12.8c0.2,0.8,0.1,1.5-0.7,1.8c-0.7,0.3-1.5,0.1-1.9-0.6c-0.4-0.5-0.7-1-1.1-1.5
			c-0.8-0.8-1-2-2.1-2.8c0.8,5.5,2.1,10.9,3.8,16.2c0.3,1,0.7,2,1.3,2.9c0.4,0.6,0.6,1.3-0.1,1.9c-0.6,0.5-1.4,0.4-1.9-0.1
			c-0.6-0.4-1.1-0.9-1.6-1.3c-4.3-4-8-8.7-10.8-13.8c-1.7-2.9-3.4-5.7-5.1-8.6c-0.4-0.2-0.7-0.5-0.8-0.9c0.4,0.7-0.3,1.7,0.3,2.6
			c0.8,4.5,1.9,8.9,3.3,13.2c0.2,0.7,0.5,1.3,0.6,2c0.2,0.6-0.2,1.3-0.8,1.5c-0.6,0.2-1.3,0-1.6-0.6c-1.7-2.9-3.8-5.5-5.3-8.5
			c-3.6-7.4-6.2-15.3-7.8-23.4c-1.6-7.8-2.8-15.7-3.3-23.7c-0.8-8.9-1.1-17.9-0.8-26.8c0.3-6.3,1-12.6,1.9-18.8
			c1.2-8.7,3.3-17.2,6.4-25.5c0.9-2.4,1.9-4.7,2.7-7.1C119.8,273.8,120.2,272.2,120.6,270.7z"/>
		<path d="M261,54.4c-4.5,2.5-9.2,4.6-14.1,6.4c-1.9,0.7-3.8,1.3-5.8,1.7c-1.1,0.1-2,1-2.1,2.1c-0.5,3.5-0.6,7-0.2,10.5
			c0.8,6.6,2,13.2,3.6,19.7c0.4,1.8,0.5,3.7,0.3,5.5c-0.3,3.1-2.4,5.8-5.3,7c-3,1.3-5.7,0.4-8.1-1.6c-1.7-1.4-3-3.2-3.8-5.3
			c-0.2-0.9-1-1.5-1.9-1.3c-2.6,0.2-4-1.4-4.9-3.6c-1.1-2.6-0.9-5.3-0.6-8c0.5-4.1,1.7-8.1,3.3-11.9c1.5-3.7,2.9-7.3,4-11.1
			c0.5-1.8,0.5-1.9-1.3-2.2c-8.2-1.1-15.6-4.6-22.9-8.2c-0.5-0.8-1.4-1.3-2-2c-0.6-0.5-1.1-1.1-1.5-1.8c-0.8-1.1-0.8-2.6,0-3.7
			c0.8-1.1,2-1.3,3.3-1.1s2.5,1.2,3.8,1.7c0.5-0.1,0.2-0.4,0.1-0.6c-1.8-4-2.4-8-0.9-12.2c0.6-1.6,0.7-1.9,2.4-1.4
			c2.5,0.7,5.2,0.9,7.7,0.4c4.4-1.1,8.6-1.2,12.7,1.2c2.5,1.4,2.7,1.4,2.8-1.5s0.3-5.7-2.7-7.4c-0.8-0.4-1.3-1.2-1.4-2.1
			c-0.6-1.1-1.3-2.3-1.9-3.5c-0.8-1.6-0.9-3.4-0.4-5.1c0.2-1.2,1.1-2.1,2.3-2.3c1.2-0.1,2.3,0.6,2.7,1.7c0.6,1.4,1.1,2.9,1.7,4.6
			c0.9-3.9,0.4-6.3-1.6-9c-0.3-0.4-0.7-0.8-1-1.3c-0.9-1.4-0.9-2.9-0.1-3.9c1.1-1.1,2.6-1.5,4-1.1c1.7,0.7,3.1,2.1,3.8,3.8
			c1,2.3,1.5,4.8,1.6,7.4c0.1,1,0.1,1.9,0.2,2.9c0,5.3,0.9,10.6,0.6,16.1c1.2-0.1,2.3-0.4,3.3-1c2.8-1.1,5.5-0.1,8.3-0.4
			c3.5,0.2,7,0.1,10.5-0.4l0.8-0.1c2.4-0.2,2.8,0.3,2.2,2.7c-0.7,2.6-1.4,5.2-2,7.9c-0.5,1.7-0.8,3.5-1,5.3c1-0.4,1.8-0.7,2.6-1
			c2.1-0.6,3.4,0.7,2.9,2.9c-0.2,1.2-1,2.3-2,3C262.4,53.5,261.7,54,261,54.4z"/>
		<path class="st1" d="M243.4,458.7c1.6,0.4,3.2,0.5,4.9,0.3c2.1-0.2,4.2-0.2,6.3-0.1c2,0.1,4,0.1,6,0c0,0.3,0.1,0.7,0.1,1
			c0.1,3,1.1,4.2,4.1,4.1c3.4,0,6.8-0.2,10.2-0.6c2.8-0.3,5.6-0.4,8.4-0.3c0.5,0.4,1.1,0.5,1.7,0.4c3.3,0.2,6.6,1,9.6,2.5
			c3.4,1.4,6,4.2,7.1,7.6c0.9,2.5,1.3,5.1-1,7.3c-1.1-1.1-0.1-2.7-1-3.9c-1.2-1.9-2.9-3.5-4.9-4.6c-0.8-0.4-1.8-1.2-2.6-0.3
			c-0.6,0.8-0.5,1.9,0.1,2.7c1.3,2.1,2.1,4.6,3.8,6.5c0.2,0.2,0.4,0.6,0.4,0.9c-2.5,0.1-4.8-0.7-7.2-1.2s-4.1-0.4-5.4,1.9
			c-0.6,1.1-1.6,1.9-2.7,2.5c-0.9-0.7-0.7-1.7-0.9-2.7c-0.5-3-1.6-5.9-3.4-8.4c-0.6-0.9-1.5-1.9-2.8-1.4s-1.1,1.6-1.1,2.7
			c-0.1,2.2,0,4.4-1.3,6.3c-2-0.1-3.9,0.3-6,0.1c-3.4-0.2-6-1.8-8.4-3.8c-1.6-1.5-3.4-2.7-5.4-3.6c-2.6-1-5.1-0.6-7.7,0.2
			c-1.5,0.6-2.9,1.1-4.5,1.5c-2.7,0.5-4.4-0.4-5.4-2.9c-1.7-4,0.8-10.7,5.1-11.7c0.2-0.1,0.5-0.2,0.7-0.4
			C241.5,460.8,242.6,459.8,243.4,458.7z"/>
		<path class="st2" d="M121,196.4c1.2,1.8,2.2,3.8,2.8,5.9c0.3,0.8,0.3,1.7,0,2.6c-0.3,1.6-1.9,2.7-3.6,2.3
			c-0.3-0.1-0.6-0.2-0.8-0.3c-1.1-0.5-2.1-1.3-2.8-2.3c-0.6-0.8-1.1-1.6-1.7-2.4c-0.9-0.1-1.3,0.8-2,1.1c-1.8,1-4.3,1-5.5-0.1
			c-1.5-1.5-1.5-3.3-0.9-5.1c0.3-1.1,0.9-2.1,1.8-2.9c1.3-0.9,1.1-1.8,0.4-2.9c-0.8-1.3-1.2-2.8-1.3-4.3c-0.1-0.6-0.1-1.2,0-1.8
			c0.2-1.5,0.7-3,2.3-3.6s2.9,0,4.1,1c2.9,2.4,2.9,2.4,6.4,2c2.6-0.3,4.2,0.5,5.3,2.5c1,1.5,0.7,3.6-0.5,4.9
			C123.8,194.2,122.4,195.4,121,196.4z"/>
		<path class="st2" d="M347.3,88.1c0-0.6,0.1-1.1,0.3-1.6c0.9-1.7,0-2.5-1.3-3.3c-1.8-1-3.1-2.6-3.9-4.5c-0.6-1.5-0.8-2.9,0.3-4.2
			c1-1,2.5-1.5,3.9-1.1c1.4,0.2,2.7,1.4,3.9,1.3s1.7-2,2.9-2.8c2.1-1.5,3.8-1.6,5.8-0.3s2.4,2.7,1.7,5.3c-0.3,1-0.6,2-1.1,3
			c-0.4,0.8-0.2,1.3,0.6,1.6c1.6,0.7,3,1.7,4.3,3c0.7,0.7,1.2,1.5,1.4,2.5c0.4,1.6-0.6,3.2-2.2,3.6c-0.1,0-0.2,0-0.3,0
			c-1.9,0.3-3.9-0.2-5.5-1.3c-1-0.6-1.5-0.6-1.9,0.7c-0.3,1-1,1.9-1.9,2.4c-2.6,1.8-5.2,1-6.3-2C347.6,89.8,347.4,89,347.3,88.1z"/>
		<path class="st3" d="M14.1,317.2c1.3-0.7,2.7-1,4.2-0.9c3.2,0.5,4.6,2.7,3.3,5.7c-0.6,1.6-1.8,2.9-3.4,3.6c-1,0.4-1.3,1-1,2
			c0.2,0.8,0.4,1.7,0.4,2.6c0.2,1.6-0.1,3.2-0.8,4.6c-1.4,3-4.2,3.3-6.3,0.7c-0.8-1.1-1.4-2.2-1.8-3.5c-0.2-0.7-0.6-1-1.4-0.7
			c-1.3,0.5-2.8,0.5-4.1,0c-1.8-0.5-3-2-3.2-3.8c-0.5-1.8,0.4-3.6,2-4.5c1.4-0.8,3.5-1.2,4.2-2.4s-0.8-2.9-0.8-4.5
			c-0.1-0.8-0.1-1.6,0-2.4c0.1-1.4,1.1-2.7,2.5-3.1c1.3-0.4,2.7,0.1,3.5,1.2c0.7,0.7,1.2,1.5,1.6,2.4
			C13.3,315.1,13.7,316,14.1,317.2z"/>
		<path class="st2" d="M365.9,253.5c-0.1-1,0.8-2.4,0.1-3.4s-2.3-0.6-3.4-1.2c-1-0.5-2-1-3-1.6c-1.2-0.8-1.8-2.3-1.5-3.7
			c0.3-1.5,1.5-2.1,2.8-2.5c1.6-0.3,3.2-0.3,4.7,0.2c1,0.3,1.5,0,1.5-1.1c0-1.2,0.5-2.2,1.3-3.1c2-2.2,4.4-2.2,6.3,0.2
			c1.1,1.3,1.6,3,1.5,4.6c-0.1,1.2,0.4,1.7,1.4,2c1.8,0.4,3.5,1.3,4.8,2.6c0.6,0.6,1.2,1.3,1.6,2.1c0.9,1.6,0.3,3.5-1.3,4.4
			c-0.3,0.2-0.6,0.3-0.9,0.3c-1.2,0.3-2.4,0.4-3.7,0.1c-1.4-0.3-2.4-0.2-2.6,1.5c-0.1,0.4-0.2,0.7-0.5,1c-1.5,2.6-3.4,3.5-5.9,2.8
			S365.9,256.8,365.9,253.5z"/>
		<path class="st1" d="M225.6,23.7c1,1.2,2.2,2.3,3.6,3c0.7,0.3,1.1,0.9,1.1,1.6c0.3,3,0.2,5.9-0.2,8.9c-0.7,0.3-1.1-0.3-1.6-0.7
			c-3-2.3-6.6-3.3-10.3-3c-1.3,0.1-2.6,0-3.9,0.1c0.7-2.4,2-4.7,3.7-6.5C219.8,24.9,222.6,23.7,225.6,23.7z"/>
		<path class="st2" d="M136,23.2c-0.1-0.8-0.1-1.6-0.1-2.4c0-0.6,0.3-1.2,1.1-1.3s0.9,0.5,1,1c0.1,0.4,0.2,0.9,0.2,1.3
			c0.4,8.5,2.6,16.6,4.6,24.8c1.5,6.3,3.5,12.5,5.9,18.5c1.1,2.7,2.4,5.3,3.9,7.8c0.3,0.5,0.6,1.1,0.8,1.6c0.1,0.4-0.1,0.9-0.5,1.1
			c-0.3,0.2-0.7,0.2-1-0.1c-0.5-0.5-0.9-1.1-1.3-1.7c-2-3.2-3.6-6.6-4.9-10.2C141,50.6,137.7,37,136,23.2z"/>
		<path class="st4" d="M51.9,251.4c0-2.9,1-4.2,3.4-4.7c2.6-0.5,4.2,0.3,5.2,2.8c0.5,1.3,1,2.6,1.3,4c0.9,3.5,2.1,6.9,3.6,10.1
			c0.3,0.8,0.6,1.6,0.8,2.5c0.6,2.3,0.1,3.5-1.9,4.6c-2.3,1.2-4,1-5.5-0.6c-0.4-0.4-0.8-0.9-1.1-1.5c-2.8-5-4.8-10.4-5.8-16
			C51.9,252.1,51.9,251.7,51.9,251.4z"/>
		<path class="st2" d="M56.2,347.7c-2.1,0.1-4.3-0.1-6.4-0.6c-2.3-0.8-3.3-2.2-3.1-4.5s1.4-3.8,3.7-4c1.7-0.3,3.5-0.4,5.2-0.3
			c3.5,0.2,6.8-0.5,10.2-0.8c0.3,0,0.7-0.1,1-0.1c3.4-0.3,4.8,0.6,5.4,3.2c0.6,2.9-0.5,4.5-3.8,5.6c-2.6,0.7-5.3,1.2-8,1.4
			C59.2,347.5,57.9,347.6,56.2,347.7z"/>
		<path class="st5" d="M358.7,154c0.4,0.1,1.2,0.2,1.9,0.4c4.9,1.4,9.5,3.6,13.8,6.4c0.8,0.5,1.5,1.2,2.2,1.9
			c1.8,1.9,1.9,3.4,0.6,5.4c-1,2-3.5,2.7-5.4,1.7c-1.5-0.6-3-1.4-4.4-2.3c-2.9-1.7-5.9-3.1-9-4.3c-0.9-0.4-1.8-0.8-2.6-1.3
			c-2.1-1.3-2.5-2.5-1.8-4.6C354.7,154.9,356,153.9,358.7,154z"/>
		<path class="st5" d="M419.4,207.5c-0.1,0.8-0.3,1.6-0.5,2.4c-1.4,4.6-3.4,9-6,13.1c-0.6,1-1.3,1.9-2.2,2.6
			c-1.8,1.6-3.4,1.7-5.3,0.5c-1.9-1-2.7-3.2-1.9-5.2c0.6-1.7,1.5-3.4,2.5-4.9c1.6-2.8,3-5.7,4.1-8.8c0.4-0.9,0.8-1.8,1.3-2.6
			c1.3-2.1,2.5-2.6,4.6-1.9C418.4,203.6,419.4,204.9,419.4,207.5z"/>
		<path class="st5" d="M429.9,283.3c0,2.6-2.1,4.6-4.7,4.6c-0.5,0-0.9-0.1-1.4-0.2c-1-0.4-1.9-0.8-2.8-1.4
			c-3.5-2.1-7.2-3.9-11.1-5.4c-0.9-0.3-1.8-0.8-2.6-1.3c-1.6-0.7-2.3-2.6-1.7-4.2c0.6-2.3,2-3.6,4-3.6c0.7,0,1.4,0.1,2.1,0.3
			c5.5,1.5,10.7,3.9,15.4,7.2c0.7,0.6,1.4,1.3,2,2C429.6,281.7,429.9,282.5,429.9,283.3z"/>
		<path class="st4" d="M316.7,97c0,1-0.3,1.9-1,2.6c-1.1,1.4-2.3,2.7-3.5,3.9c-2.2,2.2-4.3,4.6-6.1,7.2c-0.6,0.8-1.2,1.5-1.9,2.2
			c-1.8,1.8-3.2,2-5.1,0.7c-2.2-1.4-3-3.2-2-5.3c2.9-6.1,7.3-11.4,12.9-15.2C312.9,91.2,316.7,93.5,316.7,97z"/>
		<path class="st4" d="M71.7,182.2c3,0,4.3,1,4.9,3.3c0.5,2.5-0.3,4.2-2.8,5.2c-1.5,0.7-3.1,1.2-4.7,1.5c-3.1,0.8-6.2,1.9-9.1,3.3
			c-0.7,0.3-1.3,0.5-2,0.7c-3.4,1.1-5.2,0-6-3.4c-0.4-1.3,0-2.7,1-3.6c0.5-0.5,1.1-0.9,1.7-1.3c4.7-2.7,9.9-4.6,15.2-5.7
			C70.4,182.3,71.1,182.3,71.7,182.2z"/>
		<path class="st2" d="M98.6,131.7c0-3.4,1.2-4.8,4-5.1c2.2-0.2,3.6,0.5,4.4,2.5c0.8,1.8,1.4,3.6,1.8,5.5c0.7,2.8,1.7,5.5,2.9,8.1
			c0.5,1.1,0.9,2.3,1.2,3.5c0.6,2.3,0,3.6-2,4.6c-2.2,1.1-4,0.9-5.5-0.8c-0.4-0.5-0.8-0.9-1.1-1.5c-2.6-4.7-4.5-9.7-5.6-15
			C98.7,132.8,98.7,132.3,98.6,131.7z"/>
		<path class="st6" d="M72,375.6c0.7,0,1,0.6,1.3,1.1c3.9,7.6,9.3,14.3,14.8,20.7c4.8,5.7,10.3,10.8,16.4,15.2
			c0.8,0.5,2.3,1.1,1.4,2.3s-1.9,0-2.7-0.5c-2.5-1.5-4.8-3.3-6.9-5.2c-9.3-8.4-17.2-18.1-23.6-28.9c-0.7-1-1.2-2.1-1.6-3.3
			c-0.2-0.6,0.1-1.2,0.6-1.4C71.9,375.6,72,375.6,72,375.6z"/>
		<path class="st2" d="M303.4,13.8c-0.1,1.1,0,2.3,0.2,3.4c0.1,0.5,0.1,1,0.1,1.6c0,0.7-0.5,1.3-1.2,1.4c0,0-0.1,0-0.1,0
			c-0.7,0.1-1.2-0.4-1.3-1c-0.1-0.6-0.3-1.2-0.3-1.8l-1.5-11.7c0-0.1,0-0.2-0.1-0.3c-0.1-0.8,0.1-1.4,0.9-1.6c0.7-0.2,1.4,0.3,1.5,1
			c0,0,0,0.1,0,0.1c0.2,0.8,0.4,1.7,0.5,2.6c0,1.3,0.3,2.5,0.7,3.7c1.4-2,2.7-3.9,4-5.8c0.6-0.8,1-2.2,2.3-1.4s0.4,1.9-0.1,2.7
			c-1,1.6-2,3.1-3.1,4.7c1.3,0.9,2.6,1.8,3.9,2.6c0.5,0.3,1,0.7,1.5,1.1c0.6,0.5,0.6,1.3,0.2,1.9c0,0,0,0,0,0
			c-0.4,0.5-1.1,0.6-1.7,0.3c-1.1-0.7-2.2-1.5-3.3-2.2S304.9,13.5,303.4,13.8z"/>
		<path class="st1" d="M249.2,32.7c-0.5,0.3-1.2,0.4-1.8,0.3c-3.9-0.3-7.7,0.8-10.8,3.1c0.6-6.3,0.2-12.2,0.4-18.1
			c0.9,2.2,0,4.5,0.5,6.7c0.3,0.3,0.6,0.1,0.9,0c4.3-1.3,8,1.1,8.4,5.6C247,32.1,247.6,32.8,249.2,32.7z"/>
		<path class="st4" d="M318,6.5l3-0.5c0.4-0.1,0.9-0.1,1.3-0.2c0.7-0.1,1.4,0.3,1.6,1c0,0,0,0,0,0c0.2,0.8-0.4,1.3-1.2,1.5
			s-1.7,0.3-2.6,0.5c-0.5,0.1-1,0.2-1.5,0.4c-1.1,0.4-0.9,1.4-0.7,2.2s1,0.5,1.5,0.4c0.9-0.1,1.7-0.4,2.6-0.5
			c0.7-0.2,1.5,0.2,1.7,0.9c0,0,0,0,0,0c0.2,0.7-0.2,1.4-0.8,1.7c0,0,0,0-0.1,0c-1.8,0.7-3.7,1-5.7,0.8c-1.2-0.2-2-1.3-2-2.5
			c-0.1-3-0.1-6,0-8.9c0-1.1,0.7-2,1.7-2.4c1.7-0.8,3.5-1.1,5.4-0.8c0.8,0.2,1.6,0.5,1.6,1.5s-0.9,1.1-1.8,1.1c-0.5-0.1-1-0.1-1.6,0
			C317.9,3.4,317.3,2.8,318,6.5z"/>
		<path class="st7" d="M425.3,400.7c-0.1,0.6-0.4,1.2-0.9,1.6c-5.7,7.2-12.6,13.3-20.3,18.1c-1.4,0.9-2.9,1.6-4.5,2.1
			c-0.7,0.3-1.4,0.5-1.8-0.4s0.3-1.2,1-1.5c8.6-3.9,15.2-10.2,21.5-17c0.8-0.9,1.6-1.9,2.4-2.8c0.3-0.4,0.7-0.8,1.1-1
			c0.4-0.2,1-0.1,1.3,0.4C425.3,400.4,425.3,400.6,425.3,400.7z"/>
		<path class="st8" d="M284.6,21.5l3.9-0.7c0.6-0.2,1.2-0.2,1.8,0c0.5,0.1,0.9,0.5,1,1.1c0.2,0.6-0.2,1.3-0.8,1.4c0,0,0,0,0,0
			c-2.2,0.5-4.4,1-6.7,1.2c-1,0.1-1.9-0.7-2-1.8c-0.1-0.4-0.1-0.9-0.1-1.3c0.1-4-0.3-7.9-0.5-11.8c0-0.8,0-1.6,0.2-2.3
			c0.1-0.5,0.6-0.9,1.2-0.9c0.6,0,1,0.4,1.1,0.9c0.1,0.4,0.1,0.9,0.1,1.3c0.1,4,0.7,8,0.6,12.1C284.4,21,284.5,21.3,284.6,21.5z"/>
		<path class="st2" d="M376.4,155.6c-2.7-0.1-4-1.5-3.8-4.2c0.2-2.6,2.3-4.5,4.9-4.5c2.6,0,4.5,1.6,4.5,3.8
			C381.9,153.2,379.2,155.7,376.4,155.6z"/>
		<path class="st6" d="M43.2,254.2c2.7,0,5.4,2.2,5.4,4.4c0,1.9-2.6,4.1-4.8,4.1c-2.7-0.1-4.9-2.1-5.1-4.7
			C38.7,256,40.7,254.3,43.2,254.2z"/>
		<path class="st2" d="M424.4,269.3c0.1-2.6,2.3-4.7,5-4.6c0,0,0,0,0,0c2.5,0.1,4.2,1.6,4.3,3.8c0,2.6-2.7,5.1-5.4,5
			S424.4,272,424.4,269.3z"/>
		<path class="st3" d="M85.5,137.9c0-1.5,1-2.7,2.3-3.2c1.5-0.6,3.1-0.6,4.6,0.1c2,0.9,3.1,3,2.7,4.6c-0.9,2.6-3.7,4-6.3,3.1
			C86.8,141.9,85.5,140,85.5,137.9L85.5,137.9z"/>
		<path class="st2" d="M408.8,288.7c0.1,2.8-1.6,4.8-4.1,4.9c-2.3,0-4.2-1.8-4.2-4.1c0,0,0-0.1,0-0.1c0-2.2,1.8-3.9,4.4-4
			C407.3,285.4,408.8,286.6,408.8,288.7z"/>
		<path class="st7" d="M357,171c0,2.7-1.8,4.7-4.2,4.8c-2.3,0-4.1-1.8-4.1-4.1c0,0,0-0.1,0-0.1c0-2.3,1.9-4,4.6-4
			C355.7,167.6,357,168.9,357,171z"/>
		<path class="st4" d="M126.1,141.1c-0.1,2.2-1.7,4-3.9,4.2c-2.2,0.1-4.9-2.4-4.8-4.4c0.1-1.7,2.7-3.9,4.7-3.9
			C124.2,137.2,125.9,139,126.1,141.1z"/>
		<path class="st3" d="M79.3,261c0.1,2.2-1.6,4.1-3.8,4.3c-2.2,0.1-4.7-2-4.8-4s2.4-4.1,4.7-4.1C77.5,257.2,79.2,258.9,79.3,261z"/>
		<path class="st9" d="M436.9,398.3c-0.8,4.3-2,8.5-3.6,12.5c-0.8,2.2-1.7,4.4-2.8,6.5c-0.3,0.6-0.8,1.2-1.2,1.7
			c-0.3,0.3-0.7,0.3-1,0.1c-0.4-0.2-0.6-0.6-0.5-1.1c0.1-0.4,0.2-0.7,0.4-1c2.7-5.2,4.6-10.8,5.9-16.5c0.2-0.9,0.5-1.9,0.8-2.8
			c0.1-0.6,0.7-1,1.3-0.9c0,0,0.1,0,0.1,0C437.1,397.2,436.9,397.9,436.9,398.3z"/>
		<path class="st8" d="M296.7,20.6c0,0.9-0.1,1.7-1.1,1.8s-1.5-0.6-1.6-1.4c-0.4-2.9-0.8-5.7-1.1-8.6c-0.2-2-0.1-4-0.8-6
			c-0.3-0.9-0.1-1.6,0.9-1.8c0.8-0.2,1.5,0.3,1.7,1c0,0.1,0,0.1,0,0.2c0.2,0.9,0.4,1.9,0.5,2.8c0.3,3.7,0.6,7.3,1.3,11
			C296.6,20,296.7,20.3,296.7,20.6z"/>
		<path class="st10" d="M159.7,65.3c0.1,0.5-0.2,1-0.7,1.1c-0.4,0.1-0.9-0.1-1.1-0.5c-0.4-0.9-0.8-1.8-1.1-2.7
			c-1.3-4.3-2.2-8.7-3.8-12.8c-0.2-0.6-0.4-1.3,0.3-1.6c0.9-0.4,1.3,0.2,1.6,0.8c0.3,0.6,0.5,1.3,0.7,2c1.2,4.1,2.4,8.2,3.7,12.3
			C159.5,64.4,159.6,64.8,159.7,65.3z"/>
		<path class="st11" d="M91.4,385.8c0.6,0,1.1,0.3,1.4,0.7c3.3,3.2,6.7,6.4,10,9.6c0.3,0.3,0.6,0.6,0.8,1c0.3,0.4,0.3,0.9-0.1,1.2
			c-0.3,0.3-0.8,0.4-1.2,0.2c-0.5-0.3-1-0.7-1.4-1.1c-3.1-3-6.2-6-9.2-8.9c-0.5-0.4-0.9-0.9-1.1-1.4c-0.2-0.4,0-1,0.4-1.2
			C91.2,385.8,91.3,385.8,91.4,385.8z"/>
		<path class="st12" d="M124,392.9c-0.9-1.1-0.3-2.5-0.9-3.7c0.7,0.5,1.2,1.2,1.5,2.1C124,391.6,124.1,392.3,124,392.9z"/>
		<path d="M204.9,46.8c0.4,0.1,0.5,0.5,0.3,0.7s-0.4,0.1-0.4-0.2L204.9,46.8z"/>
		<path class="st1" d="M198.6,454.4c0.9,0.5,2,0.6,3,0.3c3.1-0.9,6.4-0.7,9.6-0.6c1.6,0.1,3.1-0.1,4.6-0.5c1.5,0.9,2.5,2.4,2.8,4.1
			c1.3,2.2,3.5,3.6,4.9,5.8c1.1,1.8,1.9,3.7,2.4,5.8c0.6,3.1-1.3,6.1-4.3,6.8c-1.2,0.3-1.9,0.7-2.2,1.9c-0.2,0.6-0.6,1.1-1.2,1.3
			c-2.8,1.1-5.6,1.8-8.6,0.6c1.1-1,2.5-0.5,3.8-0.8s2-0.9,1.9-2.3c0-2-0.3-4-0.9-5.9c-0.8-2.5-2.3-2.8-4-0.9s-2.3,4.7-2.7,7.3
			c-0.2,1.3,1.3,1.6,1.4,2.7c-1.5,0.3-3,0.2-4.4-0.3c-1.9-0.7-2.5-1.5-2.5-3.5c0-0.9,0.1-1.7,0.3-2.6c0.4-1.7-0.2-2.3-1.9-1.8
			c-3.1,0.9-6.1,2.2-8.9,3.9c-1.5,0.8-2.9,1.7-4.3,2.5c-1.1,0.6-2.3,0.9-3.5,0.9c-0.6-1.9,0.4-3.6,0.6-5.3c0.3-1.6,0.3-3.3-0.1-4.9
			c-0.3-1-0.6-2.1-1.8-2.4s-2,0.6-2.6,1.4c-2.2,3.1-4,6.6-5.3,10.2c-0.1,0.3-0.2,0.7-0.4,0.9c-1.2-0.7-2-2-2-3.5
			c-0.4-2.4-0.1-4.8,0.8-7c1.4-3,3.4-5.8,5.7-8.1c1.8-1.9,4.6-2.5,7-1.5c2,0.6,4,1.1,6.1,1.4c1.1,0.2,2.3-0.2,3.1-1
			C196.3,457.7,197.1,455.8,198.6,454.4z"/>
		<path class="st13" d="M174.2,478.6c-0.1-0.7-0.6-1.4-0.1-2.2c1.5-2,2.2-4.4,3.4-6.5c0.6-1.1,1.3-2.1,2.1-3c0.9-0.9,1.9-2,3.4-1.5
			s1.8,1.8,2.1,3.1c0.3,1.7,0.3,3.3,0,5c-0.3,1.8-0.7,3.6-1.3,5.4c-0.5,0.7-1.4,1.1-2.3,1C179,480.1,176.5,479.7,174.2,478.6z"/>
		<path class="st13" d="M271.7,481.9c0.3-2.3,0.5-4.7,0.5-7.1c0-1.2,0.2-2.4,1.5-2.9c1.2-0.4,2.6,0.1,3.2,1.2
			c2.3,2.6,3.7,5.8,4.1,9.2c0.1,1,0.2,2.1,0.3,3.1c-1.2,0.8-2.4,0.4-3.5-0.1C275.7,484.4,273.6,483.2,271.7,481.9z"/>
		<path class="st14" d="M209,479.7c-2.3-0.6-2.5-0.6-2.1-2.9c0.3-2.8,1.3-5.5,3.1-7.7c1.9-2.3,3.8-2,4.9,0.8c1,2.6,1.1,5.3,1.3,8
			c0.1,0.8-0.6,1.2-1.3,1.4c-1.7,0.4-3.5,0.5-5.2,0.4L209,479.7z"/>
		<path class="st14" d="M296.5,482.3c-1.1-0.6-1.9-1.5-2.3-2.7c-0.6-1.3-1.2-2.5-1.9-3.7c-0.4-0.7-0.7-1.4-1-2.1
			c-0.5-0.9-0.2-2.1,0.7-2.7c0.7-0.4,1.5-0.3,2.1,0.1c2.7,1.2,5,3.2,6.6,5.8c0.8,1.2,0,2.6,0.1,3.9
			C299.9,482.9,298.2,482.5,296.5,482.3z"/>
		<path class="st12" d="M273.5,124.3c2.9,3.6,5,7.4,7.5,11c6.4,9.6,12.6,19.2,18.6,29.1c8.1,13.3,14.3,27.5,19.8,42.1
			c6.5,17.1,11.8,34.6,15.8,52.4c0.5,2.2,0.5,2.2-1.5,3.1c-4.8,2.1-9.4,4.7-14.1,7l-4.2,2c-0.8-0.4-0.8-1-0.9-1.6
			c-2.4-8-3.7-16.2-5.5-24.4c-2.4-11.3-6.3-22.1-10-33c-2.2-6.6-4.4-13.4-7.1-19.8c-1.4-3.3-3-6.5-4.8-9.6c-1.6-2.4-2.9-5-3.8-7.8
			c-0.1-0.3-0.2-0.5-0.3-0.7c-0.3-0.8-0.8-1.6-1.8-1.1s-0.4,1.3-0.1,2c1,2.7,2.2,5.4,3.7,7.9c2.9,4.8,5.3,9.9,7.1,15.2
			c4.7,13,9,26,13,39.2c2,6.6,3,13.4,4.4,20.1c1.6,7.5,3.6,14.8,6,22.1c1.4,4,1.9,8.2,2.8,12.3c2,8.9,3.7,17.9,5.6,26.8
			c0.3,1.3,0,2.6-1,3.5c-4.5,5-9.4,9.6-14.6,13.8c-12.7,10.3-26,19.5-40.6,26.8c-7.8,4-16.3,6.7-25,7.9c-7.8,1-15.7,0.6-23.3-1.1
			c-19.2-4-37.4-11.8-53.6-23c-7.5-5.2-14.2-11.4-20.1-18.4c-2.2-2.2-3.1-5.4-2.5-8.5c1.3-7.5,2.2-15.1,2.6-22.8
			c0.1-4.4,0.5-8.8,1.2-13.1c3.8-22.6,8.7-45,16.4-66.6c3.7-10.2,8.1-20.2,13.2-29.8c0.3-0.6,0.7-1.2,0.9-1.9s0.5-1.4-0.4-1.8
			c-0.7-0.3-1.2,0.2-1.5,0.7c-0.6,0.9-1,1.8-1.5,2.8c-8.7,16.8-15.5,34.6-20.1,53c-2.3,9.6-5,19-6.6,28.7c-0.4,2.1-0.6,4.2-0.9,6.3
			c-0.2,1.6-0.4,1.7-1.8,1c-3.1-1.4-5.9-3.1-8.6-5.1c-2.9-2.3-5.5-4.9-8.2-7.5c-0.8-0.6-1-1.7-0.5-2.5c6.7-20.2,14-40.3,23-59.6
			c1-2.2,1.9-4.5,2.8-6.8c3.6-9.8,8.9-18.7,13.7-27.9c4.3-8.3,8.7-16.5,14.1-24.1c2.1-3.1,4.4-6.1,6.9-9c1.5-1.8,1.6-1.8,3.6-0.8
			c5.9,3,12.1,5.2,18.5,6.6c4.6,1,9.3,1.8,14.1,1.2c1.3-0.2,2.6,0.3,3.4,1.3c3.2,3.6,3.3,3.6,2,8.2c-2.9,10.6-6,21.1-8.2,31.9
			c-1.1,4.9-2,9.8-2.5,14.8c-0.2,2.2,0.2,4.4,1.3,6.4c1.9,3.3,3.9,6.4,5.9,9.7c0.4,0.6,0.8,1.1,1.3,1.7c2.8,3.5,4.3,3.5,6.9,0
			c2-2.7,3.9-5.4,5.9-8.1c1.3-1.8,1.9-4,1.7-6.2c-0.3-9-1.4-18-2.5-27c-0.9-7.5-1.6-15-2.9-22.5c0-0.2,0-0.4-0.1-0.5
			c-1.2-2.9-0.5-5.1,2-7c0.8-0.6,1.4-1.4,2.7-1.4c1.9-0.2,3.8-0.7,5.5-1.6c6.9-3.2,13.7-6.7,20.3-10.6
			C268.8,128,271,126.1,273.5,124.3z"/>
		<path class="st12" d="M326.8,337.3c0.6,0.3,0.8,0.8,0.8,1.5c0.8,6.5,1.6,13,2.2,19.5c0.3,2.8,0.8,5.5,1.3,8.3
			c0.3,0.8,0.2,1.7-0.3,2.5c-9,3.2-18,6.5-27,9.6c-1.5,0.4-2.7,1.6-3,3.2c-0.9,2.8-1.1,5.7-0.8,8.5c0.5,2.9,0.5,5.8,0.7,8.7
			c0.2,0.9-0.1,1.8-0.8,2.3c-6.5,4.6-12.6,9.9-20.2,12.8c-2.6,1-5.3,1.8-8.1,2.3c-0.9,0.1-1.6,0.7-1.8,1.5
			c-4.2,11.3-7.7,22.9-10.5,34.7c-0.3,1.5,0.1,3.6-1.3,4.4c-1.1,0.6-2.9,0.1-4.4,0.1c-2.4-0.1-4.7,0-7.1,0.3
			c-1.2,0.3-1.6-0.3-1.7-1.3c-2-13.3-7.4-25.6-11.6-38.2c-0.1-0.3-0.2-0.7-0.4-1c-0.3-0.6-0.6-1.3-1.4-1.4s-1.2,0.6-1.6,1.2
			c-1.3,2.3-2.7,4.5-3.9,6.9c-4.5,8.4-8.2,17.3-12,26.1c-0.3,0.9-0.5,1.7-0.6,2.6c-4.1,0.2-8.2-0.3-12.4,0.7
			c-0.1-6.1-1.2-11.9-2.1-17.6c-1-6.6-2-13.2-3-19.8c-0.1-1.8-1.3-3.3-3-3.8c-7.1-3-13.2-7.7-18.6-13.1
			c-12.5-12.2-22-27.1-27.9-43.5c-0.8-2.3-1.5-4.7-1.9-7.1c0.9,0.4,1.7,1,2.3,1.8c16.2,15,34.7,26,56,32c12.6,3.7,25.7,5.2,38.8,4.3
			c34.4-2.4,62-17.4,82.9-44.9C325.4,340.2,326.2,338.8,326.8,337.3z"/>
		<path class="st1" d="M120.5,383.7c-0.5,0.7-0.5,1.5-0.2,2.2c0.2,0.5,0.3,1.3-0.5,1.5s-1.1-0.3-1.4-0.9s-0.9-1.3-0.9-1.9
			c0.1-1.8-1.7-3.1-0.9-5c0.2-0.5-0.5-0.9-0.8-1.3c-1-1.1-1.1-2.6-0.5-3.9c1-1.8,0.1-3.6-0.6-5.3c-0.5-1-1-2-0.6-3.2s-0.4-2-1.3-2.7
			c-1-0.5-1.4-1.7-0.9-2.7c0.1-0.2,0.2-0.3,0.3-0.5c0.7-1,1.1-2.1,0-3.3c-0.6-0.8-0.2-1.7,0.3-2.5c0.7-0.8,0.6-2-0.2-2.7
			c-0.1-0.1-0.3-0.2-0.4-0.3c-0.9-0.6-1.1-1.2-0.3-2.1c1.4-1.7,1.5-4.2,0.2-6c-0.9-1.2-1.2-2.3-0.3-3.6c0.6-0.7,0.6-1.7,0.1-2.4
			c-0.4-0.4-0.6-1.1-0.3-1.7c0.3-0.5,0.1-1.1-0.4-1.4c0,0,0,0,0,0c-1.4-1-1.2-2.2-0.5-3.5c0.7-1,0.7-2.4-0.1-3.4
			c-0.8-1-0.3-2,0.6-2.8c1.7-1.3,1.9-2.9,1.3-4.9c-0.4-1.3-1.1-2.8,0.1-4.2c0.4-0.5-0.1-1.1-0.4-1.6c-1.1-1.6-1-3.1,0.5-4.2
			c1-0.6,1.4-1.9,0.8-2.9c0,0,0,0,0,0c-0.3-0.7-0.3-1.6,0-2.3c0.6-1.1,0.9-2,0-3.1c-0.5-0.7-0.2-1.5,0.7-2c2.7-1.8,2.7-4.7,3-7.4
			c0.2-1.8-0.1-3.7,1.5-5c0.4-0.4,0.6-0.9,0.4-1.5c-0.5-1.5-0.5-2.8,1.3-3.6c0.7-0.3,0.2-1.1-0.2-1.6c-0.7-0.9-0.2-1.4,0.7-1.8
			c1.4-0.5,2.7-1.4,4.1,0.1c0.6,0.5,1.4,0.5,2,0.2c1.2-0.4,1.7,0,1.5,1.3c-0.1,0.4,0,0.7,0.3,1c2,1.4,3.1,3.9,5.8,4.3
			c1.2,0.3,2.3,0.8,3.4,1.4c0.6,0.3,1.3,0.9,2,0.5c1.7-0.8,2.4,0.8,3.3,1.5c0.7,0.6,0.1,1.3-0.5,2c-1.4,1.5-1.1,2.6,0.9,3.5
			c0.1,4.6-0.2,9.1-0.9,13.6c-1.2,9.3-2.5,18.6-3.3,28c-0.2,2.1,0.2,4.2-0.9,6.4c-0.8-2.5-1.2-5.1-1.3-7.6c-0.2-2-0.3-4-0.5-6
			c-0.1-0.5-0.2-1-0.3-1.5c-0.2-0.7-0.6-1.3-1.5-1.2c-0.6,0.1-1.1,0.6-1.2,1.2c-0.2,1-0.4,2.1-0.5,3.1c-1.1,12.2-2.8,24.4-2.4,36.8
			c0.1,3.2,0.2,6.5,0.3,9.9c-0.9-0.4-1-1.3-1.3-2c-2.1-5.6-3.7-11.3-4.7-17.2c-0.5-2.8-1-5.5-1.5-8.3c-0.1-0.5-0.2-1-0.4-1.5
			c-0.2-0.7-1-1-1.7-0.8c-0.4,0.2-0.7,0.5-0.8,0.9c-0.2,0.7-0.3,1.4-0.4,2.1c-0.9,8.3-1.2,16.7-0.9,25
			C118.9,377.9,120,380.7,120.5,383.7z"/>
		<path class="st12" d="M246.9,383.4c3-4.8,2.7-6.9-1.9-11c2.5-0.6,4.8-1.1,7.1-1.6c8.9-2.2,17.1-6.2,25-10.9
			c11.7-6.8,22.8-14.5,33.2-23.2c4.9-4,9.5-8.3,13.8-12.9c0.7,0.1,0.7,0.7,0.8,1.2c0.5,2.7,0.8,5.4,1.4,8c0.2,0.9,0,1.9-0.5,2.7
			c-15.3,22.3-35.7,37.3-61.8,44.6c-3.5,1-7.2,1.8-10.8,2.3C251.1,383.2,249,383.4,246.9,383.4z"/>
		<path class="st12" d="M142.7,327.9c10.9,14,24.9,23.9,40.6,31.5s31.8,12.8,49.2,14.1c-2.7,5.1-2.6,6.3,1.2,10.6
			c-3.1,0.2-6.1,0-9.2-0.3c-18.1-1.7-35.5-7.4-51.1-16.7c-9.8-5.8-18.9-12.8-27.2-20.7c-2.1-2-3.4-4-3.5-6.9
			c-0.1-3.8-0.4-7.5-0.7-11.2L142.7,327.9z"/>
		<path class="st12" d="M331.9,371.2c0.4,3.9,1.7,7.4,2.9,11.1c0.4,1.2,1.8,1.7,1.8,3.1c0,1.8-0.8,3.6-0.4,5.4c0,0.7,0.2,1.4,0.5,2
			c0.4,0.5,0.7,1.1,1.4,0.9s0.8-0.8,0.9-1.4c0.3-2.3,0.1-4.7-0.9-6.9c5.2-2.5,6.6-7.5,8-12.5c1.3,0.4,0.6,1.4,0.5,2.1
			c-0.1,4-0.9,8-1.2,12c-0.6,6.6-1.4,13.3-2,19.9c-0.2,2.3-0.2,2.3-2.5,2.8c-8.3,1.8-16.7,3.1-25.1,4.7c-3.2,0.6-6.4,1.3-9.5,1.9
			c-2.2,0.4-2.4,0.3-2.8-1.9c-0.4-1.9-0.5-3.8-0.4-5.8c0.4-4.4-0.3-8.8-0.5-13.1c-0.1-2.7-0.5-5.4-0.7-8.1c-0.1-2,0.8-3.8,1.2-5.6
			c0.1-0.6,0.7-0.8,1.2-1l27.3-9.6C331.7,371.1,331.8,371.1,331.9,371.2z"/>
		<path class="st15" d="M345.4,408.7c0.1-1.6,0.2-3.1,0.4-4.6c1.2-12.1,3.1-24.1,3.8-36.4c0.1-1.3,0.3-2,1.8-2.4
			c9.9-2.7,20.1-4.1,30.4-4.3c0.4,0,0.7,0,1,0c1-0.1,1.4,0.4,1.3,1.4c-0.2,3.1-0.4,6.1-0.5,9.2c-0.4,7.9-0.5,15.8-1.5,23.6
			c-0.1,1.4-0.9,2.6-2.1,3.3c-5.1,3.1-10.7,5.3-16.6,6.4c-5.4,1.1-10.8,2.4-16.2,3.5C346.6,408.6,346.1,408.6,345.4,408.7z"/>
		<path class="st16" d="M384.2,395.8c0.4-3.9,0.8-7.2,1-10.6c0.5-7.4,0.8-14.9,1.1-22.3c0-1.1,0.5-2.2,1.3-3
			c2.8-2.9,5.7-5.7,8.7-8.3c0.1,3.4,0.2,6.4,0.3,9.3c0.3,8,1.4,15.9,3.3,23.6c0.6,2.3,0.6,2.3-1.5,3.4
			C393.7,390.3,389.1,392.9,384.2,395.8z"/>
		<path class="st12" d="M235.3,132.8c0.2-1.2,1.3-1,2.1-1.2c4.9-1,9.7-2.4,14.3-4.3c5.5-2.3,10.9-4.8,15.6-8.6
			c0.5-0.3,1-0.6,1.6-0.8c0.7,1,1.4,2,2.2,2.9s0.8,1.7-0.3,2.6c-2,1.6-4.2,3.2-6.4,4.5c-6.2,3.4-12.4,6.8-18.8,9.8
			c-0.6,0.3-1.1,0.5-1.7,0.7c-4,1.6-4.3,1.5-6.6-2.3C236.6,135,236,133.9,235.3,132.8z"/>
		<path class="st12" d="M195.9,123.2c3.1,2.3,6.5,4.1,10.2,5.4c5.9,1.7,11.9,3.1,17.9,4.1c1.4,0.1,2.8,0.2,4.2,0.1
			c0.7,0,1.4-0.2,1.9,0.5c-0.2,0.2-0.3,0.4-0.5,0.6c-1.8,3.4-4.5,4.6-8.3,4.4c-2.9-0.1-5.8-0.4-8.6-0.8c-7.7-1.4-15.2-4-22.1-7.8
			C192.5,127.7,194.3,125.5,195.9,123.2z"/>
		<path class="st17" d="M317.5,279c-2.5-5.1-2.5-5.1,2.1-7.4c7-3.5,14.1-7.1,21.1-10.6c1.8-0.9,1.9-0.9,2.6,0.9
			c1.7,3.7,1.7,3.7-1.9,5.8c-6.2,3.6-13,6.1-19.4,9.2C320.5,277.6,319,278.3,317.5,279z"/>
		<path class="st17" d="M144.1,284.1c-5.1-1.2-9.8-3.6-13.8-7.1c-2.9-2.5-5.6-5.1-8.1-7.9c-1.3-1.3-1.8-2.7-1.1-4.5
			c0.4-1.1,0.7-2.1,0.9-3.2c1.2,0.2,1.7,1.1,2.4,1.8c1.8,1.8,3.6,3.6,5.4,5.4c3.9,4,8.6,7.3,13.8,9.5c1.3,0.6,1.8,1.2,1.3,2.6
			C144.6,281.8,144.4,283,144.1,284.1z"/>
		<path class="st17" d="M230.1,206.4c-1.1,0-2.6,0-4.1,0c-0.6,0-1.3,0.1-1.7-0.5c-1.7-2.3-3.4-4.5-3.7-7.4c-0.2-1.6,0-1.8,1.5-1.7
			c5.2,0.3,10.5,0.9,15.6,1.9c1,0.2,1.2,0.5,1.4,1.5c0.4,2.6-1,4.3-2.4,6.1c-0.4,0.6-1.1,0.4-1.7,0.4
			C233.5,206.6,232,206.5,230.1,206.4z"/>
		<path class="st17" d="M238.8,196c-5.3-0.9-10.6-1.5-16-1.7c-1.9-0.1-1.9-0.1-1.6-2c0.1-0.6,0.2-1.2,0.3-1.8c0.2-1.5,0-3.4,1-4.2
			c1.3-1.1,3.2-0.3,4.8-0.1c3.2,0.4,6.4,1.1,9.6,1.6c1,0.2,1.5,0.6,1.6,1.7C238.5,191.6,238.6,193.7,238.8,196z"/>
		<path class="st17" d="M239.8,373.7c1.9,0,3.7,0.6,5.2,1.8c1.7,1.2,2.1,3.6,0.8,5.3c-0.2,0.3-0.5,0.6-0.8,0.8
			c-2.9,2.4-8.4,2.1-10.9-0.6c-1.8-1.9-1.6-4,0.4-5.7C236,374.1,237.9,373.5,239.8,373.7z"/>
		<path class="st12" d="M223.1,183.4c0-2.3,0.9-4.3,1.2-6.3c0.1-0.8,0.7-0.9,1.4-0.8c3.5,0.5,6.9,1,10.4,1.4
			c0.9,0.1,1.1,0.7,1.2,1.4c0.2,1.9,0.4,3.8,0.7,6C232.9,184.4,228.1,183.4,223.1,183.4z"/>
		<path class="st16" d="M379.4,401.4c5.8-3.4,11.3-7.2,17.9-10.5c-1.6,3.5-3.2,6.4-5.5,8.7c-1.8,1.8-4.4,1.6-6.6,2.1
			c-0.7,0.1-1.4,0.1-2.1,0.1C381.8,401.9,380.5,402.7,379.4,401.4z"/>
		<path class="st12" d="M236.7,174.9c-1.4,0.3-2.6-0.2-3.8-0.3c-2.2-0.2-4.4-0.5-6.5-0.7c-0.9-0.1-1.3-0.5-1-1.4c0-0.1,0-0.2,0-0.3
			c0.7-4.1,0.8-4.2,5-3.9c1.5,0.1,3,0.3,4.5,0.3c0.7-0.1,1.3,0.5,1.3,1.1c0,0,0,0.1,0,0.1C236.4,171.5,236.5,173,236.7,174.9z"/>
		<path class="st12" d="M233,133.2l3.7,6.1c0,0.1,0.1,0.1,0.1,0.2c0.3,2.5-2,3.2-3.2,4.6c-0.8,1-1.6,0-2.1-0.6
			c-1.1-1.2-2.1-2.3-3.2-3.6C230.1,138,231,135.4,233,133.2z"/>
		<path class="st12" d="M235.6,165.8h-7.3c-0.7,0-1.2-0.3-0.9-1.1c0.1-0.3,0.1-0.5,0.2-0.8c1.1-4.6,1.3-4.7,6-4.4
			c1.2,0.1,1.5,0.6,1.6,1.6L235.6,165.8z"/>
		<path class="st12" d="M232.1,146.8c1.6,3.3,2,6.6,2.4,10.1c-1.7,0.2-3.3,0.2-5,0L232.1,146.8z"/>
		<path class="st12" d="M226.2,209c2.8-0.1,5.5,0,8.3,0.5c-1.3,1.8-2.4,3.3-3.6,4.8c-0.2,0.3-0.6,0.4-0.9,0.3
			c-0.1,0-0.1-0.1-0.2-0.2C228.4,212.7,226.9,211.2,226.2,209z"/>
		<path class="st18" d="M346.7,375c-0.3-0.7,0.1-1.5-0.5-2.1c0-1,0.4-1.9,0.9-2.7C347.3,371.8,347.2,373.4,346.7,375z"/>
		<path class="st16" d="M379.4,401.4c1.1,0.8,2.5,0,3.7,0.5c-1.3,0.6-2.7,0.4-4,0.5c-0.3,0-0.6-0.2-0.5-0.4S379.1,401.6,379.4,401.4
			z"/>
		<path class="st1" d="M135.1,341.1l-1-1c-0.1-0.7-0.1-1.4,0.1-2.1c0.1-0.3,0.3-0.3,0.5-0.1C135.1,339,135.2,340.1,135.1,341.1z"/>
		<path class="st1" d="M122.5,359.1l-1-1c-0.1-0.5-0.1-1.1,0-1.6c0.2-0.3,0.3-0.3,0.5,0C122.4,357.3,122.6,358.2,122.5,359.1z"/>
		<path class="st1" d="M134.7,338c-0.2,0-0.3,0.1-0.5,0.1v-2C134.7,336.6,134.8,337.3,134.7,338z"/>
		<path class="st1" d="M122,356.4h-0.5v-1c0.1-0.3,0.3-0.3,0.4,0L122,356.4z"/>
		<path d="M121.9,355.4h-0.4c0-0.3-0.2-0.6,0.3-0.7L121.9,355.4z"/>
		<path class="st19" d="M338.2,385.4c1,0.5,1.7,1.6,1.6,2.8c0,1.5,0,3,0,4.5c0,0.9-0.1,1.8-1.2,2.1c-1,0.2-2-0.3-2.4-1.2
			c-1-1.9-1.2-4-0.7-6.1c0.1-0.8,0.5-1.5,1-2.1C337.1,385.2,337.7,385.2,338.2,385.4z"/>
		<path class="st1" d="M121.4,393c0,0.7-0.3,1.4-1.2,1.3c-0.6-0.1-1.3-0.3-1.3-1.1s0.5-1.2,1.3-1.3S121.4,392,121.4,393z"/>
		<path class="st1" d="M237.5,63.3c-1.6,9.9,0.4,19.2,2.4,28.6c0.4,1.7,0.8,3.4,1.1,5.2c0.4,2.9-0.2,5.6-2.6,7.6
			c-1.8,1.7-4.5,2-6.6,0.7c-2.1-1.3-3.8-3.2-4.6-5.6c-0.3-0.7-0.3-1.1,0.3-1.6c4.5-3.3,5.1-8.1,4.9-13.2c-0.2-5.1-0.7-10.1-1.6-15.1
			c-0.3-1.8-0.3-3.7,0.2-5.5c0.1-0.7,0.7-1.2,1.4-1.1c0,0,0.1,0,0.1,0C234.1,63.3,235.6,63.3,237.5,63.3z"/>
		<path class="st1" d="M263.4,48.9c-0.3,2.7-2.3,3.6-4,4.4c-3.3,1.6-6.7,3.2-10,4.7c-7,3.1-14.8,4.1-22.4,3
			c-8.4-1.1-16.1-4-23.6-7.8c-1.3-0.6-2.4-1.5-3.4-2.5c-0.8-0.8-1.5-1.6-0.9-2.8c0.4-0.8,1.6-0.8,3.1,0.1c0.4,0.2,0.7,0.5,1.1,0.7
			c6.6,4.3,14.1,6.9,21.9,7.5c1.1,0.1,2.3,0.3,3.4,0.6c3.6,1,7.4,1,10.9-0.1c3.5-1,6.9-2,10.4-2.8c3.3-0.8,6.5-2.1,9.6-3.6
			C260.6,49.5,262,49,263.4,48.9z"/>
		<path class="st1" d="M219.7,91.1c0.1-4.3,1-8.5,2.6-12.4c2-4.9,3.7-9.8,5.2-14.9c0.2-0.7,0.5-1.1,1.3-0.8s0.6,0.6,0.5,1.2
			c-0.4,2.8-0.3,5.6,0.2,8.4c0.9,5,1.3,10.1,1.2,15.2c0,2.4-0.7,4.7-1.9,6.7c-0.6,1-1.4,1.8-2.4,2.4c-2.7,1.5-5,0.7-6.1-2.2
			C219.8,93.5,219.6,92.3,219.7,91.1z"/>
		<path class="st1" d="M233.2,41c-1.1-0.8-1.7-2.2-1.5-3.5c0.6-6.7,0.1-13.5,0.5-20.3c0.3-3.1-0.7-6.2-2.8-8.5
			c-0.1-0.1-0.1-0.1-0.2-0.2c-0.4-0.7-1.3-1.4-0.4-2.3c0.8-0.7,2.1-0.7,2.9,0.1c1.2,1,2.1,2.4,2.4,4c0.6,2.1,0.9,4.3,1,6.5
			c0.3,6.8,0.1,13.7-0.4,20.5C234.7,38.7,234.1,40,233.2,41z"/>
		<path class="st1" d="M213.9,45.4c0.8-2.4,2.4-4.5,4.5-5.9c3.5-2,7-1.1,9,2.4c0.3,0.5,0.4,1,0.7,1.4c1.3,1.9-0.3,3.1-1,4.4
			s-1.9,0.7-2.8,0.5c-2.8-0.4-5.5-1-8.2-1.8C215.3,46.3,214.6,45.9,213.9,45.4z"/>
		<path class="st1" d="M243.2,38.4c2.7,0.1,5.1,1.5,6.6,3.7c0.5,0.6,0.3,1.1-0.3,1.5c-3.4,2.6-7.3,3.6-11.4,4.3
			c-1.1,0.2-1.4-0.5-1.2-1.4c0.3-2.1,1-4.1,2.1-5.9C239.9,39.1,241.5,38.2,243.2,38.4z"/>
		<path class="st12" d="M238.8,54.8c-4.9,2.2-9.4,0.2-14.2-0.6c2.3-2.3,3.4-5.2,5.3-7.6c2.8-3.5,2.9-2.8,4.7,0.4
			c0.7,1.3,1.2,2.7,1.9,4S238,53.5,238.8,54.8z"/>
		<path class="st1" d="M229.9,25.1c-2.5-1.4-4.3-3.8-5-6.6c-0.1-0.6-0.2-1.2-0.1-1.8c0-0.8,0.2-1.7,1.1-1.8s1,0.9,1.2,1.5
			c0.8,2.3,1.4,4.7,2.9,6.7C230.4,23.5,230.3,24.2,229.9,25.1z"/>
		<path class="st1" d="M260.4,34.2c-4.4,0.4-8.8,0.6-13.3,0.5c-1,0-2.1,0.1-3.1,0.3c-4.4,0.5-7.4,3-9.3,6.9c-0.6,1.3-0.3,2,0.9,2.7
			c0.4-1.5,1-2.9,1.7-4.3c1.2-2.4,3.8-3.9,6.5-3.5c2.8,0.2,5.3,1.6,7,3.7c0.6,0.8,1,1.4,2.3,0.9c0.8-0.3,0.9,0.5,0.7,1.2
			c-0.3,0.5-0.7,1-1.3,1.3c-0.7,0.4-1.1,1.2-1.2,2c-0.4,3.6-2.6,5.6-6,6.5c-2.4,0.3-4.8-0.4-6.8-1.7c1.5,3.7,2.2,4,5.3,3.1l1.7-0.5
			c0.7-0.2,1.4-0.4,2.1-0.5c2.4-0.5,4.8-1.2,7.1-2c1.8-0.5,3.1-2.1,3.3-4c0.5-3.5,1.7-6.8,2.4-10.2
			C260.4,35.7,260.9,35.1,260.4,34.2z"/>
		<path class="st12" d="M247.4,49.4c-2.2,1.7-5.3,1.7-7.5,0c1.7-0.6,3-1.1,4.4-0.1c0.8,0.5,1.7-0.2,2.5-0.3
			C247.4,48.6,247.4,49,247.4,49.4z"/>
		<path class="st12" d="M247.4,49.4l-0.6-0.4c0.9-0.6,0.3-2.3,1.6-2.6c0.6-0.2,0.8,0.1,0.8,0.7C249,48,248.3,48.9,247.4,49.4z"/>
		<path class="st12" d="M224.5,50.3c-1.1-0.7-1.8-0.2-2.9,0.3c-0.7,0.2-1.5,0.2-2.2,0c-0.4-0.1-0.7-0.3-1-0.6
			c-1.2-1.7-2.3-1.5-3.6-1.9C215.8,51.5,222.4,53,224.5,50.3z"/>
		<path class="st1" d="M231.1,41.4c-0.5-0.5-1-1-1.5-1.5c-0.8-0.8-1.7-1.5-2.7-2.1c-0.6-0.6-1.3-1.1-2.1-1.4
			c-0.5-0.2-1.6-0.5-1.6-0.5c-2.6-0.9-5.2-0.6-7.8-0.4c-2.8,0.2-5.6,0.5-8.4-0.2c-0.8-0.2-1.4,0-1.6,0.8c-0.6,1.8-0.7,3.6-0.5,5.4
			c0.6,2.4,1.4,4.7,2.4,6.9c0.2,0.6,0.6,1.1,1.2,1.3c2.7,1.2,5.5,2,8.3,3.2c1,0.4,2,0.7,3.1,0.9c0.8,0.1,1.5,0,2.3-0.2
			c0.5,0,0.9-0.4,0.8-0.8s-0.6-0.2-0.9-0.1c-0.2,0.1-0.3,0.2-0.4,0.3l0,0c-1,0.1-2,0-2.9-0.3l-1.8-0.5l0,0c-3.2-1.5-4.1-5.1-6.7-7.1
			c-0.3-0.2-0.2-0.6,0-1c0.1-0.2,0.4-0.3,0.7-0.2c0,0,0,0,0,0c1.7,1.2,2-0.3,2.5-1.3c1.7-3.2,4.2-6,8.1-5.9c1.2,0.1,2.4,0.3,3.6,0.6
			h0.1l0,0c1.2,0.6,2.3,1.6,3,2.7c0.8,1.3,1.9,2.8,2.2,3.3C231.4,43.1,232.1,42.6,231.1,41.4z"/>
		<path class="st17" d="M108.6,199.4c0.2-1.4,1.1-2.7,2.4-3.4c1.7-1,1.7-1.1,0.8-2.9c-0.5-1-1-2-1.5-3.1c-0.5-1.1-0.7-2.4-0.6-3.6
			c0-0.6,0.1-1.3,0.8-1.6s1.2,0.1,1.7,0.5c1,0.9,1.8,1.9,2.4,3.1c1.4,2.2,1.5,2.2,3.5,0.5c0.9-0.8,2.2-1.2,3.4-1.1
			c1.6,0.1,2.8,2.5,1.5,3.8c-0.9,0.8-1.8,1.6-2.8,2.4c-2.2,1.6-2.3,1.8-0.8,4c1,1.4,1.7,3.1,2.2,4.8c0.3,0.7,0.1,1.5-0.5,1.9
			c-0.7,0.5-1.3-0.1-1.9-0.5c-1.1-1-2-2.3-2.6-3.6c-1.2-2.1-1.7-2.2-3.5-0.6c-0.7,0.8-1.6,1.4-2.7,1.6
			C109,201.6,108.4,201.1,108.6,199.4z"/>
		<path class="st17" d="M362,88.6c-1.5-0.3-3-0.9-4.3-1.8c-2.2-1.4-2.7-1.2-3.5,1.3c-0.2,0.9-0.7,1.8-1.3,2.5
			c-1.3,1-2.3,0.9-2.9-0.7c-0.5-1.3-0.5-2.8,0.2-4.1c1-2,1-2-0.9-3.3c-0.9-0.6-1.8-1.2-2.6-1.8c-0.9-0.6-1.5-1.4-2-2.4
			c-0.3-0.7-0.9-1.4-0.3-2.2s1.5-0.4,2.2-0.2c1.1,0.4,2.1,0.8,3.1,1.3c2.2,1.1,2.4,1,3.2-1.2c0.3-1.1,1.1-2,2-2.6
			c0.8-0.5,1.9-0.5,2.7,0.1c0.9,0.5,1.2,1.6,0.8,2.5c-0.4,1.3-0.9,2.5-1.4,3.7c-0.8,1.8-0.6,2.2,1.1,3.1c1.4,0.7,2.8,1.5,4,2.5
			c0.4,0.3,0.8,0.7,1.1,1.2c0.3,0.4,0.4,1,0.2,1.5C363.2,88.7,362.6,88.6,362,88.6z"/>
		<path class="st17" d="M5.4,329.3c-0.6-0.1-1.1-0.2-1.6-0.4c-1.1-0.4-1.7-1.7-1.3-2.9c0.1-0.4,0.4-0.7,0.7-1c0.9-0.7,1.9-1.2,3-1.5
			c3.1-1.2,3.1-1.2,2.1-4.3c-0.4-1.2-0.7-2.4-0.7-3.6c-0.1-0.5-0.1-1,0-1.6c0-0.6,0.4-1.2,1-1.4c0.6-0.1,1,0.3,1.3,0.7
			c0.8,1.1,1.4,2.4,1.6,3.8c0.1,0.5,0.1,1.1,0.3,1.5c0.2,0.8,1,1.4,1.8,1.2c0.2,0,0.3-0.1,0.5-0.2c0.6-0.3,1.3-0.6,1.9-1
			c0.7-0.4,1.5-0.5,2.3-0.3c1.2,0.3,1.6,1,1.1,2.1c-0.5,1.4-1.6,2.5-3.1,3c-2.2,0.7-2.2,0.7-1.7,3.1c0.4,1.8,1,3.6,0.4,5.4
			c-0.3,1-0.3,2.3-1.6,2.4c-1.1,0-1.5-1.1-1.9-2c-0.5-1.1-0.8-2.3-1.3-3.4c-0.6-1.4-1-1.6-2.4-0.9C7.1,328.9,6.3,329.2,5.4,329.3z"
			/>
		<path class="st12" d="M368.3,253.1l0.4-2.3c0.3-2.2,0.1-2.6-2-3.1c-1.4-0.2-2.7-0.7-4-1.2c-0.4-0.2-0.8-0.4-1.2-0.6
			c-0.6-0.4-1.2-0.9-1.1-1.7s1-0.9,1.7-1c1.1,0,2.3,0.1,3.4,0.4c0.6,0.1,1.2,0.4,1.8,0.5c1.4,0.3,2-0.2,2.1-1.5c0-1,0.1-1.9,0.3-2.9
			c0.3-0.8,0.8-1.7,1.8-1.8s1.5,0.7,1.9,1.5c0.6,1,0.7,2.2,0.5,3.3c-0.5,2.3-0.5,2.3,1.9,3.1c1,0.3,2,0.7,3,1.1
			c1.1,0.5,2.1,1.2,2.9,2.2c0.9,1.3,0.5,2.1-1.1,2.3c-1,0.1-1.9,0-2.9-0.2c-0.7-0.1-1.4-0.3-2.1-0.4c-0.7-0.3-1.6,0.1-1.8,0.9
			c-0.1,0.2-0.1,0.4-0.1,0.7c0,0.8-0.1,1.6-0.3,2.3c-0.7,1.5-2,2.3-3.3,2S368.2,255.7,368.3,253.1z"/>
		<path class="st12" d="M56.5,248.7c0.9-0.1,1.7,0.4,2,1.2c0.6,1.2,1,2.4,1.2,3.7c0.5,3.5,2,6.7,3.3,10c0.3,0.7,0.6,1.5,0.9,2.2
			c0.3,1,0.6,2.1-0.7,2.7s-2.1,0.5-3.1-0.9c-0.3-0.4-0.6-0.9-0.8-1.4c-2.1-4-3.6-8.2-4.7-12.6c-0.2-0.9-0.3-1.9-0.3-2.9
			C54.3,249.4,54.9,248.8,56.5,248.7z"/>
		<path class="st12" d="M55.7,345.4c-1.8,0.1-3.5-0.1-5.2-0.5c-1-0.1-1.7-1.1-1.5-2.1c0.1-1.1,0.5-2.1,1.8-2.2
			c1.5-0.2,3-0.3,4.4-0.2c3.3,0.5,6.5-0.3,9.7-0.6c1-0.1,2.1-0.2,3.1-0.3c0.9-0.2,1.8,0.4,2,1.2c0,0.1,0,0.2,0,0.3
			c0.3,1-0.2,2-1.1,2.4c-1.5,0.6-3,1-4.6,1.2C61.5,345.1,58.6,345.3,55.7,345.4z"/>
		<path class="st12" d="M358.5,156.3c0.5,0.1,1.2,0.2,1.9,0.4c4.4,1.4,8.7,3.4,12.6,5.8c0.7,0.5,1.4,1.1,2,1.7
			c0.8,0.6,0.9,1.7,0.3,2.5c0,0,0,0.1-0.1,0.1c-0.5,0.9-1.5,1.3-2.5,1c-1.4-0.4-2.6-1-3.8-1.9c-2.9-2.1-6.2-3.3-9.4-4.7
			c-0.8-0.3-1.6-0.7-2.4-1.1c-0.9-0.3-1.4-1.2-1.1-2.1c0-0.1,0-0.1,0.1-0.2C356.4,156.8,357.4,156.1,358.5,156.3z"/>
		<path class="st12" d="M417,207.4c-0.1,0.6-0.3,1.5-0.5,2.3c-1.3,4.2-3.2,8.2-5.5,11.9c-0.5,0.8-1.1,1.6-1.8,2.3
			c-0.6,0.8-1.7,1-2.5,0.4c0,0-0.1-0.1-0.1-0.1c-1-0.7-1.5-1.5-1-2.7c0.5-1.2,1.1-2.4,1.8-3.5c2.2-2.9,3.4-6.3,4.8-9.6
			c0.3-0.8,0.7-1.6,1.1-2.4c0.4-0.9,1.3-1.3,2.2-0.9c0,0,0,0,0,0C416.5,205.2,417.2,206.3,417,207.4C417,207.4,417,207.4,417,207.4z
			"/>
		<path class="st12" d="M410.1,274.1c1,0,1.9,0.2,2.8,0.6c4.1,1.3,8,3.2,11.6,5.4c0.8,0.5,1.6,1.1,2.3,1.8c0.9,0.6,1.1,1.7,0.5,2.6
			c0,0.1-0.1,0.1-0.2,0.2c-0.5,1-1.7,1.4-2.7,0.9c-1.2-0.5-2.4-1.1-3.5-1.8c-2.9-2.2-6.3-3.4-9.6-4.8c-0.8-0.3-1.6-0.7-2.4-1.1
			c-0.8-0.3-1.3-1.2-1-2c0,0,0-0.1,0-0.1C408.4,274.8,408.9,274,410.1,274.1z"/>
		<path class="st12" d="M312.3,94.6c1.3,0.2,2.2,1.4,2.1,2.7c0,0.2-0.1,0.5-0.2,0.7c-0.7,1.3-1.7,2.4-2.9,3.3
			c-2.7,2.1-4.6,5-6.8,7.6c-0.6,0.8-1.2,1.5-1.8,2.3c-0.5,0.8-1.6,1-2.4,0.5c-0.1,0-0.1-0.1-0.2-0.1c-0.9-0.4-1.3-1.5-0.9-2.5
			c0.3-0.8,0.7-1.6,1.2-2.3c2.4-3.7,5.2-7,8.4-10C309.7,95.8,310.9,95,312.3,94.6z"/>
		<path class="st12" d="M71.9,184.5c1.3-0.1,2.3,0.2,2.6,1.6s-0.1,2.2-1.7,2.8c-1,0.5-2.1,0.8-3.3,1c-3.8,0.5-7.2,2.2-10.7,3.6
			c-0.7,0.3-1.3,0.5-2,0.7c-0.8,0.4-1.7,0.1-2.2-0.6c0,0,0-0.1-0.1-0.1c-0.5-0.9-0.7-1.8,0.2-2.6c0.5-0.5,1.1-0.9,1.7-1.2
			c4.3-2.3,8.8-3.9,13.5-5C70.6,184.6,71.2,184.5,71.9,184.5z"/>
		<path class="st12" d="M100.9,132.3c0-2.7,0.4-3.3,1.8-3.5s2.1,0.3,2.7,1.9c0.3,0.8,0.6,1.6,0.8,2.5c0.7,4.5,2.7,8.5,4.3,12.6
			c0.7,1.8,0.5,2.4-0.9,3c-0.8,0.5-1.8,0.3-2.4-0.4c-0.1-0.1-0.2-0.3-0.3-0.4C104,143.1,102,137.8,100.9,132.3z"/>
		<path class="st3" d="M316.6,59.1c-1.2-2.4-2.9-4.4-5.1-6c0.9-0.8,1.7-1.6,2.5-2.5c1.6-2.6,0.7-5.8-2.1-6.7
			c-1.7-0.7-3.7-0.6-5.4,0.2c-2.1,1-2.2,1.1-2.1,3.4c0.3,4.1,0.7,8.2,1.1,12.3c0,0.6,0.2,1.2,0.5,1.8c0.2,0.5,0.8,0.7,1.3,0.6
			c0.5-0.1,1-0.5,1-1.1c0-0.5,0-1-0.1-1.6c-0.1-1.5-0.3-3-0.4-4.7c3,0.7,4.5,2.8,5.9,5c0.5,0.8,0.8,1.5,1.3,2.3
			c0.3,0.5,0.8,0.7,1.4,0.5c0.6-0.1,1.1-0.7,1-1.4C317.3,60.5,317,59.7,316.6,59.1z M307.8,51.8c-0.5-1.1-0.8-2.4-0.7-3.6
			c-0.1-1.4,0.3-1.9,1.8-2c0.5,0,1,0,1.5,0.1c1.7,0.4,2.2,1.7,1.1,3.1C310.4,50.4,309.2,51.3,307.8,51.8z"/>
		<path class="st2" d="M328,52.8c-0.3-1.8-0.9-3.5-1.8-5.2c-0.8-1.4-2.3-2.3-3.9-2.1c-1.8,0.1-2.6,1.2-3,2.8
			c-0.5,1.7-0.8,3.4-0.8,5.1c-0.2,2.5,0.5,4.9,1.8,7c2.4,3.3,5.6,3,7.3-0.7c0.3-0.7,0.5-1.5,0.6-2.3C328.4,55.9,328.4,54.3,328,52.8
			z M325,58.5c-0.2,0.6-0.5,1.2-1.2,1.2s-1.1-0.5-1.4-1c-1-1.6-1.4-3.4-1.3-5.2c-0.1-1.4,0.1-2.8,0.6-4.2c0.5-1.1,1.4-1.4,1.9-0.4
			C325.2,52,326.2,55.1,325,58.5L325,58.5z"/>
		<path class="st2" d="M301.1,49.3c-0.9-2.4-3.1-2.9-5.7-3c-0.5,0-1,0.1-1.6,0.2c-2.1,0.5-2.7,1.8-2.2,3.9c0.5,2.2,0.7,4.5,0.7,6.8
			c0.1,2.5,0.2,5.1,0.3,7.6c0,0.8,0.3,1.6,1.3,1.7s1.4-0.8,1.4-1.8c0-1.2,0-2.5-0.2-3.7c-0.5-1.5,0.3-3.1,1.7-3.7
			c0.9-0.5,1.8-1.2,2.5-2C301,53.6,302,51.6,301.1,49.3z M297.6,53.2c-0.6,0.9-1.5,1.5-2.6,1.8c-0.2-1.6-0.4-3.1-0.6-4.5
			c-0.2-1.1,0.1-1.7,1.4-1.5s2.4,0.3,2.8,1.5S298.3,52.4,297.6,53.2z"/>
		<path class="st4" d="M319.8,33.5c0-0.4-0.2-0.9-0.4-1.3c-1.6-2.9-3.4-5.7-5.5-8.3c-0.6-0.9-1.8-1.1-2.7-0.5
			c-0.3,0.2-0.6,0.6-0.7,1c-1.1,3.4-1.8,6.9-2.4,10.4c0,0.9,0.2,1.7,1.1,1.9s1.4-0.5,1.5-1.4c0.1-0.6,0.3-1.2,0.3-1.8
			c0.1-0.9,0.5-1.3,1.3-1.3c1.9,0,4.1-1,4.9,1.9c0,0.1,0.1,0.2,0.1,0.2c0.4,0.5,1.1,0.7,1.6,0.4C319.6,34.6,319.9,34,319.8,33.5z
			 M312.1,29.6c0-0.9,0.1-1.8,0.5-2.6c0.8,0.6,1.4,1.4,1.9,2.3C313.8,29.8,312.9,30,312.1,29.6L312.1,29.6z"/>
		<path class="st13" d="M253.8,198.1c-0.1-1.1-0.2-2.3-0.1-3.4c0.1-2.5-0.3-4.7-2.3-6.6c-1.8-1.8-2.6-4.3-3.4-6.8
			c-0.2-0.9-0.6-1.8-1-2.7c-0.9-1.6-0.6-2.1,1.3-2.3c2.5-0.3,5.1-0.5,7.6-0.7c5.9-0.5,11.9-1,17.8-1.6c2.9-0.3,3.7,0.4,3.3,3.4
			c-0.4,3.8-1.2,7.6-2.5,11.3c-0.2,0.7-0.2,1.5,0.1,2.2c1,2.8,1.9,5.7,2.5,8.6c0.8,4.2-0.9,6.6-5.1,7.1c-4.7,0.6-9.4,0.7-14.1,1.4
			c-2.5,0.4-3.9-1-4.1-3.6C253.7,202.3,253.9,200.2,253.8,198.1L253.8,198.1z"/>
		<path class="st20" d="M340.2,404.3c0,2-0.7,3.2-2,3.3s-2.2-1-2.3-3.2c-0.3-2.2-0.1-4.4,0.7-6.4c0.4-0.9,0.7-1.8,1.7-1.7
			s1.4,1.2,1.5,2.1C339.9,400.3,340,402.2,340.2,404.3z"/>
		<path class="st21" d="M331.4,392.2c0,1.3,0,2.3,0,3.4c0,1-0.8,1.9-1.9,1.8c-0.9,0-1.7-0.6-1.8-1.5c-0.8-2.8-0.7-5.7,0.2-8.5
			c0.3-0.7,0.7-1.3,1.5-1.2s1.2,0.6,1.4,1.4C331.4,389.1,331.2,390.8,331.4,392.2z"/>
		<path class="st22" d="M328.8,403.5c0-1.6-0.2-2.8,0.5-4c0.4-0.7,1-1.3,1.9-1.2c0.7,0.1,1.3,0.7,1.4,1.4c0.5,2.2,0.7,4.3,0.8,6.5
			c0,0.6-0.2,1.2-0.5,1.7c-0.4,0.7-1.2,1-2,0.9c-0.7-0.1-1.3-0.6-1.5-1.3C328.9,406.3,328.7,404.9,328.8,403.5z"/>
		<path class="st23" d="M325.5,406.1c0.1,1,0,2.1-0.3,3.1c-0.2,0.7-0.8,1.2-1.5,1.2c-0.7,0-1.4-0.3-1.8-0.9c-1-1.5-1-7,0-8.6
			c0.3-0.7,1-1.1,1.7-1c0.7,0.2,1.2,0.8,1.3,1.5C325.3,402.9,325.5,404.5,325.5,406.1z"/>
		<path class="st24" d="M312.9,394.1c-0.1-1.3,0.3-2.6,1-3.8c1-1.3,2.4-1.2,3,0.3c0.8,2.1,1.1,4.2,1.1,6.4c0.1,1-0.6,1.9-1.6,2
			c0,0-0.1,0-0.1,0c-1.2,0.3-2.5-0.4-3-1.5C313.1,396.4,313,395.2,312.9,394.1z"/>
		<path class="st25" d="M330.7,381c0,2.2-0.5,2.8-1.8,2.9c-1.4,0.2-2.7-0.7-2.9-2c0-0.1,0-0.2,0-0.3c-0.4-2-0.2-4,0.4-5.9
			c0.4-0.8,0.7-1.7,1.7-1.8c1.2,0,1.6,1,1.8,1.9C330.3,377.6,330.6,379.3,330.7,381z"/>
		<path class="st26" d="M307.7,406.2c-0.1-0.9-0.1-1.7,0-2.6c0-0.7,0.6-1.3,1.3-1.3c0.4,0,0.8,0.2,1,0.5c0.4,0.4,0.8,0.9,1.1,1.5
			c0.7,1.6,1.1,3.3,1.2,5.1c0.1,1.6-0.5,2.1-2.1,2.4c-1.4,0.2-1.9-0.4-2.1-1.6c-0.1-0.5-0.3-1-0.3-1.5
			C307.6,407.8,307.7,407,307.7,406.2z"/>
		<path class="st27" d="M318.6,381c-0.1-1,0-2.1,0.3-3.1c0.2-0.8,0.9-1.4,1.7-1.4c0.8-0.1,1.6,0.5,1.8,1.2c0.8,2,1,4.3,0.7,6.4
			c-0.2,0.9-0.6,1.7-1.6,1.8c-1,0.1-1.9-0.5-2.3-1.4C318.7,383.4,318.5,382.2,318.6,381z"/>
		<path class="st27" d="M307,394.5c0-0.9,0-1.8,0.2-2.6c0.1-0.7,0.6-1.3,1.4-1.4c0.8-0.2,1.6,0.2,1.9,1c0.8,2.2,1.1,4.6,0.8,6.9
			c-0.1,0.9-0.9,1.6-1.8,1.6c-1,0.2-1.4-0.5-1.8-1.2C307.1,397.4,306.9,396,307,394.5z"/>
		<path class="st21" d="M320.1,394c0.2-1.3-0.3-2.5,0.5-3.5c0.4-0.6,0.9-1.1,1.7-1.1c0.7,0.1,1.3,0.6,1.5,1.3c0.6,1.9,0.8,4,0.8,6
			c0,1.1-0.8,2.1-1.9,2.2c-1.1,0.2-2.1-0.6-2.3-1.7c0,0,0,0,0,0C320.3,396.2,320.2,395.1,320.1,394z"/>
		<path class="st28" d="M318.7,408.1c0,0.6-0.1,1.1-0.2,1.7c-0.2,0.8-0.9,1.3-1.8,1.3c-0.8,0.1-1.6-0.3-1.8-1.1
			c-0.7-2.2-0.8-4.5-0.4-6.7c0.2-0.8,0.6-1.5,1.5-1.5s1.3,0.6,1.6,1.4C318.2,404.8,318.5,406.4,318.7,408.1z"/>
		<path class="st29" d="M312.4,382.5c-0.2-1.2,0.1-2.4,0.7-3.4c0.7-1.3,2-1.4,2.6-0.2c1,2.1,1.3,4.6,0.8,6.9
			c-0.2,1.1-1.2,1.4-2.3,0.9C312.2,386,312.3,384.3,312.4,382.5z"/>
		<path class="st30" d="M306,384.4c0.1-0.9,0.2-1.7,0.5-2.6c0.2-0.8,0.9-1.4,1.7-1.4c0.8-0.1,1.6,0.5,1.7,1.3
			c0.5,1.6,0.7,3.2,0.7,4.9c0.1,1-0.6,1.9-1.6,2c-1.1,0.2-2.2-0.4-2.5-1.4C306.3,386.3,306.1,385.3,306,384.4z"/>
		<path class="st13" d="M349.8,392.6c0.1-6.7,1.2-13.3,2-19.9c0.1-0.9,0.3-1.7,0.6-2.5c0.4-1.4,1.5-2.4,3-2.7
			c5.2-1.1,10.3-2.7,15.6-3.4c1.3-0.2,2.6-0.2,3.9-0.1c2.5,0.3,3.8,1.5,3.8,4.1c0,5.2,0,10.4-0.1,15.5c-0.1,3.7-0.6,7.3-0.8,11
			c0,1.7-1.1,3.2-2.7,3.8c-1.9,0.8-3.8,1.4-5.8,1.8c-5.1,1.2-10.3,2.3-15.4,3.5c-0.2,0-0.3,0.1-0.5,0.1c-2.7,0.4-3.6-0.3-3.6-3
			S349.8,395.3,349.8,392.6z"/>
		<path class="st16" d="M337.2,388.6c-0.1-0.6,0.2-1.2,0.8-1.4c0,0,0,0,0,0c0.2,1.7,0.3,3.5,0.1,5.2c-0.9-0.2-1-0.7-1-1.3
			C337.5,390.4,337.5,389.4,337.2,388.6z"/>
		<path class="st16" d="M337.2,388.6c0.7,0.7,0.7,1.8,0,2.5c0,0,0,0,0,0C337,390.3,337,389.5,337.2,388.6z"/>
		<path d="M234.6,52.7c-0.3-0.1-0.6-0.3-0.9-0.5c-0.7-0.7-1.8-0.8-2.6-0.1c0,0,0,0,0,0c-0.3,0.3-0.8,0.3-1.1,0c0,0,0,0,0,0
			c-0.5-0.5-0.1-1,0.3-1.3c1.5-1.3,3.8-1.1,5.1,0.4c0.1,0.1,0.2,0.3,0.3,0.4c0.1,0.2,0.1,0.5,0.1,0.7
			C235.6,52.6,235.2,52.7,234.6,52.7z"/>
		<path class="st12" d="M274.6,176.3c0.3,0.8,0.3,1.7,0,2.5c-0.5,2.5-1.1,5-1.5,7.5c-0.1,1.1-1,1.9-2.1,1.9c0,0,0,0,0,0
			c-4.4,0.3-8.8,0.5-13.1,0.8c-2,0.1-4-0.9-5-2.7c-1.6-2.4-2.6-5.1-3.2-7.9C258,177.4,266.3,177.1,274.6,176.3z"/>
		<path class="st15" d="M255.5,191.3c2.4-0.2,4.4,0.1,6.3-0.3c0.3,0.5,0.4,1.1,0.3,1.6c-0.1,1.2,0.1,2.3,1.4,2.8s4.1,0.2,4.8-0.6
			c0.4-0.5,0.6-1.1,0.5-1.7c-0.1-0.8-0.4-1.5-0.5-2.2c0.3-0.6,0.9-0.5,1.4-0.5c2.6-0.1,2.6-0.1,3.4,2.4c0.9,2.4,1.6,4.8,2.1,7.3
			c0.4,2.7-0.2,3.8-3,4.1c-4.7,0.6-9.4,1-14.1,1.5c-1.3,0.1-1.8-0.5-1.9-1.6c-0.1-1.4,0-2.8-0.1-4.2
			C256,197,255.8,194.2,255.5,191.3z"/>
		<path class="st12" d="M266.5,193.2c-2.3,0.6-2.7,0.3-2.2-1.6c0.1-0.5,0.3-0.8,0.8-0.8c0.4-0.1,0.7,0.1,0.8,0.5
			C266,192,266.5,192.5,266.5,193.2z"/>
		<path class="st16" d="M337.9,405.2c-0.5-1.6-0.5-3.2-0.2-4.9C338.4,401.9,338.4,403.6,337.9,405.2z"/>
		<path class="st16" d="M329.7,390.8c0.2,1.6,0.2,3.2,0,4.8c-0.9-1.5-1-3.2-0.4-4.8C329.4,390.5,329.5,390.5,329.7,390.8z"/>
		<path class="st16" d="M329.7,390.8c-0.1,0-0.3,0-0.4,0c0-0.4-0.1-0.9,0.3-1.2C329.7,389.9,329.8,390.4,329.7,390.8z"/>
		<path class="st16" d="M331.2,407.2c-0.9-1.6-1.1-3.4-0.5-5.1C331.4,403.7,331.6,405.4,331.2,407.2z"/>
		<path class="st16" d="M323.2,403.4c0.8,1.5,0.9,3.3,0.4,4.9C322.7,405.9,322.7,405.9,323.2,403.4z"/>
		<path class="st16" d="M315.2,391.8c1.1,1.5,0.7,3.1,1.1,4.6c0.1,0.4-0.3,0.6-0.6,0.7c-0.4,0.1-0.7-0.1-0.8-0.5
			C314.4,395,314.5,393.3,315.2,391.8z"/>
		<path class="st16" d="M328.6,377.6c0.1,1.3,0.3,2.5,0.5,3.8c0.1,0.3-0.1,0.7-0.5,0.7c0,0,0,0,0,0c-0.4,0.1-0.7-0.2-0.8-0.5
			c-0.3-1.3-0.3-2.7,0-4.1C328,377.2,328.3,377.2,328.6,377.6z"/>
		<path class="st16" d="M328.6,377.6h-0.8c0-0.4,0-0.9,0.5-0.8C328.6,376.8,328.6,377.2,328.6,377.6z"/>
		<path class="st16" d="M310.2,409.6c-0.8-1.2-1-2.7-0.7-4.2C310.3,406.7,310.6,408.2,310.2,409.6z"/>
		<path class="st16" d="M320.8,378.9c0.7,1.6,0.9,3.4,0.5,5.1C320,382.6,319.9,382.1,320.8,378.9z"/>
		<path class="st16" d="M309.1,397.1c-0.8-1.4-0.3-2.8-0.4-4.6c0.8,0.6,1.2,1.5,1,2.4C309.1,395.6,309.8,396.6,309.1,397.1z"/>
		<path class="st16" d="M309.1,397.1c0.2-0.7-0.2-1.6,0.5-2.1c0.2,0.8,0.2,1.7,0,2.5C309.4,398,309.2,397.4,309.1,397.1z"/>
		<path class="st16" d="M322.6,396.9c-1-1.4-0.9-3-0.6-5C322.8,393.4,323,395.2,322.6,396.9z"/>
		<path class="st16" d="M316.5,405.5c0.2,1.1,0.8,2.2,0.1,3.6c-0.6-1.1-0.8-2.4-0.6-3.6C316.2,405.2,316.4,405.2,316.5,405.5z"/>
		<path class="st16" d="M316.5,405.5h-0.2h-0.2c0-0.2,0.1-0.4,0.1-0.6C316.7,404.8,316.5,405.2,316.5,405.5z"/>
		<path class="st16" d="M314.5,381.5c0.6,1.1,0.7,2.4,0.4,3.6C313.5,383.8,313.8,382.6,314.5,381.5z"/>
		<path class="st16" d="M308.4,382.9c0.1,1.3,1.1,2.6,0.1,3.8C307.9,385.5,307.8,384.1,308.4,382.9z"/>
		<path class="st16" d="M376.6,377.7c0.1,4.6-0.4,10.3-0.8,16.1c0,1.2-0.8,2.4-2,2.7c-1.4,0.4-2.8,0.9-4.3,1.3
			c-4.9,1.2-9.9,2.4-14.8,3.4c-2.3,0.5-2.4,0.3-2.4-2c-0.1-8.8,0.5-17.5,1.8-26.2c0.4-2.7,1-3.3,3.5-3.9c3.5-0.8,7-1.6,10.5-2.4
			c1.9-0.4,3.8-0.7,5.7-0.7c2.3,0,2.8,0.6,2.8,2.8C376.6,371.4,376.6,374,376.6,377.7z"/>
		<path class="st31" d="M374,382.2c-0.1,0.2-0.2,0.5-0.3,0.6c-0.8,0.3-1.4,1.1-1.5,2c-0.1,0.4-0.3,0.6-0.7,0.7
			c-0.4,0-0.7-0.2-0.7-0.6c0,0,0,0,0,0c-0.1-1.4-1.1-1.6-2.2-1.6c-0.4,0-0.8-0.3-0.8-0.7c0,0,0-0.1,0-0.1c0-0.4,0.3-0.7,0.7-0.7
			c1.6,0,2-0.9,2-2.4c0-0.3,0.3-0.6,0.6-0.5c0.2,0,0.4,0.2,0.5,0.4c0.4,1.2,0.8,2.4,2.3,2.8C373.9,381.9,373.9,382,374,382.2z"/>
		<path class="st12" d="M373.5,393.9c-1.3,1.5-4.1,2-5.5,0.9c-0.3-0.2-0.4-0.6-0.2-0.9c0.1-0.2,0.3-0.3,0.5-0.3
			c1.1-0.2,1.4-0.8,1.4-1.8c0.1-1.2,1-1.3,1.9-1.1c0.7,0.2,1.5,0.5,2.1,0.9c1.3,0.8,0.6,1.3-0.3,1.8c-0.2,0-0.3-0.3-0.5-0.1
			C373.2,393.5,373.4,393.7,373.5,393.9z"/>
		<path class="st32" d="M371.9,373.9c0.9,0.2,2.4-0.5,2.5,0.7c0.1,1.5-1.5,0.9-2.4,1.2c-0.8,0.2-1.7,0.2-2.6,0.1
			c-0.4,0-0.8-0.3-0.8-0.8c0,0,0,0,0,0c0-0.5,0.3-0.8,0.8-0.9C370.2,374,371.1,374,371.9,373.9z"/>
		<path class="st33" d="M370.2,389.6c-0.7,0.1-1.4,0.1-2-0.2c-0.2-0.1-0.4-0.4-0.4-0.6c-0.1-0.3,0.1-0.6,0.5-0.7c0,0,0.1,0,0.1,0
			c1.7,0,3.3,0,5,0c0.4,0,0.7,0.3,0.7,0.7c0,0,0,0,0,0c0,0.4-0.3,0.8-0.7,0.8c0,0-0.1,0-0.1,0C372.4,389.6,371.6,389.6,370.2,389.6z
			"/>
		<path class="st34" d="M371.2,371.7c-0.6,0-1.2,0-1.8,0c-0.3,0-0.6-0.3-0.6-0.6c0,0,0,0,0,0c0-0.4,0.2-0.7,0.6-0.8
			c1.4-0.2,2.8-0.2,4.1,0c0.2,0,0.4,0.3,0.5,0.5c0.1,0.3,0,0.7-0.4,0.8c0,0-0.1,0-0.1,0c-0.8,0.1-1.5,0.2-2.3,0.2L371.2,371.7z"/>
		<path class="st35" d="M373.5,393.9c-0.5-0.6-1.4-0.5-2.5-1.1c1.4-0.3,2-0.1,2.6,0.6L373.5,393.9z"/>
	</g>
</g>
</svg>
