<?xml version="1.0" encoding="utf-8"?>
<!-- Generator: Adobe Illustrator 23.0.2, SVG Export Plug-In . SVG Version: 6.00 Build 0)  -->
<svg version="1.1" id="Layer_1" xmlns="http://www.w3.org/2000/svg" xmlns:xlink="http://www.w3.org/1999/xlink" x="0px" y="0px"
	 viewBox="0 0 455.7 503.2" style="enable-background:new 0 0 455.7 503.2;" xml:space="preserve">
<style type="text/css">
	.st0{fill:#FFFFFF;}
	.st1{fill:#FFD574;}
	.st2{fill:#51B78B;}
	.st3{fill:#010000;}
	.st4{fill:#010100;}
	.st5{fill:#030202;}
	.st6{fill:#020202;}
	.st7{fill:#010101;}
	.st8{fill:#030303;}
	.st9{fill:#050302;}
	.st10{fill:#040202;}
	.st11{fill:#080808;}
	.st12{fill:#040302;}
	.st13{fill:#060606;}
	.st14{fill:#050403;}
	.st15{fill:#050402;}
	.st16{fill:#080604;}
	.st17{fill:#271F1F;}
	.st18{fill:#292121;}
	.st19{fill:#100C0C;}
	.st20{fill:#231D1D;}
	.st21{fill:#020101;}
	.st22{fill:#050505;}
	.st23{fill:#040404;}
	.st24{fill:#060505;}
	.st25{fill:#070606;}
	.st26{fill:#090808;}
	.st27{fill:#040303;}
	.st28{fill:#080707;}
	.st29{fill:#080606;}
	.st30{fill:#0B0A0A;}
	.st31{fill:#ADB7B7;}
	.st32{fill:#68E6B3;}
	.st33{fill:#7ACCA8;}
	.st34{fill:#75C3A1;}
	.st35{fill:#020201;}
	.st36{fill:#030302;}
	.st37{fill:#060402;}
	.st38{fill:#0B0906;}
	.st39{fill:#0B0705;}
	.st40{fill:#130F09;}
	.st41{fill:#1B110A;}
	.st42{fill:#100E08;}
	.st43{fill:#29180F;}
	.st44{fill:#483B25;}
	.st45{fill:#262014;}
	.st46{fill:#79764A;}
	.st47{fill:#C3BA75;}
	.st48{fill:#AFB06F;}
	.st49{fill:#100906;}
	.st50{fill:#F66B72;}
	.st51{fill:#E58789;}
	.st52{fill:#E38082;}
	.st53{fill:#E27D7F;}
	.st54{fill:#E27E7F;}
</style>
<title>Asset 221</title>
<g>
	<g id="Layer_1-2">
		<path d="M454.5,390.2c0.3-5.2,0.6-10.5,1-15.7c0.6-7.5-0.4-14.8-1.1-22.2c-0.1-1.4-1.2-1.7-2.4-1.5c-4.9,0.6-9.9,0.7-14.8,0.3
			c-8.5-0.3-17,0-25.5,0.9c-2,0.2-2,0.1-2.1-1.8c-0.2-3-0.1-5.9,0.2-8.9c0.5-5.1,0.7-10.3,0.5-15.4c-0.2-6.9-0.2-13.9-0.4-20.8
			c0-1.4,0.2-2.1,1.9-2.1c8.8-0.1,17.6,0,26.4-0.6c4.6-0.3,5.9-1.4,5.9-6.2c0-3-0.2-6,0-8.9c0.7-10-0.1-20-0.4-30
			c0-0.5-0.1-1-0.2-1.5c-0.5-3.2-1.9-4.4-5.1-4.7s-6.1-0.4-9.2-0.5c-1.2,0-1.7-0.3-1.7-1.7c0-4.8-0.1-9.5-0.2-14.3
			c-0.3-17.3-0.1-34.7,0-52c0-4.6,0.5-9.3,0.2-14c-0.4-7.3-0.4-14.6-0.2-22c0.2-10.7-0.2-21.4-0.4-32.1c-0.1-2.7,0-5.3,0-8
			c0-8.7,1-17.4,0.3-26.1c0-2.9-1.9-5.5-4.6-6.6c-4.7-2.3-9.6-4.3-14.5-6c-13.9-4.4-27.4-9.7-40.9-15.1c-23-9.3-46-18.5-69-27.8
			c-4.1-1.7-8.4-3-12.5-4.7c-4.8-2.1-9.8-3.8-14.9-5.1c-10.4-2.2-20.1-6.8-29.8-11.2c-1.5-0.7-3.5-1.3-4.3-2.5
			c-1.4-2.1-2.9-1.5-4.6-0.9c-7.6,2.7-15.2,5.5-22.8,8.3c-15.8,5.6-31.5,11.7-47.1,17.9c-7.4,2.9-14.9,5.2-22.3,8.3
			c-13.1,5.4-26.6,10.2-40,14.9c-11.6,4.1-23.3,8.1-35,12.1c-9.7,3.2-19.5,6.5-28.6,11.4c-2.4,1.4-5.1,2.3-7.8,2.7
			c-2.1,0.2-2.7,1-2.9,3.1c-0.1,0.9-0.1,1.8-0.1,2.7C25.8,86,26,90,26,94.1c0.2,15.3-0.1,30.7,0.6,46c0.6,14-0.2,27.9-0.7,41.9
			c-0.6,20.9-0.8,41.8-0.4,62.7c0.1,1.2-0.1,2.4-0.3,3.5c-0.3,1.2-0.8,1.6-2,1.5c-3-0.1-5.9,0-8.9,0.3c-1.9,0.1-2.4,0.6-2.3,2
			c0.9,7.8,0,15.6-0.2,23.4c-0.2,7.2,0.1,14.5,0.2,21.7c0,0.7,0.1,1.3,0.3,2c0.5,2.4,1.5,3.2,3.9,3c9.4-0.8,18.8,0.1,28.1,0.8
			c1.3,0.1,1.8,0.6,1.8,1.8c0,2.2,0,4.4,0,6.5c0.3,12.2,0.3,24.3,0.3,36.5c0,2.2,0,2.2-2.3,2.3c-7.3,0.4-14.6,0.6-22,0.5
			c-6.1-0.1-12.3,0-18.4,0c-3.3,0-3.7,0.7-3.6,3.9c0.2,6.1,0.5,12.3,0.2,18.4c-0.6,11-0.2,22,0,33c0.2,16.6,0.1,33.3,0.4,49.9
			c0.2,12.2-0.3,24.4,0.2,36.5c0,2.5,0.2,4.9,0.7,7.4c0.2,0.8,0.4,1.6,1.4,1.6c4.5,0.2,8.9,1.6,13.5,1.5s8.9-0.7,13.3-0.6
			c10.4,0.1,20.8,0.8,31.2,0.4c9.1-0.5,18.2-0.5,27.3-0.1c5.1,0.3,10.3,0.6,15.4,0.7c17.7,0.3,35.4-0.6,53.2-0.6
			c1.1,0,2.2-0.2,3.3-0.2c8.4-0.4,16.8-1.5,25.2-1.5c5.4,0,10.7,0.1,16,0c18.4-0.4,36.8-0.4,55.2,0.5c15.9,0.8,31.9,0.9,47.8,0.7
			c6.4-0.1,12.9-0.5,19.3-0.4c9.1,0.2,18.2,0,27.3,0v0.2c6.6,0,13.3,0,19.9,0c22.1-0.1,44.2-0.3,66.2,0.2c3.9,0.1,7.7,0,11.6-0.1
			c5.5,0,6.1-0.7,6-6.1c-0.1-5.6-0.7-11.2-0.8-16.9c-0.1-11.2,0.2-22.4-0.4-33.6c-0.5-8.6-0.4-17.2,0-25.8
			C453.9,409.8,454,400,454.5,390.2z M154.7,32.8c13.3-4.6,26.4-10.1,39.6-15.1c10.4-3.9,20.8-7.5,31.2-11.3
			c2.2-0.8,4.5-1.6,6.7-2.5c1-0.5,2.1-0.4,3.1,0.2c7.8,4.3,15.9,8,24.2,11.2c4,1.6,8.2,2.3,12.3,3.5c3.3,0.9,6.6,2,9.8,3.3
			c5.4,2.3,10.8,4.3,16.4,6.2c2.2,0.7,2.7,2,2.7,3.9c-0.1,3.3-0.2,6.5-0.2,9.8c0,2.2,0.2,4.3,0.2,6.5s-0.1,2.3-2.4,2.3
			c-19-0.5-38-0.5-57-0.4c-4.9,0-9.7,0.4-15.5,0c-22.8,0-46.6,0-70.3,0c-2.7,0-2.4-0.1-2.4-2.4c0-4.2,0-8.3-0.1-12.5
			C152.6,34.3,153.5,33.1,154.7,32.8z M176.5,345.9c-1.7,5.5,0.3,4.6-5.7,4.7c-7.9,0-15.8-0.7-23.7-0.5c-0.3,0-0.6,0.1-0.9-0.6
			c4.1-3.6,8.3-7,12.1-10.9c0.6-0.8,1.7-0.9,2.5-0.3c0,0,0.1,0,0.1,0.1c2.8,1.8,5.9,3.3,9,4.5c1.7,0.6,3.4,1,5.2,1.2
			C176.3,344.1,176.9,344.5,176.5,345.9z M406.9,337.3c-0.4,4.4-0.5,8.9-0.4,13.3c0.1,1.5-0.5,1.8-1.8,2c-4,0.6-8.1,0.8-12.1,0.6
			c-18.3-1.2-36.6-1.4-54.9-1.9c-23.1-0.6-46.1-1.3-69.2-0.6c-4.5,0.1-8.9,0.1-13.4,0.2c-1.4,0-2.1-0.4-2.3-1.9c-0.5-7-1-14-1.5-21
			c0-0.5,0.1-0.9,0.1-1.4c2.4,2.5,4.6,4.7,6.6,7c5.3,6.4,10.2,8,19,4.6c3.3-1.3,6.5-3,9.4-5.1c5.3-3.6,10.3-7.7,15-12.1
			c5.1-4.9,9.2-10.6,11.1-17.6c1.3-0.8,3-1,4.5-0.6c1.7,0.4,3.4,0.3,5-0.3c5-0.4,7.7-3.6,9.7-7.7c0.8-1.5,1.7-2.6,3.5-2.7
			c7.8,0,12.5-4.5,16.2-10.8c0.4-0.8,0.9-1.5,1.5-2.2v-0.1c0.2-2.3,1.1-4.5,2.7-6.3c2.8-3.4,2.9-7.3,1.6-11.3
			c-0.1-0.3-0.1-0.6-0.1-0.9c0.9-4-0.4-7.5-1.9-11.1c-2.3-6-5.1-11.7-8.4-17.2c-0.3-0.6-0.7-1.2-1.1-1.7c-1.1-1.5-1.6-1.5-3.1-0.2
			c-3.2,2.8-6.3,5.6-9.5,8.4c-0.3,0.2-0.7,0.5-1,0.6c-1.4,0.8-2.5,0-3.5-0.8c-4.8-3.3-9.6-3.3-14.2,0.3c-0.1,0.1-0.3,0.2-0.5,0.3
			c-5.4,2.4-6.3,6.7-5,11.8c0.5,2.1,0,3.2-2.3,3.4c-4.5,0.3-7.7,3.3-10.9,6c-9.3,6-18.5,12.2-27.9,17.9c-3.2,1.9-4.4,1.6-6.4-1.4
			c-9.5-14.1-18.1-28.7-23.3-45.1c-1.3-4.2-1.4-8.6-2.8-12.7c0.4-3.3,2.8-5.2,5.1-6.8c5.9-4.1,12.3-7.4,19.1-9.7
			c1.6,0.2,2.3,1.4,3,2.6c2.2,3.2,4,6.7,6.1,10.1c-0.5-1.9-1.2-3.7-2.3-5.3c-1.3-2.5-3.4-4.6-4.2-7.4c0.2-2.7,3.2-2.9,4.3-4.8
			c0.2-0.2,0.5-0.3,0.8-0.3c0.4,0.1,0.8,0.2,1.2,0.4c2.8,2.1,5,4.7,7.5,7.1c-1.4-2.8-3.7-4.7-5.9-6.7c-0.8-0.7-1.8-1.2-1.9-2.5
			c0.9-2.1,1.5-4.5,3.3-6.1c0.6-0.1,1.2,0.1,1.6,0.6c0.8,1.3,0.9,2.8,1.4,4.2c0.8,2.6,1.3,2.8,3.1,0.8c0.3-0.5,0.9-0.8,1.5-0.9
			c2,0,3,1.7,4.8,2.7c-0.3-1.3-1.5-2-1.5-3.2c0-1.8,1.2-3.1,1.8-4.6s1.4-2.3,2.6-0.4c1,1.7,1.9,1,2.5-0.3c1.4-3.2,2-6.7,1.6-10.1
			c-0.1-1.8-0.4-3.5-0.8-5.3c-0.7-2-1.5-4-2.3-5.9c-0.7-1.6-1.5-3.2-2.4-4.7c-0.8-1.4-1.8-2.7-2.6-4.1c-1.4-1.7-2.6-3.5-4-5.1
			c-0.9-0.8-1.7-1.7-2.3-2.8c-1-1.9-2.7-3.1-4.2-4.6c-1.1-1.3-2.7-1.9-3.7-3.3c-0.8-1.7,0.7-2.5,1.5-3.5c5.2-7.3,7.2-15.2,3-22.6
			c-3.3-5.8-7.9-7.2-13.5-3.7c-5.4,3.3-9.4,8.1-13.6,12.6c-1.2,1.3-2.1,2.9-4,3.4c-1.2-0.1-1.6-1.1-2-2c-1.1-2.4-3.3-4-5.8-4.5
			c-1.8-1-3.8-1.6-5.9-1.8c-1.6-0.3-3.3-0.6-2-3c0.7-1.4-0.3-1.7-1.5-1.6c-1.2,0.2-2.3,0.6-3.3,1.3c-1.6,1-3.2,2-5.1,0.5
			c-0.8-0.6-1.7,0.1-2.5,0.4c-2.8,1.3-4.5,3.7-6.2,6.2c-0.6,1.1-1.4,2.2-2.2,3.1c-3.2,1.5-5.3,4.1-7.2,6.9c-1.3,1.3-2.4,2.6-3.5,4
			c-3.4,4.3-7.5,4.1-12,2.4c-3-1.1-5.5-3.1-8.2-4.7c-2.2-1.4-4.3-3-7.1-2.7c-4.5,0.6-7.3,3.4-8.9,7.4c-2.7,7.2-0.9,12.9,5.2,17.6
			c2.3,1.7,4.8,3.2,7.3,4.5c1.1,0.6,2.5,1.1,1.8,2.9c-1.4,1.7-2.8,3.4-4.2,5.1c-1.1,1.5-2.1,3.1-3,4.7c-0.9,1.4-1.5,2.9-2.4,4.3
			c-1.5,2.4-2.5,5.1-3.1,7.9c-0.4,1.9-0.7,3.7-0.6,5.6c-0.1,3.9,0.1,7.8,2.9,10.9c2.2,2.5,3,2.4,4.1-0.6c0.6-1.6,1.3-1.1,2.1-0.2
			s1.6,2.3,2.4,3.4c1.1,1.4,2.3,2.2,4.1,1.4c0.5-0.3,1.1-0.4,1.7-0.4c3.6,2.8,7.8,4.6,12.3,5.4c0.6,0.1,1.1,0.5,1.4,1
			c0.4,0.9,0,1.7-0.1,2.7c1-1.1,1.5-2.8,3.3-2.9c2.4,0.6,5.3,0,7.1,2.3c0.4,1.2-0.4,2.3-0.6,4.1c1.1-1.7,1.4-3.1,2.5-4
			c0.2-0.2,0.5-0.3,0.8-0.4l0.5-0.1c2.5,0,4.9,0.7,7.3,0.8c3.4,0.1,3.7,0.6,3.5,4.2c-0.1,1-0.5,1.9-1,2.8c-1.4,2.2-2.8,4.4-1.8,7.2
			c0.1,0.6,0,1.2-0.2,1.7c-3.4,11.9-8,23.3-14.9,33.7c-3.3,5-8.1,8.3-13.2,11.2c-9.6,5.3-19.6,8.2-30.7,6.5c-1.4-0.5-2.9-0.4-4.3-1
			c-3.3-1.5-5.5-3.4-6.2-7.4c-0.9-6.4-6.6-11.2-13.1-10.9c-2.1,0.1-4.1,0.7-5.8,1.8c-1.1,0.6-2.2,1.8-3.8,1l-4-6.2
			c-1.3-1.9-1.7-2-3.4-0.6c-4,3.6-7.7,7.6-11,11.9c-2,2.5-3.8,5.1-5.7,7.5c-0.8,1-0.8,2.2-1.2,3.3c-0.9,2.9-1,5.7,0.9,8.3
			c0.2,1.5-1,2.3-1.7,3.4c-5.6,8.5-3,17.4,5.1,21.4c1.3,0.5,2.2,1.8,2.3,3.2c0.4,3.1,1.6,6.1,3.5,8.7c0.9,1.7,2.6,2.8,4.5,3.1
			c1.3,0.1,2.4,0.9,3.1,2c2.2,3.3,5.3,6,8.8,7.8c2.5,1.3,5,1.9,7.6,0.5c0.8-0.6,1.9-0.8,2.8-0.6c0.1,0,0.3,0.1,0.3,0.2l0.2,0.1
			c3,2.9,5.6,6.4,9.8,9c-3.9,0-7.2,0.3-10.5,0c-11.6-1.2-23.1-0.8-34.7-0.4c-12,0.4-23.9,0.9-35.9,0.6c-3.5-0.1-6.9-0.4-10.7-0.6
			c0.4-15.6-0.1-31-0.6-46.4c0.3-0.2,0.5-0.3,0.7-0.3c8.4,0,16.8-1.2,25.2-1.3c4.3,0,6-1.5,6-5.9c0.1-7.8-0.1-15.6-0.3-23.5
			c-0.1-4.8,0.6-9.5,0.2-14.3c0-1.5-0.2-3-0.4-4.4c-0.2-1.5-1.4-2.7-3-2.8c-2.6-0.3-5.1-0.5-7.7-0.4c-11.8-0.4-23.5,0.2-35.3-0.8
			c-1.1-0.1-2.2-0.1-3.3,0c-2.5,0-2.5,0-2.5-2.6c-0.6-27.8,0-55.6,1-83.4c0.4-10.1,0.4-20.2-0.1-30.3c-0.6-12.2-0.2-24.4-0.5-36.5
			c-0.1-5-0.5-9.9-0.5-14.8c0-2.9,0-2.9,2.7-3.4c1.3-0.2,2.5-0.6,3.7-1.2c12.7-6.2,26.1-10.6,39.5-15.2
			c22.5-7.6,44.8-15.7,66.9-24.3c2.7-1.1,5.3-2.6,8.5-3.3c0,4.9,0,9.6,0,14.3c0,1.2-0.6,1.4-1.7,1.5c-7,0.5-14,1.1-21,1.6
			c-1.8,0.1-2.3,0.5-2.2,2.4c0.3,6.5-0.3,13.1-0.6,19.6c-0.2,3.6,0.7,4.5,4.1,5.3c0.5,0.1,1,0.2,1.5,0.2c7.3,0,14.6,1.1,22,0.1
			c1.3-0.1,2.6-0.2,3.9-0.2c11.9,0.3,23.8-0.1,35.6-0.2c7.4,0,14.8-0.4,22.3-0.3c28.9,0.4,57.8,0.5,86.7,0.5
			c7.8,0,15.6-0.2,23.5,0.1c3.4,0.1,4.7-1.2,4.8-4.6c0.1-3.9,0-7.7-0.4-11.6c-0.3-2.7-0.3-5.3-0.3-8c-0.1-3-0.9-3.9-3.8-4
			c-6.2-0.2-12.5-0.3-18.7-0.5c-0.8,0-1.8,0.3-1.8-1.2c0-6.3-0.6-12.6,0.1-18.9c0.9-0.2,1.6,0.3,2.3,0.6
			c24.2,9.8,48.3,19.6,72.5,29.4c10,4,20.2,7.6,30.4,10.9c4.3,1.5,8.4,3.3,12.5,5.3c1.8,0.7,2.9,2.4,2.9,4.3c0.5,4.6,0,9.1-0.2,13.6
			c-0.7,12.3-0.1,24.6,0,36.8c0.1,18.4,0.1,36.8,0,55.3c-0.1,19.7-0.2,39.4,0.1,59.1c0.1,4.1,0,4.1-4,3.9c-5.4-0.3-10.7,0.4-16,0.7
			c-9,0.5-18,0.8-27-0.1c-0.6-0.1-1.2-0.1-1.8-0.1c-1.7,0.1-2.2,0.6-1.9,2.2c0.7,3.7,0.8,7.5,0.3,11.2c-0.8,9.3-1.1,18.6-0.7,27.9
			c0.1,1.9,0,3.8,0,5.6c0.1,3.1,1,4.1,4,4.6c2.4,0.3,4.7,0.5,7.1,0.4c6.8-0.3,13.7-0.2,20.5,0.4c2,0.2,2.2,0.2,2.1,2.2
			C406.9,315.9,407.5,326.6,406.9,337.3L406.9,337.3z"/>
		<path class="st0" d="M312,498.5c-21.8,0.6-43.5,0.3-65.3-0.8c-4.7-0.3-9.5-0.3-14.3-0.3c-18,0-36,0.1-54,0.6
			c-5.8,0.1-11.6,0.7-17.5,1.2c-11.9,0.9-23.8,0.2-35.6,0.7c-11.2,0.5-22.4,0.1-33.5-0.5c-11.5-0.5-23-0.4-34.4,0
			c-5.5,0.2-10.9-0.2-16.3-0.2c-7.3,0-14.6-0.6-22,0.4c-4.2,0.6-8.3-0.3-12.4-0.9c-2.3-0.3-2.4-0.4-2.4-2.8c0-8.5-0.8-17-0.3-25.5
			c0.4-7.2,0-14.5,0-21.7c-0.1-10.3-0.2-20.6-0.2-30.9c0-8.6-0.1-17.2-0.2-25.8c0-3.8-0.6-7.5-0.2-11.3c0.2-2.6,0.2-2.6,2.8-2.7
			c4.7-0.1,9.5-0.2,14.3,0.1c3.9,0.2,7.9,0.2,11.8,0c6-0.3,12.1-0.1,18.1-0.2c8.6-0.1,17.2,0.5,25.8,0.6c6.1,0.1,12.3-0.1,18.4-0.4
			c8.7-0.4,17.4-0.2,26.1,0.6c5.6,0.4,11.3,0.4,16.9,0.4c21,0,42-0.6,62.9-0.9c18.4-0.3,36.8,0.3,55.2,0.8
			c13.8,0.4,27.5,0.1,41.3-0.9c8.7-0.6,17.4-0.8,26.1-0.5c8.5,0.2,17-0.2,25.5-0.1c12.4,0.2,24.7,0.3,37.1,0.2
			c9.1,0,18.2-0.4,27.3-0.7c3.8-0.1,7.5-0.3,11.3-0.1c4.3,0.3,8.5,0.2,12.8-0.1c4.6-0.5,9,0.8,13.6,0.8c1.2,0,1.5,0.6,1.4,1.7
			c-0.2,1.9-0.3,3.8-0.5,5.6c-0.8,11.7-0.7,23.4-1.3,35c-0.6,10.7,0.1,21.4,0.2,32c0.1,9.8,0.3,19.6,0.3,29.4
			c0,4.8,0.6,9.5,0.8,14.2c0.1,3.1,0,3.1-3,3.2c-9.1,0.2-18.2-0.1-27.3-0.1c-35.3-0.1-70.7-0.1-106-0.1L312,498.5z"/>
		<path class="st0" d="M294.2,265.7c-4.5,3-8.7,6.5-13.4,9.3c-1.2,0.8-2.1,1.8-2.6,3.1c-2.8,5.6-2.7,5.6,0.1,11.1
			c3.5,6.4,7.4,12.7,11.7,18.6c1.7,2.5,2.6,2.8,5.5,1.9c3.8-1.3,7-3.7,10.4-5.6c1.1-0.6,2.1-1.5,3.6-0.6c-0.7,3.3-2.2,6.3-4.1,9
			c-4.7,6.5-10.9,11.4-17.3,16.2c-4.1,3.3-8.7,5.9-13.6,7.7c-5.5,1.9-10,0.8-13.8-3.6c-2.8-3.2-5.8-6.2-8.7-9.3
			c-0.6-0.7-1.3-1.3-2.3-0.8s-0.9,1.3-0.9,2c-0.1,4.1,0.5,8.1,0.8,12.1s0.6,7.9,0.9,11.8c0.2,2.1,0.2,2.1-1.9,2.1h-44.2
			c-8.2,0-16.4,0-24.6-0.1c-0.5,0-1-0.1-1.5-0.1c0.2-2.1,0.7-4.2,1.3-6.2c0.4-1.9,0-2.6-2-2.6c-6,0-10.9-2.9-16.1-5.9
			c1.4-1.7,2.6-3.2,3.9-4.6c1-1,1.4-2.5,0.9-3.8c-0.1-0.2-0.1-0.4-0.2-0.6c-0.3-3.5-1.8-6.7-4.3-9.1c-2.8-2.9-5.2-6.2-7.7-9.4
			c-1.1-3,0.4-5.8,0.4-8.8c0.1-3.7,0.1-7.3-1.6-10.7c-0.6-1.2-0.9-2.5,0.9-3.1c3.5-0.5,7.1,0,10.6-0.6c18.4-3.3,32.5-12.1,40-30.1
			c3-6.9,5.6-13.9,7.9-21.1c0.9-2.8,1.6-3.1,4.3-2.2c0.7,0.2,1.5,0.6,2.2,0.9c3.1,1.5,4,3.5,2.7,6.8c-1.9,4.6-3.5,9.3-5.7,13.7
			c-3.3,6.4-3.6,14-0.7,20.6c1.1,2.6,1.1,5.3,1,8.1c-0.1,8.2-1.2,16.4-1.9,24.5s-1.8,16.5-2.7,24.8c-0.4,3.6-0.7,7.3-1.2,10.9
			c-0.1,0.6,0.1,1.2,0.6,1.7c0.9-4.5,1.1-8.7,1.6-12.9c1.4-10.5,2.4-21,3.4-31.6c0.5-5.2,1.1-10.4,0.8-15.7s1.3-9.8,5.3-13.2
			c2.1-1.8,3.2-4.5,3-7.2c-0.1-6.4-0.8-12.8-0.7-19.3c0-3.8,1.1-7.5,3.2-10.7c1.6-2.6,4.5-3.2,7.1-3.8c1.7-0.4,2.1,1.5,2.5,2.8
			c1.8,5.7,4.1,11.1,6.4,16.6c3.2,8,8.2,14.9,12.6,22.2c1.4,2.4,2.9,4.8,4.5,7c2.4,3.3,3.6,3.6,7.2,1.6s7-4.1,10.4-6.3
			c4.1-2.6,8.2-5.2,12.2-7.9c1.1-0.7,2.2-1.8,3.8-1C294.5,264.7,294.5,265.3,294.2,265.7z"/>
		<path class="st0" d="M452.2,374.2c-1.8,0.2-3.6,0.2-5.4,0c-2.8-0.5-5.7-0.6-8.6-0.5c-1.2,0-2.4,0.1-3.6,0
			c-15.5-0.4-31.1,0.7-46.6,0.7c-21.9,0-43.8,0-65.6-0.1c-12.9-0.1-25.7,0.5-38.6,1.4c-7.9,0.5-15.8,0.5-23.7,0.2
			c-15.7-0.5-31.5-0.6-47.2-1c-14.6-0.3-29.1,0.6-43.6,0.7c-13.1,0.1-26.1,0.3-39.2,0.3c-7.3,0-14.6-1-21.9-1.1
			c-6.1-0.1-12.3-0.1-18.4,0.2c-8,0.4-16,0.1-24-0.1c-12.2-0.3-24.3-0.4-36.5,0c-8,0.3-16-0.3-24,0.2c-1.1,0.1-1.7-0.2-1.6-1.4
			c0.3-6.1-0.5-12.3-0.4-18.4c0-1.5,0.5-1.9,1.9-1.8c7,0.2,14.1,0,21.1,0.2c6.1,0.1,12.3-0.3,18.4-0.3c8.7,0,17.4,0.1,26.1,0.5
			c2.8,0.1,5.5-0.1,8.3-0.2c14.3-0.5,28.7-1.6,43-0.6c14,1,27.9,0.2,41.9,0.5c27.1,0.4,54.2,0.2,81.4,0.5
			c16.4,0.2,32.9-0.6,49.3-0.4c13.4,0.2,26.7,0.3,40.1,0.7c11.8,0.3,23.5,0.7,35.3,1c6.4,0.2,12.9,0.6,19.3,0.9
			c4.2,0.2,8.3,0.2,12.5-0.2c9.6-0.8,19.1-1.9,28.7-1.9c3.2-0.1,6.3,0.1,9.5,0.3c3.2,0.4,6.3,0.3,9.5-0.2c1-0.2,2.1-0.5,2.4,1.3
			C452.7,361.7,452.9,368,452.2,374.2z"/>
		<path class="st0" d="M324.5,55.1c0.3,6.2,1,12.5,1,18.9c0,2.7-0.1,2.8-2.6,2.7c-11.4-0.6-22.8,0-34.1-0.1
			c-15.6-0.2-31.3-0.3-46.9-0.4c-16.2,0-32.5-0.2-48.7,0c-12,0.1-23.9,0.8-35.9,0.3c-1.7,0-3.3,0-5,0.2c-6.9,0.6-13.8,0-20.8-0.1
			c-4-0.1-4.4-0.6-4-4.6c0.4-4.4,0.4-8.9,0.5-13.3c0-3.8-0.2-3.1,3.1-3.5c17.8-2.1,35.6-1.7,53.4-1.7c15.1,0,30.3,0.4,45.4,0.3
			c11.3-0.1,22.6-0.4,33.8-0.3c14.9,0.2,29.9,0.5,44.8,0.8c4.6,0.1,9.3,0.2,14,0.4C323.1,54.6,323.8,54.7,324.5,55.1z"/>
		<path class="st0" d="M441.4,277.3c-0.3,7-0.6,13.1-0.4,19.3c0.1,2.4-0.1,2.6-2.5,2.7c-12.3,0.5-24.5,1.1-36.8,0.3
			c-5.2-0.4-10.5-0.1-15.7-0.1c-2.6,0.1-5.1,0-7.7-0.3c-1.1-0.2-1.7-0.6-1.7-1.9c-0.1-10.8-0.5-21.5,0.5-32.3c0.3-3,0.3-5.9-0.1-8.9
			c-0.1-1.3,0-2.1,1.6-1.9c5.6,0.6,11.3,0,16.9,0.2c5.2,0,10.5-0.2,15.7-0.8c6-0.6,12,0,18.1,0.3c2.4,0.1,4.7,0.3,7.1,0.4
			c3.8,0.2,4,0.1,4.2,4C441,264.9,441.1,271.6,441.4,277.3z"/>
		<path class="st0" d="M50.1,300.1c-4.2-0.2-9.3-0.4-14.5-1c-5.6-0.7-11.3-0.3-16.9-0.2c-3.4,0-3.5,0.1-3.4-3.2
			c0.1-4.2,0-8.3-0.3-12.5c-0.2-4.1-0.1-8.3,0.2-12.4c0.4-4.9,0.4-9.9,0.1-14.8c-0.1-2.7-0.1-2.9,2.8-2.9c7.5-0.1,15-0.1,22.5,0.3
			c5.7,0.3,11.4,0.6,17.2,0.3c5.5-0.2,11.1,0.1,16.6,0.3c3,0.1,3,0.3,3.2,3.3c0.2,2.2,0.2,4.3,0.1,6.5c-0.8,8.1,0.1,16.2,0.1,24.3
			c0.1,2.7,0.1,5.3,0,8c-0.2,2.2-0.6,2.7-2.8,2.6C67,298.7,59.1,299.7,50.1,300.1z"/>
		<path class="st1" d="M153.6,286.2c-0.8,0.4-0.8,0.9-0.4,1.7c0.8,2,1.9,3.8,2.1,6.1c0.3,4.9-0.1,9.8-1.3,14.5
			c-1.7-1.5-3.2-3.2-4.6-5c-6.8-7.8-14.1-15.2-20.5-23.3c-3.3-4-6.3-8.3-9.1-12.7c1.1-0.2,2.1-0.7,2.9-1.3c6.8-4,13.8-2.5,18.4,3.9
			c1.6,2.4,2.5,5.1,2.7,8c-0.1,1,0.5,1.9,1.4,2.3c2.3,0.9,4.4,2.7,7,2.7c0.2,0,0.3,0.2,0.5,0.3c-0.3,0.7-1.2,0.5-1.5,1.1
			C151.7,285.5,153.5,284.6,153.6,286.2z"/>
		<path class="st2" d="M113.4,263.3c0.9,0.3,1.1,1,1.4,1.6c3.1,4.7,6.3,9.3,9.7,13.9c5.4,7.3,11.7,13.9,17.8,20.7
			c6.4,7.2,12.9,14.5,19,22c0.6,0.5,0.6,1.3,0.2,1.8c0,0.1-0.1,0.1-0.2,0.2c-1.1,1.3-2.2,2.6-3.3,3.8c-4.1,4.4-8.6,8.2-13,12.2
			c-1.7,1.6-2.2,1.6-3.9-0.3c-4.3-4.6-8.2-9.6-12.2-14.5c-10.1-12.4-19.3-25.5-28.2-38.8c-3-4.5-3-4.5,0.2-8.8
			c3.3-4.5,7-8.6,10.9-12.5C112.3,264,112.8,263.6,113.4,263.3z"/>
		<path class="st2" d="M343.9,233.2c0.5,0.2,0.9,0.5,1.1,1c3.5,6,6.5,12.2,9,18.7c0.5,1.3-0.1,2.1-1,2.8c-2.8,2.5-5.6,5.1-8.4,7.5
			c-12.3,10.7-25,20.7-38.3,30.1c-3,2.1-6,4.1-9.1,6.1c-1.6,1-2.2,0.9-3.2-0.6c-3.9-6.1-8.1-12-11.2-18.5c-0.2-0.4-0.3-0.7-0.5-1.1
			c-0.6-1.2-0.3-1.8,0.9-2.6c6.6-4.7,13.4-9.2,20.1-13.7c8.6-5.8,17.6-11,25.8-17.5c4.5-3.6,9-7.2,13.2-11.1
			C342.8,233.9,343.2,233.3,343.9,233.2z"/>
		<path class="st1" d="M131.2,341.1c-1.4,1-3.1,1.3-4.6,2c-0.9,0.4-2,0.4-2.9,0.1c-5.3-1.6-9.7-5-12.6-9.7c-0.4-0.8-1.2-1.3-2.1-1.3
			c-2.3,0.1-3.8-1.2-5-3c-2-2.7-3.3-5.9-3.8-9.2c0-1.3-0.9-2.5-2.2-2.9c-3-1.4-5.4-3.8-6.8-6.8c-2.7-5.3-1.3-10.2,1.3-14.9
			c0.8-1.2,1.7-2.4,2.7-3.5c1.4,1.2,2,3,1.6,4.8c-0.3,1.4-0.2,2.8,0.2,4.1c0.9,3.3,3.7,5.6,7.1,5.8c2,0.2,2.4,1.1,1.2,2.6
			c-1.3,1.3-1.4,3.4-0.2,4.8c2.5,3.6,4.1,7.9,7.8,10.7c0.9,0.7,0.3,1.2,0,1.8c-1.3,2.6-1.3,2.6-1,5.1c1.3,0.2,1.6-0.8,2-1.7
			c0.3-1,0.9-2,1.6-2.7c0.8,0.7,1.7,1.4,2.6,2.1c0.9,1,2.1,1.6,3.3,1.8c1.1,0.1,2.1,0.7,2.6,1.6c1,1.1,1.9,2.2,1.2,3.9
			c-0.2,0.9-0.2,1.8,0,2.6c0,0.5,0,1.1,0.6,1.2c0.6,0.1,1.2-0.1,1.6-0.6c0.4-0.6-0.1-1.4,0.6-2C129.3,338.6,130.3,339.8,131.2,341.1
			z"/>
		<path class="st1" d="M352.9,279.2c-1,6.1-9.9,14.2-17,13.7c-1.8-0.1-2.7,0.4-3.5,2.2c-1.5,3.3-3.5,6.5-7.3,7.6
			c-0.8,0.2-1.5,0.3-2.3,0.3c-0.9,0-2.2,1.1-2.5-0.8c-0.1-1.9-0.7-3.7-1.5-5.4c-0.5-0.6-0.3-1.5,0.3-2c0,0,0,0,0.1,0
			c3.4-2.7,6.8-5.4,10.2-8c1.4,0.8,1.4,2.3,2.3,3.1c0.4,0.4,0.7,0.7,1.3,0.5s0.6-0.7,0.6-1.2c0-1.3-0.5-2.5-1.4-3.5
			c-0.4-0.4-0.4-1.2,0-1.6c0.1-0.1,0.1-0.1,0.2-0.2c4.2-3.5,8.3-7,12.4-10.5c0.8-0.7,1.4-0.5,2,0.2c1.3,1.3,2.9,2.3,3.9,4
			C350.9,278.7,351.9,279.3,352.9,279.2z"/>
		<path class="st1" d="M294.2,265.7c0-0.6,0.1-1.1,0.1-1.7c-0.4-1.5,0.9-2.5,1.1-3.8c3.5-4,7.7-6.6,13.4-6.6c-1.1-2.9-1-5.7-1-8.4
			c-0.1-1.2,0.4-2.4,1.3-3.2c3-2.4,6.1-4.7,9.7-6.1s6.7,0.1,9.8,1.8c1.2,0.7,2.1,1.9,3.6,1.8c-1.6,1.5-3.3,2.9-5.1,4.2
			c-0.9-1.6-0.8-3.4-2-4.6c-0.5-0.5-0.4-1.7-1.6-1.2s-0.8,1.3-0.3,2.2c0.3,0.5,0.5,1.1,0.7,1.6c0.8,2.5,0.3,4.4-1.9,5.9
			c-5,3.4-10,6.7-15,9.9C302.6,260.2,298.6,263.2,294.2,265.7z"/>
		<path class="st2" d="M354.6,258.3c0.6,1.7,0,3.6-1.5,4.7c-5.7,5.2-11.7,10-17.6,15c-7.6,6.5-15.2,13-23.4,18.7
			c-4.5,3.2-9.2,6.2-14,9c-0.9,0.6-1.9,1.1-3,1.3c-0.4-2.5,0.1-3.6,1.9-4.5c3-1.6,5.8-3.4,8.5-5.4c11-7.9,22-15.9,32.3-24.7
			c5-4.3,10-8.7,15-13.1C353.4,258.9,353.7,258.2,354.6,258.3z"/>
		<path class="st2" d="M96.7,284.5c0.6,0,0.7,0.6,1,1c10.9,17.1,23,33.5,36,49c2.3,3,4.8,5.8,7.6,8.3c1,0.8,1,1.2,0.6,4.8
			c-1.6-1.5-3.1-2.7-4.5-4c-7-7.2-13.5-15.1-19.2-23.4c-6.9-9.9-14-19.7-20.7-29.8C96.2,288.5,95.5,286.7,96.7,284.5z"/>
		<path class="st1" d="M357.3,261.6c3,3.7,1.8,7.3-0.4,10.8c-1.4,2.2-3.1,4.2-3.9,6.7c0.3-2.3-1-3.9-2.6-5.4c-1-0.8-1.9-1.7-2.7-2.7
			c2.2-2,4.4-3.9,6.5-5.9C355.4,264.1,356.8,263.2,357.3,261.6z"/>
		<path class="st2" d="M163.2,326c0.8,1.4,0.6,3.1-0.5,4.2c-5.2,6-10.9,11.5-17.1,16.5c-0.1,0.1-0.4,0.1-0.7,0.2
			c-0.9-1.8-0.3-3.9,1.4-5.1c5.6-4.7,10.9-9.8,15.9-15.2C162.4,326.2,162.7,326,163.2,326z"/>
		<path class="st2" d="M291.8,306.1c-4.8-6.6-9.1-13.6-12.6-21c-0.7-1.2-0.6-2.8,0.4-3.8c0.6-0.2,0.9,0.3,1.1,0.7
			c3.3,6.3,7,12.3,11.1,18.1C293.3,301.8,293.3,304.3,291.8,306.1z"/>
		<path class="st1" d="M320.2,302.3c0.6,1,1.6,0.6,2.5,0.8c-1.2,0.9-2.7,0.5-4,0.5c-2.1,0-4.1-0.1-6.2-0.1c0-0.2-0.1-0.4-0.1-0.6
			c0.6-1.1-1.2-1.8-0.8-2.4c1-1,2-1.8,3.2-2.5c0.3-0.2,0.7-0.4,1-0.6c1.3,1.3,1.2,3.1,2.1,4.5C318.6,302.9,319.3,303.3,320.2,302.3z
			"/>
		<path class="st1" d="M115.9,321.7c-0.6,0.7-1.7,0.7-2.4,0.1c-0.1-0.1-0.2-0.2-0.3-0.4c-2.2-2.9-4.2-5.9-6.1-9
			c-0.2-0.3-0.2-0.5-0.2-0.8c-0.1-0.5,0.2-1,0.7-1.2c0.5-0.2,0.7,0.3,0.9,0.6c1.4,1.9,2.7,3.9,4.1,5.8
			C113.6,318.3,114.7,320,115.9,321.7z"/>
		<path class="st1" d="M99.8,298.3c1,1.6,2,3.2,3,4.7c-0.4,0.3-0.9,0.3-1.3,0c-1.3-0.8-2.2-2.1-2.5-3.5
			C99,298.8,98.7,298.2,99.8,298.3z"/>
		<path class="st1" d="M119.2,326.4c-1-0.3-1.8-1-2.2-2C118.7,324.2,118.8,325.5,119.2,326.4z"/>
		<path class="st1" d="M99.8,298.3c-0.7,0.1-0.5,0.8-0.7,1.2c-0.2-0.3-0.3-0.6-0.5-1c-0.1-0.3-0.2-0.9,0.4-0.9
			S99.8,297.8,99.8,298.3z"/>
		<path class="st1" d="M101.6,303.1h1.3c0.4,0.2,0.3,0.5,0,0.6C102.4,303.8,101.9,303.5,101.6,303.1z"/>
		<polygon class="st1" points="131.7,341.4 131.5,341.4 131.5,341.2 131.7,341.2 		"/>
		<path class="st1" d="M279.3,152.7l4.1,5.3c-1.5,1.2-3.6,0.8-5.1,2.1c-1.3,0.9-2.4,2.2-3.1,3.6c3.9-0.6,7.2-2.3,10.7-1.5
			c1,1.4,1.8,2.9,2.4,4.6c-1.9,1.6-4.4,1.6-6.5,2.4c-0.7,0.3-1.8,0.1-1.8,1.2s1,1.1,1.7,1.4c2.9,1.1,6,1.5,9,1.2
			c1.5,5,1.4,10.4-0.4,15.3c-0.3,0.7-0.6,1.5-1,2.1c-0.3,0.7-1.1,1.1-1.9,0.8c-0.3-0.1-0.6-0.4-0.8-0.7c-0.2-0.3-0.4-0.7-0.5-1.1
			c-0.2-0.4-0.3-0.7-0.6-1.6c-0.7,2.5-2.3,4.2-2.6,6.4c-1.2,0.5-1.8-0.5-2.6-1c-4.1-2.8-8.4-5.3-12.8-7.4c-1.5-0.7-3.2-1.2-2.5-3.6
			c1.1-3.8,1.9-4.7,4.7-4.6c0.9,0,1.7,0.4,2.6,0.4c-0.1-0.4-0.4-0.4-0.6-0.5c-4.7-1-4.7-1-5-5.6c-0.1-6.4-3.2-12.3-8.4-16
			c-3.8-2.8-3.8-2.8-0.6-6.1c0.5-0.5,1-1,1.4-1.6c0.2-0.3,0.3-0.5,0-1.3c-3.4,5.1-8.8,6.5-14.1,8c1.8,0.5,3.4-0.2,4.9-0.6
			c1.4-0.5,3-0.4,4.3,0.2c7.3,3.4,11.8,10.9,11.6,18.9c-0.1,2.2-1.3,3.1-3.4,3.2c-3,0.1-6-0.3-8.8,0.9c2.6-0.7,5.3-0.9,7.9-0.6
			c1.5,0.1,3.5-0.4,3.3,2.2s-1.9,4.6-3.9,4.4c-2.3-0.3-4.5-0.7-6.7-1.3c-1.6-1.4-3-0.4-4.4,0.2c0.5,1.3,1.6,0.9,2.5,0.9
			c2.2,0.1,4.3,0.4,6.4,0.9c1.1,0.2,2.7,0.4,2.1,2.2s-1.6,2.8-3.6,2.1c-1.5-0.5-2.7-1.6-4.2-1.9c1.1,1.4,4.7,0.9,3.5,4.1
			c-0.9,2.3-3,2.3-6.5,0.2c2.2,2.7,2.1,3.4-1.1,4.9c-8.5,4-17.7,6.3-27.1,6.9c-2.4,0.2-4.7,0.8-7.1,0.5s-2.8-1.4-1.2-3.1
			c1.3-1.5,2.5-3.1,4.4-3.8c0.4,0.1,0.8,0.1,0.8-0.5c0.6-0.9,1.3-1.7,2.1-2.4c-3.1,2-6.1,4.4-8.7,7c-0.4,0.5-0.9,1-1.4,1.5
			c-1.1,0.8-5.2,0.5-5.5-0.5c-0.5-1.7,1.1-2.4,2.1-3.2c1.4-1.2,3.2-1.9,4.7-3.1c0.5-0.4,0.3-0.6-0.3-0.5c-0.2,0-0.4,0.1-0.6,0.1
			c-1.1-0.3-1.7,0.1-1.8,1.2c-1.4,1.8-3.4,2.7-5.1,4c-1.5,1.1-5.6-1-5.9-2.9c-0.2-1.1,0.7-1.5,1.4-2c2.3-1.4,4.7-2.6,7.1-3.6
			c-2.4,0.6-4.7,1.6-6.8,2.8c-0.6,0.5-1.4,0.8-2.1,1c-1.1,0.3-2.3-0.4-2.6-1.5c-0.4-1.1,0.4-1.6,1.3-2c1.1-0.5,2.4-0.8,3.6-1.4
			c-0.5-0.1-1.1,0-1.6,0.2c-4.8,1.5-5.8,1.1-7.2-3.8c-2.3-7.8,0.5-14.1,5.7-19.8c0.7-0.8,1.8-1.3,2.2-2.3c0-0.1,0-0.2-0.1-0.3
			c-0.5-0.2-1,0-1.3,0.4c-2.3,2.8-5.5,3.3-8.8,3.5c-2.4,0.1-4.3,1.3-6.3,2.3c-1.6,0.9-3.2,2.3-5.3,1.2c-2.1-1.7-4.6-3.1-5.3-6
			c0.8-1,0.3-1.5-0.8-2c-3.2-1.4-6.1-3.2-8.9-5.3c-3.2-2.4-5.4-5.9-6-9.9c-1-6.4,2.8-13.6,8.3-15.5c2.3-0.9,5-0.7,7.1,0.6
			c2.1,1.3,4.2,2.6,6.3,4c2.9,1.9,6.2,3.1,9.6,3.5c1.6,0.2,3.2-0.3,4.3-1.5c1.5-1.6,3-3.2,4.4-4.8c0.4-0.4,0.7-1,1.3-1.1
			c0.8,0.9,0.4,1.9,0.2,2.8c-0.3,1.9-0.2,3.8,0.4,5.6c0.3,1,0.7,1.7,1.9,1.2c0.4-0.2,0.7-0.6,1-0.9c0.1-0.2,0.2-0.4,0.4-0.6
			s0.3-0.6,0.5-0.9c0.1-0.2,0.2-0.4,0.4-0.6c0.2-0.3,0.4-0.6,0.6-0.9c1.8-2.9,4.7-4.7,7.1-7c0.9-0.9,2.3-1.6,1.8-3.1
			c-0.5-1.7-2.3-1.3-3.5-1.7s-2.6,0.5-3.7-0.4c1.3-1.9,2.5-3.8,3.8-5.7c1.3-1.9,3.1-3.3,5.2-4.3c1.3-0.6,2.5-1.3,3.6,0.5
			c0.5,0.9,1.2,0.2,1.8-0.1c1.7-0.8,3.1-2.1,5-2.4c1.1-0.2,2.2-0.6,2.9,0.6s0,1.9-0.8,2.6c-0.3,0.2-0.4,0.6-0.3,0.9
			c2.4,1.1,5.6,0.1,7.8,2.4c-0.6,1-1.7,0.9-2.6,1.2c-1.5,0.4-3,1-4.4,1.8c-0.8,0.6-1.8,1.1-1.5,2.3c0.3,1.2,1.3,1.1,2.2,1.2
			c3.7,0.6,6.4,2.9,9.2,5.2c1.4,1.1,2.6,2.1,4.5,1.1c1.5-0.8,2.4,0.4,3.3,1.3c1.5,1.6,3.3,2.9,5.3,3.6c3.7,1.2,6.2,0.1,7.5-3.5
			c1.2-3.1,1.3-6.4,1.8-9.6c0.1-0.5,0.1-1,0.2-1.5c0.5-3.1,1.8-4.9,3.6-4.7c2.6,0.3,3.2,2.5,3.5,4.5c0.5,2.5,0.5,5.1-0.1,7.7
			c-1,3.9-2.9,7.1-6.9,8.7c-1.5,0.4-2.9,1.2-4,2.3c2.6-0.2,5.2-1.2,7.3-2.8c5-3.9,6.9-13.9,3.6-19.3c-0.9-1.4-2-2.6-3.8-2.5
			c-2.1,0.1-3.2,1.6-3.7,3.4c-1,3.1-1.1,6.4-1.7,9.6c-0.5,2.8-0.9,5.8-4,6.7s-5.9-0.8-7.7-3.3c-1.6-2.1-4.4-3.6-4-6.8
			c1.6-0.9,2.6-2.4,3.8-3.7c4.1-4.4,7.9-9.1,13.2-12.3c0.3-0.2,0.6-0.4,1-0.7c5.6-3.3,10.7-1.7,14,3.9c4.9,8.4,1.9,17.7-3.4,24.5
			c-0.5,0.7-1.9,1.1-1,2.4c-0.4,1.7-2.2,2.5-2.9,4c-0.5,1-1.4,1.9-1.1,3.4c2.8-1.2,5.1-3,7.6-4.3c1.5,1.4,3.3,2.7,4.1,4.7
			c-4.2,0.4-6.3,2.4-6.7,6.7C273.2,154.7,276.3,154,279.3,152.7z"/>
		<path d="M295.4,260.2c0.5,1.5-0.3,2.6-1.1,3.8c-5,2.7-9.6,6.2-14.5,9.2c-3.5,2.2-7.1,4.4-10.6,6.5c-0.8,0.5-1.5,0.9-2.4,1.2
			c-3.1,1.3-4.4,1-6.2-1.8c-6.7-10.3-13.7-20.3-18.5-31.7c-2.5-5.9-4.7-11.9-6.5-18c-2.2,0.9-4.3,1.8-6.4,2.7
			c-0.3,0.1-0.6,0.3-0.7,0.5c-0.9,2.9-3.2,5.1-3.2,8.4c0,7.7,0.1,15.4,0.6,23.1c0.1,2.4-0.4,4.2-2.4,5.6s-3.4,3.9-5.2,5.7
			c-0.5,0.6-0.7,1.4-0.6,2.2c0,11.3-1.2,22.5-2.3,33.7c-0.9,9-2.1,18.1-3.1,27.1c-0.2,1.7-0.4,3.3-0.6,5c-0.1,0.8-0.4,1.6-1.4,1.5
			s-1.2-1-1.1-1.8c0.1-1.8,0.4-3.5,0.6-5.3c1.5-13.1,3.2-26.1,4.3-39.2c0.5-6.6,1-13.2,1.4-19.8c0.1-0.7,0.1-1.4-0.1-2
			c-1.4-2.8-1.5-5.9-2.6-8.8c-1.2-3.2-1.1-6.7,0.2-9.8c2.6-6.4,5.1-12.8,7.7-19.2c1.3-3.1,0.6-4.9-2.7-6c-1.4-0.4-2.9-1.9-4.1-1.2
			s-1.1,2.6-1.5,4c-2,7.8-5.4,15-8.8,22.3c-4.7,10.1-11.8,17.7-22,22.3c-3.3,1.5-6.7,2.9-10.1,4.2c-4,1.4-8.1,1.5-12.3,1.6
			c-1.9,0-3.8-0.1-5.6-0.1c-1.1-0.6-2.5-0.1-3.5-1.1c-0.4-0.4-1-0.8-0.7-1.4c0.2-0.5,0.8-0.4,1.3-0.4c0.7,0,1.3,0,2,0.1
			c4,0.4,8.1,0.4,12.1,0.1c0.9,0,1.8-0.2,2.6-0.4c9.8-2.9,19.2-6.7,26.4-14.4c2.7-3,4.9-6.4,6.7-10.1c4.2-7.9,7.6-16.3,10.1-24.9
			c0.4-1.5,1.2-2.9,0.1-4.5c-0.6-0.8,0.1-1.7,0.5-2.5c1-1.8,1.9-3.6,2.9-5.5c1.4-1.4,2.9-0.6,4,0.1c4.8,3,9.2,2,13.6-1
			c1.2-0.8,2.6-1.9,4.3-1c1.8,3.9,1.5,8.3,2.9,12.3c3.8,12,9.2,23.3,16.1,33.9c2.6,3.9,5.1,8,7.7,11.9c1.5,2.3,1.6,2.3,4,1
			c3.7-2.1,7.2-4.4,10.8-6.7C283.4,267.8,289.2,263.7,295.4,260.2z"/>
		<path class="st1" d="M177.5,171.2c2.1,1.3,3.5-0.6,5.1-1.2c0.4,1.7-1,2.5-1.9,3.5c-0.2,0.2-0.5-0.2-0.5-0.1
			c-0.1,0.3,0.4,0.3,0.5,0.4c1.6,0.4,2.1-0.9,2.8-1.8c2.1-2.7,5-3,8-3.1c1.8,0,1.5,1.2,1,2.3c-1,2.1-1.8,4.4-2.3,6.7
			c-0.8,3.7-0.5,7.5,0.9,11c1.5,3.6,1.4,3.7-2,5.8c-2.2,1.3-4.5,2.4-6.1,4.7c2.3-1.7,4.7-3.3,7.2-4.8c1.7-1,3.2-1.3,4.4,0.5
			s-0.3,2.8-1.4,3.7c-3.1,2.6-6.1,5.2-8.1,8.8c2.5-2.9,5.2-5.6,8.1-8.1c2.5-2.1,5.2-1.6,7,1.2c0.6,0.7,0.5,1.8-0.1,2.5
			c-3.3,3.6-6.2,7.4-9.3,11.1c-0.1,0.1-0.4,0.1-0.5-0.1c-1.7-1.1-3.8-1-5.6-1.6c-3-1.1-5.9-2.4-8-4.8c-1.2-1.3-0.8,0.5-1.2,0.6
			c-2,1.1-3,1.1-4.5-0.7c-1.3-1.5-2.3-3.1-3.8-5.2c0,1.4,0.1,2.2,0,3c-0.2,1.6-1,2.1-2.4,1.4c-2.1-0.9-3.8-2.6-4.6-4.8
			c-1.2-2.7-1.6-5.7-1.3-8.7c0.9-1.1,2.2-1.1,3.5-1.3c3.6-0.7,7-2.1,9.9-4.2c-4.7-0.5-8.9,0.6-12.9-0.7c0.8-2.8,1.6-5.7,3.6-8
			c2,0.1,3.2,1.9,5,2.3c1,0.3,2,0.8,3.1,0.9s2.4,1,2.9-0.2s-1-1.7-1.8-2.4c-2.1-1.9-5.1-2.5-7-4.7c0.8-1.7,1.8-3.3,2.9-4.8
			c3.1,2,7,1.9,10,4.6C178.6,173.4,176.8,172.5,177.5,171.2z"/>
		<path class="st3" d="M190.2,214.3c3-4.5,6.5-8.6,10.5-12.3l-2.6-2.1c-2.1-1.7-2.1-1.7-4.3,0.1c-3,2.4-5.7,5.2-8,8.3
			c-0.2,0.3-0.3,0.5-0.5,0.7c-0.4,0.5-0.9,0.9-1.5,0.5s-0.3-1.1,0-1.6c0.5-0.9,1-1.7,1.7-2.4c2.4-2.9,5.1-5.5,8.1-7.8
			c1.2-0.9,1.1-1.6,0.2-2.6c-0.4-0.6-1.2-0.9-1.8-0.5c-0.1,0-0.1,0.1-0.2,0.1c-2.5,1.3-4.9,2.9-7.2,4.7c-0.4,0.3-0.7,0.7-1.1,1
			c-0.6,0.4-1.2,1.4-2,0.4s0.2-1.4,0.8-2c1.6-1.5,3.3-2.8,5.2-3.9c1.4-0.8,2.7-1.6,4.4-2.5c-4.6-7.6-3.5-15.2,0.6-22.8
			c-1.6,0.1-2.9,0.2-4.1,0.4c-2.7,0.4-4.3,2.2-5.7,4.3c-1.1,1.6-1.7,1.4-2.6-0.7l0,0l2.5-3.6c2.3-1.8,5.1-2.8,8-2.7
			c2.5,0,4.9-0.5,6.5-2.8c0.4-0.4,0.9-0.8,1.4-1.1c0.7-0.4,1.4-0.9,2.1-0.1s0.2,1.5-0.5,2l-1.1,0.9c-4,3.3-6.7,8-7.5,13.1
			c-0.7,3.9,0.5,7.4,2.2,10.9c0.5,0.9,1.1,0.9,1.9,0.6c1.7-0.6,3.4-1.1,5.1-1.6c0.6-0.2,1.2-0.1,1.4,0.6s-0.4,1-1,1.2
			c-1.8,0.5-3.6,1.1-5.3,1.9c1,2.4,1,2.4,2.9,1.3c2.5-1.5,5.3-2.7,8.1-3.6c0.5-0.3,1.2-0.3,1.7-0.1c0.3,0.1,0.4,0.4,0.5,0.7
			c0,0.3-0.1,0.6-0.4,0.7c-0.6,0.3-1.3,0.4-2,0.6c-2.9,0.9-5.6,2.3-8,4c0,0.5,0.2,0.9,0.6,1.2c3.1,2.7,3,2.6,6.4,0.2
			c1.1-0.8,2.3-1.6,3.4-2.3c0.3-0.9,1.1-0.9,1.8-1.1c0.9-0.4,2.1-1.7,2.8-0.6c0.8,1.3-1,1.6-1.8,2.1c-1.7,1.2-3.4,2.3-5.1,3.4
			c-0.7,0.3-1.2,0.9-1.5,1.6c1,0.7,2.3,0.7,3.5,1s1.6-0.6,2.1-1.3c2.5-2.8,5.3-5.2,8.4-7.4l1.2-0.9c0.6-0.4,1.3-0.9,1.8-0.1
			s-0.3,1.2-0.8,1.6c-1,0.9-2.4,1.3-2.9,2.8l0.1-0.1c-2.7,0.9-4,3.3-6.2,5c7.6,2.4,32.4-2.9,38.9-8.2c-0.7-1.3-2.1-1.7-3.1-2.6
			c-0.3-0.2-0.4-0.7-0.3-1.1c0.2-0.3,0.6-0.5,1-0.4c1,0.4,2,0.9,2.8,1.7c1.9,1.4,1.9,1.4,3.7,0c0.4-0.3,0.7-0.6,1.3-1.2
			c-1.4-1-3-1.9-4.7-2.5c-0.6-0.3-1.5-0.5-1.2-1.4c0.4-1.1,1.3-0.6,2-0.3c1.2,0.5,2.4,1.1,3.5,1.6c2.1,1.1,2.1,1.1,3.6-0.7
			c0.3-0.4,0.5-0.7,0.7-1.1c-2.6-1-5.3-1.1-7.9-1.3c-1.1,0-2.2-0.1-3.3-0.2c-1.4-0.3-1.6-1.1-0.6-2.3c1.7-0.2,3.3-0.6,5,0
			c2.3,0.1,4.5,0.4,6.7,1.1c1.5,0.5,2.2-0.1,2.6-1.4c0.5-1.1,0.8-2.3,0.9-3.6c-3-0.4-6.1-0.3-9.1,0.3c-0.9,0.2-1.7,0.5-2.6,0.7
			c-0.5,0.1-1,0-1.2-0.6c-0.1-0.5,0.1-1,0.6-1.1c0,0,0.1,0,0.1,0c0.6-0.2,1.1-0.4,1.7-0.6c2.8-0.7,5.7-1,8.5-0.8
			c2.5,0.1,2.6,0,2.6-2.6c-0.2-7.9-3.3-14.1-10.6-17.9c-1.1-0.7-2.4-0.8-3.6-0.4c-1.8,0.6-3.6,1-5.5,1.3c-0.8,0.2-1.7-0.1-1.8-1.1
			c-0.1-0.9,0.6-1.2,1.3-1.3s1.6-0.3,2.3-0.5c4.5-1.1,8.7-2.6,11.4-6.8c0.4-0.6,1-1.1,1.7-0.7s0.6,1.1,0.3,1.8
			c-0.6,1.2-1.5,2.3-2.5,3.3c-0.8,0.7-1.9,1.1-2.4,2.2c0.7,0.4,1.3,0.9,2,1.3c6.8,4,9.5,10.2,9.9,17.8c0,0.2,0,0.4,0,0.6
			c0,3.1,0,3.1,3,3.7c1.2,0.3,2.3,0.6,3.4,1c0.5,0.1,0.8,0.6,0.7,1c0,0,0,0.1,0,0.1c-0.2,0.5-0.7,0.7-1.2,0.6
			c-1.4-0.3-2.7-0.6-4-0.9c-1.5-0.4-2.4,0.1-2.7,1.7c-0.4,1.3-0.8,2.6-1.4,3.9c6.3,2.6,12.3,6.1,17.7,10.3c0.7,0.7,1.3,1.4,2,2.2
			c0.5,0.4,0.5,1.1,0.1,1.6c-0.4,0.5-1.1,0.6-1.6,0.2c-0.1,0-0.1-0.1-0.2-0.2c-1.3-1.1-2.4-2.6-4-3.4c-2.4-0.7-4.6-2-6.3-3.8
			c-0.3-0.4-0.8-0.7-1.4-0.8c-2,0.1-3.5-1.2-5.2-2c-1.5-0.6-2.7-0.7-3.6,0.8s0.4,2.1,1.3,2.8c1.6,1.4,3.8,2.3,4.6,4.4
			c2.7,2.6,5.5,5,7.8,8c0.6,0.7,1.8,1.6,0.9,2.4c-1.2,1.1-1.8-0.5-2.5-1.2c-2.2-2.5-4.6-4.8-7.1-7l-0.1-0.1l-0.7-0.3
			c-2-0.6-3.1-2.4-4.8-3.3c-0.6-0.5-1.3-0.9-2-1.3c-1-0.4-2-0.1-2.6,0.8c-0.9,1,0,1.6,0.5,2.2c1.6,2.1,3.8,3.8,4.4,6.5
			c2.4,3.4,4.6,7.1,6.5,10.9c1.2,2.5,1.3,3.9,0.4,3.9c-1.9,0-1.8-1.8-2.4-3c-2.1-4-4.2-8-7.2-11.4c-2-0.9-2.9-2.9-4.3-4.4
			s-2.7-1.9-4.7-0.9c-11.5,5.8-23.8,8.1-36.6,8c-2.5-0.2-4.9,1-6.1,3.2c-1.6,2.5-2.8,5.2-5,7.3h-0.1c-0.1,0.1-0.2,0.3-0.3,0.3
			c-0.6,1.4-1.3,2.9-1.9,4.3c-0.3,0.6-0.7,1-1.4,0.7s-0.6-0.8-0.4-1.3c0.4-1.2,0.8-2.4,1.2-3.6c0.9-4.5,3.8-7.8,6.1-11.6
			c-2.4-1.6-4.2-0.8-6.2,1.1c-2.6,2.6-4.4,5.8-7.2,8.2c-1.2,1-1.5,2.5-2.4,3.7c-0.3,0.4-0.8,0.7-1.3,0.3c-0.3-0.2-0.5-0.6-0.4-1
			C189.4,216.3,189.8,215.3,190.2,214.3z"/>
		<path class="st1" d="M203.2,216.2c1.4-3.9,3.9-7.1,6.2-10.4c0.8-1.3,2.1-0.9,3.2-0.9c10.9,0.3,21.8-1.4,32-5.2
			c2.7-1,5.3-2.2,7.8-3.6c0.7-0.5,1.6-0.4,2.2,0.2c0,0,0.1,0.1,0.1,0.1c1.8,2.1,3.8,4.1,5.1,6.5c-4.3,2.1-8.6,4-12.8,6.2
			c-3.2,1.7-6.4,3.5-9,6.2c-1.1,1-1.8,2.3-2.2,3.8c-3.3,0.6-5.9,2.5-8.7,4.1c-1.3,1-3.1,1.2-4.6,0.4c-1.9-0.9-3.8-1.5-5.7-2.3
			c-0.9-0.5-1.9-0.6-2.8-0.4c0-3.6,0-3.6-3.7-3.7C207.9,217.4,205.5,217,203.2,216.2z"/>
		<path class="st4" d="M241.7,128.4c1.6,3.1,3.7,5.8,6.3,8.1c0.5,0.4,1,0.7,1.5,0.9c3.7,1.7,5.6,0.8,6.6-3.1
			c0.9-3.3,1.1-6.8,1.6-10.2c0.2-1.6,0.7-3.1,1.6-4.4c1.2-1.9,3.8-2.5,5.8-1.3c0.3,0.2,0.6,0.5,0.9,0.8c0.9,0.9,1.6,2,1.9,3.3
			c1.4,5.3,1.4,10.4-1.5,15.2c-2.3,3.8-5.9,5.8-10.1,6.5c-0.6,0.1-1.5,0.4-1.8-0.5s0.3-1.5,1-1.8c1.3-0.5,2.5-1.1,3.8-1.5
			c2.4-0.8,4.3-2.6,5.3-4.9c1.9-3.8,1.8-7.8,0.9-11.9c-0.2-0.9-0.6-1.7-1.3-2.3c-0.5-0.8-1.6-1-2.4-0.5c-0.3,0.2-0.5,0.4-0.6,0.7
			c-0.7,1.2-1.1,2.5-1.2,3.9c-0.4,2.6-0.7,5.1-1.1,7.6c0,0.3-0.1,0.6-0.1,0.9c-1.3,6.9-6.1,8.9-12,5.1c-1.7-1.3-3.3-2.8-4.5-4.6
			c-1.9,2.2-2.8,2.3-4.7,0.6c-1.7-1.5-3.5-2.9-5.4-4.1c-1.8-1.1-3.6-2.1-5.8-2c-0.9,0.1-1.8-0.4-2.2-1.2c-0.2-0.9,0.1-1.8,0.8-2.4
			c2.4-2.5,5.5-3.3,8.8-3.6c2.9,0.1,4.9,1.8,6.3,4.2C240.9,126.6,241.3,127.5,241.7,128.4z"/>
		<path class="st5" d="M390.3,233v-5.6c0-0.9,0.1-1.9,1.3-1.9c1,0,1.3,0.7,1.4,1.6c0.4,2.8,0.5,5.7,0.3,8.6c0,1.5-1.2,2.2-2.5,2.6
			c-2.8,0.7-5.7,0.7-8.5,0.1c-0.6,0-1.1-0.6-1.1-1.2c0,0,0,0,0,0c0-0.7,0.6-1.3,1.3-1.3c0,0,0,0,0.1,0c1.9-0.1,3.7,0.4,5.6,0
			c0.4-0.9-0.4-1.2-0.8-1.7c-3.1-3.6-6.7-6.8-10.6-9.5c-4.4-3-9.2-3.9-14.4-2c-1.3,0.4-2.5,1.1-3.6,2c-0.6,0.5-1.2,0.8-1.8,0.2
			s-0.5-1.4,0.1-2.1c0.7-0.7,1.5-1.3,2.4-1.7c5.3-2.5,10.6-2.8,16-0.3c2.7,1.3,5.1,3,7.3,5C385.3,227.9,387.7,230.3,390.3,233z"/>
		<path class="st6" d="M83.9,234.2c0.8-0.7,1.6-1.5,2.4-2.2c2.4-2,5.5-2.9,8.6-2.4c3.2,0.5,6.3,1.6,9.1,3.4c5,3.2,9.2,7.5,12.4,12.6
			c0.6,1,1.7,2.3,0.4,3.1c-1.4,1-1.9-0.7-2.6-1.6c-3.9-5.6-8.4-10.5-14.8-13.2c-1-0.4-2-0.7-3.1-1.1c-3.4-1.2-7.1-0.2-9.4,2.6
			c-0.7,0.6-1.3,1.2-1.7,2c1,0.9,2.4,0.7,3.6,1.3c0.8,0.4,1.7,0.9,1.4,1.9s-1.2,1.1-2.2,0.8c-2-0.6-4-1.1-6-1.5
			c-2.1-0.4-2.7-1.2-2.4-3.3c0.4-2.3,1.1-4.6,1.9-6.8c0.1-0.7,0.7-1.2,1.4-1.1c0.1,0,0.3,0.1,0.4,0.1c0.8,0.3,0.8,1.1,0.6,1.8
			c-0.2,1-0.5,1.9-0.7,2.9C82.9,234.2,83.2,234.4,83.9,234.2z"/>
		<path class="st7" d="M205.1,127.1c1.9-0.4,3.9-0.5,5.8-0.1c2.6,0.4,3.3,2.5,1.5,4.5c-0.8,0.9-1.7,1.6-2.6,2.3
			c-2.4,1.8-4.6,4-6.5,6.4c-0.2,0.2-0.5,0.4-0.5,0.7v-0.1c-0.6,0.2-0.4,0.8-0.7,1.1l0,0c-0.4,0.3-0.3,0.9-0.7,1.1
			c-0.3,1.1-0.9,1.8-2.1,1.6s-1.2-1.2-1.4-2c-0.7-3-0.7-6.1,0.1-9C199.6,130.7,201.5,128.1,205.1,127.1z"/>
		<path class="st8" d="M326.8,169.1c-0.7,5.3-1.9,10.5-3.5,15.6c-2.9,9.4-6.7,18.6-11.4,27.3c0,0.1-0.1,0.2-0.1,0.3
			c-0.5,0.8-0.9,2-2.2,1.3s-0.6-1.7-0.1-2.6c3.7-7.3,6.9-14.9,9.6-22.7c2.1-6.1,3.7-12.3,4.8-18.6c0.1-0.8,0.3-1.6,0.5-2.3
			c0.1-0.7,0.7-1.2,1.4-1.1c0,0,0.1,0,0.1,0c0.9,0.1,1,0.8,1,1.6C326.9,168.1,326.9,168.3,326.8,169.1z"/>
		<path class="st8" d="M111.1,124.1c0-1,0.1-2,0.2-3c0.1-0.8,0.6-1.5,1.6-1.4c0.8,0.2,0.9,0.8,1,1.6c0.6,13.8,3.9,27.4,9.6,40
			c0.2,0.4,0.4,0.9,0.6,1.4c0.2,0.6,0,1.2-0.5,1.6c-0.5,0.4-1.2,0.2-1.6-0.3c-0.8-1-1.5-2.1-2-3.3c-2.4-5.3-4.3-10.9-5.5-16.6
			C112.8,137.5,111.6,130.8,111.1,124.1z"/>
		<path class="st1" d="M193.1,214.4c2.2-4.2,5.5-7.4,8.8-10.6c0.5-0.5,1.2-0.7,1.9-0.4c1.3,0.4,2.6,0.8,4.1,1.3
			c-2.8,3.8-5.3,7.9-7.5,12.1c-0.2-0.8-0.8-1-1.5-1.1C196.9,215.3,195,214.8,193.1,214.4z"/>
		<path class="st9" d="M159.4,187.3c2.3-0.5,4.5-0.2,6.8-0.2c1.8,0.1,3.6,0,5.3-0.4c0.7-0.2,1.4-0.2,1.8,0.6s-0.3,1.3-0.9,1.7
			c-3.4,2.2-7.2,3.7-11.2,4.4c-0.8,0.1-1.6,0.2-2.4,0.3C158.4,191.4,159.1,189.4,159.4,187.3z"/>
		<path class="st1" d="M262.5,202.7c-2.2-2.7-4.3-5.6-6.7-8.1c0.2-0.3,0.2-0.5,0.4-0.6c3.8-2.8,2.3-2.8,6.1-0.2
			c1.8,1.1,3.3,2.4,4.6,4.1c-0.2,1.4-1.2,1.9-2.2,2.7S262.7,201.4,262.5,202.7z"/>
		<path class="st5" d="M290.7,172.9c-0.5,0.8-1.4,1.2-2.3,1c-2.7-0.2-5.4-0.8-8-1.8c-0.4-0.2-0.9-0.5-1.3-0.8
			c-1.1-0.9-1-2.2,0.3-2.4c3-0.5,5.8-1.8,8.9-2.1C289.1,168.8,289.9,170.9,290.7,172.9z"/>
		<path class="st10" d="M165.1,175.3c3.4,1.3,6.5,3.2,9.3,5.6c0.7,0.6,1.5,1.2,0.9,2.2c-0.4,0.8-1.3,0.8-2.1,0.6
			c-3.8-0.6-7.5-1.5-10.3-4.4C163.4,177.9,164.2,176.5,165.1,175.3z"/>
		<path class="st11" d="M323.7,204.4c-1,0-1.4-0.5-1.4-1.1c0-0.6,0.1-1.2,0.4-1.7c1.5-4.7,3-9.4,4.5-14c0.4-1.1,0.6-3,2.3-2.5
			c1.8,0.5,0.8,2.1,0.4,3.3c-1.5,4.8-3.2,9.5-4.7,14.3C324.8,203.5,324.6,204.3,323.7,204.4z"/>
		<path class="st1" d="M268.6,196.1l-7.6-5.9c0-0.3,0-0.5,0.1-0.6c2.8-3.6,2.8-3.6,6.8-1.6c1.2,0.6,2.4,1.3,3.5,2
			C270.8,192.1,269.9,194.2,268.6,196.1z"/>
		<path class="st12" d="M177.5,171.2c0.6,1.1,1.3,2.2,1.9,3.3c0.3,0.4,0.2,1-0.2,1.4c-0.4,0.3-0.9,0.4-1.4,0.1
			c-0.4-0.2-0.7-0.4-1-0.6c-1.8-1.4-3.9-2.3-6.2-2.6c-1.1-0.2-2.7-0.2-2.6-2.1c1.5-1.5,2.4-3.5,4.2-4.8L177.5,171.2z"/>
		<path class="st13" d="M126.2,143.2c0.8,0.1,1,0.8,1.3,1.4c0.7,1.9,1.4,3.9,2.1,5.8c1,2.9,2.3,5.6,3.9,8.3c0.3,0.5,0.6,1,0.9,1.5
			c0.3,0.6,0.1,1.2-0.4,1.6c-0.5,0.4-1.2,0.3-1.6-0.2c0,0,0,0,0,0c-0.5-0.6-1-1.2-1.4-1.9c-2.7-4.4-4.3-9.3-5.9-14.1
			C124.5,144.3,125.2,143.2,126.2,143.2z"/>
		<path class="st14" d="M285.9,162.2c-3.3,0.8-6.8,0.9-10,2.4c-0.5,0.3-1.2,0.2-1.6-0.3c-0.5-0.7-0.1-1.4,0.3-1.9
			c2.2-2.8,4.8-5,8.8-4.4C284.2,159.4,285.1,160.8,285.9,162.2z"/>
		<path class="st15" d="M279.3,152.7c0,0.4,0.3,1-0.4,1.2c-2.8,0.8-5.6,1.6-8,3.6c-0.9,0.7-1.7,0.1-1.7-1.1c0-2.4,3.7-6.6,6.1-7
			c0.9-0.1,1.2,0.6,1.8,0.8C277.8,151.1,278.5,151.9,279.3,152.7z"/>
		<path class="st16" d="M272.9,145.5c0.1,1.3-1.1,1.5-1.9,2c-1.6,1-3.4,1.6-4.8,2.9c-0.4,0.6-1.3,0.7-1.9,0.3
			c-0.7-0.5-0.4-1.2-0.1-1.9c1-2.6,2.8-4.8,5-6.4C270.5,143.4,271.8,144.4,272.9,145.5z"/>
		<path class="st1" d="M272.9,190.7c2.3,0.9,4.4,2.2,6.3,3.8c-0.9,0.5-0.9,1.5-1.4,2.2c-0.4,0.8-1.3,1.3-2.2,1.1
			c-0.9-0.2-1.2-1-1.4-1.7C273.6,194.3,273.3,192.5,272.9,190.7z"/>
		<path class="st1" d="M175.3,208.5l-0.4-2.6c1.1,0.3,1.1,1.3,1.6,1.9L175.3,208.5z"/>
		<path class="st0" d="M83.9,234.2c-0.2,0.6-0.7,1.3-1.1,0.9c-0.6-0.4-0.2-1.2,0.3-1.7L83.9,234.2z"/>
		<path class="st1" d="M202.8,216.6c-0.1-0.3,0.1-0.3,0.3-0.3C203.2,216.5,203.1,216.7,202.8,216.6z"/>
		<polygon class="st1" points="267.6,198.1 267.7,198.1 267.7,198.2 267.6,198.3 		"/>
		<path d="M239.7,396.5c26.7,1.1,54.2,2.3,81.7,3.3c7,0.3,14,0.6,21.1,0.2c4.4-0.1,8.7,0.1,13,0.6c3.2,0.3,4.3,1.3,4.3,4.5
			c0,4-0.1,7.9-0.4,11.9c-0.6,8.6-0.7,17.2-1.7,25.8c-0.3,2.8-0.6,5.5-1.1,8.2c-0.6,3.4-1.9,4.6-5.2,5.2c-0.9,0.1-1.8,0.2-2.7,0.2
			c-23.5,0.7-46.9,1-70.4,1.5c-30.4,0.7-60.8,0.8-91.2,1.1c-15.8,0.2-31.7-0.4-47.5-1.8c-8.3-0.7-16.6-0.5-24.9,0.5
			c-0.6,0.1-1.2,0.2-1.8,0.2c-3.7,0.1-5.8-1.5-6.6-5.1c-0.7-3.7-1.1-7.4-1.2-11.2c-0.9-12.8-0.7-25.5-1.2-38.3
			c0-1.3-0.2-2.6-0.3-3.8c-0.2-1.8,0.1-2.3,1.9-2.5c3.2-0.4,6.5-0.8,9.7-1.1c21-1.5,42.1-2.5,63.2-1.5
			C198.7,395.4,218.8,396.1,239.7,396.5z"/>
		<path class="st0" d="M363.8,476.9c-0.6,1-1.7,1.5-2.8,1.4C361.7,477.4,362.7,476.9,363.8,476.9z"/>
		<path class="st17" d="M212.1,305.9c0,0.8-0.7,1.5-1.5,1.5c0,0,0,0,0,0c-0.7,0.1-1.4-0.5-1.5-1.2c0-0.1,0-0.2,0-0.3
			c-0.1-0.8,0.5-1.4,1.3-1.5c0.1,0,0.1,0,0.2,0C211.4,304.4,212,305,212.1,305.9C212.1,305.9,212.1,305.9,212.1,305.9z"/>
		<path class="st18" d="M208.5,325.7c-0.8,0.1-1.5-0.4-1.6-1.2c0,0,0-0.1,0-0.1c-0.1-0.8,0.4-1.5,1.2-1.6c0,0,0.1,0,0.1,0
			c0.7-0.1,1.4,0.4,1.5,1.1c0,0.1,0,0.2,0,0.2c0.1,0.7-0.3,1.4-1.1,1.6C208.6,325.7,208.6,325.7,208.5,325.7z"/>
		<path class="st19" d="M205,338.5c0.7-0.1,1.3,0.4,1.4,1.1c0,0,0,0,0,0.1c0.2,0.7-0.2,1.4-0.9,1.6c-0.1,0-0.2,0-0.3,0
			c-0.6,0.1-1.3-0.3-1.4-0.9c0-0.1,0-0.1,0-0.2c-0.2-0.7,0.3-1.4,1-1.6C204.8,338.5,204.9,338.5,205,338.5z"/>
		<path class="st20" d="M212.9,289.1c-0.1,0.6-0.7,0.9-1.3,0.8c-0.7,0-1.3-0.5-1.3-1.2c0-0.1,0-0.3,0-0.4c0.1-0.7,0.7-1.2,1.3-1.1
			c0,0,0.1,0,0.1,0C212.6,287.4,213.1,287.9,212.9,289.1z"/>
		<path class="st21" d="M172.8,70.2c-1.2-0.1-2.4-0.1-3.6-0.2c-1-0.1-1.8-0.5-1.6-1.7c0.1-1,0.9-1.2,1.8-1.2c6.3,0,12.6-0.9,19-1.2
			c24.6-1.1,49.3-0.6,73.9-0.4c4.4,0,8.7,0.4,13,0.7c0.7,0,1.4,0.1,2.1,0.3c0.9,0.1,1.5,0.8,1.4,1.7c0,0.1,0,0.2,0,0.2
			c-0.2,1-1,1.2-1.8,1.1c-3.6-0.2-7.1-0.6-10.7-0.7C241,68.4,215.8,68,190.6,69C184.6,69.3,178.7,69.4,172.8,70.2z"/>
		<path class="st22" d="M382.9,266.1c2.8-2.6,3-2.5,6,2.3c0.9-1.2,0.5-2.4,0.5-3.6s-0.1-2.4,0-3.5c0-0.6,0.6-1,1.3-1
			c0.5-0.1,1.1,0.3,1.1,0.8c0,0.1,0,0.2,0,0.2c0.1,2.9,0.6,5.7-0.1,8.6c-0.3,1.1-0.6,2.1-1.9,2.4s-2-0.6-2.6-1.5
			c-0.5-0.7-0.9-1.5-1.6-2.5c-0.4,0.9-0.9,1.8-1.4,2.7c-0.4,0.7-1.3,1-2,0.6c-0.3-0.2-0.5-0.4-0.6-0.7c-0.2-0.4-0.4-0.9-0.5-1.4
			c-0.5-2.6-1-5.2-1.5-7.9c0-0.2,0-0.4,0-0.6c-0.1-0.8,0.1-1.5,0.9-1.6c1-0.1,1.3,0.6,1.5,1.5C382.3,262.5,382.6,264.3,382.9,266.1z
			"/>
		<path class="st23" d="M388.5,282.2c0.9-1.2,1.6-2.3,2.4-3.3c1.1-1.3,2.5-1.1,2.9,0.4c1,3.9,1.7,8,2,12c0.1,0.5-0.2,1-0.7,1.1
			c-0.6,0.2-1.2-0.1-1.4-0.7c-0.2-0.6-0.3-1.1-0.4-1.7c-0.4-2.6-0.9-5.1-1.3-8c-2.6,3.5-2.6,3.5-6.3,1.3c-0.1,1.5,0,2.9,0.3,4.4
			c0.1,0.7,0.2,1.4,0.3,2c0.1,0.5-0.2,1-0.7,1.1c-0.5,0.1-1-0.1-1.3-0.5c-0.4-0.7-0.7-1.5-0.6-2.3c-0.3-2.3-0.5-4.5-0.7-6.8
			c-0.1-1.7,0.9-2.4,2.4-1.6c0.5,0.3,1,0.6,1.5,1C387.4,281.2,387.8,281.6,388.5,282.2z"/>
		<path class="st22" d="M408.8,284.4c0.1,1.4,0.3,2.7,0.4,4.1c0.1,0.9-0.1,1.6-1.2,1.7s-1.1-0.7-1.2-1.4c-0.5-3.4-0.3-6.9-0.5-10.4
			c0-0.5,0.3-1,0.7-1.2c0.6-0.2,1.2,0,1.5,0.6c0.5,0.8,0.9,1.5,1.3,2.3c1.1,2.2,2.4,4.4,4,6.3c1-1,0.7-2.1,0.8-3.1
			c0-1.2-0.1-2.4-0.3-3.5c-0.1-1-0.1-1.9,1.1-2c1-0.1,1.4,0.8,1.5,1.5c0.5,2.6,0.4,5.3-0.3,7.9c-0.8,2.3-2.6,2.8-4.3,1.1
			c-1.1-1.2-2.1-2.6-3-3.9L408.8,284.4z"/>
		<path class="st24" d="M397,263.4c0.8-0.1,1.3-0.1,1.8-0.2c2.9-0.6,2.9-0.6,2.5-3.5c-0.1-0.8,0-1.5,0.8-1.7c1-0.3,1.5,0.4,1.7,1.2
			c0.2,0.6,0.3,1.2,0.3,1.8c0,3.2,0.1,6.3,0.5,9.5c0.1,0.8-0.1,1.5-0.9,1.6s-1.2-0.5-1.5-1.2c-0.7-1.8-0.2-3.7-0.5-5.5
			c-0.3-0.1-0.4-0.3-0.6-0.2c-1.3,0.4-3.1,0-3.9,1.1s-0.1,2.5,0.2,3.7c0.2,0.8,0,1.5-0.8,1.6c-1,0.2-1.4-0.4-1.6-1.3
			c-0.4-2.1-0.6-4.3-0.6-6.5c-0.1-1.3,0-2.6-0.1-3.9c-0.1-0.8-0.1-1.8,0.9-1.9c1.2-0.1,1.3,0.9,1.4,1.8S396.8,262.1,397,263.4z"/>
		<path class="st25" d="M423.4,263.7c0.5,0.6,2,0,3-0.2c0.7-0.1,1.4-0.1,2.1-0.1c0.6,0,1.1,0.5,1.1,1.1c0,0,0,0.1,0,0.1
			c0,0.5-0.4,1-0.9,1c-1.1,0.2-2.1,0.3-3.2,0.5c-0.6,0-1.2,0.1-1.8,0.3c-1,0.4-0.9,1.2-0.7,2c0.2,1,1,0.9,1.6,0.7
			c0.7-0.3,1.4-0.6,2.1-1c0.5-0.3,1.2-0.2,1.6,0.3c0.3,0.4,0.3,1,0,1.4c-0.6,1.2-3.6,2.2-5.6,1.9c-1.6-0.3-2.2-1-2.2-3.3
			c0-2.9,0.1-5.7,0.3-8.6c0.1-1.8,0.8-2.4,2.6-2.5c1.1-0.1,2.2,0,3.3,0.1c0.6,0.1,1.1,0.7,1,1.3c0,0.7-0.5,1-1.2,1
			c-1,0-2.4-0.6-3,0.4C422.6,261.1,422.7,262.6,423.4,263.7z"/>
		<path class="st25" d="M404.9,284.5c0.1,1.4-0.3,2.8-1,3.9c-1,1.7-3.2,2.2-4.8,1.2c-0.5-0.3-0.9-0.7-1.2-1.2
			c-1.1-1.9-1.6-4.1-1.4-6.2c0-1.3,2.3-3.1,3.8-3.3c1.5-0.2,3,0.6,3.7,1.9C404.7,281.9,405,283.2,404.9,284.5z"/>
		<path class="st25" d="M422.2,282.6c1,0.5,1.8,0.1,2.5,0s1.5,0,1.6,0.9s-0.5,1.2-1.2,1.4c-0.7,0.2-1.3,0.3-2,0.3
			c-0.6,0.1-1.2,0.3-1,1.1s0.7,0.5,1.2,0.4c0.4-0.1,0.7-0.2,1.1-0.3c0.5,0,1,0.3,1.1,0.8c0.2,0.5,0,1-0.4,1.3
			c-1,0.8-2.4,1.1-3.6,0.7c-1.2-0.2-1.7-1.2-1.9-2.3c-0.7-3.3,0.5-6.4,1.4-9.4c0.5-1.6,2.7-2.4,4.2-1.8c0.7,0.2,1.1,0.9,1,1.6
			c0,0.5-0.5,0.8-0.9,0.8c0,0-0.1,0-0.1,0c-2.1-0.5-2.3,0.9-2.5,2.3C422.4,281.2,422.3,281.8,422.2,282.6z"/>
		<path class="st26" d="M432.4,280.3c0.2-0.9,0.5-1.6,0.7-2.3s0.6-1.6,1.5-1.4c1.1,0.3,1.1,1.2,0.7,2.2c-0.1,0.4-0.2,0.8-0.3,1.1
			c-0.8,3-1.5,5.9-2.3,8.9c-0.1,0.6-0.3,1.1-0.6,1.7c-0.3,0.7-0.8,1.1-1.6,0.7c-0.6-0.2-0.8-0.9-0.6-1.5c0.2-1,0.5-1.9,0.8-2.8
			c0.9-1.9,0.5-4.2-1-5.7c-0.5-0.5-0.7-1.2-1.3-1.6c-0.9-0.5-1.5-1.1-0.7-2.1s1.7-0.5,2.5,0.3S431.3,279.6,432.4,280.3z"/>
		<path class="st26" d="M418.2,257.4c1-0.1,1.6,0.2,1.8,1c0.1,0.6-0.4,1.2-1,1.3c-0.9,0.3-1.9,0.5-2.9,0.6c-1,0.1-1.3,0.6-1.3,1.5
			c0.1,2.7-0.1,5.3,0.6,7.9c0.2,0.8,0.3,1.6-0.8,1.9c-0.9,0.2-1.4-0.4-1.6-1.3c-0.4-2.1-0.6-4.3-0.5-6.5c0-1.1,0-1.9-1.3-2.2
			c-0.7-0.1-1.2-0.8-1.1-1.6c0.1-0.7,0.7-1.2,1.4-1.3C413.7,258.3,416.1,257.8,418.2,257.4z"/>
		<path class="st26" d="M406.3,264.2c0-1.8,0-2.8,0-3.9c0-0.8,0-1.8,1.1-1.7s1.4,1,1.2,2c-0.2,1.6-0.1,3.2,0.1,4.7
			c0.1,1.5,0.3,3,0.7,4.4c0.2,0.8,0.6,1.6-0.5,2s-1.6-0.5-1.9-1.4c-0.3-0.9-0.5-1.9-0.6-2.9C406.3,266.1,406.3,264.8,406.3,264.2z"
			/>
		<path class="st22" d="M29.6,264.3c0.1,0.1,0.3,0.2,0.5,0.3c1.5,0.5,3.1,0.9,3.2,2.9s-1.1,3.1-2.6,4c-1.8,1-3.9,1.4-6,1.2
			c-1.4,0-2.1-0.8-2.1-2.3c0.1-2.9,0-5.7,0.1-8.6c0-2.4,2.1-3.9,4.8-3.5c2.4,0.3,3.3,1.7,2.8,4.2C30.1,263.1,29.9,263.7,29.6,264.3z
			"/>
		<path class="st27" d="M31.9,281.5c-1.2,0.6-1.3,1.5-1.8,2.2c-1.6,2.5-2.4,2.6-4.6,0.7c-0.4-0.4-0.7-1-1.5-0.9
			c-0.3,1.7,0.4,3.3,0.5,4.9c0,0.7,0,1.5-0.9,1.6c-0.7,0.1-1.3-0.4-1.4-1.1c0,0,0-0.1,0-0.1c-0.5-2.8-0.8-5.7-0.8-8.6
			c0-1.3,1.1-1.8,2.3-0.9c1.3,1,2.5,2.3,3.9,3.5c1.1-1.1,1.5-2.5,2.3-3.7c0.4-0.8,0.9-1.5,1.5-2.1c0.5-0.6,1.3-0.8,2-0.3
			c0.3,0.2,0.5,0.5,0.6,0.9c0.3,0.9,0.5,1.9,0.5,2.9c0.2,3,0.5,5.9,1.1,8.8c0.1,0.4,0.1,0.8,0.2,1.2c0,0.9-0.2,1.6-1.2,1.7
			c-0.9,0.1-1.2-0.6-1.3-1.3c-0.4-2.6-0.7-5.3-1.1-7.9C32.1,282.6,32,282.2,31.9,281.5z"/>
		<path class="st23" d="M49,285.3c-0.5,1.5,0,2.8-0.1,4c0,0.6-0.3,1.2-1,1.2c-0.6,0.1-1.2-0.4-1.3-1c-0.1-0.8-0.2-1.6-0.3-2.3
			c-0.1-2.5-0.1-4.9-0.1-7.4c0-0.7,0-1.5,0.9-1.6c0.7-0.1,1.4,0.3,1.6,1c0.4,0.8,0.7,1.6,1.1,2.4c0.7,1.7,1.7,3.2,2.9,4.5
			c0.8-1.3,0.5-2.5,0.5-3.6c0.1-1.4,0-2.8,0.1-4.1c0-0.8,0.2-1.6,1.3-1.6c0.7,0,1.2,0.6,1.2,1.2c0,0.1,0,0.1,0,0.2
			c-0.1,3.1,0.2,6.3-0.5,9.5c-0.1,0.9-0.7,1.7-1.5,2c-1,0.3-1.7-0.3-2.3-1C50.8,287.6,50,286.6,49,285.3z"/>
		<path class="st25" d="M63.8,262.6c1.1-0.9,1.5-2.1,2.3-3c0.4-0.6,1.2-0.9,1.8-0.5c0,0,0,0,0,0c0.8,0.5,0.5,1.1,0.1,1.8
			c-0.6,1-1.3,2-1.9,3c0.3,1,1.5,1.1,2.2,1.8c1.2,1.2,2.3,2.4,3.3,3.8c0.5,0.8,0.9,1.7,0,2.4s-1.5-0.2-2.1-1
			c-0.9-1.2-1.9-2.3-2.9-3.3c-0.4-0.6-1.1-0.9-1.8-0.6c-0.8,0.3-0.9,0.9-0.7,1.7c0.2,0.8,0,1.6-1.1,1.7c-0.9,0.1-1.2-0.6-1.3-1.3
			c-0.4-3-0.6-6.1-0.5-9.1c-0.1-0.5,0.3-1.1,0.8-1.1c0.1,0,0.1,0,0.2,0c0.6,0,1.2,0.5,1.2,1.1C63.5,260.7,63.2,261.6,63.8,262.6z"/>
		<path class="st25" d="M36.3,283.2c0.1-1.4,0-3,1.2-4.1c1.7-1.5,4.3-1.3,5.8,0.4c0.1,0.1,0.1,0.1,0.2,0.2c1.8,2.2,2.2,5.2,1,7.8
			c-0.6,1.7-2.3,2.9-4.1,2.8c-1.7-0.2-3.2-1.4-3.5-3.1C36.4,286,36.2,284.6,36.3,283.2z"/>
		<path class="st13" d="M70.5,281.1c0.8-1.1,0.9-2.6,1.5-3.8c0.4-0.8,1-1.3,1.9-1s0.6,1.1,0.4,1.8c-1.2,3.8-2.3,7.5-3.4,11.3
			c-0.3,1.2-0.9,2.2-1.7,3.1c-0.7,0.7-1.6,1-2.3,0.3s-0.2-1.4,0.4-2c1.5-1.5,1.6-3.6,2.2-5.4c0.1-0.5,0-1-0.3-1.4
			c-1.1-1.9-2.1-3.8-3.2-5.6c-0.4-0.6-0.9-1.2-0.2-1.8s1.7-0.3,2.2,0.5s1,1.9,1.5,2.9C69.7,280.4,70.1,280.8,70.5,281.1z"/>
		<path class="st13" d="M50.6,269.8c-1.3,1.2-1.9,0.3-2.4-0.8c-0.3-0.6-0.3-1.5-1.2-1.4s-1.8,0.2-2.1,1.3c-0.1,0.4-0.2,0.8-0.4,1.1
			c-0.3,0.5-0.9,0.8-1.5,0.7c-0.6-0.1-1-0.7-0.9-1.4c0-0.9,0.1-1.8,0.2-2.6c0.3-1.7,0.7-3.3,1-4.9c0.2-1,0.4-2.1,1.5-2.3
			s1.8,0.7,2.3,1.5c1.1,1.7,2,3.4,2.8,5.2C51.1,267,51.4,268.6,50.6,269.8z"/>
		<path class="st28" d="M60.8,278.7c-0.1,0.6-0.2,1-0.2,1.4c-0.1,2.2-0.1,2.2,2.1,2.5c0.3,0,0.6,0,0.9,0.1c0.5,0.1,0.9,0.5,0.9,1
			c0,0.5-0.4,0.9-0.9,1.1c-0.6,0.3-1.3,0.3-2,0.1c-0.8-0.2-1.1,0.2-1.1,0.9c-0.1,1,0.5,1.2,1.3,1c0.4-0.1,0.8-0.2,1.2-0.2
			c0.8-0.1,1.7-0.1,1.8,1c0.1,0.9-0.6,1.3-1.2,1.5c-1.1,0.3-2.3,0.4-3.5,0.3c-1,0-1.9-0.8-1.9-1.8c0,0,0-0.1,0-0.1
			c-0.2-3-0.1-5.9,0.3-8.9c0.3-2,2.1-2.9,4.1-2.2c0.8,0.3,1.4,0.8,1.1,1.8s-0.9,0.9-1.7,0.6C61.5,278.7,61.2,278.7,60.8,278.7z"/>
		<path class="st29" d="M50.5,266.2c0.1-2,0.8-3.9,2-5.5c1.1-1.3,2.5-1.7,3.7-1c0.8,0.3,1.1,1.2,0.9,2c-0.1,0.5-0.6,0.9-1.2,0.8
			c-0.2,0-0.3-0.1-0.5-0.2c-0.7-0.4-1.1-0.1-1.4,0.5c-0.4,0.7-0.6,1.4-0.8,2.2c-0.4,1.9,0.3,2.8,2.2,3c0.7,0.1,1.4,0.1,2.1,0.1
			c0.9,0,1.6,0.2,1.6,1.3s-0.9,1.2-1.7,1.2c-2,0.1-4,0-5.6-1.4C50.6,268.5,50.7,267.3,50.5,266.2z"/>
		<path class="st30" d="M35.1,265.3c0-1.2,0-2.4,0-3.5c0-1-0.4-2.6,1.1-2.6c1.8,0,1.1,1.7,1.2,2.8c0,1.9-0.1,3.7-0.2,5.6
			c-0.1,1.4,0,2.4,1.8,2.2c0.4,0.1,0.8,0.2,1.1,0.4c0.4,0.3,0.6,0.8,0.5,1.3c-0.1,0.5-0.4,0.6-0.8,0.7c-3.1,0.7-4.8-0.7-4.8-3.9
			c0-1,0-2,0-2.9H35.1z"/>
		<path class="st31" d="M50.5,266.2l1.2,2.9l-1.2,0.7c0.2-1.3-0.7-2.4-0.6-3.6L50.5,266.2z"/>
		<path class="st32" d="M137.8,299.5c5.6,6.1,11.1,12.3,17,18.2c2.1,2.1,1.2,4.6,1.9,6.9c0.2,0.6-0.7,1.1-1.2,1.6
			c-2.7,2.7-5.5,5.4-8.2,8.1c-1.8,1.7-4.6,1.7-6.4,0c-3.1-3.2-6-6.5-8.7-10.1c-8.9-11.2-17.4-22.7-25.7-34.4c-0.5-0.7-1-1.5-1.5-2.2
			c-1-1.4-2-2.8-0.9-4.5c0.1-0.2,0.1-0.4,0.1-0.6c-0.8-3.3,1.1-5.4,3.2-7.4c0.4-0.3,0.8-0.7,1-1.1c1.2-3.2,4.1-2.4,6.4-2.8
			c0.9-0.1,1.3,0.8,1.8,1.4c3.6,5.4,8,10.3,11.9,15.5c2.1,2.9,4.4,5.6,6.6,8.3c0.2,0.2,0.2,0.6,0,0.8c-1.3,0.7-2.2-0.3-3.3-0.8
			c-3.1-1.4-6.7-0.5-8.7,2.2c-1.9,2.5-1.9,6,0.1,8.5c0.5,0.6,1,1.2,1.7,1.7c2.6,1.9,5.4,2.7,8.3,1.3s3.6-4.2,3.9-7.2
			c0.1-0.9-0.3-1.8-0.1-2.6C137.1,299.7,137.3,299.3,137.8,299.5z"/>
		<path class="st33" d="M134.9,297.2l0.1-0.9c1.2,0.8,2.1,1.9,2.9,3.1l-0.6,0.6C135.7,299.8,135.1,298.7,134.9,297.2z"/>
		<path class="st32" d="M314.3,259.6c8.2-5.9,16.3-11.8,24.1-18.2c1.1-0.9,2.1-0.8,3.5-0.5c2,0.3,3.6,1.7,4.1,3.6
			c0.4,0.9,0.8,1.8,1.3,2.6c1.3,2.1,2.1,4.3,0.7,6.6c-0.1,0.1-0.1,0.2-0.1,0.3c0.7,3.5-2.1,5-4.2,6.7c-5.7,4.7-11.5,9.4-17.3,14
			c-8.7,6.8-17.4,13.6-26.7,19.6c-1.1,0.8-2.5,1.1-3.9,0.7c-1.5-0.2-2.7-1.2-3.3-2.5c-1.7-3-3.5-6-5.3-8.9c-0.8-1.2-0.9-2.7-0.4-4.1
			c0.8-2.8,2.6-4.2,4.8-5.5c6.1-3.7,12-7.5,18.1-11.4c0.2-0.2,0.4-0.4,0.6-0.5c0.2-0.1,0.3-0.1,0.5-0.2c0.5-0.2,0.7,0.1,0.9,0.5
			c0,0.3-0.1,0.5-0.1,0.8c-0.1,0.3-0.2,0.5-0.3,0.8c-0.3,0.8-0.6,1.7-0.7,2.6c-0.4,3,1,6,3.6,7.6c2.9,1.5,7.2,0.6,9.6-1.9
			s3-5.3,1.5-8.1c-1.5-2.9-4.8-4.4-8-3.8c-0.8,0.2-1.6,0.3-2.3,0.1C314.4,260.4,314.1,260.1,314.3,259.6z"/>
		<path class="st32" d="M311.4,262.6l-0.6-0.6c0.9-1.1,2.2-1.9,3.5-2.4l0.7,0.7C314.4,261.8,313,262.7,311.4,262.6z"/>
		<path class="st34" d="M310.2,262.1l-0.6,0.5C309.7,262.3,309.9,262.1,310.2,262.1z"/>
		<path class="st4" d="M250.9,163.7c-1.7,2.6-0.2,5.5-0.8,8.3c-1,4.8-3.8,9-7.9,11.8c-2.5,1.8-5.3,3.2-8.3,3.9
			c-1.2,0.3-1.6,0.9-1.4,2.1c0.2,1.5,0.3,2.9,0.3,4.4c0.1,0.6-0.3,1.2-0.9,1.3c0,0,0,0,0,0c-0.8,0.1-1.3-0.5-1.4-1.3
			s-0.1-1.8-0.2-2.7c-0.2-2.9-0.2-3-3.1-2.8c-4.2,0.3-8.3-0.3-12.2-1.8c-6.1-2.4-11-6.2-13.3-12.7c-0.4-0.9-1-1.7-1.6-2.4
			c-0.4-0.5-0.3-1.2,0.2-1.6c0.3-0.4,0.9-0.5,1.4-0.2c4.7,3.3,10.1,2.4,15.3,2c8.7-0.7,17.2-2.7,25.3-6c2.2-0.9,4.3-2,6.3-3.2
			C249.9,162.2,250.9,162.7,250.9,163.7z"/>
		<path class="st35" d="M162.9,149.1c0-1,0.3-1.9,0.7-2.8c0.8-2,3-3,5-2.3c0.1,0.1,0.3,0.1,0.4,0.2c1.5,0.6,2.8,1.6,3.7,2.9
			c1.2,1.6,2.2,3.3,3.4,4.9c0.6,0.8,1.1,1.7,1.7,2.4c2.6,3.2,5.4,3,7.5-0.6c1.6-2.8,1.9-6,2.5-9.1c0.1-0.8,0.3-1.6,0.6-2.3
			c0.6-0.9,1.3-0.8,1.8,0.2c0.3,0.6,0.4,1.3,0.3,2c-0.4,2.8-1.1,5.6-1.9,8.4c-0.6,1.8-1.7,3.4-3.1,4.6c-2.4,2.3-6.2,2.2-8.5-0.1
			c0,0-0.1-0.1-0.1-0.1c-1.4-1.4-2.6-3-3.6-4.7c-1-1.7-2.2-3.3-3.5-4.8c-0.9-0.8-1.9-1.8-3.1-1.1s-1.3,2.1-1.1,3.4
			c0.5,2.8,2.2,5.2,4.6,6.6c2.3,1.5,4.8,2.7,7.4,3.7c1.5,0.5,3.1,0.9,2.5,3.2c-0.2,0.9,0.9,1.7,1.3,2.6c0.2,0.6,0.5,1.1,0,1.6
			c-0.4,0.4-1,0.5-1.4,0.2c-2-1.2-4.5-1.9-5.4-4.4c-0.6-1.5-1.8-2.6-3.2-3.3c-2.5-1.1-4.8-2.9-6.4-5.1
			C163.6,153.5,162.9,151.4,162.9,149.1z"/>
		<path class="st5" d="M233,140.2c3.7,2,4.3,3,4.8,8.1c1.1-0.2,1.5-1.2,2.3-1.7c0.4-0.4,1.1-0.5,1.6-0.2c0.7,0.5,0.4,1.2,0.1,1.9
			c-0.2,0.2-0.4,0.5-0.6,0.7c-2.3,2.4-5,4.2-8,5.5c-2.9,1.3-6.3-0.1-7.6-3c-0.2-0.5-0.3-1-0.4-1.5c-0.8-4.4,1-7.6,5.4-9.7
			C231.3,139.6,232.3,139.6,233,140.2z"/>
		<path class="st36" d="M209.8,143.2c3.4,0.3,5.1,2.4,5.7,5.5c0.7,3.3,0,6.3-2.8,8.5c-1,0.7-2.2,1-3.4,0.9c-2.9-0.2-5.9-0.6-8.7,0.9
			c-0.5,0.3-1.1,0.2-1.4-0.3c0-0.1-0.1-0.1-0.1-0.2c-0.4-0.8,0.1-1.3,0.8-1.7c1.5-0.9,3.4-1,5.2-1.6c-1.1-3.6-1.1-7,1.2-10.2
			c0.1-0.5,0.4-1,0.9-1.2C207.9,143.3,208.9,143.1,209.8,143.2z"/>
		<path class="st37" d="M226.7,156.2c2.7-0.1,5.3,0.3,7.9,1.1c0.5,0.1,0.9,0.3,1.4,0.5c0.8,0.3,1.4,0.8,1.2,1.8s-1.2,1-2,0.7
			c-1.8-0.7-3.8-1.2-5.8-1.3c-6.8-0.5-13.4,0.4-19.3,4.1c-0.3,0.2-0.6,0.4-1,0.6c-0.4,0.3-1,0.2-1.3-0.2c-0.4-0.4-0.5-1.1-0.1-1.5
			c0,0,0,0,0.1-0.1c0.9-0.9,2-1.7,3.1-2.2C215.8,157.3,221.2,156.1,226.7,156.2z"/>
		<path class="st38" d="M204.9,144.3c-0.8-0.3-1.8-0.5-1.7-1.7s1.1-1.2,1.9-1.4c2.1-0.5,4.1-1.5,5.7-3l0.4-0.4
			c0.8-0.7,1.7-1.3,2.6-0.4s0.2,2-0.7,2.8c-1,0.9-2.1,1.8-3.3,2.4c-0.7,0.8-1.7,0.8-2.5,1.4C206.5,144.3,205.7,143.8,204.9,144.3z"
			/>
		<path class="st39" d="M230.5,139.7c-1.3-0.4-2.6-0.8-3.9-1.3c-0.7-0.3-1.1-1.1-0.8-1.8s1.1-1.1,1.8-0.8c2.4,1,5,1.1,7.5,0.3
			c0.7-0.3,1.5,0.1,1.8,0.8c0,0.1,0,0.1,0.1,0.2c0.2,0.8-0.2,1.6-1,1.8c0,0-0.1,0-0.1,0c-0.9,0.3-1.9,0.5-2.9,0.8
			C232.2,140,231.3,140,230.5,139.7z"/>
		<path class="st40" d="M242.4,156.8c1.4,0,4.1,2.8,3.9,4.2c0,0.6-0.4,1-0.9,1.1c-0.3,0-0.6-0.1-0.8-0.3c-1.1-1-2.2-2.2-3.2-3.4
			c-0.4-0.4-0.3-1.1,0.1-1.4C241.8,156.9,242.1,156.8,242.4,156.8z"/>
		<path class="st41" d="M222.5,152.8c0.4,0.1,1,0.2,1.6,0.4c0.5,0.1,0.8,0.7,0.7,1.2c0,0.5-0.4,1-0.9,1c-1.3,0-2.6,0.1-3.8,0.4
			c-0.5,0.1-1-0.2-1.2-0.7c-0.2-0.5,0-1,0.4-1.3C220.3,153.1,221.4,152.8,222.5,152.8z"/>
		<path class="st42" d="M203.1,167.6c-0.4,0.1-0.8-0.2-1-0.6c-0.3-1.5,0.3-3,1.5-3.8c0.8-0.3,1.5,0,1.5,0.8
			c-0.1,1.3-0.6,2.5-1.5,3.4C203.4,167.6,203.2,167.5,203.1,167.6z"/>
		<path d="M253.9,181.7c-1.7,0.2-3.3,0.2-5,0c0.6-0.5,1.3-0.4,1.9-0.4s1.4,0.2,1.6-0.8c0.1-0.4,0.5-0.7,0.9-0.7
			c0.2,0,0.3,0.1,0.4,0.2C254.5,180.6,254.1,181.2,253.9,181.7z"/>
		<path d="M242.9,187.7c-0.4,0.8-0.9,0.9-1.5,0.7c-0.4-0.1-0.6-0.5-0.5-0.9c0.1-0.5,0.5-0.9,1-0.8c0.1,0,0.2,0,0.3,0.1
			C242.6,186.9,242.9,187.2,242.9,187.7z"/>
		<path d="M211.1,194.4c-0.5,0.6-1.1,1-1.8,1.1c-0.1-0.2-0.2-0.3-0.3-0.5c-0.5-0.5-0.6-1,0-1.5s0.9-0.1,1.3,0.3
			C210.4,194,210.7,194.2,211.1,194.4z"/>
		<path d="M225.9,195.8c-0.1,0.5-0.5,0.9-1,0.8c-0.5-0.1-0.9-0.5-0.8-1c0-0.5,0.4-0.8,0.9-0.8c0,0,0.1,0,0.1,0
			C225.5,194.9,225.9,195.3,225.9,195.8C225.9,195.8,225.9,195.8,225.9,195.8z"/>
		<path class="st43" d="M236.8,193.1c0.9,0.1,1.2,0.4,1.2,0.9c0,0.5-0.4,0.8-0.8,0.8c0,0-0.1,0-0.1,0c-0.5,0-0.9-0.4-0.9-0.8
			c0,0,0,0,0-0.1C236.2,193.5,236.5,193.1,236.8,193.1z"/>
		<path d="M245.6,191.9c0.4,0,0.6,0.4,0.6,1c0,0.4-0.4,0.7-0.8,0.7c-0.5,0-0.9-0.4-1-0.9C244.3,192.1,244.8,191.8,245.6,191.9z"/>
		<path class="st44" d="M207.3,188.1c0,0.5-0.4,0.9-0.9,0.9c0,0,0,0,0,0c-0.4,0-0.7-0.3-0.8-0.7c-0.1-0.4,0.1-0.9,0.6-1
			c0,0,0.1,0,0.1,0C206.9,187.2,207.1,187.6,207.3,188.1z"/>
		<path class="st45" d="M248.8,186.9c-0.2,0.5-0.5,0.9-1,0.8c-0.5-0.1-0.8-0.5-0.7-1c0,0,0-0.1,0-0.1c0-0.4,0.4-0.7,0.7-0.6
			c0,0,0,0,0.1,0C248.4,186,248.8,186.4,248.8,186.9z"/>
		<path class="st46" d="M207.4,143.7c0.6-0.7,1.5-1.1,2.4-1.2v0.7c-0.6,0.7-1.6,0.6-2.4,1.1c-0.2-0.1-0.3-0.3-0.2-0.4
			S207.3,143.7,207.4,143.7z"/>
		<path d="M214.6,191.1c0.1,0.6-0.1,0.9-0.5,1c-0.4,0.2-0.9,0-1.1-0.5c0,0,0-0.1,0-0.1c-0.1-0.4,0.1-0.7,0.6-0.8
			S214.4,190.6,214.6,191.1z"/>
		<path class="st47" d="M207.4,143.7c0,0.2,0,0.4,0,0.6l-1.1,0.7c-0.3-0.6-0.9-0.6-1.4-0.8C205.7,143.9,206.5,143.7,207.4,143.7z"/>
		<path class="st48" d="M230.5,139.7h2.4c0,0.2,0,0.3,0,0.5h-2.4L230.5,139.7z"/>
		<path class="st49" d="M218.7,196.7c0.6-0.2,1.1-0.3,1.2,0.6c0,0.3-0.2,0.6-0.5,0.6c-0.1,0-0.2,0-0.2,0
			C218.4,197.7,218.5,197.2,218.7,196.7L218.7,196.7z"/>
		<path class="st38" d="M201.5,143.1c-0.1-0.5,0.2-1,0.7-1.1C202.1,142.5,201.9,142.9,201.5,143.1z"/>
		<path class="st38" d="M202.1,142.1c0-0.6,0.1-1,0.7-1.1C202.8,141.4,202.5,141.8,202.1,142.1z"/>
		<path class="st38" d="M202.8,140.9c0-0.3,0.2-0.6,0.5-0.7C203.3,140.5,203.1,140.9,202.8,140.9z"/>
		<path class="st0" d="M223.1,265.5c-2.5-0.4-4.8-0.8-7.2-1.1c-1.4-0.2-1.6-0.9-1.4-2c0-0.2,0.1-0.4,0.1-0.6
			c0.8-3.8,0.9-3.9,4.8-3.3c0.4,0.1,0.8,0.1,1.2,0.2c2.3,0.4,2.3,0.4,2.5,2.7C223.3,262.7,223.3,264.1,223.1,265.5z"/>
		<path class="st0" d="M222.5,226.6c-2.5,5.3-2,4.8-6.6,2.9c-0.6-0.2-1.1-0.5-1.6-0.7c-0.8-0.3-1.1-0.8-0.6-1.6
			c0.1-0.2,0.2-0.3,0.3-0.5c2-3.6,1-3.1,4.8-1.7C220,225.5,221.2,226.1,222.5,226.6z"/>
		<path class="st0" d="M233.8,222.7c0.8,0.6,0.7,1.4,1,2c0.6,1.5,0,2.4-1.4,2.9s-2.7,1.2-4,1.8c-0.9,0.4-1.7,0.9-2.3-0.6
			c-0.4-1.2-0.8-2.1,0.7-2.8C229.9,225,231.9,223.8,233.8,222.7z"/>
		<path class="st0" d="M222.7,256.1c-0.9-0.1-1.8-0.2-2.7-0.4c-0.9-0.3-2.7,0.4-2.7-1c0-1.6,0.6-3.1,1.7-4.3
			c0.7-0.7,2.1-0.2,3.1,0.1c0.9,0.3,0.7,1.1,0.7,1.7C223,253.5,222.9,254.8,222.7,256.1z"/>
		<path class="st0" d="M221.3,268.2l-4.1,4.9c-1.2-1.9-1.3-3.7-1.9-5.8L221.3,268.2z"/>
		<path class="st0" d="M224.4,235.3c-2.5-2.4-3.1-1.9,0.1-6C226,231.3,226.2,233.2,224.4,235.3z"/>
		<path class="st0" d="M220.1,247c0.7-2.1,1.6-4.1,2.6-6.1v6.4C221.8,247.7,220.8,247.5,220.1,247z"/>
		<path class="st1" d="M180.1,173.5l-0.3-0.3c0,0,0.1,0,0.1,0.1C180.1,173.4,180.1,173.5,180.1,173.5L180.1,173.5z"/>
		<path class="st16" d="M225.3,209.5c-0.8,0-1.4-0.2-1.5-1.1s0.4-1.1,1-1.2c1.9-0.4,3.9-0.8,5.8-1c4.1-0.4,8-1.4,11.2-4.1
			c0.6-0.5,1.4-1,2.1-0.2s0.3,1.7-0.5,2.3c-1.8,1.5-3.9,2.7-6.2,3.4C233.4,208.6,229.3,208.7,225.3,209.5z"/>
		<path class="st50" d="M249.9,455.2c-27.4,0.3-54.8,0.6-82.3,0.4c-8.5-0.1-17-0.8-25.5-1.5c-8.4-0.7-16.8-0.7-25.2,0.2
			c-1.3,0.1-2.6,0.2-3.8,0.2c-2.4,0-3-0.4-3.5-2.8c-0.3-1.6-0.6-3.3-0.7-5c-0.8-10.2-1.1-20.4-1.3-30.6c-0.1-4.8-0.3-9.5-0.6-14.2
			c-0.1-1.5,0.4-2.1,1.9-2.2c8.8-0.9,17.5-1.5,26.3-1.9c14.1-0.6,28.1-1,42.2-0.3c18.5,0.9,37,1.5,55.5,2c9.1,0.3,18.2,0.4,27.3,0.9
			c21.9,1.1,43.7,1.7,65.6,2.7c5.5,0.2,11.1,0.3,16.6,0.1c3.8-0.1,7.5,0,11.3,0.3c2.9,0.3,3,0.3,2.9,3.2c-0.2,5.8-0.5,11.7-0.8,17.5
			c-0.5,8.3-0.9,16.6-2.1,24.8c-0.5,3.3-0.8,3.6-4,4c-0.5,0.1-1,0.1-1.5,0.1c-22,0.5-43.9,1.4-65.9,1.3
			C271.4,454.5,260.7,455.2,249.9,455.2z"/>
		<path class="st0" d="M402.5,284.7c-0.2,1.1,0,2.6-1.5,2.8c-1.3,0.1-1.5-1.3-1.7-2.3c-0.1-0.3-0.2-0.6-0.2-0.9
			c-0.1-1.4,0.6-2.7,1.6-2.7c1.5,0,1.5,1.2,1.7,2.2C402.4,284.1,402.4,284.4,402.5,284.7z"/>
		<path class="st0" d="M30.8,267.7c-1.1,2.1-3,2.3-5,2.4c-1,0-1-0.7-1-1.4s0.3-1,1.1-0.7s1.3-0.3,1.9-0.5
			C28.8,267,30,267.1,30.8,267.7z"/>
		<path class="st0" d="M24.9,265.6v-3.4c0-1.3,0.9-1.6,2-1.6c0.9,0,1.3,0.5,1,1.4C27.3,263.5,26.3,264.8,24.9,265.6z"/>
		<path class="st0" d="M42.7,284.9c-0.1,0.3-0.1,0.9-0.3,1.4c-0.2,0.8-0.8,1.4-1.7,1.5c-0.9,0-1.3-0.7-1.6-1.4
			c-0.4-1.3-0.6-2.7-0.4-4c0-0.7,0.5-1.3,1.2-1.4c0.7-0.2,1.4,0.1,1.8,0.7C42.4,282.6,42.7,283.7,42.7,284.9z"/>
		<path class="st0" d="M45.5,263.4c0.6,0.4,1.2,0.7,0.8,1.6c-0.2,0.2-0.5,0.3-0.8,0.2C44.9,264.7,45.2,264.1,45.5,263.4z"/>
		<path class="st2" d="M134.9,297.2l2.4,2.8c0.6,1.7,0.6,3.5,0.2,5.2c-1.8,6.5-6.6,7.4-11.7,5c-3.1-1.5-5.1-4.6-5-8.1
			c0-3.1,2.7-5.9,6.2-7.1c1.7-0.6,3.6-0.4,5.1,0.5L134.9,297.2z"/>
		<path class="st2" d="M311.4,262.6l3.6-2.3c2.6-0.9,5.1-1.3,7.7,0.3c5.3,3.3,5.5,9.8,0.3,13.5c-2.1,1.5-4.8,2.1-7.4,1.6
			c-4.2-0.7-6.9-5.3-5.7-9.8c0.3-0.8,0.6-1.7,0.9-2.5C311,263,311.2,262.8,311.4,262.6L311.4,262.6z"/>
		<path class="st34" d="M311.4,262.6l-0.5,0.6L311.4,262.6z"/>
		<path class="st1" d="M205.1,174.5c3.9,0.5,7.8,0.6,11.7,0.3c2.9-0.3,5.9-0.6,8.8-1.2c2.4-0.5,2.5-0.4,3.5,1.9c0.6,1.5,0.9,3,1,4.6
			c0.1,0.8,0.4,1.7,1.4,1.6s1-1.1,1-1.8c-0.1-2.5-0.8-5-2-7.2c5.8-1.4,11.4-3.4,16.7-5.9c0.9,2.4,0.4,4.4-0.2,6.5
			c-0.2,0.8-0.9,0.8-1.6,0.9c-4.4,0.3-7,2.7-7.2,7.1c-0.1,1.9-0.8,2.5-2.4,3.1c-5.6,2.2-11.7,2.5-17.5,1c-1.4-0.2-2.5-1.1-3-2.5
			c-0.8-2.4-3.1-3.9-5.6-3.5c-1.8,0.2-2.5-0.6-3.4-1.7C205.7,176.8,205.2,175.7,205.1,174.5z"/>
		<path class="st0" d="M231.8,152.1c0.3-2.6-1.5-4.9-4-5.4c0.1-0.8,0.4-1.6,0.9-2.2c0.9-1.1,2-2,3.5-1.6c1.5,0.4,2.5,1.8,2.5,3.3
			C235.2,148.6,234,151,231.8,152.1z"/>
		<path class="st0" d="M209.9,155.6c-2.3-0.8-2.7-2.4-2.9-4.1c-0.3-1.7,0.3-3.4,1.4-4.7c0.8-0.9,2.2-1.1,3.1-0.3
			c0.3,0.2,0.5,0.5,0.6,0.8c0.4,0.5,0.5,1-0.1,1.5C210.1,150.5,209.7,152.8,209.9,155.6z"/>
		<path class="st0" d="M127.1,428.1c-0.8,0.1-1,0.8-1.3,1.3c-1.8,2.9-2.8,2.9-5.2,0.5c-0.8-0.9-1.6-1.7-2.5-2.6
			c-0.2-0.1-0.3-0.2-0.5-0.3c-0.9,0.4-0.5,1.2-0.5,1.8c0,2.8,0,5.5,0,8.3c0,0.7,0,1.4-0.2,2.1c-0.1,0.7-0.8,1.2-1.5,1.1
			c-0.6,0-1.2-0.4-1.3-1c-0.2-0.8-0.4-1.5-0.4-2.3c0.4-4,0.2-7.9,0.3-11.9c0-1.2-0.2-2.5,1.3-3c1.2-0.4,2.4,0,3.3,0.9
			c1.5,1.3,2.9,2.6,4.3,4c1.3-0.7,1.5-1.9,2.2-2.9c0.4-0.6,0.9-1.3,1.3-2c0.7-0.9,1.5-1.6,2.7-1.3c1.1,0.3,1.8,1.3,1.8,2.5
			c0.1,2.8,0.4,5.5,0.4,8.3c0,2.5-0.2,4.9-0.3,7.4v0.6c-0.1,1.1-0.5,2-1.8,2c-1.2,0-1.7-0.9-1.7-2c-0.1-2.6-0.1-5.1,0.2-7.7
			C127.8,430.6,127.6,429.3,127.1,428.1z"/>
		<path class="st0" d="M148.1,430v4.7c0,0.9,0,1.8-0.1,2.7c-0.1,1.1-0.5,2.1-1.7,2.1c-1.4,0.1-1.7-1.1-1.8-2.2c0-0.1,0-0.2,0-0.3
			c0.6-4.6,0-9.3-0.2-13.9c0-0.8,0-1.6,0.8-2.1c1-0.5,1.7,0.1,2.4,0.7c2.1,2.1,3.3,4.7,4.8,7.1c0.4,1.1,1.2,2,2.1,2.6
			c0-2.6,0-4.9,0-7.1c0-1,0-2,0.2-3c0.1-0.9,0.9-1.5,1.8-1.5c0,0,0.1,0,0.1,0c0.8,0,1.5,0.7,1.5,1.5c0,0,0,0,0,0
			c-0.1,4.9,0.4,9.9-0.6,14.8c-0.1,1.1-0.9,2.1-2.1,2.3c-1.3,0.2-2-0.6-2.6-1.6c-0.7-1.2-1.3-2.4-1.9-3.7S149.7,430.8,148.1,430z"/>
		<path class="st0" d="M255,429.2c-0.2-2.9,0.2-5.4-0.5-7.8c-0.4-1.3,0.3-2.6,1.6-3c0,0,0.1,0,0.1,0c1.7-0.7,3.7-0.9,5.5-0.6
			c2.6,0.8,4,3.6,3.2,6.1c0,0.1,0,0.1-0.1,0.2c-1.7,2.7-0.7,4.6,1.2,6.6c1.2,1.3,1.8,3.2,1.5,4.9c0,0.7-0.5,1.3-1.2,1.5
			c-0.8,0.2-1.6-0.2-1.9-1c-0.3-0.7-0.4-1.5-0.6-2.3c-0.8-2.1-2.1-3.2-3.8-3.2c-1,0-1.5,0.4-1.5,1.4c0,1.1,0,2.2-0.1,3.3
			c-0.1,0.9-0.6,1.8-1.7,1.7c-0.9,0-1.7-0.8-1.6-1.8c0,0,0,0,0,0C254.9,433.1,255,430.9,255,429.2z"/>
		<path class="st0" d="M347.5,428.8c0.2-2.1,0.3-4.2,0.2-6.3c0-0.7,0-1.4,0.1-2.1c0.1-0.6,0.7-1,1.3-1c0.6-0.1,1.2,0.2,1.5,0.8
			c0.4,0.9,0.6,1.9,0.5,2.9c0.1,3.5,0,6.9-0.3,10.4c-0.1,0.8-0.2,1.6-1,2c-0.9,0.4-1.9,0.1-2.4-0.7c-1.1-1.3-2.1-2.6-3.2-3.9
			c-0.6-1-1.4-1.7-2.4-2.2c0,1.5,0,2.9,0,4.2s0,2.6-1.7,2.6s-1.8-1.4-1.8-2.6c-0.1-1.8,0-3.6,0-5.3c0-1.5,0.2-2.9-0.4-4.4
			c-0.5-1-0.1-2.2,0.9-2.7c0.1,0,0.1,0,0.2-0.1c1.2-0.6,1.8,0.2,2.4,1.1c1,1.5,2.2,3.1,3.3,4.5C345.3,427.2,346.3,428.1,347.5,428.8
			z"/>
		<path class="st0" d="M290.1,432.6c0.8-3.8,0.2-7.7,1-11.5c0.4-2.2,0.7-2.3,3-2.2c1.8,0,3.5,0.9,4.5,2.4c2.6,3.5,3.5,7.7,4.4,11.8
			c0.3,0.9-0.2,1.9-1.1,2.1c-0.1,0-0.2,0.1-0.3,0.1c-1,0.2-1.5-0.7-1.9-1.5c-1.1-2.5-1.2-2.5-3.5-2.3c-1.6,0.1-2.6,0.7-2.8,2.4
			c-0.1,0.4-0.2,0.8-0.3,1.2c-0.1,0.7-0.8,1.2-1.5,1.1c-0.7,0-1.4-0.5-1.5-1.2C290,434.2,290,433.4,290.1,432.6z"/>
		<path class="st0" d="M132.5,429.1c0-1.6,0.4-3.1,1-4.6c1.5-3,4.1-3.5,6.5-1.3c3.2,3,4.2,9.8,1.1,13.9c-2.3,3.1-6.2,2.5-7.7-1.1
			C132.7,433.8,132.4,431.4,132.5,429.1z"/>
		<path class="st0" d="M167,434.4c1.3,0,2.7-0.4,3.1,1.4c0.2,1.3-0.7,1.9-2.9,2.1l-2.4,0.2c-2.6,0.3-3.7-0.5-4.1-3.1
			c-0.2-1-0.2-2-0.1-3c0.3-2.7,0.5-5.3,0.5-8c0-2.4,2-4.4,4.4-4.3c0.9,0,1.7,0.3,2.5,0.8c0.7,0.3,1,1,0.9,1.7
			c-0.1,0.8-0.8,1.5-1.7,1.4c-0.1,0-0.2,0-0.3-0.1c-1.7-0.3-2.3,0.4-2.3,2.1c0,2.2,0.2,2.5,2.5,2.7c0.8,0,1.6,0,2.4,0.1
			c1,0.1,1.8,0.5,1.8,1.6c0.1,1.3-0.9,1.8-1.9,1.8s-2.3-0.3-3.5-0.3s-1.7,0.5-1.6,1.8c0.1,0.7,0.3,1.1,1.1,1.2
			S166.4,434.4,167,434.4z"/>
		<path class="st0" d="M325.1,427c-0.1-1.3,0.1-2.6,0.4-3.9c1-3.7,4.3-4.9,7.4-2.6c3.3,2.5,3.7,9.7,0.8,12.6s-6.6,1.9-8-1.8
			C325.1,429.9,324.9,428.4,325.1,427z"/>
		<path class="st0" d="M242.9,427.2c0.1-1.8,0.1-3.6,0.3-5.3c0.3-2.8,4.4-4.8,6.8-3.4c0.7,0.4,0.9,1.2,0.5,1.9
			c-0.1,0.2-0.3,0.4-0.5,0.5c-0.5,0.3-1.1,0.4-1.7,0.5c-1.4,0.3-1.9,1.1-1.9,2.5c0,2.3,0,2.3,2.4,2.2c0.5,0,1,0,1.5,0.1
			c0.7,0.1,1.3,0.6,1.4,1.4c0.1,0.8-0.5,1.2-1.1,1.5c-0.8,0.4-1.7,0.5-2.6,0.5c-1.4,0.1-1.5,1-1.5,2c0.1,1.3,0.9,1.4,1.9,1.3
			c0.8-0.1,1.6-0.1,2.3-0.1c0.8,0,1.4,0.6,1.4,1.4c0.1,0.7-0.3,1.4-1,1.7c-1.9,0.8-4.1,0.9-6.1,0.3c-1.2-0.5-2-1.8-1.9-3.1
			c-0.1-2,0-4,0-5.9L242.9,427.2z"/>
		<path class="st0" d="M196.5,427.9c0-1.2,0.1-2.4,0-3.5c-0.2-2.6,0.5-3.9,2.7-5c2.7-1.2,5.8-1.4,8.7-0.5c0.8,0.2,1.4,0.7,1.8,1.5
			c0.4,0.7,0.2,1.6-0.4,2.2c-0.5,0.5-1.3,0.6-1.9,0.1c-1.7-1.3-3.6-1.1-5.4-0.7s-2.5,1.2-2.2,3.2c0.2,1.3,0.6,2.1,2.1,1.6
			c0.8-0.2,1.6-0.3,2.4-0.1c0.6,0.2,1,0.7,1.1,1.3c0.1,0.6-0.2,1.2-0.8,1.5c-0.7,0.5-1.4,0.7-2.3,0.6c-1.8-0.1-2.2,0.8-2,2.4
			c0,0.3,0,0.6,0,0.9c0,1.2,0.1,2.6-1.5,2.7s-1.6-1.5-1.9-2.6c-0.1-0.7-0.2-1.4-0.1-2.1c0-1.2,0-2.4,0-3.6L196.5,427.9z"/>
		<path class="st0" d="M281.3,436.1h-0.9c-1.2,0-2.3-0.2-2.3-1.6s1.1-1.7,2.2-1.9c0.9-0.1,1.8-0.1,2.7-0.2c0.5,0,1-0.3,1.1-0.8
			c0.2-0.6-0.1-1.2-0.6-1.5c-0.9-0.4-1.8-0.8-2.7-1.1c-3.1-1.2-3.9-3.1-2.4-6c0.8-1.9,2.4-3.2,4.4-3.7c1.4-0.4,2.8,0.2,3.6,1.4
			c0.5,0.7,0.5,1.6,0,2.2c-0.4,0.7-1.3,0.9-2,0.5c0,0-0.1,0-0.1-0.1c-0.5-0.5-1.4-0.6-2,0c0,0-0.1,0.1-0.1,0.1
			c-1.3,1.3-1.2,2,0.6,2.7c0.9,0.3,1.9,0.7,2.7,1.2c1.9,1.2,2.8,3.5,2.1,5.7c-0.6,1.8-2.3,3.1-4.3,3.1
			C282.6,436.1,281.9,436.1,281.3,436.1L281.3,436.1z"/>
		<path class="st0" d="M177.9,425.2c0.5-0.6,0.9-1.4,1-2.2c0.2-1.1,0.7-2.1,2-2.1c1,0,1.6,1.2,1.2,2.8c-0.7,3.5-1.5,6.9-2.3,10.4
			c-0.2,1-0.3,1.9-0.5,2.9c-0.4,2.2-1.1,3.1-2.2,2.9s-1.5-1.3-1.3-3.5c0.1-1.3,0.4-2.5,0.7-3.8c0.4-1.2,0.2-2.6-0.6-3.6
			c-1.1-1.7-1.7-3.5-3.4-4.8c-0.8-0.6-1.2-1.4-0.6-2.3s1.8-1,2.9-0.2S176.9,424.1,177.9,425.2z"/>
		<path class="st0" d="M231.8,429.4c0.1-1.3,0.4-3,0.4-4.8c0-2-0.3-2.2-2.3-1.8c-0.3,0.1-0.6,0.2-0.9,0.2c-0.9,0.2-1.9,0.3-2.3-0.8
			s0.3-1.9,1.3-2.3c0.4-0.2,0.9-0.4,1.4-0.4c2.7-0.4,5.5-0.8,8.2-1.1c0.5,0,1,0,1.5,0c0.8,0,1.5,0.6,1.6,1.5
			c0.1,0.7-0.4,1.4-1.1,1.6c-0.5,0.2-0.9,0.3-1.4,0.4c-2.7,0.5-2.7,0.5-2.8,3.3c0,2.3,0,4.5,0,6.8c0,0.6,0,1.2,0,1.8
			c0,0.8-0.3,1.6-1.3,1.7s-1.6-0.5-1.9-1.5C231.7,432.7,231.9,431.3,231.8,429.4z"/>
		<path class="st0" d="M307.9,426.8c0-0.6,0.2-1.9,0.3-3.2c0-1.4-0.3-1.7-1.8-1.4c-0.4,0.1-0.8,0.3-1.1,0.3
			c-0.7,0.2-1.4-0.2-1.7-0.9c-0.3-0.6-0.2-1.4,0.4-1.9c0.4-0.4,1-0.7,1.5-0.8c2.7-0.7,5.4-1.3,8.1-1.6c1-0.3,2,0.3,2.3,1.3
			c0,0,0,0.1,0,0.1c0.3,1.3-0.7,1.7-1.7,2c-0.3,0.1-0.6,0.1-0.9,0.1c-1.5,0-2,0.8-2,2.3c0.1,2.4,0,4.7,0,7.1c0,0.7,0,1.4,0,2.1
			c0,1.2-0.3,2.3-1.7,2.3s-1.7-1.2-1.7-2.4C307.9,430.6,307.9,429,307.9,426.8z"/>
		<path class="st0" d="M223.2,434.6c1.1-0.1,1.9-0.3,2.8-0.3c0.9-0.1,1.8,0.6,1.9,1.5c0.1,0.8-0.4,1.6-1.3,1.8
			c-1.5,0.4-3.1,0.7-4.6,0.9c-1.7,0.1-2.6-0.7-2.7-2.5c-0.1-1.5-0.1-3,0.1-4.5c0.3-3,0.5-6.1,0.4-9.2c0-0.5,0-1,0.1-1.5
			c0.2-1,0.8-2,2-1.7c1,0.2,1.6,1.2,1.4,2.2c0,0,0,0.1,0,0.1c-0.5,3.3-0.3,6.7-0.4,10.1C222.7,432.6,222.8,433.7,223.2,434.6z"/>
		<path class="st0" d="M211.1,428v-5.9c-0.1-0.7,0-1.4,0.3-2c0.3-0.7,1.1-1.1,1.9-0.8c0.3,0.1,0.6,0.4,0.7,0.6
			c0.4,0.7,0.6,1.5,0.5,2.3c0,4,0,7.9-0.1,11.9c0,0.2,0,0.4,0,0.6c-0.2,1.1-0.5,2.2-1.9,2.1c-1.2-0.1-1.5-1.1-1.5-2.2
			c0-1.4,0.1-2.8,0.1-4.1C211.1,429.6,211.1,428.8,211.1,428L211.1,428z"/>
		<path class="st0" d="M274.1,429.1c0,2,0,3.9,0,5.9c0,1-0.3,2.1-1.5,2.1c-1.5,0.1-1.7-1.1-1.7-2.3c0.2-4.7-0.5-9.4-0.6-14.1
			c0-0.5,0-1,0-1.5c0-0.7,0.5-1.3,1.2-1.4c0.8-0.1,1.5,0.4,1.7,1.1c0,0,0,0.1,0,0.1c0.3,1.4,0.5,2.9,0.6,4.4c0.1,1.9,0,3.7,0,5.6
			L274.1,429.1z"/>
		<path class="st0" d="M318.5,425.8c0-2,0-4,0-5.9c0-1.1,0.3-2,1.5-2.1c1.1-0.1,1.5,0.8,1.7,1.7c0.2,0.7,0.2,1.3,0.3,2
			c0,3.1,0,6.1,0,9.2c0,0.9-0.1,1.8-0.5,2.6c-0.2,0.7-0.9,1.1-1.6,1c-0.7-0.1-1.3-0.6-1.4-1.4c-0.1-0.7-0.1-1.4-0.1-2.1
			C318.4,429.1,318.4,427.5,318.5,425.8L318.5,425.8z"/>
		<path class="st51" d="M258,426.8v-4.4c0-1.3,0.8-1.7,1.9-1.6c0.9-0.1,1.6,0.6,1.7,1.5c0,0.2,0,0.3-0.1,0.5
			c-0.2,1.8-1.2,3.4-2.8,4.4L258,426.8z"/>
		<path class="st52" d="M294,425.5c0.4-0.8-0.5-2.5,0.7-2.7c1.4-0.3,1.8,1.5,2.4,2.5c0.1,0.1,0.1,0.2,0.1,0.3
			c0.3,0.8,1.1,1.7,0.2,2.4c-0.8,0.5-1.9,0.6-2.8,0.2C293.2,427.7,294.1,426.5,294,425.5z"/>
		<path class="st53" d="M136,429.7c0-0.6,0.1-1.6,0.2-2.6c0.1-0.5,0.3-1,0.9-1.1s0.9,0.3,1.2,0.7c1.5,2.4,1.7,5.4,0.4,7.9
			c-0.3,0.4-0.6,0.9-1.1,0.8s-0.8-0.5-1-1C135.9,433.1,136.1,431.5,136,429.7z"/>
		<path class="st54" d="M328.4,427.1c0.1-0.9,0.1-1.5,0.2-2.2s0.3-1.4,1.2-1.5c0.6-0.1,1.2,0.3,1.5,0.8c1.1,1.7,1.3,3.8,0.5,5.7
			c-0.3,0.8-0.9,1.4-1.8,1.3c-0.7-0.2-1.2-0.8-1.2-1.5C328.5,428.6,328.5,427.7,328.4,427.1z"/>
	</g>
</g>
</svg>
