<?xml version="1.0" encoding="utf-8"?>
<!-- Generator: Adobe Illustrator 23.0.2, SVG Export Plug-In . SVG Version: 6.00 Build 0)  -->
<svg version="1.1" id="Layer_1" xmlns="http://www.w3.org/2000/svg" xmlns:xlink="http://www.w3.org/1999/xlink" x="0px" y="0px"
	 viewBox="0 0 427.6 492.9" style="enable-background:new 0 0 427.6 492.9;" xml:space="preserve">
<style type="text/css">
	.st0{fill:#FFD574;}
	.st1{fill:#E1F0FF;}
	.st2{fill:#020202;}
	.st3{fill:#131313;}
	.st4{fill:#030201;}
	.st5{fill:#050403;}
	.st6{fill:#060503;}
	.st7{fill:#070606;}
	.st8{fill:#050505;}
	.st9{fill:#080705;}
	.st10{fill:#0E0C0C;}
	.st11{fill:#0D0B0B;}
	.st12{fill:#0C0C0C;}
	.st13{fill:#0B0909;}
	.st14{fill:#020201;}
	.st15{fill:#0D0906;}
	.st16{fill:#0F0B07;}
	.st17{fill:#110D09;}
	.st18{fill:#0F0D08;}
	.st19{fill:#425048;}
	.st20{fill:#070604;}
	.st21{fill:#010100;}
	.st22{fill:#060403;}
	.st23{fill:#050402;}
	.st24{fill:#060504;}
	.st25{fill:#090604;}
	.st26{fill:#0A0805;}
	.st27{fill:#0C0906;}
	.st28{fill:#1A170E;}
	.st29{fill:#342C1C;}
	.st30{fill:#0F0C08;}
	.st31{fill:#190E09;}
	.st32{fill:#FFFFFF;}
	.st33{fill:#FEFEFE;}
	.st34{fill:#596464;}
	.st35{fill:#D1D7C5;}
	.st36{fill:#D6E1E1;}
	.st37{fill:#C5C179;}
	.st38{fill:#040404;}
	.st39{fill:#060505;}
	.st40{fill:#0E0D0D;}
	.st41{fill:#100B07;}
	.st42{fill:#120D09;}
	.st43{fill:#030202;}
	.st44{fill:#070505;}
	.st45{fill:#050404;}
	.st46{fill:#090707;}
	.st47{fill:#020101;}
	.st48{fill:#51B78B;}
	.st49{fill:#040303;}
	.st50{fill:#0F0C0C;}
	.st51{fill:#110C0C;}
	.st52{fill:#130F0F;}
	.st53{fill:#141010;}
	.st54{fill:#141111;}
	.st55{fill:#171111;}
	.st56{fill:#68E6B3;}
	.st57{fill:#120E0E;}
	.st58{fill:#140E0E;}
	.st59{fill:#100D0D;}
	.st60{fill:#171414;}
	.st61{fill:#161111;}
	.st62{fill:#38A1FC;}
</style>
<title>Asset 220</title>
<g>
	<g id="Layer_1-2">
		<path class="st0" d="M100.3,436.9l1.3-0.5c1.1-0.4,1.2-1,0.8-2.1c-1.3-3.1-2.2-6.2-2.8-9.5c-0.5-3.2-0.5-6.4-0.3-9.6
			c1.6-0.1,2.5,1,3.6,1.9c6.9,5.4,13.6,11.2,21.7,14.8c5.6,2.5,11.4,4.3,17.7,3.3c0.4,0,0.7-0.1,1.1-0.3c0.1-0.1,0.1-0.2,0.2-0.2
			c-0.9-0.4-2-0.5-3-0.3c-6.9,0.4-13.2-1.6-19-5c-7.6-4.3-14.4-9.7-21.1-15.3c-0.5-0.4-0.9-0.9-1.2-1.5c-6.1-7.5-10-16.6-11.3-26.2
			c-0.9-6-0.6-12.1,0.8-18c11.2-0.3,22.5-0.5,33.7-0.4c2.5,0,4.9,0.5,7.4,0.6c16.2,0.3,31.9-2.9,47.6-6.7
			c9.6-2.3,18.9-5.9,27.5-10.8c7.2-4.1,13.7-9.4,19.2-15.7c0.5-0.6,0.8-1.5,1.8-1.5c0.4,6.4,2.3,12.5,4.1,18.6
			c1.9,6.9,3.4,13.9,4.5,21c1.4,9.9,2,19.8,1.6,29.8c-0.1,1.8,0.7,3.4,2.2,4.4c2.6,1.9,5.4,3.5,8.3,4.9c-0.8,7.2-2.4,14.2-4.7,21
			c-0.2,1.1-0.7,2.1-1.5,2.9c-2,0.7-3.3-0.9-4.7-1.7c-3.5-1.9-3.6-2-5.6,1.2c-6.5,10.4-16.2,16.1-27.7,19.1
			c-4.8,1.3-9.7,2.3-14.5,3.7c-6.9,2.1-12.6,6.4-18.1,10.9c-2.6,2.1-5.2,4.4-8.7,5.2c-3.1,0.7-4.4-0.2-5-3.4c2.5-2.8,6-4,8.7-6.4
			c-2.7,1.1-5.3,2.5-7.6,4.3c-1,0.7-1.9,1.8-3.4,1.6c-1-0.5-1.6-1.7-1.4-2.8c0.8-2,2.8-2.5,4.3-3.7c0.8-0.7,2-0.9,2.7-2.1
			c-3.5,1.2-5.9,3.7-8.8,5.4c-3-0.6-4-2.8-2.6-5.4c1.3-2.5,3.6-4,5.9-5.3c2.8-1.6,5.8-2.9,8.8-3.9c3.9-1.3,3.9-1.3,1.6-4.9
			c-1.2-1.7-2.2-3.6-3-5.6c-0.2-0.7-0.3-1.3-0.5-2c-0.2-0.9-0.3-1.9-0.6-2.8c-2.2-24.6,7.6-43.5,28.3-57.3c-1.1-0.1-2.2,0.3-3,1.1
			c-16,11-24.8,26.1-26.4,45.5c-0.3,3.7,0.1,7.4,0.1,11c0,0.6-0.2,1.2-0.6,1.7c-1.6,1-3.5,1.4-5.3,1.1c-17.6-2.4-32.5,3.7-45.8,14.5
			c-3.3,2.6-7.3,3.4-10.8,5.5c-1.6,0.9-3-0.3-3.8-1.8c-0.4-1.7,1-2.4,1.9-3.4s2.3-1.5,3.3-3.1c-3.3,1.3-4.6,4.5-7.4,5.7
			c-1.6-0.6-2.5-2.3-2.3-4c1.8-2,3.8-3.6,5.6-5.6c-2.6,0.9-3.8,3.9-6.7,4.5c-2.2-1.5-1.6-3.5-0.6-5.4c2.7-5.2,7.2-8.1,12.4-10.3
			C99.5,437.2,99.9,437.1,100.3,436.9z"/>
		<path class="st1" d="M100.3,436.9c-0.8,1.2-2.3,1.5-3.4,2.2c-4,2.3-7.8,4.9-9.9,9.3c-0.8,1.6-0.9,3.2,0.5,4.5
			c0.7,0.2,1.2,0.6,1.1,1.4c0.5,1.3,0.7,2.8,2.2,3.5c0.8-0.2,1.6,0,2.2,0.6c0.4,0.6,0.9,1.1,1.5,1.6c0.6,0.6,1.6,0.7,2.3,0.2
			c2.1-1.4,4.4-2.4,6.8-3c1.3-0.3,2.3-1.5,3.4-2.4c9.3-8.1,20.3-12.6,32.2-15c3.8-0.6,7.6-0.6,11.3,0c2.7,0.3,5.5,0.2,8.2-0.2
			c1-0.6,1.9-0.7,2.3,0.7c0.2,0.8,0.5,1.5,0.8,2.2c1.3,2.7,2.9,5.4,4.7,7.8c1.2,1.7,1.1,2-0.9,2.7c-3.9,1.1-7.7,2.7-11.2,4.6
			c-2.2,1.2-4.3,2.6-5.6,4.8c-1.4,2.4-0.9,3.9,1.9,5c0.8-0.5,1.8-0.2,2.3,0.5c0,0,0,0,0,0.1c-0.1,1.1,0.4,2.2,1.3,2.8
			c0.7,0.2,1.8-0.4,2.1,0.8c1.3,3.1,2,3.5,5.3,2.5c3-0.9,5.3-3,7.6-4.9c5.2-4.2,10.6-8.3,17-10.6c1.7-0.6,3.5-1.2,5.3-1.6
			c7.3-1.4,14.5-3.6,21.3-6.5c5.5-2.4,10.3-6.3,13.8-11.2c1.5-2.1,3.3-4,4.4-6.4c0.4-0.9,1-0.9,1.8-0.5c2.4,1.3,4.9,2.6,7.3,3.9
			c0.7-0.2,1.4,0,2,0.3c6.4,3.1,13,5.6,19.6,8.1c0.7,0.2,1.3,0.4,2,0.6c8.8,3.3,17.8,5.9,27,8c0.9,0.1,1.7,0.5,2.6,0.6
			c10.9,2.6,22,3.5,33.1,4.3c0.5,0,1,0,1.5,0c7.9-0.2,15.8-0.9,23.6-2.3c0.8-0.1,1.5-0.2,2.2-0.4c5.8-1.2,11.5-2.8,17.1-4.7
			c6.3-1.8,12.4-4.2,17.6-8.4c3.4-2.7,6-6.3,7.5-10.4c1.2-3,0.2-5.8-1.1-8.5c-0.4-0.8-1.5-1.5-0.8-2.7c6.9,0,13.8,1.3,20.2,4
			c4.9,1.9,9.2,5.3,12.3,9.6c1.4,2.1,1.7,4.8,0.9,7.1c-1.1,3.5-3,6.8-5.6,9.4c-5.7,6.3-13.1,10-20.9,13c-10.2,3.9-20.9,6.7-31.7,8.4
			c-6.5,1.1-13,2.1-19.6,2.8c-4.4,0.5-8.8,0.7-13.2,1.1c-4.9,0.5-9.8,0-14.6,0.5c-5.3,0.5-10.5,0-15.8,0.6c-5,0.5-10,0.1-14.9,0.5
			c-6.5,0.5-13,0.7-19.6,1.1c-5.2,0.4-10.5,0.6-15.7,1.1c-5.8,0.5-11.5,1.1-17.2,1.9s-11.4,1.8-17.2,2.5c-4.6,0.6-9,1.6-13.6,2.3
			s-8.9,1.4-13.3,2.1c-4.9,0.7-9.8,1.4-14.7,2.1c-2,0.3-4,0.4-6,0.5c-3.5,0.2-7,0.5-10.5,0.8c-11.5,0.8-23.1,0.5-34.6,0.4
			c-3.8,0-7.7-0.6-11.5-1c-7.2-0.8-14.4-2.1-21.4-3.9c-10.9-2.7-21.6-6.3-31.9-10.7c-5.6-2.4-11-5.1-15.7-9.2
			c-2.3-1.8-3.9-4.5-4.6-7.4c-0.5-3,0.5-6,2.6-8.1c3.1-3.3,7-5.8,11.2-7.4c6.9-2.9,14.2-4.4,21.6-5.7c5.8-1,11.6-1.7,17.5-2.2
			C97.6,437.3,98.9,436.7,100.3,436.9z"/>
		<path class="st0" d="M96.5,274.9c0-1.4-0.5-2.7-1.4-3.8c-1.1-1.3-2-2.7-2.9-4c-3.6-4.9-8.7-7.9-13.8-10.9c-1-0.6-2.1-1.1-3.2-1.6
			c-0.9-0.4-1.6-1-1.4-2.1c0.1-0.9,0.8-1.7,1.8-1.9c1.9-0.6,4-0.8,5.8-2.4c-2.7-1.2-5.2-2.3-7.1-4.2c-0.6-0.6-1.2-0.2-1.8,0
			c-1.6,0.6-3.2,0.9-4.9,0.9c-1.6,0.1-3.1-0.9-3.6-2.5c-2.1-5.3-2.8-11.1-2-16.8c0.2-1.4,0.4-2.7,0.6-4.1
			c1.1-7.8,5.4-13.4,11.5-17.8c4.1-2.9,8.7-4.9,13.2-7c7.6-3.5,15.6-6.3,23-10.3c3.9-2.1,7.4-4.9,10.3-8.3c1.8-2.1,3.6-4.2,6.2-5.5
			c2.8-1.4,6.2-1.4,9,0.1c1.4,0.6,2.5,1.7,3,3.1c0.3,1.1,1.3,1.9,2.4,1.9c9.5,0.8,18.6,4.1,26.4,9.7c0.9,0.8,2.2,1,3.3,0.4
			c2.3-1,4.8-1.2,7.3-0.7c6.5,1.3,10.3,7.9,7.4,13.9c-0.7,1.3-0.6,3,0.4,4.2c4.7,7.4,7.8,15.8,8.8,24.5c-4.2,1.8-6.3,5.9-9.5,8.7
			c-6,5.3-12.4,10.2-19,14.8c-14.4,10-29.1,19.7-44.7,27.7c-0.5,0.3-1,0.5-1.5,0.7c-3.3,1.8-6.3,2-9.2-1.1c-2-2.2-4.3-4.1-6.7-5.7
			c-2-1.3-3.8-2.3-6-0.4C97.6,275,97,275.1,96.5,274.9z"/>
		<path d="M96.5,274.9c0.5-0.3,0.9-0.6,1.4-0.9c2.7-1.9,3-1.9,5.9,0c2.4,1.7,4.7,3.5,6.8,5.6c3.9,3.9,4.1,3.8,9.1,1.6
			c6.3-2.9,12.2-6.6,18.1-10c11.6-6.8,22.6-14.6,33.6-22.4c6.9-4.8,13.4-10.1,18.9-16.6c1.1-1.4,2.4-2.6,4.4-2.3
			c0.3,0.3,0.7,0.5,0.8,0.8c1.8,5.7,5,10.9,6.7,16.6c2.9,9.9,6.9,19.4,10.8,28.9c5.4,12.7,9.4,26,11.9,39.6
			c1.2,5.9,1.6,11.9,1.2,17.9c-1.9,2.9-4.2,5.6-6.8,7.9c-9.2,8.5-20.1,14-31.8,18c-8.8,3.1-18,4.8-27.1,6.7
			c-12.7,2.5-25.7,3.3-38.6,2.4c-8.6-0.7-17.2-0.6-25.8,0.3c-1.6,0.2-3.2,0-4.7,0.1c-0.9,0-1.8-0.3-2.5-1c-2.7-8.1-2-16.4-1.5-24.7
			c0.2-2.5,0.5-4.9,0.8-7.3c-0.8-0.7-1.5-0.3-2.2-0.2c-4.5,0.6-9.1,0.2-13.4-1.1c-1.2-0.3-2.4-0.7-3.7,0.1c-1.1,0.7-2.5,0.4-3.8,0.1
			c-1.7-0.3-3.4-0.7-5.1-1.1c-2-0.5-2.3-1.5-1.1-3.2c0.3-0.4,0.7-0.8,1.1-1.3c2.3-9.1,3.4-18.5,3.1-27.9c-0.1-1,0.2-2,0.8-2.9
			c2.2-1.5,4.4-0.4,6.7-0.1c0.9,0.6,2.6,0.7,2.2,2.3s-1.9,1.4-3.2,1.3c-1.8,0.4-1.5,1.9-1.5,3.1c-0.2,6.4-0.8,12.9-2,19.2
			c-0.3,1.6-0.7,3.2-1.3,4.8c-0.3,0.7-0.5,1.5,0.5,1.8c1,0.3,1.8,0.3,2.3-0.8c0.4-0.9,0.6-1.8,0.6-2.7c0.2-3.7,0.9-7.3,0.7-11
			c-0.1-1.8,0.2-3.7,0.8-5.5c0.6-1.7,0.2-3.5,0.4-5.2c0.1-1.2,0.5-2.2,2-2.1s1.6,1,1.7,2.1c0.1,1.4,0,2.8,0.1,4.1
			c0.2,5.7-0.1,11.4-0.9,17.1c-0.3,2,0.4,2.9,2.3,3.3c3.5,0.7,7.1,0.8,10.6,0.3c1.7,0,3.2-1.4,3.3-3.1c1.4-7.8,4.4-15.2,5.7-23
			c0.1-0.9,0.4-1.8,0.8-2.6c1.8-1.4,3.1-3,2-5.6c-0.2-0.6-0.2-1.3,0.2-1.9c-0.1-2.2,0.7-4.4,0.6-6.6c0-1.4-0.1-2.6-1.4-3.4
			c-0.1-0.1-0.1-0.1-0.2-0.2c-3.8-4.3-3.2-3.7-0.8-7.7C96.2,276.4,96.5,275.7,96.5,274.9z"/>
		<path class="st0" d="M326.4,458.9c-3.7-0.4-7.5-0.4-11.2-0.8c-3.5-0.4-7.1-0.8-10.6-1.3c-4-0.6-7.9-1.4-11.8-2.4
			c-1.1-1.6-1.1-3.5-1.2-5.3c-0.3-8.3-1.3-16.6-3.1-24.8c-0.1-0.6-0.1-1.3,0-1.9c0.1-0.3,0.3-0.6,0.6-0.8c6-0.5,12.1-0.3,18.2-1.3
			c2.3-0.4,4.5-0.8,6.8-1.2c3.5,7,6.5,14.3,9,21.7c1.5,4.7,2.7,9.6,3.6,14.5C326.8,456.6,327.1,457.8,326.4,458.9z"/>
		<path d="M393.9,420.8c4.5,7.3,4.1,12.5-1.7,19c-3,3.3-6.6,6-10.6,7.9c-3.4,1.7-7,3-10.6,3.8c-1-0.5-1-1.5-1.2-2.4
			c-2.6-12.7-6.7-25.1-12.2-36.9c-0.4-0.9-1.4-1.9-0.2-2.9c4-0.5,8-1.2,12.1-0.9C379.2,409.2,387.6,412.9,393.9,420.8z"/>
		<path class="st0" d="M352.1,456.6c-5.5,1-11,1.7-16.6,2c-2.5,0-5.1,0.4-7.7,0.3c-0.5-0.7-0.8-1.5-0.9-2.3
			c-1.6-11.9-5.8-22.9-10.9-33.6c-0.6-1.2-1.6-2.3-1.3-3.9l21.6-5c0.6-0.1,1.2-0.3,1.8-0.5c2.8,3.8,5,8,6.6,12.4
			c3.4,8.7,5.8,17.7,7.3,26.9C352.4,454.1,353,455.4,352.1,456.6z"/>
		<path class="st0" d="M357.3,409.3c-0.2,0.5-0.1,1.1,0.2,1.6c6.2,12.6,10.6,26,13.1,39.8c0,0.3,0.1,0.5,0.2,0.8
			c-5.5,2.2-11.2,3.8-17,4.8c-1.2-1.2-1.1-2.9-1.4-4.4c-2.4-11.7-5.3-23.1-10.8-33.8c-0.8-1.5-2.1-2.8-2.3-4.6
			C345.3,412,351.2,410.4,357.3,409.3z"/>
		<path class="st0" d="M63.7,298.9c-0.2,3.2,0.5,6.4,0.2,9.6c-0.4,5.2-1,10.4-1.9,15.6c-0.4,2-0.7,4-2.1,5.6c-0.1-1.4-1.3-2-2.2-2.7
			c-4.4-3.2-8.6-6.7-12.4-10.6c-6.8-6.9-13.4-14-18.3-22.5c-1.4-2.4-1.4-2.8,0.3-4.9c2.4,0.6,3.5,2.7,4.9,4.4c4.3,5.1,4.2,5.1,8.3,0
			c1.5-1.9,2.6-4.3,5.2-5c0.3,0.5,0.6,0.9,1,1.3c4.4,3.3,8.7,6.6,13.7,9.1C61.4,299.4,62.7,299.5,63.7,298.9z"/>
		<path class="st0" d="M290.7,454c-4.2-0.7-8.3-1.7-12.3-3c-5-1.5-10.1-2.8-14.9-4.9c-0.5-3.1,0.9-6,1.4-9c0.9-5.8,1-11.5,1.4-17.3
			c0.1-0.3,0.3-0.6,0.6-0.7c4.8,1.1,9.8,1.4,14.6,2.2c1.6,0.2,3.3,0.2,4.9,0.2c0.9,0,1.8-0.2,2.6,0.4l-0.3,0.3
			c-1.2,1.1-0.6,2.4-0.3,3.6c1.7,8.2,2.7,16.5,2.9,24.9C291.4,451.7,291.5,453,290.7,454z"/>
		<path class="st0" d="M261.7,445.2c-2.2-0.3-4.1-1.4-6.2-2.2c-3.7-1.5-7.4-3-11.1-4.6c-1-0.3-1.8-0.8-2.6-1.5
			c-0.5-0.7-0.2-1.4,0-2.1c2.4-6.9,4.4-13.8,4.8-21.1c0-0.5,0.2-0.9,0.5-1.2c5.4,2.3,10.9,4.2,16.5,5.8c1,0.3,2.2-0.3,3.1,0.6
			l-0.1,0.1c-1,0.7-0.9,1.8-0.9,2.8c-0.1,6.7-0.9,13.3-2.4,19.8C263.2,443,263.2,444.5,261.7,445.2z"/>
		<path class="st2" d="M45.7,288.4c-2.4,2.5-4.6,5.2-6.7,8c-1.7,2.5-2.9,2.5-5,0.2c-2.3-2.5-4.5-5-6.8-7.5c-1.3-1.9-2.9-3.6-4.5-5.2
			c-4.2-4.3-7.8-9.1-11.7-13.7c-1.3-1.5-1.1-2.6,0.7-3.5c3.3-1.9,6.8-3.4,10.4-4.4c2.5-0.5,5-1.3,7.3-2.5c0.9-0.6,2.1-0.4,2.7,0.4
			c0,0,0,0,0,0c1.8,2,3.7,3.9,5.3,6c3.8,5,7.8,9.8,12,14.5c1.5,1.7,1.5,2.4-0.2,3.9C48,285.7,46.7,287,45.7,288.4z"/>
		<path class="st3" d="M72.7,310.5v-5.6c-0.7-0.2-1.5-0.2-2.3,0c0,1.5,0,3.1,0,4.6c0,0.7,0.1,1.5-0.6,2c-1.2-3.2-1.3-6.7-0.2-9.9
			c0.3,0,0.5,0.1,0.8,0.2c0.7,0.3,1.5-0.1,1.7-0.8c0,0,0,0,0,0c0.4-0.7-0.4-1.1-0.8-1.5s-0.7-0.6-1-0.8c0.2,0,0.4-0.1,0.5,0
			c1.8,1.9,3.8,0.9,5.8,0.3c6.1-1.8,12.4-2.5,18.7-2c2.1,0.1,1.4-1.5,2.1-2.2c0,0.7,0.1,1.4,0.3,2.1c1.3,3.4,1.3,3.4-1.9,5.2
			c-3.1,0.3-6.2,0.1-9.3,0.2c-3.5,0.1-6.9,0.7-10.3,1.7c-1.5,0.3-2.5,1.7-2.4,3.2C73.8,308.4,74.3,309.9,72.7,310.5z"/>
		<path class="st4" d="M99.3,412.5c2.7,1.8,5.3,3.7,7.7,5.8c3.9,3.1,7.9,6,12.1,8.8c5.5,3.7,11.7,5.9,18.3,6.6
			c1.9,0.1,3.9,0,5.8-0.3c0.8,0,1.9-0.3,2,0.8s-1,1.4-1.9,1.5c-3.4,0.6-6.8,0.5-10.2-0.3c-5.7-1.3-11.1-3.6-15.9-6.8
			c-6-3.8-11.4-8.4-17-12.9c-0.3-0.2-0.6-0.4-0.9-0.6C99.3,414.3,99.3,413.4,99.3,412.5z"/>
		<path class="st5" d="M339.4,413.5c1,0.5,1.3,1.5,1.8,2.4c4.7,7.9,7.5,16.6,9.7,25.5c1.3,4.9,2.3,9.9,2.9,14.9l-1.7,0.4
			c-1.5-9.6-3.9-19.1-7.2-28.3c-1.6-4.2-3.5-8.3-5.7-12.2c-0.4-0.8-1.2-1.4-0.9-2.5L339.4,413.5z"/>
		<path class="st6" d="M314.9,419.2c4.6,8.4,8.2,17.3,10.7,26.5c1.2,4.3,2.4,8.7,2.4,13.3h-1.5c-1.5-10.3-4.5-20.4-8.7-29.9
			c-1.2-2.7-2.5-5.3-3.8-8c-0.3-0.7-0.8-1.3,0.1-1.9L314.9,419.2z"/>
		<path class="st7" d="M38.2,221.4c-1.3,0.1-2.6,0.2-3.9,0.2c-0.6,0.1-1.2-0.3-1.3-0.9c0-0.1,0-0.1,0-0.2c0-0.6,0.4-1.1,1-1.2
			c0.7-0.2,1.4-0.3,2.2-0.4c7.2-0.2,14.3,1.5,20.7,4.9c0.5,0.3,0.9,0.6,1.3,0.9c0.4,0.3,0.5,0.8,0.2,1.2c0,0,0,0,0,0
			c-0.2,0.4-0.7,0.7-1.2,0.5c-0.5-0.2-1-0.4-1.5-0.7C50.2,222.8,44.3,221.8,38.2,221.4z"/>
		<path class="st8" d="M41,207.1c0.8,0.3,1.6,0.6,2.4,0.9c5.5,2.7,10.4,6.3,14.6,10.8c0.6,0.7,1.9,1.5,0.9,2.5
			c-1.2,1.2-1.9-0.2-2.6-0.9c-4.3-4.5-9.4-8.1-15.1-10.5c-0.4-0.2-0.8-0.4-1.3-0.6c-0.6-0.3-0.9-0.9-0.6-1.6c0,0,0-0.1,0-0.1
			C39.6,207,40.2,207.1,41,207.1z"/>
		<path class="st9" d="M247.2,412.6c0.6,2.8-0.1,5.5-0.6,8.2c-1.1,5.5-2.7,11-4.8,16.2c-0.6-0.1-1.2-0.3-1.7-0.7
			c2.7-7.3,5-14.8,5.5-22.6c0-0.7,0.2-1.3,1-1.2C246.8,412.5,247,412.6,247.2,412.6z"/>
		<path class="st10" d="M47.1,241.4c-0.1,0.5-0.3,0.9-0.7,1.2c-1.5,1.4-2.6,3.1-3.4,5c-0.1,0.3-0.2,0.5-0.4,0.7
			c-1.7,1.6-2.6,3.8-2.7,6.2c-0.1,1-0.7,1.9-1.6,2.5c-0.2,0.1-0.5,0.2-0.8,0.1c-0.3-0.2-0.6-0.6-0.4-0.9c1.9-2.6,1-6.3,3.8-8.7
			c1.3-1.1,1.7-3.3,2.8-4.7c0.6-0.9,1.3-1.5,2.3-2C46.6,240.4,47,240.7,47.1,241.4z"/>
		<path class="st11" d="M60.2,255.7c0.1,0.6-0.3,1.1-0.8,1.3c-3,1.2-5.2,3.9-8.2,5.1c-1.1,0.5-2,1.4-2.5,2.4c-0.5,1-1.5,1.7-2.7,1.7
			c-0.4,0-0.7-0.2-0.9-0.5c-0.2-0.3-0.1-0.7,0.2-0.9c0,0,0.1,0,0.1-0.1c1.4-0.4,2-1.6,2.7-2.7c0.2-0.3,0.4-0.7,0.7-0.8
			c3.5-1.6,6.3-4.5,9.8-6.1C59.4,255,60.1,255.1,60.2,255.7z"/>
		<path class="st12" d="M24.9,246.7c0.3-2.5,0.6-4.8,0.8-7.1c0.1-0.5,0.2-0.9,0.8-0.9c0.5,0,0.9,0.4,0.9,0.9
			c0.1,0.4,0.1,0.7,0.1,1.1c0,0.6-0.1,1.3-0.3,1.9c-1,3.2-0.4,6.7,1.5,9.5c0.7,0.9,1,2,0.9,3.1c-0.1,0.4-0.3,0.7-0.7,0.8
			c-0.3,0.1-0.7-0.1-0.8-0.4c0,0,0-0.1,0-0.1c-0.3-2-1.6-3.5-2.3-5.3C25.3,249.1,25,247.9,24.9,246.7z"/>
		<path class="st13" d="M60.8,216.5c0.1,0.6-0.3,1.2-0.9,1.4c-0.4,0.1-0.8-0.1-1.1-0.4c-0.1-0.1-0.2-0.3-0.3-0.5
			c-1.3-2.6-3-4.9-5-6.9c-0.5-0.5-1-1.2-0.4-1.9s1.5-0.3,2.1,0.3c2.1,2,3.9,4.5,5.2,7.1C60.6,215.9,60.8,216.3,60.8,216.5z"/>
		<path class="st14" d="M158.6,438c-2-23.9,6.5-43,26.2-56.9c1-0.7,2-1.3,3.1-1.8c0.5-0.3,1.1-0.2,1.5,0.2c0.4,0.5,0.2,1.2-0.3,1.6
			c0,0-0.1,0.1-0.1,0.1c-0.5,0.4-1.1,0.7-1.6,1.1c-14,9-22.7,21.6-25.9,38c-1.1,5.8-1.4,11.8-0.8,17.6c0.3,0.7,0.2,1.2-0.6,1.4
			C159.1,439.5,158.9,438.8,158.6,438z"/>
		<path class="st5" d="M102.2,383.3c0.6,0,1.1,0.4,1.1,1c0.2,1,0.3,2,0.6,3c1.4,5.6,4.6,10.2,8.1,14.6c0.6,0.8,1.3,1.5,1.9,2.3
			c0.5,0.5,0.5,1.3,0,1.8c-0.6,0.6-1.2,0.3-1.7-0.2c-0.3-0.2-0.6-0.5-0.8-0.8c-4.4-5-8.1-10.5-9.8-17.1c-0.3-1.1-0.4-2.2-0.5-3.3
			C101.1,384.1,101.5,383.5,102.2,383.3C102.2,383.3,102.2,383.3,102.2,383.3z"/>
		<path class="st6" d="M174.5,410.9c0.1-2,0.5-4,1.3-5.9c0.4-1,1-2,1.8-2.8c0.6-0.5,1.3-0.9,1.9-0.2s0.3,1.1-0.1,1.7
			c-2.2,2.8-3,6.4-2.3,9.9c0.1,0.8,0,1.5-0.9,1.7s-1.2-0.5-1.4-1.1C174.5,413.1,174.4,412,174.5,410.9z"/>
		<path class="st15" d="M156.4,471.5c-0.7-0.3-1.6,0.1-2.1-0.8c2.8-2.2,5.7-4.2,8.9-6c0.3-0.2,0.7-0.4,1-0.5c0.7-0.3,1.6-1,2.1,0.1
			s-0.6,1.4-1.3,1.8C162,467.7,159.2,469.7,156.4,471.5z"/>
		<path class="st16" d="M153,467.9l-2.3-0.6c2.4-2.4,5.2-4.3,8.3-5.7c0.6-0.3,1.3-0.6,1.7,0.1c0.5,0.9-0.2,1.4-0.8,1.7
			C157.4,464.7,155.1,466.2,153,467.9z"/>
		<path class="st17" d="M93.1,458.4c-0.8,0.1-1.5-0.1-2.2-0.6c1.8-2.2,3.8-4.2,6.1-5.9c0.5-0.4,1.1-0.9,1.7-0.3
			c0.8,0.8,0.1,1.4-0.4,1.8C96.4,455,94.7,456.6,93.1,458.4z"/>
		<path class="st18" d="M88.7,454.4c-0.4-0.5-0.8-1-1.1-1.4c1.7-1.7,3.4-3.3,5.3-4.8c0.4-0.5,1-0.8,1.7-0.9c0.7,0,1,0.4,0.8,1.1
			c-0.1,0.4-0.4,0.8-0.8,1.1C92.7,451.1,90.7,452.7,88.7,454.4z"/>
		<path class="st19" d="M158.6,438c1.2,1.5,1.4,1.5,2.2,0c0.4,0.9,0.6,1.8,0.5,2.8c-0.2,0.2-0.4,0.2-0.5-0.1
			c-0.1-1.4-1.3-0.9-2.1-1.1C158.6,439.1,158.5,438.5,158.6,438z"/>
		<path class="st0" d="M160.9,440.7c0.2,0,0.3,0,0.5,0.1c0.7,0.4,0.5,1.1,0.5,1.6C161.3,442,160.9,441.4,160.9,440.7z"/>
		<path class="st20" d="M290.7,454c-0.1-10.2-1.3-20.4-3.6-30.4c-0.4-1.8-0.4-1.8,1.6-1.5c2.4,9.8,3.3,19.7,3.9,29.7
			c0,0.9,0,1.8,0.1,2.8C292,454.6,291.3,454.4,290.7,454z"/>
		<path class="st20" d="M261.7,445.2c1.4-4.8,2.3-9.7,2.8-14.6c0.4-3.4,0.6-6.8,0.6-10.2c0-1.3,0.5-1.6,1.6-1.3
			c0.5,6.5-0.3,12.8-1.4,19.2c-0.3,2.6-1,5.2-1.9,7.7C262.8,445.8,262.1,445.8,261.7,445.2z"/>
		<path class="st21" d="M72.6,233.4c0-1.1,0.1-2.2,0-3.3c-0.1-1.9-1-3.6-2.6-4.7c-1-0.8-2-1.7-2.7-2.7c-0.9-1.1-1.1-2.6-0.6-3.9
			c0.6-1.3,2-2.1,3.5-1.7c5.7,0.9,11.2,2.5,16,5.7c1,0.7,2,1.5,1.6,2.9c-0.4,1.2-1.4,2-2.7,2c-1.3,0.2-2.6,0.3-3.8,0.4
			c-1,0.1-2,0.3-3,0.6c-2,0.7-2.4,1.4-2.5,3.5c-0.1,1.7-0.1,3.3-0.2,5c0,0.6-0.2,1.3-0.5,1.9c-0.4,0.9-1.1,0.9-1.7,0.1
			c-0.6-0.7-0.9-1.6-0.9-2.6C72.5,235.6,72.5,234.5,72.6,233.4L72.6,233.4z"/>
		<path class="st22" d="M108.6,243.1c-1.2,0.1-2.1,0.1-3,0.1c-0.7,0-1.3-0.3-1.4-1s0.5-1.1,1.2-1.2c2.8-0.5,5.7-0.4,8.5,0.2
			c5.8,1.2,11.3,3.6,16.1,7c0.6,0.4,1.1,0.9,1.6,1.5c0.4,0.4,0.4,1.1,0.1,1.5c-0.4,0.5-1,0.6-1.5,0.2c-0.6-0.3-1.1-0.7-1.6-1.1
			c-4.5-3.1-9.5-5.4-14.8-6.7C112.1,243.4,110.4,243.2,108.6,243.1z"/>
		<path class="st23" d="M105.9,246.9c0.6,0.2,1.4,0.4,2.2,0.7c2.8,1.2,5.4,2.9,7.6,5c3.7,3.6,6.7,7.9,8.8,12.6
			c0.2,0.5,0.4,1,0.6,1.5c0.3,0.8,0.2,1.5-0.6,1.9s-1.4-0.3-1.7-1s-0.5-1.2-0.8-1.8c-1.7-3.6-3.8-6.9-6.5-9.9
			c-2.5-3-5.7-5.2-9.4-6.6c-0.3-0.1-0.7-0.2-1-0.4c-0.5-0.3-0.9-0.7-0.7-1.3S105.1,246.9,105.9,246.9z"/>
		<path class="st24" d="M119.9,222.7c-2.3,0-3-0.9-2.4-3.1c0.8-3.3,3.8-5.5,7.1-5.4c0.8-0.1,1.6,0.5,1.7,1.4c0,0.2,0,0.4-0.1,0.6
			c-0.2,1.3-0.6,2.5-1,3.7C124.2,222.2,123.1,222.2,119.9,222.7z"/>
		<path class="st25" d="M117.6,234.7c2.8,0,5.5,0.3,8.2,0.9c0.7,0.2,1.4,0.4,2.1,0.7c0.6,0.2,1,0.9,0.7,1.5c0,0,0,0.1,0,0.1
			c-0.2,0.6-0.8,0.6-1.4,0.6s-1.1-0.2-1.6-0.3c-4.8-0.9-9.6-1.7-14.4-0.1c-0.7,0.2-1.3,0.2-1.6-0.6s0.2-1.2,0.8-1.6
			c1.4-0.7,3-1,4.5-1.1C115.8,234.6,116.7,234.6,117.6,234.7z"/>
		<path class="st22" d="M121.6,208.9c1.9,0,3.9,0.4,5.6,1.2c0.8,0.4,1.5,1,1.2,1.9s-1.2,1.1-2.1,0.9c-0.2,0-0.4-0.1-0.5-0.1
			c-3.3-1.5-7.3-1.1-10.2,1c-0.6,0.5-1.4,0.5-2-0.1c-0.1-0.1-0.1-0.2-0.2-0.3c-0.4-0.7-0.2-1.5,0.5-1.9
			C116.1,209.7,118.9,208.8,121.6,208.9z"/>
		<path class="st5" d="M181,204.2c-0.1,0.7,0,1.6-0.7,2c-1.4,0.9-2.8,1.7-4.3,2.5c-0.8,0.4-1.7,0.1-2.2-0.6c-0.6-0.7-0.6-1.8,0-2.5
			c0.5-0.5,1.1-1,1.7-1.4c0.9-0.6,1.9-1.1,2.9-1.6c0.6-0.3,1.1-1.2,1.9-0.6S180.9,203.4,181,204.2z"/>
		<path class="st26" d="M185.8,226.8c-0.4,2.4-1.3,4.6-2.7,6.6c-0.4,0.6-1,1.2-1.9,0.7s-0.6-1.3-0.1-1.9c1.2-1.9,2-3.9,2.5-6.1
			c0.2-0.8,0.6-1.4,1.6-1.1C186,225.2,185.9,225.9,185.8,226.8z"/>
		<path class="st27" d="M177.4,197.6c0,0.8-0.2,1.7-0.7,2.4c-0.3,0.6-1,0.9-1.7,0.6c-0.7-0.1-1.1-0.8-0.9-1.4c0,0,0,0,0-0.1
			c0.5-1.1,0.2-2.4-0.8-3.2c-0.4-0.4-0.5-1-0.1-1.4c0,0,0.1-0.1,0.1-0.1c0.4-0.5,1.1-0.7,1.7-0.5C176.6,194.5,177.5,196,177.4,197.6
			z"/>
		<path class="st28" d="M129.7,176.6c0.4,0,0.8,0.1,1.2,0.3c0.4,0.1,0.6,0.5,0.6,0.8c-0.2,2-2.1,0.8-3,1.6c-0.4,0.3-0.9,0.3-1.2-0.1
			c-0.1-0.1-0.2-0.3-0.2-0.5c-0.3-1.1,0.5-1.6,1.5-1.9C128.9,176.7,129.3,176.6,129.7,176.6z"/>
		<path class="st29" d="M83.4,237.1c0.8,0,1.2,0.3,1.3,0.9c0.1,0.5-0.2,1.1-0.8,1.2c-0.1,0-0.3,0-0.4,0c-0.6-0.1-1-0.6-1-1.2
			C82.6,237.6,82.9,237.2,83.4,237.1z"/>
		<path d="M86.8,235.6c0,0.6-0.4,1-1,1c-0.5,0.1-1-0.3-1.1-0.8c0-0.1,0-0.2,0-0.2c-0.1-0.5,0.3-1,0.9-1.1c0,0,0.1,0,0.1,0
			C86.3,234.6,86.7,235,86.8,235.6z"/>
		<path d="M68.7,236.1c-1,0.1-1.6-0.5-1.4-1.4c0.1-0.7,0.7-1,1.4-0.7c0.4,0,0.7,0.3,0.8,0.6c0.1,0.2,0.1,0.5,0,0.8
			C69.4,235.8,69.1,236,68.7,236.1z"/>
		<path d="M81.6,236.9c0,0.8-0.3,1.2-0.9,1.3c-0.6,0-1-0.4-1-1c-0.1-0.5,0.2-1,0.7-1c0.1,0,0.1,0,0.2,0
			C81.1,236,81.6,236.4,81.6,236.9C81.6,236.9,81.6,236.9,81.6,236.9z"/>
		<path class="st0" d="M68.7,236.1c0-0.3,0.2-0.5,0.5-0.6c0.2-0.2,0.3-0.3,0.4-0.5c0.1-0.2,0.3-0.3,0.5-0.4c0.4-0.1,0.9,0,1.3,0.3
			l-0.6,1.3c-0.5,0.5-1,1-1.5,1.5C68.5,237.4,68.7,236.7,68.7,236.1z"/>
		<path class="st30" d="M69.3,237.7c-0.3-1.3,0.2-1.8,1.5-1.5C71,237.7,70.9,237.8,69.3,237.7z"/>
		<path class="st31" d="M71.4,234.9c-0.5,0.2-1,0.2-1.5,0c-0.4-0.4-0.4-1-0.1-1.4c0,0,0,0,0.1-0.1C71.3,233.2,71.5,233.4,71.4,234.9
			z"/>
		<path d="M69.9,233.4v1.5l-0.1,0.2h-0.2l-0.2-0.1l-0.6-1L69.9,233.4z"/>
		<path class="st32" d="M148.5,345.3c1.1,0.9,2.1,2.1,2.9,3.3c1.1,1.4,1.8,1.5,3.3,0.5c0.4-0.3,0.7-0.6,1.1-0.9
			c3-2.5,3.1-2.6,0.9-5.9c3.3-3,6.9-5.8,10-9.2c8.5-9.4,15.7-19.5,18.9-32.1c2.6-9.4,0.7-19.5-5.2-27.4c-1.8-2.4-4-4.4-6.4-6.2
			c8.8-5.5,16.9-12,24.2-19.4c0.9,1.8,1.6,3.8,2,5.8c1.7,6.1,3.8,12,6.4,17.7c5.8,13,10.3,26.5,13.4,40.4c1.3,5.9,2,11.8,2.1,17.8
			c0.1,2.1-0.7,4.2-2.3,5.6c-6.3,6.6-13.8,11.4-21.8,15.5c-9.1,4.6-18.9,7.2-28.9,9.3c-8.3,2-16.6,3.4-25.1,4.2
			c-7.2,0.5-14.4,0.6-21.6,0.1c-8.9-0.4-17.7-0.6-26.5,0.7c-3.8,0.5-3.9,0.5-4.3-3.5c-0.6-6.5-0.6-13.1,0.2-19.6
			c1-10,3.5-19.6,6-29.3c2-7.5,3.4-15.1,4.3-22.8c0-0.1,0.2-0.3,0.3-0.6c1.4,1,2.9,2,4.3,3c0.3,0.2,0.6,0.5,0.7,0.8
			c1.1,3.2,2.5,6.2,1.4,9.9c-3.7,12.5-7.2,25-10.8,37.5c-0.6,1.6-0.4,3.3,0.3,4.8c1.6,3.1,3,6.3,4.6,9.5c1.3,2.6,2.6,2.7,4.6,0.6
			c1.1-1.2,2.3-2.4,3.4-3.6c0.3,0.2,0.7,0.5,0.9,0.8c0.3,0.3,0.7,0.5,1,0.8c0.4,0.2,0.8,0.5,1.2,0.8c0.5,0.5,0.9,1.2,1.5,1.6
			c1.7,1.2,3.2,0.5,4.2-0.7c3.1-3.5,7.1-4.7,11.5-5.3c5.6-0.7,11.1-1.7,16.2-4.5C147.7,345.2,148.1,345.2,148.5,345.3z"/>
		<path class="st32" d="M182.4,292.1c-0.3,7-2.3,13.9-5.7,20c-4.9,8.8-10.8,17-18.8,23.4c-1.3,1.1-2.4,3.3-4,3
			c-1.5-0.3-2.2-2.5-3.3-3.9c-2.9-3.7-5.5-7.7-7.6-11.9c-0.7-1.2-0.9-2.7-0.5-4c0.3-0.8,0.3-1.6,0.6-2.4c3.8-10.4,5.1-21.3,5.4-32.3
			c0-3.6,1.6-7.1,4.5-9.4c3.3-2.8,7.4-4.6,11.8-5c3-0.3,6,0.7,8.2,2.7C179.3,277.5,182.1,284.5,182.4,292.1z"/>
		<path class="st32" d="M116.3,342.5c0.4-5.3-0.4-10.5-0.7-15.8c-0.4-7.6-0.9-15.1-1.4-22.7c-0.2-2,0.2-3.6,2.1-4.6
			c0.5-0.3,0.9-0.6,1.3-1c1.9-1.6,4.1-2.8,6.4-3.6c5.7-2,11-5.1,16.4-7.9c1.1-0.6,2.2-1.3,3.8-2.1c-0.2,3.6-0.3,6.8-0.6,9.9
			c-0.5,6-1.6,11.9-3.3,17.7c-0.3,0.9-0.4,1.2-1.6,1c-1.8-0.4-3.4,0.6-4.9,1.5c-0.9,0.5-0.8,1.6-0.8,2.5c0.1,2.6,0.5,5.1,1.3,7.6
			c-0.2,2.7-2.2,4.4-3.8,6.3c-3.4,4-7.6,7.3-11.4,10.9c-0.7,0.8-1.7,1.2-2.7,1.1C116.2,343,116.2,342.7,116.3,342.5z"/>
		<path class="st32" d="M72.7,310.5c0.4-1.6,0.5-3.3,0.4-4.9c0-0.9,0.2-1.5,1.2-1.9c6.7-2.3,13.7-2.7,20.7-2.4c0.5,0,0.9,0.3,1,0.7
			c-0.4,1.6-0.9,3.2-1.2,4.8c-1.1,7.9-4.5,15.2-5.6,23.1c-0.1,0.8-0.6,1.4-1.4,1.5c-5.1,1.1-10.3,1-15.3-0.5c-0.8-0.2-1.1-0.6-1-1.4
			s0.2-1.5,0.2-2.2C72.4,321.8,72.7,316.2,72.7,310.5z"/>
		<path class="st32" d="M192.7,235.8c1.1,2.4,2,4.4,3,6.3c0.7,0.9,0.5,2.1-0.4,2.8c0,0-0.1,0.1-0.1,0.1c-1.9,1.7-3.6,3.7-5.6,5.4
			c-6,5.1-12,10.2-18.7,14.3c-0.8,0.6-1.8,0.9-2.8,0.8c-6.6-0.9-12.3,1.5-17.4,5.5c-2.6,1.8-4.5,4.4-5.6,7.4c-0.3,0.9-1,1.3-1.7,1.8
			c-2.4,1.6-4.8,3.1-7.4,4.4c-3.9,2-7.9,4-11.8,6c-2.5,1.2-2.5,1.1-4.2-1c-0.8-1-1.7-1.9-2.6-3c17.3-7.5,32.7-17.9,48.1-28.4
			c7.5-5.1,14.9-10.3,21.6-16.4C189.1,239.8,191,237.9,192.7,235.8z"/>
		<path class="st0" d="M116.5,343.1c6.7-5.3,13.2-10.7,17.8-18.1c2.6,6.1,7.1,11,11.2,16.2c1.1,1.3,2.1,2.7,3.1,4.2
			c-4.6,3.4-10.1,4.1-15.5,5.1c-1.7,0.3-3.4,0.5-5.2,0.8c-2.6,0.4-4.9,1.6-6.7,3.6c-0.6,0.8-1.4,1.5-2.3,2c-1.8,1.1-2.1,1-4-0.6
			c0.7-2.9,3.8-3.7,5.5-6c-3,0.5-3.9,3.8-6.6,4.2c-0.5,0-0.9-0.2-1.2-0.7c-0.3-1.5,0.9-2.1,1.7-2.8c1.3-1,2.6-2.1,3.8-3.3
			c-2.2,0.4-3.1,2.6-5.1,2.5c-0.4-0.1-0.7-0.4-0.5-0.9l0,0c0.4-0.3,0.3-0.8,0.6-1.1c0.7-1.6,1.6-3,2.8-4.4
			C116,343.5,116.1,343.1,116.5,343.1z"/>
		<path class="st33" d="M110.8,315.5c0.5,8.6,1,17.1,1.6,25.7c0.2,1.6-0.3,3.1-1.4,4.2c-1.8,1.8-3.4,3.6-5.3,5.7
			c-1.3-2.6-2.4-5-3.5-7.4c-0.5-1.1-0.1-2.1,0.2-3.2c2.5-8.9,5-17.7,7.5-26.6C111.3,313.7,110.1,315.1,110.8,315.5z"/>
		<path class="st32" d="M69.6,301.6c0.5,3.3-0.1,6.6,0.2,9.9c-0.3,5-0.7,9.9-1.1,14.9c-0.1,1.6-0.4,3.1-0.6,4.7
			c0,0.8-0.7,1.5-1.5,1.4c-0.2,0-0.3,0-0.5-0.1l-3.5-0.6c2.5-4.8,2.9-9.9,3.6-15c0.8-5,1-10,0.8-15.1
			C67.8,301.5,68.7,301.5,69.6,301.6z"/>
		<path class="st32" d="M137,316.7c0.6,0,0.7,0.5,0.9,0.9c0.5,1.7,1.1,3.3,1.8,4.9c2.3,5.1,5.3,10,8.8,14.4c1.8,2.4,3.6,4.7,5.3,7.1
			c0.4,0.5,1,1,0.1,1.6c-0.7,0.5-1-0.2-1.3-0.6c-2.2-2.6-4.3-5.3-6.5-8c-1.7-2.2-3.4-4.3-5.1-6.5c-2.8-3.5-4.5-7.7-5-12.1
			C136,317.4,136.4,316.7,137,316.7z"/>
		<path class="st32" d="M110.9,285.6c-2.4,3-2.4,2.9-5.2,1s-5.5-3.7-7.5-6.5c2.3-3.7,2.4-3.8,5.5-1.2
			C106.3,281,108.5,283.3,110.9,285.6z"/>
		<path class="st32" d="M112.9,296.6c-1.9-3-2.1-5.6,1.2-7.7c0,0,0.3,0,0.4,0.1C118.4,293.6,119,292.2,112.9,296.6z"/>
		<path class="st0" d="M112.5,349.2l0.7,0.7c-0.2,1.2-0.9,2.3-1.9,3c-0.4-0.2-0.7-0.7-0.5-1.1c0,0,0,0,0,0
			C111.2,350.8,111.7,349.9,112.5,349.2z"/>
		<path class="st34" d="M110.8,315.5c-0.4-0.5-0.3-1.3-0.9-1.6c-0.2-0.6,0-1,0.8-1.5C111,313.4,111,314.5,110.8,315.5z"/>
		<path class="st35" d="M116.5,343.1l-0.7,0.7c-0.1-0.5,0.1-1,0.5-1.3C116.4,342.7,116.4,342.9,116.5,343.1z"/>
		<path class="st0" d="M113.1,348.1c0.1,0.5-0.2,0.9-0.6,1.1C112.4,348.8,112.7,348.3,113.1,348.1z"/>
		<path class="st36" d="M72.4,221.3c-0.3,1-1.1,1.1-2,1c-0.5,0-0.8-0.4-0.8-0.9c0,0,0-0.1,0-0.1c0.1-0.8,0.8-1.4,1.6-1.3
			c0.1,0,0.1,0,0.2,0C72,220.2,72.4,220.8,72.4,221.3z"/>
		<path class="st32" d="M122.1,218.6c-0.1,0.9-0.8,1.2-1.6,1.2c-0.5,0.1-1.1-0.3-1.1-0.8c0-0.1,0-0.2,0-0.4c0.2-0.8,0.9-1.2,1.7-1.1
			c0.6,0,1,0.4,1,1C122.1,218.5,122.1,218.6,122.1,218.6z"/>
		<path class="st37" d="M69.3,235c0.1,0,0.3,0,0.4,0.1l-0.5,0.4C69.2,235.4,69.3,235.2,69.3,235z"/>
		<path class="st38" d="M215.6,317.7c-0.2,0.8,0.6,2.6-1.2,2.6s-1.3-1.8-1.4-2.9c-0.5-7.6-1.9-15.2-4.1-22.5
			c-0.8-2.6-1.8-5.2-2.6-7.8c-0.2-0.6-0.4-1.2-0.5-1.9c-0.1-0.6,0.3-1.1,0.9-1.2c0,0,0,0,0,0c0.5-0.1,0.9,0.1,1.1,0.5
			c0.2,0.3,0.3,0.7,0.5,1c4,10,6.4,20.6,7.3,31.3C215.6,317.1,215.6,317.3,215.6,317.7z"/>
		<path class="st39" d="M195.8,255.9c-0.1-0.5,0-1,0.3-1.5c0.3-0.5,0.9-0.7,1.4-0.4c0.2,0.1,0.4,0.3,0.4,0.5
			c0.2,0.4,0.3,0.9,0.3,1.3c0.9,5.9,2.7,11.5,4.4,17.1c0.7,2.3,0.6,3.4-0.4,3.4c-1.6,0-1.7-1.5-2-2.6c-1.8-5.4-3.2-11-4.1-16.6
			C195.9,256.6,195.8,256.2,195.8,255.9z"/>
		<path class="st40" d="M215.5,332.2c-0.4,1.8-0.6,3.6-1.6,5.2c-0.4,0.6-1,1.5-2,0.9s-0.5-1.3-0.2-1.9c0.7-1.5,1.2-3.1,1.4-4.7
			c0.2-0.8,0.5-1.5,1.4-1.3S215.7,331.4,215.5,332.2z"/>
		<path class="st41" d="M111.3,352.9c-0.2-1.5,1.4-2,1.9-3c1.1-0.9,2.3-1.8,3.4-2.7c0.4-0.3,0.9-0.6,1.4-0.8
			c0.5-0.1,0.9,0.1,1.1,0.6c0.1,0.3,0,0.6-0.2,0.8c-0.4,0.5-0.9,0.9-1.4,1.3c-1.8,1.3-3.5,2.9-5,4.6
			C112,353.6,111.6,353.4,111.3,352.9z"/>
		<path class="st42" d="M113.7,354.3c1.6-1.4,3.1-2.8,4.7-4.2c0.4-0.4,0.9-0.7,1.4-0.9c0.5-0.3,1-0.5,1.5,0s0.2,1.2-0.4,1.6
			c-2.1,1.6-4.1,3.4-6.1,5.3L113.7,354.3z"/>
		<path class="st32" d="M47,280.9c-0.7-1.2-1.5-2.3-2.4-3.4c-4.5-4.6-8.7-9.5-12.8-14.5c-0.5-0.8-1.5-1.1-2.3-0.6c0,0,0,0,0,0
			c-1.4,0.7-2.9,1.1-4.5,1.3c-1.2-0.1-2.4,0.2-3.4,1l0,0c-2.8,1.2-5.8,2.2-8.4,4c4.1,5.1,8,10.1,12.7,14.4l0,0
			c1.3,1.9,2.7,3.6,4.4,5.1c1.9,2.5,4,4.7,6.2,7c1-1.1,9.4-11.5,10.1-11.8C47.9,282.9,47.8,282,47,280.9z"/>
		<path class="st43" d="M264.4,30.9c0.2-0.8,0.4-1.5,0.8-2.2c1.3-2,0.9-3.8,0.1-5.8c-1.7-3.9-2.5-8.1-2.4-12.4
			c0-1.3,0.3-2.6,0.8-3.8c1.1-2.1,2.9-2.7,5.1-1.7c2.8,1.3,2.8,1.3,5-0.7c1.5-1.5,3.2-2.8,5.1-3.8c2.7-1.3,4.4-0.5,5,2.2
			s0.9,2.7,3.6,2.7c2.6,0,5.1-0.5,7.7-0.2c4.6,0.6,6.5,3.2,4.4,7.3c-2.5,5-3.8,10.4-5.5,15.6c-1.3,4.2-3.9,7.8-7.4,10.5
			c-2.3,1.9-5.4,2.7-8.3,2.1c-0.9-0.1-1.8-0.6-2.4-1.2c-0.4-0.3-0.4-0.9-0.2-1.3c0.3-0.4,0.8-0.5,1.2-0.2c0,0,0,0,0,0
			c1.8,1.1,3.9,1.3,5.9,0.5c1.1-0.4,2.2-1,3.1-1.8c3.4-2.8,5.7-6.6,6.8-10.8c0.9-4.7,2.6-9.3,4.9-13.5c0.2-0.3,0.3-0.7,0.4-1
			c0.8-2.5-0.1-4-2.7-4.3c-1.8-0.1-3.7-0.1-5.5,0c-1.1,0-2.2,0.2-3.3,0.2c-2.8-0.1-3.7-0.8-4.5-3.5c-0.7-2.3-0.9-2.3-3-1.2
			c-1.7,1-3.3,2.3-4.7,3.8c-1.7,1.7-3.4,2.1-5.7,0.8s-3.6-0.5-3.9,2.2c-0.4,4.3,0.3,8.7,2.1,12.7c1.2,2.3,1.2,5.1-0.1,7.4
			c-0.6,1.3-1,2.8-1,4.3c0,0.3-0.2,0.7-0.6,0.7c-0.5,0.1-0.9-0.3-1-0.8C263.9,32.8,264,31.8,264.4,30.9z"/>
		<path class="st39" d="M141.7,117c-0.2,0.2-0.3,0.4-0.5,0.5c-0.3,0.2-0.7,0.3-1.1,0.3c-11.1,2.7-21.1,7.9-30.6,14
			C96.4,140.1,84,149.2,72.9,160c-4.3,4.3-8.3,8.9-12.1,13.6c-0.7,0.9-1.4,2.9-2.7,2c-1-0.7,0.9-1.9,1.5-2.8
			c8.2-11,18.2-20.3,29.2-28.6c10.4-7.9,21.2-15.3,32.8-21.2c5.6-2.9,11.5-5.1,17.6-6.7c0.6-0.2,1.2-0.3,1.9-0.3
			c0.4,0,0.6,0.3,0.6,0.7C141.7,116.9,141.7,117,141.7,117z"/>
		<path class="st39" d="M65.4,128.7c-0.2,0.6-0.7,0.8-1.2,1.1c-20.5,12.1-36.7,29-51.9,47c-3.7,4.4-6.6,9.3-9.9,14
			c-0.5,0.7-0.9,2.4-2,1.7s0.3-1.7,0.8-2.4c12.1-19.6,28.1-35.5,45.5-50.2c5.1-4.1,10.5-7.9,16.2-11.2c0.5-0.4,1.1-0.6,1.7-0.8
			C65.2,127.8,65.5,128.1,65.4,128.7z"/>
		<path class="st44" d="M57.7,81.9c-0.3-0.1-0.5-0.5-0.4-0.8c0,0,0-0.1,0.1-0.1c0.4-0.6,0.8-1.3,1.2-1.8C63.8,72,70,65.6,77.1,60.3
			c14.5-11.1,30.7-18.3,48.2-23c1.1-0.3,2.1-0.6,3.2-0.7c0.6-0.1,1.6-0.5,1.8,0.6c0.1,0.9-0.8,0.8-1.4,1c-0.8,0.2-1.6,0.3-2.4,0.5
			c-19.1,5-36.6,13.2-52,25.7C69,68.9,64,74.2,59.7,80c-0.4,0.6-0.9,1.2-1.4,1.7C58.2,81.9,57.9,82,57.7,81.9z"/>
		<path class="st39" d="M322.6,128c-0.2,0.7-0.7,1.3-1.4,1.6c-3.8,2.9-8,5.3-12.4,7.3c-7.7,3.1-15.9,4.8-24.3,5
			c-6.9,0.3-13.8,0.5-20.7,0.7s-13.4,0.8-19.5,4.2c-0.4,0.2-0.9,0.4-1.2-0.1c-0.4-0.6,0.1-1,0.5-1.3c1.3-0.9,2.7-1.6,4.3-2
			c5.2-1.6,10.6-2.4,16.1-2.3c9.4-0.2,18.8-0.2,28.1-1.3c10.4-1.2,20.3-5.1,28.6-11.5c0.3-0.3,0.7-0.6,1.1-0.7
			C322.4,127.2,322.5,127.6,322.6,128z"/>
		<path class="st45" d="M56.5,116.8c-0.1-0.6-0.5-1.2-1-1.6c-2-1.6-3-4.1-2.7-6.6c0.2-2.5-0.3-2.9-2.9-2.4
			c-5.4,1.1-10.2,4.1-13.6,8.4c-0.5,0.7-0.9,2.2-1.9,1.4s0-1.8,0.7-2.6c3.6-4.6,8.8-7.8,14.5-9.1c0.7-0.2,1.5-0.2,2.2-0.2
			c2,0.1,2.8,1,3,2.9c0.1,0.6,0.1,1.1,0,1.7c-0.3,1.9,0.4,3.7,1.9,4.9c0.4,0.3,0.7,0.6,1,1c1.6,2,1.4,3.1-1,4.3
			c-0.8,0.4-1.7,0.8-2.5,1.1c-2.1,0.7-3.8,2.4-4.4,4.6c-1.1,3.2-3.8,4.5-6.8,3.7c-1.4-0.3-2.5-1.3-3-2.6c-0.2-0.4,0-1,0.4-1.2
			c0.3-0.2,0.8-0.1,1,0.2c0.3,0.3,0.6,0.8,0.9,1c1.8,1.5,4.6,1.1,5.3-1.1c1.3-4.1,4.3-6,8-7.3C55.8,117.2,56.2,117,56.5,116.8z"/>
		<path class="st46" d="M156.1,49c-0.2-0.2-0.4-0.2-0.5-0.3c-0.2-0.2-0.2-0.5,0-0.7c0.6-0.5,1.4-0.9,2.2-1.1
			c8.4-3.1,16.7-6.3,24.9-10.1c8.7-4.1,16.6-9.3,22.5-17c0.2-0.2,0.3-0.4,0.5-0.6c0.2-0.3,0.7-0.4,1-0.2c0.5,0.3,0.4,0.8,0.2,1.2
			c-0.5,0.8-1,1.5-1.6,2.2c-5.6,6.8-12.8,11.6-20.7,15.4c-8.8,4.1-17.8,7.7-26.9,10.8C157.1,48.7,156.6,48.9,156.1,49z"/>
		<path class="st7" d="M280.4,20.1c-0.8,2.5-1.8,5-3,7.4c-4.2,7.9-9.7,15-16.3,21.1c-0.7,0.8-1.7,1.5-2.7,1.9
			c-0.4,0.1-0.8,0-0.9-0.4c-0.2-0.3-0.2-0.7,0.1-1c0,0,0,0,0,0c1.2-0.9,2.3-1.8,3.4-2.8c7.2-7.5,13.7-15.4,17.1-25.4
			c0.1-0.4,0.4-0.8,0.6-1.3c0.3-0.6,0.5-1.3,1.4-0.9C280.7,18.8,280.4,19.5,280.4,20.1z"/>
		<path class="st13" d="M45,116.6c-0.1,0.5-0.4,0.8-0.9,1c-0.8,0.4-1.7,0.8-2.5,1.2c-4.8,2.2-9.2,5.1-13.2,8.5
			c-0.3,0.3-0.5,0.5-0.9,0.7c-0.2,0.1-0.5,0.1-0.8,0c-0.3-0.2-0.4-0.5-0.3-0.8c0,0,0-0.1,0.1-0.1c0.3-0.5,0.6-0.9,1-1.3
			c4.7-4,10-7.3,15.7-9.8C44,115.7,44.7,115.5,45,116.6z"/>
		<path class="st47" d="M307,118.6c-0.6-2.1-1.3-4.2-1.9-6.3c-0.8-2.7-1.3-5.4,1-7.7c1.1-1.2,1.1-2.7,0.5-4.2
			c-0.6-1.8-0.7-3.7-0.2-5.4c0.4-1.8,0.9-3.6,1.6-5.3c1.3-3.2-0.1-5-3.5-4.9c-1.4,0.1-2.7,0.3-4.1,0.6c-8.1,2-15.9,5-23.2,9
			c-5.6,2.8-10.8,6.6-15.2,11c-0.5,0.5-1.3,0.7-2,0.5c-2.7-0.3-5.5-0.5-8.3-0.5c-11.6,0.1-22.9,2.4-34,5.8c-1.9,0.6-3.7,1.2-3.8,4
			c-0.9-0.4-1.4-0.7-1.9-0.9c-10.9-6.5-22.9-10.3-35-13.6c-2.1-0.6-4.2-0.6-6.3-0.1c-2.8,0.8-3.8,2.6-3.2,5.5c0.4,1.4,1,2.8,1.9,4
			c1.3,1.8,1.8,4.2,1.1,6.3c-0.6,1.7-0.1,3.6,1.2,4.8c1.6,1.8,2.4,4.2,2.1,6.7c-0.1,2-0.5,4-0.8,6s-0.5,4-0.6,6.1
			c-0.1,3.2,1.3,4.4,4.4,3.9c1.2-0.2,2.3-0.5,3.5-0.9c2-0.6,4-1.3,6-2.1c8.1-3,16.7-4.8,25.4-5.3c1-0.1,2.1-0.4,2.9,0.4
			c0.6,0.5,1.5,0.8,2.3,0.6c3.3,0,6.4-0.9,9.5-1.6c10.2-2.2,20.3-4.6,30.7-5.6c1.6-0.2,3.3-0.5,4.9-0.7c1-0.1,1.4-0.7,1.4-1.7
			c0-2.1,0-2.1,2.1-2.4c10.8-1.3,21.3,0.6,31.7,3.5c1.8,0.7,3.7,1.1,5.7,1.2c2.4,0,3.3-0.8,3.9-3.1
			C307.6,123.6,307.6,121.1,307,118.6z M206.8,134.4c-7.3,0.7-14.4,2.3-21.2,5c-2.2,0.8-4.3,1.6-6.5,2.3c-0.9,0.3-1.8,0.5-2.7,0.6
			c-1.6,0.2-2.3-0.4-2.2-2c0.1-1.9,0.3-3.9,0.5-5.8c0.3-2.1,0.6-4.2,0.8-6.3c0.4-2.9-0.5-5.8-2.4-8c-1-1-1.3-2.4-0.9-3.8
			c0.6-2.5,0.2-5.1-1.3-7.1c-0.9-1.2-1.6-2.5-1.9-4c-0.3-1.8,0.2-2.6,1.9-3.2c1.8-0.6,3.7-0.6,5.5-0.1c3.2,0.8,6.4,1.8,9.6,2.7
			c9.1,2.6,17.8,6.3,25.9,11c1.1,0.4,1.7,1.7,1.4,2.8c-0.7,5.1-0.3,10.2,0.9,15.1C211.5,134,209.1,134.2,206.8,134.4z M305.4,125.3
			c-0.5,1.9-1,2.4-2.9,2.2c-1.5-0.2-2.9-0.5-4.3-1c-2.8-1-5.7-1.7-8.6-2.2c-8.3-1.4-16.6-2.8-25-1.4c-1,0.2-1.7,0.1-1.8-1.3
			c-0.1-4.5-0.3-9-0.5-13.5c0-1.6,1-2.5,2.1-3.4c4.3-3.6,8.9-6.6,13.8-9.2c7.2-3.8,14.8-6.7,22.7-8.6c1.2-0.3,2.4-0.5,3.5-0.6
			c2.1-0.1,2.8,0.8,2,2.7c-0.6,1.5-1,3-1.4,4.5c-0.6,2.5-1,5.1,0,7.6c0.4,1,0.2,2.1-0.5,2.8c-2.5,2.6-2,5.6-1.2,8.6
			c0.6,2.1,1.3,4.2,2,6.3C306,120.9,306,123.1,305.4,125.3z"/>
		<path class="st48" d="M215.1,115.4c0.1-1.4,1.2-2.6,2.6-2.9c10.9-3.1,21.8-5.6,33.2-5.7c2.6,0,5.2,0.1,7.7,0.3
			c1.9,0.2,2.5,0.2,2.5,2.7c0.1,4.5-0.1,9,0.4,13.5c0.4,3.6,0.3,3.6-3.3,4c-11,1.2-21.8,3.6-32.6,6c-2.5,0.6-5.1,1-7.6,1.5
			c-1.4,0.3-2-0.3-2.3-1.6C214.4,128.5,214.1,120.2,215.1,115.4z"/>
		<path class="st47" d="M215.1,90.1c0-0.5-0.1-0.9-0.1-1.4c-0.2-3.3-0.8-6.6-1.8-9.8c-0.7-2.3-0.7-4.5,1.1-6.4
			c1.2-1.1,1.6-2.9,0.8-4.4c-1.4-2.6-0.9-5,0.5-7.3c0.4-0.6,0.7-1.3,0.9-2c1.5-3.9-0.1-6.3-4.4-6.4c-1.8,0-3.7,0.3-5.5,0.8
			c-5.5,1.3-10.7,3.6-15.8,6c-6.9,3.1-13.6,6.7-19,12.3c-1.3,1.5-3.3,2.2-5.3,1.9c-14.2-1-28.5,1-41.9,5.7c-1.3,0.4-2.4,0.9-2.6,2.8
			c-7.2-5.2-15.3-9-23.9-11.2c-5.9-1.5-11.9-2.8-18-2.9c-4-0.1-5.5,2.3-3.8,6c0.7,1.4,1.4,2.8,2.2,4.2c1.2,1.8,1.5,4.1,0.8,6.1
			c-0.6,1.4-0.3,3,0.8,4.2c1.8,2.1,1.8,4.5,1.4,7c-0.7,4.1-0.9,8.3-0.5,12.5c0.4,3.3,1.7,4.2,4.9,3.3c2.4-0.7,4.7-1.6,7.1-2.4
			c8.9-3.2,18.1-5.1,27.5-5.7c0.7,0,1.7-0.6,2.1,0.2c1.1,2,2.7,1.2,4.1,0.8c8.4-2.1,17-3.6,25.5-5c6.1-1,12.2-2,18.3-3
			c1.2-0.2,2.1-0.4,2.1-2c0-2,0.1-2,2.1-2.2c7-0.7,14.1-0.4,21,0.8c4.5,0.8,8.8,2,13.3,2.8C213.6,96.1,215,94.8,215.1,90.1z
			 M104.8,103.5c-5.7,1.4-11.4,3.1-16.9,5.2c-5,1.8-5.6,1.5-5.6-3.8c0-3.2,0.2-6.5,0.7-9.7c0.5-2.7,0.4-5.3-1.5-7.6
			c-0.9-0.9-1.1-2.2-0.6-3.3c0.9-2.3,0.3-4.5-0.7-6.7c-0.6-1.2-1.3-2.4-1.9-3.7c-1.8-3.5-1-4.7,3-4.6c1.8,0.1,3.5,0.2,5.2,0.5
			c11.6,1.8,22.7,5,32.5,11.7l1.8,1.2c0.7,0.3,1,1.1,0.8,1.8c-0.6,2.7-0.8,5.5-0.8,8.3c0.1,2.8,0.5,5.6,1.2,8.3
			C116.3,101.4,110.5,102.2,104.8,103.5z M208.7,93.6c-4-0.8-7.9-1.7-11.9-2.5c-7.8-1.5-15.8-1.8-23.7-0.8c-0.3,0-0.6,0-0.9,0
			c-1.4-4.9-1.8-10-1.3-15c0.2-1,0.8-1.9,1.6-2.5c3.5-3.3,7.4-6.2,11.6-8.5c5.9-3.2,12.1-6,18.4-8.3c2.6-1,5.3-1.6,8.1-1.9
			c1-0.2,2-0.2,3,0.1c1.2,0.2,2,1.3,1.8,2.5c0,0.1-0.1,0.3-0.1,0.4c-0.3,1.3-0.8,2.5-1.5,3.6c-1.4,2.5-1.9,5-0.4,7.6
			c0.6,1.1,0.5,2.5-0.5,3.3c-2.1,2.3-2.2,4.9-1.4,7.8c0.9,3,1.5,6.1,1.7,9.2c0,0.3,0.1,0.5,0.1,0.8
			C213.7,93.6,212.9,94.4,208.7,93.6L208.7,93.6z"/>
		<path class="st48" d="M123.4,82.5c-0.1-1.3,1-1.8,2.2-2.2c5.7-2,11.5-3.4,17.5-4.3c6.6-1.1,13.2-1.6,19.8-1.4
			c1.6,0.1,3.3,0.2,5,0.3c1.1,0.1,1.7,0.4,1.6,1.7c-0.7,5.1,0.4,10.1,1.3,15.1c0.4,2.4,0.3,2.4-2,2.8c-11.4,2.1-23,3.5-34.3,6
			c-2.7,0.6-5.4,1.2-8.1,1.9c-1.4,0.4-2.1,0.1-2.4-1.3c-1.2-4.1-1.6-8.4-1.2-12.6C122.8,86.6,123.1,84.6,123.4,82.5z"/>
		<path class="st49" d="M341.3,55.1c-0.2-0.3-0.6-0.5-1-0.3c-1.1,0.4-2.3,0.6-3.5,0.7c-7.5,0.5-13.6-2.5-19-7.4
			c-0.6-0.4-0.9-1.2-0.5-1.9c0.1-0.1,0.1-0.2,0.2-0.2c1-1.4,1.8-3,2.4-4.7c1.1-2.5,0.9-5.4-0.4-7.8c-1.5-2.8-4.7-3-6.6-0.4
			c-0.8,1.1-1.2,2.3-1.2,3.6c-0.2,3.1,0.5,6.1,2.1,8.8c0.7,0.9,0.6,2.2-0.3,3c0,0-0.1,0.1-0.1,0.1c-3.6,3.6-7.6,6.7-12,9.3
			c-13.9,7.8-28.6,14-43.9,18.3c-6.3,1.6-12.4,3.8-18.3,6.4c-3.2,1.4-6.1,3.5-8.6,6c-0.8,0.9-1.5,1.8-2.1,2.9c-0.2,0.4-0.4,1,0,1.3
			c0.6,0.5,1-0.1,1.3-0.6c2.4-4.1,6.3-6.4,10.4-8.3c5.7-2.6,11.6-4.6,17.7-6.2c15.1-4.3,29.7-10.3,43.4-18c4.4-2.5,8.5-5.6,12.2-9.1
			c2.2-2.1,2.2-2.1,4.5-0.2c3.6,3,7.4,5.5,12.2,6.2c1.4,0.2,2.7,0.4,4.1,0.5c2.2,0.1,4.5,0.2,6.5-0.9
			C341.3,55.9,341.6,55.6,341.3,55.1z M315.7,45.6c-1.8-2.8-2.7-6-2.4-9.3c0.1-0.6,0.3-1.3,0.6-1.8c0.4-0.9,1.4-1.5,2.4-1.5
			c1,0.1,1.6,0.9,2,1.8c0.5,1.1,0.7,2.3,0.6,3.5C318.6,41,317.5,43.5,315.7,45.6z"/>
		<path class="st50" d="M291.3,97.4c0,0.5-0.5,1-1,1c-7.8,2.3-15,6.2-21.2,11.5c-0.4,0.3-0.9,0.9-1.4,0.3s0-1.1,0.5-1.4
			c1.8-1.4,3.6-2.8,5.5-4.2c4.3-3,9-5.4,14-7.1c0.9-0.3,1.8-0.5,2.7-0.7C290.8,96.7,291.2,96.9,291.3,97.4
			C291.3,97.4,291.3,97.4,291.3,97.4z"/>
		<path class="st51" d="M288.6,115.3c0.5,0.2,1.5,0.4,2.5,0.7c0.3,0.1,0.5,0.4,0.5,0.7c0,0,0,0.1,0,0.1c-0.1,0.2-0.4,0.4-0.6,0.4
			c-0.5,0-0.9-0.1-1.4-0.2c-5.4-0.8-10.8-1.3-16.2-0.5c-0.4,0.1-0.7,0.1-1.1,0c-0.2-0.1-0.5-0.2-0.5-0.5c0-0.3,0.1-0.5,0.3-0.7
			c0.9-0.3,1.8-0.5,2.7-0.6C279.3,114.4,284,114.6,288.6,115.3z"/>
		<path class="st52" d="M273,112.5c-0.4-0.3-0.6-0.6-0.3-0.9c0.4-0.4,0.9-0.6,1.4-0.8c3.8-1.4,7.7-2.6,11.6-3.4
			c0.5-0.2,1.1-0.2,1.6,0c0.3,0.1,0.5,0.3,0.5,0.6c0,0.3-0.2,0.5-0.4,0.7c-0.3,0.2-0.6,0.3-1,0.3c-4.2,0.8-8.2,2-12.2,3.4
			C273.8,112.4,273.4,112.7,273,112.5z"/>
		<path class="st53" d="M194.6,113.9c3.8,0.6,7.5,1.7,11.1,3.2c0.5,0.2,1,0.4,1.5,0.7c0.3,0.2,0.5,0.6,0.3,1
			c-0.2,0.6-0.7,0.5-1.1,0.3c-2.6-1.3-5.4-2.2-8.3-2.9c-3.3-0.9-6.7-1.4-10-2c-0.6-0.1-1.1-0.1-1.6-0.3c-0.3,0-0.5-0.3-0.5-0.5
			c0-0.4,0.2-0.7,0.6-0.8c0.7-0.2,1.5-0.2,2.2,0L194.6,113.9z"/>
		<path class="st54" d="M207.1,125.4c-0.1,0.5-0.6,0.9-1.1,0.9c-4.5,0.7-8.8,2-12.9,3.8c-0.5,0.2-1.1,0.4-1.4-0.2s0.3-1,0.8-1.3
			c1-0.5,2-0.9,3.1-1.3c3.3-1.2,6.7-2,10.2-2.6C206.3,124.8,207.1,124.6,207.1,125.4z"/>
		<path class="st55" d="M205,122.3c-0.1,0.3-0.5,0.5-0.9,0.4c-2.8-0.3-5.7-0.4-8.5-0.1c-0.4,0-1-0.1-1-0.7s0.4-0.8,0.9-0.9
			c2.9-0.3,5.9-0.2,8.8,0.2c0.4,0,0.8,0.4,0.7,0.8C205,122.2,205,122.2,205,122.3z"/>
		<path class="st56" d="M217.8,118.3c-0.2-3.2,1.9-4.5,5.2-5.4c11-3,22.5-4.3,33.9-3.7c2,0.1,2.1,0.2,2,2.3c-0.2,4.1-1,8.2-0.2,12.4
			c0.2,1.1-0.5,1.3-1.2,1.4c-2.2,0.3-4.4,0.7-6.6,1c-8.5,1.3-16.8,3.4-25.2,5c-2,0.4-4,0.7-6,1.1c-1.7,0.3-1.9,0.2-2.2-1.5
			C217,127.2,216.5,123.1,217.8,118.3z"/>
		<path class="st50" d="M200.1,65.8c-0.1,0.5-0.4,0.7-0.9,0.8l-3.4,1.1c-6.2,2-12.1,4.9-17.5,8.7c-0.3,0.2-0.6,0.4-0.9,0.6
			s-0.9,0.4-1.2-0.1c-0.2-0.3-0.1-0.8,0.3-1c0.5-0.4,1-0.8,1.5-1.2c6.1-4.3,12.9-7.5,20.1-9.4c0.4-0.1,0.9-0.2,1.3-0.2
			C199.8,65.1,200.1,65.3,200.1,65.8z"/>
		<path class="st57" d="M200,75.2c-0.1,0.2-0.3,0.4-0.5,0.5c-0.5,0.1-1.1,0.2-1.6,0.3c-5.6,0.5-11.1,1.9-16.2,4.1
			c-0.3,0.1-0.7,0.3-1,0.4c-0.3,0.1-0.6,0-0.7-0.2c-0.2-0.3-0.2-0.7,0-0.9c0,0,0.1-0.1,0.1-0.1c0.4-0.3,0.8-0.5,1.2-0.7
			c5.2-2.3,10.8-3.7,16.5-4.3c0.5-0.1,1.1-0.1,1.6,0C199.8,74.4,200.1,74.8,200,75.2z"/>
		<path class="st58" d="M194.9,84c1.2,0.2,2.4,0.5,3.5,0.8c0.8,0.2,2,0.2,1.7,1.3s-1.4,0.4-2.2,0.3c-2.1-0.3-4.2-0.6-6.3-1
			c-3.2-0.5-6.4-0.6-9.6-0.6c-0.4,0-0.7,0-1.1,0c-0.6-0.1-1.5,0.1-1.4-0.9c0-0.7,0.8-0.6,1.3-0.7c3.5-0.2,7-0.1,10.5,0.3
			C192.5,83.7,193.6,83.9,194.9,84L194.9,84z"/>
		<path class="st59" d="M111.8,93.3c-0.4,0.7-1,0.8-1.6,0.9c-2.9,0.8-5.8,1.8-8.5,3.2c-3.2,1.6-6.3,3.5-9.1,5.7l-1.6,1.2
			c-0.3,0.2-0.7,0.3-1,0.1c-0.4-0.4-0.2-0.9,0.1-1.2c0.3-0.3,0.6-0.7,1-0.9c5.6-4.5,12.2-7.7,19.1-9.5c0.3-0.1,0.7-0.2,1.1-0.2
			C111.7,92.6,111.8,92.9,111.8,93.3z"/>
		<path class="st60" d="M102.1,82.9c-3.5-0.7-7.1-1.1-10.6-1.3c-0.3,0-0.6,0-0.8,0c-0.7,0-1.5,0-1.4-0.9C89.3,80,90,80,90.6,80
			c2.4,0.2,4.8,0.2,7.2,0.5c4.1,0.6,8.2,1.4,12.2,2.5c0.4,0.1,1,0.2,1,0.8s-0.7,0.8-1.2,0.7C107.5,84.1,105.2,83.6,102.1,82.9z"/>
		<path class="st61" d="M108.2,88.3c0.8,0.2,1.2,0.2,1.5,0.3c0.3,0.1,0.5,0.3,0.5,0.6c0,0.5-0.3,0.7-0.7,0.7c-0.5,0.1-0.9,0.1-1.4,0
			c-4.3-0.5-8.6-0.4-12.9,0.3c-0.3,0-0.5,0.1-0.8,0.1c-0.6,0.1-1.2,0.1-1.3-0.7c-0.1-0.6,0.5-0.7,0.9-0.8
			C98.7,88,103.5,87.8,108.2,88.3z"/>
		<path class="st56" d="M125,84.9c0-2.1,1.2-2.9,3-3.4c3.1-0.9,6.3-1.5,9.5-2c8.4-1.4,16.8-2.3,25.3-2.6c0.2,0,0.4-0.1,0.6-0.1
			c4.4,0.3,3.6-0.2,3.6,3.6c0.1,3.3,0.4,6.6,0.9,9.9c0.3,2.3,0.3,2.3-1.8,2.6c-5.4,0.8-10.7,1.7-16.1,2.4c-7,0.9-13.8,2.2-20.6,4
			c-3.7,1-3.8,0.8-4.3-2.8C124.2,92.6,124.7,88.8,125,84.9z"/>
		<path class="st48" d="M235.9,118c0.7-3.2,2.4-4.7,5-4.2c2.1,0.4,4.1,3.5,3.6,5.8s-3.3,4.5-5.9,3.7S235.3,121,235.9,118z"/>
		<path class="st48" d="M151.2,88.2c-0.7,3.2-3.7,5.2-6.5,4.5c-2.7-0.8-4.2-3.6-3.5-6.3c0.8-2.9,3.7-4.6,6.6-3.9
			C150.3,83.1,151.9,85.6,151.2,88.2C151.2,88.1,151.2,88.2,151.2,88.2z"/>
		<path class="st62" d="M16.8,269.4c3.3-2.3,6.7-3.2,9.8-4.6c1-0.5,2.3-0.2,3,0.7c4.6,5,9,10.2,14,14.8c0.8,0.8,0.7,1.4,0.1,2.3
			c-2.1,3.2-4.5,6.3-7.1,9.1C29.6,284.5,23.6,276.7,16.8,269.4z"/>
		<circle class="st2" cx="21.9" cy="265.8" r="0.6"/>
		<circle class="st2" cx="44.6" cy="283.8" r="0.6"/>
		<circle class="st2" cx="42.2" cy="286.8" r="0.6"/>
		<circle class="st2" cx="39.5" cy="289.9" r="0.6"/>
	</g>
</g>
</svg>
