<?xml version="1.0" encoding="utf-8"?>
<!-- Generator: Adobe Illustrator 23.0.2, SVG Export Plug-In . SVG Version: 6.00 Build 0)  -->
<svg version="1.1" id="Layer_1" xmlns="http://www.w3.org/2000/svg" xmlns:xlink="http://www.w3.org/1999/xlink" x="0px" y="0px"
	 viewBox="0 0 322.5 491.9" style="enable-background:new 0 0 322.5 491.9;" xml:space="preserve">
<style type="text/css">
	.st0{fill:#F66B72;}
	.st1{fill:#020202;}
	.st2{fill:#050505;}
	.st3{fill:#060606;}
	.st4{fill:#0B0B0B;}
	.st5{fill:#E07476;}
	.st6{fill:#FFFFFF;}
	.st7{fill:#010000;}
	.st8{fill:#251314;}
	.st9{fill:#291516;}
	.st10{fill:#271415;}
	.st11{fill:#793F40;}
	.st12{fill:#E1F0FF;}
	.st13{fill:#FFD574;}
	.st14{fill:#FEFEFE;}
	.st15{fill:#7E7E7E;}
	.st16{fill:#110909;}
	.st17{fill:#8E494A;}
	.st18{fill:#FFFEFD;}
	.st19{fill:#974E4F;}
	.st20{fill:#050303;}
	.st21{fill:#120909;}
	.st22{fill:#020101;}
</style>
<title>Asset 231</title>
<g>
	<g id="Layer_1-2">
		<path class="st0" d="M105.4,168.8c-0.2-0.4-0.5-0.7-0.8-1.1c-9.9-8.8-15.8-19.9-19.2-32.4c-1.1-4.2-1.3-8.6-0.5-12.9
			c0.1-0.8,0.2-1.7,0.3-2.5c1.2-0.3,1.6,0.7,2.2,1.4c2.9,3.1,5.9,6.1,9,9.1c3.3,3.1,5.3,2.8,7.3-1.3c7.4-15.2,14.1-30.7,17.8-47.3
			c1.6-7.3,2.8-14.8,4.7-22c0.4-1.9,1.3-3.7,2.5-5.2c3.8-4.3,8.1-8.2,12.7-11.6c0.7-0.5,1.5-0.8,2.3-1c8.1-5.3,17.3-8.9,26.9-10.7
			c12.4-2.4,25.3-1.1,37,3.6c1.1,0.5,2.3,0.8,3.4,1c6.5,3.7,12.6,8.1,18.1,13.2c5.9,5.3,10.9,11.6,15.7,18c3.4,4.4,4.3,9.4,4.3,14.6
			c0.1,14.5,2,28.8,3.9,43.1c0.1,0.6,0.2,1.3,0.3,1.9c1.1,4.4,2.7,5.2,6.8,3.1c8.3-4.2,16.2-9,24-13.9c0.8-0.5,1.5-1.6,2.7-0.9
			c1.8,6.7,0.9,13.3-0.8,19.9c-3.1,11.9-10.8,20-21,26.1c-2,1.2-4.1,2.5-6.2,3.6c-0.7,0.4-1.5,0.7-1.6,1.7c-1.1-0.3-2.2,0.2-2.8,1.2
			c-6.3,2.8-12.7,5.1-19.1,7.5c-2.3,0.9-4.6,1.8-6.9,2.8c-1.1,0-1.6-0.8-2.3-1.4c-5.4-5.6-12.1-9.1-19.8-9.6
			c-4.9-0.3-9.7,1.4-13.3,4.6c-5.6,4.9-9.7,11.4-11.7,18.6c-0.3,0.9-0.1,2.2-1.6,2.2c-1.6-0.5-3.3-0.6-4.9-0.5
			c-21.4,0.2-40.9-6.4-59.5-16.2c-2.5-1.2-4.9-2.7-7-4.5C107.6,170,107.6,168.1,105.4,168.8z"/>
		<path d="M254.3,167.1c0-0.8-0.1-1.8,0.9-2.1s1.2,0.9,1.8,1.3c1.6,3.8,3.8,7.2,6.6,10.1c8.2,8.4,15.5,17.7,22.8,27
			c6.8,8.6,14.1,16.8,21.2,25c5.9,6.8,9.9,15.1,11.5,24c1,5.2,0.9,10.6-0.3,15.7c-1.1,5-2.9,9.8-5.4,14.2c-2.4,4.4-6.9,7.3-11.9,7.8
			c-4.8,0.7-9.6,0.7-14.4,0c-1.6-0.3-2.6,0.1-3.3,1.7c-0.3,0.8-0.8,1.5-1.4,2c-1.7,1.1-1.2,2.3-0.8,3.8c3.6,11.4,7.2,22.8,10.8,34.2
			c1.2,4.4,1.8,8.9,1.7,13.4c0.1,18.5-4.2,36.2-8.9,53.9c-3.1,11.7-6.3,23.4-9.4,35.2c-0.5,1.9-0.8,3.8-1.1,5.7s-1.8,2.1-3.3,2.5
			c-6.2,1.4-12.6,1.9-18.9,2.7c-6.6,0.8-13.2,0.9-19.8,1.6c-1.7,0.2-3.5,0.3-5-1.1c-1.6-2.6-1.6-5.9-3.1-8.6
			c-6-10.4-12.9-20.3-20.7-29.6c-3.5-4.2-6.8-8.6-10.7-12.4c-2.1-2-2.4-2-3.8,0.5c-3.5,5.7-7.5,11-12.1,15.9
			c-9,9.9-18.3,19.4-27.7,28.9c-3.3,3.3-6.9,6.2-11.8,6.9c-4.1,1.3-8.1,0.3-12.1-0.2c-7.4-1-14.9-1.6-22.3-1.8
			c-2.4,0-3.2-1.4-3.3-3.5c-1.6-29.8-7.6-58.5-19.2-86.3c-1,1.8-1.3,3.6-2,5.2c-0.4,1.1-0.8,2.3-1.2,3.4c-0.4,1-0.8,2-2,2.1
			s-1.8-0.8-2.3-1.7c-1-1.8-2-3.5-3.1-5.3c-0.3-0.4-0.3-1.1-1.1-1.2c-0.9,1.8-1.7,3.6-2.6,5.4c-0.4,0.8-0.8,1.4-1.4,2
			c-0.7,0.9-2.1,1.1-3,0.4c-0.1-0.1-0.3-0.2-0.4-0.4c-0.4-0.4-0.7-0.9-1-1.4c-2.8-6.2-6.1-12.1-8.3-18.5c-0.6-1.3-0.7-2.7-0.3-4.1
			c1.4-1.6,3.1-0.8,4.7-0.4c5.1,1.4,10.5,1.5,15.7,0.2c4.7-1.1,4.8-1.5,4.3-6.3c-0.6-4.2-0.9-8.5-1-12.7c0.1-4.7,0.5-9.4,1.3-14.1
			c0.3-2.2-0.3-3.1-2.5-3.6c-9.4-2.2-18.4-5.6-27-10c-2-1.1-4.3-2-5.4-4.2c-2.3-2.3-2.7-4.9-1.8-7.9c0.4-1.2,0.6-2.5,1.1-3.7
			c0.9-2.3,1.6-2.5,3.6-1.1c0.4,0.4,0.9,0.5,1.4,0.5c0.7-3.6,1.5-7.2,2.5-10.7c2.6-9.3,6.3-18.2,10.2-27c6-13.8,13.1-27,21.3-39.6
			c7.5-11.3,16.1-21.8,24.7-32.2c0.1,0,0.2,0,0.3-0.1c0.6-0.6,1.2-1.2,2.2-0.6c1.1,0.7,0.7,1.6,0.3,2.4c0.1,1.2-0.8,1.9-1.5,2.6
			c-2.4,2.3-4.2,5.2-6.5,7.6c-1.5,1.6-0.9,2.6,0.9,3.3c14.1,6.1,28.4,11.8,43.5,15.1c6.9,1.5,13.8,2.9,20.7,4c5.9,1,9.4-2.4,13-5.9
			c0.6-0.8,0.8-1.7,0.8-2.6c0.1-0.9-0.1-1.9,0.9-2.4c0.8-3.6,2.1-7.1,3.9-10.3c3.3-6.4,7.8-11.7,14.8-14.4c3.9-1.5,8.2-1.7,12.3-0.5
			c6.7,1.7,12.7,5.5,17.1,10.8c2.3,1,2.5,3.3,3,5.3c0.4,1.8,1.2,2,2.7,1.3c7-3.2,14.1-6.2,21.1-9.4c1.7-0.8,1.9-1.6,1-3.2
			C255,170.3,253.7,169,254.3,167.1z"/>
		<path class="st0" d="M244.5,6.3c2.1-1.8,4.5-3.3,6.8-4.8c2.5-1.7,5.8-1.9,8.4-0.4c2.6,1.3,4.9,3,7,4.9c7.9,7,13.9,15.4,19.4,24.3
			c4.3,7,9.2,13.7,14.8,19.8c7.5,8.1,14.4,16.7,20.8,25.7c-1,1.4-1.7,3.1-2.2,4.8c-1.1,4.3-3.7,7.9-6.6,11.2
			c-4.2,4.8-8.9,9-14.1,12.5c-11.6,7.8-23,15.7-35.3,22.2c-1.3,0.7-2.6,1.4-4,2c-2.9,1.3-3.9,0.8-4.8-2.3c-0.3-1.3-0.6-2.5-0.7-3.8
			c-1.3-11.1-2.7-22.2-3.2-33.5c-0.5-11-1.3-22-2-33c-0.9-14.5-3.4-28.9-4.1-43.5C244.6,10.3,243.9,8.3,244.5,6.3z"/>
		<path class="st0" d="M57.9,53.9c8.8-7.1,18.3-13.3,28.3-18.6c7.6-4.4,15.6-8.1,23.9-11.2c4.1-1.5,8.3-2.6,12.5-3.7
			c1.8-0.5,3.8-0.1,5.2,1.1c1.2,0.9,2.2,2,3.2,3.1l3.5,3.9c-1.9,5.6-4.1,11.1-5.9,16.8c-3.4,11.4-6.2,22.9-8.4,34.6
			c-1.7,9.3-4.9,18.2-8.4,27c-2.8,7.1-6,14-9.2,20.9c-1.8,3.8-2.2,3.8-5.4,1.2c-5.7-4.6-10.1-10.3-14.3-16.2
			C75.4,102.5,68.4,92,63.5,80.3c-3.1-7.4-5.6-15.1-5.9-23.3C57.7,56,57.7,54.9,57.9,53.9z"/>
		<path class="st0" d="M42.3,290.7c10.4,6.9,22,10.9,34,13.7c2.4,0.5,2.4,0.5,1.9,2.8c-1.7,9.1-1.9,18.4-0.6,27.6
			c0.1,1.3,0.3,2.6,0.5,3.9c0.4,1-0.1,2-1,2.4c-0.1,0-0.2,0.1-0.4,0.1c-6.6,2.6-13.9,2.8-20.7,0.6c-1.2-0.4-2.4-1-3.7-0.1
			c-0.1-2.7-1.3-5.2-2-7.8c-3.4-11.8-5.8-23.9-7.1-36.2C43.1,295.4,42.7,293,42.3,290.7z"/>
		<path class="st0" d="M213.3,34.9c1.2-0.8,2.3-1.8,3.3-2.9c7.8-8.5,16.2-16.4,25.1-23.8c0.2-0.1,0.3-0.2,0.5-0.2
			c1.9,3.3,1.6,7,1.8,10.6c0.4,9.2,1.8,18.2,2.7,27.4c0.6,5.8,0.7,11.6,1.3,17.4c0,0.6,0,1.1-0.1,1.7c-0.3,1.5-1,1.9-2.2,0.8
			c-0.6-0.7-1.2-1.4-1.7-2.2c-7.8-10.7-17.5-19.8-28.6-26.9C214.5,36.2,213.5,36,213.3,34.9z"/>
		<path d="M213.3,34.9c1,0.2,1.9,0.7,2.7,1.4c11.2,7.2,20.9,16.4,28.8,27.1c0.6,0.9,1.3,1.7,2.4,3.1c0-1.3,0-2,0-2.6
			c-0.5-11-1.7-22-2.9-32.9c-0.6-5.5-0.9-11.1-1.4-16.6c-0.2-2.1-0.4-4.2-0.7-6.3l1.9-1.5c0.2,0,0.3,0,0.4-0.2h0.1
			c0.9,3.9,1.4,7.8,1.5,11.8c0.4,6.7,1.3,13.3,2,19.9c0.8,7.2,1.5,14.4,1.9,21.6c0.7,11.8,1.3,23.7,1.9,35.6
			c0.6,9.9,1.7,19.8,3.3,29.6c0.8,5.1,1,4.6,5.1,2.5c11.1-5.9,21.9-12.5,32.3-19.7c5.8-4,11.7-7.9,16.7-12.9
			c4.7-4.7,8.7-9.9,10.2-16.6c0.3-1.3,0.6-2.4,2.2-2.2c1.4,1.1,0.8,2.5,0.4,3.8c-1.6,6.6-5.5,11.8-10.1,16.6
			c-5.7,5.9-12.5,10.4-19.3,14.9l-6,4c-7.2,4.8-14.6,9.2-22.1,13.3c-2.1,1.2-4.3,2.3-6.5,3.1c-2.3,0.8-3.7,0.2-4.7-2
			c-0.6-1.3-1-2.6-1.1-4c-1.9-14-3.7-28.1-3.9-42.3c0-2.7-0.3-5.4-0.5-8.1c-0.2-2.3-1.4-4.2-2.7-6c-3.3-4.9-7.1-9.5-11.1-13.9
			c-6.3-6.6-13.3-12.4-20.9-17.3c-0.8-0.5-1.9-0.9-2.2-2C211.7,35.8,212.6,35.4,213.3,34.9z"/>
		<path d="M57.9,53.9c0.2,0.3,0.3,0.7,0.3,1c0.5,11.4,4,22,9.2,32c6.2,12,13.8,23.4,22.5,33.7c2.9,3.5,6.2,6.6,9.7,9.4
			c0.9,0.1,1-0.3,1.2-0.6c6.5-12.9,11.9-26.3,16.3-40.1c1.9-6.3,2.7-12.9,4.1-19.3c2.7-12.9,6.4-25.5,11-37.8
			c0.5-1.3,0.7-2.9,2.1-3.8l1.5,1.9c0.4,1,0.4,2.2-0.1,3.2c-2.2,4.6-3.4,9.5-5,14.3c0,0.2-0.3,0.3-0.1,0.5s-0.2,0,0.2-0.2
			c2.4-2.6,5-5,7.8-7.1c0.9-0.7,1.6-1.8,3.1-1.5l1.7,2.2c-0.9,1-1.9,1.8-3,2.5c-4,3.1-7.8,6.6-11.2,10.4c-1.3,1.4-2.1,3-2.6,4.8
			c-1.9,7.5-3.3,15.2-4.9,22.8c-1.7,8.2-4.2,16.1-7.5,23.8c-3.2,7.9-6.4,15.8-10.3,23.4c-0.3,0.6-0.5,1.2-0.8,1.8
			c-1.3,2.1-3.1,2.6-5.2,1.4c-0.9-0.6-1.8-1.3-2.6-2c-3.6-3.4-7.1-7-10.3-10.8c-5-6.7-9.9-13.4-14.2-20.5s-8.5-14.3-11.2-22.2
			c-2.1-6.3-3.6-12.8-4.5-19.4C55,55.5,56.6,54.9,57.9,53.9z"/>
		<path class="st0" d="M236.1,459.4c-2.8-3.6-5.2-7.6-7.2-11.7c-0.8-0.8-2.1-1.3-1.1-2.8c0.8,1.1,2,1.1,3.2,1.1
			c5.3-0.4,10.5-0.7,15.8-1.1c7.4-0.6,14.9-1.5,22.3-2.7c1.1-0.2,2.2-0.5,3.3-0.6c1-0.2,1.9-0.7,2.5-1.5c0.5,2.2,0.1,4.4,0.1,6.5
			c-0.7,2.2-0.6,4.5-1.4,6.6c-0.3,0.8,0.1,1.2,1,1.2s1.8-0.4,2.6,0.4c-0.7,1-1.8,0.9-2.8,0.9c-9.8,0.3-19.5,1.1-29.2,2.2
			C242,458.4,239.1,459,236.1,459.4z"/>
		<path class="st0" d="M135.8,450.1c-2,2.4-3.9,4.9-5.4,7.6c-0.5,0.9-0.8,1.9-0.7,2.9c0.2,1.1,0.1,2.2-0.4,3.2c-1-4.3-4.2-4-7.6-4
			c-8.8,0-17.7,0.4-26.5-0.5c-1.1-0.1-2.2,0-3.1-0.8l2-3.9c2.2-3,4.1-6.3,5.7-9.6c0.3-0.9,0.5-1.9,0.6-2.9c1.1,2.7,1.3,2.8,4.3,2.8
			c6.6,0.1,13.3,0.6,19.8,1.6c2.7,0.4,5.3,0.6,8,0.8c2,0.1,4,0,6-0.3C138,448.3,137.1,449.5,135.8,450.1z"/>
		<path class="st1" d="M14.3,69.3c-0.2-8.1,0.2-16.1,1.2-24.1c0.3-2.6,0.9-5.1,1.6-7.6c0.1-0.5,0.3-1,0.6-1.5
			c0.3-0.4,0.8-0.5,1.2-0.4c0.4,0.1,0.6,0.5,0.6,0.8c0,0.6-0.1,1.1-0.2,1.6c-1.6,7.3-2.5,14.8-2.6,22.3c-0.5,15.1,0.3,30.2,2.3,45.2
			c0.6,4.3,1.6,8.6,2.9,12.7c0.5,2,1.4,3.8,2.6,5.5c0.4,0.4,0.6,1,0.1,1.5s-1.2,0.4-1.7-0.1c-0.8-0.8-1.4-1.7-1.8-2.8
			c-1.8-4.2-3.1-8.5-3.9-13c-1.1-6.4-1.8-12.9-2.2-19.3C14.5,83.2,14.2,76.3,14.3,69.3z"/>
		<path class="st0" d="M141.9,39.7c-3.9,2.8-7.6,6-11.1,9.4c-0.6,0.1-0.8-0.1-0.7-0.7c1.2-4.9,2.8-9.7,4.8-14.4
			c0.5-1.2,0.9-2.4,1.1-3.7C138.2,33.3,140.1,36.4,141.9,39.7z"/>
		<path class="st2" d="M313.2,127.9c-0.2,1.1-0.3,2.2-0.6,3.3c-2.1,7.2-4.8,14.3-8.1,21c-0.6,1.4-1.6,2.7-2.7,3.8
			c-0.4,0.4-1,0.7-1.5,0.2c-0.5-0.4-0.5-1-0.2-1.5c0.6-1,1.4-2,1.9-3.1c3.7-7.7,7.2-15.4,9-23.8c0.2-0.8,0.2-1.6,1.3-1.4
			C313.2,126.5,313,127.3,313.2,127.9z"/>
		<path class="st3" d="M2.4,103.1c0.4,5,0,10,0.8,15c0.1,0.7,0.2,1.7-0.8,1.8s-1.3-0.8-1.4-1.7c-0.2-2.7-0.5-5.3-0.6-8
			c-0.3-6.2-0.8-12.5,0-18.7c0.1-1-0.3-2.7,1.2-2.7c1.8,0,1,1.8,1.1,2.9C2.7,95.5,2.1,99.3,2.4,103.1z"/>
		<path class="st4" d="M318.8,144.3c-0.1,0.2-0.2,0.4-0.3,0.6c-1.7,2.8-3.3,5.6-5.1,8.3c-0.6,0.9-1.2,2.4-2.4,1.7s0-1.9,0.5-2.8
			c1.5-2.5,3-4.9,4.5-7.3c0.4-0.5,0.8-1,1.3-1.4c0.3-0.2,0.7-0.2,1,0C318.7,143.5,318.9,143.9,318.8,144.3z"/>
		<path class="st5" d="M244.4,6.3c-0.1,0.3-0.2,0.3-0.4,0.2C244,6.1,244.2,6.1,244.4,6.3z"/>
		<path d="M199.4,140.5c-0.1,0.1-0.1,0.3-0.1,0.5c0.1,0.6,0.4,0.1,0.6,0.1c4.6-1.9,8-5.3,11.4-8.8c2.1-2.2,3.9-4.6,6.2-7.2
			c-1.8-0.4-3.1-0.8-4.5-0.6c-0.8,0.1-1.5-0.1-1.6-1.1s0.6-1.5,1.6-1.6c2.7-0.4,5.4,0.3,7.7,1.8c2.4,1.8,4.5,3.9,6.3,6.3
			c0.3,0.4,0.5,0.8,0.7,1.2c0.3,0.7,0.4,1.5-0.4,2c-0.6,0.4-1.5,0.3-1.9-0.4c0,0,0-0.1-0.1-0.1c-1.1-1.5-2.3-2.9-3.6-4.3
			c-0.3-0.3-0.6-0.5-0.8-0.7c-1,0-1,0.9-1.2,1.4c-5.1,13.2-14.3,23.5-24.1,33.4c-2.9,3.1-6,5.9-9.3,8.4c-0.7,0.6-1.5,1.1-2.3,1.5
			c-2,1-4.4,0.6-5.9-1c-1.1-1.2-2-2.7-2.7-4.2c-1.5-3-3.1-5.9-4.7-8.8c-0.8-1.5-2.3-2.6-4.1-2.9c-11.2-2.7-18.6-9.7-22-20.6
			c-1.8-5.8-1.7-12,0.3-17.8c0.8-2.3,0.2-2.2-1.3-2.8c-3.3-1.3-6.6-2.4-10.3-1.2c-0.5,0.2-1.2,0-1.4-0.6c-0.3-0.6-0.2-1.3,0.4-1.7
			c0.7-0.6,1.7-0.9,2.6-0.9c2.6-0.2,5.2,0.1,7.7,0.9c0.7,0.4,1.5,0.6,2.3,0.6c-0.5-2.6-1.1-5.2-1.5-7.8c-0.9-5.3-0.6-10.8,0.8-16
			c0.5-1.9,1.4-3.6,2.6-5.2c2.9-3.9,7.2-4.9,11.6-2.6c2.4,1.4,4.5,3.3,6.1,5.6c2.1,2.9,3.7,6,4.9,9.3c0.5,1.4,1,2,2.7,1.9
			c4.4-0.2,8.8,0.6,12.8,2.3c0.8,0.5,1.8,0.8,2.7,1c0.4-2,0.8-3.9,1.3-5.9c0.9-4.4,2.7-8.5,5.2-12.2c2.3-3.3,5.2-6,9.6-5.8
			c4.6,0,9,2.3,11.7,6c2.7,3.7,4.6,7.9,5.7,12.3c0.6,2.2,1.1,4.5,1.7,6.7c0.9,0.2,1.1-0.5,1.5-0.9c2-2.1,3.8-4.3,5.3-6.8
			c0.5-0.8,1.1-1.7,2.2-1s0.8,1.6,0.4,2.5c-0.2,0.5-0.5,1-0.9,1.4c-6.9,10.2-16.3,16.3-28.8,17.1c-0.5,0-0.9,0.1-1.4,0.2
			c-0.3,0.1-0.5,0.2-0.7,0.4c3.6,8.7,3.7,17.4-0.5,26C199.6,140,199.5,140.3,199.4,140.5z"/>
		<path class="st6" d="M180,192.1c0.2,3.9-1.6,6.5-4.7,9c-2.9,2.3-6.7,3.2-10.3,2.6c-7.3-1-14.6-2.4-21.8-4.2
			c-14.9-3.4-28.9-9-42.8-15c-0.8-0.4-1.6-0.8-2.4-1.3c0.9-2.1,6.6-9.1,10.3-12.6c15.9,10.4,33.6,16.4,52.2,19.8
			c5.7,0.9,11.4,1.1,17.1,0.8C178.4,191.1,179.6,190.6,180,192.1z"/>
		<path class="st6" d="M254.3,167.1l3.6,7.2l-26.8,11.9c-0.6-3.1-1.3-6.1-3-8.6c0.3-0.6,0.9-1,1.5-1.1L254.3,167.1z"/>
		<path d="M144.8,52.4c0.8,0,1.7,0.1,2.4,0.5c3.5,1.5,6.6,3.8,9,6.8c1.6,2,0.8,3.5-1.8,3.7c-2,0-4.1,0.3-6.1,0.7
			c-3.2,0.7-6,2.6-7.8,5.4c-0.5,1-1.3,1.8-2.2,2.5c-0.7,0.6-1.8,0.7-2.6,0.2c-0.8-0.5-1.1-1.6-0.8-2.4c1.2-3.6,1.6-7.4,3-11
			c0.5-1.5,1.3-2.9,2.2-4.2C141.3,53.1,143,52.3,144.8,52.4z"/>
		<path class="st7" d="M203.2,49.7c5.4-0.3,10.1,2.2,14.3,5.8c1.9,1.7,1.5,5.7-0.6,7.1c-0.8,0.6-1.8,0.5-2.6-0.1
			c-1-0.7-1.9-1.4-2.8-2.3c-3.1-3.1-7.4-4.7-11.8-4.6c-1.4,0-2.8-0.1-4.1-0.5c-1.4-0.3-1.7-1.3-1-2.5c0.9-1.3,2.3-2.2,3.9-2.5
			C200,49.8,201.6,49.7,203.2,49.7z"/>
		<path class="st8" d="M132.4,139.9c0.1,1-0.7,2.1-1.5,2c-0.6,0-1.2-0.5-1.2-1.2c0,0,0-0.1,0-0.1c0-0.9,0.6-1.6,1.4-1.8
			C131.9,138.8,132.3,139.3,132.4,139.9z"/>
		<path class="st9" d="M118.1,137.2c0.7,0.1,1.3,0.7,1.2,1.5c0,0,0,0.1,0,0.1c-0.1,0.7-0.4,1.3-1.2,1.3s-1.2-0.8-1.2-1.6
			C116.9,137.8,117.5,137.3,118.1,137.2z"/>
		<path d="M240.8,130.6c0.9,0,1.5,0.7,1.6,1.6c0.1,0.4-0.1,0.9-0.5,1c-0.1,0-0.2,0.1-0.4,0c-0.8,0.1-1.6-0.6-1.6-1.4c0,0,0,0,0,0
			C239.8,131.1,240.2,130.7,240.8,130.6z"/>
		<path class="st10" d="M256.4,138c-0.2,0.7-0.8,1.2-1.6,1.2c-0.5,0.1-0.9-0.3-0.9-0.7c0-0.1,0-0.2,0-0.3c0-0.7,0.7-1.3,1.4-1.2
			c0,0,0.1,0,0.1,0C256,137,256.4,137.5,256.4,138C256.4,138,256.4,138,256.4,138z"/>
		<path d="M241.2,149.2c-0.1,0.8-0.4,1.2-1.1,1.1c-0.6,0-1.1-0.5-1.1-1c0-0.6,0.5-1.1,1-1.1c0,0,0.1,0,0.1,0
			C241,148.3,241.1,148.8,241.2,149.2z"/>
		<path class="st9" d="M124.6,153.4c0.1,0.5-0.3,1-0.8,1.1c-0.1,0-0.1,0-0.2,0c-0.7,0-1.2-0.3-1.2-1.1c0-0.6,0.4-1,1-1
			C124,152.3,124.6,152.7,124.6,153.4C124.6,153.4,124.6,153.4,124.6,153.4z"/>
		<path class="st11" d="M199.9,141.1c-0.2,0.4-0.5,0.6-0.8,0.3c-0.1-0.1,0-0.3,0.3-0.4L199.9,141.1z"/>
		<path class="st11" d="M199.4,140.5c-0.1-0.3,0.1-0.6,0.4-0.7C199.9,140.1,199.7,140.4,199.4,140.5z"/>
		<path class="st6" d="M271.3,287.4c-0.4,0.7-0.7,1.5-1.2,2.2c-0.8,1.2-0.4,2.1,0.7,2.7c1.8,1.1,3.8,2,5.8,2.6c1,0.2,1.8,1,2,2
			c0.7,2.6,1.5,5.2,2.3,7.7c2.9,9.5,5.9,18.9,8.8,28.4c0.7,2.4,1.2,4.9,1.5,7.3c0.1,1.2-0.2,1.7-1.4,1.8c-3.4,0.3-6.9,0.5-10.3,0.5
			c-19.8,0.1-39.5-0.6-59.3-0.9c-14.9-0.2-29.7,0-44.5,1c-13.6,0.9-27.2,2.2-40.7,4.1c-12.7,1.8-25.2,4.6-37.6,7.4
			c-3.7,0.8-7.5,1.4-11.2,2.2c-1.5,0.3-2-0.2-2.3-1.5c-1.1-4.3-1.9-8.7-2.4-13.1c-1.1-8.1-2-16.2-1.5-24.4c0.3-5.7,1.3-11.4,3-16.9
			c1.3-4.3,3.9-7.7,7-10.9c5.3-5.4,10.7-10.9,15.7-16.6c4.3-5.1,8-10.7,10.9-16.8c0.5-0.8,0.8-1.7,0.9-2.6c0.1-0.7-0.2-1.3-0.9-1.6
			c-0.6-0.3-1.4,0-1.7,0.6c-0.2,0.3-0.3,0.7-0.5,1c-4.4,9.2-10.4,17.6-17.8,24.7c-3.5,3.5-6.9,7-10.3,10.6c-1.5,1.4-2.7,3.1-3.7,4.9
			c-0.4,0.9-0.8,1.2-1.9,0.7c-9.3-4.6-19-8.4-28.3-13.1c-3.3-1.7-3.3-1.6-2.6-5.2c0.9-4.5,2.1-8.8,3.6-13.1
			c7.7-21.9,18-42.7,30.6-62.2c3.4-5,7-9.8,10.9-14.5c0.7-0.8,1.2-1.4,2.5-0.7c16.5,8.1,33.9,14.2,51.8,18c5.6,1.2,11.3,2.6,17,2.7
			c2.8-0.2,5.5,1.1,7.2,3.4c1.8,2.3,3.7,4.6,5.7,6.8c0.6,0.6,0.7,1.5,0.5,2.3c-1.7,9.9-3.3,19.7-4.6,29.7
			c-1.3,9.2-2.6,18.4-3.9,27.5c-0.5,2.8,0.1,5.6,1.7,8l12.6,18.6c0.2,0.2,0.3,0.4,0.5,0.7c1.9,2.3,3.4,2.3,5.1-0.1
			c1.2-1.4,2.1-3.1,2.8-4.8c2.2-6.7,5.6-12.9,8.6-19.3c0.9-1.8,1.1-3.9,0.5-5.9c-2.8-11.2-5.1-22.6-7.5-33.9
			c-1.3-5.9-2.3-11.8-3.1-17.7c0.8-0.6,1.3,0,1.8,0.2c3,1.3,6.2,1.9,9.5,1.6c1.1-0.2,2.2,0.3,2.8,1.2c2,2.8,4.5,5.2,7.4,7.1
			c1.5,1.1,3.2,2,5,2.4c5.2,1.2,9.1,4,10.9,9.2c3.1,9.4,8.3,17.9,15.3,24.8c6.3,6.1,13.4,11.2,21.1,15.2
			C267.8,284.8,270.1,285.3,271.3,287.4z"/>
		<path class="st6" d="M185.4,395.5c-3.4,5.1-7.2,9.9-11.4,14.4c-8.3,8.9-16.7,17.6-25.1,26.4c-1.9,1.9-3.9,3.7-6.1,5.2
			c-2.8,2-6.3,2.9-9.7,2.6c-4.1-0.3-8.1-0.6-12.2-1.3c-5-0.8-10.1-1.2-15.3-1.2c-2.4,0-2.5,0-2.5-2.4c-0.1-8.4-1.6-16.6-2.7-24.9
			c-1.8-12.5-4.5-24.8-8.2-36.9c-0.9-2.9-0.9-3,2.1-3.8c10.3-3,20.8-5.3,31.4-7.2c21-3.8,42.1-4.1,63.2-2.8
			c20.7,1.3,41.5,1.6,62.3,0.8c7.5-0.3,15-0.5,22.5-1.2c4.5-0.4,9-1.1,13.5-2.1c1-0.2,2-0.4,3.2-0.6c-0.3,3.8-0.9,7.6-1.7,11.4
			c-2.3,12.3-5.7,24.4-8.9,36.5c-2.2,8.3-4.5,16.6-6.7,25c-0.2,0.7-0.4,1.4-0.5,2.2c-0.7,3.3-0.7,3.3-4.1,3.9
			c-8.2,1.3-16.4,2.1-24.6,2.9c-3.8,0.4-7.6,0.6-11.4,1c-1.3,0.1-2-0.1-2.3-1.6c-1.1-4.1-2.9-8.1-5.3-11.6
			c-7.7-12.1-16.4-23.5-25.9-34.1c-1.4-1.5-2.8-3-4.3-4.6c0.5-0.5,1.1-0.9,1.8-1c5.9-2.6,11.1-6.4,16.1-10.4c0.4-0.3,0.7-0.6,1-1
			c0.4-0.5,0.4-1.3,0-1.8c-0.4-0.5-1.2-0.7-1.8-0.3c-0.6,0.4-1.2,0.8-1.8,1.3c-6.6,5.6-14.2,9.8-22.5,12.4c-7,2.3-13.7,5.1-20.9,6.7
			c-0.4,0.1-0.9,0.3-1.3,0.5c-0.4,0.3-0.6,0.7-0.5,1.2c0.1,0.5,0.4,0.8,0.9,0.9c1,0.1,2,0,3-0.3c5.4-1.3,10.7-3.1,15.9-4.9
			C185.3,394.7,185.6,394.9,185.4,395.5z"/>
		<path class="st0" d="M271.3,287.4c-7.3-3.9-14.5-7.7-20.9-13c-9.4-7.7-16.8-17-20.7-28.6c-1.6-4.9-4.4-8.5-9.3-10.3
			c-0.6-0.1-1.2-0.5-1.6-1c4.3-2.7,6.9-6.8,9.4-11.1c3.6-6.1,5.4-12.9,7.4-19.6c0.2-0.7,0.2-1.5,0-2.2c3-2.3,6-0.8,9,0.1
			c2.5,0.8,4.5,2.5,6.8,3.8c7.2,4.4,14.7,8.3,22.3,12c5.3,2.6,10.5,5.5,15.8,8.2c3.4,1.8,6.8,3.9,8.6,7.6c0,0.2-0.1,0.4-0.1,0.5
			c-4.6,9.2-8.1,18.8-12,28.3C282,271.2,276.6,279.3,271.3,287.4z"/>
		<path class="st12" d="M306.9,458.3c-1.3-4.1-4.4-6.3-8.1-7.7s-8.1-1.8-12.2-2.3c-3.3-0.4-6.7-0.6-10-0.5c-0.9,0-1.4-0.2-1.6-1.1
			c-2.1,1.3-1.2,3.6-1.9,5.4s0,3,2.1,3.2c0.5,0.1,1.1,0.2,1.5,0.5c1.7,1.1,3.3,2.4,4.8,3.8c0.9,0.8,2.1,1.5,1.7,2.9s-1.9,1.2-3,1.4
			c-11.1,1.1-22.3,1.8-33.4,3c-6.7,0.7-7.1,0.3-9.9-6.3c-0.1-0.3-0.2-0.5-0.3-0.8c-2.1-3.7-4.7-7.2-6.6-11c-0.3-0.6-0.7-1-1.3-1.3
			c0.1,0.2,0.1,0.3,0.1,0.5c-2.6,0-5.2,0.1-7.8,0c-10.4-0.3-20.7,0.5-31,0.7c-5,0.1-10,0-14.9,0.5c-4.5,0.5-9.1,0.1-13.5,0.6
			s-8.7,0-13,0.6c-4,0.5-7.9,0.2-11.9,0.6c-0.6,0.1-0.8-0.1-1-0.6c0.1-0.1,0.2-0.2,0.2-0.3c-1.3,0-1.9,1.1-2.6,2
			c-3,3.6-5,7.6-4.9,12.4c-0.1,0.5-0.2,1.1-0.2,1.6c-0.3,3.5-0.7,4-4.2,4c-3.2,0-6.3,0.4-9.4,0.5c-9.7,0.5-19.4,1.1-29.1,2
			c-1.1,0.1-2.4,0.5-3-0.7s0.4-2.1,1.2-2.9c3-3,5.8-6.3,8.3-9.7c0.7-1.5,2.3-2.7,1.8-4.7c-1.3-0.2-2.6,0.4-3.8,0.6
			c-5.5,0.9-10.8,2.5-15.8,5c-4.3,2.1-8,5.4-10.7,9.5c-3.4,5.5-2.7,13,3.6,17c5.4,3.4,11.4,4.8,17.6,5.1c4.9,0.3,9.8,0,14.7,0.1
			c4,0.2,8-0.1,11.9-0.7c10.2-1.8,20.3-3.9,30.4-5.8c6.9-1.3,13.8-2.5,20.7-3.6c4.4-0.7,8.8-1.2,13.1-1.9c4.1-0.6,8.2-1,12.4-1.4
			c4.5-0.5,9-0.9,13.5-1.3c4.6-0.4,9.2-1,13.8-1c0.6,0,1.3,0,1.9-0.1c4.7-0.8,9.4-0.9,14.1-0.3c5.4,0.5,10.7,0.5,16,0.8
			c6.3,0.5,12.7,0.6,19.1,0.2c3.6-0.3,7.2-0.1,10.8-0.5c4.8-0.5,9.5-1.2,14.2-2.3c5.4-1.3,10.2-4.2,13.7-8.4
			C307.2,463.6,307.7,460.8,306.9,458.3z"/>
		<path class="st6" d="M297.8,233.4c-5.3-5.9-12.5-8.8-19.3-12.4c-8-4.2-16.3-8.1-24.1-12.6c-2.3-1.4-4.6-2.8-6.8-4.3
			c-3.5-2.5-7.9-3.4-12.1-2.5c-1.1-0.8-2.3-0.4-3.5-0.5L229,201c-0.5-1,0.1-1.6,0.4-2.2c1-2.3,1.5-4.8,1.6-7.3
			c-0.1-1.4,0.8-2.7,2.1-3.1c4.4-1.8,8.6-3.8,13-5.6c3.8-1.6,7.7-3.2,11.4-5c2.4-1.2,2.4-1.1,4.2,0.8c5.3,5.7,10.4,11.6,15.1,17.8
			c9,11.7,18.6,22.8,28.3,34c4.6,5.3,8,11.6,10,18.4c3.5,11.9,1,22.9-5,33.3c-1.4,2.4-3.6,4.1-6.3,4.8c-5.5,1.3-11.2,1.5-16.8,0.5
			c-0.1-1.2,0.6-1.9,1-2.6c7.1-14.1,14-28.4,20.4-42.9c1.1-2.4,0.9-3.4-1.3-5c-1.8-1.4-3.7-2.7-5.7-4
			C300.2,231.7,299.6,231.9,297.8,233.4z"/>
		<path class="st6" d="M291,345.3c0,3.3,0.1,6.3,0,9.4c-0.1,2.6-0.2,2.6-2.8,3.2c-7.5,1.7-15.2,2.7-22.9,3c-17.3,0.8-34.7,1.4-52,1
			c-2.9,0-5.8-0.2-8.7-0.5c2.6-2.2,4.8-4.5,5.2-7.8c0.5-3.1-0.6-6.3-2.9-8.4c0.6-0.7,1.4-0.4,2.1-0.4c15.6-0.2,31.1,0.6,46.7,0.8
			c11.2,0.1,22.4,0.6,33.6-0.3C290,345.3,290.5,345.3,291,345.3z"/>
		<path class="st6" d="M191.5,345.3c-5.3,6.5-4.7,9.8-1.6,15c-0.7,0.2-1.4,0.2-2.1,0.1c-12.2-0.5-24.5-0.4-36.7,0.1
			c-13.3,0.7-26.4,2.6-39.3,5.7c-6.6,1.4-13.1,3.2-19.6,5.3c-1.1,0.4-1.8,0.4-2.3-1c-1.3-3.6-2.7-7.1-4.2-10.9
			c2.3-0.4,4.4-0.8,6.6-1.2c9.6-2,19.2-4,28.9-5.9c10.1-2,20.3-3.4,30.5-4.5c12.4-1.4,25-2.2,37.5-2.8
			C189.8,345.1,190.7,345.1,191.5,345.3z"/>
		<path class="st13" d="M213.8,212.1c-3.4-0.2-6.5-0.3-9.7-0.4c-1.3,0-2.9-0.7-3.9,0.8s0.1,2.8,0.8,4.1s1.3,2.6,2.1,4.1
			c-2.4,0.4-4.9,0.1-7.2-0.9c-6-2.4-10.5-7.4-12.1-13.7c-3-10.3-1.3-19.8,7.1-27.1c5.4-4.8,11.8-5.7,18.4-2.7
			c8.5,3.9,13,14,12.3,23.1c-0.1,0.9-0.5,1.1-1.3,0.9c-2-0.4-4-0.6-6-1c-0.6-0.1-1.3-0.3-1.9-0.4c-2-0.2-2.8,0.6-2.4,2.6
			c0.4,1.8,1,3.6,1.8,5.2C212.6,208.4,213.3,210.2,213.8,212.1z"/>
		<path class="st6" d="M300.4,235.5c2,1.3,4.4,2,5.2,3.8c1,2-1,3.9-1.9,5.8c-7,15-13.6,30.3-21.9,44.6c-1.9,3.2-2.2,3.4-5.7,2.1
			c-1-0.3-1.9-0.7-2.8-1.4c0.4-1.1,0.9-2.2,1.7-3.1c6.5-10.4,12.9-20.8,16.8-32.5C294.2,248.2,297.1,241.7,300.4,235.5z"/>
		<path class="st14" d="M79.3,301.8c-3.2-0.4-6.4-1.1-9.4-2.1c-7-2.3-14.1-4.7-20.6-8.3c-1.5-0.8-2.8-1.7-4.2-2.6
			c-1.5-0.8-2.3-2.6-1.7-4.3c0.3-1.1,0.6-2.3,0.9-3.6c1.6,0.3,2.8,1.3,4,1.9c8.6,4.5,17.5,8.5,26.4,12.4l2,0.9
			C80.2,297.7,80.2,297.7,79.3,301.8z"/>
		<path class="st14" d="M199.8,274c-8,0.8-15.7,2.9-23.6,3.9c-2.1,0.3-2.2,0.3-2-2c0.2-1.8,0.5-3.7,0.7-5.5c0.1-1,0.6-1.3,1.6-1.4
			c6.4-0.9,12.8-1.9,19.2-2.9c2.1-0.3,2.1-0.4,2.6,1.6S199.2,271.7,199.8,274z"/>
		<path class="st14" d="M174.4,280.7c8.6-0.7,16.8-3.1,25.6-3.7c-1.3,3.3-2.8,6.5-4.4,9.6c-0.2,0.5-0.8,0.8-1.3,0.9
			c-4,0.5-8.1,1-12.1,1.5c-1.7,0.3-3.3-0.5-4-2.1C177,284.9,175.3,283.2,174.4,280.7z"/>
		<path class="st14" d="M175.6,266c0.5-3.2,1-6.2,1.4-9.3c0.1-0.8,0.4-1.1,1.2-1.1c5.1-0.6,10.3-1.1,15.4-1.8
			c1.2-0.2,1.6,0.1,1.9,1.3c0.4,2.1,0.9,4.1,1.4,6.2c0.2,0.8,0.3,1.4-0.9,1.6c-6.5,1.1-12.9,2.2-19.4,3.3
			C176.3,266.2,176,266.1,175.6,266z"/>
		<path class="st14" d="M197.7,360.1c-2.8,0.1-5.4-1.5-6.6-4c-1.1-2.5-0.4-5.4,1.9-7.6c2.3-2.3,5.6-3.3,8.7-2.6
			c3.4,0.5,5.8,3.7,5.3,7.1c-0.1,1-0.5,1.9-1.1,2.8C204,358.7,201.2,359.9,197.7,360.1z"/>
		<path class="st14" d="M177.6,252.6c0.4-3,0.8-5.9,1.2-8.9c0-0.9,0.7-1.5,1.5-1.5c0,0,0,0,0,0c3.7-0.3,7.4-0.7,11-1.1
			c0.7-0.1,1.2,0.1,1.4,1c0.5,2.5,1.1,5,1.6,7.6c0.2,0.9-0.2,1.2-1,1.3c-5,0.7-10,1.5-15.1,1.9C178.2,252.9,178,252.8,177.6,252.6z"
			/>
		<path class="st14" d="M191.8,238.1c-4,0.7-8.1,1.2-12.2,1.4c0.2-3.1,0.8-6,1.2-8.9c0.1-0.9,0.5-1.3,1.4-1.3
			c2.3-0.2,4.6-0.5,6.9-0.7c0.8-0.1,1.2,0.2,1.3,1C190.8,232.4,191.3,235.2,191.8,238.1z"/>
		<path class="st6" d="M188.3,302l-6.9-10.3l12.2-1.4C192.1,294.4,191.3,298.4,188.3,302z"/>
		<path class="st6" d="M181.4,226.6c0.4-2.9,0.8-5.4,1.2-8c0.1-0.8,0.6-1.1,1.3-1.2c3-0.9,5.3,0.6,5.6,3.8c0.1,0.8,0.2,1.7,0.3,2.5
			c0.1,2,0,2.1-1.8,2.3C185.8,226.3,183.8,226.4,181.4,226.6z"/>
		<path class="st6" d="M184.4,214.2c-2.4,0.8-3.7,0-4.9-1.7c-1.6-2.3-3.7-4.3-5.8-6.7l5.7-4.7c0.9,2.4,1.1,4.7,1.9,6.8
			C182.2,210.1,183.2,212.2,184.4,214.2z"/>
		<path class="st13" d="M223.5,186c-1,0.2-1.3-0.2-1.5-0.7c-0.5-1-1.1-1.9-1.6-2.9s-1.8-1.7-1.3-2.6c0.8-1.3,2.5-1.9,3.9-2.4
			c0.5-0.2,0.9,0.3,1.1,0.6c0.7,0.8,1.3,1.6,1.9,2.4c0.8,1.3,1.9,3,1.4,4.3C226.8,186.2,224.5,184.9,223.5,186z"/>
		<path class="st13" d="M228.1,190.8c-0.2,0.9-0.4,2.6-0.7,4.2c-0.2,0.9-0.7,1.1-1.6,1.1c-1.1,0-1.2-0.6-1.3-1.4
			c-0.2-1.5-0.4-2.9-0.7-4.4s0.2-1.9,1.4-2.1l0.8-0.1C228.1,187.8,228.2,187.9,228.1,190.8z"/>
		<path class="st13" d="M220.9,175.1l-4,2.6l-4.3-3.4c0.4-0.8,1-1.5,1.7-2.1c0.4-0.5,1.2-0.6,1.7-0.2
			C217.8,172.8,219.4,173.9,220.9,175.1z"/>
		<path class="st13" d="M204.3,171.5c1.8-2.7,3.4-2.9,7.4-1c-1.5,2.5-1.5,2.4-3.9,1.8C206.7,172,205.6,171.8,204.3,171.5z"/>
		<path class="st6" d="M64.1,353.8c-0.2,1-0.7,1.5-1.6,1.3c-1.3-0.3-2.8-2.6-2.5-3.9c0.2-1,1.4-1.7,2-1
			C63.1,351.2,63.4,352.7,64.1,353.8z"/>
		<path class="st6" d="M211.3,222.7c-1.4-0.1-3.4-2.4-3.2-3.7c0-0.7,0.6-1.2,1.3-1.2c0.3,0,0.5,0.1,0.7,0.3c0.9,0.8,1.7,1.7,2.3,2.7
			c0.4,0.6,0.2,1.3-0.4,1.7C211.9,222.6,211.6,222.7,211.3,222.7z"/>
		<path class="st13" d="M196.5,171.6c1.5-1,3.2-1.6,5-1.8c-0.1,1.1-0.5,1.7-1.4,1.8c-1.2,0.2-2.4,0.4-3.5,0.6
			c-0.2-0.1-0.2-0.3-0.1-0.4S196.5,171.6,196.5,171.6z"/>
		<path class="st13" d="M224.9,200.3c-0.2-0.1-0.4-0.3-0.3-0.6c0,0,0-0.1,0-0.1c0.1-0.3,0.3-0.7,0.8-0.5c0.1,0,0.1,0.3,0.1,0.5
			C225.5,200,225.4,200.4,224.9,200.3z"/>
		<path class="st13" d="M196.5,171.6v0.7c-0.2,0.4-0.7,0.5-0.8,0.3C195.4,171.8,196,171.8,196.5,171.6z"/>
		<path class="st15" d="M185.4,395.5l-0.7-0.7c0.3-0.4,0.7-0.7,1-0.3S185.8,395.3,185.4,395.5z"/>
		<path d="M92,458.4c2.2-0.3,4.4-0.2,6.6,0.2c1.7,0.2,3.5,0.3,5.2,0.3c7.3,0,14.6,0,21.9,0c3.7,0,3.7,0.1,3.5,3.7
			c0,0.4,0,0.7,0.1,1.1c-0.1,1.2-0.1,2.4-0.2,3.6c-0.1,2.5-0.8,3.2-3.2,3.2c-6.7,0.1-13.3,0.6-20,1.1c-6.9,0.5-13.9,0.7-20.8,1.6
			c-0.5,0-0.9,0.1-1.4,0.1c-0.9,0.2-1.9-0.3-2.3-1.2c-0.4-0.9-0.1-1.9,0.7-2.5C85.7,466.2,88.7,462.2,92,458.4z"/>
		<path d="M236.1,459.4c0.9-0.9,2.1-1.5,3.4-1.6c12.1-1.5,24.2-2.5,36.4-3c0.4,0,0.7,0,1.1,0c2.1,1.5,4.2,3.1,6.1,4.9
			c1,0.9,1.8,1.9,1.3,3.4c-0.5,1.3-1.7,1.3-2.8,1.4l-36.5,3.1c-5.3,0.5-5.6,0.3-7.8-4.5C236.6,462,236.2,460.7,236.1,459.4z"/>
		<path class="st16" d="M65.3,322.3c-1.1-0.3-2.2-0.6-3.3-1c-0.9-0.4-0.8-1.7,0.2-2.2c1.5-0.6,3.2,0,4.1,1.3
			c0.3,0.6,0.1,1.4-0.5,1.7C65.6,322.3,65.5,322.3,65.3,322.3z"/>
		<path class="st17" d="M130.1,48.4l0.7,0.7c-0.1,0.4-0.5,1-0.8,0.8C129.3,49.5,129.7,48.9,130.1,48.4z"/>
		<path class="st0" d="M173.3,99.7c14.8,0.1,26.7,12.2,26.6,27c-0.1,14.8-12.2,26.7-27,26.6c-14.7-0.1-26.6-12.1-26.6-26.9
			c0-14.7,11.8-26.6,26.5-26.7C173,99.7,173.2,99.7,173.3,99.7z"/>
		<path class="st18" d="M216.5,106c-0.5-3.1-1.6-6.1-3.2-8.8c-1.3-2.2-3.5-3.7-6-4.1c-4.2-0.7-7.9,2.3-8.6,7.1
			c-0.3,2.7-0.2,5.4,0.4,8c0.1,0.8,0.7,1.5,0.4,2.4c-0.7,0.4-1.1,0-1.4-0.5c-1.8-2.8-4.1-5.2-6.8-7.3c-0.8-0.6-1.1-1.5-0.9-2.4
			c0.9-6,2.5-11.8,6.1-16.8c4.1-5.7,10.6-5.9,15.4-0.7c1.8,2,3.2,4.3,4.3,6.8c1.3,3.2,2.3,6.5,3.1,9.8c0.2,1.4,0.3,2.8,0.1,4.2
			C219.2,105.3,217.5,105.2,216.5,106z"/>
		<path class="st0" d="M212.7,136.6c-4.2,6.9-9.1,13.3-14.7,19.1c-1.7,1.8-3.5,3.6-5.2,5.4c-0.5,0.7-1.4,0.9-2.1,0.4
			c0,0-0.1-0.1-0.1-0.1c-4.6-3.1-9.1-2.3-13.6,0.2c-0.3,0.1-0.6,0.3-0.9,0.4c-1-1.7-2-3.4-3-5.1c0.6-0.9,1.3-0.6,1.9-0.7
			c7.4-0.4,14.4-3.6,19.5-8.9c0.6-0.7,1.3-1.3,2.2-1.7c5.8-2,11.1-5.4,15.4-9.7C212.6,135.8,212.9,136,212.7,136.6z"/>
		<path class="st6" d="M147.9,110.1c-2-7.3-2.8-14.2-0.9-21.3c0.5-1.9,1.3-3.7,2.5-5.2c1.6-2.2,4.6-2.9,6.9-1.5
			c1.7,0.9,3.3,2.1,4.5,3.7c2.4,2.9,4.3,6.3,5.5,9.9c0.2,0.5,0.8,1.3-0.1,1.7c-0.7,0.3-1.6,0.6-2.3-0.3c-0.5-0.7-1.1-1.3-1.6-1.9
			c-0.7-0.8-1.5-1.4-2.4-2c-2.8-1.5-5.6-0.7-6.9,2.3c-1.1,2.6-1.5,5.4-1,8.2c0.1,0.6,0.5,1.2-0.1,1.8
			C150.6,106.9,149.4,108.3,147.9,110.1z"/>
		<path class="st0" d="M189.3,164.2c-1.9,2-4,3.8-6.2,5.3c-0.9,0.7-2.2,0.6-3-0.3c-0.1-0.1-0.1-0.2-0.2-0.3c-0.4-0.5-0.8-1-1.1-1.6
			c-1.6-2.7-1.4-3.2,1.6-4.3S186.3,161.7,189.3,164.2z"/>
		<path class="st6" d="M206.5,101c-0.1,1.2-1.1,2.2-2.3,2.3c-1.3,0-2.4-1-2.4-2.3c0-0.1,0-0.1,0-0.2c0-1.2,1-2.1,2.2-2.1
			c0.1,0,0.1,0,0.2,0C205.5,98.7,206.4,99.7,206.5,101z"/>
		<path class="st6" d="M158.2,95.2c1,0,1.7,0.8,1.7,1.7c0,0.1,0,0.2,0,0.3c-0.1,1.1-0.9,1.9-2,1.9c-1.1-0.1-2-1.1-1.9-2.3
			C156.2,95.8,157.2,95.1,158.2,95.2z"/>
		<path class="st19" d="M212.7,136.6l-0.6-0.6c0.3-0.7,0.9-1.2,1.6-1.4C213.7,135.3,213.4,136.1,212.7,136.6z"/>
		<path class="st20" d="M265.7,231.4c-0.1,1.1-0.1,2.2-0.3,3.3c-0.1,1.2-0.6,2.4-1.3,3.3c-0.4,0.6-1.1,0.8-1.7,0.5
			c-0.6-0.2-0.9-0.9-0.6-1.5c0,0,0-0.1,0.1-0.1c1.2-2.6,1.1-5.4,1.3-8.2c0-0.8,0.3-1.5,1.2-1.5s1.3,0.6,1.3,1.4
			S265.7,230.5,265.7,231.4L265.7,231.4z"/>
		<path class="st21" d="M256.2,262.2c-0.7,0.1-1.4-0.3-1.7-0.9c-0.3-0.6,0-1.3,0.6-1.6c0,0,0,0,0,0c0.8-0.5,1.6-0.9,2.4-1.3
			c0.5-0.4,1.3-0.4,1.7,0.1c0,0,0,0,0,0c0.4,0.5,0.4,1.3,0,1.8C258.6,261.3,257.5,262,256.2,262.2z"/>
		<path class="st22" d="M202.1,205.9c-0.2-0.8-0.6-1.5-1.2-2.1c-0.8-1.4-1.5-1.8-3.3-1.1c-3,1.1-5.5-0.9-5.6-4.2
			c0-1.3,0.2-2.6,0.8-3.8c0.6-1.2,0.5-2.6-0.4-3.6c-0.6-0.8-1.1-1.7-1.5-2.7c-0.3-0.6-0.1-1.3,0.4-1.6c0,0,0,0,0.1,0
			c0.6-0.4,1.3-0.2,1.7,0.4c0,0,0,0,0,0c0.6,0.8,1.1,1.7,1.8,2.7c0.6-0.6,1.2-1.1,1.8-1.6c0.5-0.6,1.3-0.7,1.9-0.2
			c0.1,0,0.1,0.1,0.1,0.1c0.5,0.4,0.5,1.1,0.2,1.6c0,0.1-0.1,0.1-0.2,0.2c-2.4,2.1-1.4,3.9,0.2,5.9c1.3,1.5,1.2,1.6,3,0.7
			c2.9-1.6,5.2-0.6,6.2,2.6c0.7,2,0.6,4.3-0.4,6.2c-0.5,0.9-0.9,1.6-0.1,2.5c0.5,0.6,0.5,1.5-0.1,2c-0.6,0.5-1.5,0.5-2-0.1
			c0,0,0,0-0.1-0.1c-0.8-1.3-1.8-0.9-2.9-0.4c-0.9,0.4-1.9,0.8-2.8,1.1c-1,0.4-2.1-0.1-2.4-1.1c-0.1-0.2-0.1-0.4-0.1-0.7
			c0-1.3,0.8-1.7,2.1-1.5C200.2,207,201.1,206.3,202.1,205.9z"/>
		<path d="M169.9,122.1c0.1,3.6-0.8,7.2-2.6,10.3c-0.6,1.1-1.5,2.1-2.6,2.9c-1.8,1.4-4.5,1.1-5.9-0.7c-0.1-0.2-0.3-0.4-0.4-0.5
			c-0.9-1.5-1.4-3.2-1.3-5c-0.1-3.6,0.8-7.2,2.7-10.3c0.6-1,1.3-1.8,2.1-2.5c2.6-2.1,5.4-1.5,6.9,1.4
			C169.5,118.9,169.9,120.5,169.9,122.1z"/>
		<path class="st7" d="M189.2,126.6c-0.1,0.6-0.2,1.3-0.4,1.9c-1.1,3.3-3.1,4.1-6.1,2.6c-4.2-2.2-7.5-8.7-6.9-13.4
			c0.5-3.4,3.3-4.9,6.4-3.4c2.8,1.4,4.4,3.9,5.7,6.7C188.7,122.7,189.1,124.6,189.2,126.6z"/>
		<path class="st13" d="M205.1,203.8c-0.9-0.7-1.7-1.6-2.3-2.6c-0.9-1-0.4-1.6,0.5-2.1s1.7-0.3,2,0.9
			C205.7,201.3,205.6,202.6,205.1,203.8z"/>
		<path class="st13" d="M195.6,196.2c0.9,0.5,1.1,1.3,1.6,1.9c0.3,0.4,0.8,0.9,0.2,1.4c-0.3,0.3-0.8,0.5-1.2,0.5c-0.6,0-1-0.4-1.1-1
			C194.8,198,195,197,195.6,196.2z"/>
	</g>
</g>
</svg>
