<?xml version="1.0" encoding="iso-8859-1"?>
<!-- Generator: Adobe Illustrator 23.0.2, SVG Export Plug-In . SVG Version: 6.00 Build 0)  -->
<svg version="1.1" xmlns="http://www.w3.org/2000/svg" xmlns:xlink="http://www.w3.org/1999/xlink" x="0px" y="0px"
	 viewBox="0 0 2793 2793" style="enable-background:new 0 0 2793 2793;" xml:space="preserve">
<g id="Background_xA0_Image_1_">
</g>
<g id="Layer_2_xA0_Image_1_">
</g>
<g id="Layer_3_xA0_Image_1_">
</g>
<g id="Layer_5_xA0_Image_1_">
</g>
<g id="Layer_8_xA0_Image_1_">
</g>
<g id="Layer_10_xA0_Image_1_">
</g>
<g id="Layer_12_xA0_Image_1_">
</g>
<g id="Layer_14_xA0_Image_1_">
	<g>
		<g>
			<polygon points="1458.818,458.335 1458.816,458.337 1458.817,458.336 			"/>
			<path d="M1441.258,477.32c0.042,0.198,0.168,0.853,0.172,0.873C1441.501,477.847,1441.436,477.559,1441.258,477.32z"/>
			<path d="M1830.589,774.686c-8.129-32.903-26.274-59.516-52.488-80.8c-2.428-1.971-5.567-3.303-7.074-6.539
				c1.957-2.888,3.833-5.534,5.584-8.26c14.898-23.193,23.4-48.391,22.516-76.144c-1.417-44.508-21.103-78.661-59.694-101.172
				c-23.619-13.777-49.393-18.622-76.601-15.64c-2.53,0.277-5.069,0.476-7.592,0.811c-4.897,0.65-6.358,0.835-7.193-4.938
				c-1.195-8.266-3.526-16.331-6.813-24.053c-12.215-28.692-32.921-49.276-60.68-62.931c-29.639-14.58-60.907-18.446-93.386-13.432
				c-34.813,5.375-64.937,20.167-89.968,45.095c-0.948,0.943-2.071,1.71-2.998,2.467c-3.431-1.868-4.783-5.015-6.842-7.5
				c-13.471-16.263-29.515-29.126-49.541-36.243c-28.984-10.3-56.477-7.978-81.354,11.412
				c-11.426,8.905-19.418,20.455-25.042,33.777c-1.666,3.945-2.333,8.365-5.204,11.839c-7.335-3.255-14.546-6.538-22.482-8.191
				c-15.731-3.278-31.154-1.9-46.336,2.508c-27.437,7.966-49.955,23.1-66.047,47.033c-10.082,14.993-14.838,31.42-12.379,49.603
				c0.24,1.77,0.278,3.567,0.429,5.605c-1.889,0.715-3.502,1.562-5.218,1.939c-17.454,3.835-32.802,11.98-45.836,23.942
				c-34.009,31.209-50.139,69.715-45.364,116.099c1.946,18.895,9.169,35.762,21.744,50.202c1.598,1.835,3.982,3.129,4.528,6.279
				c-2.326,1.978-4.811,4.064-7.269,6.183c-11.689,10.074-21.304,21.851-28.585,35.453c-13.886,25.938-19.089,53.385-11.976,82.193
				c7.514,30.432,26.023,51.446,56.404,61.003c11.623,3.656,23.597,3.836,35.642,2.557c4.598-0.488,4.97-0.082,5.339,4.357
				c0.15,1.811,0.122,3.64,0.334,5.442c3.672,31.041,18.724,54.675,46.429,69.468c28.828,15.392,62.042,10.477,85.717-11.932
				c2.071-1.96,3.482-4.734,6.147-5.484c30.876,36.777,68.712,42.474,111.679,25.707c0.836,3.101-0.769,5.298-1.588,7.538
				c-4.613,12.608-9.462,25.13-14.197,37.694c-2.432,6.453-4.881,12.902-7.14,19.417c-0.834,2.408-2.227,3.597-4.716,3.597
				c-1.818,0-3.646-0.125-5.451,0.022c-15.708,1.284-30.818,4.698-44.83,12.282c-12.184,6.595-19.59,15.981-18.747,30.511
				c0.021,0.362-0.025,0.729,0,1.091c0.281,3.904-1.335,7.036-3.928,9.796c-3.512,3.737-7.58,6.755-11.911,9.47
				c-7.438,4.663-15.424,8.171-23.827,10.521c-11.527,3.224-23.175,6.025-34.797,8.901c-11.344,2.807-22.305,6.605-32.173,12.96
				c-25.672,16.534-45.565,38.03-57.547,66.532c-12.526,29.796-19.596,60.674-20.874,93.013c-1.382,34.971,0.253,69.792,4.268,104.5
				c2.839,24.54,6.726,48.947,12.74,72.947c4.235,16.902,8.895,33.698,13.074,50.613c14.197,57.472,29.124,114.705,51.977,169.529
				c6.849,16.43,13.308,33.021,23.489,47.795c13.407,19.456,29.307,36.085,51.589,45.497c2.333,0.985,4.48,2.402,6.784,3.466
				c5.696,2.631,8.854,7.036,10.432,13.107c2.219,8.541,3.184,17.198,2.791,25.923c-0.654,14.518-0.847,29.079-2.893,43.511
				c-0.254,1.794-0.379,3.627-0.341,5.437c0.081,3.748,2.325,6.077,6.045,6.344c2.732,0.196,5.622-1.442,8.282,0.695
				c-0.336,3.196-2.847,5.007-4.596,7.174c-8.93,11.066-16.792,22.845-23.552,35.328c-9.509,17.561-18.935,35.172-28.075,52.927
				c-7.483,14.537-13.535,29.724-19.214,45.052c-10.877,29.356-18.355,59.654-25.063,90.169
				c-8.035,36.553-15.213,73.284-20.188,110.369c-4.685,34.928-8.708,69.948-12.048,105.049
				c-3.617,38.016-5.858,76.115-7.603,114.236c-1.296,28.322-1.507,56.699-1.921,85.055c-0.61,41.827,0.813,83.611,3.11,125.371
				c1.737,31.574,3.417,63.151,5.123,94.727c3.758,0.092,7.515,0.184,11.273,0.276c-0.192-0.329-0.394-0.651-0.565-0.993
				c-2.362-15.829-1.685-31.853-2.753-47.777c-5.185-77.247-7.146-154.695-4.447-232.025
				c4.058-116.282,15.21-231.874,38.885-346.125c16.153-77.956,44.754-150.39,89.071-216.396
				c20.975-31.24,15.816-25.529,48.086-25.925c22.538-0.276,45.094-0.506,67.62,0.093c17.509,0.466,34.81-2.525,52.231-2.237
				c36.681,0.606,73.327,3.154,110.038,2.095c8.479-0.245,14.603,2.89,18.747,10.478c3.135,5.739,6.542,11.333,9.377,17.236
				c26.749,55.696,56.547,109.861,82.401,166.036c10.606,23.044,22.359,45.682,33.901,68.333
				c12.603,24.734,11.463,47.355-5.531,69.254c-2.358,3.039-4.139,7.714-8.17,7.577c-0.179,0.312-0.363,0.612-0.54,0.927
				c-0.167-0.368-0.329-0.718-0.487-1.053c-4.308-0.911-5.325-5.936-6.766-9.781c-5.89-15.726-8.851-32.225-12.774-48.475
				c-0.963-3.99-0.626-8.812-5.059-11.348c-3.49,1.458-2.414,4.303-2.127,6.573c7.649,60.659,31.289,113.849,74.024,158.094
				c9.414,9.747,19.877,18.21,31.886,24.463c8.19,4.265,12.167,10.485,13.54,19.57c7.655,50.669,14.445,101.434,19.095,152.481
				c2.801,30.757,6.413,61.448,10.999,91.976c6.214,41.361,7.514,83.179,12.679,124.624c0.804,6.45,2.78,12.844,1.795,19.483
				c-0.103,0.629-0.289,1.214-0.527,1.773c3.201,1.933,6.788,1.829,9.964,0.023c2.612-1.487-0.034-5.382,1.343-7.946
				c-0.39-3.614-0.79-7.226-1.167-10.841c-1.813-17.346-4.165-34.656-5.312-52.046c-2.035-30.857-6.003-61.479-10.085-92.094
				c-2.978-22.335-5.801-44.679-7.87-67.12c-1.568-17.007-3.317-34-5.229-50.971c-1.668-14.802-3.523-29.587-5.57-44.342
				c-3.194-23.028-6.42-46.056-10.013-69.024c-2.75-17.581-5.879-35.11-9.244-52.584c-1.844-9.576-0.944-18.386,2.967-27.441
				c7.218-16.711,11.749-34.331,15.344-52.158c2.522-12.506,2.881-25.255,4.019-37.921c0.956-10.642-0.05-21.012-2.195-31.392
				c-3.021-14.622-7.667-28.757-12.655-42.782c-16.906-47.534-33.871-95.048-50.893-142.541
				c-18.858-52.619-37.928-105.162-56.651-157.828c-7.332-20.626-16.154-40.45-28.246-58.75c-0.353-0.534-0.324-1.321-0.488-2.056
				c2.153-2.853,4.535-5.611,6.475-8.651c6.817-10.686,4.948-21.062-5.121-28.785c-2.007-1.54-4.185-2.931-6.459-4.03
				c-2.371-1.145-3.026-2.632-2.497-5.18c2.291-11.021,4.435-22.072,6.64-33.111c0.854-4.274,1.739-8.542,2.595-12.815
				c0.388-1.933,1.519-2.992,3.358-3.828c11.377-5.168,21.053-13.081,30.143-21.257c15.114-13.593,29.706-27.864,41.92-44.298
				c2.598-3.496,5.443-6.817,8.292-10.117c10.824-12.538,18.392-26.933,24.338-42.277c5.619-14.5,5.55-29.212,0.951-43.816
				c-4.042-12.834-9.313-25.179-17.125-36.319c-12.538-17.878-23.134-36.908-33.122-56.303c-5.642-10.957-8.136-22.313-6.691-34.692
				c2.273-19.487,4.163-39.021,6.041-58.552c1.496-15.555,3.109-31.114,4.001-46.709c1.542-26.958-7.09-49.931-27.593-68.179
				c-14.242-12.674-29.838-23.06-47.36-30.61c-21.992-9.477-43.928-19.083-65.854-28.71c-6.313-2.771-12.591-5.653-18.243-9.689
				c-9.461-6.756-18.859-13.604-28.407-20.236c-8.309-5.772-13.099-13.435-13.545-23.628c-0.241-5.49-1.117-10.889-3.039-16.004
				c-1.045-2.782-0.753-4.531,1.442-6.594c8.549-8.037,15.107-17.583,20.895-27.763c4.301-7.565,9.194-14.794,13.737-22.036
				c2.618,0.684,3.42,2.863,4.673,4.585c5.884,8.092,13.479,14.182,22.13,19.056c8.959,5.048,18.582,8.314,28.69,9.859
				c18.716,2.86,36.93,1.367,54.205-7.164c12.477-6.162,22.232-14.928,27.753-27.977c0.671-1.585,1.081-3.537,3.285-4.231
				c11.043,1.446,22.261,1.951,33.538,1.325c12.105-0.672,23.685-3.48,34.777-8.28c26.608-11.514,43.576-31.929,53.643-58.578
				c5.31-14.055,7.627-28.766,8.727-43.666c0.252-3.423,1.621-5.081,4.719-6.314c8.796-3.5,17.04-8.087,24.773-13.574
				C1824.725,880.643,1843.866,828.429,1830.589,774.686z M1419.105,499.267c0.06-0.679,0.329-1.433,0.743-1.973
				c5.859-7.642,11.315-15.647,19.121-21.565c0.33-1.169,1.046-1.909,2.286-2.07c0.166-1.288,0.915-1.993,2.18-2.183
				c0.061-1.271,0.822-1.918,1.976-2.213c1.483-2.923,3.928-4.811,6.76-6.282c0,0,0,0,0.001,0c0,0,0,0,0,0
				c0,0,0.352-0.261,0.352-0.261c0.329-0.698,0.868-1.137,1.618-1.319c1.232-1.351,2.483-2.673,4.438-2.923l0.238-0.141
				c0.335-0.899,0.894-1.479,1.941-1.366c0.665-0.312,1.33-0.623,1.995-0.934c0.493-1.021,1.198-1.695,2.437-1.51
				c0.453-0.623,1.057-0.858,1.812-0.707c0.54-1.011,1.298-1.632,2.523-1.424c0.678-0.23,1.355-0.46,2.033-0.69
				c1.196-1.465,2.732-2.123,4.617-1.962c9.715-4.73,19.852-7.958,30.712-8.605c9.348-2.558,18.675-2.272,27.988,0.188
				c8.013,0.8,15.178,3.825,21.784,8.311l0.421,0.179c1.319-0.044,2.275,0.515,2.853,1.707c6.425,2.561,11.886,6.557,16.837,11.312
				c1.22,0.06,1.926,0.723,2.222,1.874c3.662,2.059,6.636,4.829,8.772,8.468c1.179,0.347,1.873,1.135,2.116,2.332
				c3.13,2.334,5.078,5.472,6.218,9.157v0c1.04,1.303,2.297,2.509,1.968,4.422c0.611,0.498,0.755,1.105,0.434,1.825
				c2.999,4.046,2.964,8.556,1.887,13.166c-0.106,0.456-1.095,1.029-1.616,0.977c-0.574-0.058-1.496-0.727-1.553-1.213
				c-0.406-3.49-0.631-7.001-0.914-10.506c-0.629-0.31-0.825-0.795-0.586-1.455c-1.717-0.932-1.963-2.63-2.243-4.311
				c-2.094-3.101-4.188-6.202-6.281-9.303c0,0,0,0,0-0.001c0,0,0,0-0.001,0c-1.046-0.399-1.744-1.084-1.849-2.255l-0.226-0.249
				c-1.039-0.216-1.666-0.825-1.818-1.89l-0.368-0.375c-1.043-0.163-1.645-0.77-1.825-1.802l-0.367-0.342
				c-1.1-0.13-1.721-0.766-1.941-1.827l-0.252-0.214c-1.178-0.087-1.875-0.73-2.156-1.857c-7.945-5.215-15.89-10.431-23.834-15.646
				c-8.47-3.669-17.354-6.009-26.283-8.21c0.001-0.002,0.003-0.003,0.004-0.005c-0.003,0.002-0.007,0.003-0.01,0.005
				c-4.343,0.019-8.69,0.038-13.045,0.057c-0.003-0.002-0.007-0.003-0.01-0.006c0.001,0.002,0.002,0.004,0.003,0.006
				c-4.183,2.386-9.071,1.474-13.492,2.943c-8.435,2.804-16.975,5.288-25.472,7.905c-0.445,0.974-1.153,1.464-2.251,1.255
				c-0.792,0.292-1.583,0.583-2.374,0.875c-0.37,0.863-0.944,1.378-1.949,1.185c-0.784,0.337-1.567,0.675-2.351,1.013
				c-0.363,0.978-1.012,1.507-2.097,1.367c-0.37,0.659-0.926,0.923-1.669,0.792c-0.522,1.165-1.395,1.824-2.691,1.874h0
				l-0.194,0.117c-0.36,0.994-1.01,1.618-2.118,1.654c-0.203,0.685-0.656,0.973-1.362,0.866c-1.991,2.519-4.24,4.735-7.185,6.137
				c0,0-0.001,0-0.002,0c0,0,0.001,0.001,0.002,0.001c-0.408,1.11-1.09,1.904-2.351,2.03c-0.202,1.252-0.895,2.015-2.183,2.181
				c0,0,0,0-0.001,0c0,0,0,0,0,0c-0.169,1.229-0.894,1.976-2.045,2.348c-6.38,7.687-12.733,15.395-19.182,23.023
				c-0.61,0.722-1.898,1.14-2.707-0.005C1419.182,500.707,1419.049,499.909,1419.105,499.267z M1511.303,558.542
				c-1.467,0.193-2.443-0.557-3.221-1.686l-1.089-0.312c-0.001-0.001-0.004-0.002-0.005-0.004c0,0.001,0.001,0.002,0.002,0.003
				c-2.062,0.279-3.674-0.684-5.196-1.896c-1.281-0.232-2.562-0.464-3.842-0.696c-1.64,0.38-3.072,0.019-4.271-1.185
				c-3.775-0.401-7.55-0.802-11.325-1.203c-3.505,0.564-6.903,0.119-10.214-1.05c-8.177,0.015-16.354,0.03-24.53,0.045
				c-2.558,1.314-5.242,1.689-8.056,1.185v0c-1.403,0.316-2.803,0.875-4.211,0.896c-2.418,0.037-6.066,3.77-6.931-0.444
				c-0.628-3.06,4.106-3.082,6.589-3.879c2.325-0.746,4.966-0.505,7.468-0.698c0.005,0,0.011-0.001,0.016-0.001
				c-0.003,0-0.007,0-0.011,0c0.997-0.386,1.983-1.065,3.003-1.118c11.894-0.623,23.816-1.82,35.588,1.202
				c2.683,0.176,5.366,0.352,8.049,0.528c0,0,0,0,0.001,0.001c0,0,0-0.001,0-0.001c2.479-0.487,4.857-0.489,6.826,1.442l0.063,0.056
				c4.903-0.162,9.288,1.505,13.487,3.827c0.449,0.237,0.897,0.474,1.346,0.711c1.799,0.323,3.196,1.183,2.872,3.205
				c-0.174,1.083-1.383,1.183-2.405,1.073c-0.001,0-0.002-0.001-0.003-0.002C1511.302,558.541,1511.302,558.541,1511.303,558.542z
				 M1377.709,857.469C1377.709,857.469,1377.709,857.47,1377.709,857.469C1377.71,857.47,1377.71,857.47,1377.709,857.469
				c0,0,0.205-0.04,0.205-0.04c0,0,0,0,0,0h0c1.93-1.876,4.3-1.922,6.753-1.625c1.399-0.248,2.797-0.495,4.196-0.742
				c0.012-0.009,0.514-0.738,0.514-0.738l0.854,0.149c3.572-1.181,7.144-2.362,10.716-3.543c0.001,0,0.002-0.001,0.004-0.001
				c0,0,0,0-0.001,0c1.935-2.351,4.814-3.082,7.41-4.3c0.79-0.526,1.546-1.097,2.264-1.718l0.41-0.292
				c0.487-0.753,1.122-1.351,1.903-1.792l0.306-0.363c0.486-1.086,0.972-2.172,1.458-3.258c-0.175-0.604,0.047-0.961,0.666-1.072
				c0,0,0,0,0,0c0.535-1.483,1.145-1.274,1.798-0.079l0.135,0.098c2.861,1.451,1.837,3.102,0.246,4.781
				c-2.892,5.334-7.569,8.375-13.161,10.238c-1.879,1.396-3.795,2.705-6.299,2.571c0,0,0,0,0,0c-1.33,1.44-2.93,2.166-4.92,1.854
				l-0.728,0.457l-0.852-0.12c0,0,0,0-0.001,0c-1.409,1.241-2.992,1.944-4.917,1.58c-2.06,0.346-4.121,0.692-6.181,1.038
				c-1.955,1.744-4.241,1.634-6.582,1.203l-0.157,0.59c-0.916,0.512-1.821,1.446-2.748,1.468
				c-7.646,0.185-15.401,1.855-22.864-0.993c-0.396-0.113-0.786-0.268-1.171-0.476c-8.182-1.519-16.435-2.731-24.525-4.638
				c-8.565-2.019-16.313-5.938-22.689-12.188c-1.016-0.996-1.904-2.178-2.604-3.414c-0.252-0.446,0.134-1.342,0.393-1.965
				c0.332-0.798,1.044-0.95,1.805-0.417c1.467,1.028,2.973,2.02,4.328,3.184c6.177,5.303,13.353,8.495,21.167,10.569
				c15.235,4.045,30.736,4.725,46.37,4.083C1373.374,857.469,1375.542,857.496,1377.709,857.469z M1239.99,486.611
				c6.67-11.251,14.658-21.316,25.94-28.358c0,0,0.001,0,0.002,0h0c0.621-1.281,1.653-2.011,3.042-2.259
				c0.258-0.899,0.755-1.47,1.783-1.328h0c3.098-2.532,6.389-4.696,10.421-5.438c3.703-2.469,7.615-4.306,12.219-4.057
				c0,0.001,0,0.001,0.001,0.002c0.029,0.001,0.516,0.056,0.516,0.056s0,0,0,0c1.429-1.417,3.131-1.844,5.067-1.397
				c9.238-0.963,18.475-1.901,27.528,1.236c2.104-0.265,4.108,0.076,6.02,0.979c1.132-0.351,1.995-0.048,2.541,1.032
				c1.193,0.313,2.386,0.626,3.579,0.939c1.802-0.264,3.054,0.849,4.39,1.751c0,0,0,0,0,0s0,0,0,0
				c1.908-0.208,3.277,0.752,4.482,2.065c3.364,0.951,6.252,2.733,8.835,5.052c0.679,0.388,1.296,0.856,1.854,1.405l0.322,0.216
				c5.572,3.84,6.961,5.613,5.13,6.396c-3.475,1.486-5.176-1.499-7.409-3.096c-0.276-0.197-0.411-0.591-0.611-0.895
				c-0.61-0.339-1.219-0.679-1.829-1.018c-0.711-0.256-1.317-0.666-1.819-1.231c-3.021-1.583-6.043-3.165-9.065-4.748
				c-1.203,0.113-2.165-0.235-2.701-1.402c-2.419-0.343-4.94-0.414-6.715-2.493c-1.184-0.198-2.367-0.396-3.551-0.593
				c-2.521,0.341-4.851-0.147-6.955-1.608c-1.858-0.135-3.716-0.271-5.575-0.407c-6.8,0.239-13.6,0.479-20.4,0.717
				c-4.321,1.281-8.642,2.563-12.962,3.844c-1.517,1.292-3.043,2.565-5.249,2.26c-0.014,0.001-0.026,0.004-0.04,0.006
				c0.013-0.001,0.025-0.004,0.039-0.005c-0.641,1.396-1.744,2.065-3.267,2.075l-0.144,0.077c-0.447,0.992-1.145,1.623-2.297,1.603
				c-0.253,0.609-0.701,0.837-1.342,0.684c0,0-0.001,0-0.001,0.001c-0.55,1.139-1.385,1.892-2.703,1.983
				c-6.705,5.999-13.614,11.801-18.938,19.158c-4.008,5.538-8.397,10.9-8.167,18.373c0.028,0.923-0.82,1.84-2.206,1.802
				c-1.439-0.04-1.784-1.083-2.01-2.023C1236.76,493.866,1237.918,490.105,1239.99,486.611z M1144.885,543.032
				c0.972-4.203,1.925-8.421,3.17-12.547c1.028-3.404,1.941-6.938,4.606-9.589c0,0,0.001,0,0.002,0c0,0-0.001-0.001-0.001-0.002
				c3.06-7.283,8.602-11.828,15.917-14.414c3.064-2.399,6.438-4.11,10.333-4.67c4.642-3.018,9.788-4.417,15.264-4.76
				c0.437-0.813,1.041-1.077,1.88-0.596c2.307-1.025,4.716-1.123,7.179-0.827c1.31,0.158,1.51,1.11,1.631,2.146
				c0.497,1.579-0.422,1.809-1.656,1.739c-1.66,0.805-3.383,1-5.174,0.532c0,0,0,0,0,0c-2.388,1.818-5.122,2.307-8.038,2.093
				c-1.981,0.816-3.781,2.209-6.111,1.913c0,0-0.001,0-0.001-0.001c0,0,0,0,0,0.001c-4.224,1.708-8.449,3.417-12.677,5.128
				c-0.001-0.001-0.002-0.002-0.003-0.003c0,0.002,0.001,0.003,0.001,0.005c-5.976,4.135-12.109,8.099-15.863,14.641
				c-2.243,6.82-5.071,13.461-6.197,20.625c-0.223,1.416-0.931,2.938-2.771,2.214C1144.88,546.071,1144.548,544.49,1144.885,543.032
				z M1068.476,753.149C1068.475,753.149,1068.475,753.149,1068.476,753.149c-0.203,1.37-1.051,1.985-2.379,2.037l-0.25,0.145
				c-0.559,0.579-1.202,1.039-1.931,1.38c-0.362,0.705-0.938,1.019-1.727,0.943c-0.518,1.14-1.36,1.858-2.623,2.031
				c-7.972,7.647-14.144,16.667-19.844,26.044c0.038,1.37-0.492,2.44-1.669,3.17c0,0.001,0,0.001,0,0.002
				c-0.35,1.156-0.699,2.312-1.048,3.468c0.189,1.208-0.32,2.111-1.234,2.839c-0.251,1.226-0.502,2.451-0.753,3.677
				c0.302,1.996-0.24,3.771-1.41,5.381c-0.005,7.921-0.01,15.842-0.015,23.763c0,0.001,0,0.002,0,0.004
				c1.409,1.642,1.785,3.57,1.559,5.664c0.215,1.061,0.43,2.122,0.646,3.183c-0.021,0.19-0.011,0.188,0,0.002
				c1.076,0.857,1.565,1.964,1.401,3.344c0.562,0.535,0.757,1.181,0.584,1.937c2.12,4.458,4.24,8.916,6.359,13.373c0,0,0,0,0,0
				c2.259,3.48,4.519,6.961,6.777,10.442c3.487,3.771,6.974,7.541,10.461,11.311c0,0.001,0,0.002,0,0.003
				c0,0,0.001-0.001,0.002-0.002c1.268,0.606,2.507,1.29,3.814,1.8c1.627,0.635,3.844,1.028,2.445,3.432
				c-1.115,1.916-2.958,1.25-4.514,0.217c-0.28-0.186-0.444-0.545-0.662-0.824c-0.077-0.04-0.145-0.093-0.22-0.137
				c0.069,0.046,0.136,0.092,0.205,0.137c-1.609,0.098-2.879-0.336-3.232-2.142c-0.1,0.019-0.194,0.042-0.301,0.054
				c-4.722-2.508-7.835-6.543-10.472-11.032c0,0,0-0.001,0-0.002c0,0,0,0.001-0.001,0.001c-3.129-2.878-5.388-6.348-6.976-10.274
				c-3.161-3.304-4.956-7.311-6.02-11.694c-0.512-0.304-0.625-0.717-0.34-1.24c0.023-1.258-0.833-2.11-1.424-3.084
				c-0.264-1.068-0.527-2.138-0.791-3.207c0.022-0.178,0.012-0.175,0-0.002c-1.072-0.859-1.556-1.956-1.335-3.335
				c-0.234-1.276-0.469-2.552-0.704-3.828c0,0,0-0.001-0.001-0.002c-1.719-2.886-2.208-5.992-1.664-9.284
				c-0.852-4.38-0.872-8.763-0.039-13.148c-0.521-3.376-0.213-6.612,1.622-9.589c0.202-1.169,0.405-2.338,0.607-3.506
				c1.055-1.435,0.788-3.325,1.66-4.822c-0.245-0.675-0.094-1.245,0.453-1.711c-0.16-1.408,0.338-2.511,1.527-3.294l-0.111-0.638
				l0.501-0.408l0,0h0c-0.113-1.874,0.846-3.216,2.17-4.377c1.895-5.053,4.789-9.455,8.629-13.24
				c0.157-1.208,0.786-2.011,1.963-2.346c0.172-1.216,0.796-2.041,2.037-2.332c0.191-1.221,0.856-1.998,2.095-2.24l0.041-0.04h0
				c0.218-1.229,0.949-1.929,2.179-2.115l0.051-0.038h0c0.261-1.258,1.074-1.881,2.313-2.015l0.09-0.108
				c0.309-1.254,1.223-1.768,2.395-1.968c0.354-1.005,0.974-1.632,2.122-1.53c0.333-0.644,0.856-0.9,1.569-0.769
				c0.607-1.162,1.502-1.801,2.87-1.582c1.133-0.902,2.432-0.929,3.348,0.047C1069.966,751.81,1069.423,752.708,1068.476,753.149z
				 M1113.013,580.835c-0.273,0.007-0.266,0.025-0.001,0.004c-0.73,1.367-1.907,1.897-3.414,1.804l-1.629,0.493
				c-0.631,0.937-1.423,1.561-2.636,1.378c-0.686,0.228-1.372,0.457-2.058,0.685c-1.174,1.318-2.559,2.164-4.402,2.006l-0.294,0.108
				c-1.145,1.285-2.458,2.222-4.292,2.089c-5.761,3.714-11.521,7.428-17.282,11.143c-0.279,1.112-0.964,1.751-2.124,1.845
				l-0.262,0.229c-0.208,1.075-0.841,1.702-1.932,1.854l-0.326,0.32c-0.167,1.08-0.793,1.708-1.862,1.904l-0.251,0.277
				c-0.13,1.167-0.792,1.843-1.922,2.087l-0.056,0.075c-0.145,1.278-0.887,2.076-2.035,2.547c0,0,0,0,0,0.001
				c-4.954,8.056-8.878,16.569-11.407,25.701c0.311,2.729-0.191,5.29-1.584,7.667c-0.003,5.11-0.006,10.221-0.01,15.332
				c0.001,0.002,0.001,0.004,0.002,0.006c1.225,2.352,1.823,4.829,1.457,7.492c0.206,1.282,0.412,2.564,0.618,3.846
				c1.112,1.426,1.837,2.979,1.592,4.851c0.557,0.575,0.717,1.246,0.48,2.01c2.224,4.941,4.448,9.882,6.672,14.823v0
				c1.092,0.663,1.767,1.586,1.8,2.905c0.563,0.179,0.739,0.544,0.527,1.096c0,0,0,0,0,0.001c1.96,1.4,3.224,3.314,4.074,5.533
				c0.533,0.41,1.187,0.73,1.57,1.25c0.591,0.802,1.122,1.826,0.075,2.62c-0.445,0.337-1.376,0.496-1.833,0.255
				c-0.847-0.446-1.507-1.245-2.244-1.896c-2.266-0.681-3.171-2.53-3.897-4.534c-4.141-5.243-7.293-10.993-8.988-17.493
				c-0.543-0.281-0.665-0.688-0.365-1.221c0-0.004-0.001-0.007-0.001-0.01c0,0.003,0,0.006,0,0.009
				c-1.01-0.777-1.563-1.759-1.371-3.074c-0.27-1.146-0.54-2.292-0.81-3.438c0,0,0-0.001,0-0.001
				c-1.39-1.51-1.908-3.285-1.596-5.309c-0.186-1.221-0.371-2.441-0.557-3.662c0,0,0-0.001,0-0.001
				c-2.579-8.646-3.079-17.298-0.069-25.959c0.249-1.784,0.498-3.568,0.747-5.353c-0.353-1.873,0.402-3.385,1.553-4.768
				c1.688-8.155,5.285-15.334,10.965-21.448c0.169-1.3,0.921-2.12,2.116-2.574c0.003,0,0.005-0.004,0.008-0.004
				c2.056-3.672,4.968-6.48,8.625-8.534c0.316-1.167,1.041-1.836,2.278-1.887c5.519-5.169,11.821-9.023,19.038-11.342c0,0,0,0,0,0
				c0.647-1.182,1.652-1.682,2.979-1.562c0.411-0.575,0.958-0.772,1.641-0.593c0.535-1.049,1.353-1.561,2.551-1.354
				c0.731-0.241,1.462-0.482,2.193-0.724c0.433-0.787,0.998-1.322,1.986-1.083c7.763-3.963,16.049-6.562,24.396-8.849
				c4.135-1.133,8.544-1.464,12.854-1.696c3.772-0.203,6.534,1.542,5.831,3.042c-1.227,2.618-3.653,1.671-5.704,1.686
				c-6.97,0.051-13.523,1.994-20.091,4.09C1120.598,578.722,1117.164,581.047,1113.013,580.835z M1198.816,919.098
				c-0.272,0.762-0.798,1.112-1.585,1.054c-0.889,0.383-1.778,0.766-2.667,1.148c-0.289,0.697-0.786,0.967-1.498,0.813
				c-1.215,1.172-2.718,1.49-4.339,1.459c-0.871,0.234-1.68,0.601-2.418,1.122c-1.531,0.323-3.063,0.646-4.594,0.969
				c-1.209,0.949-2.506,1.588-4.102,1.235c-2.609,1.047-5.292,1.38-8.064,0.82c-0.006,0.002-0.012,0.004-0.018,0.007
				c0.003,0,0.005,0,0.008,0c-2.155,1.246-4.454,1.686-6.916,1.143c-1.857,0.712-3.722,0.689-5.593,0.062
				c-1.883,0.512-3.567,0.249-4.951-1.228c-2.025,0.678-3.889,0.207-5.679-0.797c-1.1,0.263-1.793-0.298-2.347-1.145
				c-13.042-4.235-20.379-13.445-23.195-26.598c0,0,0,0,0-0.001l0,0c-0.96-2.848-1.519-5.709-0.293-8.631
				c0.113-1.588,0.645-2.688,2.559-2.407c1.568,0.23,1.349,1.486,1.392,2.459c0.126,2.868,0.127,5.742,0.177,8.614
				c3.458,9.308,9.253,16.692,17.891,21.736c1.819-0.013,3.311,0.715,4.565,1.991c0.687-0.236,1.284-0.094,1.792,0.424
				c2.733-0.051,5.391,0.204,7.697,1.888c1.392-1.015,2.777-0.951,4.158,0.024c0,0,0,0,0,0c0,0,0.001,0,0.002-0.001
				c0.606-0.295,1.226-0.499,1.854-0.643c4.03-1.219,8.217-1.326,12.413-1.375c1.006-0.564,2.034-0.866,3.134-0.25
				c0.002,0,0.004-0.001,0.005-0.001c-0.001,0-0.003,0-0.005,0c1.477-1.766,3.472-1.981,5.58-1.858
				c0.482-0.516,1.053-0.647,1.712-0.394c1.359-1.3,2.954-1.975,4.855-1.844c0.286-0.54,0.696-0.661,1.229-0.362
				c0.204-0.007,0.204-0.01,0.002-0.001c0.737-1.11,1.747-1.718,3.107-1.678c0.289-0.575,0.734-0.749,1.336-0.522h0
				c0.639-1.129,1.574-1.785,2.901-1.815l0.279-0.138c1.313-0.928,2.659-3.272,3.867,0.092
				C1203.547,917.751,1201.052,918.306,1198.816,919.098z M1201.369,685.502c-2.277,4.204-5.064,8.029-8.458,11.403
				c0.08,0.774-0.225,1.341-0.915,1.701c0.058,1.075-0.547,1.68-1.46,2.066c-5.248,9.849-10.395,19.742-13.501,30.538
				c0.327,2.632-0.367,5.028-1.686,7.28c-0.178,1.922-0.356,3.844-0.535,5.766c-0.002,6.554-0.003,13.108-0.005,19.663
				c0.736,5.841,1.472,11.683,2.208,17.523c0.253,1.239,0.506,2.478,0.759,3.717c2.275,2.515,2.255,5.842,3.035,8.869
				c0.106,0.411-0.669,1.277-1.226,1.563c-0.496,0.255-1.466,0.254-1.862-0.074c-1.711-1.416-2.911-3.153-2.411-5.571
				c-0.194-1.219-0.387-2.438-0.581-3.657c-2.895-7.197-3.968-14.7-3.749-22.418c-0.953-6.521-0.969-13.045-0.063-19.571v0
				c0.014-0.749,0.029-1.498,0.043-2.247c-0.388-2.795-0.209-5.477,1.577-7.834c1.188-12.535,6.442-23.444,13.46-33.648
				c0.027-1.342,0.7-2.257,1.875-2.841c-0.129-0.693,0.128-1.185,0.771-1.474c-0.032-1.145,0.613-1.801,1.6-2.208l0.026-0.044
				c0.074-1.298,0.763-2.168,1.851-2.76c0.035-0.042,0.071-0.063,0.109-0.063c1.43-3.417,3.506-6.34,6.528-8.539
				c7.729-11.187,17.633-20.127,28.806-27.724c5.435-3.695,11.355-6.413,17.752-8.005c1.027-0.256,2.149-0.388,3.185-0.253
				c0.569,0.074,1.294,0.734,1.5,1.295c0.188,0.511-0.023,1.523-0.425,1.821c-0.839,0.624-1.889,1.021-2.906,1.339
				c-13.169,4.127-23.837,12.096-33.367,21.774C1209.244,677.015,1205.343,681.294,1201.369,685.502z M1262.355,958.043
				c-2.839-0.396-5.085-1.815-6.891-3.994c-1.191-0.124-2.06-0.634-2.304-1.9l-0.239-0.111c-3.853-1.85-6.454-4.914-8.378-8.634
				c-2.92-2.263-4.179-5.542-5.332-8.857c-0.348-1-0.225-2.122,0.838-2.713c1.516-0.844,2.594-0.217,3.32,1.233
				c1.252,2.499,2.51,4.995,3.765,7.493v0c0,0,0,0,0,0c2.27,2.564,4.541,5.129,6.811,7.694c0,0,0,0.001,0,0.001c0,0,0,0,0,0
				c3.8,2.411,7.602,4.823,11.403,7.235c2.445,0.635,4.863,1.41,7.339,1.879c9.794,1.855,19.457,1.691,28.831-2.186
				c3.327-1.376,6.672-2.709,10.009-4.062c0,0,0.001,0,0.001,0c0.654-1.27,1.732-1.791,3.121-1.761l0.109-0.052
				c1-1.437,2.309-2.306,4.092-2.3c2.507-2.811,5.609-4.812,8.911-6.542c0.291-1.089,0.862-1.875,2.098-1.937
				c-0.029-0.105-0.06-0.208-0.082-0.32c0.669-2,2.132-3.208,3.827-1.662c1.668,1.522,0.574,3.139-1.233,4.111
				c-0.001,0-0.002,0-0.003,0c0,0,0.001,0.001,0.002,0.002c-0.331,1.163-1.02,1.985-2.217,2.319
				c-0.999,2.483-2.803,3.955-5.466,4.346c-2.799,3.169-6.289,5.217-10.338,6.367c0,0,0-0.001,0-0.001
				c-0.002,0.001-0.003,0.002-0.005,0.003l-0.608,0.132c-1.548,0.165-2.6,1.241-3.789,2.064
				C1294.457,964.86,1278.619,966.165,1262.355,958.043z M1703.801,2369.65c-0.945,0.124-2.102-0.426-2.981-0.967
				c-1.192-0.733-2.547-1.613-2.159-3.352c0.63-2.818,1.65-5.49,3.5-7.827c3.323,2.159,2.725,5.698,3.165,8.811
				C1705.511,2367.631,1705.72,2369.397,1703.801,2369.65z M1579.177,1775.438c-0.445,0.573-0.94,1.106-1.914,2.245
				c-2.596-2.231-4.323-4.107-6.412-5.397c-1.945-1.201-4.247-0.879-6.198,0.409c-1.902,1.256-2.843,4.512-1.897,6.802
				c0.686,1.659,1.563,3.275,2.577,4.758c17.764,25.985,30.268,54.429,40.614,84.066c16.982,48.65,34.745,97.028,52.11,145.545
				c16.876,47.148,33.703,94.314,50.461,141.504c3.034,8.543,5.582,17.259,8.446,25.864c6.084,18.276,6.802,36.938,5.056,55.993
				c-2.375,25.906-8.75,50.717-18.231,74.86c-4.376,11.145-8.139,22.528-12.349,33.74c-1.38,3.675-2.068,7.693-4.708,10.803
				c-1.588,0.084-2.805-0.556-3.903-1.614c-3.14-3.022-6.585-5.771-9.443-9.036c-15.834-18.091-30.083-37.271-41.385-58.628
				c-4.356-8.231-3.795-15.468,1.692-22.218c6.261-7.701,10.5-16.531,15.432-24.984c6.966-11.936,8.094-24.623,4.823-37.879
				c-1.486-6.021-3.725-11.766-6.355-17.354c-7.264-15.434-14.174-31.056-22.013-46.195c-13.192-25.479-25.131-51.551-37.662-77.343
				c-6.344-13.057-13.275-25.828-19.822-38.787c-13.258-26.244-26.075-52.718-39.731-78.751
				c-18.727-35.701-38.732-70.719-59.972-104.977c-6.623-10.683-5.254-19.984,0.628-29.462c4.804-7.741,10.97-14.532,18.543-19.763
				c21.153-14.611,44.049-25.208,69.572-29.546c2.854-0.485,5.771-0.647,8.667-0.821c3.354-0.201,6.54,0.723,9.437,2.271
				C1581.332,1764.796,1584.255,1768.902,1579.177,1775.438z M1669.804,1506.835c6.691,10.061,10.867,21.296,14.073,32.896
				c2.692,9.739,2.497,19.452-0.933,28.939c-4.965,13.735-11.63,26.567-20.811,38.042c-14.314,17.892-29.188,35.246-45.869,51.031
				c-7.149,6.765-15.217,12.116-22.872,17.746c-0.733-0.434-1.081-0.524-1.203-0.74c-0.17-0.302-0.288-0.72-0.228-1.052
				c13.506-74.293,25.646-148.833,40.367-222.906c0.205-1.032,0.837-1.979,1.532-3.563c1.145,1.433,1.705,1.926,2.008,2.544
				C1645.647,1469.706,1657.528,1488.379,1669.804,1506.835z M1452.626,1151.993c18.894,13.436,37.013,27.915,59.102,36.479
				c20.946,8.12,41.274,17.845,61.822,26.983c15.769,7.013,29.521,16.962,41.896,28.961c13.244,12.839,19.593,28.466,20.064,46.767
				c0.253,9.857-0.952,19.569-1.951,29.333c-1.666,16.262-2.767,32.582-4.402,48.847c-4.108,40.864-10.279,81.436-18.538,121.658
				c-6.939,33.798-12.711,67.802-18.457,101.805c-6.413,37.954-13.426,75.785-21.13,113.494
				c-2.324,11.379-4.639,22.761-6.848,34.164c-0.607,3.136-1.601,4.91-5.376,5.415c-29.417,3.931-55.583,15.981-79.767,32.738
				c-7.25,5.023-13.063,11.528-18.277,18.569c-10.716,14.468-12.415,29.951-4.361,46.086c4.696,9.41,10.061,18.489,15.21,27.668
				c6.75,12.032,13.594,24.012,20.362,36.034c0.503,0.894,0.726,1.945,1.414,3.85c-16.127,0-31.392,0.668-46.578-0.137
				c-33.432-1.772-66.852-1.545-100.29-0.899c-27.982,0.541-55.961,1.161-83.955,0.4c-8.706-0.237-17.433,0.317-26.15,0.497
				c-5.813,0.12-11.627,0.305-17.44,0.293c-2.816-0.005-3.741-1.186-3.461-4.213c0.635-6.875,1.378-13.74,2.098-20.606
				c1.446-13.793,1.747-27.557-1.163-41.222c-0.604-2.837-1.317-5.663-2.19-8.427c-2.397-7.589-6.888-13.547-14.021-17.315
				c-4.81-2.542-9.553-5.238-14.498-7.489c-10.8-4.915-19.627-12.333-27.524-21c-10.595-11.628-19.366-24.455-25.753-38.892
				c-17.059-38.559-31.206-78.119-42.523-118.766c-11.977-43.015-22.285-86.446-33.393-129.677
				c-5.158-20.072-7.814-40.616-10.512-61.152c-3.32-25.275-4.853-50.65-4.956-76.1c-0.079-19.612-0.073-39.256,2.896-58.739
				c3.694-24.236,10.789-47.462,21.923-69.261c11.364-22.25,28.726-39.079,50.098-51.792c8.499-5.055,17.884-7.898,27.485-10.074
				c13.445-3.047,26.885-6.107,39.885-10.818c9.964-3.61,19.285-8.371,27.766-14.766c9.791-7.383,16.47-16.357,15.553-29.4
				c-0.424-6.035,2.235-10.541,7.257-13.667c15.613-9.718,32.609-13.78,50.94-12.353c2.801,0.218,4.796,1.425,5.901,4.042
				c0.987,2.339,1.864,4.738,3.027,6.987c2.652,5.13,6.714,8.271,12.564,9.398c9.55,1.841,18.891,0.198,28.108-1.63
				c16.368-3.246,32.577-7.287,48.913-10.706c12.113-2.535,24.322-4.601,36.703-1.498c0.703,0.176,1.442,0.207,2.148,0.371
				c9.522,2.218,9.399,2.251,11.65,11.683c1.514,6.343,3.488,12.575,5.165,18.881
				C1441.214,1140.89,1445.947,1147.244,1452.626,1151.993z M1443.407,1082.297c-1.674,1.905-3.504,3.681-5.344,5.431
				c-3.396,3.228-7.214,4.342-11.975,3.174c-20.203-4.956-40.303-3.83-60.323,1.354c-11.587,3-23.255,5.691-34.857,8.637
				c-4.622,1.174-9.306,1.528-14.029,1.741c-6.343,0.286-11.262-2.438-14.988-7.35c-1.746-2.301-3.067-4.922-4.606-7.383
				c-1.467-2.346-1.291-4.566-0.268-7.155c8.526-21.583,16.908-43.223,25.768-65.962c2.553,1.505,4.39,2.592,6.231,3.674
				c29.924,17.577,62.236,27.639,96.796,30.283c11.694,0.895,23.125-1.247,34.318-4.729c2.256-0.702,4.29-2.769,7.015-1.621
				C1462.668,1053.212,1449.623,1075.223,1443.407,1082.297z M1491.397,942.585c-0.823,3.886-2.634,7.16-6.256,9.163
				c-0.392,1.152-1.165,1.891-2.353,2.18c-2.974,4.298-7.213,6.845-11.984,8.655c-0.046,0.004-0.087,0.015-0.132,0.021
				c0.044-0.005,0.086-0.015,0.13-0.02c-0.702,1.287-1.736,2.048-3.252,2.042l-0.202,0.088c-1.187,1.417-2.609,2.343-4.552,2.185
				l-0.68,0.048c-0.209,0.015-0.209,0.017,0,0c-0.791,1.386-2.004,1.957-3.569,1.853c0,0,0,0,0,0l-0.764,0.524l-0.922-0.058
				c-0.608,0.793-1.303,1.381-2.4,1.038c-1.94,1.24-4.124,1.379-6.333,1.4c-1.432,0.632-2.857,1.263-4.278,1.894
				c0,0,0.001,0.001,0.001,0.001c-7.972,2.723-14.658,2.734-22.501,0.04c0,0,0,0,0.001-0.001c-0.147-0.063-0.306-0.129-0.475-0.196
				c-3.021-1.206-6.238-1.775-9.481-2.032c-4.16-0.33-7.995-1.911-11.704-3.971c-7.281-1.694-13.685-5.162-19.574-9.672
				c-1.934-0.669-3.749-1.493-4.639-3.531l-0.148-0.041c-3.51-1.432-18.413-16.594-18.785-17.109c-0.6-0.827-1.108-1.88-0.102-2.77
				c0.968-0.856,1.989-0.344,2.793,0.31c0.504,0.411,7.696,8.186,7.696,8.186c1.214,0.191,2.547,2.104,2.547,2.104
				c2.06,0.307,3.181,1.81,4.271,3.352c0.02,0.153,0.041,0.149,0.001,0.001c2.542,1.259,4.968,2.678,6.708,5.014c0,0,0,0,0,0
				c0,0,0.001,0,0.001,0c0,0,0.043,0.083,0.043,0.083c0,0,0,0,0,0c1.775,0.137,3.057,1.077,4.051,2.483l0.031,0.017
				c1.511,0.071,2.588,0.831,3.341,2.105c3.027,0.337,5.414,2.006,7.772,3.735c4.361,1.589,8.722,3.178,13.082,4.766
				c3.124,0.196,6.313,0.074,9.072,1.952c9.239,0.68,18.479,0.741,27.721,0.069l-0.05-0.01c-0.002,0-0.004,0-0.006,0
				c1.15-1.541,2.737-1.621,4.435-1.327c1.358-0.448,2.99-0.987,4.347-1.435c0.507-0.454,1.143-0.622,1.94-0.436c0,0,0,0,0,0
				c8.73-3.44,16.351-8.819,24.184-13.828c0.001,0,0.237-0.016,0.239-0.016c0.049-1.212,0.818-1.806,1.858-2.164
				c1.681-3.04,3.223-6.197,6.079-8.353c0.437-0.329,1.446-0.319,1.94-0.033C1491.013,941.17,1491.505,942.08,1491.397,942.585z
				 M1484.918,648.122c-2.571,0.312-4.881-0.405-7.025-1.78c-1.311-0.164-2.622-0.329-3.932-0.493
				c-2.752,0.206-5.454,0.195-7.694-1.793c-1.809,0.826-3.57,0.351-5.327-0.201c0,0-0.001-0.001-0.001-0.001c0,0,0,0.001,0,0.001
				c-2.205-0.13-4.41-0.26-6.616-0.391c-5.095,0.393-10.131,0.19-15.046-1.237c-0.422-0.11-0.843-0.231-1.262-0.379
				c-0.002-0.001-0.005-0.001-0.007-0.002c-2.976-0.056-5.952-0.112-8.928-0.169c-0.002-0.003-0.004-0.007-0.006-0.011
				c-0.001,0.003-0.003,0.005-0.004,0.009c-1.032-0.018-2.242,0.161-2.596-1.182c-0.479-1.82,0.722-2.729,2.216-2.782
				c7.225-0.256,14.46-0.435,21.554,1.413c5.085-0.042,10.166-0.013,15.153,1.197c0.997,0.202,1.994,0.403,2.991,0.605l0,0
				c0.808-0.563,1.415-0.242,1.95,0.418c14.336,1.259,28.006,5.004,41.071,11.007c0,0,0,0.001,0,0.001c0.001,0,0.002,0,0.002-0.001
				c10.183,2.768,19.495,7.369,28.12,13.408c8.465,4.412,15,10.845,19.909,18.986c0,0,0,0.001,0,0.002c0,0,0,0,0.001-0.001
				c0-0.001,0.053,0.147,0.053,0.147c1.241,0.393,1.814,1.285,1.897,2.542l0.026,0.015c0.554,0.728,2.483,2.928,2.292,3.59
				c0.019,0.188,6.866,12.532,6.586,13.118c0.041,1.188,0.869,2.006,1.396,2.965c0.277,1.065,0.555,2.129,0.832,3.194
				c-0.024,0.199-0.011,0.195,0,0.002c1.084,0.862,1.559,1.969,1.336,3.354c0.278,1.259,0.556,2.517,0.834,3.776
				c1.247,1.472,1.816,3.128,1.382,5.059c0,0-0.262,1.569,0.153,2.11c0.243,2.572,0.486,5.145,0.729,7.717
				c0,0.003,0.001,0.006,0.001,0.009c1.445,4.982,1.471,9.962-0.051,14.937c-1.446,24.18-10.995,44.61-28.417,61.395
				c-2.387,3.329-5.356,5.919-9.268,7.314c-2.358,2.453-5.473,3.317-8.643,3.826c-1.914,0.308-3.398-0.656-3.905-2.98
				c3.34-1.059,6.698-2.125,10.056-3.189c3.717-3.141,7.434-6.282,11.15-9.422l0.112-0.761l0.716-0.281
				c0.347-0.795,0.893-1.416,1.637-1.862l0.27-0.35c0.091-1.166,0.768-1.835,1.836-2.172c0,0,0,0,0,0l0.043-0.059
				c0.134-1.289,0.852-2.127,2.018-2.62c1.601-2.759,3.147-5.552,4.813-8.271c7-11.428,10.998-23.918,13.22-37.046
				c-0.04-7.998-0.08-15.995-0.12-23.993c-0.185-1.817-0.37-3.633-0.555-5.45c0-0.001,0-0.002,0-0.003
				c-1.284-1.58-1.817-3.38-1.564-5.408c-0.223-1.052-0.445-2.104-0.668-3.156c0.028-0.247,0.01-0.241-0.001-0.002
				c-1.115-0.854-1.599-1.979-1.439-3.379c-0.586-0.539-0.76-1.188-0.523-1.947c-1.262-1.303-2.172-2.746-1.88-4.674
				c-0.559-0.379-0.759-0.897-0.601-1.554c-2.181-1.887-3.174-4.454-4.053-7.086c-0.572-0.654-1.053-1.369-1.445-2.144
				c-0.968-1.488-1.936-2.976-2.903-4.464c-6.138-7.064-12.813-13.564-20.251-19.262c-9.928-4.541-19.855-9.081-29.783-13.621
				C1499.477,652.481,1492.197,650.301,1484.918,648.122z M1609.19,1008.71c-1.837,1.727-3.699,3.463-6.358,3.856
				c-14.283,8.1-29.729,9.669-45.699,7.955c-3.166-0.34-6.255-1.393-9.38-2.117c0,0,0.001,0,0.001,0
				c-1.104,0.326-1.85-0.178-2.448-1.034c-1.327-0.35-2.653-0.699-3.98-1.049c0,0,0.001,0,0.001,0.001
				c-1.042,0.248-1.662-0.284-2.112-1.132c-0.775,0.186-1.408-0.035-1.9-0.661c-5.21-1.673-9.653-4.552-13.405-8.518
				c-1.224-0.084-1.896-0.753-2.084-1.943l-0.006,0.015c-0.001-0.003-0.003-0.006-0.005-0.009c0.001,0.003,0.003,0.005,0.004,0.009
				c-1.269-0.105-2.061-0.756-2.31-2.026l-0.028-0.015c-0.004-0.012-0.008-0.022-0.012-0.033c0.002,0.012,0.009,0.021,0.012,0.033
				c-1.25-0.134-2.022-0.79-2.237-2.052l-0.265-0.188c-4.732-3.359-8.769-7.308-10.958-12.834c-1.426-1.295-2.252-2.964-0.59-4.34
				c1.74-1.44,3.132-0.524,3.65,1.617c3.553,4.342,7.106,8.684,10.659,13.026c7.014,5.61,14.218,10.939,22.199,15.13
				c0.764-0.207,1.418-0.025,1.966,0.546c1.797-0.217,3.25,0.521,4.564,1.643c0.718-0.288,1.359-0.166,1.923,0.364
				c3.191-0.152,6.277,0.238,9.173,1.609c0.196,0.079,0.39,0.17,0.581,0.275c5.325-0.307,10.664-0.467,15.973-0.952
				c8.203-0.75,16.065-3.006,23.753-5.898c2.305-1.703,4.622-3.39,6.909-5.115c1.002-0.756,2.017-0.753,2.839,0.094
				C1610.923,1006.31,1610.337,1007.633,1609.19,1008.71z M1698.614,951.52c-1.689,8.85-6.168,16.064-12.887,21.964
				c-0.257,1.173-0.861,1.98-2.163,2.054c-0.203,1.306-0.939,2.077-2.263,2.259c-0.169,1.283-0.996,1.941-2.164,2.274
				c-1.028,2.487-3.019,3.821-5.487,4.584c-6.165,5.301-13.111,9.016-21.187,10.439c-0.005,0.001-1.05,0.203-1.05,0.203
				c-0.004,0.003-0.009,0.005-0.014,0.008c-2.21,1.874-4.767,2.414-7.583,1.934c-3.467,0.915-6.985,1.4-10.528,0.661
				c-0.902-0.188-2.277-0.989-2.34-1.617c-0.083-0.842,0.842-1.785,2.096-1.913c5.291-0.542,10.576-1.134,15.863-1.708
				c1.5-1.676,3.484-1.995,5.584-1.992c0,0,0.001,0,0.002-0.001c1.35-1.312,2.881-2.201,4.851-2.046l0.154-0.057
				c1.127-1.255,2.411-2.198,4.209-2.123l0.145-0.066h0c1.049-1.388,2.334-2.344,4.164-2.314c2.313-2.911,5.271-4.962,8.633-6.476
				c0,0,0,0,0,0c0,0,0.299,0.006,0.301,0.006c0.19-1.28,0.996-1.903,2.218-2.082c0,0,0,0,0,0c0,0,0,0,0-0.001
				c0.74-2.065,2.279-3.397,4.097-4.471c5.465-7.782,10.203-15.94,12.952-25.123c0.023-4.296,0.046-8.593,0.07-12.89
				c-0.001-0.001-0.001-0.003-0.002-0.005v0c-1.302-2.375-1.901-4.897-1.547-7.613c-2.041-6.731-3.62-13.632-7.268-19.772
				c-1.469-0.764-2.078-2.284-1.189-3.378c1.28-1.577,2.985-1.495,4.102,0.569c0,0.001,0,0.002,0,0.003l0.002-0.001
				c5.796,7.537,8.482,16.113,8.548,25.565c0,0.001,0,0.002,0,0.003c2.875,7.182,2.909,14.366-0.001,21.55
				C1699.258,950.56,1699.151,951.084,1698.614,951.52z M1705.18,545.062c-1.009,0.081-1.594-0.452-1.934-1.337
				c-3.62-1.621-7.243-3.235-10.86-4.863c-9.246-4.162-18.834-4.833-28.693-2.853c-11.394,2.288-22.458,5.603-33.038,10.46
				c-1.296,0.595-2.628,1.17-4.004,1.513c-0.55,0.137-1.528-0.192-1.846-0.64c-0.674-0.948-0.293-1.999,0.507-2.782
				c0.505-0.494,1.098-0.943,1.728-1.257c14.397-7.175,29.509-11.922,45.638-12.856c9.237-0.535,17.952,1.537,25.887,6.473
				c0.001,0.001,0.003,0.002,0.004,0.004c-0.001-0.001-0.002-0.002-0.002-0.003c1.924-0.141,3.299,0.798,4.413,2.251l0.147,0.067
				c1.403-0.046,2.379,0.597,2.979,1.846c0.698-0.11,1.2,0.154,1.503,0.792c1.122-0.138,1.678,0.474,1.948,1.465l0.256,0.196
				c5.157,2.669,9.695,6.079,13.064,10.891c1.181,0.244,1.853,0.994,2.13,2.136c6.127,4.501,10.022,10.63,12.803,17.57
				c0.58,0.265,0.735,0.687,0.466,1.265c0.056,1.231,0.894,2.071,1.512,3.021c-0.503-1.006-1.007-2.013-1.511-3.02
				c1.053,0.731,1.651,1.691,1.511,3.02c0.604,0.504,0.778,1.128,0.523,1.872c1.161,1.341,1.956,2.812,1.664,4.67
				c0.209,1.189,0.417,2.379,0.626,3.569c0.001,0.002,0.002,0.004,0.003,0.007c1.746,2.966,2.159,6.167,1.665,9.525
				c0.015,0.759,0.03,1.518,0.044,2.276c0.915,6.503,0.934,13.004-0.051,19.503c-0.021,0.769-0.042,1.539-0.063,2.308
				c0.392,2.797,0.216,5.478-1.605,7.82c0.546,1.088,0.256,2.067-0.389,3.001c-0.877,5.723-2.343,11.224-6,15.898c0,0,0,0,0,0
				c0,0,0,0,0,0c-0.097,2.351-1.383,4.142-2.772,5.883c-0.973,4.313-3.647,7.672-6.215,11.09c-1.092,3.063-3.003,5.601-5.371,7.737
				c-0.635,0.572-2.021,0.817-2.849,0.551c-1.219-0.391-1.153-1.908-0.628-2.691c1.95-2.914,4.122-5.68,6.21-8.501
				c1.779-3.839,3.174-7.902,6.351-10.929h0c0,0,0,0,0,0c0.331-2.263,1.475-4.131,2.852-5.888
				c2.048-6.812,4.096-13.625,6.144-20.437c-0.009-10.955-0.019-21.909-0.028-32.863c0-0.001,0-0.002-0.001-0.004v0
				c-1.311-1.637-1.771-3.509-1.528-5.575c-0.234-1.15-0.469-2.301-0.704-3.452c0,0,0,0,0-0.001
				c-0.955-0.798-1.477-1.787-1.344-3.064c-0.214-0.694-0.429-1.389-0.643-2.083c-4.39-6.559-8.779-13.116-13.168-19.674
				c-1.146-0.283-1.86-1-2.154-2.138c-4.455-3.6-8.909-7.199-13.364-10.799C1706.178,546.102,1705.574,545.779,1705.18,545.062z
				 M1765.51,809.213c-0.107,0.658-0.704,1.236-1.073,1.853c0,0.001,0,0.002,0,0.003c-0.717,12.424-5.259,23.735-10.511,34.748
				c-5.428,11.38-12.429,21.843-20.071,31.86c-0.577,0.756-1.675,1.113-2.531,1.656c0,0-0.001,0-0.001,0c0,0,0,0,0,0
				c-2.053,0.676-2.283-0.264-1.703-1.921c1.34-4.189,4.419-7.3,6.837-10.796c14.164-20.475,23.255-42.851,25.803-67.735
				c-0.275-14.516-5.951-27.118-13.802-38.95c0.015,0.004,0.031,0.008,0.046,0.012c-0.179-1.21-0.999-1.881-2.013-2.39
				c0.004,0.011,0.011,0.019,0.016,0.03l-0.037-0.041c0.007,0.003,0.014,0.008,0.021,0.011c-0.405-1-1.166-1.673-2.059-2.225
				l-0.049-0.058c-0.574-0.811-1.256-1.517-2.046-2.119l-0.141-0.15c-0.588-0.753-1.253-1.43-1.997-2.029l-0.188-0.188
				c-0.594-0.739-1.266-1.4-2.004-1.994l-0.178-0.174c-0.597-0.762-1.29-1.427-2.063-2.008l-0.119-0.109
				c-0.6-0.817-1.318-1.512-2.156-2.083l-0.006-0.005c-0.528-0.977-1.308-1.659-2.364-2.018c-7.398-5.011-13.79-11.511-22.23-14.985
				c-1.181-0.486-1.33-1.637-0.861-2.599c0.24-0.492,1.171-0.896,1.798-0.907c2.58-0.049,4.897,0.806,7.044,2.263
				c14.355,9.746,27.623,20.634,37.325,35.297C1765.381,775.625,1768.35,791.739,1765.51,809.213z"/>
			<path d="M1469.622,456.636c-0.645,0.4-1.292,0.794-1.943,1.183c0.651-0.396,1.301-0.791,1.946-1.184
				C1469.624,456.636,1469.623,456.636,1469.622,456.636z"/>
			<path d="M1438.974,475.729c0.02,0.004,0.689,0.154,0.875,0.19C1439.612,475.731,1439.323,475.662,1438.974,475.729z"/>
		</g>
		<path d="M1559.491,684.893"/>
		<g>
			<path d="M1722.643,555.319c0.213-0.232,0.293-0.526,0.235-0.885C1722.871,554.457,1722.672,555.189,1722.643,555.319z"/>
			<path d="M1721.132,556.706c-0.263,0.043-0.75,0.122-0.77,0.125C1720.659,556.88,1720.913,556.832,1721.132,556.706z"/>
			<path d="M1736.322,580.726c0.448,1.021,0.896,2.042,1.344,3.064C1737.696,582.56,1736.853,581.711,1736.322,580.726z"/>
		</g>
		<g>
			<path d="M1253.159,952.149"/>
		</g>
		<path d="M1517.244,999.991"/>
		<path style="fill:#787676;" d="M1755.44,2793c0.101-1.51,0.202-3.02,0.303-4.53c5.256-0.43,10.143-1.591,13.071-6.619
			c2.6,3.381,1.897,7.325,1.899,11.149C1765.621,2793,1760.531,2793,1755.44,2793z"/>
		<path style="fill:#747474;" d="M1094.418,2790.882c-0.023,0.706-0.046,1.412-0.069,2.118c-4.364,0-8.727,0-13.091,0
			c0.115-0.811,0.231-1.621,0.346-2.431C1085.962,2787.154,1090.222,2787.694,1094.418,2790.882z"/>
		<path style="fill:#C9D6D6;" d="M1454.14,461.401c-0.541,0.441-1.082,0.882-1.62,1.321
			C1453.061,462.281,1453.601,461.841,1454.14,461.401z"/>
		<path style="fill:#010101;" d="M1435.006,1715.911c-0.126,1.248-0.105,2.363-0.37,3.404c-0.58,2.279-2.106,3.79-4.364,4.362
			c-2.282,0.578-4.253-0.134-5.911-1.839c-2.681-2.757-3.472-6.404-4.286-9.878c-1.822-7.769-3.422-15.603-4.768-23.469
			c-3.921-22.91-6.82-45.954-9.375-69.062c-2.796-25.285-4.403-50.654-6.472-75.992c-0.769-9.412-1.664-18.813-2.454-28.223
			c-0.15-1.792-0.255-3.624-0.059-5.402c0.289-2.619,2.522-4.462,5.222-4.637c2.75-0.178,5.307,1.162,5.985,3.7
			c0.933,3.495,1.627,7.077,2.106,10.664c3.03,22.687,4.728,45.505,6.71,68.298c3.587,41.245,7.806,82.413,17.24,122.845
			C1434.62,1712.442,1434.761,1714.265,1435.006,1715.911z"/>
	</g>
</g>
</svg>
