<?xml version="1.0" encoding="iso-8859-1"?>
<!-- Generator: Adobe Illustrator 23.0.2, SVG Export Plug-In . SVG Version: 6.00 Build 0)  -->
<svg version="1.1" xmlns="http://www.w3.org/2000/svg" xmlns:xlink="http://www.w3.org/1999/xlink" x="0px" y="0px"
	 viewBox="0 0 2793 2793" style="enable-background:new 0 0 2793 2793;" xml:space="preserve">
<g id="Background_xA0_Image_1_">
</g>
<g id="Layer_2_xA0_Image_1_">
</g>
<g id="Layer_3_xA0_Image_1_">
</g>
<g id="Layer_5_xA0_Image_1_">
</g>
<g id="Layer_8_xA0_Image_1_">
</g>
<g id="Layer_9_xA0_Image_1_">
	<g>
		<g>
			<path style="fill:#020101;" d="M2283.724,2495.958c-1.539-5.592-4.224-10.997-4.898-16.665
				c-0.804-6.76-3.504-12.555-6.557-18.291c-3.237-6.082-6.75-12.036-10.462-17.842c-8.856-13.855-19.772-26.024-31.442-37.537
				c-10.882-10.735-21.045-22.123-30.697-33.96c-7.175-8.799-12.75-18.464-15.893-29.516c-3.653-12.844-2.632-25.131,3.373-37.019
				c2.454-4.859,5.059-9.643,7.458-14.529c5.717-11.639,7.99-24.002,7.983-36.928c-0.008-14.379-3.19-28.116-7.923-41.538
				c-9.34-26.486-22.514-51.136-36.729-75.239c-25.115-42.584-52.099-83.958-81.357-123.82
				c-16.529-22.52-31.393-46.291-50.288-67.045c-2.189-2.404-3.879-5.259-5.828-7.885c-5.413-7.295-10.784-14.621-16.272-21.859
				c-13.878-18.305-25.575-37.923-35.414-58.659c-1.076-2.268-1.755-4.725-2.618-7.094c0.875-1.714,2.046-0.331,3.088-0.295
				c3.099,0.994,6.134,2.354,9.309,2.913c9.386,1.653,14.993-4.258,12.394-13.317c-1.593-5.55-4.021-10.874-6.272-16.217
				c-5.776-13.709-11.93-27.266-17.442-41.079c-8.117-20.342-13.087-41.526-15.552-63.281c-0.514-4.536-1.087-9.125-0.355-14.474
				c4.003,1.776,6.599,4.265,9.433,6.347c8.781,6.451,17.379,13.197,27.178,18.086c3.878,1.936,7.896,3.822,12.065,4.898
				c8.344,2.153,14.422-3.993,12.457-12.451c-0.729-3.138-2.178-6.142-3.549-9.09c-5.968-12.837-11.953-25.658-16.596-39.06
				c-15.19-43.844-23.258-89.185-27.876-135.176c-3.785-37.697-2.963-75.549-1.626-113.327c1.092-30.865,3.628-61.676,5.214-92.527
				c2.446-47.586,2.797-95.192,0.583-142.804c-0.44-9.464-1.975-18.774-3.562-28.085c-3.066-17.991-9.774-34.938-15.714-52.018
				c-12.595-36.222-34.412-67.033-59.206-95.823c-17.68-20.529-38.845-37.189-60.938-52.592
				c-24.516-17.094-50.856-30.905-79.149-40.732c-7.524-2.613-15.39-4.226-22.982-6.663c-47.047-15.102-94.212-15.253-141.637-1.749
				c-47.02,13.389-89.245,36.365-129.012,64.213c-14.876,10.417-29.267,21.529-43.844,32.371
				c-22.739,16.914-45.528,33.763-68.148,50.835c-25.876,19.53-53.107,36.747-82.614,50.334
				c-26.035,11.988-52.076,23.969-76.953,38.323c-27.285,15.744-51.489,35.31-73.319,57.914c-1.503,1.557-3.091,3.193-4.034,5.093
				c-1.701,3.43-1.875,7.104,0.706,10.254c2.282,2.786,5.389,3.466,8.881,2.57c2.795-0.717,5.617-1.326,8.427-1.983
				c2.2-1.065,4.518-0.62,6.847-0.544c0.338,0.167,0.817-0.708,1.018,0.143c-1.008,0.485-1.8,1.236-2.392,2.205
				c-29.12,15.923-55.718,35.319-80.061,57.866c-21.43,19.85-40.156,41.889-55.053,67.087
				c-10.398,17.588-18.125,36.304-23.399,56.017c-1.021,3.814-1.857,7.862-1.713,11.762c0.289,7.839,7.509,11.32,13.944,6.943
				c2.373-1.614,4.395-3.764,6.492-5.76c3.935-3.743,7.816-7.541,12.862-9.825c0.611,0,1.011,0.047,1.025,0.162
				c0.093,0.778-0.207,1.382-0.867,1.807c-16.927,19.052-30.734,40.173-42.292,62.867c-20.397,40.052-32.996,82.494-39.53,126.843
				c-0.261,1.773-0.562,3.624-0.328,5.369c0.45,3.349,1.844,6.3,5.247,7.673c3.199,1.292,6.817,0.15,9.623-3.074
				c2.131-2.448,4.084-5.051,6.116-7.586c5.177-0.976,3.175,2.038,2.423,4.358c-0.303,1.787-0.455,3.616-0.933,5.355
				c-8.554,31.136-16.53,62.448-25.876,93.345c-14.825,49.01-31.125,97.507-57.395,141.946c-4.808,8.135-8.353,16.917-11.153,25.956
				c-0.962,3.107-2.539,6.435-2.159,9.451c0.582,4.62-1.443,7.376-4.137,10.487c-20.453,23.623-40.979,47.187-61.109,71.084
				c-24.11,28.621-47.792,57.601-71.777,86.328c-10.246,12.271-20.863,24.231-31.177,36.446
				c-12.25,14.508-22.574,30.239-29.826,47.883c-8.167,19.87-11.711,40.362-8.653,61.803c1.23,8.624,2.478,17.249,3.459,25.903
				c1.582,13.95-1.888,26.628-10.033,38.07c-4.226,5.936-8.91,11.464-13.986,16.688c-12.191,12.546-25.549,23.696-39.694,33.976
				c-11.161,8.111-22.204,16.403-33.004,24.987c-17.952,14.269-29.226,32.837-35.229,54.953c-6.33,23.32-9.037,47.053-9.173,71.1
				c-0.099,17.446,1.071,34.804,4.443,52.023c5.607,28.638,15.25,56.009,25.903,83.005c14.391,36.469,31.112,71.923,48.829,106.893
				c3.769,7.44,7.855,14.737,12.146,21.89c9.477,15.798,21.374,29.319,37.52,38.7c2.505,1.455,4.862,3.162,7.287,4.753
				c2.711,3.627,6.648,2.183,10.064,2.191c38.05,0.088,76.1,0.055,114.149,0.01c4.344-0.005,8.689-0.28,13.033-0.43
				c0.69,0.021,1.385,0.097,2.067,0.034c0.291-0.026,0.555-0.343,0.831-0.527c-0.295-0.42-0.517-1.092-0.901-1.202
				c-0.63-0.181-1.364,0.003-2.054,0.033c0,0,0,0,0,0.001c0,0,0,0-0.001,0c-2.023-0.174-4.047-0.347-6.07-0.521
				c-4.204-2.499-8.772-2.023-13.33-1.633c-1.457,0.03-2.914,0.059-4.371,0.089c-2.169-0.018-4.338-0.035-6.506-0.052c0,0,0,0,0,0
				c0,0,0,0-0.001,0c-7.305-0.741-14.616-0.728-21.931-0.205c0,0,0,0.001,0,0.001c-0.001,0-0.001-0.001-0.002-0.001
				c-15.854-1.669-31.728-0.692-47.597-0.363c0,0,0,0,0,0l-0.116,0.083c0,0-0.001,0-0.001-0.001
				c-0.322-0.215-0.655-0.373-0.992-0.508c-3.755-1.733-7.932-1.394-11.895-2.115v0c-9.568-4.408-18.321-10.171-27.119-15.915
				c-8.354-5.455-15.397-12.167-21.122-20.231c-3.989-5.618-7.94-11.335-11.185-17.396c-7.022-13.118-13.861-26.349-20.274-39.773
				c-18.935-39.636-36.759-79.698-50.581-121.524c-16.042-48.546-18.281-97.456-7.396-147.214
				c4.996-22.838,15.803-41.995,34.665-56.246c3.479-2.628,6.834-5.421,10.34-8.011c7.598-5.613,15.256-11.144,22.89-16.708
				c13.84-10.087,26.677-21.325,38.596-33.617c7.108-7.33,13.553-15.181,18.733-24.007c8.403-14.317,11.315-29.73,8.956-46.131
				c-0.724-5.032-1.803-10.013-2.525-15.046c-3.378-23.553-1.231-46.249,9.442-67.969c7.77-15.814,17.964-29.813,29.329-43.112
				c16.529-19.341,33.194-38.571,49.407-58.174c31.502-38.091,62.747-76.395,95.335-113.572
				c34.527-39.389,70.31-77.524,109.802-112.084c20.123-17.609,42.135-32.092,66.157-43.661c9.508-4.579,19.336-8.342,29.567-10.902
				c22.36-5.595,45.168-7.066,68.122-6.946c0.917,0.005,1.83,0.652,2.991,1.094c-0.415,2.346-0.677,4.501-1.185,6.597
				c-4.809,19.804-1.566,38.258,9.636,55.188c4.201,6.349,9.048,12.278,13.731,18.296c5.802,7.456,11.839,14.729,17.593,22.22
				c6.658,8.668,12.26,18.018,16.807,27.955c4.761,10.405,7.826,21.314,5.58,32.777c-2.52,12.86-7.169,25.101-12.735,36.977
				c-1.22,2.604-2.913,3.737-5.938,3.424c-11.509-1.19-20.344,3.816-27.672,12.254c-5.502,6.336-10.323,13.148-14.468,20.423
				c-4.313,7.57-8.435,15.248-12.664,22.866c-6.342,11.426-12.252,23.122-19.155,34.199c-12.869,20.651-25.964,41.179-39.606,61.324
				c-24.683,36.449-51.443,71.304-81.491,103.566c-8.667,9.306-17.048,18.891-25.285,28.581c-3.747,4.407-6.988,9.277-10.147,14.139
				c-1.97,3.031-3.322,6.433-3.783,10.129c-0.945,7.579,1.865,12.748,8.957,15.515c3.024,1.179,6.284,1.761,9.445,2.584
				c4.912,1.279,9.844,2.483,14.745,3.805c26.725,7.21,50.3,20.774,72.087,37.298c15.922,12.076,31.435,24.542,50.065,31.422
				c0.109,1.49,0.36,2.245,0.184,2.882c-9.644,34.9-24.242,67.577-43.972,97.957c-5.538,8.528-11.016,17.098-16.36,25.748
				c-3.439,5.566-6.251,11.461-8.355,17.686c-2.851,8.435-3.928,16.902-1.536,25.689c1.253,4.602,2.99,8.992,5.295,13.083
				c3.838,6.812,4.351,13.721,1.747,20.979c-1.714,4.779-3.152,9.681-5.209,14.307c-6.12,13.766-9.435,28.154-10.686,43.131
				c-1.465,17.547-6.289,34.232-13.742,50.164c-5.075,10.848-10.12,21.712-15.303,32.508c-9.268,19.303-22.263,35.714-39.016,49.026
				c-4.518,3.59-9.453,6.857-14.634,9.373c-16.408,7.968-33.721,13.273-51.727,16.274c-2.829-0.867-5.636-0.173-8.437,0.162
				c-5.279,0.631-10.549,1.332-15.823,2.003c0,0,0,0,0,0c-1.729-0.347-3.457-0.685-4.979,0.664c1.49,1.416,3.218,1.057,4.943,0.715
				c-0.028-0.46-0.016-0.92,0.036-1.379c-0.012,0.459-0.024,0.919-0.036,1.378c23.071,1.238,46.161,0.406,69.241,0.608
				c1.808,0.016,3.614-0.106,4.735-1.886c0,0,0,0,0,0c14.18-5.319,26.27-13.867,37.174-24.203
				c8.217-7.788,14.855-16.913,21.675-25.882c0.982-1.291,1.632-3.336,4.212-2.336c0.365,13.781,2.624,27.405,4.906,41.016
				c2.169,12.938,2.766,13.299,16.041,12.169c0.65-0.055,1.254-0.643,2.295-1.209c-0.593-3.708-1.126-7.614-1.852-11.483
				c-3.555-18.94-6.908-37.896-6.231-57.298c0.101-2.883,0.459-5.908-1.607-8.356c-1.721-2.038-1.052-4.042-0.119-6.038
				c3.074-6.576,6.241-13.108,9.298-19.692c8.018-17.269,13.267-35.265,14.841-54.334c1.08-13.083,3.772-25.863,9.191-37.942
				c1.039-2.317,1.934-4.698,2.919-7.041c6.505-15.463,8.125-30.625-1.015-45.948c-4.495-7.535-4.291-16.056-0.867-24.201
				c1.963-4.671,4.094-9.318,6.64-13.688c4.02-6.899,8.31-13.653,12.738-20.301c19.443-29.193,34.78-60.339,45.074-93.919
				c0.848-2.767,1.779-5.557,3.085-8.126c7.061-13.886,13.842-27.938,21.499-41.492c9.997-17.698,20.623-35.044,31.162-52.43
				c8.472-13.976,17.259-27.76,25.831-41.675c22.296-36.192,42.546-73.553,62.802-110.895
				c13.329-24.573,25.064-49.952,34.527-76.317c1.967-5.479,4.131-10.939,3.556-16.906c-0.337-3.496,0.95-6.336,2.632-9.206
				c7.712-13.157,15.347-26.36,23.052-39.521c1.002-1.712,1.481-4.074,4.703-4.129c2.587,4.954,5.546,9.966,7.9,15.247
				c8.326,18.681,19.253,35.81,31.082,52.381c6.763,9.474,14.121,18.464,23.659,25.443c15.27,11.172,31.724,13.888,49.375,6.855
				c16.614-6.621,32.136-15.249,45.89-26.817c18.396-15.474,35.485-32.283,51.204-50.473c9.269-10.725,18.462-21.516,27.753-32.222
				c1.318-1.519,2.233-3.789,5.268-3.545c1.473,2.683,3.097,5.501,4.593,8.386c20.386,39.321,40.705,78.678,61.138,117.975
				c45.093,86.719,92.204,172.265,147.635,252.947c4.368,6.358,7.998,12.838,9.063,20.657c0.432,3.173,1.946,6.21,3.054,9.277
				c4.446,12.299,9.732,24.244,15.413,36.011c2.238,4.635,3.913,9.231,3.509,14.551c-0.36,4.741,0.887,9.251,2.701,13.739
				c3.124,7.726,5.957,15.597,8.409,23.562c3.319,10.779,7.361,21.233,11.979,31.52c4.452,9.917,9.167,19.723,12.281,30.23
				c3.454,11.655,3.06,22.827-1.833,33.994c-3.056,6.973-5.718,14.132-8.296,21.301c-7.511,20.888-8.406,41.873-0.558,62.924
				c2.155,5.78,3.974,11.697,6.356,17.379c3.946,9.411,8.933,18.215,15.567,26.096c4.166,4.948,10.684,8.342,12.267,14.935
				c1.511,6.294,1.484,12.963,2.059,19.474c0.256,2.895,0.352,5.805,0.482,8.71c0.931,20.817-0.699,41.356-6.601,61.446
				c-0.504,1.717-0.783,3.563-0.789,5.351c-0.012,3.326,2.467,6.348,5.656,7.151c3.133,0.789,5.888-0.164,7.777-2.638
				c1.283-1.68,2.134-3.775,2.829-5.805c8.117-23.718,12.204-47.828,6.866-72.823c-0.227-1.063-0.496-2.176-0.399-3.234
				c0.108-1.18-0.939-2.86,0.986-3.441c0.493,0.077,0.902,0.035,1.186,0.203c1.561,0.926,3.105,1.88,4.629,2.865
				c40.621,26.266,84.613,44.648,131.549,56.065c26.403,6.422,52.981,8.697,79.906,3.089c18.158-3.782,36.159-8.009,52.96-16.127
				c27.621-13.345,53.129-29.758,75.215-51.305c39.559-38.595,64.597-84.564,71.104-139.832
				C2290.648,2538.308,2289.491,2516.915,2283.724,2495.958z M1905.639,1464.43c0.271-0.531,0.542-1.063,0.813-1.596
				c0.413,0.423,0.827,0.847,1.24,1.27l0.008,0.05c0,0.001,0,0.001,0.001,0.002c2.432,0.875,1.921,2.793,1.641,4.629c0,0,0,0,0,0
				c0,0,0,0,0,0c0.213,2.619,0.426,5.239,0.639,7.858c0.001,0.002,0.001,0.003,0.002,0.005c1.437,3.039,1.868,6.236,1.496,9.56
				c0,0,0,0,0,0c0.037,0.726,0.074,1.453,0.111,2.179c0.203,2.488,0.406,4.977,0.609,7.465c0.001,0.003,0.002,0.006,0.003,0.009
				c1.767,3.122,1.972,6.5,1.609,9.969c1.159,6.796,3.098,13.491,2.652,20.494c0,0.001,0,0.003,0,0.004
				c1.707,2.387,1.989,5.078,1.676,7.896c1.172,4.871,2.765,9.666,2.647,14.767c0,0.001,0.001,0.002,0.001,0.003
				c1.343,2.172,2.137,4.473,1.648,7.073c0.162,1.306,0.324,2.612,0.487,3.918c0,0,0,0,0,0c2.286,8.667,4.503,17.352,6.873,25.995
				c4.468,16.303,9.544,32.416,15.391,48.283c0.738,2.002,1.242,4.091,1.854,6.14c0.99,0.682,1.537,1.576,1.352,2.82
				c0.222,0.671,0.445,1.341,0.667,2.012c2.8,4.895,5.101,9.996,6.388,15.514c2.086,3.331,3.643,6.883,4.484,10.734c0,0,0,0,0,0
				c3.223,6.472,6.458,12.938,9.656,19.422c0.55,1.115,0.16,2.089-1.007,2.454c-0.593,0.186-1.565,0.14-1.964-0.232
				c-1.042-0.971-2.048-2.076-2.74-3.311c-2.471-4.413-4.932-8.846-6.138-13.827c-2.234-3.26-3.745-6.831-4.603-10.684
				c-2.891-4.84-5.234-9.906-6.369-15.469c-0.494-0.36-0.61-0.817-0.35-1.369c0,0,0-0.001,0-0.001c0,0,0,0.001,0,0.001
				c-1.038-0.717-1.583-1.671-1.418-2.964c-0.598-0.536-0.789-1.19-0.574-1.964c-1.241-1.285-2.105-2.723-1.886-4.605
				c-7.688-17.121-12.543-35.185-17.526-53.192c-1.717-6.206-2.81-12.583-4.188-18.883l0,0c-0.234-1.17-0.468-2.34-0.702-3.51
				c0-0.001,0-0.002-0.001-0.003c-1.479-1.451-1.813-3.222-1.44-5.189c0,0,0,0,0,0c-0.194-1.27-0.388-2.539-0.582-3.809c0,0,0,0,0,0
				c-1.363-2.161-2.094-4.468-1.626-7.051c-0.203-1.768-0.406-3.536-0.609-5.305c0-0.001-0.001-0.003-0.001-0.004
				c-1.706-2.349-2.001-5.007-1.686-7.796c-0.142-1.203-0.284-2.407-0.426-3.61c-0.105-0.19-0.194-0.383-0.272-0.577
				c-1.322-2.805-1.807-5.762-1.445-8.874c-1.512-6.897-3.033-13.793-2.728-20.927c-0.002-0.004-0.003-0.009-0.005-0.013
				c-1.458-3.054-1.926-6.26-1.438-9.608c-0.256-3.319-0.513-6.638-0.769-9.957c0-0.002-0.001-0.004-0.002-0.006
				c-1.433-3.091-1.86-6.332-1.435-9.7C1905.031,1468.761,1904.591,1466.598,1905.639,1464.43
				C1905.639,1464.43,1905.64,1464.43,1905.639,1464.43C1905.64,1464.43,1905.639,1464.43,1905.639,1464.43z M1922.683,1846.359
				l-0.098-0.116c0,0,0,0,0,0c-1.025-0.385-1.669-1.057-1.668-2.214c-0.939-1.318-1.878-2.637-2.818-3.956
				c-1.136-0.408-1.828-1.177-1.96-2.401c-10.209-10.116-20.469-20.181-30.604-30.372c-4.023-4.046-8.71-7.56-11.181-12.961
				c-1.687-1.019-2.146-2.706-2.306-4.479c-0.154-1.709-0.499-4.182,1.354-4.556c2.901-0.585,2.914,2.263,3.339,4.25
				c0.146,0.681,0.125,1.398,0.181,2.099c6.333,7.853,14,14.372,21.242,21.32c8,7.675,16.425,14.969,22.575,24.363
				c1.092,0.35,1.762,1.032,1.775,2.236l0.232,0.352c0.694,0.425,1.16,1.027,1.398,1.806c0.354,0.611,0.708,1.223,1.062,1.834
				c8.532,10.863,13.962,23.35,18.84,36.115c0.364,0.953,0.353,2.12,0.24,3.158c-0.065,0.6-0.58,1.46-1.08,1.621
				c-0.543,0.175-1.407-0.184-1.94-0.573c-0.54-0.393-1.01-1.051-1.23-1.689C1935.679,1869.558,1928.885,1858.103,1922.683,1846.359
				C1922.683,1846.359,1922.683,1846.359,1922.683,1846.359S1922.683,1846.359,1922.683,1846.359z M1909.961,1713.979
				c1.536,3.187,1.791,6.574,1.54,10.038c0.57,4.412,2.906,8.491,2.468,13.093c0,0,0,0,0,0c0,0,0,0,0,0
				c1.299,2.667,2.452,5.376,2.383,8.43c0,0,0,0,0,0c5.917,14.294,11.835,28.589,17.752,42.883c0,0,0,0,0,0
				c2.24,4.026,4.529,8.026,6.688,12.094c0.615,1.16,1.623,2.706-0.111,3.708c-2.156,1.245-3.266-0.58-4.156-2.024
				c-2.047-3.323-4.21-6.619-4.989-10.553c-7.03-13.312-13.172-26.992-17.255-41.528c-1.349-2.665-2.706-5.328-2.567-8.445
				c-2.115-2.391-2.345-5.319-2.364-8.307c-1.333-2.199-2.089-4.531-1.641-7.139c-0.724-2.455-1.128-4.934-0.551-7.486
				c0-0.003-0.001-0.005-0.001-0.008c0,0.001,0,0.003,0,0.004c-1.602-5.492-2.056-10.97,0.263-16.403l0.145-0.184
				c0.674-0.551,1.318-0.518,1.932,0.1c1.646,3.848,1.078,7.783,0.462,11.721C1909.96,1713.976,1909.96,1713.978,1909.961,1713.979z
				 M1783.395,984.553C1783.395,984.553,1783.395,984.553,1783.395,984.553C1783.396,984.553,1783.395,984.553,1783.395,984.553
				c0.525-2.67,1.973-2.406,3.349-0.824c0.546,0.628,0.347,1.904,0.488,2.885c1.443,4.375,2.887,8.75,4.33,13.125c0,0,0,0,0,0
				c1.274,1.828,2.611,3.626,2.797,5.964c0,0,0,0,0,0.001c0,0,0,0,0,0c3.513,4.115,6.016,8.857,8.467,13.632
				c0.62,0.593,1.121,1.274,1.503,2.042c0.701,0.292,1.005,0.815,0.912,1.569c0,0,0,0,0,0c4.116,4.102,7.602,8.705,10.782,13.551h0
				c7.086,6.804,13.861,13.89,19.747,21.781c4.445,3.724,7.982,8.172,10.643,13.322c7.624,8.77,13.054,18.963,18.667,29.017
				c10.776,19.302,18.699,39.772,24.495,61.078c0.468,1.722,0.529,3.554,0.779,5.335c1.344,1.417,1.867,3.072,1.446,5
				c0.207,1.309,0.415,2.618,0.622,3.926l0,0c1.428,2.12,2.147,4.407,1.647,6.982c0.194,1.78,0.388,3.561,0.581,5.341
				c0,0.002,0,0.004,0,0.006c0-0.001,0-0.002,0-0.003c2.984,9.985,4.367,20.205,4.432,30.616c0.002,0.005,0.003,0.009,0.004,0.014
				c1.655,3.857,1.939,7.885,1.457,12.005c0.75,4.754,1.089,9.527,0.663,14.336c0.003,0.013,0.005,0.026,0.008,0.038
				c1.755,6.763,1.915,13.648,1.531,20.574c0.612,8.297,1.428,16.591,0.485,24.918c0,0.004,0.001,0.009,0.001,0.013
				c0-0.005,0-0.009,0-0.014c2.085,12.206,2.188,24.483,1.252,36.788c-0.048,0.63-0.7,1.213-1.079,1.818
				c0.005,0.001,0.01,0.001,0.014,0.002c0,0.001-0.001,0.002-0.001,0.003c0.001,0,0.002,0,0.003-0.001l-0.003,0.001
				c-0.336,0.544-0.605,1.474-1.027,1.55c-1.297,0.232-1.616-0.714-1.548-1.831c-0.93-6.859-1.01-13.722-0.08-20.588
				c-0.001-0.005-0.002-0.009-0.003-0.014c0,0.004,0,0.008,0,0.012c-0.003-0.017-0.005-0.035-0.008-0.052
				c-0.5-2.248-0.767-4.509-0.901-6.776c-0.965-9.001-1.006-18.051-0.84-27.112c-0.009-1.471-0.018-2.942-0.026-4.413
				c-0.893-4.658-1.01-9.344-0.52-14.053c-0.001-0.002-0.001-0.005-0.002-0.007c0,0.001,0,0.002,0,0.003
				c-0.002-0.009-0.004-0.018-0.007-0.027c-0.198-0.612-0.343-1.229-0.46-1.848c-1.272-5.504-1.49-11.102-1.138-16.75
				c-0.22-4.024-0.441-8.048-0.662-12.073c-0.005-0.014-0.009-0.028-0.014-0.041c-1.527-3.83-1.942-7.808-1.539-11.892
				c-0.609-5.853-2.539-11.537-2.237-17.506c-1.181-4.882-2.693-9.706-2.634-14.809c-1.407-2.123-2.131-4.41-1.683-6.98
				c-3.92-14.344-7.716-28.716-13.37-42.528c-7.036-17.186-15.609-33.538-25.772-49.072c-1.776-2.715-3.395-5.534-5.086-8.304
				c-4.166-3.984-7.49-8.644-10.756-13.351c-7.112-6.765-13.837-13.881-19.759-21.728l0,0c0,0,0,0,0,0
				c-4.45-3.668-7.842-8.187-10.617-13.202l-0.137-0.198c-0.577-0.65-1.103-1.339-1.576-2.068
				c-3.818-4.666-7.237-9.565-9.024-15.419c-1.453-1.71-2.643-3.544-2.772-5.877c-2.579-2.49-3.565-5.714-4.189-9.104
				c-1.133-1.317-2.027-2.715-1.573-4.576C1783.439,987.359,1783.417,985.956,1783.395,984.553z M1726.177,1828.809
				c0.225,1.244,0.846,2.587,0.567,3.705c-0.301,1.206-1.449,2.147-2.484,0.252c-2.323-1.561-2.449-3.824-2-6.27
				c-0.877-2.868-0.767-5.733,0.022-8.596c-0.975-4.814,0.908-9.299,2.084-13.712c3.416-12.817,7.484-25.447,15.042-36.596
				c1.234-3.644,3.204-6.783,6.275-9.169c7.575-11.242,17.414-20.204,28.313-28.097c0.393-1.162,1.165-1.861,2.412-1.98l0.13-0.1
				c0,0,0,0,0,0c0.29-1.077,0.928-1.747,2.098-1.796l0.411-0.3c0.44-0.701,1.046-1.203,1.816-1.506
				c0.224-0.713,0.709-1.04,1.454-0.979c0,0,0,0,0,0c0,0,0,0,0,0c1.123-2.042,2.871-3.333,5.007-4.156
				c3.205-3.465,6.668-6.612,10.877-8.842c0.327-1.102,1.017-1.821,2.165-2.057c6.454-9.132,11.84-18.673,13.869-29.948
				c1.487-8.261,1.506-16.417,0.542-24.667c-0.332-2.838-0.55-5.689-0.821-8.534c-1.668-7.818-3.336-15.637-5.004-23.456
				c-3.809-9.052-4.54-18.595-4.388-28.253c0.013-0.833,0.799-2.237,1.43-2.365c1.619-0.327,2.473,0.885,2.771,2.427
				c0.068,0.35,0.145,0.701,0.183,1.056c0.804,7.426,1.604,14.852,2.404,22.279c0,0,0,0,0,0c2.156,6.778,4.631,13.483,4.78,20.724
				c0,0.001,0,0.002,0.001,0.003c1.71,2.283,1.97,4.881,1.645,7.607c3.75,15.155,3.396,30.184-1.986,44.877
				c-2.848,7.777-6.156,15.436-13.134,20.669c-0.205,1.217-1.008,1.852-2.121,2.185c-2.555,3.991-6.284,6.618-10.323,8.884
				c-0.001,0-0.001,0-0.002,0c0,0,0,0,0.001,0.001c0.001,0-0.272,0.078-0.272,0.078v0.001c-0.197,1.242-0.969,1.851-2.179,1.978
				c-0.472,1.029-1.13,1.82-2.374,1.864l-0.537,0.402c-0.344,0.642-0.863,1.077-1.555,1.304c-4.354,3.757-8.664,7.566-13.071,11.259
				c-8.02,6.72-14.961,14.492-21.922,22.249c-1.663,3.403-3.482,6.699-6.274,9.342c-2.737,6.311-5.746,12.52-8.152,18.954
				C1729.15,1802.171,1725.634,1815.108,1726.177,1828.809z M1762.249,1824.374c1.563-1.465,3.115-3.191,5.016-4.009
				c13.545-5.83,27.511-8.682,42.224-5.159c4.825,0.114,9.689,0.005,14.083,2.518c3.503-0.255,6.977-0.338,10.092,1.704
				c0,0.002-0.001,0.003-0.001,0.005c0.002-0.001,0.005-0.002,0.007-0.003c4.616,0.682,9.586-0.389,13.729,2.717
				c-0.001,0.001-0.002,0.001-0.003,0.002c1.509,1.187,1.262,2.427-0.48,2.583c-3.782,0.339-7.565-0.038-11.193-1.343h0
				c-2.036-0.4-4.073-0.8-6.109-1.2c-6.272,0.708-12.156-1.643-18.198-2.549c-16.602-2.49-32.44-1.743-46.949,7.824
				c-0.414,0.273-1.461,0.018-1.95-0.345C1761.544,1826.396,1761.353,1825.213,1762.249,1824.374z M1846.723,1466.407
				C1846.723,1466.406,1846.723,1466.406,1846.723,1466.407c-0.198-1.273-0.396-2.545-0.595-3.817
				c-1.769-2.028-2.075-4.413-1.698-6.965c-0.213-1.799-0.426-3.598-0.639-5.398c-0.001-0.002-0.001-0.004-0.002-0.006
				c-1.846-3.07-1.981-6.406-1.517-9.834c-0.152-2.826-0.385-5.652-0.419-8.479c-0.016-1.363,0.268-2.745,1.687-3.538
				c1.068-0.597,2.422,1.378,2.532,3.784c0.244,5.319,0.461,10.64,0.689,15.959c0,0.001,0,0.003,0.001,0.004
				c1.528,2.337,2.023,4.876,1.465,7.617c0.189,1.306,0.379,2.612,0.568,3.918c1.984,6.496,4.014,12.978,5.908,19.5
				c0.321,1.105-0.454,2.092-1.696,2.156c-0.607,0.032-1.511-0.271-1.82-0.732
				C1848.319,1476.302,1846.788,1471.578,1846.723,1466.407z M1760.043,1100.294c0.53-0.195,1.515,0.119,1.951,0.56
				c0.732,0.74,1.258,1.717,1.746,2.66c5.156,9.961,10.166,20,15.45,29.892c14.585,27.304,24.757,56.234,32.064,86.234
				c0.338,1.39,0.306,2.87,0.447,4.308c0,0,0,0.001,0,0.001c1.455,2.112,2.183,4.401,1.706,6.984
				c0.181,1.261,0.362,2.521,0.543,3.782c1.474,2.166,2.077,4.525,1.593,7.129c0.201,1.801,0.403,3.603,0.604,5.404
				c0,0.001,0,0.003,0,0.004c0,0,0-0.001,0-0.001c2.303,4.031,2.262,8.456,2.152,12.893c0,0.002,0.001,0.004,0.001,0.005
				c1.661,2.382,1.973,5.044,1.614,7.845c0.193,1.883,0.386,3.766,0.579,5.649c0.003,0.007,0.005,0.013,0.008,0.02
				c1.489,3.045,2.028,6.247,1.571,9.613c0.714,2.481,1.053,4.991,0.57,7.562c0,0.002,0.001,0.003,0.002,0.005c0,0,0,0,0,0
				c1.745,3.858,2.073,7.914,1.646,12.073c0.021,1.484,0.041,2.968,0.062,4.452c0.966,7.225,1.214,14.449-0.061,21.668
				c0.764,3.259-0.67,5.952-2.217,8.616c0,0,0,0-0.001,0c0,0,0,0,0.001,0c-1.206,2.379-2.696,1.901-3.624,0.006
				c-0.836-1.707,0.154-3.371,1.339-4.758c1.463-11.831,0.136-23.669,0.092-35.503c-0.003-0.008-0.006-0.017-0.009-0.025
				c-1.363-3.093-1.94-6.307-1.448-9.681c-0.23-2.631-0.46-5.262-0.689-7.893c-0.099-0.199-0.183-0.4-0.257-0.604
				c-1.216-2.857-1.753-5.83-1.355-8.961c-0.778-5.113-2.715-10.054-2.276-15.347c-1.393-5.422-2.847-10.833-2.852-16.495
				c0,0,0-0.001,0-0.001c-1.375-1.53-1.727-3.318-1.337-5.294c-5.982-26.522-13.326-52.64-24.802-77.365
				c-6.546-14.104-13.999-27.786-20.892-41.733c-1.905-3.855-4.37-7.544-4.847-11.976
				C1759.056,1101.453,1759.569,1100.468,1760.043,1100.294z M1743.979,1197.21c0.877-1.257,2.299-1.732,3.772-1.189
				c3.052,1.125,3.933,3.817,4.53,6.66c7.496,17.244,13.422,34.955,15.965,53.673c0,0,0,0,0,0c1.283,1.509,1.706,3.238,1.321,5.173
				c0.001,0,0.002,0,0.002,0c0.059,0.711,0.121,1.422,0.181,2.133c0,0-0.001,0-0.001,0c0.686,1.691,1.074,3.409,0.481,5.218
				c0,0.001,0.001,0.002,0.001,0.004c1.697,2.367,1.974,5.028,1.603,7.821c0.786,2.473,1.139,4.979,0.574,7.554
				c0.001,0.002,0.001,0.004,0.002,0.007c0-0.001,0-0.002,0-0.003c1.786,3.86,2.031,7.931,1.612,12.09
				c0.852,6.123,1.182,12.264,0.642,18.435c0,0.004,0.001,0.008,0.001,0.012c0-0.003,0-0.006,0-0.008
				c1.72,9.525,1.64,19.053-0.006,28.582c0.593,9.095,0.049,18.165-0.587,27.234c0.025,5.709,0.073,11.419,0.069,17.128
				c-0.012,14.644-0.047,29.288-0.074,43.931h0c0.019,0.719,0.037,1.438,0.055,2.157c0.185,2.625,0.369,5.25,0.554,7.875
				c0.02,0.043,0.034,0.087,0.053,0.13c1.329,3.012,1.932,6.145,1.512,9.444c0.188,1.829,0.376,3.658,0.564,5.487
				c0,0.001,0,0.003,0.001,0.004c0,0,0,0,0-0.001c1.461,2.339,2.091,4.871,1.747,7.627c2.535,9.076,4.975,18.178,7.626,27.22
				c3.981,13.576,9.27,26.675,14.771,39.691c0,0,0,0,0,0c2.588,2.792,4.868,5.777,5.942,9.515c0.482,1.745-0.072,2.461-1.899,1.912
				c0.001-0.001,0.002-0.002,0.003-0.003c-0.001,0.001-0.002,0.002-0.003,0.003c-4.015-1.394-5.339-4.915-6.668-8.432
				c-3.216-4.03-4.832-8.869-6.768-13.533c-6.122-14.746-10.647-30.019-14.779-45.414c-0.462-1.721-0.42-3.577-0.612-5.37
				c0-0.001,0-0.003-0.001-0.004c-1.552-1.576-1.835-3.511-1.577-5.6c-0.185-1.149-0.37-2.297-0.555-3.446
				c0-0.001,0-0.002-0.001-0.003c-1.48-2.277-2.014-4.755-1.576-7.439c-0.195-1.874-0.39-3.747-0.584-5.62
				c0-0.002-0.001-0.004-0.002-0.005c-1.506-3.069-1.952-6.303-1.472-9.677c-0.033-0.716-0.065-1.433-0.098-2.149
				c-0.78-6.125-1.521-12.25-0.416-18.417c0,0,0-0.001,0-0.001c0,0,0,0.001,0,0.001c-1.656-6.639-1.633-13.278-0.002-19.917
				c-1.199-12.703-0.239-25.382,0.429-38.064c0,0,0,0,0,0c0.004-0.714,0.009-1.429,0.013-2.143l0,0
				c-0.064-2.135-0.3-4.281-0.166-6.403c1.011-16.05,0.16-32.102,0.141-48.153c-0.185-4.014-0.369-8.027-0.553-12.041
				c-0.128-0.29-0.229-0.584-0.319-0.88c-1.271-3.572-1.677-7.268-1.341-11.067c-0.173-1.88-0.346-3.76-0.519-5.64
				c-0.001-0.002-0.001-0.005-0.003-0.007c-1.242-2.318-1.872-4.763-1.506-7.41c-0.082-0.747-0.164-1.494-0.246-2.241
				c-0.198-1.189-0.395-2.379-0.593-3.568c0,0,0,0,0,0c-1.261-1.515-1.748-3.227-1.309-5.173
				c-3.358-16.295-8.712-32.018-13.719-47.84c-2.228-2.119-2.024-6.214-5.97-7.053
				C1743.282,1199.814,1743.372,1198.079,1743.979,1197.21z M1734.011,1281.667c2.838-5.049,5.037-10.458,7.499-15.716
				c0.595-1.271,0.727-2.92,2.944-2.75c1.566,1.619,0.706,3.813,0.569,5.707c-0.606,8.331-1.121,16.692-2.308,24.95
				c-1.656,11.534-5.245,22.596-9.177,33.559c-4.166,11.615-8.103,23.283-9.991,35.589c-2.614,17.035-2.396,34.057-0.57,51.09
				c2.365,22.056,7.291,43.701,10.85,65.568c0.875,5.377,2.042,10.713,2.751,16.11c1.103,8.395,0.372,16.631-2.572,24.665
				c-9.77,26.663-21.84,52.234-36.145,76.758c-19.288,33.067-43.989,61.331-74.648,84.337
				c-16.879,12.665-34.428,24.27-53.071,34.204c-14.094,7.51-27.952,15.472-42.171,22.733c-15.899,8.121-32.568,14.34-50.259,17.318
				c-12.63,2.126-25.214,2.235-37.855-0.781c-14.541-3.468-28.567-8.351-42.23-14.249c-18.63-8.043-32.634-21.568-43.277-38.587
				c-12.133-19.403-24.032-38.954-35.868-58.541c-16.152-26.729-26.808-55.47-31.544-86.414c-1.481-9.676-3.618-19.265-5.792-28.817
				c-0.877-3.853-2.352-7.648-4.076-11.217c-8.847-18.314-10.311-37.735-8.391-57.519c1.653-17.03,5.106-33.754,11.092-49.86
				c6.147-16.54,15.906-30.981,26.572-44.823c8.686-11.272,18.85-21.167,29.815-30.226c6.763-5.588,14.159-10.242,22.279-13.524
				c16.589-6.705,33.692-11.102,51.722-11.955c33.424-1.582,66.752-4.439,99.269-12.853c55.128-14.265,107.934-34.121,155.49-66.23
				c0.892-0.602,1.832-1.139,2.782-1.645c0.302-0.161,0.711-0.122,2.587-0.397c-3.99,16.274-7.481,31.446-11.459,46.488
				c-4.826,18.246-10.09,36.377-15.114,54.571c-3.401,12.316-8.17,24.044-14.689,35.049c-0.924,1.56-1.928,3.115-2.554,4.8
				c-1.229,3.308-0.833,6.454,1.741,9.077c2.765,2.818,6.061,4.196,9.857,2.529c2.973-1.306,5.866-2.9,8.561-4.714
				C1683.147,1351.38,1712.43,1320.067,1734.011,1281.667z M1272.417,1270.301c1.736-2.143,3.854-3.757,6.479-4.668
				c0.417-1.085,1.127-1.764,2.359-1.726c1.152-1.31,2.393-2.482,4.236-2.713c0.404-0.98,1.046-1.607,2.188-1.514
				c8.082-5.561,16.386-10.696,25.882-13.557c0.006-0.005,0.012-0.009,0.018-0.015c1.919-1.78,4.2-2.548,6.794-2.444
				c1.916-2.118,4.486-2.084,7.048-2.08l0.602,0.107c0,0,0,0,0,0c1.714-1.965,4.012-2.084,6.358-1.961
				c1.263,0.067,1.4,1.053,1.458,2.042c-0.296,0.606-0.487,1.656-0.903,1.754c-14.102,3.332-26.976,9.68-39.826,16.091
				c-0.582,1.107-1.453,1.762-2.744,1.764l-0.463,0.242c-0.343,0.684-0.895,1.062-1.657,1.132c-0.717,0.399-1.434,0.797-2.151,1.196
				c-0.482,1.069-1.248,1.714-2.475,1.678l-0.423,0.607l-0.738-0.044c-0.004,0-0.007,0-0.01,0c0.003,0,0.006,0.001,0.009,0.001
				c-0.594,1.257-1.556,1.964-2.979,1.975l-0.073-0.017c-0.655,0.34-1.179,0.849-1.731,1.323c0.577-0.441,1.154-0.881,1.731-1.322
				c-0.382,1.283-1.272,1.902-2.581,1.972c-0.893,1.197-1.855,2.298-3.469,2.49c-6.599,6.528-14.094,12.186-19.348,20.027
				c-0.534,0.797-1.803,1.471-2.558,0.319c-0.501-0.765-0.766-2.218-0.368-2.939c1.2-2.177,2.592-4.311,4.24-6.166
				c4.512-5.078,9.149-10.056,15.097-13.551c0.001,0,0.002,0,0.003,0C1272.418,1270.302,1272.417,1270.302,1272.417,1270.301z
				 M1678.173,1170.501c4.879-4.226,9.729-8.486,14.669-12.637c0.687-0.578,1.902-1.299,2.695,0.079
				c0.546,0.949,0.756,2.02-0.066,2.96c-3.061,3.499-6.131,6.994-10.318,9.237c-0.35,1.101-1.05,1.759-2.246,1.797c0,0,0,0,0,0
				c0,0,0,0,0,0l-0.349,0.244c-0.571,0.613-1.221,1.125-1.95,1.538c-0.233,0.689-0.707,0.965-1.421,0.826c0,0-0.001,0-0.001,0
				c0,0,0,0,0,0c-0.551,1.188-1.436,1.902-2.784,1.955c0,0-4.682,4.13-6.611,4.229l-0.262,0.143
				c-0.583,0.614-1.265,1.086-2.046,1.414c-0.627,0.306-1.254,0.612-1.881,0.918c-0.56,1.04-1.374,1.664-2.604,1.618v0v0
				c-1.605,1.201-2.987,2.852-5.297,2.639c-0.001,0-0.002,0.001-0.002,0.001c0,0,0,0,0,0c-0.686,1.289-1.737,1.99-3.223,1.98
				c0,0,0,0,0,0l-0.248,0.111l0,0c-1.083,1.26-2.293,2.275-4.104,2.136c0,0,0,0,0,0c0,0,0,0,0,0l-0.177,0.071c0,0,0,0,0,0
				c-1.081,1.334-2.358,2.283-4.191,2.147l-0.129,0.05c0,0,0,0,0,0c0,0,0,0,0,0c-1.051,1.428-2.396,2.273-4.236,2.14l-0.12,0.044
				c0,0,0,0,0,0c0,0,0,0,0,0c-1.054,1.425-2.404,2.26-4.24,2.123l-0.142,0.052c0,0,0,0,0,0c-1.073,1.367-2.394,2.232-4.216,2.087
				c0,0,0,0,0,0c0,0,0,0,0,0l-0.204,0.074c-1.238,1.358-2.664,2.312-4.609,2.161l-0.675,0.089c-0.001,0-0.001,0-0.002,0.001
				c0,0,0,0,0.001,0c-1.195,2.028-3.228,2.395-5.306,2.672c0,0,0,0,0,0c0,0,0,0,0,0.001c-2.577,2.125-5.484,3.509-8.823,3.919
				c-1.409,1.042-3.418,0.662-4.707,1.989l-0.834,0.123c-0.007,0.001-0.013,0.003-0.021,0.003c0.007,0,0.013-0.002,0.019-0.002
				c-0.802,1.235-1.913,1.882-3.414,1.782c0,0,0,0,0,0c0,0,0,0,0,0l-0.775,0.546l-0.946-0.041c-1.322,1.481-2.957,2.171-4.947,1.972
				l-0.843,0.124c0,0-0.001,0-0.001,0c0,0,0,0,0,0c-2.874,2.441-6.346,3.409-9.956,4.042c0,0,0-0.001-0.001-0.001
				c0,0.001,0,0.001,0,0.002c-18.817,7.602-37.898,14.358-57.937,18.037c0,0-0.001,0-0.001,0c0,0,0,0,0.001,0
				c-5.322,2.666-10.986,3.9-16.912,4.034c0-0.001,0-0.001-0.001-0.002c-0.036,0-0.424-0.015-0.424-0.015
				c-0.002,0.001-0.005,0.002-0.007,0.003c-2.29,1.564-4.78,2.349-7.579,1.899c0,0,0,0,0,0l0,0
				c-1.493,0.204-2.986,0.408-4.479,0.612l-0.865,0.225c-6.941,2.18-13.972,3.866-21.311,3.845
				c-0.015,0.006-0.765,0.469-0.765,0.469s-0.879-0.154-0.885-0.153c-0.004-0.002-0.007-0.003-0.011-0.005
				c0.001,0.002,0.003,0.003,0.005,0.005c-3.736,2.112-7.784,2.257-11.913,1.893c0,0,0,0,0,0c-3.083,2.659-6.818,2.277-10.477,2.249
				c0,0,0,0,0,0c0,0,0,0,0,0l-0.442-0.075c0,0,0,0,0,0c-2.889,2.459-6.34,2.401-9.824,2.19l0,0l-0.023-0.016c0,0,0,0,0,0
				c0,0,0,0,0,0c-1.94,1.714-4.2,2.235-6.717,1.797c-1.376,0.265-2.752,0.53-4.128,0.795c0,0,0,0,0,0
				c-6.673,2.837-13.591,4.846-20.718,6.155c-0.024,0.002-0.046,0.008-0.07,0.01c0.024-0.002,0.046-0.007,0.07-0.009
				c-0.74,1.423-1.962,1.935-3.5,1.849c0,0,0,0,0,0c0,0,0,0,0,0l-0.667,0.513l-0.838-0.077c0,0,0,0,0,0
				c-7.337,3.794-14.675,7.588-22.012,11.382c0,0-0.001-0.001-0.001-0.001c0,0.001,0,0.001,0.001,0.002
				c-0.272,1.154-1.126,1.555-2.187,1.69c-3.083,3.376-6.166,6.753-9.249,10.129v0c0,0,0,0,0,0c0,0,0,0,0,0
				c-3.757,0.269-2.091-2.049-1.776-3.723c1.148-4.464,4.458-6.942,8.248-8.978c0.001,0,0.002,0.001,0.003,0.001
				c-0.001,0-0.001-0.001-0.002-0.001c0.909-1.436,2.155-2.354,3.887-2.515c0,0,0,0,0,0l0.219-0.1
				c0.349-1.23,1.258-1.664,2.437-1.712l0,0c4.598-3.77,9.841-6.317,15.455-8.163c0.717-0.243,1.434-0.487,2.151-0.73
				c0.552-0.377,1.135-0.7,1.747-0.968c7.171-3.455,14.594-6.119,22.529-7.179c0,0,0,0,0,0c1.175-0.236,2.349-0.472,3.523-0.709
				c0,0,0,0,0.001,0c0,0,0,0,0,0c4.82-2.625,10.208-3.175,15.461-4.178c6.7-1.279,13.425-2.428,20.139-3.633c0,0,0.001,0,0.001,0
				c0,0,0,0-0.001,0c2.11-0.266,4.221-0.531,6.331-0.797c4.881-2.493,10.33-2.207,15.524-3.169c2.289,0.115,4.671,0.87,6.677-0.969
				l0.406-0.397l0.497,0.275c0.003-0.001,0.006-0.002,0.009-0.002c-0.001,0-0.002,0-0.003,0c1.53-1.207,3.233-1.805,5.204-1.431
				c2.163-0.362,4.325-0.724,6.487-1.086c4.987-2.122,10.232-3.134,15.597-3.636c19.573-5.96,39.146-11.921,58.719-17.881
				c2.444-2.443,5.87-2.469,8.845-3.602c2.743-1.256,5.309-3.005,8.488-3.046c0.704-0.312,1.38-0.676,2.028-1.092
				c6.462-2.667,12.924-5.333,19.385-8c9.831-5.567,20.031-10.381,30.379-14.894c0,0,0,0,0,0h0c2.086-2.159,4.644-3.48,7.524-4.225
				c0.001-0.001,0.002-0.001,0.002-0.002c0.407-0.594,0.964-0.965,1.669-1.111c0,0,0,0,0,0l0,0l0,0
				c0.79-0.393,1.579-0.786,2.369-1.179c0.744-0.608,3.209-1.871,3.848-2.252v0c0.567-1.169,1.497-1.786,2.796-1.844l0,0
				l0.135-0.076c0.594-0.626,1.29-1.108,2.074-1.464c0.345-0.678,0.894-0.968,1.648-0.872c0,0,0.001,0,0.001-0.001
				c0.575-1.105,1.419-1.832,2.712-1.92l0.262-0.155C1676.897,1171.3,1677.494,1170.848,1678.173,1170.501z M1533.13,1127.471
				c0.76-1.588,1.268-3.356,2.986-4.276c4.146-6.78,10.495-10.987,17.228-14.745c0,0,0,0,0.001,0
				c0.573-1.14,1.444-1.841,2.765-1.881l0.173-0.105c0.589-0.613,1.263-1.107,2.035-1.464c0.364-0.672,0.926-0.97,1.687-0.895
				c0.567-1.169,1.47-1.824,2.796-1.837c2.248-2.197,4.788-3.907,7.868-4.716c0,0,0,0,0,0c0.603-1.138,1.515-1.791,2.836-1.797
				l0.328-0.156c4.547-3.615,9.458-6.606,14.89-8.705v0l0.238-0.14c0.585-0.506,1.22-0.939,1.905-1.298
				c0.704-0.334,1.407-0.669,2.111-1.003c0.471-1.003,1.173-1.641,2.363-1.525c2.699-2.092,5.476-4.044,8.847-4.931
				c0.605-0.52,1.263-0.961,1.974-1.322c0.671-0.323,1.343-0.647,2.014-0.97c0.485-1.049,1.237-1.673,2.455-1.567
				c0.318-0.614,0.812-0.841,1.485-0.682c0,0,0,0,0,0c0.601-1.171,1.561-1.768,2.873-1.798l0.253-0.14
				c0.503-0.544,1.1-0.952,1.789-1.224c0.719-0.36,1.438-0.72,2.156-1.08c0.503-0.956,1.188-1.628,2.366-1.548
				c7.943-5.343,15.887-10.685,23.83-16.028c1.538-1.904,2.961-3.924,4.682-5.645c0.553-0.553,1.991-0.631,2.854-0.368
				c1.28,0.391,1.061,1.695,0.583,2.597c-1.326,2.5-2.855,4.868-5.582,6.114c0,0,0,0-0.001,0v0.001
				c-6.388,6.596-14.129,11.239-22.213,15.387c-0.37,0.614-0.908,0.984-1.614,1.109c-0.74,0.39-1.481,0.779-2.221,1.169
				c-0.463,1.005-1.176,1.625-2.347,1.549c-0.3,0.625-0.782,0.84-1.447,0.645c0,0,0,0,0,0c-0.611,1.136-1.518,1.8-2.851,1.784
				l-0.383,0.202c-0.376,0.632-0.929,0.998-1.658,1.097c-0.776,0.407-1.552,0.814-2.328,1.221c-0.455,0.936-1.111,1.553-2.234,1.455
				c-2.761,2.096-5.593,4.066-8.989,5.028c-0.445,0.61-1.036,0.996-1.773,1.159c-0.748,0.366-1.495,0.732-2.243,1.099
				c-0.464,0.949-1.138,1.564-2.272,1.464c-0.405,0.652-0.984,0.906-1.738,0.76c-4.089,3.426-8.678,6.01-13.564,8.1
				c-4.877,3.54-9.903,6.835-15.406,9.343c-0.314,0.887-0.867,1.427-1.872,1.335c-0.628,0.334-1.257,0.668-1.886,1.003
				c-6.619,5.786-14.51,10.074-20.101,17.071c-0.653,1.245-1.197,2.564-1.994,3.708c-0.6,0.86-1.552,1.497-2.728,0.936
				C1532.416,1130.174,1532.451,1128.889,1533.13,1127.471z M1235.47,1196.029c0.463-2.377,2.337-3.331,4.265-4.231l0.336-0.274
				c0.513-0.613,1.112-1.125,1.796-1.537c3.879-3.806,7.956-7.337,13.069-9.433c0,0,0,0,0.001,0c0,0,0,0,0-0.001
				c0.844-1.518,2.221-2.205,3.867-2.47c2.556-2.886,5.916-4.48,9.414-5.849c1.29-1.151,2.52-2.413,4.443-2.389c0,0,0,0,0,0.001
				c0,0,0.001-0.001,0.001-0.001l0.79-0.21l0.001-0.003c0.677-1.398,1.838-2,3.349-2.021l0.131-0.061
				c1.045-1.435,2.414-2.244,4.229-2.191l0.059-0.022c1.026-1.536,2.482-2.224,4.307-2.183l0.031-0.007l0,0
				c1.026-1.558,2.501-2.219,4.332-2.172l0.035-0.008v0c1.039-1.527,2.504-2.187,4.325-2.123l0.097-0.036
				c1.077-1.404,2.465-2.164,4.268-2.067l0.193-0.074c1.165-1.326,2.546-2.187,4.393-2.048c3.177-2.313,6.721-3.79,10.547-4.627
				c4.821-2.982,9.991-5.092,15.548-6.237c4.161-2.162,8.412-4.072,13.11-4.751c1.442-1.701,3.345-2.145,5.458-2.019
				c0.003-0.002,0.007-0.004,0.01-0.006c2.131-1.775,4.597-2.565,7.358-2.475c1.149-1.667,2.841-1.939,4.698-1.786
				c0,0.001,0,0.001,0,0.002c0.001-0.001,0.001-0.002,0.002-0.002c3.926-2.168,8-3.929,12.49-4.551l0,0
				c3.368-2.245,6.953-3.948,11.036-4.394c0,0,0,0,0,0l0.175-0.002c0,0,0,0,0,0c0,0,0,0,0,0c1.039-1.654,2.632-2.085,4.451-2.019
				l0.078-0.023c1.205-1.369,2.661-2.182,4.543-2.058c7.412-4.111,14.883-8.103,22.819-11.142c0.001-0.001,0.003-0.001,0.004-0.002
				c0,0-0.001,0-0.001,0c5.681-4.297,11.855-7.755,18.332-10.694l0.126-0.113c0,0,0,0,0,0c0.413-0.99,1.066-1.63,2.224-1.545
				c0.339-0.623,0.859-0.884,1.561-0.781c0.581-1.209,1.526-1.854,2.881-1.869c7.797-5.203,15.595-10.406,23.392-15.61c0,0,0,0,0,0
				c0.466-1.169,1.304-1.844,2.575-1.946l0.166-0.112c0.637-0.56,1.308-1.075,2.011-1.548c1.406-0.966,2.812-1.933,4.218-2.899
				c0.422-1.041,1.112-1.729,2.301-1.769l0.426-0.278c0.437-0.625,1.011-1.074,1.722-1.348c1.214-1.331,2.421-2.672,4.319-3.027l0,0
				l0.096-0.032c0.789-0.534,1.516-1.142,2.181-1.823l0.439-0.298c0.43-0.655,1.011-1.121,1.744-1.398
				c4.765-4.357,9.674-8.529,15.248-11.845c0,0,0,0,0,0s0,0,0,0c3.101-3.529,6.73-6.407,10.784-8.763
				c3.827-4.326,8.338-7.82,13.222-10.859c0,0,0,0,0,0c0,0,0,0,0,0c3.049-3.508,6.589-6.42,10.626-8.726
				c3.81-4.379,8.363-7.86,13.241-10.947c3.83-4.328,8.446-7.685,13.292-10.758c2.361-2.889,5.234-5.127,8.58-6.764
				c3.109-3.556,6.844-6.317,10.942-8.618c0.373-1.062,1.052-1.739,2.232-1.794l0.391-0.275c0.489-0.634,1.088-1.132,1.815-1.473
				c0.232-0.716,0.722-1.031,1.469-0.945c0,0,0,0,0,0c0.525-1.196,1.414-1.916,2.727-2.077l0.039,0.019
				c0.001,0,0.001-0.001,0.002-0.001c-0.001,0-0.001,0-0.002,0.001c0.313-1.172,1.057-1.824,2.285-1.892l0.273-0.188
				c0.571-0.619,1.228-1.129,1.96-1.544c0.223-0.69,0.691-0.975,1.406-0.856c0,0,0,0,0,0c0.541-1.188,1.454-1.884,2.748-2.077
				c0,0,0.001,0.001,0.002,0.001c0-0.001,0-0.001-0.001-0.002c2.402-2.865,5.478-4.779,8.849-6.279l0.305-0.189
				c0.561-0.553,1.186-1.021,1.875-1.404c4.74-3.753,9.631-7.264,15.325-9.473c8.124-5.514,16.659-10.21,26.09-13.124
				c3.127-2.403,6.876-3.358,10.527-4.544c0.001,0,0.002-0.001,0.003-0.001c3.652-3.053,7.887-1.579,12.183-1.829
				c0.186,3.167-2.083,3.129-3.839,3.641c-3.775,1.171-7.55,2.342-11.325,3.514c-10.299,5.007-20.598,10.014-30.897,15.02
				c-4.201,3.419-8.755,6.274-13.638,8.61c-0.61,0.545-1.271,1.021-1.982,1.426c-0.303,0.687-0.826,0.973-1.568,0.859v0
				c-2.425,2.925-5.596,4.8-8.975,6.383c0,0-0.001,0-0.001,0c0,0,0,0,0,0.001c0.001,0-0.266,0.066-0.266,0.066
				c0,0-0.001,0-0.001,0.001c-0.289,1.204-1.056,1.819-2.283,1.868l-0.411,0.279c-0.412,0.606-0.96,1.039-1.644,1.301
				c-1.915,2.01-3.938,3.876-6.6,4.874l-0.48,0.348c-0.467,0.58-1.032,1.039-1.697,1.375c-4.714,4.383-9.67,8.451-15.217,11.756
				c-2.266,2.908-5.148,5.038-8.419,6.678c-3.878,4.319-8.471,7.752-13.377,10.797c-3.866,4.234-8.334,7.733-13.167,10.787
				c0,0,0,0-0.001,0c0,0,0,0,0,0c-3.111,3.517-6.655,6.512-10.728,8.867c-0.001-0.001-0.001-0.001-0.002-0.002
				c0,0.001,0,0.002,0.001,0.002c-3.789,4.376-8.34,7.824-13.218,10.876c-3.12,3.511-6.687,6.468-10.817,8.727
				c-3.975,4.388-8.672,7.871-13.707,10.929c-0.498,0.56-1.073,1.024-1.727,1.392c-1.118,1.311-2.267,2.58-4.065,2.959
				c-0.477,1.115-1.25,1.846-2.512,1.945l-0.228,0.162c-0.611,0.582-1.271,1.102-1.974,1.569c-1.139,1.32-2.323,2.576-4.136,2.952
				c-0.4,1.08-1.116,1.735-2.316,1.747l-0.415,0.269c-0.516,0.599-1.129,1.071-1.838,1.419c-0.3,0.715-0.835,1.033-1.606,0.954
				c-0.506,1.152-1.338,1.849-2.635,1.894c-8.362,6.714-17.232,12.663-26.688,17.73c-0.207,0.852-0.675,1.332-1.611,1.166
				c-0.718,0.346-1.437,0.693-2.155,1.039c-4.423,3.904-9.498,6.698-14.969,8.824c-0.001,0-0.003,0-0.004,0
				c0,0.001,0.001,0.001,0.002,0.002c-11.076,7.37-22.98,13.043-35.55,17.352c-2.427,2.307-5.588,2.885-8.649,3.697
				c-4.11,2.247-8.437,3.911-13.036,4.839c-0.003,0.002-0.005,0.003-0.008,0.004c-0.278,0.192-0.559,0.334-0.842,0.451
				c-5.301,2.869-10.974,4.696-16.869,5.909c0-0.001-0.001-0.002-0.001-0.003c0,0.001,0,0.002,0,0.003
				c-4.13,2.066-8.346,3.896-12.945,4.662c-4.722,2.913-9.906,4.676-15.22,6.117c-14.36,6.746-28.721,13.493-43.081,20.239
				c-0.568,1.203-1.542,1.715-2.84,1.679c-0.214,0.61-0.629,0.815-1.243,0.616c-2.754,2.742-6.129,4.455-9.694,5.855
				c-1.119,1.212-2.286,2.346-4.046,2.536c0,0-0.001-0.001-0.001-0.001c0,0.001,0,0.001,0,0.002
				c-2.484,2.872-5.678,4.771-8.965,6.542c-0.701,0.506-1.372,1.05-2.007,1.637l-0.636,0.454c-0.37,0.656-0.911,1.102-1.625,1.34
				c-0.237,0.747-0.745,1.091-1.526,1.032c0,0,0,0-0.001,0c0,0,0,0,0,0c-1.207,1.971-2.729,3.516-5.172,3.81
				c-1.014,1.121-1.995,0.568-2.727-0.248C1234.25,1197.063,1234.59,1196.367,1235.47,1196.029z M1220.149,1409.824
				C1220.149,1409.824,1220.149,1409.824,1220.149,1409.824c0.838-3.379,2.793-6.142,4.873-8.836
				c0.534-0.751,1.035-1.524,1.507-2.316c0.37-0.715,0.74-1.429,1.111-2.144c0.232-0.735,0.62-1.372,1.187-1.897l0.062-0.12
				c0.028-1.291,0.556-2.247,1.812-2.718c-0.085-0.605,0.113-1.095,0.597-1.469c2.868-5.343,4.798-7.043,5.787-5.328
				c1.835,3.18-1.173,5.007-2.412,7.306c-0.143,0.266-0.583,0.372-0.886,0.552c-0.001,0-0.001,0-0.002,0
				c0,0,0.001,0.001,0.001,0.002c0.004,0.669-0.255,1.217-0.773,1.641c0.198,1.384-0.517,2.268-1.612,2.947
				c0,0.001,0,0.002-0.001,0.002c0.163,0.653-0.049,1.145-0.636,1.475c-0.546,0.879-1.353,1.594-1.64,2.634
				c0.098,0.785-0.192,1.382-0.869,1.791c-0.35,0.802-0.817,1.527-1.417,2.164l-0.034,0.068v0c-0.04,1.434-0.711,2.484-1.939,3.197
				c-0.074,1.618-0.61,2.971-2.147,3.751c-10.15,19.777-16.841,40.81-22.876,62.117c-3.065,10.82-7.035,21.369-12.399,31.313
				c-2.062,3.823-3.966,7.774-7.136,10.882c0.017,1.04-0.545,1.613-1.501,1.868l-0.22,0.298c-0.666,2.113-1.982,3.686-3.929,4.735
				c-5.927,7.792-12.708,14.804-19.719,21.607c-3.763,5.54-8.088,10.61-12.83,15.333c-0.211,1.175-0.718,2.115-1.953,2.481
				l-0.122,0.219c0,0,0,0,0,0c-1.215,2.473-2.368,4.977-3.706,7.379c-0.207,0.371-1.334,0.504-1.899,0.321
				c-0.53-0.172-1.208-0.879-1.251-1.398c-0.25-2.978,1.06-5.386,3.084-7.465c4.267-7.385,9.773-13.759,15.977-19.563l0,0v0
				c5.828-7.921,12.727-14.866,19.752-21.697c0.836-2.125,2.141-3.853,4.194-4.948v0c0,0,0,0,0,0
				c-0.06-0.71,0.242-1.194,0.906-1.452c-0.001-1.105,0.617-1.742,1.593-2.109l0.088-0.145c0.033-1.3,0.682-2.177,1.85-2.697
				c8.874-16.767,14.631-34.699,19.753-52.868c4.246-15.061,9.561-29.697,17.341-43.342
				C1218.428,1412.147,1219.333,1411.012,1220.149,1409.824z M990.931,1695.607c-0.066,1.026,0.07,2.121-0.254,3.058
				c-0.329,0.952-1.155,1.585-2.366,1.575c-1.397-0.012-1.763-1.047-1.796-1.975c-0.097-2.766-0.177-5.592,1.979-7.812
				c1.892-7.057,3.784-14.114,5.677-21.171c-0.339-1.177,0.107-2.077,0.991-2.823c0,0,0,0,0,0c0.205-1.169,0.409-2.338,0.614-3.506
				c0,0,0,0,0,0c0,0,0,0,0,0c-0.288-2.093,0.144-3.979,1.597-5.573c0.135-1.044,0.271-2.088,0.406-3.131
				c0.067-0.75,0.133-1.499,0.2-2.249c-0.365-1.992,0.167-3.745,1.41-5.31c0.293-1.889,0.585-3.777,0.878-5.666
				c-0.277-2.085,0.014-4.024,1.453-5.669c-0.442-8.406,2.027-16.484,2.781-24.756c-0.414-3.359-0.211-6.627,1.413-9.689
				c0-0.002,0.001-0.003,0.001-0.005c0.267-2.612,0.534-5.224,0.801-7.836c-0.424-2.748-0.167-5.368,1.462-7.728
				c-0.168-8.102,2.436-15.69,4.524-23.337c6.025-22.062,14.207-43.244,26.441-62.701c2.121-5.695,5.52-10.625,9.201-15.387
				c0.473-0.737,0.982-1.447,1.534-2.127l0.031-0.058c0.108-1.307,0.802-2.195,1.957-2.756c-0.086-0.763,0.221-1.3,0.922-1.613
				c0.367-0.76,0.862-1.425,1.485-1.994c2.222-4.303,4.865-8.295,8.52-11.541c0,0,0,0,0.001,0c0,0,0,0,0,0
				c0.897-2.468,2.362-4.516,4.495-6.07c3.102-5.698,7.208-10.631,11.656-15.304c0.366-0.732,0.875-1.345,1.526-1.841l0.243-0.329
				c0.697-0.667,1.317-1.401,1.87-2.191l0.048-0.125c0,0,0,0,0,0c0,0,0-0.001,0-0.001v0c3.007-4.904,6.463-9.444,10.774-13.29
				c0,0,0,0,0,0c0,0,0,0,0,0c0.564-1.91,1.87-3.227,3.453-4.324c3.301-5.488,7.541-10.229,11.853-14.913c0,0,0.001,0,0.001,0
				c0,0,0,0,0,0c0.721-1.845,2.124-3.115,3.82-1.715c1.725,1.424,0.62,3.003-0.981,4.075l0,0v0
				c-2.455,4.066-5.232,7.873-8.842,11.011c-0.205,1.211-0.795,2.094-2.044,2.421l-0.039,0.106c0,0,0,0,0,0
				c-0.856,2.565-2.532,4.498-4.665,6.082c0,0,0,0-0.001-0.001c0,0,0,0.001,0,0.001c-3.024,4.931-6.426,9.56-10.755,13.447
				c-0.454,1.781-1.718,2.939-3.09,4.013c-0.332,0.717-0.818,1.306-1.458,1.769l-0.301,0.417c-0.672,0.66-1.26,1.389-1.776,2.177
				c-2.328,4.165-5.075,8.005-8.666,11.192c-0.001,0-0.001,0-0.002-0.001c0,0,0.001,0.001,0.001,0.001
				c-0.928,2.509-2.491,4.55-4.587,6.196c-2.415,4.841-5.84,8.968-9.256,13.102c-0.478,0.736-1,1.438-1.569,2.106l-0.067,0.122
				c-0.083,1.325-0.793,2.224-1.921,2.84c0,0,0,0,0,0c0.138,0.715-0.127,1.216-0.797,1.504c-0.491,0.753-1.006,1.488-1.542,2.209
				c-2.323,4.898-4.816,9.691-8.458,13.779c-0.872,1.961-1.624,3.985-2.634,5.872c-11.121,20.778-19.542,42.556-24.506,65.633
				c-0.454,2.109-1.2,4.156-1.81,6.232c0,0,0,0,0,0c0,0,0,0,0,0c0.318,3.047-0.188,5.936-1.466,8.678
				c-0.091,0.231-0.194,0.459-0.325,0.682c-0.169,1.968-0.339,3.936-0.509,5.904c0.446,3.693,0.031,7.266-1.29,10.713
				c-0.089,0.274-0.191,0.547-0.318,0.816c-0.172,1.961-0.345,3.921-0.517,5.882c0.665,6.016-1.148,11.725-2.167,17.532
				c0.354,3.138-0.181,6.112-1.479,8.947c-0.079,0.202-0.169,0.403-0.276,0.6c-0.147,1.177-0.294,2.354-0.441,3.531
				c-0.482,0.541-0.709,1.148-0.82,1.786c0.193,0.047,0.395,0.155,0.606,0.334c0.398,1.983-0.17,3.718-1.363,5.291
				c-0.148,3.038-0.008,6.146-2.073,8.729c0,0,0,0,0,0c-0.242,1.165-0.485,2.331-0.728,3.496c0.255,2.105-0.028,4.057-1.616,5.635
				c0,0.001,0,0.002,0,0.003c-0.182,1.032-0.365,2.065-0.547,3.097c0.232,2.133-0.071,4.108-1.687,5.694
				C995.726,1683.873,992.95,1689.64,990.931,1695.607z M1123.103,1611.575c-4.855,15.279-12.22,29.336-21.001,42.69l0,0
				c0.037,1.227-0.641,1.985-1.654,2.524c-0.356,0.656-0.712,1.313-1.068,1.969c-0.265,0.725-0.698,1.335-1.274,1.846l-0.116,0.196
				c-0.059,1.259-0.725,2.102-1.771,2.686c-0.033,0.04-0.067,0.061-0.104,0.061c0.097,0.786-0.214,1.347-0.93,1.684
				c-0.35,0.76-0.822,1.432-1.437,2.002c-4.68,8.221-9.994,15.936-17.483,21.917c0,0,0,0,0,0c0,0,0,0,0,0
				c-0.314,1.12-0.895,1.95-2.184,2.014c-0.206,1.256-0.873,2.067-2.182,2.256c0,0,0-0.001-0.001-0.001c0,0.001,0,0.001,0,0.002
				c-0.2,1.276-0.902,2.064-2.208,2.262c0,0-0.001-0.001-0.001-0.001c0,0.001,0,0.002,0,0.002c-0.172,1.273-0.878,2.018-2.166,2.183
				c-0.196,1.286-0.935,2.027-2.223,2.219c-0.186,1.316-0.975,2.025-2.256,2.236c-0.176,1.315-0.992,1.965-2.241,2.17
				c-0.064,1.3-0.909,1.876-2.032,2.195c0,0,0,0,0,0c0,0,0,0,0,0.001c-5.492,6.964-12.417,12.344-19.451,17.604
				c-3.75,4.361-8.204,7.87-13.1,10.846c-6.854,6.507-14.357,12.062-23.179,15.644c-1.324,0.537-2.733,0.95-4.14,1.142
				c-0.397,0.054-0.985-0.836-1.375-1.372c-0.188-0.257-0.278-0.792-0.135-1.041c0.338-0.586,0.737-1.339,1.296-1.566
				c9.156-3.714,16.524-10.276,24.752-15.462c3.861-4.284,8.377-7.778,13.184-10.919c0,0,0,0,0,0v0
				c6.188-6.268,12.604-12.274,19.808-17.384c0.398-1.165,1.185-1.867,2.416-2.046c0.191-1.307,1.021-1.956,2.253-2.189
				c0.151-1.277,0.941-1.904,2.144-2.112c0,0,0,0,0,0c0,0,0,0,0-0.001c0.759-2.052,2.171-3.451,4.212-4.223
				c0,0,0.001,0.001,0.001,0.001c0-0.001,0-0.001,0-0.002c0.203-1.245,0.866-2.041,2.166-2.216c0.187-1.229,0.829-2.017,2.112-2.188
				c0.176-1.251,0.903-2.037,2.068-2.451c6.031-7.97,12.062-15.941,18.094-23.911c0.001-1.117,0.638-1.773,1.595-2.196l0.006-0.047
				c0,0,0,0,0,0c0.093-1.357,0.768-2.331,1.948-2.975c0,0,0-0.001,0-0.001c-0.182-0.619,0.029-1.042,0.633-1.268
				c0.635-0.816,1.412-1.538,1.71-2.578c0.323-0.629,0.646-1.259,0.97-1.888c0.3-0.777,0.747-1.458,1.342-2.041l0.052-0.098
				c0.054-1.365,0.72-2.349,1.88-3.026v0c2.114-4.173,4.189-8.366,6.349-12.516c4.349-8.355,8.448-16.811,11.152-25.876
				c0.3-1.007,0.752-2.032,1.39-2.849c0.363-0.465,1.317-0.815,1.873-0.679c0.498,0.122,1.181,1.006,1.147,1.51
				C1123.822,1608.079,1123.637,1609.896,1123.103,1611.575z M1117.699,1329.304c-0.133,1.233-0.797,1.98-2.019,2.22l-0.051,0.151
				c-4.952,7.823-11.012,14.958-14.719,23.552c-2.713,6.289-4.972,12.675-3.049,19.694c0,0.001-0.001,0.002-0.001,0.003
				c0-0.001,0.001-0.001,0.002-0.002c2.835,3.04,6.163,4.626,10.449,3.843c1.291-0.236,3.077-0.24,3.035,1.676
				c-0.036,1.669-1.786,2.143-3.116,2.399c-5.278,1.017-9.848,0.04-12.713-5.083c-3.558-2.882-3.472-6.903-2.913-10.77
				c0.507-3.504,1.406-7.039,2.728-10.32c4.169-10.341,9.774-19.823,17.812-27.707c0,0,0.001,0,0.001,0c0,0-0.001-0.001-0.001-0.001
				c7.418-9.932,15.846-18.873,25.831-26.284c3.729-4.524,8.334-7.954,13.437-10.763c8.054-6.853,16.688-12.806,26.454-16.995l0,0
				c3.07-2.323,6.357-4.213,10.143-5.114c3.838-3.35,8.622-4.541,13.366-5.782c1.139-0.298,2.008,0.472,2.484,1.457
				c0.549,1.136-0.02,2.147-1.028,2.52c-3.953,1.462-7.961,2.775-11.949,4.144c-0.001,0-0.002-0.001-0.003-0.001
				c0.001,0,0.001,0.001,0.002,0.001c-3.481,1.703-6.963,3.406-10.446,5.109c-0.001,0-0.001-0.001-0.002-0.001
				c0,0.001,0,0.001,0,0.002c-8.769,5.754-17.538,11.509-26.306,17.263l0,0c-3.954,4.137-8.586,7.422-13.301,10.6
				C1133.783,1313.177,1125.741,1321.24,1117.699,1329.304z M1259.781,2027.46c-3.913,12.471-8.731,24.631-14.179,36.509
				c-20.771,45.286-45.544,88.44-70.673,131.375c-15.409,26.327-31.703,52.137-47.52,78.228
				c-7.341,12.109-14.632,24.253-21.67,36.539c-3.42,5.969-6.155,12.327-9.302,18.457c-1.874,3.651-4.102,4.776-8.899,4.218
				c-0.758-0.291-2.457-0.879-4.104-1.586c-9.725-4.174-19.057-9.102-27.051-16.094c-12.646-11.061-26.786-20.038-40.909-28.901
				c-19.509-12.244-40.99-20.248-63.457-25.184c-9.996-2.196-7.845-4.518-3.495-10.386c4.105-5.539,8.675-10.742,13.18-15.973
				c4.507-5.233,9.077-10.42,13.81-15.449c40.515-43.043,75.028-90.655,106.985-140.228c15.161-23.518,29.654-47.407,42.388-72.356
				c5.944-11.646,12.445-23.022,20.924-33.105c2.576-3.063,5.093-6.209,9.147-7.452c3.211-0.985,6.201-1.475,9.135,1.169
				c10.603,9.554,23.036,16.215,35.652,22.706c9.382,4.827,18.97,9.068,28.702,13.08c8.715,3.593,17.444,7.197,25.928,11.29
				C1261.249,2017.632,1262.144,2019.929,1259.781,2027.46z M1280.074,1978.8c-3.896,6.554-7.615,13.214-11.33,19.873
				c-1.235,2.214-2.823,3.428-5.241,2.144c-13.497-7.171-28.056-11.87-41.933-18.124c-10.899-4.911-21.369-10.776-32.008-16.261
				c-1.28-0.66-2.507-1.488-3.608-2.416c-6.158-5.189-6.245-5.01-3.1-11.583c4.39-9.177,7.678-18.791,10.813-28.474
				c6.307-19.483,3.447-38.001-5.379-55.955c-4.978-10.126-10.725-19.815-17.675-28.724c-7.599-9.742-15.363-19.354-23.054-29.024
				c-3.849-4.839-7.465-9.827-10.373-15.315c-7.417-13.997-8.141-28.425-2.787-43.203c3.972-10.965,9.102-21.339,16.293-30.612
				c2.003-2.583,3.889-5.259,5.752-7.946c11.434-16.491,14.196-34.648,10.316-54.064c-0.427-2.135-0.726-4.318-1.388-6.381
				c-2.134-6.659,0.074-12.207,4.428-17.058c2.656-2.96,5.537-5.802,8.681-8.223c9.01-6.939,14.608-15.961,17.577-26.84
				c2.596-9.512,5.022-19.175,4.079-28.997c-1.567-16.321,6.829-25.535,20.103-32.804c14.977-8.201,29.853-7.471,45.226-2.097
				c1.98,0.692,3.019,2.031,3.481,3.783c0.643,2.437,1.178,4.948,1.351,7.456c2.367,34.335,12.884,66.182,29.886,95.883
				c10.461,18.275,21.712,36.098,32.644,54.103c6.217,10.24,12.747,20.286,18.048,31.067c4.98,10.128,8.89,20.656,12.498,31.325
				c3.205,9.477,3.32,19.273,3.344,30.72c0.801,14.732-3.324,29.813-10.25,44.636
				C1333.538,1884.762,1307.735,1932.267,1280.074,1978.8z M1539.072,1939.939c-26.23,29.621-50.542,61.019-81.122,86.594
				c-12.653,10.582-26.603,18.778-41.606,25.5c-14.53,6.51-27.418,4.402-39.452-5.685c-6.759-5.665-12.18-12.476-17.294-19.524
				c-10.031-13.825-18.952-28.344-26.835-43.523c-4.845-9.33-10.164-18.421-15.478-27.498c-1.861-3.179-2.033-5.93-0.135-9.108
				c3.534-5.917,6.85-11.965,10.254-17.96c1.21-2.131,2.929-2.803,5.423-2.548c47.015,4.811,89.8-7.984,129.896-31.573
				c14.165-8.334,26.923-18.498,37.788-30.928c1.161-1.328,2.104-3.036,4.248-3.231c2.527,3.047,3.235,6.969,4.689,10.528
				c7.552,18.487,16.101,36.508,25.093,54.328c1.634,3.239,3.127,6.556,4.906,9.712
				C1540.497,1936.883,1540.404,1938.435,1539.072,1939.939z M1779.106,2329.909c-1.116-1.426-1.999-3.031-3.025-4.53
				c-35.339-51.6-67.36-105.216-97.707-159.879c-31.209-56.215-60.116-113.628-89.781-170.649
				c-17.261-33.178-34.863-66.182-50.968-99.944c-8.443-17.7-16.273-35.663-21.697-54.589c-3.623-12.643-6.088-25.443-6.071-38.627
				c0.011-8.724,0.156-17.452,0.461-26.17c0.1-2.862,0.793-5.721,1.398-8.542c0.652-3.041,2.488-4.84,5.534-6.072
				c25.322-10.245,48.843-24.058,72.38-37.692c29.969-17.359,57.963-37.476,81.555-63.215c14.292-15.594,27.296-32.117,37.996-50.39
				c10.096-17.242,19.819-34.68,27.463-53.193c0.478-1.157,0.392-2.821,2.921-3.426c6.227,10.284,12.698,20.706,18.881,31.296
				c3.033,5.194,3.572,11.08,2.758,16.945c-1.806,13.016,0.462,25.269,5.984,37.111c1.831,3.926,2.93,8.161,3.49,12.549
				c1.563,12.267-1.452,23.007-9.934,32.149c-13.66,14.723-28.553,27.896-45.851,38.328c-10.877,6.56-21.349,13.8-31.924,20.851
				c-16.456,10.973-23.82,26.71-24.383,46.194c-0.383,13.23,1.171,26.239,5.076,38.748c5.295,16.962,10.284,34.043,16.826,50.612
				c7.78,19.704,18.157,38.022,29.724,55.641c48.884,74.459,99.702,147.546,155.513,217.042
				c17.99,22.401,37.027,43.907,56.554,64.982c7.395,7.981,14.601,16.138,22.15,24.499c-2.955,1.849-5.33,3.469-7.826,4.877
				c-49.337,27.82-98.688,55.617-148.039,83.413c-1.581,0.89-3.246,1.641-4.779,2.604
				C1781.869,2332.035,1780.336,2331.482,1779.106,2329.909z M1809.056,2401.742c-5.033-10.444-9.956-20.944-14.689-31.527
				c-2.215-4.952-3.945-10.124-5.803-15.23c-2.255-6.197-1.954-7.193,3.698-10.385c25.251-14.264,50.539-28.463,75.808-42.696
				c25.585-14.411,51.163-28.834,76.744-43.252c1.894-1.067,3.767-2.176,5.695-3.18c4.214-2.195,5.329-2.167,8.579,1.088
				c12.911,12.929,23.807,27.29,31.064,44.074c-1.319,3.088-4.189,4.154-6.503,5.828c-12.052,8.718-24.272,17.212-36.163,26.143
				c-23.841,17.907-49.169,33.428-75.354,47.595c-18.225,9.861-37.833,16.487-57.031,24.06
				C1811.977,2405.491,1810.664,2405.079,1809.056,2401.742z M2259.396,2608.531c-6.86,16.128-14.855,31.485-24.588,46.03
				c-10.205,15.252-22.782,28.27-36.65,40.138c-6.055,5.182-12.857,9.482-18.017,15.736c-1.331,1.613-3.447,2.636-5.317,3.735
				c-6.887,4.049-13.922,7.853-20.72,12.042c-24.909,15.349-52.362,23.127-81.033,26.999c-15.604,2.108-31.268,1.055-46.672-2.035
				c-51.492-10.331-99.221-29.939-143.167-58.728c-11.975-7.844-22.026-17.802-31.46-28.437c-3.391-3.823-5.998-8.2-8.31-12.755
				c-6.451-12.716-10.733-26.203-13.813-40.052c-1.428-6.417-0.941-13.001,0.278-19.507c2.152-11.486,5.942-22.436,10.402-33.198
				c2.082-5.024,4.261-10.065,5.69-15.291c2.843-10.395,2.405-20.847-0.585-31.218c-2.217-7.691-4.901-15.2-8.265-22.458
				c-7.639-16.484-14.795-33.138-19.5-50.763c-1.383-5.183-3.529-10.163-5.54-15.843c11.848-4.698,23.225-9.381,34.729-13.728
				c14.299-5.403,27.99-12.033,41.332-19.454c25.117-13.969,49.302-29.345,72.232-46.717c11.291-8.555,22.976-16.595,34.563-24.755
				c13.736-9.674,14.951-14.934,7.153-30.139c-6.689-13.044-14.875-24.927-25.492-35.123c-3.397-3.262-6.569-6.832-9.405-10.592
				c-8.118-10.764-17.169-20.715-26.401-30.486c-48.547-51.38-91.672-107.129-132.963-164.375
				c-27.217-37.734-53.236-76.292-79.08-114.968c-8.881-13.291-17.269-26.912-24.448-41.219c-2.9-5.778-5.405-11.754-8.189-17.858
				c9.471-6.006,19.323-9.691,28.985-13.763c0.333-0.14,0.703-0.193,1.038-0.331c39.454-16.268,79.546-14.11,119.797-3.817
				c56.036,14.329,105.015,41.743,147.607,80.694c15.608,14.273,29.642,30.075,41.958,47.222
				c25.649,35.709,51.943,70.982,75.515,108.141c18.68,29.447,37.491,58.825,53.04,90.116c6.468,13.017,12.385,26.255,16.819,40.143
				c2.332,7.303,4.091,14.713,5.091,22.27c1.803,13.626,0.119,26.833-5.871,39.321c-2.354,4.909-4.992,9.681-7.417,14.557
				c-7.767,15.621-9.688,31.686-4.485,48.622c4.129,13.443,10.823,25.351,19.696,36.1c9.493,11.5,19.399,22.637,30.005,33.139
				c8.791,8.705,17.12,17.81,24.645,27.666c13.713,17.962,22.437,38.184,26.66,60.214
				C2276.102,2539.589,2273.844,2574.561,2259.396,2608.531z"/>
		</g>
		<path style="fill:#020101;" d="M995.161,1666.462c-0.33,0.939-0.659,1.878-0.989,2.816
			C994.552,1668.357,994.881,1667.418,995.161,1666.462z"/>
		<path d="M1484.766,1673.167c-0.344-3.657-1.411-7.097-2.834-10.453c-2.992-7.059-7.028-13.514-11.654-19.581
			c-15.774-20.69-34.672-38.017-56.535-52.11c-6.106-3.936-12.493-7.377-19.335-9.835c-4.423-1.589-8.929-3.046-13.731-3.075
			c-8.292-0.05-17.404,5.426-16.665,17.235c0.207,3.31,0.987,6.41,2.099,9.507c2.602,7.243,6.554,13.723,11.04,19.9
			c15.093,20.783,33.655,37.943,54.876,52.297c6.319,4.274,12.947,8.013,20,10.943c5.04,2.093,10.183,3.854,14.085,3.761
			C1479.611,1691.927,1485.88,1685.038,1484.766,1673.167z M1451.9,1670.332c-0.717,1.42-2.272,1.495-3.712,1.494
			c-0.346,0-0.735-0.051-1.033-0.211c-4.438-2.375-8.319-5.405-11.032-9.724c-1.13-1.799,0.455-4.764,3.978-4.859
			c2.907,0.498,6.721,2.111,9.389,5.769c1.039,1.425,1.988,2.974,2.638,4.603C1452.46,1668.236,1452.317,1669.507,1451.9,1670.332z"
			/>
		<path style="fill:#020202;" d="M1661.243,1497.075c-3.723-7.568-9.44-10.489-17.74-8.978c-3.292,0.599-6.211,2.007-8.899,3.839
			c-11.871,8.091-19.412,19.305-23.225,33.047c-1.173,4.227-1.105,8.654-0.453,12.966c2.035,13.456,14.367,20.004,26.826,14.451
			c3.035-1.353,5.65-3.23,8.056-5.439c9.728-8.928,13.767-20.997,18.041-32.917c0.354-0.988,0.23-2.147,0.318-3.115
			C1663.552,1506.154,1663.391,1501.442,1661.243,1497.075z M1638.775,1540.298c-0.696,0.551-2.169,0.8-2.903,0.428
			c-0.689-0.35-1.287-1.748-1.191-2.603c0.247-2.226,1.608-3.943,3.526-5.081c0.515-0.305,1.474-0.374,1.952-0.088
			c0.512,0.307,0.696,1.16,1.043,1.812C1641.627,1537.122,1640.488,1538.94,1638.775,1540.298z M1646.09,1506.061
			c-0.259,1.092-0.548,3.654-1.473,5.96c-2.846,7.099-6.779,13.571-12.202,19.028c-1.507,1.516-3.132,2.905-5.333,3.56
			c-3.187,0.949-5.894-0.854-5.781-4.217c0.06-1.795,0.098-3.688,0.68-5.35c3.026-8.643,7.547-16.386,14.372-22.633
			c0.794-0.726,1.725-1.312,2.631-1.904c1.609-1.05,3.363-1.32,5.135-0.538C1645.473,1500.564,1646.196,1502.433,1646.09,1506.061z"
			/>
		<path style="fill:#010101;" d="M1457.339,1391.897c-7.042-8.137-19.238-9.713-28.763-4.107c-1.862,1.096-3.714,2.353-5.229,3.875
			c-10.184,10.233-17.641,22.075-20.84,36.32c-0.474,2.11-0.839,4.296-0.856,6.449c-0.089,11.596,7.583,20.006,19.155,21.159
			c6.38,0.635,12.385-0.711,17.651-4.261c14.864-10.022,21.828-24.654,23.926-39.141
			C1462.368,1403.026,1461.569,1396.785,1457.339,1391.897z M1431.704,1439.82c-0.993,0.411-2.13-0.194-2.459-1.261
			c-0.84-2.726,0.434-4.691,2.61-6.202c0.256-0.178,0.618-0.202,0.876-0.281c1.418-0.19,2.056,0.827,2.144,1.788
			C1435.116,1436.463,1434.301,1438.746,1431.704,1439.82z M1437.302,1412.959c-2.234,8.171-6.454,15.253-12.131,21.472
			c-1.198,1.313-2.664,2.454-4.187,3.376c-1.577,0.954-3.459,1.226-5.175,0.331c-1.821-0.95-1.992-2.812-2.098-5.136
			c0.864-8.114,5.176-15.155,10.223-21.829c1.96-2.592,4.179-4.945,7.184-6.462c3.334-1.685,6.9,0.295,6.823,3.998
			C1437.913,1410.132,1437.678,1411.584,1437.302,1412.959z"/>
		<path style="fill:#010101;" d="M1174.352,2552.119c0.129-11.443,2.998-22.311,7.459-32.704
			c4.146-9.659,8.986-19.018,13.355-28.584c3.462-7.581,6.849-15.207,9.943-22.944c2.57-6.43,4.358-13.026,2.799-20.162
			c-0.982-4.493,0.45-8.63,3.491-12.107c2.146-2.453,5.139-3.145,7.886-1.901c2.555,1.158,4.483,3.441,3.973,5.942
			c-1.617,7.929,1.217,15.874-0.712,23.803c-2.067,8.495-4.604,16.782-8.339,24.684c-4.806,10.167-9.691,20.298-14.485,30.471
			c-4.034,8.561-7.227,17.351-8.593,26.827c-1.973,13.691,1.064,26.059,9.296,36.982c13.293,17.637,29.977,31.507,48.991,42.604
			c4.415,2.577,9.244,3.973,14.423,4.502c5.853,0.598,8.908,3.716,8.533,7.775c-0.335,3.632-3.498,6.332-8.506,7.073
			c-4.765,0.705-9.375-0.009-13.936-1.553c-4.505-1.525-8.678-3.676-12.672-6.182c-17.353-10.885-32.82-23.979-46.016-39.683
			C1180.358,2584.008,1174.169,2569.257,1174.352,2552.119z"/>
		<path style="fill:#010101;" d="M944.47,1977.933c-0.564-24.382,6.266-46.6,19.089-67.156
			c6.557-10.512,14.172-20.216,22.187-29.628c0.705-0.828,1.511-1.572,2.176-2.428c2.152-2.772,7.08-3.321,9.907-1.295
			c2.749,1.97,3.467,6.335,1.323,9.859c-1.504,2.472-3.376,4.729-5.17,7.013c-7.649,9.737-14.183,20.193-20.249,30.969
			c-11.863,21.074-15.248,43.747-12.212,67.413c3.012,23.477,8.965,46.291,17.012,68.559c1.474,4.08,2.883,8.23,3.767,12.464
			c0.813,3.893-0.927,6.942-3.803,8.205c-3.389,1.488-7.316,0.423-9.42-3.101c-1.846-3.092-3.307-6.451-4.626-9.813
			c-9.055-23.086-14.81-47.058-18.622-71.498C944.823,1991.059,944.893,1984.458,944.47,1977.933z"/>
		<path style="fill:#010101;" d="M948.756,2609.696c0.441,9.47-0.712,18.863-1.345,28.28c-0.147,2.182-0.466,4.301-1.666,6.237
			c-1.501,2.419-3.665,3.424-6.402,3.273c-2.791-0.153-4.683-1.608-5.869-4.153c-1.314-2.82-0.59-5.708-0.513-8.582
			c1.058-39.522-3.052-78.221-17.619-115.396c-6.619-16.891-13.557-33.623-21.355-50.002c-1.243-2.611-2.479-5.269-3.281-8.031
			c-0.59-2.033-0.724-4.287-0.601-6.416c0.161-2.778,1.997-4.592,4.486-5.64c2.671-1.125,5.093-0.275,6.965,1.639
			c1.496,1.53,2.866,3.329,3.793,5.25c16.735,34.678,32.392,69.766,39.247,108.024
			C947.291,2579.22,948.163,2594.452,948.756,2609.696z"/>
		<path style="fill:#010101;" d="M780.841,2264.356c-0.019-13.925,3.021-24.664,8.723-34.629c3.968-6.933,8.03-13.82,12.289-20.577
			c6.902-10.95,11.455-22.63,12.134-35.686c0.092-1.764,0.451-3.666,1.256-5.207c1.257-2.407,3.519-3.625,6.33-3.386
			c2.779,0.235,4.898,1.704,5.693,4.318c0.62,2.039,0.689,4.289,0.742,6.451c0.28,11.507-2.661,22.337-7.548,32.609
			c-2.644,5.559-5.988,10.787-9.062,16.138c-2.893,5.038-6.022,9.948-8.738,15.078c-6.833,12.907-7.753,26.416-2.832,40.082
			c5.462,15.166,12.929,29.223,24.743,40.576c2.359,2.267,4.658,4.583,6.052,7.644c1.182,2.595,0.764,4.898-0.822,7.16
			c-1.657,2.363-4.008,2.909-6.67,2.755c-2.71-0.156-4.723-1.746-6.689-3.361c-5.083-4.177-9.474-9.013-13.383-14.292
			c-8.061-10.888-14.055-22.877-18.626-35.58c-1.223-3.398-2.077-6.977-2.662-10.544
			C781.126,2269.973,780.986,2265.956,780.841,2264.356z"/>
		<path style="fill:#010101;" d="M1615.291,2312.337c-0.645,20.44-4.706,39.159-11.541,57.268
			c-2.832,7.502-6.972,14.377-12.23,20.468c-12.175,14.105-26.023,26.316-41.912,36.101c-5.876,3.619-12.028,6.767-19.039,7.638
			c-1.785,0.222-3.61,0.525-5.381,0.376c-3.15-0.266-5.57-2.52-6.158-5.317c-0.633-3.011,0.422-5.855,3.125-7.51
			c1.838-1.124,3.854-2.001,5.869-2.784c21.641-8.409,37.991-23.651,52.715-40.934c4.271-5.014,7.089-10.955,9.268-17.149
			c5.082-14.446,7.964-29.396,9.56-44.573c0.72-6.844,0.807-13.782-0.833-20.59c-0.17-0.706-0.384-1.408-0.469-2.125
			c-0.632-5.321,1.907-9.256,6.261-9.753c3.617-0.413,6.787,2.328,8.083,7.274c0.826,3.154,1.598,6.36,1.958,9.591
			C1615.048,2304.638,1615.107,2309.005,1615.291,2312.337z"/>
		<path style="fill:#020101;" d="M757.051,2393.81c-22.692-0.862-47.432-4.534-71.618-11.458
			c-13.509-3.867-25.147-11.209-35.024-21.221c-2.028-2.056-3.922-4.336-5.437-6.785c-2.115-3.419-1.146-7.762,1.77-9.738
			c2.668-1.809,6.206-1.499,8.985,0.9c1.093,0.943,2.009,2.09,3.026,3.124c8.048,8.191,17.587,13.863,28.545,17.321
			c17.39,5.489,35.234,8.606,53.321,10.421c13.034,1.307,26.092,1.844,39.16,0.156c2.5-0.323,5.083-0.292,7.604-0.103
			c2.801,0.211,4.615,1.936,5.431,4.615c0.896,2.942-0.089,6.137-2.498,7.732c-2.444,1.619-5.22,2.396-8.064,3.119
			C774.76,2393.802,767.145,2393.832,757.051,2393.81z"/>
		<path style="fill:#020101;" d="M1696.204,2595.011c-2.146,16.824-10.204,33.978-27.371,46.061
			c-6.411,4.512-13.803,6.22-21.45,7.035c-1.065,0.114-2.172,0.033-3.239-0.115c-3.678-0.508-6.261-2.89-6.732-6.112
			c-0.432-2.962,1.521-6.291,4.936-7.625c3.025-1.182,6.227-1.906,9.344-2.859c6.791-2.076,12.37-5.931,16.772-11.496
			c5.484-6.933,9.199-14.74,11.259-23.307c1.029-4.277,1.044-8.652,0.068-12.953c-1.639-7.225-4.671-13.095-13.445-13.003
			c-0.712,0.008-1.452-0.136-2.136-0.347c-3.358-1.035-5.6-4.154-5.303-7.301c0.306-3.241,2.789-5.983,6.468-6.268
			c9.142-0.708,17.33,1.415,23.101,9.207C1694.079,2573.493,1696.368,2582.124,1696.204,2595.011z"/>
		<path style="fill:#020202;" d="M1213.45,2310.813c4.439,0.265,7.396,3.683,6.87,7.46c-0.195,1.403-0.591,2.901-1.331,4.084
			c-4.615,7.386-3.81,15.404-2.47,23.297c1.969,11.602,6.25,22.341,13.496,31.773c1.989,2.59,3.911,5.244,5.673,7.991
			c0.96,1.497,1.746,3.188,2.208,4.901c0.707,2.621,0.082,5.064-2.036,6.924c-2.061,1.811-5.745,2.252-8.188,0.767
			c-1.523-0.926-2.911-2.167-4.137-3.475c-16.5-17.591-24.401-38.365-22.97-62.544c0.398-6.73,2.873-12.71,6.937-18.024
			C1209.113,2311.862,1211.24,2310.518,1213.45,2310.813z"/>
		<path style="fill:#9EB3B3;" d="M943.05,1601.899c0.75-1.164,1.325-2.515,2.306-3.433c0.789-0.739,2.098-0.516,2.214,0.845
			c0.216,2.544-0.175,5.005-2.097,6.949C944.622,1604.828,945.194,1602.608,943.05,1601.899z"/>
		<path style="fill:#020101;" d="M2103.161,2623.042c-20.874,0.596-40.978-3.523-60.355-11.35
			c-5.374-2.17-10.632-4.677-15.055-8.562c-4.595-4.036-7.42-8.916-6.718-15.262c0.531-4.8,4.991-7.732,9.398-6.389
			c1.85,0.563,3.447,1.647,4.084,3.328c2.765,7.294,9.202,9.722,15.618,12.351c21.245,8.705,43.403,11.248,66.105,9.583
			c10.838-0.795,21.661-2.108,32.1-5.403c4.825-1.523,9.74-2.938,14.311-5.055c8.689-4.024,16.561-9.104,19.782-18.979
			c0.985-3.019,3.178-4.733,6.492-4.808c3.573-0.081,6.393,2.193,6.832,5.634c0.427,3.345-0.446,6.41-1.832,9.456
			c-3.259,7.16-8.519,12.567-14.74,17.109c-7.387,5.394-15.62,9.169-24.382,11.666
			C2137.969,2621.158,2120.801,2623.623,2103.161,2623.042z"/>
		<path style="fill:#020202;" d="M1959.708,2014.172c-0.662,19.933-2.359,39.77-6.419,59.347c-1.036,4.995-2.384,9.889-5.981,13.77
			c-2.304,2.486-5.015,4.103-8.595,3.824c-3.694-0.288-6.701-3.924-6.092-7.517c0.12-0.708,0.29-1.449,0.625-2.074
			c6.541-12.206,6.996-25.826,8.389-39.054c1.666-15.825,3.068-31.773,0.9-47.738c-1.272-9.365-3.256-18.535-6.632-27.379
			c-1.422-3.727-2.841-7.279-7.011-9.106c-3.892-1.705-4.458-5.462-4.034-9.267c0.723-6.485,7.784-9.55,13.029-5.634
			c3.546,2.647,5.96,6.319,8.146,10.082c5.7,9.81,9.29,20.436,11.333,31.535C1959.139,1994.592,1960.422,2004.309,1959.708,2014.172
			z"/>
		<path style="fill:#010101;" d="M2110.908,2440.116c0.057,3.757-1.705,6.573-4.824,7.71c-2.903,1.059-6.58,0.025-8.676-2.893
			c-1.234-1.719-2.035-3.809-2.744-5.833c-9.303-26.58-23.065-50.755-39.598-73.424c-5.128-7.031-10.417-13.951-15.787-20.8
			c-4.252-5.423-8.701-10.697-14.379-14.756c-0.881-0.63-1.748-1.316-2.485-2.104c-1.948-2.079-2.337-5.652-0.895-8.063
			c1.433-2.397,3.691-3.51,6.385-3.37c2.974,0.156,5.629,1.408,7.827,3.405c4.023,3.654,8.262,7.131,11.882,11.156
			c25.203,28.016,45.303,59.268,59.189,94.395C2108.667,2430.253,2110.674,2434.938,2110.908,2440.116z"/>
		<path style="fill:#020202;" d="M1923.252,2548.397c5.177-0.181,8.584,4.936,6.59,9.791c-1.43,3.482-4.225,5.864-6.641,8.551
			c-9.682,10.766-15.784,23.485-19.643,37.25c-3.538,12.618-2.094,25.204,1.762,37.574c0.752,2.412,1.845,4.747,2.315,7.207
			c0.512,2.681-0.534,5.014-2.964,6.504c-2.475,1.518-6.25,1.467-8.115-0.555c-1.685-1.827-3.276-3.979-4.154-6.276
			c-6.643-17.379-9.264-34.988-3.052-53.189c4.378-12.825,10.127-24.864,18.608-35.495c2.722-3.412,5.704-6.572,9.281-9.157
			C1919.081,2549.271,1920.999,2548.456,1923.252,2548.397z"/>
		<path style="fill:#030303;" d="M2191.928,2448.482c-3.516,0.109-6.263-0.654-8.97-1.796c-15.866-6.696-29.986-15.907-41.484-28.85
			c-1.905-2.145-3.512-4.591-5.016-7.045c-0.926-1.51-1.604-3.25-2.03-4.976c-1.039-4.216,0.382-7.868,3.43-9.428
			c3.525-1.804,7.946-0.884,10.367,3.112c8.37,13.817,21.161,22.53,34.537,30.592c3.036,1.83,6.154,3.353,10.117,3.234
			c6.171-0.185,9.111,2.38,9.018,6.587c-0.101,4.616-4.095,8.24-9.449,8.567C2192.087,2448.501,2191.725,2448.482,2191.928,2448.482
			z"/>
		<path style="fill:#050404;" d="M2117.469,2326.05c2.305-13.661,6.948-23.765,14.417-32.55c2.432-2.861,5.365-4.913,9.145-5.458
			c4.754-0.685,8.955,2.746,8.925,7.219c-0.016,2.306-0.7,4.452-2.832,5.531c-7.63,3.863-9.71,11.369-12.125,18.534
			c-1.037,3.076-1.45,6.374-3.199,9.2c-2.206,3.566-5.88,5.117-9.219,3.973C2119.28,2331.367,2117.267,2327.707,2117.469,2326.05z"
			/>
		<path style="fill:#020101;" d="M1435.363,1328.914c27.66,2.165,50.04,13.21,63.703,38.57c3.428,6.362,6.243,13.055,9.331,19.6
			c1.507,3.195,1.306,6.347-0.463,9.354c-2.819,4.792-9.514,5.014-12.644,0.411c-0.808-1.188-1.353-2.56-1.971-3.87
			c-2.006-4.253-4.121-8.462-5.961-12.786c-9.348-21.968-26.967-32.264-49.723-35.124c-8.411-1.057-16.605,0.461-24.476,3.599
			c-2.007,0.8-3.912,1.905-5.969,2.517c-3.13,0.931-6.146-0.221-7.654-2.586c-1.739-2.727-1.302-6.474,1.04-8.985
			c2.543-2.726,5.836-4.357,9.189-5.648C1417.936,1330.822,1426.422,1329.048,1435.363,1328.914z"/>
		<path style="fill:#020202;" d="M1468.874,1554.307c0.035-8.862,2.286-14.606,5.672-19.819c2.955-4.548,6.239-8.935,9.801-13.025
			c8.094-9.295,16.415-18.394,24.715-27.508c2.814-3.09,5.77-3.597,8.706-1.835c3.313,1.987,4.938,5.877,3.096,9.349
			c-1.846,3.478-4.364,6.647-6.875,9.715c-7.351,8.982-14.898,17.805-22.255,26.782c-2.522,3.078-4.758,6.37-5.908,10.311
			c-1.674,5.735-0.246,9.993,5.033,12.802c2.849,1.515,5.962,2.723,9.099,3.469c7.385,1.759,14.626,4.274,22.304,4.652
			c0.721,0.035,1.453,0.111,2.151,0.283c3.517,0.866,5.781,3.497,5.942,6.844c0.158,3.289-1.783,6.707-4.967,7.663
			c-2.376,0.713-5.063,1.204-7.473,0.848c-11.479-1.694-22.884-3.877-33.487-8.862
			C1474.27,1571.201,1469.215,1563.004,1468.874,1554.307z"/>
		<path style="fill:#020202;" d="M1637.43,1431.468c17.351-0.149,31.632,6.683,43.646,18.984
			c15.663,16.036,23.33,35.617,26.084,57.465c0.135,1.075,0.195,2.177,0.133,3.258c-0.23,4.013-2.85,7.006-6.547,7.574
			c-3.492,0.536-7.403-1.613-8.501-5.365c-1.321-4.514-2.142-9.185-3.003-13.821c-2.592-13.963-8.912-25.996-18.431-36.465
			c-10.662-11.727-23.716-17.681-39.685-16.818c-1.81,0.098-3.632,0.4-5.424,0.271c-2.936-0.211-5.597-2.607-6.247-5.289
			c-0.681-2.812,0.634-5.667,3.162-7.544c2.504-1.858,5.363-2.114,8.274-2.232
			C1633.066,1431.396,1635.249,1431.468,1637.43,1431.468z"/>
	</g>
</g>
<g id="Layer_10_xA0_Image_1_">
</g>
<g id="Layer_12_xA0_Image_1_">
</g>
</svg>
