<?xml version="1.0" encoding="iso-8859-1"?>
<!-- Generator: Adobe Illustrator 23.0.2, SVG Export Plug-In . SVG Version: 6.00 Build 0)  -->
<svg version="1.1" xmlns="http://www.w3.org/2000/svg" xmlns:xlink="http://www.w3.org/1999/xlink" x="0px" y="0px"
	 viewBox="0 0 2793 2793" style="enable-background:new 0 0 2793 2793;" xml:space="preserve">
<g id="Background_xA0_Image_1_">
</g>
<g id="Layer_2_xA0_Image_1_">
</g>
<g id="Layer_3_xA0_Image_1_">
</g>
<g id="Layer_5_xA0_Image_1_">
</g>
<g id="Layer_8_xA0_Image_1_">
</g>
<g id="Layer_10_xA0_Image_1_">
</g>
<g id="Layer_12_xA0_Image_1_">
</g>
<g id="Layer_16_xA0_Image_3_">
	<g>
		<path d="M1943.795,2109.926c-1.863-7.015-3.562-14.09-4.941-21.215c-4.142-21.394-8.042-42.834-12.135-64.237
			c-6.626-34.652-10.89-69.629-14.482-104.698c-1.629-15.906-2.258-31.97-4.869-47.709c-6.955-41.922-14.526-83.745-22.253-125.534
			c-7.73-41.802-15.274-83.627-20.257-125.861c-4.898-41.517-11.586-82.726-19.814-123.717
			c-10.732-53.469-24.695-106.023-41.506-157.914c-14.051-43.368-36.385-81.391-68.286-113.868
			c-29.7-30.236-62.849-56.225-98.734-78.607c-17.544-10.942-35.965-20.55-56.643-24.559c-2.292-0.444-3.865-1.51-5.36-3.277
			c-19.492-23.031-39.174-45.896-59.658-68.058c-1.479-1.601-2.868-3.285-4.348-4.885c-1.332-1.439-1.734-2.98-1.265-4.949
			c6.042-25.355,6.45-51.009,4.88-76.91c-1.257-20.732-4.386-41.163-7.223-61.683c-4.187-30.28-10.217-60.158-18.238-89.621
			c-5.338-19.609-9.628-39.521-16.462-58.711c-15.66-43.974-36.463-85.408-60.976-125.1c-18.614-30.141-39.775-58.057-65.202-82.896
			c-35.984-35.151-78.121-60.196-124.746-78.025c-24.299-9.292-49.655-14.213-75.778-12.923
			c-44.415,2.194-85.762,14.307-122.864,39.505c-16.544,11.236-32.84,22.815-48.444,35.317
			c-19.028,15.246-37.233,31.414-53.709,49.456c-22.823,24.99-39,54.144-53.072,84.605c-5.637,12.203-10.53,24.71-14.315,37.632
			c-2.775,9.472-4.776,19.124-4.216,28.993c0.845,14.881,2.581,29.673,6.672,44.098c2.971,10.477,5.886,20.974,8.594,31.521
			c7.773,30.268,20.327,58.156,39.878,82.795c9.045,11.398,16.433,23.882,22.619,37.146c8.189,17.561,18.616,33.676,32.911,47.083
			c7.778,7.295,13.284,16.273,17.864,25.869c3.33,6.977,5.478,14.151,5.747,21.952c0.2,5.802,0.988,11.587,1.589,17.371
			c1.38,13.285,7.123,24.259,17.566,32.663c5.681,4.572,11.891,8.313,18.401,11.602c9.434,4.765,19.261,8.492,29.465,11.153
			c4.631,1.208,7.359,3.845,9.135,8.24c3.542,8.761,7.077,17.502,9.026,26.787c2.461,11.727,4.972,23.444,7.317,35.195
			c4.836,24.23,9.698,48.454,10.951,73.231c0.662,13.087,0.965,26.128-0.498,39.201c-2.311,20.659-7.563,40.68-12.683,60.733
			c-3.771,14.773-8.274,29.355-10.795,44.441c-3.821,22.871-1.85,44.802,9.101,65.684c5.751,10.968,12.075,21.548,19.007,31.774
			c9.583,14.138,19.373,28.136,29.01,42.237c11.512,16.843,21.461,34.544,29.048,53.521c12.043,30.125,15.45,61.034,8.91,92.986
			c-2.781,13.584-7.362,26.575-11.878,39.603c-4.043,11.663-8.22,23.267-11.191,35.279c-4.572,18.487-4.696,36.624,2.855,54.501
			c7.925,18.762,21.238,32.745,37.93,43.856c1.508,1.004,3.134,1.833,4.727,2.705c1.507,0.824,1.938,2.191,1.498,3.653
			c-0.834,2.776-1.862,5.496-2.871,8.216c-10.481,28.246-21.261,56.384-31.386,84.757c-10.614,29.746-20.724,59.681-27.985,90.472
			c-4.425,18.762-8.29,37.578-7.645,57.079c0.858,25.916,10.379,48.013,28.27,66.579c6.059,6.287,12.808,11.825,19.722,17.176
			c18.161,14.055,37.36,26.4,58.184,36.167c5.09,2.387,5.013,2.517,3.192,8.176c-10.898,33.864-21.897,67.696-32.651,101.604
			c-9.656,30.444-19.946,60.678-27.715,91.721c-10.174,40.647-17.166,81.775-20.215,123.529c-2.841,38.909-0.969,77.777,2.76,116.55
			c2.227,23.148,4.895,46.256,7.495,69.367c2.438,21.669,5.747,43.209,10.131,64.577c0.655,3.192,1.64,6.352,0.91,9.674
			c48,0,96,0,144,0c-1.386-4.393,1.627-7.698,3.102-11.222c15.693-37.504,31.841-74.829,45.234-113.246
			c26.885-77.118,53.564-154.306,80.504-231.404c17.241-49.34,34.153-98.815,54.454-147.016
			c18.467-43.846,34.362-88.669,51.163-133.148c3.853-10.201,7.401-20.513,7.856-31.576c0.123-2.994,0.693-6.306,2.925-8.001
			c4.736-3.597,4.514-8.813,5.517-13.638c0.719-3.459-0.299-5.494-2.555-6.446c-2.601-1.097-5.012-0.648-7.101,1.155
			c-1.667,1.439-3.169,3.149-3.29,5.457c-0.139,2.653-0.951,4.92-2.65,6.961c-3.152,3.787-4.265,8.407-4.837,13.12
			c-1.369,11.288-5.212,21.852-9.107,32.42c-19.077,51.774-38.65,103.356-59.905,154.284c-0.946,2.266-1.327,4.898-3.939,6.704
			c-1.114-0.467-2.482-0.896-3.71-1.576c-7.301-4.047-14.857-7.718-21.791-12.324c-15.792-10.494-32.521-19.135-49.841-26.733
			c-5.316-2.332-10.612-4.724-15.819-7.288c-42.977-21.164-85.912-42.414-128.921-63.514c-4.533-2.224-8.76-4.932-13.462-6.948
			c-28.977-12.418-54.928-29.652-78.091-50.983c-14.369-13.233-23.303-29.703-26.137-49.063
			c-1.742-11.897-1.512-23.971,0.352-35.878c2.247-14.355,5.405-28.533,9.243-42.561c12.858-46.985,29.85-92.574,46.894-138.127
			c14.498-38.749,29.53-77.298,43.255-116.334c4.094-11.643,7.939-23.381,12.321-34.915c11.084-29.18,22.215-58.345,33.691-87.373
			c12.017-30.397,22.113-61.481,33.511-92.096c14.185-38.099,28.592-76.115,41.688-114.613
			c17.961-52.802,41.292-103.096,70.946-150.388c12.791-20.399,27.213-39.429,45.294-55.603
			c11.919-10.662,23.584-21.599,35.813-31.925c9.438-7.97,18.687-16.199,27.587-24.761c13.392-12.884,28.266-23.985,42.255-36.132
			c5.408-4.696,10.702-5.374,16.95-3.141c1.707,0.61,3.408,1.256,5.053,2.013c12.858,5.915,25.878,11.553,37.9,19.083
			c36.176,22.657,69.836,48.559,99.467,79.37c26.232,27.277,46.841,58.146,59.137,94.333
			c12.388,36.455,23.813,73.161,32.818,110.613c15.218,63.292,26.526,127.261,34.121,191.912
			c2.161,18.393,5.026,36.712,7.989,54.997c2.73,16.846,6.054,33.596,9.068,50.397c6.284,35.033,12.633,70.055,18.764,105.115
			c3.378,19.315,7.303,38.558,8.214,58.24c0.37,7.982,1.133,15.96,2.066,23.899c4.113,34.999,8.134,70.016,14.886,104.638
			c4.796,24.589,9.669,49.162,14.586,73.727c1.937,9.678,2.01,7.853-5.276,13.223c-1.168,0.861-2.402,1.634-3.593,2.466
			c-62.525,43.739-125.049,87.479-187.571,131.221c-39.597,27.703-79.185,55.418-118.8,83.095c-2.152,1.503-4.082,3.754-7.033,3.674
			c-0.838-2.93,0.163-4.901,0.895-6.894c4.383-11.926,8.708-23.874,13.208-35.755c13.627-35.98,27.257-71.96,39.078-108.588
			c9.259-28.691,16.259-58.017,24.29-87.053c15.584-56.34,31.283-112.626,41.498-170.305c6.863-38.752,11.815-77.589,11.203-117.003
			c-0.282-18.176-0.746-36.348-1.092-54.522c-0.18-9.451-0.401-18.904-0.392-28.355c0.01-10.22-1.73-20.274-2.537-30.414
			c-0.237-2.982,0.672-4.118,3.404-4.366c2.894-0.263,5.808-0.291,8.709-0.483c10.519-0.695,21.044-1.309,31.549-2.175
			c4.85-0.4,6.566-2.245,6.82-6.841c1.527-27.67,0.033-55.25-3.182-82.719c-3.136-26.796-10.534-52.644-18.488-78.34
			c-4.733-15.291-11.526-29.772-17.293-44.656c-1.109-2.862-3.536-3.898-6.116-3.344c-2.782,0.598-4.974,3.606-4.227,6.623
			c1.045,4.215,2.339,8.405,3.945,12.439c6.05,15.195,11.194,30.689,15.768,46.381c7.227,24.796,13.408,49.805,15.145,75.698
			c0.973,14.506,2.031,29.01,2.724,43.53c0.241,5.053-0.53,10.152-0.783,15.232c-0.131,2.645-1.596,3.91-4.079,4.115
			c-3.622,0.3-7.249,0.547-10.878,0.763c-16.692,0.994-33.39,1.887-50.077,2.969c-39.176,2.538-78.343,5.194-117.518,7.743
			c-33.371,2.171-66.748,4.267-100.123,6.384c-13.786,0.875-27.57,1.787-41.362,2.543c-6.147,0.337-6.231,0.207-8.334-5.953
			c-15.234-44.614-19.832-89.915-8.867-136.25c3.595-15.192,6.969-30.436,10.394-45.667c0.636-2.828,1.248-5.693,1.471-8.572
			c0.184-2.369-1.236-4.131-3.432-5.064c-2.148-0.913-5.378,0.218-6.428,2.643c-1.433,3.31-2.611,6.764-3.541,10.251
			c-2.807,10.523-5.569,21.063-8.111,31.652c-3.307,13.776-6.218,27.622-7.708,41.755c-2.342,22.213-1.375,44.251,2.264,66.263
			c2.913,17.619,7.487,34.773,13.463,51.565c3.385,9.51,5.435,10.933,15.092,10.361c15.602-0.924,31.192-2.065,46.785-3.141
			c10.817-0.746,21.633-1.484,32.432-1.366c0.938,3.505-0.613,6.131-1.41,8.76c-3.323,10.95-4.302,22.107-3.276,33.429
			c0.623,6.871,1.427,13.753,2.674,20.534c5.199,28.255,7.969,56.843,11.779,85.284c3.763,28.086,6.719,56.281,9.891,84.444
			c2.767,24.567,4.866,49.208,5.539,73.918c0.594,21.796,1.577,43.605,0.459,65.426c-0.225,4.398,2.534,7.592,5.931,7.704
			c2.91,0.096,5.863-2.589,6.525-6.244c0.386-2.133,0.468-4.338,0.51-6.514c0.104-5.452,0.157-10.906,0.144-16.36
			c-0.08-31.642-1.048-63.247-4.245-94.749c-2.128-20.967-4.202-41.939-6.498-62.888c-1.346-12.278-3.092-24.511-4.636-36.768
			c-2.634-20.907-5.112-41.836-7.922-62.72c-1.938-14.398-4.414-28.722-6.489-43.103c-2.26-15.658-1.929-31.16,3.372-46.295
			c1.846-5.271,1.782-5.291,7.691-5.717c7.251-0.523,14.496-1.133,21.752-1.578c28.663-1.757,57.332-3.409,85.991-5.209
			c16.324-1.025,32.633-2.298,48.954-3.379c6.843-0.453,13.697-1.032,20.807-0.656c2.295,7.456,2.359,14.706,2.529,21.912
			c0.651,27.624,1.178,55.251,1.819,82.875c0.685,29.495-0.341,58.94-4.739,88.108c-6.229,41.308-13.958,82.361-24.69,122.772
			c-10.156,38.242-20.915,76.325-30.912,114.608c-9.273,35.508-20.293,70.419-32.743,104.939
			c-15.021,41.647-31.462,82.76-45.234,124.886c-17.479,53.47-36.411,106.46-53.363,160.119
			c-20.135,63.735-43.329,126.35-70.602,187.415c-13.18,29.51-24.912,59.611-36.375,89.819c147.636,0,295.273,0,442.909,0
			c-0.333-2.876-0.425-5.804-1.037-8.619c-4.707-21.645-9.197-43.343-14.349-64.882c-18.251-76.309-38.93-151.92-65.37-225.872
			c-19.572-54.743-40.653-108.828-67.36-160.579c-7.308-14.161-14.201-28.536-22.458-42.65c3.513-2.572,6.661-4.966,9.898-7.231
			c73.835-51.673,147.681-103.329,221.521-154.995c3.572-2.499,7.237-4.89,10.626-7.62
			C1943.573,2117.862,1944.99,2114.427,1943.795,2109.926z M1354.095,899.104c11.113,15.756,23.168,30.722,36.191,44.969
			c20.364,22.278,44.365,39.588,70.963,53.522c2.569,1.346,5.166,2.651,7.816,3.823c1.883,0.832,3.533-0.203,3.888-2.391
			c0.349-2.147,0.667-4.321,0.716-6.49c0.106-4.72,0.033-9.445,0.033-14.168c-0.974-30.549-4.297-60.842-11.724-90.551
			c-4.487-17.948-9.377-35.801-14.39-53.61c-1.961-6.969-4.209-13.957-7.261-20.501c-13.653-29.275-27.289-58.576-44.632-85.945
			c-5.456-8.609-10.961-17.15-18.848-23.834c-0.798-0.676-1.429-1.651-1.865-2.612c-0.237-0.521-0.118-1.477,0.236-1.922
			c0.385-0.483,1.337-0.962,1.852-0.808c1.337,0.4,2.708,0.962,3.821,1.788c5.922,4.397,10.308,10.185,14.378,16.239
			c10.55,15.695,19.771,32.159,28.289,49.025c2.781,5.507,5.286,11.16,8.211,16.588c13.523,25.092,22.705,51.745,29.493,79.368
			c5.198,21.153,10.951,42.172,13.758,63.821c2.428,18.733,4.853,37.491,4.802,56.423c-0.017,6.513-0.73,13.059-1.59,19.527
			c-0.911,6.849-4.01,8.3-10.731,5.607c-1.011-0.405-2.041-0.778-3.01-1.267c-23.452-11.84-45.494-25.782-64.655-43.918
			c-17.748-16.799-33.34-35.451-47.176-55.581c-1.027-1.495-2.107-2.976-2.924-4.585c-0.63-1.241-1.156-2.644-0.03-4.022
			C1350.584,896.524,1352.703,897.129,1354.095,899.104z M1291.573,584.797c0.413-0.506,1.212-0.696,2.012-1.122
			c0.87,0.294,1.947,0.49,2.85,0.995c2.517,1.408,5.128,2.727,7.408,4.466c18.052,13.772,32.952,30.363,44.302,50.073
			c1.818,3.157,1.881,6.323,0.27,6.592c-2.699,0.449-3.942-1.623-4.992-3.419c-6.612-11.311-14.574-21.59-23.541-31.099
			c-7.955-8.437-16.092-16.684-26.449-22.288c-0.62-0.335-1.166-0.851-1.661-1.365
			C1290.941,586.767,1290.838,585.697,1291.573,584.797z M1315.911,877.405c-0.288,1.761-1.666,2.282-3.105,2.41
			c-1.884,0.167-3.24-1.628-2.909-3.557c0.284-1.655,1.353-2.55,2.925-2.569C1314.489,873.668,1316.129,875.795,1315.911,877.405z
			 M1285.812,907.4c6.344-2.833,12.034-6.722,17.259-11.295c1.907-1.669,3.773-3.388,5.746-4.975c0.896-0.72,2.02-0.635,2.972,0.05
			c1.052,0.757,1.032,1.913,0.629,2.917c-0.395,0.982-0.988,1.974-1.74,2.709c-8.141,7.956-17.207,14.427-28.207,17.967
			c-4.573,1.471-9.169,2.159-13.563,2.022c-9.907,0.307-18.128-3.155-25.452-8.977c-9.706-7.715-15.537-18.085-19.823-29.463
			c-0.238-0.632-0.336-1.564-0.036-2.095c0.486-0.861,1.261-1.666,2.108-2.167c0.379-0.224,1.548,0.152,1.81,0.586
			c1.297,2.153,2.593,4.342,3.552,6.657c2.245,5.42,5.257,10.356,8.901,14.92C1251.722,910.975,1268.581,915.097,1285.812,907.4z
			 M1250.683,746.479c0.953,1.066,1.832,2.272,2.427,3.56c0.434,0.939,0.343,2.193-0.856,2.729
			c-0.605,0.271-1.486,0.413-2.063,0.177c-3.146-1.287-4.99-4.114-7.209-6.459c-9.997-10.563-20.932-20.059-32.565-28.755
			c-11.572-8.649-24.518-13.815-38.974-15.077c-15.173-1.324-28.673,2.435-40.172,12.762c-4.084,3.668-7.509,4.653-7.888,2.817
			c-0.745-3.615,2.491-4.844,4.413-6.717c10.68-10.407,23.853-14.615,37.695-15.268c15.881,0.832,30.138,4.614,42.799,13.047
			C1224.047,719.79,1238.064,732.363,1250.683,746.479z M1077.51,610.474c-10.784,9.741-21.443,19.559-27.948,32.933
			c-0.44,0.905-1.34,1.688-2.208,2.243c-0.499,0.32-1.504,0.311-2.024,0.008c-0.53-0.308-1.073-1.181-1.031-1.765
			c0.102-1.399,0.366-2.843,0.882-4.143c1.89-4.761,4.764-8.942,8.006-12.869c9.516-11.525,20.36-21.664,32.545-30.288
			c15.184-10.745,32.546-15.449,51.356-17.711c0.837,0.322,2.21,0.711,3.429,1.38c0.53,0.291,1.068,1.192,1.01,1.755
			c-0.061,0.587-0.733,1.369-1.318,1.592c-1.314,0.502-2.724,0.872-4.123,1.014C1113.753,586.891,1094.201,595.398,1077.51,610.474z
			 M899.371,687.213c0.542-1.72,1.114-3.481,2.007-5.032c15.775-27.393,31.273-54.954,52.651-78.622
			c24.52-27.147,51.78-50.916,83.372-69.605c25.821-15.275,52.975-26.993,82.539-32.815c12.524-2.466,25.106-4.04,35.788-3.85
			c26.878-0.454,50.249,5.759,72.943,15.094c3.331,1.37,6.885,2.503,9.085,5.666c0.319,0.459,0.249,1.466-0.043,1.997
			c-0.298,0.542-1.065,1.087-1.676,1.15c-2.698,0.279-4.79-1.457-7.047-2.485c-15.978-7.276-32.785-11.658-50.032-14.509
			c-20.8-3.438-41.306-0.88-61.702,3.289c-21.14,4.321-41.163,11.968-60.135,22.011c-54.481,28.841-98.556,69.058-130.928,121.741
			c-7.411,12.061-14.514,24.311-21.765,36.47c-0.365,0.612-0.697,1.281-1.197,1.766c-0.806,0.783-1.863,1.2-2.91,0.587
			C899.267,689.448,899.037,688.275,899.371,687.213z M885.456,770.217c-0.472-0.323-0.881-1.205-0.801-1.768
			c0.146-1.03,0.468-2.157,1.073-2.982c4.719-6.443,9.466-12.867,14.31-19.217c15.8-20.714,37.171-26.521,61.944-22.865
			c10.542,1.556,20.383,5.291,29.282,11.126c8.492,5.568,16.846,11.37,25.013,17.405c9.945,7.349,20.115,14.257,31.335,19.557
			c7.285,3.441,14.821,5.932,22.857,6.648c8.748,0.78,16.483-1.713,23.096-7.58c4.277-3.795,6.504-8.625,7.395-14.175
			c0.249-1.552,1.11-2.659,2.699-2.944c1.39-0.25,2.586,1.897,2.441,4.167c-0.362,5.645-2.377,10.622-6.231,14.747
			c-6.452,6.905-14.269,11.029-23.879,11.457c-8.111,0.361-15.844-1.108-23.411-4.028c-13.324-5.141-25.359-12.482-36.69-21.047
			c-9.269-7.007-18.563-13.973-28.544-19.952c-11.789-7.063-24.497-10.824-39.262-10.349c-16.637-0.762-30.893,5.995-42.026,19.417
			c-4.865,5.864-9.362,12.032-14.113,17.992c-1.331,1.669-2.909,3.164-4.517,4.574C887.064,770.714,885.951,770.555,885.456,770.217
			z M1196.912,1658.838c-0.898,2.371-1.854,4.724-2.888,7.039c-8.042,18-13.25,36.846-15.987,56.305
			c-2.487,17.673-0.801,34.772,9.515,50.139c0.77,1.146,1.239,2.555,1.558,3.91c0.115,0.486-0.495,1.395-1.016,1.707
			c-0.521,0.312-1.605,0.421-1.989,0.091c-1.348-1.16-2.708-2.408-3.696-3.87c-8.224-12.164-10.964-25.878-11.19-40.28
			c1.297-21.927,6.531-42.958,14.547-63.33c2.242-5.698,4.229-11.572,8.067-16.49c0.692-0.887,1.961-0.92,2.873-0.179
			c0.49,0.398,0.922,1.206,0.905,1.815C1197.58,1656.752,1197.291,1657.839,1196.912,1658.838z M1198.57,1616.005
			c-0.557,1.252-1.732,1.289-2.726,1.185c-0.532-0.055-1.355-0.907-1.404-1.456c-0.486-5.417-0.668-10.865-1.255-16.27
			c-1.817-16.728-6.368-32.873-12.745-48.29c-11.936-28.853-25.046-57.173-42.161-83.477c-9.703-14.912-18.778-30.233-28.105-45.389
			c-3.622-5.885-6.743-12.024-9.203-18.499c-6.188-16.285-5.598-32.734-1.305-49.286c3.556-13.712,7.692-27.226,12.984-40.393
			c5.141-12.79,10.362-25.565,13.078-39.189c3-15.052,4.28-30.21,3.278-45.532c-0.695-10.623-3.821-20.67-7.607-30.529
			c-6.506-16.939-13.112-33.84-19.577-50.794c-1.283-3.363-2.193-6.877-3.118-10.363c-0.289-1.086,0.421-2.115,1.486-2.525
			c1.151-0.442,2.132,0.207,2.732,1.13c0.587,0.903,0.962,1.955,1.36,2.969c7.288,18.58,14.525,37.18,21.857,55.743
			c5.796,14.673,9.308,29.781,9.076,48.306c-0.909,18.113-3.678,38.528-11.414,58.05c-5.613,14.164-11.518,28.239-15.468,43.001
			c-1.688,6.309-3.382,12.631-4.68,19.027c-3.539,17.431-0.917,34.007,7.825,49.483c4.999,8.85,10.309,17.528,15.647,26.18
			c7.247,11.746,14.858,23.27,21.95,35.106c15.335,25.594,28.271,52.427,38.689,80.341c6.078,16.288,10.981,33.11,11.701,50.761
			C1199.612,1608.905,1200.114,1612.533,1198.57,1616.005z M1211.656,1338.047c-0.635-0.883-1.292-1.76-2.026-2.559
			c-14.643-15.937-19.24-35.299-19.202-59.877c0.501-4.332,1.394-12.252,2.353-20.165c0.168-1.391,2.388-2.896,3.079-2.193
			c0.68,0.692,1.355,1.634,1.499,2.549c0.22,1.403,0.028,2.881-0.068,4.323c-0.217,3.259-0.56,6.511-0.714,9.773
			c-0.495,10.533-0.241,20.975,1.889,31.408c1.86,9.11,5.47,17.218,11.086,24.522c3.538,4.602,7.271,9.066,10.605,13.811
			c6.899,9.816,12.989,20.084,16.569,31.665c1.085,3.512,2.192,6.998,0.475,10.537c-0.393,0.811-1.656,1.716-2.462,1.666
			c-0.81-0.051-2.162-1.184-2.229-1.937C1230.973,1364.446,1221.192,1351.309,1211.656,1338.047z M1330,1382.295
			c-0.171,0.701-0.424,1.393-0.727,2.049c-16.163,35.01-27.456,71.813-39.707,108.252c-12.259,36.46-25.981,72.379-39.202,108.487
			c-7.101,19.393-14.595,38.71-18.954,59.006c-0.321,1.493-0.976,2.741-2.822,2.611c-2.001-0.141-1.864-1.758-2.259-3.866
			c0.744-3.195,1.49-7.116,2.573-10.941c6.135-21.657,13.524-42.898,21.644-63.881c17.552-45.351,32.99-91.444,48.483-137.52
			c6.592-19.604,13.656-39.038,22.079-57.947c1.327-2.979,2.845-5.875,4.325-8.783c0.69-1.356,1.868-2.654,3.369-2.065
			C1330.904,1378.519,1330.427,1380.545,1330,1382.295z M1272.032,1325.273c-1.845-19.384-7.441-37.676-16.939-54.731
			c-0.699-1.255-1.413-2.592-1.667-3.974c-0.168-0.915,0.166-2.447,0.818-2.877c1.296-0.852,2.772-0.352,3.617,1.07
			c8.027,13.505,14.358,27.731,17.362,43.218c2.84,14.643,4.385,29.449,4.38,45.973c0.318,7.895-0.346,17.313-2.067,26.627
			c-0.654,3.541-1.822,6.995-2.887,10.448c-0.345,1.119-1.444,1.457-2.608,1.388c-1.328-0.078-2.044-1.048-1.981-2.091
			c0.131-2.16,0.544-4.315,0.974-6.445C1274.965,1364.404,1273.894,1344.827,1272.032,1325.273z M1370.105,1258.422
			c-0.484,0.419-1.518,0.826-1.935,0.586c-1.551-0.895-3.162-1.859-4.365-3.154c-5.927-6.38-11.984-12.666-17.529-19.37
			c-15.281-18.475-29.118-38.041-42.896-57.644c-6.052-8.61-12.15-17.19-18.379-25.672c-4.098-5.581-8.84-10.565-14.637-14.489
			c-10.114-6.844-20.7-8.224-31.945-3.063c-8.266,3.793-15.978,8.527-23.537,13.558c-8.485,5.647-17.347,10.578-27.445,12.781
			c-2.817,0.615-5.677,1.029-7.101,1.282c-3.62-0.217-5.92,0.165-7.578-1.67c-0.423-0.468-0.763-1.259-0.698-1.853
			c0.069-0.62,0.548-1.372,1.076-1.714c0.549-0.356,1.391-0.461,2.071-0.383c8.3,0.952,15.826-1.661,22.953-5.383
			c5.772-3.015,11.308-6.51,16.798-10.026c7.342-4.702,14.873-8.971,22.875-12.493c11.241-4.947,21.868-3.666,32.33,2.128
			c6.459,3.577,11.865,8.382,16.396,14.121c4.496,5.694,8.763,11.572,13.01,17.456c12.532,17.364,24.872,34.867,37.545,52.127
			c9.242,12.588,19.126,24.68,30.013,35.915c1.488,1.535,3.365,2.857,3.755,5.147
			C1370.978,1257.172,1370.564,1258.025,1370.105,1258.422z M1560.785,1125.971c-2.233,2.379-4.526,4.738-7.035,6.814
			c-19.054,15.769-37.532,32.17-55.443,49.234c-13.7,13.052-28.564,24.75-43.757,36.02c-0.584,0.433-1.146,0.898-1.741,1.314
			c-6.955,4.851-8.279,4.547-14.814-1.496c-11.24-10.392-21.361-21.739-30.912-33.702c-12.023-15.059-24.876-29.428-38.372-43.206
			c-18.572-18.96-36.997-38.065-55.721-56.873c-7.944-7.979-16.34-15.527-24.8-22.966c-8.678-7.63-18.774-8.696-29.568-5.315
			c-4.226,1.324-7.861,3.73-11.481,6.148c-6.979,4.661-13.203,10.246-19.256,16.025c-7.367,7.032-15.06,13.669-23.008,20.052
			c-15.232,12.233-32.441,20.274-50.867,26.525c-13.753,4.666-25.679,2.149-37.199-5.387c-3.33-2.178-6.425-4.765-9.413-7.407
			c-15.717-13.896-33.066-24.69-53.65-30.019c-10.173-2.634-20.136-6.22-29.327-11.487c-4.715-2.701-9.347-5.612-13.717-8.835
			c-7.355-5.425-11.638-12.901-12.994-21.915c-0.755-5.024-1.427-10.108-1.521-15.177c-0.397-21.483-9.838-39.129-23.083-55.169
			c-3.002-3.636-6.386-6.973-9.74-10.3c-9.95-9.868-16.83-21.806-23.276-34.06c-1.185-2.253-1.074-4.065,1.056-5.67
			c19.295-14.533,40.312-21.282,64.388-14.333c1.387,0.4,2.789,0.827,4.213,1.01c2.776,0.356,5.48-1.15,6.137-3.451
			c0.761-2.667,0.147-5.066-2.046-6.865c-3.482-2.856-7.665-4.207-11.997-4.819c-18.887-2.666-36.996-0.634-53.571,9.601
			c-4.926,3.042-9.676,6.367-14.87,9.802c-2.907-4.621-5.614-9.32-8.703-13.754c-6.854-9.839-13.921-19.53-20.855-29.314
			c-2.309-3.257-4.42-6.655-6.719-9.919c-9.01-12.791-10.021-26.885-6.826-41.657c2.086-9.645,5.671-18.703,10.34-27.414
			c4.94-9.217,12.373-16.077,20.355-22.399c7.625-6.04,16.605-7.031,25.868-5.361c5.34,0.963,10.526,2.589,15.511,4.947
			c9.917,4.689,18.97,10.677,27.653,17.309c6.063,4.631,12.116,9.288,18.352,13.679c22.122,15.576,46.759,23.145,73.799,22.028
			c15.237-0.63,30.479-1.616,45.609-3.804c4.386-0.634,8.47-1.979,12.367-3.995c9.271-4.798,12.552-11.339,10.17-21.494
			c-1.092-4.654-1.807-9.265-1.688-14.008c0.41-16.391,10.458-26.051,27.01-26.285c5.931-0.084,11.678,0.953,17.076,3.032
			c26.505,10.212,45.085,28.591,55.51,55.056c2.556,6.488,3.564,13.317,3.34,20.306c-2.116,3.787-6.071,5.073-9.614,6.718
			c-16.521,7.671-26.215,20.002-27.123,38.611c-0.984,20.14,9.554,34.063,25.681,43.457c21.902,12.757,44.197,11.914,65.601-2.309
			c3.859-2.565,7.161-6.267,12.33-6.277c22.809,41.532,54.054,75.475,92.823,102.505c12.194,8.502,25.506,15.142,38.658,22.104
			c12.802,6.778,26.14,10.611,40.139,12.931c3.413,0.566,5.918,1.823,8.214,4.516c19.575,22.961,39.297,45.797,58.979,68.667
			c1.184,1.376,2.453,2.68,3.604,4.083C1561.923,1123.318,1561.841,1124.846,1560.785,1125.971z"/>
		<path style="fill:#030202;" d="M1165.758,1047.503c-2.588-0.001-5.048,0.51-7.337,1.732c-4.147,2.214-8.445,4.198-12.393,6.726
			c-7.649,4.899-15.416,9.522-23.893,12.862c-1.335,0.526-2.733,1.048-3.869,1.887c-1.919,1.418-2.663,3.538-1.905,5.789
			c0.731,2.172,2.373,3.578,4.816,3.781c2.235,0.186,4.296-0.396,6.319-1.285c5.626-2.473,11.27-4.907,16.907-7.357
			c0.191-0.232,0.403-0.412,0.625-0.563c4.616-4.13,7.594-5.54,15.862-9.079c-4.002,6.159-7.067,9.646-11.678,11.619
			c-5.632,5.224-12.435,8.715-18.885,12.723c-2.458,1.527-5.088,2.798-7.45,4.455c-2.691,1.889-3.531,5.079-2.36,7.619
			c1.164,2.526,4.376,3.885,7.371,2.957c1.725-0.535,3.457-1.175,5.035-2.042c10.185-5.599,20.077-11.654,28.924-19.263
			c3.87-3.329,7.294-7.069,10.134-11.325c1.827-2.738,3.271-5.652,3.921-8.905
			C1177.237,1053.152,1172.574,1047.505,1165.758,1047.503z"/>
		<path style="fill:#D42488;" d="M1308.041,839.621c-14.311-11.268-30.745-15.681-48.912-13.252
			c-2.504,0.335-5.04,0.438-7.561,0.649c-5.238,1.547-10.24,3.627-15.021,6.293c-28.117,15.685-33.542,50.486-11.622,74.14
			c21.401,23.095,61.148,27.548,86.87,5.384c2.198-1.894,4.431-3.748,6.648-5.62c1.605-2.83,3.331-5.599,4.789-8.502
			c2.621-5.219,4.268-10.704,4.625-16.612C1328.932,864.322,1321.652,850.337,1308.041,839.621z M1312.417,894.096
			c-0.395,0.982-0.988,1.974-1.74,2.709c-8.141,7.956-17.207,14.427-28.207,17.967c-4.573,1.471-9.169,2.159-13.563,2.022
			c-9.907,0.307-18.128-3.155-25.452-8.977c-9.706-7.715-15.537-18.085-19.823-29.463c-0.238-0.632-0.336-1.564-0.036-2.095
			c0.486-0.861,1.261-1.666,2.108-2.167c0.379-0.224,1.548,0.152,1.81,0.586c1.297,2.153,2.593,4.342,3.552,6.657
			c2.245,5.42,5.257,10.356,8.901,14.92c11.755,14.721,28.613,18.843,45.844,11.146c6.344-2.833,12.034-6.722,17.259-11.295
			c1.907-1.669,3.773-3.388,5.746-4.975c0.896-0.72,2.02-0.635,2.972,0.05C1312.841,891.937,1312.82,893.093,1312.417,894.096z
			 M1312.806,879.815c-1.884,0.167-3.24-1.628-2.909-3.557c0.284-1.655,1.353-2.55,2.925-2.569c1.668-0.021,3.308,2.107,3.09,3.717
			C1315.623,879.167,1314.245,879.688,1312.806,879.815z"/>
		<path style="fill:#050404;" d="M1018.154,951.467c-9.912,0.004-17.9,7.977-17.894,17.862
			c0.006,10.646,10.361,20.325,21.452,20.052c9.29-0.229,16.219-8.287,15.771-18.342
			C1037.007,960.351,1028.229,951.463,1018.154,951.467z M1017.907,978.089c-0.65,1.504-2.154,1.998-3.599,1.315
			c-4.219-1.992-6.624-5.415-6.982-10.063c-0.128-1.658,1.347-2.36,2.747-2.808C1015.483,966.594,1020.012,973.221,1017.907,978.089
			z M1026.583,973.204c-0.35,0.944-0.863,1.993-1.973,1.246c-0.67-0.451-0.895-1.562-1.32-2.376c0.6-0.242,1.205-0.693,1.8-0.682
			C1026.141,971.411,1026.994,971.866,1026.583,973.204z"/>
	</g>
</g>
</svg>
