<?xml version="1.0" encoding="iso-8859-1"?>
<!-- Generator: Adobe Illustrator 23.0.2, SVG Export Plug-In . SVG Version: 6.00 Build 0)  -->
<svg version="1.1" xmlns="http://www.w3.org/2000/svg" xmlns:xlink="http://www.w3.org/1999/xlink" x="0px" y="0px"
	 viewBox="0 0 2793 2793" style="enable-background:new 0 0 2793 2793;" xml:space="preserve">
<g id="Background_xA0_Image_1_">
</g>
<g id="Layer_2_xA0_Image_1_">
</g>
<g id="Layer_3_xA0_Image_1_">
</g>
<g id="Layer_5_xA0_Image_1_">
</g>
<g id="Layer_8_xA0_Image_1_">
</g>
<g id="Layer_10_xA0_Image_1_">
</g>
<g id="Layer_12_xA0_Image_1_">
</g>
<g id="Layer_15_xA0_Image_1_">
	<g>
		<path d="M1917.176,1708.379c-0.06-7.615-0.448-15.303-1.603-22.818c-3.474-22.616-7.491-45.147-11.117-67.74
			c-3.453-21.518-6.771-43.059-9.978-64.615c-2.406-16.17-4.397-32.402-6.829-48.568c-4.863-32.326-9.787-64.644-14.907-96.93
			c-3.925-24.748-8.039-49.468-12.354-74.151c-3.001-17.167-6.377-34.272-9.787-51.365c-3.266-16.371-6.367-32.76-10.291-49.019
			c-7.397-30.656-21.537-57.646-41.214-82.026c-8.081-10.012-17.062-18.88-28.739-24.599c-2.38-1.166-4.158-2.701-5.724-4.806
			c-5.242-7.044-9.406-14.511-12.046-23.012c-6.478-20.861-10.865-42.186-14.811-63.608c-6.184-33.57-12.137-67.179-18.923-100.641
			c-8.373-41.287-16.055-82.708-22.863-124.29c-5.641-34.459-13.504-68.356-26.009-101.085
			c-10.362-27.121-19.971-54.53-32.577-80.749c-11.167-23.225-26.74-43.168-45.02-61.121c-6.515-6.399-13.953-11.652-21.801-16.263
			c-16.065-9.438-33.174-16.416-51.344-20.561c-31.317-7.144-63.238-9.15-95.195-10.557c-14.687-0.647-28.847,3.094-42.991,6.387
			c-57.371,13.358-108.205,39.312-152.065,78.833c-25.318,22.813-47.425,48.41-64.047,78.072
			c-17.793,31.751-31.527,65.373-39.338,101.161c-5.867,26.882-7.332,53.927-3.71,81.25c2.697,20.345,9.417,39.503,16.908,58.425
			c6.028,15.226,13.737,29.627,22.276,43.599c13.264,21.703,25.879,43.747,36.039,67.136c7.532,17.339,14.593,34.83,18.975,53.263
			c6.218,26.152,5.633,52.685,3.553,79.192c-1.733,22.088-5.153,44.083-2.844,66.325c0.369,3.556-1.219,6.305-2.692,9.215
			c-4.945,9.767-8.695,19.953-10.786,30.73c-2.294,11.821-3.095,23.757-3.189,35.782c-0.134,17.145,1.866,34.11,4.284,51.017
			c0.782,5.472-0.254,9.529-3.769,13.937c-16.784,21.044-31.466,43.589-45.991,66.219c-3.917,6.103-7.518,12.446-10.794,18.916
			c-13.598,26.859-16.144,54.659-6.948,83.499c3.886,12.187,9.455,23.55,15.464,34.767c5.656,10.559,11.332,21.119,16.581,31.883
			c7.821,16.039,13.619,32.841,17.733,50.213c0.875,3.694,1.953,7.396,1.146,11.218c-0.991,0-1.529,0.158-1.693-0.022
			c-12.479-13.741-26.064-26.377-39.505-39.133c-43.207-41.004-79.222-87.989-113.803-136.177c-3.162-4.406-6.057-9.12-8.307-14.042
			c-4.958-10.844-5.92-21.655,2.017-31.827c1.783-2.286,3.234-4.828,4.885-7.22c16.339-23.675,30.342-48.681,42.5-74.73
			c4.484-9.607,7.1-19.823,8.987-30.189c1.041-5.716,1.227-11.566-0.923-17.216c-5.001-13.143-18.449-16.651-28.915-7.402
			c-2.155,1.905-4.063,4.188-5.695,6.564c-2.669,3.885-5.185,7.897-7.472,12.018c-6.174,11.123-12.97,21.851-20.104,32.374
			c-3.568,0.188-3.568,0.188-2.468-4.741c4.563-24.592,8.241-49.293,10.099-74.264c1.188-15.976,0.833-31.877-0.898-47.765
			c-0.768-7.047-3.516-13.308-8.697-18.268c-5.977-5.722-13.604-5.785-19.312,0.142c-2.727,2.831-4.691,6.398-7,9.631
			c-1.074,0.86-1.812,1.975-2.424,3.186c-0.843-1.129-0.156-2.51-0.651-3.747c-0.491-1.227-0.327-2.684-1.154-3.838
			c-0.952-4.616-1.471-9.378-2.968-13.81c-1.82-5.386-5.348-9.513-11.544-10.251c-6.522-0.778-11.288,2.032-14.523,7.521
			c-1.826,3.098-3.346,6.377-5.051,9.666c-2.868-3.7-2.518-8.335-4.339-12.227c-2.923-6.247-6.902-11.169-14.319-11.876
			c-7.915-0.754-13.044,3.591-16.838,9.828c-2.458,4.039-4.165,8.446-5.017,13.165c-0.429,2.38-0.44,5.032-2.883,6.694
			c-1.569-2.015-2.945-4.169-4.694-5.96c-7.985-8.176-19.465-6.185-23.933,4.282c-1.551,3.634-2.414,7.599-3.283,11.481
			c-2.324,10.379-2.281,20.959-1.923,31.485c1.125,33.051,3.218,65.987,8.336,98.756c4.624,29.605,12.495,58.172,23.57,85.889
			c8.825,22.087,21.501,41.997,36.451,60.416c8.469,10.434,17.595,20.331,26.184,30.672c22.082,26.587,42.401,54.505,60.838,83.709
			c29.855,47.291,58.469,95.349,86.415,143.791c19.411,33.647,37.642,67.972,57.954,101.102c4.744,7.737,9.721,15.336,14.758,22.886
			c2.496,3.742,3.92,7.601,3.902,12.184c-0.015,3.944-0.646,8.256,1.708,11.705c2.99,4.381,3.151,8.62,1.096,13.302
			c-0.566,1.289-0.53,2.844-0.753,4.279c-3.855,24.767-9.064,49.271-14.306,73.769c-9.041,42.249-18.304,84.461-23.848,127.359
			c-2.375,18.379-4.413,36.815-5.03,55.347c-1.815,54.494-2.81,109.007-3.228,163.531c-0.226,29.449-0.149,58.896,1.486,88.3
			c2.301,41.362,5.115,82.696,7.497,124.053c2.174,37.734,5.26,75.39,8.692,113.027c3.498,38.361,8.066,76.584,13.592,114.699
			c3.636,0,7.273,0,10.909,0c-3.996-4.526-3.031-10.333-3.804-15.605c-6.587-44.933-10.847-90.111-14.737-135.352
			c-4.82-56.063-6.914-112.29-11.057-168.376c-4.022-54.43-5.554-108.928-3.486-163.334c1.753-46.088,0.236-92.27,4.078-138.265
			c4.001-47.901,12.867-95.061,23.081-141.952c6.733-30.91,13.409-61.808,18.167-93.098c1.658-10.903,5.43-14.129,16.202-12.413
			c39.531,6.298,78.938,2.272,118.422-0.425c51.189-3.497,101.909-10.442,152.294-19.873c28.219-5.282,56.517-10.561,83.498-20.756
			c9.806-3.705,16.089-1.275,22.348,6.973c20.642,27.202,35.608,57.33,48.119,88.884c3.386,8.54,2.383,15.79-2.603,23.603
			c-16.031,25.123-33.111,49.59-47.829,75.542c-4.272,7.533-10.115,10.775-19.004,8.691c-9.32-2.184-18.725-3.194-21.135-15.287
			c-2.317-11.627-3.892-23.459-7.476-35.733c-8.008,18.801,21.713,128.771,48.851,183.388
			c30.257,60.893,81.99,130.734,102.141,135.79c-7.553-11.471-16.897-19.542-24.723-28.745
			c-18.653-21.937-35.675-44.994-50.723-69.512c-4.687-7.638-6.344-11.178-4.997-14.838c-0.036-0.067-0.074-0.133-0.11-0.2
			c0.097-0.073,0.187-0.148,0.282-0.222c1.158-2.698,3.931-5.548,8.318-10.219c21.779-23.182,34.615-51.077,30.806-83.114
			c-2.805-23.596,10.379-38.361,22.646-54.238c4.239-5.487,9.352-3.265,12.567,5.205c5.289,13.93,10.147,28.026,15.631,41.886
			c24.13,60.982,41.175,124.152,58.061,187.382c24.949,93.424,48.344,187.236,70.798,281.288
			c13.593,56.935,24.646,114.419,37.419,171.53c0.881,3.938,1.735,7.9-1.317,11.396c4.364,0,8.728,0,13.091,0
			c-2.164-9.929-4.356-19.851-6.488-29.787c-7.92-36.922-15.529-73.914-23.814-110.753c-7.726-34.354-16.245-68.53-24.271-102.818
			c-22.013-94.04-46.95-187.329-72.28-280.51c-10.664-39.228-22.323-78.188-37.03-116.152
			c-8.914-23.012-17.694-46.077-26.795-69.015c-1.402-3.532-1.223-6.231,0.931-9.069c0.879-1.158,1.763-2.312,2.629-3.48
			c20.135-27.145,40.303-54.265,60.392-81.444c16.864-22.816,34.573-44.908,53.799-65.816
			c33.298-36.211,62.573-75.529,88.97-117.013c6.134-9.64,10.077-20.142,11.934-31.344c1.484-8.952,2.672-17.961,2.701-27.095
			C1916.754,1735.26,1917.282,1721.818,1917.176,1708.379z M1611.734,681.077c0.522-0.208,1.639,0.045,1.933,0.479
			c1.202,1.776,2.444,3.6,3.212,5.584c4.706,12.146,9.734,24.192,13.807,36.552c6.348,19.262,10.765,39.072,15.258,58.84
			c0.233,1.024,0.009,2.152-0.001,3.231c1.803,3.977,2.483,8.192,2.659,12.514c0,0,0,0.001,0,0.001
			c1.568,1.335,1.738,3.073,1.423,4.95h0c0,0,0,0,0,0c0.844,5.082,3.157,9.928,2.45,15.26c0,0,0,0,0,0c0,0,0,0,0,0
			c0.137,1.243,0.275,2.487,0.412,3.73c0,0,0,0,0,0c0,0,0,0,0,0c2.599,7.141,3.667,14.574,4.229,22.104v0
			c1.524,2.061,1.967,4.374,1.608,6.875c0.945,5.08,2.843,10.009,2.421,15.305c0.903,3.596,2.323,7.099,1.963,10.922c0,0,0,0,0,0
			c0.263,1.901,0.527,3.803,0.791,5.705c0,0,0,0,0,0c2.396,7.812,4.026,15.758,4.189,23.96c0.001,0.002,0.001,0.005,0.002,0.007
			c2,4.155,2.282,8.599,2.184,13.105c0.001,0.002,0.002,0.005,0.003,0.008c1.194,2.281,1.888,4.666,1.507,7.275c0,0,0,0,0,0
			c0.081,0.754,0.163,1.508,0.244,2.262c1.243,4.81,2.802,9.562,2.652,14.624c0,0.001,0.001,0.002,0.001,0.003
			c1.57,2.161,2.127,4.566,1.735,7.201c1.019,3.575,2.856,6.978,2.279,10.887c1.736,3.251,2.562,6.722,2.51,10.404
			c0.529,0.928,1.314,1.796,1.549,2.793c5.851,24.813,15.164,48.331,26.439,71.125c0.314,0.634,0.382,1.39,0.564,2.089c0,0,0,0,0,0
			c0,0,0,0,0,0c2.749,2.518,3.953,5.973,5.491,9.207c0.453,0.952,0.475,2.362-0.671,2.787c-0.816,0.303-2.345,0.129-2.861-0.45
			c-2.161-2.429-3.792-5.234-4.567-8.455c-8.657-14.232-14.344-29.788-20.037-45.324c-3.456-9.433-6.824-18.922-8.114-28.975
			c-1.433-3.399-2.768-6.821-2.53-10.618c-2.034-2.528-2.352-5.504-2.244-8.591c0,0,0,0,0,0c-2.061-3.123-2.332-6.673-2.443-10.261
			c0,0,0-0.001,0-0.001c-1.377-1.549-1.758-3.357-1.397-5.359c-0.229-1.784-0.459-3.568-0.688-5.353c0-0.001,0-0.003-0.001-0.004
			c-1.708-2.334-1.948-4.987-1.674-7.752c-0.137-1.177-0.274-2.353-0.411-3.53c-0.001-0.002-0.001-0.003-0.001-0.005
			c-1.517-3.013-2.135-6.194-1.772-9.557v0c-0.664-1.673-1.087-3.367-0.44-5.152c-0.001-0.002-0.001-0.004-0.002-0.006
			c-1.871-2.35-1.96-5.092-1.73-7.904c-0.893-4.359-2.68-8.568-2.211-13.156c0,0,0,0,0,0c-0.155-1.21-0.309-2.419-0.463-3.629
			c-2.174-4.036-2.173-8.467-2.33-12.868c-2.187-7.429-3.766-14.961-3.819-22.748c-0.46-0.564-0.548-1.18-0.261-1.849
			c-0.001-0.001-0.001-0.003-0.002-0.004c-0.124-0.182-0.229-0.367-0.322-0.555c-1.515-2.632-1.915-5.483-1.46-8.503
			c-1.297-4.98-2.742-9.935-2.626-15.161c0,0,0,0,0,0c-2.646-6.342-3.409-13.053-3.891-19.82c0,0,0,0,0,0
			c-0.208-1.253-0.415-2.505-0.623-3.758v0c-1.87-2.064-2.119-4.495-1.612-7.099c-0.15-1.295-0.301-2.591-0.452-3.886c0,0,0,0,0,0
			c0,0,0,0,0,0c-2.102-2.571-2.073-5.656-2.109-8.726c-0.101-0.141-0.187-0.286-0.264-0.433c-1.217-2.005-1.843-4.159-1.485-6.558
			c-2.213-8.398-4.583-16.759-6.607-25.203c-4.991-20.828-12.123-40.93-20.187-60.731c-0.813-1.997-1.554-4.035-2.128-6.109
			C1610.685,682.296,1611.255,681.267,1611.734,681.077z M1599.736,1040.377c1.555-1.006,2.673,0.014,3.554,1.156
			c5.508,7.144,12.38,12.918,18.962,18.984c1.265,0.161,2.131,0.854,2.673,1.984c0.74-0.1,1.264,0.19,1.57,0.871
			c0.748,0.412,1.432,0.913,2.06,1.491l0.153,0.083c1.301,0.06,2.243,0.659,2.789,1.853c13.202,6.839,26.8,12.781,40.738,17.953
			c1.955-0.192,3.677,0.282,5.042,1.769c0.588-0.307,1.07-0.187,1.445,0.36c0,0,0,0,0,0c0,0,0,0,0,0
			c8.812,2.336,17.625,4.672,26.437,7.008c1.771-0.381,3.238,0.267,4.583,1.335c1.294,0.268,2.589,0.537,3.883,0.805c0,0,0,0,0,0
			c0,0,0,0,0,0l0,0c0,0,0,0,0,0c2.305,1.538,2.304,1.963-0.007,3.328c0,0,0,0,0,0s0,0,0,0c-0.77,0.059-1.54,0.119-2.309,0.178
			c0,0,0,0,0,0c-2.404,0.562-4.535-0.053-6.482-1.48c-10.528-1.667-20.732-4.462-30.51-8.745
			c-16.476-3.982-31.84-10.523-45.95-19.953c-1.901-0.158-3.088-1.472-4.344-2.675c-0.635-0.431-1.25-0.891-1.842-1.38
			c-9.18-5.312-16.125-12.988-22.462-21.293C1598.863,1042.884,1597.995,1041.503,1599.736,1040.377z M1303.271,585.116
			c0.001,0.001,0.003,0.001,0.004,0.002c0-0.001-0.001-0.002-0.001-0.003c1.393-0.943,2.58-2.3,4.471-2.262
			c13.811-9.293,29.204-15.165,44.748-20.719c11.513-4.114,23.355-7.012,35.296-9.523c1.716-0.361,3.554-0.138,5.336-0.185
			c0.988-0.105,1.975-0.209,2.961-0.314c0.001,0,0.002-0.001,0.003-0.001c2.296-2.011,5.032-1.986,7.829-1.677c0,0,0,0.001,0,0.002
			c0-0.001,0-0.001,0-0.002c2.118-0.227,4.235-0.454,6.353-0.681c2.618-1.555,5.436-1.835,8.378-1.348
			c4.567-0.299,9.135-0.598,13.702-0.898c12.284-2.013,24.562-2.188,36.843-0.048c4.587,0.364,9.173,0.728,13.759,1.092c0,0,0,0,0,0
			c2.255-0.537,4.317-0.135,6.191,1.22c2.207,0.278,4.414,0.556,6.622,0.834c0,0,0,0,0,0c1.687-0.364,3.179-0.109,4.303,1.331
			l-0.01-0.047c0.001,0.002,0.003,0.003,0.005,0.005c-0.001-0.002-0.002-0.003-0.004-0.005c3.393-0.003,6.757,0.112,9.583,2.389
			c5.176,0.076,9.712,2.124,14.115,4.582c0.001,0.001,0.002,0.001,0.003,0.002c0-0.001-0.001-0.001-0.001-0.002
			c1.87-0.159,3.341,0.582,4.506,2.008l0.058,0.015c0,0,0,0,0,0c0,0,0,0,0,0c1.825-0.062,3.357,0.482,4.375,2.092
			c0-0.001,0-0.001-0.001-0.002c1.841-0.022,3.407,0.509,4.394,2.198l0.051-0.015c0,0,0,0,0,0c0,0,0.001,0,0.001,0
			c1.813,0.009,3.247,0.707,4.196,2.292l0.069,0.038c0,0,0,0,0,0c0,0,0,0,0,0c1.482,0.017,2.585,0.649,3.248,1.997
			c19.228,10.658,35.222,24.96,48.141,42.724c0.417,0.573,0.873,1.241,0.948,1.906c0.074,0.648-0.253,1.376-0.522,2.02
			c-0.303,0.728-0.984,0.862-1.752,0.332c-0.876-0.604-1.89-1.151-2.5-1.977c-13.994-18.935-32.332-32.846-52.067-45.152
			c-15.468-7.276-31.374-13.161-48.432-15.48c-0.993-0.135-1.894-0.952-2.838-1.452c-1.688,0.672-3.326,0.287-4.958-0.234
			c-0.003-0.002-0.006-0.003-0.009-0.005c0.001,0.002,0.003,0.003,0.004,0.004c-1.534-0.041-3.073-0.082-4.612-0.124
			c-10.49-0.169-20.979-0.448-31.47-0.47c-7.226-0.015-14.452,0.327-21.679,0.51c-2.368,0.094-4.736,0.189-7.103,0.284
			c-0.002,0.001-0.004,0.001-0.006,0.002c-3.735,1.941-7.717,2.33-11.833,1.872c-2.162,0.262-4.324,0.524-6.486,0.786
			c-3.414,2.503-7.608,1.855-11.412,2.666c-25.139,5.358-49.051,14.013-71.807,25.929c-1.253,0.656-2.619,1.097-3.932,1.637
			c-0.809,1.578-2.279,2.103-3.873,2.428c-0.446,0.51-0.794,1.235-1.355,1.49c-1.775,0.805-4.165,2.866-5.455,0.568
			C1297.917,586.656,1300.947,585.839,1303.271,585.116z M1312.938,1141.887c-5.208,3.239-10.425,6.463-15.621,9.721
			c-6.466,4.054-12.789,8.307-18.382,13.55c-0.79,0.741-1.528,1.636-2.469,2.088c-0.846,0.407-2.098,0.677-2.886,0.34
			c-1.316-0.562-0.806-2.011-0.272-2.814c0.991-1.492,2.161-2.944,3.523-4.098c9.143-7.747,18.826-14.689,29.9-19.484
			c0.001,0,0.002-0.001,0.003-0.001c0,0,0,0-0.001,0c2.651-2.762,6.109-4.052,9.617-5.25c7.355-4.108,14.71-8.216,22.064-12.324
			c0.317-0.922,0.878-1.497,1.931-1.388c1.481-0.968,2.962-1.936,4.443-2.904c2.374-2.199,4.707-4.445,7.128-6.591
			c20.517-18.183,28.652-41.131,26.337-68.143c-0.37-4.315-0.566-8.647-0.721-12.976c-0.016-0.434,0.788-1.23,1.255-1.264
			c0.587-0.043,1.358,0.397,1.792,0.867c0.459,0.496,0.783,1.248,0.88,1.93c1.954,13.71,2.257,27.377-0.489,41.064
			c-2.887,14.391-10.609,26.009-20.337,36.508c-3.918,4.229-7.94,8.418-13.103,11.232c0,0-0.001,0-0.002,0.001
			c-0.449,1.162-1.223,1.896-2.532,1.929l-0.198,0.132c-0.362,0.953-0.987,1.553-2.067,1.541c-0.312,0.654-0.826,0.929-1.543,0.825
			c-0.606,1.216-1.562,1.879-2.945,1.867c-6.694,4.672-13.671,8.825-21.376,11.64c-0.842,1.582-2.354,1.846-3.926,1.998
			c-0.001,0-0.002,0-0.004,0C1312.937,1141.886,1312.938,1141.886,1312.938,1141.887z M1370.202,1008.502
			c-13.04,6.065-26.809,8.918-41.107,9.274c-4.338,0.108-8.729-0.147-13.03-0.724c-7.36-0.987-13.978-3.957-19.385-9.098
			c-16.977-16.141-28.576-35.507-34.549-58.21c-2.961-11.252-2.258-22.219,1.672-33.172c2.095-5.838,4.752-11.371,7.507-16.88
			c8.181-16.36,9.604-33.259,4.256-50.742c-0.212-0.693-0.252-1.45-0.528-2.111c-5.546-13.291-3.722-26.24,1.684-39.069
			c2.112-5.013,4.001-10.097,5.054-15.488c1.032-5.28,1.392-5.482,6.326-4.561c36.36,6.79,72.751,13.482,108.207,24.27
			c7.959,2.422,15.924,5.072,23.485,8.501c11.331,5.139,21.732,11.736,28.063,23.126c2.854,5.133,8.53,4.502,11.53,0.213
			c1.031-1.473,1.734-3.172,2.654-4.728c1.104-1.868,2.088-3.853,3.461-5.508c4.481-5.399,9.956-5.823,15.128-1.291
			c2.767,2.424,4.835,5.388,6.426,8.702c7.085,14.753,8.173,29.963,3.174,45.513c-1.682,5.232-4.3,10.026-9.442,12.834
			c-3.141,2.614-7.171,2.665-10.826,3.792c-11.481,1.941-20.899,6.601-23.453,19.216c-2.566,12.673,2.124,22.595,12.234,30.382
			c2.54,1.956,7.244,2.605,6.025,7.66c-1.478,5.111,0.924,9.212,3.563,13.176c4.097,6.151,9.512,11.031,15.818,14.742
			c7.808,4.594,15.883,8.734,23.824,13.103c5.079,2.794,10.285,5.401,15.155,8.525c12.649,8.114,23.798,20.137,30.271,32.251
			c-13.463,4.362-27.174,7.419-41,10.016c-17.11,3.214-34.168,6.757-51.354,9.495c-13.251,2.112-26.636,3.579-40.122,3.288
			c-5.33-0.115-5.813-0.333-6.12-5.254c-1.19-19.077-7.346-36.919-13.387-54.796c-0.46-1.361-1.075-2.711-1.849-3.918
			c-1.626-2.536-4.701-3.609-7.562-2.368C1384.692,1001.835,1377.432,1005.139,1370.202,1008.502z M1309.865,765.97
			c3.366-0.164,6.613,0.219,9.526,2.108c0.552-0.376,1.032-0.299,1.439,0.23c0.001,0.001,0.002,0.001,0.003,0.002
			c0-0.001-0.001-0.001-0.002-0.002c2.836-0.175,5.623-0.148,7.874,1.995l0.776-0.023c0.003,0.003,0.005,0.004,0.008,0.007
			c-0.002-0.003-0.004-0.004-0.006-0.007c3.208-0.09,6.371,0.017,9.02,2.214l-0.03-0.045c0.001,0.001,0.003,0.002,0.004,0.004
			c-0.001-0.001-0.002-0.002-0.003-0.004c3.119-0.04,6.232-0.053,8.767,2.22l0.089-0.061c0,0,0,0,0-0.001
			c3.216-0.13,6.302,0.266,9.006,2.216v0c0.669-0.324,1.253-0.211,1.752,0.34c2.1-0.196,4.059,0.029,5.501,1.819
			c3.549-0.457,6.615,0.934,9.629,2.52c0.001,0,0.001,0.001,0.002,0.001c0,0,0-0.001-0.001-0.001c2.056-0.226,3.887,0.221,5.335,1.8
			c0.49-0.345,0.879-0.254,1.167,0.271c0,0.001,0,0.001,0,0.002c0-0.001,0.001-0.001,0.001-0.002
			c6.387,1.025,12.421,3.064,18.036,6.301c0.688-0.225,1.261-0.058,1.72,0.503v0c1.438-0.142,2.55,0.383,3.313,1.621
			c16.279,5.227,31.049,13.414,45.092,23.018c0.583,0.399,1.173,0.945,1.467,1.562c0.271,0.571,0.371,1.429,0.129,1.975
			c-0.208,0.469-1.057,1.009-1.531,0.935c-1.045-0.163-2.156-0.512-3.027-1.102c-15.026-10.179-31.58-17.377-48.062-24.718
			c-0.917,0.289-1.431-0.144-1.74-0.952c-0.741-0.225-1.483-0.451-2.225-0.676c-5.867-1.621-11.811-3.018-17.228-5.94
			c-6.992-1.08-13.616-3.484-20.311-5.638c-1.049,0.356-1.778-0.089-2.356-0.92c0.783,0.306,1.566,0.611,2.343,0.915
			c-0.733-0.429-1.516-0.728-2.343-0.915c-2.049,0.16-4.021-0.084-5.844-1.111c-14.504-3.373-29.205-5.913-43.462-10.328
			c-0.002-0.001-0.003-0.002-0.005-0.003c0.001,0.001,0.002,0.002,0.002,0.002c-2.206,0.243-4.19-0.205-5.772-1.883
			c-0.989-0.133-1.979-0.267-2.968-0.4c-0.001-0.002-0.002-0.003-0.004-0.005c0,0.001,0,0.003,0.001,0.004
			c-2.192,0.305-4.037-0.48-5.702-1.829c-1.049-0.024-2.165,0.175-3.137-0.11c-4.825-1.419-7.065-3.297-5.695-4.571
			c2.378-2.211,4.795-0.296,6.922,0.338c4.341,1.293,9.146,1.223,12.979,4.107c3.393-0.173,6.628,0.338,9.546,2.214
			c0.002,0.002,0.004,0.003,0.006,0.005C1309.868,765.973,1309.867,765.972,1309.865,765.97z M1395.394,660.178
			c1.225,0.75,1.925,1.826,2.012,3.278l0.001,0.007c0.603,0.699,1.126,1.454,1.569,2.264c0.644,0.299,0.909,0.8,0.795,1.501
			c0,0.001,0,0.001,0.001,0.002c1.149,0.583,1.873,1.472,2.007,2.786c2.94,3.612,5.881,7.225,8.822,10.837
			c1.127,0.269,1.853,0.943,2.105,2.091c7.608,5.719,15.325,11.271,23.85,15.585c0,0,0,0,0.001,0.001c0,0,0,0,0,0
			c1.864-0.155,3.34,0.616,4.59,1.926c0.687,0.191,1.375,0.382,2.062,0.573c1.385-0.145,2.464,0.353,3.229,1.522
			c1.117,0.233,2.234,0.466,3.351,0.698c1.77-0.267,3.174,0.506,4.474,1.572c3.023-0.014,5.962,0.318,8.557,2.073
			c0,0.001,0,0.002,0,0.004c0.001-0.001,0.002-0.002,0.004-0.003c4.266,0.07,8.538,0.101,12.804,0.259
			c0.537,0.02,1.55,0.906,1.494,1.042c-0.382,0.931-0.844,2.367-1.55,2.539c-4.875,1.192-9.792,1.659-14.533-0.679
			c-2.574,0.19-5.024-0.307-7.374-1.345c-1.178,0.302-2.048-0.118-2.673-1.122c-1.242-0.269-2.484-0.537-3.726-0.806c0,0,0,0,0,0
			c-1.309,0.186-2.318-0.258-2.999-1.404c-1.194-0.297-2.387-0.593-3.581-0.89c0,0,0,0,0,0c-1.129,0.24-1.891-0.229-2.385-1.221
			c-11.003-3.348-20.551-8.976-28.011-17.875c-1.198-0.24-1.891-0.992-2.19-2.147c-4.116-2.451-6.719-6.202-8.88-10.332c0,0,0,0,0,0
			c-1.212-0.566-1.907-1.513-2.097-2.835c-0.528-0.629-1.008-1.292-1.431-1.996c-2.173-2.692-4.241-5.44-4.793-8.995
			c-0.54-0.362-0.759-0.863-0.656-1.505c-2.403-2.257-3.397-5.234-3.997-8.321c-0.168-0.867,0.214-2.423,0.824-2.74
			c1.385-0.721,2.708,0.128,3.266,1.523c0.902,2.253,1.583,4.595,2.358,6.899c0.519,0.423,0.722,0.964,0.612,1.625
			c0,0-0.001,0.001-0.001,0.001c0.001,0,0.001,0,0.002-0.001c1.638,0.658,2.037,2.031,2.086,3.608 M1554.691,762.955
			c0,0,0,0.001,0,0.001c1.47,1.484,1.889,3.283,1.586,5.299c1.793,4.647,2.957,9.42,2.91,14.438c0,0,0,0.001,0,0.001
			c1.605,2.255,1.927,4.756,1.413,7.415c0.246,2.622,0.491,5.243,0.737,7.865c0.001,0.003,0.002,0.005,0.003,0.008
			c1.758,3.76,1.996,7.714,1.489,11.762c0.198,3.404,0.396,6.807,0.594,10.211c0,0.001,0,0.003,0,0.004
			c2.33,13.557,3.108,27.116,0.03,40.678c-0.404,0.783-0.807,1.566-1.211,2.349c-0.43-0.374-0.86-0.748-1.29-1.122c0,0,0,0,0,0
			c-2.267-2.238-1.182-4.635-0.336-7.021c0-0.001,0-0.002,0.001-0.003c-0.017-8.158-0.033-16.317-0.05-24.475
			c-0.174-0.571-0.299-1.146-0.403-1.723c-1.226-5.506-1.568-11.089-1.16-16.735c-0.208-2.656-0.415-5.311-0.622-7.967
			c-0.001-0.003-0.002-0.005-0.003-0.008c-1.712-3.727-2.011-7.646-1.589-11.664c0,0,0,0,0,0c-0.211-1.913-0.421-3.826-0.632-5.74
			c0,0,0-0.001,0-0.001c-1.576-2.23-1.939-4.708-1.504-7.349c-0.898-4.259-2.832-8.31-2.59-12.8
			c-0.757-1.992-1.64-3.947-2.252-5.983c-6.679-22.234-16.849-42.675-31.167-61.005c-1.312-1.679-2.466-3.482-3.693-5.227
			c-1.114-0.283-1.78-0.956-1.871-2.133l-0.246-0.291c-1.041-0.223-1.661-0.829-1.756-1.917l-0.402-0.466
			c-0.686-0.437-1.233-1.004-1.623-1.721l-0.56-0.599c-0.713-0.341-1.236-0.87-1.569-1.587l-0.547-0.076l-0.075-0.547
			c-0.71-0.329-1.233-0.846-1.569-1.554l-0.622-0.591c-0.705-0.365-1.249-0.899-1.651-1.58l-0.547-0.489
			c-0.675-0.477-1.274-1.036-1.798-1.674l-0.314-0.282c-3.718-2.105-6.846-4.916-9.687-8.071c0,0,0,0,0,0c0,0-0.001,0-0.001,0
			c-1.658-0.242-2.75-1.288-3.663-2.586c-1.425-1.004-3.014-1.85-4.205-3.081c-0.569-0.589-0.772-2.071-0.443-2.857
			c0.442-1.056,1.892-1.205,2.779-0.587c1.716,1.195,3.234,2.675,4.834,4.037c2.343,1.019,4.411,2.392,5.871,4.549l0.298,0.208
			c1.198,0.083,1.875,0.764,2.172,1.884l0.026,0.019c0.613,0.962,1.437,1.665,2.516,2.057c1.188,0.216,1.947,0.898,2.247,2.076
			c5.941,4.154,10.995,9.187,15.062,15.198c1.187,0.349,1.864,1.128,2,2.364c15.501,17.327,25.586,37.649,32.845,59.52
			c0.677,2.038,1.043,4.179,1.553,6.272c0,0,0,0,0,0C1554.235,760.754,1554.463,761.855,1554.691,762.955z M1517.611,901.609
			c-0.609-1.528-1.375-3.84,1.018-4.339c2.084-0.435,2.782,1.723,3.417,3.458c3.332,9.108,3.312,18.377,1.338,27.725
			c-0.318,1.505-1.504,2.609-3.042,2.455c-0.493-0.049-1.186-1.669-1.17-2.559c0.046-2.517,0.412-5.029,0.792-9.015
			C1520.137,914.289,1520.088,907.829,1517.611,901.609z M1517.024,856.433c-0.188-0.405-0.426-0.796-0.532-1.221
			c-0.032-0.13,0.298-0.351,0.462-0.531c-0.001-0.002-0.001-0.004-0.001-0.006c-1.265-2.462-1.558-5.102-1.406-7.821
			c-0.065-0.769-0.131-1.537-0.196-2.306c-0.967-2.692-1.935-5.384-2.903-8.075c-2.12-2.973-4.24-5.945-6.36-8.918
			c-1.124-0.37-1.918-1.045-2.111-2.277l0.123-0.034c-1.564-0.079-2.555-0.967-3.226-2.303l-0.688-0.192
			c-0.004-0.003-0.007-0.005-0.011-0.008c0.002,0.002,0.004,0.004,0.006,0.006c-1.548-0.048-2.739-0.761-3.643-1.996
			c-1.006-0.255-2.203-0.258-2.962-0.836c-0.728-0.554-1.409-1.718-1.379-2.589c0.044-1.272,1.434-1.54,2.41-1.232
			c5.495,1.731,10.754,3.901,14.241,8.877c3.18,2.155,5.425,4.96,6.157,8.822v0c1.422,1.787,2.51,3.717,2.599,6.074
			c1.113,0.543,1.573,1.416,1.335,2.641c0.876,1.643,1.208,3.378,0.869,5.223c0,0.002,0.001,0.004,0.001,0.006
			c0-0.001,0-0.002,0-0.003c2.842,6.519,1.775,13.04-0.011,19.56c0.481,4.456-1.028,8.517-2.481,12.593
			c-0.583,1.635-1.973,2.212-3.362,1.854c-0.564-0.146-1.197-1.845-1.03-2.686c0.695-3.517,1.682-6.977,2.562-10.458
			C1515.342,864.46,1515.555,860.367,1517.024,856.433z M1458.443,935.462c3.343,11.86,15.58,17.384,26.76,12.072
			c1.302-0.619,2.49-1.473,3.775-2.133c2-1.027,4.238-4.687,6.142-1.355c1.267,2.216-2.123,4.143-4.214,5.542
			c-4.311,2.884-8.962,4.73-13.664,4.423c-14.727,0.06-25.602-11.822-24.469-26.553c0.47-6.124,1.609-12.291,6.49-16.826
			c0.453-0.421,1.425-0.685,1.985-0.5c1.073,0.353,1.655,1.347,1.16,2.48c-0.867,1.983-1.987,3.858-2.823,5.853
			C1457.272,923.984,1456.81,929.668,1458.443,935.462z M1491.556,932.539c-0.075-1.293,1.138-2.55,1.548-2.595
			c3.182-0.315,4.397,0.758,4.619,2.746c0.156,1.399-0.259,2.773-1.868,3.252C1493.921,936.517,1491.682,934.715,1491.556,932.539z
			 M1547.586,1001.024c-0.667-0.302-1.248-0.722-1.743-1.26l-0.409-0.236c-4.072-1.599-7.594-4.047-10.802-6.981
			c-0.679-0.466-1.322-0.978-1.928-1.536l-0.245-0.176c-1.27-0.096-2.026-0.832-2.469-1.963c-3.652-2.013-6.484-4.853-8.545-8.471
			l0,0c-4.237-3.708-6.409-8.616-7.801-13.891c-0.18-0.684,0.742-1.937,1.475-2.523c1.207-0.964,1.957,0.206,2.433,1.101
			c2.197,4.129,4.312,8.302,6.456,12.46c0,0.001,0,0.001,0,0.002c0,0,0-0.001,0.001-0.001c2.912,2.883,5.825,5.767,8.738,8.651
			c1.284,0.213,2.179,0.922,2.703,2.107c0,0,0,0,0,0c0.766-0.065,1.306,0.255,1.618,0.958c0.736,0.347,1.371,0.83,1.918,1.431
			l0.287,0.173c1.248,0.058,2.086,0.706,2.612,1.806c2.641,0.831,4.947,2.174,6.697,4.371c0.692-0.146,1.19,0.101,1.494,0.74
			c1.174-0.084,1.838,0.58,2.288,1.557c9.85,4.874,18.048,11.943,25.804,19.566c2.052,2.017,4.149,4.16,4.681,7.154
			c0.169,0.949-0.093,2.324-0.713,2.976c-0.756,0.795-2.092,0.322-2.685-0.581C1571.439,1016.268,1558.97,1009.28,1547.586,1001.024
			z M1259.332,714.935c0.067-0.348,0.206-0.694,0.369-1.011c5.104-9.917,10.908-19.316,19.653-26.536v0
			c0.296-1.143,0.893-1.963,2.185-2.037c0.177-1.264,0.85-2.047,2.151-2.222c0.195-1.287,0.916-2.047,2.222-2.225c0,0,0,0,0.001,0
			c0,0,0,0-0.001-0.001c0.18-1.251,0.874-1.974,2.155-2.093c0.001,0,0.001,0,0.002,0.001c0,0-0.001-0.001-0.001-0.001
			c-0.001,0.001,0.161-0.138,0.163-0.14c0.033-1.281,0.832-1.86,1.959-2.137c3.279-4.838,8.14-7.806,12.96-10.773
			c0.694-0.427,2.235-0.277,2.917,0.232c1.714,1.278,0.259,2.723-0.617,3.423c-4.145,3.311-8.464,6.405-12.721,9.577
			c-0.44,1.136-1.212,1.865-2.457,2.019c-0.199,1.276-0.989,1.947-2.221,2.162c-0.741,2.035-2.137,3.422-4.154,4.193
			c0,0,0-0.001-0.001-0.001c0,0.001,0,0.001,0,0.002c-0.189,1.231-0.891,2.033-2.051,2.449c-2.174,2.809-4.306,5.652-6.531,8.42
			c-4.742,5.9-9.008,12.085-12.162,19.01c-0.637,1.4-0.842,4.093-3.348,3.087C1256.666,719.073,1258.974,716.799,1259.332,714.935z
			 M1244.123,820.624c-0.286-0.314-0.524-0.633-0.734-0.957c0.097,0.852,0.269,1.694,0.599,2.516
			c0.134,1.464,0.268,2.927,0.402,4.391c1.385,2.913,2.279,5.947,2.561,9.132c0.076,0.027,0.152,0.052,0.231,0.098
			c1.537,1.164,1.644,2.762,1.363,4.479c-0.046-0.001-0.092-0.003-0.138-0.004c0.001,0.002,0.002,0.003,0.003,0.004
			c0.762,1.758,1.059,3.567,0.609,5.46c0.001,0.005,0.001,0.01,0.002,0.015c0-0.003,0-0.006,0-0.009
			c2.368,7.323,2.804,14.646-0.077,21.957c0.423,7.544-2.47,14.132-5.948,20.543c-0.339,0.625-0.744,1.365-1.32,1.675
			c-0.896,0.481-1.967,0.637-2.964,0.931c-0.266-0.972-1.061-2.228-0.716-2.871c2.941-5.469,4.745-11.356,6.669-17.205
			c0.049-0.085,0.085-0.172,0.129-0.257c-0.099-2.72,0.198-5.368,1.102-7.903c0.121-0.605,0.306-1.199,0.596-1.773
			c-0.748-2.807-0.921-5.614,0.004-8.42c-0.191-0.371-0.334-0.75-0.446-1.136c-1.225-2.706-1.421-5.606-1.288-8.566
			c-0.043-0.081-0.079-0.163-0.127-0.243c-0.043-0.741-0.085-1.482-0.128-2.222c0.035-0.047,0.077-0.082,0.113-0.126
			c-0.123-0.696-0.246-1.393-0.368-2.089c-0.159-0.092-0.316-0.193-0.466-0.32c-1.831-1.785-1.537-4.176-1.828-6.401
			c-0.375-0.783-0.615-1.56-0.633-2.327c-0.579-0.72-0.857-1.539-0.916-2.431c-0.014-0.02-0.032-0.035-0.045-0.056
			c-0.239-1.798-0.479-3.596-0.718-5.394c-0.137-0.986-0.251-1.971-0.355-2.956c-1.926-5.967-1.456-11.926,0.58-17.877
			c0,0.113-0.001,0.226-0.001,0.339c1.247-11.243,4.762-21.738,10.66-31.445c1.545,0.27,1.622,1.797,2.362,2.756
			c-2.868,9.315-5.737,18.63-8.605,27.946c0.047,3.224-0.238,6.407-1.052,9.528c-0.039,0.625-0.117,1.245-0.245,1.859
			C1244.042,814.294,1244.317,817.428,1244.123,820.624z M1199.64,962.097c-4.198-9.212-8.861-18.247-11.842-27.982v0
			c-0.001-0.003-0.003-0.006-0.004-0.009c-0.154-0.298-0.298-0.592-0.425-0.878c-8.929-18.29-15.975-37.222-19.422-57.379
			c0-0.001,0-0.001-0.001-0.002c-1.452-2.193-2.059-4.576-1.602-7.195c-0.204-1.865-0.408-3.73-0.612-5.595
			c-0.001-0.002-0.001-0.004-0.002-0.006c-1.569-3.06-1.945-6.313-1.551-9.69c-0.035-0.726-0.069-1.452-0.104-2.179
			c-0.806-3.219-1.042-6.466-0.491-9.753c-0.001-0.006-0.001-0.013-0.002-0.019c0,0.005,0,0.009,0,0.014
			c-2.056-11.587-2.079-23.181-0.03-34.777c0,0,0-0.001,0-0.001c-0.418-3.369-0.175-6.696,0.628-9.988
			c-0.438-3.31-0.179-6.507,1.534-9.469c-0.245-5.755,1.031-11.258,2.77-16.684c1.147-10.896,4.866-21.134,8.373-31.376
			c9.059-26.461,20.198-51.985,35.351-75.614c-0.135-1.268,0.522-2.032,1.605-2.525c0.306-0.623,0.613-1.246,0.919-1.869h0
			c-0.101-1.086,0.485-1.715,1.408-2.119l0.077-0.093c3.189-7.315,7.866-13.639,13.046-19.63c2.163-4.276,5.006-8.042,8.48-11.337v0
			c3.103-5.444,6.255-10.852,11.181-14.931h0c0.554-0.73,1.107-1.458,1.661-2.186c0.645-1.987,2.117-2.876,3.772-1.629
			c1.897,1.429,0.807,2.797-0.877,3.727c-0.002,0-0.003,0-0.005,0c0.001,0.001,0.002,0.002,0.003,0.003
			c-0.767,0.805-1.535,1.612-2.304,2.419c-2.952,5.6-6.667,10.664-10.829,15.414c-2.146,4.338-4.899,8.227-8.485,11.503
			c-4.373,6.526-8.745,13.052-13.117,19.578c0,0,0,0,0,0c0,0,0,0,0,0c0.148,0.701-0.091,1.226-0.717,1.576
			c0.128,1.241-0.519,1.981-1.581,2.454c0,0,0,0,0,0c0,0,0,0,0,0c-0.311,0.645-0.622,1.29-0.934,1.935c0,0,0,0,0,0
			c0.109,1.087-0.481,1.717-1.393,2.137c-6.982,13.906-14.851,27.362-20.89,41.749c-8.851,21.086-16.919,42.411-21.212,64.981
			c-0.196,1.031-0.862,1.972-1.309,2.955c0,0,0,0,0,0c-0.226,1.982-0.452,3.963-0.679,5.945c0.456,2.69,0.147,5.241-1.375,7.572
			c-0.194,1.829-0.387,3.658-0.581,5.486c-0.024,0.732-0.049,1.464-0.073,2.196c0,0,0,0,0,0c-0.026,0.723-0.052,1.445-0.079,2.168
			c-0.212,8.883-0.548,17.766-0.595,26.65c-0.034,6.392,0.318,12.787,0.497,19.18c0.029,0.723,0.059,1.446,0.088,2.169c0,0,0,0,0,0
			c0,0,0,0,0,0c0.197,2.656,0.393,5.312,0.59,7.968c0,0.001,0.001,0.003,0.001,0.004c1.194,2.296,1.731,4.717,1.385,7.306v0
			c0.071,0.725,0.141,1.45,0.212,2.176c0,0-0.001-0.001-0.001-0.001c0,0,0,0.001,0.001,0.001
			c4.228,20.745,10.693,40.781,19.04,60.225c0.411,0.958,0.518,2.047,0.766,3.075c17.609,37.818,35.496,75.527,44.939,116.5
			c0.735,3.189,1.716,6.32,1.327,9.627c-0.057,0.485-0.853,1.21-1.336,1.234c-0.597,0.029-1.502-0.405-1.783-0.911
			c-0.687-1.237-1.277-2.589-1.582-3.967C1224.549,1020.88,1212.909,991.212,1199.64,962.097z M1193.058,1785.717
			c-0.4,26.173-0.423,52.352-0.608,78.528c-0.013,1.804-0.002,3.608-0.002,5.412c-0.577,0.204-1.155,0.407-1.732,0.611
			c-0.765-1.099-1.618-2.147-2.282-3.304c-13.542-23.622-27.247-47.152-40.551-70.908
			c-33.197-59.278-67.954-117.637-104.027-175.192c-22.986-36.674-48.36-71.684-77.434-103.91
			c-13.164-14.592-24.977-30.262-34.774-47.379c-6.872-12.005-12.42-24.549-17.271-37.531c-11.532-30.861-17.525-62.87-21.42-95.408
			c-2.941-24.57-4.25-49.242-4.674-73.957c-0.186-10.871-0.513-21.833,2.642-32.478c0.618-2.087,0.776-4.942,3.07-5.36
			c3.126-0.57,4.018,2.628,4.998,4.808c4.062,9.036,5.593,18.768,7.222,28.425c3.141,18.622,6.044,37.284,9.062,55.927
			c0.173,1.068,0.357,2.164,0.757,3.157c0.888,2.203,2.546,3.49,4.987,3.501c2.338,0.01,4.387-0.789,5.272-3.077
			c0.637-1.645,1.125-3.484,1.083-5.222c-0.051-2.152-0.647-4.305-1.128-6.43c-5.423-23.959-5.211-48.336-5.425-72.682
			c-0.055-6.215,0.438-12.364,2.712-18.219c0.779-2.005,1.617-4.084,2.898-5.773c1.781-2.348,4.353-4.352,7.364-3.713
			c2.619,0.555,3.926,3.373,4.406,5.83c1.182,6.047,2.509,12.156,2.758,18.281c1.094,26.901,4.723,53.579,6.701,80.398
			c0.131,1.781,0.365,3.667,1.083,5.265c0.969,2.154,3.019,3.024,5.394,2.889c2.438-0.139,4.046-1.432,4.784-3.731
			c1.032-3.214,0.488-6.49,0.209-9.736c-1.591-18.517-1.671-37.042-0.125-55.558c0.785-9.411,1.74-18.811,4.011-28.023
			c0.704-2.854,1.575-5.564,3.6-7.789c1.771-1.947,5.406-1.437,6.298,1.083c0.717,2.025,1.167,4.185,1.428,6.323
			c1.015,8.32,1.264,16.666,0.597,25.036c-0.955,11.977-1.162,23.964-0.327,35.96c0.887,12.734-0.243,25.436-0.651,38.149
			c-0.082,2.54-0.273,5.087-0.153,7.619c0.125,2.63,2.25,4.861,4.64,5.272c2.765,0.475,5.866-1.46,6.468-4.494
			c0.705-3.555,1.258-7.185,1.383-10.8c0.304-8.715,0.51-17.442,0.41-26.161c-0.177-15.417,2.26-30.405,7.004-45.018
			c1.339-4.123,3.145-8.133,5.128-11.994c1.131-2.202,2.844-4.22,4.665-5.926c2.742-2.569,6.317-2.011,8.466,1.085
			c2.569,3.7,3.465,7.933,3.721,12.356c0.778,13.417,1.685,26.785,0.732,40.283c-1.947,27.568-5.672,54.914-9.504,82.245
			c-1.052,7.505-3.558,14.804-5.371,22.204c-0.832,3.394,0.241,6.367,2.621,7.461c2.491,1.145,5.461,0.367,7.66-2.456
			c2.675-3.435,5.039-7.112,7.599-10.639c11.742-16.178,23.02-32.672,33.727-49.553c2.353-3.708,4.893-7.236,8.437-9.891
			c3.419-2.561,7.114-1.386,8.779,2.624c1.297,3.124,1.651,6.339,0.971,9.618c-2.212,10.672-4.805,21.165-9.495,31.159
			c-12.227,26.051-26.596,50.826-42.919,74.499c-1.854,2.689-3.592,5.463-5.275,8.264c-6.253,10.407-6.766,21.225-2.234,32.395
			c4.812,11.859,11.304,22.736,19.051,32.897c5.068,6.647,10.269,13.205,15.062,20.047c28.692,40.964,62.19,77.722,97.963,112.519
			c12.247,11.913,24.297,24.027,36.421,36.065c1.547,1.535,3.043,3.128,4.477,4.769c4.932,5.647,7.68,12.038,7.8,19.733
			C1192.614,1732.641,1193.464,1759.167,1193.058,1785.717z M1587.72,1863.949c-2.65,5.329-5.983,8.454-11.536,10.275
			c-22.46,7.365-45.394,12.831-68.492,17.68c-34.147,7.169-68.598,12.576-103.208,16.835c-26.325,3.24-52.729,5.779-79.212,7.618
			c-25.791,1.791-51.571,2.175-77.387,1.788c-11.656-0.175-23.153-1.54-34.555-4.169c-4.833-1.115-6.709-3.886-7.212-8.184
			c-0.293-2.511-0.07-5.078-0.196-7.614c-1.726-34.885-1.427-69.784-0.756-104.687c0.573-29.816,0.153-59.629-0.625-89.432
			c-0.914-35.014-9.489-68.231-24.646-99.718c-5.981-12.425-12.619-24.539-19.14-36.697c-5.686-10.601-10.716-21.49-13.702-33.142
			c-6.199-24.182-3.991-47.623,7.711-69.815c4.736-8.982,9.991-17.721,15.482-26.267c18.68-29.074,38.982-56.981,61.036-83.6
			c6.279-7.579,12.023-15.515,16.167-24.491c1.364-2.956,2.633-5.984,3.594-9.088c0.516-1.67,0.506-3.591,0.335-5.36
			c-0.189-1.964-1.684-3.283-3.453-3.817c-1.829-0.553-3.771-0.005-4.856,1.614c-1.193,1.78-2.039,3.811-2.896,5.793
			c-5.28,12.204-11.973,21.603-23.187,32.443c-1.777-1.06-1.751-2.998-1.979-4.631c-3.481-24.974-4.774-49.921,1.007-74.786
			c2.739-11.779,7.198-22.826,13.643-33.044c20.482-32.473,49.519-54.695,84.352-69.767c12.312-5.327,24.928-9.953,37.412-14.882
			c10.489-4.141,20.694-8.839,30.069-15.184c20.165-13.647,32.2-32.088,33.527-56.846c0.058-1.089,0.121-2.177,0.203-3.265
			c0.159-2.1,1.277-3.296,3.399-3.381c1.814-0.073,3.634-0.074,5.449-0.023c23.414,0.649,46.343-2.965,69.175-7.659
			c23.106-4.75,46.368-8.801,68.904-15.999c0.345-0.11,0.701-0.199,1.058-0.258c4.573-0.76,9.499-2.921,13.626-1.889
			c4.526,1.132,5.563,7.171,8.158,11.037c3.067,4.57,6.619,8.641,10.918,12.08c4.845,3.876,10.023,7.228,15.647,9.839
			c33.921,15.752,68.136,30.747,104.578,39.887c10.208,2.56,20.441,5.024,30.669,7.502c17.613,4.267,31.727,13.647,42.908,27.997
			c14.63,18.776,27.289,38.625,34.254,61.526c4.219,13.874,7.959,27.913,10.577,42.239c4.831,26.434,10.288,52.756,15,79.21
			c4.457,25.027,8.412,50.146,12.372,75.259c5.036,31.932,9.954,63.884,14.733,95.856c3.222,21.557,5.866,43.202,9.219,64.738
			c4.58,29.428,9.671,58.775,14.371,88.185c1.834,11.475,3.23,23.02,4.738,34.545c0.127,0.971-0.413,2.029-0.643,3.046
			c-35.514-7.858-68.5-0.021-100.444,14.818c-1.968,0.914-3.874,1.963-5.83,2.904c-0.244,0.118-0.62-0.038-1.333-0.104
			c-2.917-6.526-3.807-13.775-5.311-20.82c-7.66-35.876-17.504-71.211-26.252-106.817c-4.764-19.389-9.668-38.743-14.351-58.151
			c-0.688-2.854-1.283-5.704-2.798-8.194c-2.013-3.308-7.536-3-8.977,0.609c-11.327,28.356-26.906,54.641-39.906,82.18
			c-13.019,27.578-26.532,54.929-39.138,82.693c-15.758,34.707-29.833,70.14-44.174,105.455
			C1606.807,1820.002,1598.412,1842.451,1587.72,1863.949z M1624.991,1915.491c-5.834-11.01-13.746-20.495-21.491-30.118
			c-10.454-12.988-9.366-10.091-2.272-23.565c11.709-22.239,20.288-45.795,29.678-68.994c12.94-31.972,25.996-63.893,40.031-95.395
			c17.143-38.479,36.077-76.11,54.756-113.858c4.026-8.135,8.11-16.242,12.197-24.347c0.814-1.614,1.683-3.214,2.702-4.701
			c0.307-0.449,1.188-0.584,1.835-0.701c0.86-0.155,1.151,0.391,1.364,1.284c4.453,18.719,8.751,37.478,13.476,56.129
			c9.096,35.9,18.228,71.789,26.031,107.997c1.308,6.07,3.299,11.866,5.571,17.614c4.94,12.496,6.207,25.398,3.158,38.492
			c-1.9,8.162-5.586,15.723-9.625,23.049c-10.539,19.115-22.008,37.671-35.423,54.899c-15.42,19.804-29.352,40.659-44.059,60.965
			c-14.921,20.601-29.898,41.16-44.883,61.714c-0.613,0.841-1.555,1.442-2.581,2.368c-1.034-2.127-2.077-4.028-2.907-6.018
			C1644.437,1952.845,1634.854,1934.104,1624.991,1915.491z M1901.713,1775.075c-1.67,9.432-5.088,18.116-10.225,26.17
			c-26.031,40.818-54.871,79.516-87.673,115.158c-19.221,20.885-36.947,42.947-53.758,65.784
			c-26.052,35.392-52.251,70.676-78.186,106.154c-6.42,8.781-12.081,18.118-18.061,27.219c-6.251,9.513-9.081,19.559-5.857,31.007
			c2.951,10.48,1.22,20.866-2.003,31.067c-4.389,13.892-9.768,27.33-17.825,39.569c-2,3.037-3.947,6.091-6.86,8.391
			c-9.923,7.833-9.007,6.609-13.585-2.676c-19.832-40.215-34.326-82.311-44.215-126.016c-0.155-0.687-0.019-1.439-0.019-3.715
			c5.026,1.038,9.198,1.901,13.369,2.761c2.129,0.439,4.246,0.955,6.391,1.298c6.406,1.022,11.437-1.211,14.903-6.684
			c4.079-6.439,8.189-12.866,12.032-19.446c22.193-37.992,47.123-74.167,73.349-109.431c19.512-26.236,37.985-53.198,57.091-79.714
			c3.609-5.009,7.279-9.979,11.088-14.836c15.727-20.052,29.566-41.347,41.699-63.73c3.445-6.355,6.398-13.054,8.84-19.86
			c4.539-12.649,4.249-25.667,1.627-38.696c-2.395-11.901-2.52-12.112,8.027-17.147c23.695-11.311,48.688-16.493,74.969-15.08
			c3.993,0.214,7.901,0.768,11.704,2.265c3.829,1.507,5.78,4.181,6.317,8.083c0.148,1.075,0.14,2.175,0.16,3.264
			C1905.313,1742.608,1904.577,1758.904,1901.713,1775.075z"/>
		<g>
			<path d="M1394.43,553.207c-0.435-0.259-0.869-0.519-1.304-0.778C1393.438,552.893,1393.91,553.09,1394.43,553.207z"/>
			<path d="M1544.656,569.484c-0.324-0.021-0.629-0.071-0.92-0.146C1544.021,569.422,1544.324,569.477,1544.656,569.484z"/>
		</g>
		<path d="M1504.104,825.243c-0.008-0.014-0.017-0.026-0.025-0.04c0.007,0.014,0.015,0.026,0.022,0.041L1504.104,825.243z"/>
		<path style="fill:#050505;" d="M1363.456,821.008c-2.62-3.029-6.264-3.294-9.617-3.791c-6.315,0.343-10.29,3.657-12.599,9.066
			c-4.311,10.098-1.159,26.861,6.446,34.596c3.532,3.592,7.667,5.27,12.764,3.843c4.141-1.159,6.741-3.974,8.648-7.637
			C1376.204,843.437,1371.762,830.613,1363.456,821.008z M1355.857,846.752c-0.758,2.107-3.83,2.599-5.35,0.946
			c-3.176-3.453-3.724-7.718-3.913-12.882c0.151-0.681,0.383-2.103,0.791-3.473c0.446-1.497,3.275-2.344,4.636-1.385
			c0.877,0.618,1.885,1.277,2.381,2.169C1356.982,836.763,1357.692,841.651,1355.857,846.752z M1363.715,849.051
			c-1.469,0.085-2.619-0.789-2.787-2.371c-0.165-1.549,0.69-2.552,2.238-3.065c1.379,0.227,2.31,1.117,2.575,2.56
			C1366.03,847.751,1365.334,848.957,1363.715,849.051z"/>
		<path style="fill:#010101;" d="M1371.246,964.795c-1.088-5.654-4.932-8.619-10.234-10.088c-3.573-0.99-7.245-1.143-10.806-0.518
			c-11.068,1.942-22.128,3.967-33.112,6.332c-5.84,1.258-10.664,4.495-13.885,9.739c-3.128,5.091-2.581,10.624,1.435,15.02
			c2.834,3.102,6.517,4.634,10.517,5.226c3.216,0.476,6.514,0.401,7.529,0.454c12.116-0.087,21.76-1.597,31.239-4.307
			c4.594-1.313,8.75-3.391,12.606-6.21C1372.097,976.376,1372.399,970.791,1371.246,964.795z M1357.479,976.191
			c-0.769,2.603-3.797,4.059-8.059,4.057c-0.7-0.138-1.563-0.07-2.063-0.464c-0.772-0.608-1.476-1.457-1.852-2.354
			c-0.196-0.467,0.2-1.418,0.629-1.861c0.726-0.751,1.606-1.533,2.569-1.841c2.754-0.882,5.621-1.621,8.154,0.561
			C1357.302,974.673,1357.639,975.65,1357.479,976.191z"/>
		<path style="fill:#080707;" d="M1296.799,912.856c0.232-1.042,0.7-3.52,1.343-5.951c1.752-6.634,3.639-13.233,5.338-19.881
			c0.553-2.166,1.343-4.079,2.994-5.623c2.463-2.303,7.058-0.997,7.864,2.255c0.723,2.915,0.143,5.789-0.504,8.585
			c-1.466,6.336-3.041,12.652-4.779,18.919c-0.967,3.485-0.671,6.392,2.333,8.733c0.844,0.657,1.682,1.397,2.293,2.261
			c1.465,2.068,1.314,5.31-0.187,7.113c-1.576,1.891-4.496,2.55-6.909,1.557C1299.978,928.105,1296.467,922.22,1296.799,912.856z"/>
		<path style="fill:#D42588;" d="M1504.983,925.667c-4.097-11.563-11.789-19.714-24.178-22.63
			c-3.743-2.011-7.554-3.646-11.928-2.138c-1.432,0.125-2.903,0.082-4.29,0.402c-14.488,3.345-22.697,14.284-21.726,29.062
			c0.684,10.406,5.991,18.256,14.05,24.448c2.547,1.957,5.234,3.731,7.857,5.589c5.296,1.048,10.515,2.472,16.035,2.013
			C1499.259,960.881,1511.164,943.106,1504.983,925.667z M1490.906,949.587c-4.311,2.884-8.962,4.73-13.664,4.423
			c-14.727,0.06-25.602-11.822-24.469-26.553c0.47-6.124,1.609-12.291,6.49-16.826c0.453-0.421,1.425-0.685,1.985-0.5
			c1.073,0.353,1.655,1.347,1.16,2.48c-0.867,1.983-1.987,3.858-2.823,5.853c-2.312,5.521-2.775,11.205-1.142,16.999
			c3.343,11.86,15.58,17.384,26.76,12.072c1.302-0.619,2.49-1.473,3.775-2.133c2-1.027,4.238-4.687,6.142-1.355
			C1496.387,946.261,1492.998,948.188,1490.906,949.587z M1495.855,935.942c-1.934,0.575-4.173-1.227-4.299-3.403
			c-0.075-1.293,1.138-2.55,1.548-2.595c3.182-0.315,4.397,0.758,4.619,2.746C1497.879,934.089,1497.464,935.464,1495.855,935.942z"
			/>
	</g>
</g>
</svg>
