<?xml version="1.0" encoding="iso-8859-1"?>
<!-- Generator: Adobe Illustrator 23.0.2, SVG Export Plug-In . SVG Version: 6.00 Build 0)  -->
<svg version="1.1" xmlns="http://www.w3.org/2000/svg" xmlns:xlink="http://www.w3.org/1999/xlink" x="0px" y="0px"
	 viewBox="0 0 2793 2793" style="enable-background:new 0 0 2793 2793;" xml:space="preserve">
<g id="Background_xA0_Image_1_">
</g>
<g id="Layer_2_xA0_Image_1_">
</g>
<g id="Layer_3_xA0_Image_1_">
</g>
<g id="Layer_5_xA0_Image_1_">
</g>
<g id="Layer_6_xA0_Image_1_">
	<g>
		<g>
			<g>
				<path d="M1550.006,711.707c-0.374,0.382-0.542,0.86-0.643,1.37C1549.577,712.621,1549.792,712.164,1550.006,711.707z"/>
				<path d="M1954.742,1291.851c-4.404-3.918-8.917-7.742-13.618-11.297c-23.55-17.814-44.98-38.013-65.927-58.727
					c-17.838-17.639-35.869-35.14-51.919-54.461c-35.74-43.024-64.119-90.72-87.94-141.155
					c-7.898-16.722-14.258-34.164-21.552-51.178c-14.024-32.715-27.433-65.697-38.498-99.514
					c-12.641-38.632-25.093-77.338-33.127-117.331c-8.079-40.218-18.565-79.932-24.141-120.679
					c-3.053-22.311-8.983-44.106-14.101-66.032c-6.024-25.806-11.267-51.795-19.564-77.038
					c-8.853-26.934-17.884-53.817-31.904-78.588c-30.006-53.014-67.506-99.879-115.021-138.39
					c-23.013-18.652-48.139-33.679-75.51-45.075c-25.925-10.793-52.844-18.092-80.236-23.854
					c-20.646-4.342-41.454-7.633-62.557-8.629c-27.036-1.275-53.78,1.723-80.206,6.952c-26.584,5.261-51.565,14.907-73.888,30.703
					c-9.287,6.572-17.035,14.571-23.876,23.694c-9.907,13.211-14.046,28.48-17.54,44.165c-1.151,5.168,0.277,11.955-4.147,15.121
					c-4.21,3.014-10.393,1.307-15.762,1.324c-2.582,0.009-5.163,0.013-7.743-0.065c-12.533-0.378-24.793,1.532-36.643,5.298
					c-32.63,10.373-61.969,26.609-87.234,49.926c-10.448,9.642-19.991,20.102-28.805,31.244
					c-23.249,29.388-44.05,60.524-65.188,91.416c-4.298,6.281-7.984,13.001-11.677,19.671c-5.816,10.507-10.613,21.472-14.06,33.007
					c-5.277,17.659-7.04,35.476-4.008,53.839c3.533,21.399,11.301,41.254,20.64,60.607c4.26,8.829,8.904,17.473,13.221,26.275
					c4.989,10.174,8.698,20.811,9.779,32.143c1.138,11.932,2.822,23.831,2.628,35.871c-0.235,14.541-0.124,29.091-0.574,43.625
					c-0.63,20.358-1.273,40.682,0.501,61.036c2.068,23.717,7.142,46.583,16.908,68.394c12.595,28.129,29.163,53.544,50.499,75.834
					c1.551,1.62,4.337,2.709,3.83,5.646c-2.048,1.688-4.297,1.697-6.426,1.995c-25.958,3.631-51.367,9.623-76.264,17.784
					c-22.493,7.373-44.125,16.672-64.389,29.008c-4.995,3.041-9.62,6.518-13.372,11.045c-1.039,1.254-1.039,2.681-0.04,3.95
					c0.891,1.132,1.851,2.25,2.95,3.173c11.333,9.523,19.458,21.449,26.253,34.451c10.635,20.349,18.121,41.959,25.945,63.451
					c1.311,3.6,0.74,6.109-1.57,8.901c-6.285,7.596-11.463,15.88-15.181,25.072c-3.618,8.944-5.638,18.263-3.784,27.691
					c1.173,5.964,0.398,9.725-5.316,12.167c-1.628,0.696-2.951,2.095-4.437,3.14c-49.927,35.116-99.857,70.228-149.786,105.34
					c-0.688,0.752-1.33,0.754-1.918-0.118c0.451-1.356,0.728-2.805,1.381-4.057c6.59-12.638,6.688-25.779,3.21-39.232
					c-1.476-5.708-3.888-10.952-7.65-15.51c-6.73-8.155-13.549-10.1-23.136-5.783c-5.258,2.367-10.303,5.445-14.962,8.861
					c-17.786,13.039-32.425,29.125-44.332,47.635c-18.772,29.181-34.214,59.916-42.512,93.848c-0.589,2.407-1.935,4.565-3.885,6.094
					c-6.582,5.161-12.959,10.609-19.787,15.417c-44.863,31.595-89.833,63.037-134.758,94.543c-2.675,1.876-5.454,3.67-7.849,5.868
					c-5.156,4.73-5.991,11.33-2.424,16.721c3.755,5.674,10.82,7.412,17.325,4.014c2.56-1.337,4.865-3.171,7.245-4.839
					c33.331-23.355,66.657-46.717,99.979-70.084c5.649-3.961,11.478-7.678,16.394-12.611c1.232-1.236,2.653-2.525,5.244-2.056
					c-1.018,10.349-2.022,20.741-3.067,31.128c-1.455,14.466-3.276,28.9-3.457,43.468c-0.163,13.089-0.439,26.178-0.486,39.268
					c-0.084,23.271,0.062,46.542-0.06,69.813c-0.158,30.081-5.391,59.197-16.183,87.378c-6.107,15.946-12.797,31.628-19.453,47.336
					c-19.152,45.197-36.355,90.961-45.604,139.473c-5.821,30.53-8.45,61.154-7.719,92.143c0.051,2.167,0.14,4.387,0.652,6.474
					c0.447,1.82,1.868,3.051,3.916,3.231c2.42,0.213,4.248-0.689,5.24-2.949c1.222-2.782,0.695-5.729,0.644-8.617
					c-0.286-16.007-0.109-32.032,1.487-47.945c2.834-28.251,8.762-55.958,16.313-83.307c8.814-31.924,21.381-62.48,34.175-92.951
					c7.449-17.74,15.371-35.285,21.694-53.487c5.492-15.809,10.099-31.81,12.492-48.431c2.914-20.241,2.835-40.594,2.739-60.949
					c-0.194-41.083-0.901-82.177,3.45-123.13c1.421-13.369,3.073-26.716,4.307-40.103c0.586-6.359,3.239-10.857,9.018-13.701
					c8.507-4.187,16.042-9.925,23.75-15.372c31.454-22.228,62.873-44.504,94.372-66.668c8.905-6.266,18.042-12.17,26.694-18.83
					c7.757-5.97,16.188-11.071,24.394-16.447c3.372-2.209,4.944-1.443,6.163,2.597c1.859,6.16,1.603,12.179-1.148,18.049
					c-3.883,8.287-8.951,15.794-15.026,22.614c-9.692,10.88-17.912,22.891-26.623,34.521c-4.156,5.548-7.555,11.563-9.904,18.105
					c-0.854,2.378-1.61,4.854-1.925,7.346c-0.289,2.289,0.785,4.223,3.117,5.167c2.346,0.949,5.221-0.132,6.404-2.545
					c0.636-1.298,0.995-2.729,1.551-4.07c1.388-3.347,2.437-6.907,4.294-9.975c7.73-12.771,17.027-24.424,26.344-36.052
					c2.564-3.201,5.806-3.892,9.744-3.171c4.204,0.769,7.427,2.887,9.889,6.208c3.328,4.49,5.13,9.547,5.278,15.187
					c0.225,8.62-2.114,16.531-6.561,23.833c-5.68,9.323-11.864,18.309-19.06,26.533c-6.463,7.385-13.171,14.556-19.709,21.876
					c-1.929,2.159-3.729,4.448-5.434,6.789c-1.208,1.66-0.901,3.406,0.352,5.001c1.545,1.966,3.546,2.425,5.805,1.603
					c2.495-0.909,4.023-3.03,5.752-4.888c4.705-5.056,9.322-10.201,14.173-15.113c5.539-5.609,12.44-8.848,20.167-9.956
					c10.04-1.44,15.972,4.387,15.265,14.547c-0.31,4.462-1.791,8.547-4.293,12.197c-1.636,2.386-3.412,4.75-5.49,6.744
					c-4.716,4.524-9.642,8.83-14.509,13.195c-7.305,6.55-14.685,13.019-21.919,19.646c-2.137,1.958-2.36,5.085-0.974,6.931
					c1.666,2.218,5.232,2.75,7.817,0.928c1.768-1.246,3.333-2.792,4.931-4.267c7.585-6.997,16.432-11.882,25.93-15.744
					c3.418-1.39,6.925-2.21,10.574-2.373c4.862-0.216,7.552,1.705,8.645,6.482c1.401,6.127,1.129,12.257-0.655,18.316
					c-3.173,10.778-9.274,19.63-17.633,27.011c-7.086,6.257-14.278,12.397-21.263,18.765c-15.356,14-29.448,29.128-41.251,46.319
					c-21.116,30.754-33.795,64.928-41.026,101.266c-5.91,29.701-7.796,59.847-8.057,90.026
					c-0.397,45.896,4.294,91.469,10.795,136.849c1.853,12.937,4.686,25.729,8.351,38.297c1.01,3.465,2.264,6.89,3.755,10.175
					c1.144,2.52,3.971,3.337,6.464,2.314c2.397-0.983,3.074-3.042,2.779-5.322c-0.23-1.772-0.997-3.472-1.498-5.212
					c-3.016-10.473-5.63-21.028-7.626-31.76c-3.193-17.169-5.236-34.472-7.046-51.826c-2.565-24.593-4.778-49.22-5.406-73.933
					c-0.851-33.498,0.963-66.902,6.423-99.986c5.244-31.774,15.308-61.984,31.321-90.076c12.737-22.344,29.42-41.437,48.329-58.68
					c7.521-6.859,15.285-13.451,22.853-20.261c10.267-9.238,17.242-20.501,20.607-33.961c1.618-6.474,1.78-13.015,0.408-19.462
					c-2.251-10.573-7.797-15.059-18.936-16c-0.968-0.082-2.078,0.222-2.913-1.588c1.252-1.725,2.709-3.744,4.178-5.756
					c3.501-4.792,5.504-10.2,6.528-15.998c2.123-12.014-2.156-20.461-13.537-26.784c-4.451-2.794-10.614,2.09-14.501-3.232
					c3.406-5.137,6.953-10.187,10.186-15.43c4.661-7.559,6.949-15.933,7.449-24.749c0.895-15.769-6.01-27.104-20.386-33.865
					c-0.964-0.454-1.854-1.065-2.925-1.688c3.14-5.768,6.394-11.316,9.236-17.068c4.05-8.197,4.352-16.742,1.46-25.396
					c-0.457-1.367-1.099-2.672-1.593-4.029c-1.482-4.066-1.42-4.295,2.336-7.069c1.749-1.292,3.588-2.462,5.369-3.71
					c35.349-24.777,70.697-49.557,106.041-74.341c2.376-1.666,5.231-2.967,6.974-5.148c3.8-4.754,7.734-4.044,12.135-1.373
					c0.615,0.373,1.291,0.799,1.976,0.879c6.301,0.736,7.917,4.899,8.772,10.527c3.231,21.257,4.601,42.557,2.718,64.009
					c-0.951,10.842-1.779,21.703-3.078,32.506c-2.382,19.803-4.936,39.59-8.847,59.168c-0.031,2.657-0.062,5.313-0.093,7.97
					c-1.714,2.956,0.222,6.638-1.895,9.514c-0.664,0.811-1.328,1.622-1.992,2.433c-0.096,5.898-2.173,11.397-3.557,17.017
					c-9.992,40.582-23.826,79.99-36.992,119.589c-8.932,26.864-18.27,53.593-25.885,80.872c-6.752,24.189-8.39,48.721-2.911,73.328
					c3.944,17.715,9.248,35.086,15.862,52.036c12.881,33.012,29.668,63.992,48.743,93.78c10.236,15.985,19.848,32.362,28.568,49.222
					c9.27,17.924,18.286,35.969,24.536,55.23c1.118,3.446,2.03,6.96,3.211,10.384c0.796,2.31,3.097,3.423,5.176,2.729
					c2.401-0.802,3.55-2.76,3.224-5.026c-0.515-3.576-1.36-7.137-2.426-10.593c-3.641-11.803-8.02-23.319-13.275-34.522
					c-13.136-28.005-28.861-54.524-45.265-80.709c-24.991-39.891-45.317-81.879-56.76-127.874
					c-5.102-20.507-5.496-40.924-1.919-61.578c2.736-15.801,7.979-30.917,12.919-46.092c12.022-36.924,24.339-73.752,36.444-110.65
					c9.967-30.381,18.758-61.087,24.167-92.651c4.357-25.423,8.005-50.945,10.661-76.62c2.742-26.505,3.217-52.937-0.435-79.38
					c-0.434-3.143-0.691-6.31-0.985-9.044c2.036-1.862,3.917-1.339,5.672-1.397c8.366-0.276,16.662-1.08,24.847-2.93
					c4.213-0.952,8.933-3.259,12.571-2.152c3.634,1.106,6.26,5.656,9.229,8.79c13.519,14.268,30.024,19.565,49.411,17.06
					c10.461-1.352,18.264-6.457,24.251-14.895c1.578-2.224,2.01-5.336,5.02-6.748c5.125,5.557,11.306,9.176,18.846,10.012
					c8.031,0.892,16.081,0.683,23.659-2.323c18.081-7.17,30.732-19.189,33.292-39.45c1.837-14.545-2.791-27.173-12.118-38.284
					c-1.996-2.377-5.122-3.893-6.25-7.333c7.518-5.783,11.466-13.352,13.235-22.154c4.078-20.288-2.517-37.324-16.57-51.649
					c-12.142-12.377-30.334-17.85-49.195-3.59c-3.432,2.595-6.68,5.435-9.949,8.109c-3.64-1.995-3.381-5.781-4.56-8.65
					c-5.897-14.347-15.715-25.055-28.851-33.071c-9.709-5.924-20.227-7.713-31.345-7.127c-5.193,0.274-10.037,1.741-14.244,4.822
					c-11.37,8.326-20.575,18.267-24.65,32.269c-2.067,7.101-2.938,14.179-2.135,21.52c0.232,2.121,0.76,4.82-0.237,6.347
					c-3.176,4.858-4.914,10.723-12.742,12.597c-7.975,1.91-14.379,7.353-18.167,14.626c-1.027,1.972-2.879,2.536-5.068,3.839
					c-1.672-4.849-3.253-9.269-4.722-13.727c-6.03-18.306-13.176-36.135-22.289-53.153c-5.348-9.987-11.765-19.183-19.432-27.527
					c-1.381-1.503-3.459-2.582-3.62-4.915c0.728-1.966,2.511-2.663,4.023-3.599c10.2-6.318,20.843-11.792,31.833-16.6
					c48.871-21.385,100.412-31.218,153.293-34.434c40.733-2.477,81.383-0.911,121.693,6.203
					c24.353,4.298,48.219,10.312,71.456,18.908c5.87,2.171,9.758,5.456,12.818,10.798c10.866,18.971,19.536,38.912,27.138,59.356
					c1.771,4.761,3.332,9.609,5.315,14.279c1.839,4.331,4.474,6.13,7.128,5.551c3.054-0.666,4.06-4.265,2.258-9.323
					c-7.681-21.553-15.929-42.873-26.546-63.196c-5.224-10-11.215-19.549-17.945-28.563c-13.999-18.748-32.426-32.116-53.253-42.325
					c-10.427-5.111-21.142-9.585-32.094-13.48c-15.071-5.359-29.664-11.795-43.653-19.577
					c-18.941-10.536-35.495-23.885-49.186-40.805c-11.449-14.147-22.072-28.857-31.753-44.256
					c-10.902-17.341-18.96-35.974-24.32-55.692c-8.806-32.394-9.425-65.331-5.277-98.431c3.121-24.905,8.559-49.372,15.173-73.566
					c3.921-14.343,6.781-28.987,12.267-42.894c6.132-15.545,12.874-30.815,20.297-45.782c2.745-5.533,5.795-10.896,9.81-15.661
					c8.442-10.019,16.038-20.682,23.286-31.57c19.122-28.726,38.075-57.564,57.126-86.338c1.084-1.637,1.55-4.161,4.561-3.745
					c1.648,4.381,3.222,8.829,4.982,13.202c8.099,20.129,19.525,38.098,34.944,53.443c6.47,6.439,13.524,12.139,21.619,16.428
					c2.553,1.353,5.198,2.672,7.955,3.47c4.213,1.219,8.218-2.714,7.137-6.902c-0.537-2.082-1.502-4.086-2.499-6.007
					c-2.174-4.189-4.56-8.269-6.741-12.455c-13.089-25.11-21.395-51.602-22.757-80.036c-0.243-5.069,0.079-10.165,0.129-15.248
					c0.008-0.842,0.468-1.397,1.367-1.206c0.612,0.13,1.369,0.586,1.639,1.112c0.66,1.284,1.043,2.706,1.592,4.05
					c16.383,40.076,41.475,73.973,73.286,103.069c9.673,8.848,19.991,16.882,31.402,23.408c3.143,1.798,6.404,3.402,9.673,4.963
					c1.738,0.83,3.464,0.595,5.092-0.606c2.029-1.497,2.373-3.541,2.07-5.786c-0.356-2.648-2.188-4.535-3.659-6.589
					c-5.924-8.272-11.984-16.449-17.78-24.81c-15.588-22.491-24.191-47.75-29.168-74.416h0c-2.449-3.264-1.875-7.214-2.474-10.897
					l0,0c-1.45-2.493-1.927-5.072-1.921-7.793c0.007-2.701,4.129-2.938,4.372-0.248c0.042,0.461,0.043,0.942,0.004,1.445
					c0.182,3.014,2.831,5.386,2.24,8.602c0,0,0,0,0,0s0,0,0,0c0.886,1.981,1.81,3.947,2.652,5.948
					c6.909,16.408,14.228,32.598,23.403,47.915c17.643,29.457,41.432,53.233,68.151,74.34c1.704,1.347,3.582,2.479,5.421,3.646
					c2.008,1.274,4.118,1.503,6.068-0.036c1.85-1.461,2.695-3.559,2.057-5.797c-0.69-2.419-1.745-4.76-2.857-7.028
					c-12.388-25.277-21.297-51.693-25.414-79.573c-2.022-13.7-2.971-27.51,1.314-41.071c0.5-1.582,0.249-4.123,2.811-3.769
					c1.664,0.23,1.122,2.3,1.271,3.56c2.388,20.311,7.324,40.001,14.735,59.033c10.419,26.758,22.274,52.89,36.198,78.006
					c12.349,22.275,25.92,43.79,43.25,62.663c1.708,1.861,3.472,3.689,5.374,5.345c1.136,0.988,2.582,1.046,4.05,0.326
					c1.459-0.717,2.416-1.91,2.31-3.377c-0.182-2.516-0.558-5.067-1.253-7.488c-9.431-32.854-8.585-66.062-3.495-99.414
					c0.377-2.47,0.785-5.049,3.325-7.219c1.697,9.164,3.317,18.032,4.983,26.892c4.495,23.912,8.759,47.87,14.955,71.428
					c6.106,23.218,13.024,46.127,24.597,67.35c1.734,3.181,3.011,6.614,4.793,9.765c1.426,2.523,4.479,2.846,6.514,0.897
					c1.305-1.25,2.383-2.735,3.631-4.05c7.034-7.41,14.681-14.098,23.344-19.563c5.863-3.699,12.054-6.705,18.746-8.605
					c19.071-5.417,33.927,1.703,41.538,19.929c1.824,4.368,2.985,8.909,3.877,13.576c2.574,13.47,1.555,26.888-0.992,40.122
					c-6.297,32.718-20.168,62.051-41.146,87.922c-10.364,12.782-22.155,24.059-36.871,31.879c-7.652,5.17-4.441,13.134-4.727,19.923
					c-1.83,43.43-40.999,68.408-79.499,50.449c-2.301-1.074-4.564-2.271-7.209-1.163c-2.143,6.164-4.236,12.345-6.437,18.488
					c-5.863,16.366-5.096,32.708-0.68,49.306c7.404,27.832,19.948,52.898,38.439,75.017c18.466,22.088,37.671,43.401,61.477,59.996
					c19.373,13.504,38.789,26.942,59.794,37.881c6.496,3.383,6.529,3.581,3.657,9.836c-6.546,14.254-14.713,27.542-24.192,40.027
					c-16.833,22.17-36.747,41.231-58.979,57.877c-46.328,34.688-98.016,57.813-154.32,70.69
					c-39.644,9.068-79.699,12.031-120.195,6.926c-32.5-4.097-63.133-13.434-90.505-32.017c-1.199-0.814-2.438-1.611-3.753-2.206
					c-2.365-1.069-4.23-0.056-5.69,1.8c-1.611,2.048-1.223,4.184,0.421,5.9c1.487,1.552,3.253,2.882,5.042,4.094
					c7.834,5.307,16.12,9.807,24.723,13.748c30.886,14.151,63.602,20.097,97.281,21.263c42.534,1.472,84.069-4.984,124.649-17.422
					c53.385-16.362,102.179-41.503,144.852-77.828c29.954-25.497,54.961-54.94,71.092-91.26c0.558-1.258,1.618-2.293,2.619-3.674
					c9.857,4.413,19.615,8.367,29.005,13.059c30.909,15.447,60.59,32.991,88.778,53.018c41.511,29.493,82.021,60.258,120.007,94.243
					c20.321,18.181,41.171,35.783,60.521,55.028c8.235,8.19,16.21,16.636,23.741,26.042c-3.335,3.581-6.143,6.692-9.284,9.84
					c-9.283,9.3-18.39,18.774-27.177,28.545c-36.864,40.991-73.802,81.917-109.063,124.324
					c-22.146,26.634-41.9,54.883-58.762,85.105c-13.425,24.062-21.575,49.983-24.692,77.347c-1.066,9.36-1.022,18.869-1.078,28.312
					c-0.03,5.032,1.787,7.361,4.542,7.561c2.856,0.207,4.596-2.259,4.985-7.093c0.058-0.724,0.038-1.455,0.087-2.18
					c0.608-9.065,0.988-18.152,1.884-27.189c1.733-17.48,6.732-34.155,13.127-50.445c0.386-0.982,0.844-1.979,2.147-1.625
					c1.344,0.366,1.282,1.648,1.323,2.672c0.77,19.27,3.197,38.392,5.132,57.557c2.41,23.867,4.802,47.736,7.237,71.601
					c2.583,25.309,5.457,50.591,7.747,75.926c2.719,30.069,6.884,59.934,12.471,89.574c4.371,23.188,9.654,46.205,14.544,69.295
					c0.149,0.704,0.327,1.432,0.659,2.062c0.536,1.017,1.449,1.514,2.632,1.414c4.405-0.37,6.157-2.504,5.505-6.895
					c-0.586-3.949-1.213-7.897-1.971-11.816c-4.897-25.314-10.845-50.412-14.82-75.922c-4.31-27.665-7.994-55.379-10.125-83.301
					c-0.774-10.145-1.931-20.262-2.999-30.382c-1.793-16.988-3.697-33.963-5.478-50.953c-2.69-25.663-5.407-51.324-7.931-77.004
					c-1.6-16.28-2.933-32.583-3.304-48.959c-0.144-6.371,1.202-11.882,4.6-17.452c14.794-24.249,31.093-47.372,49.201-69.264
					c32.919-39.798,67.572-78.073,101.91-116.628c12.582-14.127,25.569-27.86,39.048-41.128c1.73-1.703,3.004-4.119,6.16-4.538
					c4.363,3.32,6.535,8.351,8.801,13.255c3.976,8.606,6.699,17.659,8.708,26.894c7.047,32.391,10.117,65.333,13.039,98.266
					c1.542,17.374,2.226,34.826,3.166,52.25c2.233,41.4,3.717,82.809,2.298,124.287c-1.38,40.334-2.419,80.681-3.544,121.023
					c-0.913,32.712-1.452,65.438-2.69,98.137c-0.867,22.894-1.99,45.769-1.462,68.687c0.042,1.817,0.069,3.634,0.105,5.452
					c0.074,3.66,2.311,5.947,5.035,7.924c1.137,0.826,3.316,0.201,3.481-1.062c0.233-1.788,0.446-3.591,0.474-5.39
					c0.162-10.54,0.05-21.088,0.434-31.619c1.088-29.791,2.565-59.568,3.528-89.362c1.233-38.158,1.819-76.338,3.225-114.489
					c1.514-41.071,2.199-82.142,1.648-123.232c-0.429-32.001-2.296-63.94-4.255-95.876c-2.094-34.13-5.906-68.069-11.419-101.8
					c-3.114-19.056-7.801-37.704-17.788-54.584c-0.437-0.738-0.056-1.959-0.056-3.182c20.33-0.511,39.72-5.239,58.709-11.584
					c30.822-10.299,56.385-28.175,75.84-54.374c3.214-4.328,6.054-9.026,8.417-13.871
					C1961.199,1303.472,1959.7,1296.263,1954.742,1291.851z M566.18,1360.807c-7.228,9.104-14.795,17.941-22.304,26.817
					c-1.149,1.358-2.737,2.378-4.22,3.415c-24.111,16.87-48.234,33.722-72.374,50.551c-1.135,0.792-2.449,1.328-3.653,1.969
					c-1.765-2.466-0.53-4.53,0.187-6.467c10.374-28.014,22.983-54.932,39.843-79.69c11.336-16.646,24.795-31.322,41.294-43.046
					c4.158-2.954,8.513-5.525,13.297-7.38c2.751-1.067,4.934-0.37,6.97,1.489c5.709,5.211,7.815,12.151,8.903,19.408
					C575.922,1339.865,573.857,1351.137,566.18,1360.807z M812.995,1245.566c4.925,4.673,9.592,9.102,14.282,13.552
					c-0.891,0.821-1.33,1.535-1.941,1.742c-13.21,4.484-26.75,6.57-40.719,5.525c-0.935-0.069-1.511-0.318-1.4-1.25
					c0.078-0.653,0.242-1.585,0.694-1.863C793.49,1257.379,803.114,1251.561,812.995,1245.566z M798.388,1218.915
					c1.871,6.25,4.824,12.017,8.223,18.083c-1.996,1.518-2.971,2.632-5.367,3.084c-9.632,1.817-18.416,6.604-24.838,14.009
					c-6.16,7.104-10.198,8.319-14.782,4.911c-3.228-2.399-6.106-5.063-8.244-8.492c-3.904-6.26-3.514-7.938,3.125-11.742
					c12.53-7.177,25.099-14.284,37.654-21.417C796.182,1216.202,797.793,1216.928,798.388,1218.915z M795.026,1171.193
					c-0.216,3.847-0.475,7.308-0.589,10.774c-0.132,3.98-0.157,7.964-0.19,11.947c-0.029,3.612-0.006,7.224-0.006,11.507
					c-13.754,8.096-28.02,16.334-42.936,24.355c0.213-8.854,2.038-13.986,8.14-23.732
					C768.369,1191.791,782.489,1177.828,795.026,1171.193z M867.207,946.359c-2.169,0.061-8.359-9.298-8.882-11.454
					c-0.757-0.447-8.461-12.288-9.354-14.76c0,0,0,0,0-0.001c-2.355-1.81-3.353-4.368-3.918-7.166
					c-0.926-1.881-2.344-4.765-3.27-6.646c-2.146-2.388-2.976-5.339-3.273-8.516c-0.375-0.56-0.497-1.17-0.367-1.832h0
					c-2.746-3.261-3.103-7.338-3.851-11.281c-0.233-1.244-0.466-2.487-0.699-3.731c-2.744-5.025-3.557-10.493-3.651-16.125
					c-0.443-2.139-1.137-5.487-1.58-7.626c-1.193-3.062-1.143-6.297-0.705-9.586c-1.075-15.213-1.026-30.424,0.079-45.632
					c0.252-0.227,0.345-1.611-0.038-2.193c-0.371-9.38,1.588-18.575,2.231-27.874c0.806-6.287,1.611-12.558,2.417-18.844
					c2.177-10.804,1.351-21.877,2.321-32.79c1.886,7.948,2.08,25.325,0.773,31.969c-0.124,0.631-5.159,74.962-3.982,91.233
					c0.155,2.139,0.038,4.478-0.043,6.634c0.266,3.37,0.532,6.739,0.798,10.108c2.366,5.625,2.719,11.656,3.584,17.584
					c0.506,1.655,1.313,4.291,1.819,5.945c1.601,3.063,2.164,6.461,2.692,9.869c0,0,0,0-0.001,0.001c0,0,0,0,0.001-0.001
					c0.398,0.527,0.561,1.118,0.49,1.775c2.608,2.508,2.961,5.936,3.749,9.187c0,0,0,0,0,0c0,0,0,0,0,0
					c0.864,2.121,1.728,4.241,2.591,6.362l0,0c2.26,1.703,2.81,4.32,3.632,6.791h0c1.476,2.857,2.952,5.715,4.428,8.573h0
					c1.555,1.793,3.253,3.512,3.225,6.137l-0.003,0.002C859.978,932.665,867.611,945.543,867.207,946.359z M990.457,358.723
					c-0.953,1.001-1.816,2.178-3.422,2.149c-1.809,1.855-3.757,3.499-6.338,4.186c-2.074,1.967-4.24,3.792-7.082,4.569
					c0,0-0.001,0-0.001,0c0,0,0,0,0.001,0c-1.044,1.446-2.265,2.619-4.188,2.704h0c-0.298,1.263-1.196,1.825-2.388,2.041
					c-2.19,3.081-5.368,4.88-8.587,6.626l0,0v0c-3.346,3.248-6.771,6.397-10.871,8.702c-4.772,4.747-9.518,9.524-15.301,13.089
					c0,0,0,0-0.001,0c0,0,0,0,0,0c-0.453,1.101-1.189,1.854-2.437,1.974c-0.234,1.228-1.043,1.913-2.171,2.296
					c-8.236,9.156-16.846,17.941-26.011,26.174c0,0,0,0-0.001,0c0,0,0,0,0,0c-0.692,0.754-1.385,1.509-2.076,2.261
					c-3.56,5.808-8.311,10.607-13.054,15.414c-2.379,4.088-5.203,7.826-8.701,11.031c-0.001,0-0.001,0-0.002,0
					c0,0,0.001,0.001,0.001,0.001c-0.929,2.496-2.499,4.534-4.487,6.272c-1.524,3.458-3.457,6.633-6.321,9.167
					c-0.001,0-0.001,0-0.002,0c0,0,0.001,0.001,0.001,0.001c0.041,0.814-0.299,1.412-1.022,1.792
					c-0.337,0.758-0.797,1.431-1.399,2.004c-0.152,1.314-0.809,2.283-1.978,2.905c-0.053-0.063-0.106-0.126-0.159-0.189
					c-0.003,0.007-0.005,0.014-0.009,0.021c0.135,0.726-0.127,1.253-0.787,1.583c-0.519,0.768-1.032,1.54-1.537,2.317
					c-0.113,1.781-1.253,2.963-2.409,4.136c-0.88,0.836-1.714,1.7-1.81,3.008c-3.576,7.268-7.152,14.535-10.728,21.803
					c-0.001,0-0.001,0-0.002,0c0,0,0.001,0.001,0.001,0.001c-0.103,2.953-1.643,5.371-2.942,7.879
					c-0.682,2.421-1.059,4.988-2.13,7.222c-1.094,2.283-0.48,5.782-4.089,6.504c-1.489-2.405-0.841-4.984-0.204-7.352
					c1.023-3.807,1.906-7.731,4.347-11.002c0,0,0,0,0,0l0,0c-0.085-2.422,1.153-4.323,2.445-6.203
					c3.074-9.439,7.791-18.048,13.262-26.278c0.058-0.075,0.121-0.147,0.182-0.222c0.087-0.896,0.606-1.513,1.342-1.989
					c0.046-0.118,0.105-0.227,0.137-0.354c0.337-0.637,0.674-1.273,1.011-1.91c0.308-0.738,0.742-1.39,1.324-1.941l0.094-0.169
					c0.069-0.005,0.134-0.008,0.201-0.012c0.273-1.77,1.515-2.943,2.65-4.182c0.478-0.734,0.993-1.442,1.539-2.127l0.045-0.143
					c1.529-3.413,3.355-6.618,6.331-9.016c0,0,0.001,0,0.001,0c0,0-0.001,0-0.001-0.001c0.947-2.457,2.402-4.542,4.51-6.148
					c2.158-4.247,5.038-7.93,8.638-11.049c3.843-5.539,7.796-10.98,13.306-15.044c0.323-1.095,0.882-1.936,2.157-2.008l0-0.288
					c7.595-9.825,16.289-18.551,26.125-26.136l0.291-0.007c0.186-1.28,0.997-1.893,2.211-2.075c0.133-1.257,0.967-1.854,2.068-2.203
					c4.113-5.438,9.544-9.386,15.022-13.279c3.112-3.585,6.76-6.5,10.941-8.747c2.468-2.774,5.279-5.061,8.856-6.268
					c1.112-1.325,2.351-2.438,4.211-2.508c0,0,0,0,0.001,0.001c0,0,0-0.001,0-0.001c0.358-1.334,1.31-1.836,2.604-1.857
					c2.209-2.46,4.817-4.282,8.085-5.045c0.001,0,0.002,0.001,0.004,0.002c-0.001-0.001-0.001-0.002-0.002-0.004
					c1.814-2.176,4.05-3.593,6.937-3.831c0.779-0.616,1.486-1.401,2.367-1.775c0.441-0.187,1.201,0.377,1.817,0.602
					C990.742,358.11,990.677,358.491,990.457,358.723z M1453.113,405.939c-0.457,0.78-1.104,0.85-1.628,0.081
					c-0.743-1.092-1.361-2.271-2.032-3.412c-0.677-1.493-1.354-2.985-2.031-4.478l0,0c-0.704-1.432-1.408-2.863-2.112-4.294
					c0,0,0,0,0,0c0,0,0,0,0-0.001c-1.379-2.155-2.758-4.311-4.136-6.466c0,0,0,0,0.001-0.001h-0.001
					c-0.272-0.713-0.546-1.428-0.819-2.142c-2.195-0.512-2.541-2.498-3.309-4.147c-2.024-1.97-3.855-4.074-4.744-6.831
					c-0.494-0.649-0.988-1.298-1.482-1.947c-1.86-0.917-2.858-2.537-3.572-4.387c-2.78-2.441-4.86-5.41-6.547-8.675c0,0,0,0,0,0l0,0
					c-2.877-3.689-5.755-7.379-8.632-11.068l0,0h0c-3.183-3.395-6.657-6.551-8.798-10.794c0,0,0,0,0-0.001c0,0,0,0,0,0
					c-0.648-0.757-1.296-1.514-1.943-2.27c-8.866-7.905-17.683-15.867-26.62-23.69c-4.314-3.777-8.856-7.295-13.294-10.93l0,0h0
					c-1.267-0.664-2.619-1.205-3.79-2.009c-28.447-19.524-59.558-32.756-93.371-39.633c-1.056-0.215-2.086-0.563-3.127-0.85
					c-1.578,0.399-2.972,0.127-4.12-1.084c-2.148-0.255-4.295-0.51-6.442-0.765c-7.227-0.759-14.453-1.518-21.679-2.276
					l-2.026,0.029c0,0-0.001,0-0.001,0c-12.434,0.038-24.87,0.076-37.305,0.114c0,0,0,0,0,0c-1.55,0.036-3.1,0.072-4.654,0.108
					c0.001-0.001,0.002-0.002,0.002-0.003c-0.002,0.001-0.004,0.002-0.006,0.003c-1.851,0.126-3.702,0.252-5.553,0.378
					c-0.007,0.004-0.014,0.005-0.022,0.009c-2.993,1.566-6.184,2.046-9.524,1.684c-4.369,0.5-8.493,2.521-13.01,2.101
					c-2.036,0.238-4.072,0.475-6.108,0.713l-0.161,0.146c-2.579,2.165-5.726,1.885-8.773,2.038
					c-2.487,2.328-5.736,1.904-8.725,2.419c-1.72,2.258-4.313,1.818-6.654,2.164c-0.001-0.001-0.002-0.002-0.003-0.004
					c0,0.002,0,0.003,0,0.005c-2.538,2.268-5.94,2.142-8.91,3.211l0,0c-2.738,0.986-5.475,1.971-8.213,2.957
					c-2.572,2.55-5.729,3.811-9.278,4.206c-0.013,0.007-0.844,0.473-0.844,0.473s-3.418,2.059-5.103,2.334h0
					c-1.564,2.088-6.153,4.071-6.153,4.071c0.001,0,0.002,0.001,0.003,0.001c-0.363,1.417-7.048,7.732-7.633,8.19
					c-0.901,1.482-1.72,3.027-2.764,4.401c-0.246,0.324-1.375,0.295-1.865,0.017c-0.428-0.243-0.836-1.137-0.721-1.618
					c0.503-2.115,1.506-3.951,3.643-4.894c1.177-1.506,2.145-3.24,4.173-3.813c0,0,0.001,0,0.001,0.001c0,0,0-0.001,0-0.001
					c0.297-1.075,0.896-1.829,2.085-1.954c0.001,0,0.001,0,0.002,0.001c0-0.001,0-0.001,0-0.002
					c0.587-0.381,1.176-0.763,1.763-1.144c1.548-2.847,4.196-4.259,7.049-5.405c0,0,0,0,0,0c1.314-1.078,2.531-2.333,4.399-2.392
					c0.686-0.367,1.37-0.734,2.056-1.102c0,0,0,0,0.001,0c1.643-2.212,4.09-2.854,6.596-3.38c0.001,0,0.003,0.001,0.004,0.002
					c-0.001-0.001-0.002-0.001-0.003-0.002c2.603-1.14,14.033-6.317,17.546-6.774c2.161-0.886,4.108-2.489,6.681-1.999
					c3.426-1.235,6.711-3.052,10.555-2.573c0,0,0.001,0.001,0.001,0.001c0,0,0-0.001,0-0.001c-0.001,0,0.108-0.01,0.109-0.01
					c2.444-2.283,5.55-2.165,8.567-2.368c2.934-2.356,6.347-2.376,9.837-2.017c0,0,0,0,0,0c2.334-2.004,5.092-2.166,7.966-1.834
					c0,0,0,0,0,0c0.001,0,0.001,0,0.002,0c2.005-0.268,4.009-0.535,6.013-0.803c1.955-1.556,4.163-1.629,6.47-1.13
					c4.51-0.292,9.02-0.583,13.53-0.874c10.946-2.009,21.888-2.132,32.834-0.067c7.529,0.268,15.147-0.339,22.434,2.292
					c0.001,0,0.001,0,0.002,0c-0.002,0,1.329,0.204,1.329,0.204c0.001,0,0.001,0.001,0.002,0.001c0,0,0-0.001,0-0.001
					c4.22,0.033,8.533-0.442,12.29,2.193c0,0,0,0,0.001,0c4.456-0.678,8.559,0.936,12.771,1.918
					c31.828,7.423,60.636,21.421,87.32,40.048c0.563,0.394,0.928,1.072,1.385,1.618c15.024,9.506,28.314,20.95,39.197,35.083
					c1.168,0.298,1.778,1.12,2.092,2.22c3.856,2.857,6.425,6.774,8.874,10.789c3.337,3.292,6.257,6.908,8.553,11.009
					c2.529,2.628,5.029,5.276,6.251,8.829c0,0,0,0,0,0c0,0,0,0,0,0c0.384,0.643,0.768,1.287,1.152,1.93
					c1.88,0.962,2.956,2.501,3.285,4.577c0.303,0.634,0.606,1.268,0.909,1.901c0,0,0.001,0,0.001,0
					c2.43,1.496,3.675,3.79,4.358,6.463c0,0-0.001,0.001-0.001,0.001c0.001,0,0.002,0,0.002,0c1.945,0.968,2.804,2.688,3.242,4.698
					l0,0c0.294,0.668,0.589,1.335,0.885,2.001c0.002,0.002,0.004,0.004,0.006,0.006c2.405,1.588,3.762,3.778,3.846,6.698
					c2.255,0.601,2.307,2.522,2.584,4.309c2.157,0.693,2.09,2.619,2.404,4.334c0,0-0.001,0-0.001,0.001
					c0.486,0.811,1.011,1.603,1.427,2.448C1453.461,405.26,1453.267,405.675,1453.113,405.939z M1552.074,1131.011
					c-2.146-0.604-4.274-1.233-4.99-3.744c-0.686,0.041-1.228-0.216-1.628-0.771c-1.945-0.791-4.681-2.958-4.682-2.958l-0.28-0.419
					c0.001-0.02-0.167-0.325-0.167-0.344c-0.695-0.13-0.922-0.428-1.617-0.556c-1.386-0.682-2.771-1.365-4.157-2.046c0,0,0,0,0,0
					c-2.147-0.519-4.188-1.189-5.026-3.558c-0.65-0.094-1.153-0.41-1.512-0.953c-2.117-0.665-5.535-3.396-5.535-3.396l-0.65-0.389
					c-1.5-0.031-3.936-2.179-3.936-2.179s-0.744-0.605-0.749-0.609c-2-0.778-6.08-4.157-6.746-4.299
					c-1.415-0.696-2.83-1.392-4.245-2.087c-2.134-0.537-4.21-1.155-5.034-3.548c-0.641-0.059-1.121-0.361-1.447-0.91
					c-2.168-0.62-5.692-3.4-5.692-3.4s-0.483-0.377-0.483-0.377c0,0,0,0,0,0c-1.494-0.03-2.686-0.484-3.013-2.15
					c-0.725,0.16-1.298-0.063-1.719-0.668c-2.033-0.737-5.907-3.642-5.907-3.642l-0.724-0.657c-2.231-0.504-4.195-1.407-5.309-3.571
					l0.002-0.001c-0.007,0.001-0.738-0.116-0.738-0.116c-1.494-0.099-2.762-0.513-3.099-2.223c-0.732,0.185-1.299-0.039-1.701-0.672
					c-2.111-0.613-4.247-1.192-5.034-3.638c-0.032,0-1.555-0.624-1.555-0.624c-2.247-0.463-4.176-1.375-5.144-3.644
					c-0.033,0-1.373-0.614-1.373-0.614c-2.311-0.424-5.972-3.707-5.972-3.707l-0.557-0.647c-2.271-0.472-4.141-1.468-4.987-3.807
					c-0.691-0.36-1.378-0.719-2.066-1.077c-0.972,0.064-1.46-0.444-1.607-1.357c-2.328-0.532-4.126-1.727-5.037-4.029
					c-0.673-0.408-1.344-0.814-2.015-1.22c-0.627-0.465-1.254-0.929-1.882-1.394c-2.931-0.999-5.089-2.955-6.782-5.485
					c0,0,0-0.001,0-0.001c-1.097-0.583-2.209-1.153-2.464-2.55c-1.831-0.362-3.03-1.487-3.801-3.132
					c-1.345-0.194-2.081-1.075-2.549-2.259c-1.294-0.083-1.864-0.948-2.22-2.045c-1.298-0.099-1.883-0.947-2.198-2.08
					c-1.281-0.116-1.872-0.925-2.11-2.092c0-0.001,0-0.002,0-0.003c-0.001,0-0.001,0.001-0.002,0.001
					c-1.989-0.745-3.355-2.104-4.057-4.118c0.001-0.001,0.001-0.002,0.002-0.003c-0.001,0-0.002,0-0.003,0.001
					c-1.147-0.321-1.982-0.937-2.085-2.235c0.001,0,0.001-0.001,0.002-0.002c-0.001,0-0.002,0-0.004,0
					c-1.096-0.341-1.947-0.91-2.014-2.193c-1.121-0.404-1.952-1.069-2.101-2.344c0-0.001,0.001-0.001,0.001-0.002
					c0,0-0.001,0.001-0.001,0.001c0.001,0.001-0.383-0.467-0.383-0.468c0,0,0,0,0,0c-0.381-0.219-0.607-0.442-0.709-0.669
					c-0.477-0.45-0.953-0.899-1.429-1.348l0,0c-3.134-2.022-5.124-4.997-6.829-8.208h0c-2.763-2.511-4.812-5.523-6.282-8.941l0,0
					c-1.847-1.924-3.445-3.997-4.024-6.684c-0.594-0.386-0.836-0.929-0.727-1.629c0,0,0,0,0,0c0,0,0,0,0,0
					c-3.083-3.207-4.72-7.176-5.979-11.344c-1.061-2.082-2.679-3.97-2.276-6.559c-1.666-3.232-2.838-6.595-2.738-10.295
					c-1.582-1.748-1.7-3.959-1.865-6.123c-0.86-11.288-0.865-22.518,2.468-33.499c0,0,0.001,0,0.001,0c0,0,0,0-0.001,0
					c0.118-1.485,0.702-2.689,2.396-2.395c1.804,0.313,1.603,1.858,1.306,3.118c-0.302,1.287-0.894,2.504-1.359,3.752
					c-0.215,10.106-0.429,20.212-0.644,30.319c0.889,4.209,1.779,8.419,2.668,12.629c1.923,1.594,2.224,3.817,2.366,6.101
					c1.911,3.952,3.822,7.903,5.733,11.854c0.565,0.399,0.789,0.939,0.673,1.621c2.295,1.634,3.321,4.095,4.294,6.591
					c2.814,2.533,4.627,5.779,6.428,9.033c2.593,2.617,5.166,5.249,6.542,8.773c0.647,0.875,1.294,1.749,1.94,2.622
					c1.631,0.7,2.668,1.913,3.131,3.622c0,0,0,0-0.001,0.001c0,0,0.001,0,0.001,0c1.257,0.225,1.84,1.065,2.045,2.249
					c1.294,0.174,1.892,1.018,2.123,2.212c1.213,0.02,1.776,0.67,1.798,1.849c1.214,0.243,2.016,0.896,2.174,2.188
					c1.215,0.248,2.029,0.891,2.173,2.198c1.213,0.229,2.053,0.836,2.192,2.156c1.217,0.206,2.068,0.794,2.213,2.119
					c1.433,0.306,2.393,1.136,2.835,2.545c-0.003,0-0.006,0-0.009,0c0.004,0,0.007,0.001,0.011,0.001
					c0.79-0.131,1.237,0.2,1.342,0.994c0.68,0.527,1.36,1.055,2.04,1.583c2.851,1.206,5.089,3.13,6.737,5.747c0,0,0,0.001,0,0.001
					c1.13,0.393,2.174,0.876,2.342,2.265c0.69,0.43,1.38,0.859,2.072,1.29c0,0,0,0.001-0.001,0.002c0.001,0,0.002-0.001,0.003-0.001
					c1.74,0.706,3.448,1.45,4.135,3.426c0.001,0,0.001,0.001,0.001,0.001l0,0c1.271,0.059,2.256,0.478,2.416,1.93
					c0.742,0.415,1.484,0.83,2.229,1.247c0,0-0.001,0.001-0.001,0.002c0.001,0,0.002,0,0.004,0c1.674,0.759,2.687,1.943,4.131,3.369
					c0.001,0,0.001,0.001,0.001,0.001c0,0,0,0,0,0c1.368,0.046,2.256,1.622,2.712,2.018c0.343,0.324,3.25,0.649,3.821,2.549
					c0,0,0,0,0.001,0c1.382-0.104,2.375,0.346,2.626,1.851c-0.09,0.06-0.085,0.064,0.003,0c1.811,0.092,3.344,0.606,3.911,2.583
					c0,0,0,0,0,0c1.422-0.167,2.427,2.01,2.73,1.815c1.797,0.021,3.389,0.354,3.805,2.488c0,0,0,0,0.001,0
					c0.831,0.272,1.662,0.544,2.494,0.816c0.58,0.44,1.159,0.88,1.739,1.32c0.001,0.001,0.001,0.002,0.002,0.002
					c0,0,0-0.001-0.001-0.001c1.296,0.044,2.348,0.387,2.39,1.96c1.942,0.087,10.353,4.604,10.823,6.892c0,0,0,0,0,0
					c0.859,0.236,1.536,0.601,2.395,0.837c0.552,0.443,1.287,0.757,1.839,1.201c0.001,0.001,0.002,0.002,0.003,0.003
					c0-0.001,0-0.001-0.001-0.002c1.287,0.08,2.384,0.388,2.382,2.001c1.96,0.05,3.664,0.515,4.32,2.673
					c0,0,1.419,0.188,2.129,0.282c0,0,0,0.001,0,0.001c0,0,0.001,0,0.002,0c1.785,0.676,3.806,1.022,4.495,3.226
					c0.001,0,0.001,0.001,0.002,0.001c1.717,0.606,3.402,1.256,4.241,3.074c0,0,8.268,4.745,9.116,4.958
					c0.565,0.435,1.13,0.87,1.695,1.305c0.001,0,0.001,0.001,0.002,0.002c0,0,0-0.001-0.001-0.002
					c1.311,0.063,8.079,4.845,8.776,4.914c0,0,0,0.001,0,0.001c0.001,0,0.001,0,0.002,0c1.77,0.754,3.895,1.034,4.497,3.354
					c0.001,0,0.001,0.001,0.002,0.001c1.797,0.453,3.247,1.401,4.248,2.987l0-0.004c1.663,0.594,3.973,2.184,3.973,2.184
					c0.001,0.016,1.88,0.215,2.629,2.256c1.493-0.438,2.325,0.273,2.805,1.607c0.005,0,0.005,0,0.005,0
					c1.821-0.241,3.292,0.118,3.761,2.195c0,0,0,0,0,0c0.848,0.19,1.902,0.216,1.812,1.434
					C1553.551,1130.701,1552.595,1130.84,1552.074,1131.011z M1597.019,907.401c-0.447-0.046-0.8-1.006-1.195-1.552
					c-1.734-0.473-2.179-1.763-2.129-3.365c-2.311-2.073-3.141-4.876-3.827-7.751c-1.385-3.612-2.771-7.225-4.156-10.837l0,0
					c-0.735-2.173-1.47-4.345-2.205-6.518c-0.372-1.386-0.744-2.772-1.117-4.158c0,0-0.001,0-0.001-0.001
					c-2.438-2.531-2.719-5.843-3.281-9.054c-0.601-2.911-2.675-5.43-2.291-8.604c-0.289-1.378-0.579-2.757-0.868-4.135c0,0,0,0,0,0
					c-2.175-3.301-2.913-7.047-3.416-10.865c-0.014,0.018-0.028,0.035-0.042,0.052c-0.547-0.532-0.708-1.162-0.485-1.892
					c0.061-0.151,0.109-0.308,0.157-0.465c-0.052,0.035-0.099,0.073-0.157,0.105c-2.495-4.154-3.181-8.818-3.805-13.5l0,0
					c-0.228-1.254-0.456-2.507-0.684-3.761c-2.597-4.923-3.693-10.228-4.007-15.732c-0.84-2.875-2.521-5.562-1.972-8.75
					c-0.242-1.215-0.484-2.43-0.726-3.646c-1.955-1.946-1.968-4.396-1.887-6.871l-0.395-0.454l0.307-0.536
					c-0.001-0.001-0.001-0.003-0.002-0.005c0,0,0,0,0,0.001c-1.794-2.399-2.111-5.792-1.949-7.729
					c-0.483-0.442-0.604-0.967-0.363-1.575c0.047-0.149,0.087-0.3,0.121-0.452c-0.042,0.03-0.075,0.063-0.121,0.092
					c-2.608-5.769-2.986-11.995-3.714-18.149c-0.209-1.899-0.418-3.799-0.627-5.699c0,0,0-0.001,0-0.001
					c-1.416-3.025-2.183-6.161-1.6-9.522c0,0,0,0,0,0c-0.19-2.004-0.379-4.009-0.569-6.014c-1.454-2.97-2.083-6.07-1.484-9.365
					c-0.262-3.388-0.524-6.775-0.787-10.163c-2.507-6.241-2.084-12.823-2.246-19.337c-2.478-8.895-2.471-18.109-3.493-27.192
					c-0.171-2.868-0.341-5.737-0.512-8.605c-2.492-4.658-2.201-9.782-2.48-14.81c-2.778-5.597-2.671-11.775-3.597-17.746
					c-0.016,0.018-0.031,0.035-0.046,0.052c-0.153-2.118-0.306-4.236-0.458-6.354c0.092-0.001,0.185-0.004,0.277-0.005
					c-0.092-0.1-0.184-0.216-0.277-0.355c-2.451-3.279-2.433-7.063-2.226-10.886c-3.044-3.889-2.323-8.83-3.686-13.188h0
					c-0.165-1.303-0.33-2.605-0.495-3.908c-0.018-0.025-0.036-0.043-0.055-0.07c-2.1-2.408-2.348-5.352-2.416-8.348
					c0.133-0.157,0.265-0.313,0.397-0.471c-0.121,0.047-0.249,0.088-0.397,0.111c-2.845-3.31-2.505-7.626-3.629-11.481
					c-0.723-2.854-1.446-5.709-2.169-8.563c-0.326-1.406-0.651-2.813-0.977-4.218c0,0,0,0,0,0c-2.816-2.38-2.226-6.014-3.322-9.027
					h0c-0.274-1.269-0.547-2.537-0.821-3.806c-2.573-2.507-2.422-6.013-3.361-9.12c-0.026,0.032-0.053,0.064-0.079,0.096
					c-0.92-3.166-1.741-5.994-2.468-8.496c-0.48-0.53-0.663-1.148-0.551-1.853c0.138-0.157,0.261-0.297,0.388-0.441
					c-0.118,0.037-0.24,0.07-0.388,0.081c-2.669-2.374-2.385-5.944-3.609-8.903c-0.032,0.041-0.065,0.081-0.097,0.122
					c-0.709-2.198-1.418-4.397-2.127-6.595v0c-0.509-0.614-0.617-1.292-0.322-2.034c-1.287-1.911-2.567-3.824-2.513-6.272
					c-2.975-4.604-5.087-9.598-6.717-14.812c0,0,0-0.001-0.001-0.002c-2.103-2.01-2.929-4.637-3.553-7.362c0,0,0,0,0,0
					c0.157-0.572,0.207-1.57,0.489-1.64c1.224-0.305,1.539,0.785,1.951,1.636c1.724,0.534,1.846,1.944,1.861,3.411
					c3.586,5.046,6.078,10.607,7.776,16.54c0.974,2.831,2.969,5.307,2.942,8.485c1.952,1.359,2.271,3.397,2.41,5.509
					c0.009-0.002,0.015-0.006,0.024-0.008c2.321,2.795,2.726,6.284,3.495,9.641c-0.235,0.267-0.379,0.615-0.527,0.959
					c0.187-0.213,0.365-0.416,0.527-0.599c0.212,1.372,0.424,2.743,0.636,4.115c2.182,1.368,2.064,3.632,2.332,5.747
					c0.018-0.002,0.03-0.008,0.048-0.01c2.722,2.578,2.47,6.244,3.463,9.455h0c0.229,1.268,0.459,2.535,0.688,3.802
					c2.787,3.274,2.802,7.484,3.831,11.352c0.164,1.405,0.327,2.811,0.491,4.216c2.444,1.466,2.018,3.975,2.266,6.24
					c2.844,3.31,2.56,7.602,3.603,11.478c-0.161,0.262-0.284,0.556-0.411,0.846c0.137-0.162,0.274-0.324,0.411-0.486
					c0.703,3.127,1.48,6.58,2.327,10.35c0.027,0,0.054,0,0.081,0c0.191,1.419,0.381,2.839,0.572,4.259c0,0,0.001,0,0.001,0.001
					c2.971,3.911,2.694,8.729,3.684,13.192c0.687,3.654,2.524,7.071,2.257,10.923c-0.092,0.142-0.185,0.26-0.278,0.364
					c0.093-0.002,0.186-0.002,0.278-0.004c0.13,0.907,0.304,2.129,0.52,3.644c0.018-0.004,0.031-0.012,0.049-0.015
					c2.989,5.634,2.857,11.914,3.724,17.986c0.35,5.821,2.774,11.366,2.304,17.297c0.19,2.017,0.379,4.034,0.569,6.051
					c0.451,0.93,1.19,1.825,1.308,2.796c0.879,7.244,1.634,14.503,2.428,21.757c0,0,0,0,0,0c0,0,0,0,0,0
					c0.511,6.585,2.583,13,2.162,19.688c0.226,2.686,0.452,5.371,0.678,8.056c1.706,2.933,2.047,6.092,1.556,9.39
					c0.188,1.973,0.376,3.946,0.564,5.919c0,0,0,0.001,0.001,0.001c1.313,2.184,1.825,4.539,1.516,7.07
					c0.054,0.739,0.107,1.478,0.161,2.216c0.218,1.915,0.436,3.829,0.653,5.744c2.362,5.878,2.697,12.153,3.575,18.321
					c-0.203,0.23-0.347,0.479-0.458,0.738c0.138-0.13,0.289-0.257,0.458-0.378c0.784,4.45,2.96,8.988,2.773,14.308
					c1.331,2.186,2.183,4.483,1.665,7.103c0,0,0,0-0.001,0.001c0,0,0,0,0.001,0c0.182,1.26,0.364,2.521,0.546,3.781c0,0,0,0,0,0
					c0,0,0,0,0,0c2.16,2.54,2.041,5.671,2.262,8.714c2.467,4.254,2.974,9.022,3.614,13.756c0.232,1.257,0.463,2.514,0.695,3.771
					c2.46,4.228,3.143,8.938,3.7,13.681c-0.218,0.23-0.362,0.493-0.464,0.775c0.136-0.147,0.286-0.287,0.464-0.415
					c0.116,0.88,0.274,2.076,0.471,3.563c0.017-0.004,0.028-0.013,0.045-0.017c2.418,4.149,3.175,8.771,3.82,13.425
					c0.285,1.399,0.569,2.799,0.853,4.199c0,0,0,0,0,0c2.164,1.601,1.838,4.006,2.018,6.248c2.694,3.338,2.636,7.562,3.681,11.431
					c0.194,1.411,0.389,2.821,0.583,4.231c2.455,1.609,2.282,4.092,2.177,6.552c2.645,3.177,3.66,6.99,4.269,10.96
					c1.888,0.677,2.164,2.311,2.366,3.988c0,0,0,0.001,0.001,0.002c2.1,1.888,2.818,4.472,3.547,7.051c0,0,0,0,0.001,0
					C1598.21,906.759,1597.928,907.494,1597.019,907.401z M1848.217,1279.174c-0.619,3.503-2.788,5.544-6.118,6.492
					c-1.838,1.875-4.119,2.645-6.693,2.683c-2.098,2.162-4.716,2.15-7.417,1.794c-0.762,0.039-1.525,0.079-2.287,0.118
					c-3.817,2.66-8.085,2.202-12.35,1.783c0,0,0,0,0-0.001c-0.001,0-0.002,0.001-0.004,0.001
					c-13.59,1.032-27.179,1.826-40.773,0.054c-0.002,0-0.002-0.001-0.004-0.001c0,0,0,0.001,0,0.001
					c-2.348,0.573-4.628,0.286-6.861-0.567c-2.823-0.618-5.646-1.236-8.469-1.854c0,0,0,0,0,0c-2.411-0.271-4.62-0.954-6.199-3.032
					c2.432-1.524,4.487-1.506,5.969,1.248c4.679-0.157,9.293,0.126,13.667,2.026c0.538-0.364,0.982-0.276,1.333,0.266
					c8.611-0.125,17.222-0.25,25.833-0.375c0.003-0.001,0.006-0.001,0.009-0.002c5.14-1.716,10.438-1.775,15.767-1.494
					c0.001,0,0.001,0.001,0.002,0.001c0,0,0-0.001,0-0.001c3.543-0.318,7.089-0.637,10.634-0.956
					c2.181-1.616,4.644-1.759,7.205-1.42c0.001,0.002,0.002,0.003,0.003,0.005c0-0.002,0-0.004,0.001-0.006
					c2.772-0.84,5.544-1.681,8.315-2.521c1.568-1.357,3.136-2.714,4.703-4.069c1.122-4.261-0.708-7.571-3.445-10.564
					c-2.597-2.84-5.233-5.644-7.852-8.463c0,0,0,0,0,0c-1.176-0.446-2.205-1.033-2.338-2.468c-1.396-0.149-2.293-0.862-2.576-2.273
					c0.457-0.196,0.851-0.481,1.183-0.853c-0.395,0.284-0.79,0.568-1.185,0.852c-0.821,0.176-1.351-0.139-1.592-0.943
					c-0.637-0.481-1.274-0.962-1.911-1.443c-0.021,0.03-0.036,0.061-0.057,0.092c-2.934-1.113-5.122-3.115-6.805-5.716
					c0,0,0-0.001,0-0.001c-1.198-0.62-2.372-1.264-2.636-2.775c0.37-0.163,0.684-0.403,0.939-0.72
					c-0.314,0.239-0.628,0.479-0.942,0.718c-0.825,0.207-1.383-0.089-1.676-0.887c-0.841-0.639-1.682-1.278-2.522-1.917
					c-0.999,0.216-1.436-0.302-1.587-1.2c-0.001-0.001-0.002-0.002-0.003-0.003c-1.192-0.484-2.316-1.038-2.498-2.525
					c-1.274-0.175-2.185-0.726-2.244-2.162c-0.046-0.05-0.073-0.096-0.112-0.144c-1.37-0.1-2.115-0.43-2.456-2.077
					c-0.01,0.007-0.02,0.015-0.03,0.022c-0.824,0.188-1.365-0.121-1.622-0.926c-0.81-0.663-1.619-1.327-2.429-1.99
					c-1.008,0.206-1.442-0.359-1.655-1.222c-0.001-0.001-0.002-0.002-0.003-0.003c-1.227-0.374-2.268-0.95-2.511-2.37
					c-1.208-0.251-2.104-0.819-2.216-2.183c-1.262-0.177-2.129-0.756-2.191-2.153c-1.354-0.147-2.25-0.786-2.397-2.23
					c0.193-0.223,0.423-0.409,0.645-0.603c-0.216,0.201-0.431,0.402-0.646,0.603c-1.363-0.069-2.165-0.758-2.356-2.126
					c0.375-0.24,0.707-0.53,0.996-0.872c-0.333,0.291-0.665,0.582-0.998,0.872c-0.544-0.373-1.087-0.746-1.631-1.119
					c-1.86-0.792-3.375-1.955-4.171-3.889c-1.337-0.248-2.078-1.138-2.539-2.331c-0.005,0.028-0.009,0.056-0.014,0.084
					c-1.286-0.127-1.848-1.016-2.226-2.1c-1.285-0.123-1.839-1.008-2.201-2.096c-1.287-0.133-1.856-1.003-2.187-2.118
					c-1.291-0.156-1.865-1.03-2.181-2.164c-1.272-0.151-1.839-1.001-2.128-2.132c0-0.001,0-0.002,0-0.004
					c-0.001,0.001-0.001,0.001-0.002,0.002c-1.944-0.74-3.265-2.093-3.974-4.047c0.001-0.001,0.001-0.001,0.002-0.002
					c-0.001,0-0.002,0-0.004,0c-1.128-0.335-1.983-0.937-2.128-2.218c0,0,0.001-0.001,0.002-0.002c-0.001,0-0.002,0-0.003,0
					c-1.115-0.337-1.964-0.93-2.104-2.202c0.001-0.001,0.001-0.001,0.002-0.002c-0.001,0-0.002,0-0.003,0
					c-1.11-0.358-1.971-0.955-2.117-2.231c0.001,0,0.001-0.001,0.002-0.002c-0.001,0-0.002,0-0.003,0
					c-1.198-0.417-2.058-1.15-2.3-2.461c-1.931-0.795-3.11-2.299-3.912-4.157c0,0,0.001,0,0.001-0.001c-0.001,0-0.001,0-0.002,0
					c-0.409-0.563-0.818-1.127-1.228-1.689c0.002-0.002,0.004-0.004,0.006-0.006c-1.3-0.187-1.963-0.958-2.045-2.262l0,0
					c-1.412-0.175-2.078-1.055-2.259-2.392c-1.422-0.112-2.006-1.164-2.543-2.268c-3.441-2.262-6.062-5.249-7.888-8.937
					c-0.912-0.384-1.639-0.913-1.603-2.04c0.001-0.001,0.001-0.001,0.002-0.002c-0.001,0-0.002,0-0.003,0
					c-0.83-0.25-1.194-0.808-1.094-1.668c0,0,0,0,0,0c-1.364-0.278-2.007-1.188-2.187-2.501c-1.386-0.139-1.91-1.15-2.311-2.286
					c-2.655-1.634-4.564-3.89-5.688-6.803c-0.666-0.29-0.911-0.786-0.736-1.489c-1.423-0.327-2.024-1.469-2.608-2.629
					c-2.515-1.683-4.344-3.911-5.369-6.774c-0.68-0.364-0.999-0.93-0.955-1.7c-1.291-0.289-1.763-1.304-2.136-2.408
					c-2.015-0.974-3.239-2.556-3.656-4.758c-0.957-1.32-1.912-2.64-2.869-3.958c-2.028-0.818-2.905-2.603-3.72-4.438
					c-2.719-2.52-4.816-5.48-6.3-8.876c0,0,0,0,0,0c0,0,0,0,0,0c-1.697-2.02-3.542-3.945-4.238-6.607c0,0,0,0,0,0c0,0,0,0,0,0
					c-2.762-3.289-5.279-6.735-6.929-10.741c-3.509-3.962-6.26-8.393-8.222-13.311l0,0c-0.569-0.391-0.821-0.93-0.755-1.617
					c-3.011-2.391-4.175-5.919-5.683-9.235v0c-1.905-2.725-3.749-5.481-4.493-8.8c0.067-0.077,0.134-0.154,0.201-0.231
					c-0.084-0.01-0.159-0.013-0.246-0.025c-2.413-3.94-4.89-8.099-6.438-13.019c-0.602-0.367-0.836-0.885-0.74-1.54
					c-2.23-1.531-2.746-4.161-3.797-6.359c-9.406-19.652-17.215-39.941-23.694-60.737c-0.848-2.721-1.244-5.585-1.784-8.396
					c-0.044-0.231,0.388-0.764,0.652-0.803c0.646-0.096,1.786-0.2,1.915,0.077c1.219,2.619,2.357,5.283,3.349,7.997
					c5.104,13.957,10.008,27.989,15.288,41.878c3.054,8.034,6.671,15.854,10.043,23.768c0.014-0.018,0.029-0.035,0.043-0.053
					c0.617,0.481,0.794,1.09,0.533,1.828c3.073,3.876,5.037,8.331,6.743,12.921c0.045,0.105,0.064,0.187,0.1,0.284
					c1.579,0.671,2.032,1.989,2.017,3.577c0.017,0.563,0.158,1.053,0.38,1.497c0.235,0.317,0.448,0.63,0.621,0.918
					c0.298,0.355,0.639,0.687,0.994,1.009c0.508,0.193,0.661,0.542,0.458,1.047c2.639,2.896,4.31,6.334,5.595,9.989
					c0.55,0.42,0.774,0.973,0.674,1.658c0,0,0,0,0,0c0,0,0,0,0,0c3.533,4.024,6.12,8.626,8.261,13.502
					c2.278,3.635,4.556,7.27,6.834,10.904h0c2.165,1.604,3.364,3.894,4.456,6.261c2.693,2.57,4.905,5.47,6.165,9.021
					c-0.004,0.005-0.006,0.011-0.01,0.016c0.003-0.005,0.007-0.01,0.01-0.015c0.426,0.661,0.853,1.323,1.279,1.985
					c1.723,1.049,2.995,2.421,3.242,4.528c0,0-0.047,0.287-0.047,0.287c1.646,0.807,2.49,2.255,3.106,3.885l0,0
					c1.919,0.942,3.118,2.438,3.503,4.56c0.502,0.694,1.003,1.389,1.505,2.083c0,0-0.001,0.001-0.001,0.002c0.001,0,0.001,0,0.002,0
					c0.592,0.699,1.186,1.4,1.782,2.101c0.002,0.002,0.004,0.003,0.006,0.005c2.458,1.706,4.261,3.927,5.313,6.741h0
					c0.684,0.284,0.929,0.784,0.735,1.499c0,0.001,0,0.001,0,0.002c0,0,0,0,0,0c1.43,0.342,2.029,1.504,2.626,2.668
					c2.52,1.681,4.42,3.87,5.518,6.718c0.535,0.699,1.069,1.397,1.604,2.096c0,0-0.001,0.001-0.001,0.001c0.001,0,0.001,0,0.002,0
					c0.37,0.573,0.74,1.147,1.111,1.721c-0.158,0.163-0.316,0.324-0.474,0.487c0.159-0.161,0.305-0.333,0.474-0.485
					c1.404,0.243,2.008,1.19,2.2,2.5c1.394,0.107,1.92,1.116,2.329,2.245c3.504,2.222,5.992,5.349,7.968,8.934
					c0.561,0.691,1.12,1.383,1.68,2.074c0,0-0.001,0-0.001,0.001c0,0,0.001,0,0.002,0c0.847,0.182,1.22,0.704,1.119,1.565
					c-0.319,0.353-0.637,0.707-0.956,1.06c0.361-0.313,0.679-0.666,0.956-1.058c1.313,0.234,2.02,1.018,2.12,2.348
					c-0.003,0.003-0.006,0.006-0.009,0.009c1.389,0.21,2.064,1.094,2.261,2.428c1.311-0.059,1.856,0.619,1.802,1.873
					c1.436,0.248,2.227,1.121,2.463,2.534c1.364,0.093,1.98,0.925,2.165,2.186c1.351,0.11,1.96,0.948,2.153,2.195
					c1.34,0.112,1.967,0.937,2.18,2.177c1.323,0.132,1.951,0.957,2.173,2.184c1.25,0.034,1.877,0.69,1.926,1.925
					c1.224,0.227,2.026,0.875,2.178,2.175c1.223,0.232,2.029,0.881,2.181,2.183c1.221,0.232,2.037,0.868,2.176,2.18c0,0,0,0,0,0
					c1.227,0.223,2.057,0.843,2.181,2.173c1.206,0.203,2.023,0.796,2.168,2.065c0.006-0.004,0.011-0.009,0.017-0.013
					c1.254,0.188,2.095,0.795,2.19,2.159c1.408,0.237,2.274,1.024,2.504,2.46c1.272-0.048,1.963,0.503,1.893,1.837
					c0,0,0,0.001,0.001,0.001c1.348,0.171,2.231,0.838,2.405,2.258c0,0,0,0,0,0c1.329,0.078,2.119,0.761,2.344,2.081
					c0,0-0.001,0-0.001,0.001c0.879-0.09,1.426,0.292,1.642,1.147c1.225,0.11,1.825,0.946,2.274,1.958
					c1.274,0.081,1.866,0.97,2.354,1.984c0.953-0.08,1.554,0.285,1.641,1.298c1.183,0.493,2.302,1.049,2.508,2.516
					c1.222,0.219,2.152,0.739,2.218,2.15c0,0,0,0,0.001,0.001c1.289,0.157,2.2,0.724,2.365,2.094
					c0.006-0.007,0.013-0.011,0.019-0.018c0.643,0.38,1.286,0.759,1.929,1.139c-0.011,0.047-0.018,0.094-0.029,0.141
					c0.01,0,0.02-0.006,0.029-0.006c0.76,0.615,1.521,1.23,2.281,1.846c1.031-0.121,1.565,0.413,1.787,1.357
					c1.24,0.26,2.24,0.791,2.472,2.189c1.198,0.269,2.157,0.778,2.215,2.196c0,0,0,0,0.001,0.001
					c1.316,0.156,2.276,0.706,2.408,2.174c0.77-0.216,1.351,0.024,1.742,0.722c2.831,1.179,5.147,2.973,6.74,5.633
					c0,0,0.001,0.001,0.001,0.002c0-0.045,0-0.091-0.001-0.136c1.126,0.389,2.161,0.869,2.247,2.283c0,0,0,0,0.001,0
					c1.311,0.165,2.268,0.743,2.522,2.148c0.6,0.388,1.2,0.775,1.8,1.163c1.098-0.027,1.606,0.691,1.987,1.571
					c5.345,2.833,9.215,7.31,12.93,11.888c1.256,1.548,2.696,3.284,2.216,5.634
					C1848.897,1276.397,1848.926,1277.801,1848.217,1279.174z"/>
				<path d="M1568.728,823.671c-0.176,0.396-0.353,0.793-0.529,1.189C1568.492,824.516,1568.638,824.106,1568.728,823.671z"/>
				<path d="M1502.821,513.209c0.312-0.62,0.606-1.248,0.88-1.887c-0.001-0.002,1.032-0.158,1.033-0.159
					c0,0-0.527-0.198-0.527-0.198l-0.521,0.213c-0.396,0-0.793,0-1.189,0.001c0.397,0.017,0.795,0.017,1.191,0
					C1503.397,511.855,1503.109,512.532,1502.821,513.209z"/>
			</g>
			<g>
				<path d="M1845.433,1279.165C1845.432,1279.165,1845.432,1279.165,1845.433,1279.165c0.408,0.004,0.816,0.007,1.225,0.01
					l-0.638-0.03C1846.02,1279.144,1845.574,1279.16,1845.433,1279.165z"/>
				<path d="M1703.069,1130.889c0.298-0.238,0.595-0.477,0.893-0.717c0.519,0.045,1.004,0.183,1.457,0.405
					c-0.745-0.447-1.489-0.894-2.234-1.341C1702.734,1129.759,1702.695,1130.31,1703.069,1130.889z"/>
			</g>
			<path style="fill:#010101;" d="M999.039,583.184c-2.638-6.842-6.549-12.923-13.098-16.896
				c-8.274-5.019-16.574-3.551-21.799,4.473c-5.23,8.031-8.567,16.79-8.101,25.128c0.083,10.938,2.686,19.378,7.247,24.962
				c6.632,8.12,16.643,9.655,25.181,3.624c2.334-1.649,4.698-3.646,6.196-6.02C1001.614,607.446,1003.834,595.618,999.039,583.184z
				 M978.357,603.059c-0.643,1.35-1.828,2.276-3.34,2.32c-1.494,0.043-2.767-0.675-3.538-2.033c-2.533-4.462-3.784-9.26-3.68-15.072
				c0.029-0.403,0.049-1.483,0.193-2.548c0.433-3.213,2.232-5.598,4.142-5.493c2.787,0.153,4.835,1.751,5.879,4.093
				C980.75,590.462,981.354,596.772,978.357,603.059z M989.529,606.239c-0.444,0.491-1.078,1.272-1.523,1.205
				c-0.908-0.138-2.145-0.541-2.519-1.229c-0.633-1.165-0.701-2.637-0.962-3.788c0.625-1.349,0.242-3.289,2.254-2.979
				c0.888,0.137,2.047,0.931,2.376,1.721c0.507,1.219,0.425,2.689,0.552,4.057C989.737,605.563,989.725,606.021,989.529,606.239z"/>
			<path style="fill:#020202;" d="M1166.403,619.341c0.249-6.455-1.824-12.179-5.361-17.352
				c-8.291-12.123-22.738-12.649-31.96-1.262c-8.3,10.248-9.125,27.662-1.834,38.683c8.307,12.556,23.543,13.165,32.651,1.203
				C1164.67,634.347,1166.588,627.105,1166.403,619.341z M1143.683,626.153c-1.105,1.424-2.894,2.543-4.685,1.872
				c-1.167-0.438-2.439-1.831-2.771-3.042c-1.45-5.289-1.415-10.646,0.549-15.833c0.771-2.037,2.025-3.839,4.564-3.971
				c2.323-0.121,4.738,1.908,5.254,4.504c0.278,1.399,0.357,2.839,0.357,2.835C1147.127,618.357,1146.45,622.588,1143.683,626.153z
				 M1154.575,629.978c-0.847,1.487-1.709,3.19-3.91,2.428c-1.456-0.504-2.034-1.753-2.068-4.011
				c0.071-0.244,0.137-1.369,0.688-2.156c0.796-1.139,1.97-1.951,3.553-1.369c1.458,0.536,2.154,1.669,2.23,3.129
				C1155.103,628.654,1154.903,629.404,1154.575,629.978z"/>
			<path style="fill:#020101;" d="M1049.476,1925.413c-21.1-0.74-42.107,1.092-63.137,2.251c-2.892,0.159-5.783,0.711-8.646-0.212
				c-1.89-0.61-3.077-1.804-3.169-3.865c-0.091-2.038,0.934-3.643,2.696-4.29c2.008-0.739,4.211-0.995,6.351-1.321
				c14.778-2.249,29.706-2.236,44.575-2.367c34.871-0.306,69.76,0.157,104.509,3.296c26.382,2.383,52.647,5.958,78.637,11.272
				c16.699,3.414,33.419,6.722,50.103,10.206c3.524,0.736,7.025,1.803,10.357,3.158c2.027,0.824,3.5,2.637,2.966,5.208
				c-0.399,1.922-2.735,3.432-5.15,3.002c-5.711-1.016-11.372-2.307-17.077-3.36c-30.674-5.661-61.191-12.27-92.171-16.121
				c-20.173-2.508-40.387-4.714-60.753-5.182C1082.867,1926.705,1066.174,1925.984,1049.476,1925.413z"/>
			<path style="fill:#020202;" d="M1145.315,899.357c-0.093,17.856-8.633,33.047-25.047,43.784
				c-12.524,8.192-26.536,11.501-41.367,11.676c-1.427,0.017-2.928-0.194-4.271-0.657c-1.861-0.641-2.866-2.12-2.79-4.17
				c0.072-1.951,0.875-3.642,2.738-4.256c1.689-0.556,3.553-0.603,5.348-0.81c6.856-0.789,13.778-1.291,20.314-3.717
				c4.071-1.511,8.232-2.965,11.998-5.077c17.69-9.92,25.789-27.915,22.09-47.966c-2.3-12.47-7.828-23.382-15.681-33.135
				c-18.257-22.673-42.013-36.439-70.252-42.752c-6.036-1.35-12.139-2.151-18.352-2.349c-5.165-0.165-8.003-2.691-7.386-5.852
				c0.574-2.936,3.169-4.662,7.691-4.439c11.294,0.557,22.352,2.542,33.121,6.065c22.549,7.376,42.127,19.439,58.173,37.006
				c8.409,9.207,15.04,19.539,19.429,31.286C1143.907,881.582,1145.267,889.387,1145.315,899.357z"/>
			<path style="fill:#020202;" d="M666.531,1110.848c-0.244,0.595-0.445,1.754-1.101,2.53c-0.917,1.085-2.11,1.974-3.293,2.79
				c-21.672,14.943-40.622,32.984-58.353,52.264c-31.162,33.885-57.087,71.453-77.493,112.774
				c-2.571,5.205-5.279,10.344-7.99,15.478c-0.844,1.599-1.807,3.158-2.894,4.601c-1.456,1.933-4.083,2.391-5.782,1.1
				c-1.971-1.498-2.64-3.568-1.585-5.769c5.803-12.107,11.284-24.395,17.657-36.199c25.234-46.736,57.229-88.319,96.125-124.538
				c9.58-8.92,19.503-17.437,30.174-25.045c2.655-1.893,5.195-3.988,8.428-4.899
				C663.216,1105.148,666.724,1107.688,666.531,1110.848z"/>
			<path style="fill:#040303;" d="M1228.615,604.82c-0.601,2.517-1.344,4.142-3.326,4.678c-1.834,0.496-3.773,0.409-4.971-1.169
				c-1.292-1.701-2.36-3.637-3.196-5.61c-6.349-14.988-17.292-25.684-31.256-33.529c-14.606-8.206-29.988-14.297-46.621-17.035
				c-5.8-0.955-11.496-1.299-17.221,0.295c-1.386,0.386-2.838,0.677-4.269,0.724c-1.477,0.049-2.932-0.542-3.603-1.925
				c-0.843-1.738-0.702-3.75,0.646-5.057c1.233-1.195,2.957-2.014,4.603-2.629c7.012-2.621,14.359-2.366,21.484-1.229
				c22.511,3.594,43.099,12.076,61.527,25.598c11.089,8.137,18.917,18.849,24.416,31.339
				C1227.689,601.227,1228.153,603.357,1228.615,604.82z"/>
			<path style="fill:#050404;" d="M1068.407,713.07c2.158,0,4.361-0.273,6.459,0.084c1.773,0.301,3.297,1.44,3.797,3.46
				c0.469,1.896-0.836,4.4-2.877,5.333c-0.657,0.301-1.336,0.584-2.035,0.761c-19.61,4.949-41.334-7.445-47.554-27.118
				c-3.884-12.284-1.182-22.406,8.903-30.042c9.033-6.839,17.516-14.14,24.653-22.971c0.863-1.068,2.18-1.882,3.442-2.49
				c2.283-1.1,5.323,1.324,5.216,3.875c-0.099,2.348-1.298,4.109-2.645,5.832c-4.937,6.319-10.385,12.157-16.537,17.315
				c-2.228,1.868-4.561,3.609-6.802,5.461c-7.863,6.5-9.68,13.935-5.193,23.127c4.378,8.97,11.292,15.007,21.433,16.685
				c3.211,0.531,6.462,0.818,9.695,1.216C1068.376,713.421,1068.392,713.245,1068.407,713.07z"/>
			<path style="fill:#060505;" d="M758.768,1453.998c-2.221,5.34-4.397,10.699-6.671,16.017
				c-7.736,18.094-17.796,34.735-30.829,49.551c-5.977,6.795-11.722,13.793-17.588,20.686c-1.643,1.931-3.26,3.99-5.792,4.75
				c-1.459,0.438-2.942-0.136-3.779-1.45c-0.539-0.847-1.145-2.148-0.855-2.922c0.613-1.637,1.66-3.167,2.762-4.556
				c5.177-6.52,10.219-13.165,15.7-19.423c16.92-19.32,29.121-41.311,37.789-65.382c1.219-3.385,2.623-6.725,4.231-9.942
				c1.324-2.647,3.784-3.12,6.52-2.393C766.806,1444.653,762.712,1449.318,758.768,1453.998z"/>
			<path style="fill:#060505;" d="M1399.824,722.14c9.299,2.736,14.738,9.18,18.508,17.362c4.641,10.07,7.34,20.456,5.48,31.64
				c-0.118,0.712-0.296,1.419-0.512,2.108c-0.879,2.814-3.448,4.6-5.614,3.859c-2.519-0.861-3.001-3.012-2.881-5.248
				c0.37-6.908,0.657-13.787-1.752-20.452c-0.738-2.041-1.382-4.115-2.119-6.156c-3.055-8.453-7.678-14.69-18.041-13.876
				c-2.981,0.234-4.78-2.4-3.912-5.113c0.985-3.076,2.217-6.13,3.772-8.957c7.638-13.893,19.507-23.109,33.512-29.917
				c3.024-1.47,6.147-2.208,9.472-1.576c1.935,0.367,3.219,1.562,3.405,3.637c0.14,1.564-0.451,2.985-1.774,3.699
				c-1.561,0.842-3.377,1.195-5.012,1.918C1419.158,700.904,1407.82,708.988,1399.824,722.14z"/>
			<path style="fill:#060404;" d="M987.827,520.609c18.585,0.588,33.925,8.096,47.461,19.834c1.061,0.92,1.872,2.196,2.593,3.428
				c1.339,2.286,0.719,5.504-1.28,6.808c-2.124,1.386-4.277,0.937-5.981-0.648c-4.267-3.969-8.889-7.426-13.857-10.46
				c-14.806-9.042-30.526-10.821-47.038-5.856c-6.311,1.898-12.148,4.752-16.628,9.833c-0.949,1.077-1.867,2.247-3.022,3.058
				c-1.164,0.817-2.515,1.206-4.022,0.272c-1.751-1.085-2.442-2.57-2.37-4.51c0.071-1.923,1.137-3.402,2.306-4.803
				c3.54-4.241,7.893-7.457,12.78-9.963C966.421,523.679,979.555,520.579,987.827,520.609z"/>
			<path style="fill:#813F3F;" d="M641.361,1488.471c-4.797-0.047-9.614,0.127-14.381-0.278c-1.422-0.121-1.637-1.896-0.113-2.969
				c2.138,1.608,4.611,0.828,6.957,0.976C636.512,1486.371,639.391,1485.916,641.361,1488.471z"/>
			<path style="fill:#D42488;" d="M836.657,1260.031c0.07-1.087,0.091-2.18,0.221-3.26c0.333-2.741-0.302-5.008-2.845-6.505
				c-0.933-0.55-1.747-1.3-2.639-1.924c-20.361-14.226-27.375-34.638-27.539-58.464c-0.063-9.173,1.792-18.038,3.205-26.963
				c0.786-4.968,2.929-9.729,6.108-13.832c2.34-3.019,2.876-6.072,2.322-10.093c-2.609-18.932,5.91-32.984,20.665-43.836
				c7.459-5.486,16.012-4.527,24.104-2.388c20.862,5.515,37.218,26.785,37.759,48.217c0.046,1.809-0.069,3.649,0.226,5.419
				c0.38,2.286,1.816,3.954,4.046,4.692c2.315,0.767,4.345-0.085,5.856-1.804c3.587-4.081,6.917-8.393,10.589-12.392
				c3.445-3.751,7.404-6.956,11.865-9.49c8.371-4.755,16.659-4.598,24.65,0.735c10.491,7.001,16.609,16.957,19.204,29.219
				c1.704,8.055,1.083,15.859-2.198,23.416c-1.97,4.539-4.935,8.029-10.086,9.048c-2.525,0.5-4.9,1.356-6.907,3.021
				c-2.669,2.215-2.946,6.376-0.286,8.611c2.488,2.09,5.341,3.739,7.989,5.644c12.654,9.101,17.843,21.451,16.14,36.875
				c-0.747,6.767-3.457,12.628-8.1,17.452c-9.011,9.362-19.916,14.193-33.158,13.505c-7.588-0.394-13.137-3.605-16.73-10.263
				c-1.377-2.552-2.616-5.196-4.199-7.615c-1.237-1.891-3.229-2.961-5.581-2.723c-2.774,0.281-4.81,1.834-5.571,4.501
				c-0.691,2.422-0.86,4.987-1.385,7.462c-2.137,10.062-7.784,16.951-17.911,19.865c-11.527,3.317-22.937,3.439-34.061-1.406
				C841.694,1280.09,835.768,1272.185,836.657,1260.031z"/>
			<path style="fill:#060505;" d="M762.696,1455.945c0.048-3.287-0.307-6.654,1.895-9.513
				C764.659,1449.741,765.958,1453.297,762.696,1455.945z"/>
			<path style="fill:#D42488;" d="M1392.989,825.748c-2.399-0.048-3.834-1.013-4.742-3.482c-3.05-8.293-7.592-15.65-14.494-21.387
				c-14.557-12.097-34.046-13.826-52.009-4.169c-18.099,9.73-28.797,25.279-32.954,45.08c-3.663,17.448-0.947,33.92,10.296,48.415
				c1.076,1.388,1.658,3.159,2.468,4.753c1.562,0.875,3.299,1.538,4.661,2.657c14.87,12.225,38.647,11.829,55.035,0.873
				c13.856-9.264,22.825-21.968,27.647-37.804c2.694-8.846,2.857-17.865,1.985-26.933
				C1390.588,830.7,1390.703,828.003,1392.989,825.748z M1352.539,882.681c-2.069,2.052-4.681,2.983-7.531,3.327
				c-4.959,1.226-9.926,1.444-14.904,0.107c-10.547-3.027-16.113-10.335-17.934-20.863c-2.729-4.316-2.148-9.171-1.731-13.78
				c1.272-14.062,6.239-26.745,15.268-37.721c0.455-0.553,0.991-1.111,1.612-1.433c0.526-0.272,1.468-0.492,1.792-0.219
				c0.427,0.359,0.779,1.406,0.553,1.836c-0.839,1.595-1.868,3.103-2.934,4.564c-8.645,11.859-12.519,25.196-12.392,39.783
				c0,0,0,0,0,0c0.138,0.707,0.327,1.407,0.407,2.12c1.268,11.338,6.973,19.373,17.63,23.732c0,0,0,0,0,0c0,0,0,0,0,0
				c3.413-0.061,6.827-0.121,10.24-0.182c0.001,0,0.001,0,0.002,0c2.374-2.38,5.787-2.334,8.629-3.632
				c0.451-0.206,1.457,0.197,1.822,0.638C1353.287,881.225,1352.938,882.285,1352.539,882.681z"/>
		</g>
		<g>
			<path d="M2785.169,1998.881c-17.054,1.049-34.113,2.042-51.162,3.166c-12.332,0.813-24.65,1.834-36.978,2.7
				c-25.383,1.783-50.769,3.543-76.157,5.25c-2.444,0.164-5.065,0.886-7.323-1.08c3.196-27.749,7.365-55.427,9.317-83.362
				c0.81-11.594,2.212-23.148,3.429-34.711c0.357-3.392-0.492-6.092-2.326-9.137c-5.237-8.693-12.412-15.061-21.024-20.11
				c-11.357-6.658-23.536-11.375-36.126-14.947c-46.403-13.162-93.603-16.669-141.432-10.646
				c-13.323,1.678-26.456,4.642-38.854,10.187c-6.019,2.692-11.671,5.876-16.358,10.593c-5.193,5.227-7.598,11.402-6.456,18.805
				c0.666,4.311,1.472,8.608,1.928,12.941c3.007,28.577,4.854,57.223,5.216,85.966c0.101,7.99,0.744,15.973,1.134,23.959
				c0.16,3.268,0.407,6.537,0.405,9.805c-0.001,1-0.615,2.115-1.885,2.318c-2.503,0.401-5.005,0.899-7.526,1.077
				c-13.055,0.921-26.114,1.781-39.174,2.612c-27.209,1.732-54.427,3.347-81.63,5.167c-37.721,2.524-75.427,5.272-113.149,7.776
				c-38.449,2.552-76.912,4.887-115.364,7.393c-15.235,0.993-30.45,2.27-45.684,3.276c-17.412,1.15-34.834,2.138-52.251,3.208
				c-2.924,0.18-5.552,0.259-7.904-2.342c-11.775-13.015-26.929-20.676-43.068-26.756c-2.199-0.829-4.95-0.872-6.354-3.253
				c0.252-2.094,1.84-3.168,3.083-4.438c8.143-8.312,16.318-16.592,24.487-24.878c79.649-80.788,159.3-161.573,238.943-242.367
				c2.55-2.587,5.242-5.079,7.482-7.919c4.467-5.662,3.984-13.255-0.837-17.792c-4.95-4.658-12.011-4.653-17.798,0.157
				c-1.949,1.621-3.667,3.526-5.454,5.336c-12.774,12.937-25.542,25.88-38.305,38.828c-78.62,79.76-157.28,159.48-235.757,239.38
				c-4.789,4.875-9.025,7.054-16.105,5.567c-11.716-2.461-23.728-3.4-35.746-3.646c-20.366-0.416-40.683-0.288-60.993,1.972
				c-29.737,3.309-58.77,9.432-86.802,19.971c-17.753,6.675-34.646,15.021-49.665,26.777c-9.546,7.471-17.915,16.06-23.045,27.201
				c-1.674,3.637-3.971,4.505-7.569,4.671c-12.346,0.571-24.677,1.438-37.017,2.153c-30.123,1.745-60.249,3.458-90.371,5.211
				c-4.353,0.253-8.697,0.674-13.046,0.99c-1.574,0.114-2.836-0.495-3.504-1.965c-0.749-1.648-1.411-3.338-2.073-5.025
				c-14.293-36.43-40.606-60.297-76.935-73.774c-20.667-7.667-42.269-10.699-64.028-12.082
				c-66.933-4.253-133.697-2.493-200.221,6.682c-33.835,4.667-67.718,9.042-101.818,11.429c-17.801,1.246-35.599,1.294-53.409,0.293
				c-9.435-0.53-18.87-1.206-28.313-1.414c-27.991-0.617-55.986-1.052-83.98-1.513c-5.088-0.083-10.194-0.187-15.267,0.123
				c-38.093,2.324-76.205,4.473-113.983,10.292c-23.104,3.559-45.534,9.317-66.034,20.996c-3.679,2.097-7.449,2.517-11.467,2.692
				c-48.309,2.101-96.615,4.254-144.922,6.38c-49.034,2.159-98.069,4.301-147.103,6.456c-50.487,2.218-100.972,4.482-151.462,6.652
				c-41.772,1.795-83.551,3.449-125.323,5.248c-8.345,0.359-16.675,1.093-25.012,1.654c0,3.637,0,7.273,0,10.909
				c7.818-2.077,15.855-1.589,23.808-1.941c25.788-1.142,51.586-2.073,77.374-3.217c40.315-1.789,80.623-3.732,120.938-5.518
				c25.062-1.11,50.133-1.994,75.197-3.075c46.129-1.991,92.255-4.047,138.381-6.085c21.43-0.947,42.858-1.921,64.288-2.874
				c26.876-1.195,53.752-2.403,80.632-3.526c2-0.084,4.251-0.854,5.061-0.03c1.859,2.237,0.826,3.095,0.249,3.9
				c-12.735,17.751-23.443,36.743-33.777,55.926c-7.584,14.08-13.567,28.927-18.593,44.115c-2.966,8.963-5.699,18.039-5.806,27.615
				c-0.027,2.456-0.765,4.395-3.174,5.047c-9.182,2.483-13.172,9.707-16.263,17.686c-2.639,6.812-4.343,13.875-4.477,21.224
				c-0.53,29.08-1.26,58.184,2.832,87.095c1.627,11.498,3.667,22.969,6.193,34.302c3.982,17.861,13.285,32.106,29.99,40.712
				c8.424,4.339,17.191,7.771,26.57,9.458c25.441,4.578,51.157,6.894,76.909,8.342c34.127,1.919,68.286,2.186,102.491,1.188
				c33.096-0.966,66.078-3.202,99.046-5.943c31.874-2.65,63.742-5.374,95.604-8.159c18.465-1.614,36.916-3.394,55.371-5.135
				c18.815-1.774,37.594-4.092,56.445-5.281c34.101-2.151,68.131-4.717,102.111-8.528c32.513-3.647,64.835-8.557,97.278-12.613
				c22.352-2.794,44.747-5.274,67.152-7.612c15.903-1.66,31.872-2.683,47.78-4.303c11.559-1.177,23.109-2.593,34.586-4.397
				c13.12-2.062,22.558-9.588,28.602-21.274c3.513-6.792,6.147-13.957,7.298-21.582c2.117-14.022,3.578-28.108,4.429-42.268
				c0.939-15.603,2.067-31.195,3.212-46.784c0.773-10.52,1.702-21.044,1.124-31.59c-0.709-12.937-7.878-21.571-20.373-24.675
				c-2.698-0.67-3.289-2.166-3.669-4.504c-3.027-18.629-3.888-37.593-8.66-55.956c-0.576-2.215,0.84-3.354,2.914-3.593
				c2.165-0.25,4.346-0.391,6.524-0.511c17.06-0.942,34.126-1.793,51.181-2.82c17.054-1.027,34.094-2.279,51.147-3.328
				c9.029-0.555,18.072-0.887,26.977-1.313c0.235,1.095,0.465,1.502,0.363,1.791c-1.08,3.033-2.157,6.069-3.34,9.063
				c-16.18,40.966-18.909,82.637-5.722,124.852c16.354,52.356,50.166,90.187,98.34,115.448c6.471,3.393,11.119,6.325,8.771,14.444
				c-0.385,1.332-0.037,2.892,0.055,4.342c0.759,11.945,6.764,19.579,18.386,22.724c4.531,1.226,9.253,1.998,13.936,2.364
				c43.192,3.375,86.458,3.118,129.729,2.376c2.54-0.043,5.117-0.106,7.606-0.554c8.434-1.516,12.773-5.763,14.255-14.259
				c1.315-7.539,1.979-15.096,0.128-22.737c-1.157-4.775-0.902-4.957,3.847-7.321c14.367-7.151,27.99-15.506,40.299-25.799
				c46.572-38.942,72.345-88.186,73.563-149.49c0.033-1.681-0.667-3.563,1.375-5.58c3.126,1.602,5.027,4.711,7.312,7.282
				c32.363,36.42,64.677,72.884,97.013,109.329c51.639,58.203,103.257,116.423,154.987,174.545
				c3.583,4.025,5.449,7.951,5.168,13.565c-1.073,21.422-1.614,42.871-2.413,64.307c-0.166,4.461-0.64,4.928-5.165,5.075
				c-14.9,0.486-29.801,0.941-44.704,1.304c-60.704,1.476-121.408,2.911-182.113,4.363c-61.068,1.46-122.136,2.924-183.203,4.384
				c-60.704,1.453-121.409,2.902-182.113,4.354s-121.409,2.905-182.113,4.358c-61.068,1.461-122.136,2.923-183.203,4.384
				c-60.704,1.452-121.409,2.902-182.113,4.355c-61.068,1.46-122.136,2.923-183.203,4.384
				c-60.704,1.453-121.409,2.903-182.113,4.355c-60.704,1.452-121.409,2.903-182.113,4.356
				c-60.704,1.452-121.408,2.941-182.113,4.349c-52.345,1.214-104.693,2.33-157.039,3.51c-5.816,0.131-11.627,0.442-17.443,0.591
				c-3.179,0.081-4.26-0.769-4.433-3.337c-0.097-1.447-0.027-2.906-0.012-4.36c0.276-26.543,0.781-53.086,0.682-79.628
				c-0.026-7.075,2.265-12.294,6.747-17.561c66.212-77.804,132.267-155.74,198.356-233.648
				c38.572-45.47,77.142-90.94,115.695-136.426c2.105-2.483,4.265-4.97,5.975-7.72c1.192-1.917,0.981-4.212-0.729-6.027
				c-1.62-1.72-5.077-1.907-6.947-0.066c-2.325,2.287-4.392,4.844-6.508,7.337c-63.04,74.297-126.074,148.599-189.106,222.903
				c-43.04,50.736-86.056,101.493-129.15,152.184c-3.407,4.008-6.305,7.815-4.711,13.569c0.559,2.018,0.027,4.336,0.001,6.518
				c-0.317,27.27-0.635,54.54-0.947,81.809c-0.025,2.181-0.105,4.368,0,6.544c0.272,5.659,2.217,7.741,7.929,8.248
				c2.523,0.224,5.084,0.073,7.626,0.013c28.716-0.674,57.432-1.362,86.148-2.049c61.067-1.46,122.134-2.922,183.201-4.384
				c60.34-1.444,120.68-2.89,181.02-4.333c61.067-1.461,122.134-2.919,183.201-4.379s122.134-2.92,183.201-4.38
				c60.703-1.452,121.407-2.904,182.11-4.356c60.704-1.452,121.407-2.906,182.111-4.358c60.704-1.452,121.407-2.904,182.111-4.356
				c61.067-1.461,122.134-2.921,183.201-4.383c60.704-1.452,121.407-2.905,182.111-4.358c60.704-1.452,121.406-2.935,182.111-4.345
				c46.529-1.08,93.059-2.059,139.589-3.105c7.152-0.161,7.195-0.21,8.096-7.022c0.333-2.513,0.487-5.058,0.58-7.594
				c0.798-21.801,1.29-43.617,2.484-65.395c0.431-7.856-1.746-13.723-7.006-19.601c-41.46-46.333-82.635-92.921-123.897-139.432
				c-47.053-53.038-94.071-106.107-141.219-159.059c-4.009-4.502-6.924-9.013-7.365-15.249c-0.303-4.29-1.798-8.509-2.878-12.729
				c-5.54-21.651-15.094-41.556-26.396-60.71c-1.015-1.721-3.078-3.28-1.537-6.23c149.891-9.946,300.042-19.91,450.194-29.864
				c0.343-0.022,0.747,0.014,1.029,0.18c0.295,0.173,0.477,0.537,1.2,1.416c0.097,1.127,0.326,2.892,0.39,4.662
				c0.607,16.714,1.294,33.426,1.744,50.144c0.529,19.639,2.198,39.188,4.054,58.734c1.718,18.091,3.172,36.207,4.839,54.303
				c0.901,9.783,2.716,19.429,5.001,28.975c1.025,4.28,2.978,7.596,7.032,10.388c8.305,5.719,17.25,9.093,27.027,10.854
				c16.116,2.902,32.368,4.789,48.675,5.948c20.353,1.446,40.659,1.34,60.717-3.533c18.647-4.531,35.585-12.339,50.561-24.428
				c4.79-3.866,7.815-8.395,8.398-14.629c0.371-3.967,1.364-7.873,1.948-11.825c5.904-39.925,9.198-80.143,13.408-120.257
				c1.593-15.182,3.02-30.382,4.622-45.563c0.565-5.352,0.973-5.733,5.742-6.073c30.095-2.143,60.191-4.269,90.291-6.337
				c25.386-1.744,50.781-3.371,76.165-5.137c2.866-0.199,5.693-0.968,8.538-1.472
				C2793.4,2002.16,2794.605,1996.59,2785.169,1998.881z M1404.818,2101.707c1.338,6.357,3.042,12.619,3.945,19.089
				c1.499,10.738,3.265,21.442,5.148,32.12c0.544,3.087-0.577,4.904-3.098,6.091c-2.926,1.377-5.891,2.719-8.947,3.762
				c-2.562,0.874-4.104-0.387-4.14-3.098c-0.059-4.341-0.016-8.684-0.016-14.871c-0.121-14.162-2.835-29.808-6.453-45.345
				c-0.454-1.949-2.03-4.459-0.134-6.08c2.245-1.919,4.599,0.069,6.917,0.895C1401.713,2095.579,1403.954,2097.6,1404.818,2101.707z
				 M1374.46,2045.569c10.514,9.05,20.572,25.292,22.76,36.764c-1.266,1.311-2.698,0.358-4.054,0.273
				c-4.838-0.299-7.691-2.388-9.172-7.485c-2.415-8.312-5.816-16.337-8.823-24.476
				C1374.561,2048.992,1373.369,2047.444,1374.46,2045.569z M1387.133,2157.791c-0.048,1.085-0.055,2.183-0.227,3.251
				c-0.328,2.037-1.581,3.164-3.656,3.245c-6.521,0.253-13.045,0.428-19.564,0.724c-15.208,0.69-30.412,1.459-45.621,2.134
				c-3.238,0.144-6.488,0.021-10.031,0.021c-2.39-10.402-4.447-20.678-7.153-30.78c-2.995-11.183-6.6-22.2-9.901-33.302
				c-0.824-2.773-0.131-4.321,2.481-4.985c6.314-1.605,12.605-3.819,19.029-4.385c20.191-1.779,40.352-4.874,60.735-2.755
				c4.281,0.445,5.354,0.919,6.269,4.478C1384.748,2115.884,1388.061,2136.581,1387.133,2157.791z M1255.639,2003.743
				c4.656,0,9.355-0.35,13.986,0.061c19.199,1.705,38.285,4.142,56.593,10.628c3.076,1.09,6.151,2.204,9.146,3.494
				c19.966,8.604,20.599,9.282,28.107,30.004c3.091,8.532,6.119,17.086,9.121,25.649c0.585,1.668,0.92,3.424,1.417,5.316
				c-2.923,2.105-5.861,1.186-8.544,1.056c-19.714-0.958-39.17,1.671-58.614,4.223c-5.36,0.704-10.57,2.536-15.855,3.821
				c-4.002,0.973-4.946,0.539-6.43-3.594c-4.417-12.298-8.847-24.595-13.054-36.966c-4.329-12.728-9.098-25.273-14.579-37.548
				C1256.067,2007.951,1254.719,2006.119,1255.639,2003.743z M1159.81,2001.942c1.078-0.133,2.169-0.229,3.253-0.225
				c24.323,0.073,48.646,0.27,72.967,0.158c5.1-0.023,7.651,1.766,9.653,6.56c8.668,20.761,15.734,42.093,23.255,63.264
				c2.154,6.064,4.216,12.161,6.461,18.651c-4.195,0.807-7.707,1.794-11.278,2.114c-12.281,1.099-24.584,1.939-36.875,2.932
				c-5.784,0.467-11.563,1-17.332,1.626c-1.397,0.151-2.932,0.509-4.055,1.279c-1.124,0.771-2.271,2.146-1.757,3.688
				c0.427,1.279,1.243,3.002,2.295,3.375c1.966,0.695,4.236,0.798,6.365,0.721c19.218-0.694,38.427-1.331,57.535-3.925
				c9.869-1.34,8.518-1.978,11.896,7.877c6.125,17.869,10.327,36.247,14.509,54.629c0.143,0.63-0.162,1.362-0.281,2.215
				c-0.953,0.281-1.962,0.796-2.993,0.848c-26.102,1.307-52.206,2.566-78.31,3.829c-1.45,0.07-2.904,0.156-4.354,0.133
				c-3.681-0.059-4.283-0.474-5.096-4.095c-2.859-12.736-5.518-25.517-8.491-38.226c-9.592-40.989-21.132-81.381-37.443-120.283
				c-0.559-1.333-1.265-2.625-1.646-4.007C1157.687,2003.621,1157.832,2002.187,1159.81,2001.942z M1080.199,2008.875
				c19.13-1.937,38.266-3.833,57.418-5.546c9.681-0.866,8.707-1.044,12.441,8.193c7.339,18.155,13.385,36.766,19.296,55.439
				c10.19,32.191,18.071,64.945,25.005,97.953c0.224,1.064,0.378,2.146,0.535,3.223c0.505,3.452-0.212,4.319-3.98,4.762
				c-1.08,0.127-2.172,0.164-3.258,0.235c-24.266,1.594-48.531,3.19-72.797,4.772c-2.173,0.142-4.353,0.175-6.529,0.287
				c-7.56,0.387-7.15-0.368-7.568-6.943c-1.339-21.063-5.663-41.668-9.803-62.297c-0.558-2.779-1.706-5.528-0.369-8.874
				c18.372-0.177,36.782,0.485,54.922,4.726c3.528,0.825,7.086,1.606,10.674,2.048c1.715,0.212,3.574-0.261,5.294-0.709
				c1.477-0.384,2.42-1.604,2.663-3.121c0.307-1.915-0.26-3.727-1.892-4.761c-1.177-0.746-2.693-1.005-4.091-1.344
				c-15.539-3.766-31.167-6.842-47.266-6.88c-6.892-0.016-13.785-0.488-20.674-0.82c-1.887-0.091-3.638-0.742-4.064-2.865
				c-5.063-25.215-11.887-50.017-18.139-75.415C1072.411,2010.18,1076.279,2009.272,1080.199,2008.875z M980.195,2150.329
				c0.219-0.005,0.437-0.011,0.656-0.017c-0.569-10.161-1.187-20.32-1.683-30.484c-0.217-4.45,0.022-4.754,4.669-5.471
				c8.259-1.273,16.514-2.677,24.823-3.491c17.384-1.702,34.469-5.27,51.711-7.837c1.076-0.16,2.12-0.585,3.198-0.678
				c17.887-1.544,14.239-4.494,17.742,12.606c2.842,13.87,5.092,27.865,7.383,41.841c0.821,5.007,1.141,10.111,1.432,15.186
				c0.421,7.355,0.264,7.481-6.673,7.975c-10.516,0.75-21.044,1.331-31.554,2.153c-18.481,1.445-36.939,3.2-55.434,4.421
				c-5.261,0.347-10.709,2.246-15.948-0.396c-1.19-5.005-0.218-10.058-0.296-15.086
				C980.114,2164.146,980.195,2157.236,980.195,2150.329z M995.41,2019.021c16.554-1.961,33.109-3.919,49.665-5.864
				c2.88-0.338,5.761-0.723,8.653-0.885c4.078-0.23,4.672,0.289,5.695,4.676c4.935,21.163,9.852,42.331,14.746,63.503
				c0.49,2.118,0.815,4.275,1.153,6.424c0.33,2.091-0.477,3.449-2.676,3.775c-25.082,3.73-50.145,7.586-75.258,11.092
				c-6.001,0.837-11.988,2.705-18.842,1.767c-2.478-13.651-1.836-27.396-2.668-41.027c-0.814-13.354-1.889-26.691-2.902-40.775
				C980.46,2020.811,987.934,2019.906,995.41,2019.021z M907.357,2104.446c-2.368-0.861-4.9-1.398-7.406-1.724
				c-14.041-1.823-27.926-4.823-42.122-5.488c-5.124-0.241-5.322-0.644-4.541-5.995c3.201-21.927,6.563-43.834,7.625-66.011
				c0.203-4.243,0.91-4.981,5.368-4.873c15.26,0.371,30.533,0.626,45.766,1.519c14.176,0.831,28.323,1.048,42.495,0.387
				c1.089-0.051,2.174-0.206,3.263-0.235c4.418-0.119,5.226,0.472,5.542,4.642c0.63,8.334,1.284,16.671,1.654,25.019
				c0.499,11.256,0.646,22.527,1.131,33.784c0.234,5.44,0.918,10.86,1.352,16.293c0.21,2.63-1.081,4.049-3.709,4.245
				c-6.522,0.487-13.046,0.955-19.566,1.464c-1.799,0.141-3.638,0.212-5.371,0.654c-1.89,0.483-3.091,1.95-3.117,3.927
				c-0.026,2.005,1.325,3.558,3.032,4.099c2.023,0.642,4.279,0.82,6.423,0.761c6.536-0.18,13.069-0.524,19.597-0.907
				c2.267-0.133,3.406,0.982,3.704,2.985c0.374,2.512,0.575,5.055,0.74,7.592c1.229,18.89,0.546,37.791,0.208,56.687
				c-0.083,4.66-0.706,5.323-4.817,5.564c-39.906,2.343-79.814,4.647-119.724,6.913c-2.471,0.141-5.102,0.813-7.693-1.323
				c2.267-14.088,4.58-28.41,6.876-42.734c2.011-12.549,4.032-25.096,5.988-37.654c0.944-6.057,1.259-6.356,7.674-6.172
				c10.205,0.292,20.198,2.315,30.271,3.679c4.678,0.634,9.336,1.419,14.018,2.018c1.407,0.18,2.885,0.102,4.293-0.109
				c1.942-0.29,3.956-2.786,3.833-4.691C910.015,2106.852,909.122,2105.088,907.357,2104.446z M704.278,2195.813
				c3.407-20.467,8.917-40.364,15.993-59.864c1.411-3.89,3.713-5.609,7.554-6.665c19.581-5.382,39.028-11.254,58.643-16.501
				c16.243-4.344,32.902-5.607,49.692-5.025c1.014,0.035,2.012,0.529,3.253,0.875c0.514,9.244-1.947,18.035-3.212,26.908
				c-2.561,17.964-5.752,35.838-8.697,53.747c-0.236,1.433-0.599,2.843-0.874,4.27c-0.382,1.98-1.462,3.258-3.529,3.52
				c-1.08,0.137-2.169,0.224-3.257,0.286c-29.017,1.654-58.035,3.3-87.053,4.951c-8.704,0.495-17.407,1.015-26.113,1.484
				c-1.724,0.093-2.735-0.94-2.778-2.574C703.853,2199.425,703.982,2197.592,704.278,2195.813z M699.145,2169.143
				c-3.14,11.175-4.787,22.644-6.694,34.938c-9.426,0.651-18.069,1.38-26.726,1.818c-18.829,0.952-37.664,1.776-56.499,2.598
				c-3.062,0.134-4.002-0.79-3.92-3.614c0.136-4.715,0.753-9.346,1.75-13.99c3.747-17.462,10.304-33.909,17.447-50.176
				c1.212-2.76,2.609-3.401,5.787-2.901c14.788,2.325,29.652,1.302,44.466,0.006c8.301-0.726,16.552-2,24.845-2.834
				c2.817-0.284,5.695-1.179,9.198,0.112C705.574,2146.461,702.333,2157.794,699.145,2169.143z M789.989,2019.131
				c18.176-0.099,36.354,0.312,54.532,0.507c1.09,0.012,2.185,0.002,3.268,0.099c2.701,0.241,3.74,1.464,3.495,4.357
				c-0.43,5.069-0.828,10.148-1.492,15.189c-2.278,17.29-4.664,34.565-7.018,51.844c-0.098,0.718-0.282,1.426-0.453,2.132
				c-0.558,2.304-1.664,3.912-4.382,3.854c-3.27-0.069-6.544,0.06-9.815,0.025c-17.207-0.179-34.025,2.466-50.55,7.083
				c-14.676,4.1-29.306,8.365-43.972,12.504c-1.336,0.377-2.78,0.371-6.102,0.779c13.467-30.584,24.831-60.511,42.535-87.364
				C778.478,2017.333,776.504,2019.204,789.989,2019.131z M700.719,2028.748c2.02-2.228,4.371-3.554,7.498-3.864
				c17.7-1.754,35.378-3.756,53.2-3.753c0.248,0,0.495,0.359,0.763,0.566c0.93,2.085-0.688,3.369-1.66,4.765
				c-9.792,14.063-17.46,29.27-24.295,44.929c-6.384,14.626-12.956,29.175-19.032,43.928c-2.01,4.881-4.57,7.627-10.052,8.289
				c-19.834,2.393-39.686,4.531-59.624,5.808c-5.387,0.345-10.734,0.027-15.802-1.744c-0.122-3.557,1.869-5.89,3.188-8.395
				c6.435-12.215,13.563-24.023,21.672-35.208c11.94-16.47,24.328-32.596,37.541-48.073
				C696.238,2033.512,698.524,2031.169,700.719,2028.748z M558.594,2121.957c10.216-19.207,20.992-38.091,33.31-56.048
				c6.516-9.499,15.354-16.184,25.718-21.076c16.202-7.648,33.319-12.172,50.927-14.833c5.686-0.858,11.282-2.931,18.922-1.872
				c-28.409,33.178-54.107,66.311-71.013,104.969c-3.044,0.929-3.744-2.201-5.7-2.411c-2.145-0.23-4.338-0.226-6.495-0.083
				c-14.594,0.968-28.948-1.166-43.301-3.285C557.455,2126.801,556.774,2125.38,558.594,2121.957z M538.81,2174.144
				c2.829-11.629,6.775-22.882,11.65-33.808c1.787-4.004,2.194-4.351,6.503-3.794c5.38,0.694,10.751,1.538,16.071,2.593
				c12.862,2.55,25.787,2.785,38.787,1.3c0.947,3.71-1.512,6.363-2.634,9.268c-5.351,13.853-10.549,27.736-13.012,42.456
				c-0.715,4.272-1.191,8.595-1.542,12.913c-0.202,2.484-0.993,4.031-3.672,4.369c-10.817,1.365-21.687,1.688-32.534,0.948
				c-5.091-0.347-9.727-2.585-13.679-6.056c-4.587-4.029-7.318-8.885-7.419-15.089
				C537.246,2184.15,537.606,2179.095,538.81,2174.144z M1415.87,2168.232c2.048-1.231,3.605-1.908,5.729,0.026
				c1.238,1.127,3.196,1.543,4.894,2.076c6.736,2.113,9.98,7.045,10.646,13.693c0.433,4.319,0.423,8.725,0.158,13.064
				c-1.132,18.503-2.355,37.001-3.696,55.49c-1,13.773-2.181,27.534-3.38,41.292c-0.794,9.106-2.772,17.944-6.667,26.272
				c-4.417,9.447-11.271,15.648-21.856,17.848c-6.468,1.343-12.997,1.405-19.458,2.355c-12.953,1.904-25.966,3.05-39.038,3.926
				c-17.037,1.142-34.045,2.91-51.011,4.879c-19.849,2.304-39.642,5.099-59.455,7.711c-19.45,2.565-38.87,5.368-58.346,7.711
				c-37.531,4.516-75.117,8.375-112.907,10.243c-19.589,0.968-39.115,3.259-58.659,5.056c-19.181,1.764-38.341,3.772-57.528,5.47
				c-31.499,2.786-62.997,5.608-94.524,8.037c-25.727,1.981-51.388,4.887-77.225,5.44c-19.628,0.42-39.247,1.246-58.869,1.891
				c-33.854,0.069-67.629-1.454-101.302-4.728c-15.173-1.476-30.406-2.749-45.353-6.076c-7.506-1.671-14.512-4.551-21.335-8.016
				c-12.879-6.541-20.395-17.338-23.808-30.959c-2.468-9.849-4.409-19.873-5.872-29.923c-4.573-31.414-4.765-63.013-3.266-94.654
				c0.296-6.239,1.872-12.185,4.293-17.918c1.285-3.044,2.901-5.848,5.686-7.815c1.873-1.323,4.261-0.984,5.649,0.934
				c0.637,0.88,1.125,1.868,1.714,2.784c7.049,10.952,17.361,16.197,30.111,16.882c4.709,0.253,9.457,0.096,14.173-0.152
				c31.582-1.662,63.16-3.421,94.741-5.101c15.974-0.85,31.956-1.544,47.929-2.406c46.829-2.523,93.664-4.951,140.48-7.689
				c45.364-2.653,90.722-5.442,136.056-8.554c32.272-2.216,64.487-5.238,96.751-7.583c26.829-1.95,53.687-3.517,80.541-5.108
				c33.023-1.957,66.054-3.793,99.085-5.608c6.896-0.379,13.808-0.545,20.714-0.629c14.909-0.182,29.791-0.771,44.679-1.707
				c19.228-1.21,38.493-1.915,57.752-2.499C1401.932,2173.95,1409.191,2172.25,1415.87,2168.232z M1571.873,2076.474
				c3.682-7.264,8.925-13.227,14.923-18.593c8.727-7.809,18.6-13.917,28.975-19.245c19.499-10.013,40.202-16.67,61.453-21.685
				c39.249-9.26,79.047-11.35,119.173-8.677c3.619,0.241,7.26,0.674,10.798,1.445c2.956,0.645,7.393-1.156,8.539,2.375
				c0.867,2.674-3.014,4.529-4.974,6.531c-15.514,15.851-31.201,31.534-46.613,47.481c-3.552,3.676-7.313,5.089-12.373,5.289
				c-24.072,0.951-47.671,4.769-70.462,12.872c-7.209,2.563-14.096,5.796-20.582,9.859c-4.035,2.527-7.69,5.512-10.483,9.415
				c-5.643,7.885-4.863,15.888,2.21,22.475c4.347,4.048,9.689,6.367,15.181,8.326c10.366,3.696,21.211,5.082,32.083,5.791
				c30.013,1.958,59.482-1.448,88.346-9.919c9.43-2.768,18.569-6.3,27.006-11.399c4.991-3.017,9.702-6.434,12.987-11.438
				c5.154-7.854,4.394-15.069-2.436-21.559c-5.711-5.427-12.946-7.89-20.29-10.066c-3.341-0.99-6.713-1.872-10.486-2.919
				c1.035-1.464,1.538-2.427,2.266-3.168c15.546-15.821,31.212-31.526,46.608-47.491c3.257-3.377,6.369-4.232,10.642-2.756
				c11.01,3.804,21.768,8.112,31.583,14.508c6.13,3.994,11.757,8.535,16.26,14.371c8.955,11.605,9.849,23.838,2.8,36.636
				c-3.727,6.767-8.851,12.403-14.651,17.45c-7.715,6.713-16.23,12.24-25.239,17.038c-20.982,11.175-43.368,18.431-66.431,23.782
				c-37.843,8.78-76.215,11.1-114.852,8.437c-23.982-1.653-47.549-5.989-70.113-14.757c-8.15-3.167-15.992-6.936-23.255-11.813
				c-6.067-4.072-11.606-8.757-15.915-14.748C1566.821,2099.577,1565.857,2088.34,1571.873,2076.474z M1820.62,2097.454
				c0.344,0.712,0.276,1.383-0.206,2.01c-0.455,0.842-0.992,1.628-1.61,2.359l-0.059,0.078c-0.608,0.567-1.306,0.727-2.077,0.566
				c-0.032,0.534-0.064,1.067-0.097,1.601c-0.483,0.028-0.965,0.055-1.447,0.083c0.026,0.742-0.209,1.412-0.763,1.989l-0.052,0.044
				c-1.02,1.233-3.374,0.522-3.808,2.611l-0.171,0.091c-1.266-0.158-1.763,0.828-2.397,1.609l-0.271,0.123
				c-1.032,1.357-2.297,2.262-4.104,2.118l-0.202,0.073c-1.275,1.124-3.245,0.745-4.434,2.053l-0.393,0.414l-0.506-0.263
				c-1.379,0.085-2.331,0.993-3.365,1.743l-0.896,0.549l-1.05-0.033c-1.392,0.977-3.3,0.595-4.621,1.759l-0.874,0.505l-1.006-0.078
				c-1.397,0.944-3.25,0.596-4.616,1.628c-2.936,0.749-5.587,2.632-8.817,2.209c-1.388,0.223-2.774,0.446-4.161,0.67
				c-1.296,0.665-2.795,0.633-4.121,1.195c-7.656,1.571-15.234,3.871-23.885,2.737c1.654-3.552,4.053-5.303,7.133-6.577
				c2.682-1.109,2.088-5.344,5.313-6.136c0.005-0.066,0-0.126,0.007-0.194c1.249-0.421,2.183-1.152,2.468-2.52
				c0.12-0.046,0.241-0.092,0.361-0.138c3.312-5.779,9.122-9.364,12.967-14.674l10.289-9.437c3.193-5.488,7.599-6.87,13.284-3.926
				c0,0,0.001,0,0.001,0.001c0,0,0,0,0-0.001c9.987,0.79,19.576,2.615,26.893,10.346
				C1819.081,2095.89,1820.04,2096.585,1820.62,2097.454z M1735.763,2094.656c-0.142,0.564-0.481,0.795-0.995,0.732
				c-1.995,2.166-3.99,4.331-5.985,6.497c-0.083,0.019-0.159,0.025-0.238,0.038c-0.674,1.892-2.067,3.059-3.857,3.827
				c-0.198,0.85-0.568,1.522-1.471,1.639c-0.004,0.006-0.005,0.013-0.01,0.019c-1.909,2.07-4.201,3.904-5.645,6.259l-33.418,13.527
				c-1.868,1.06-3.615,0.847-5.016-0.864c-0.11-0.04-0.221-0.075-0.332-0.119c-1.3-0.286-2.599-0.572-3.899-0.857
				c0-0.001-0.001-0.002-0.001-0.003c0,0.001,0,0.001,0,0.002c-2.016,0.563-3.527-0.362-4.91-1.673c0,0,0.007-0.015,0.018-0.041
				c-4.358-0.689-7.92-2.873-10.937-6.005c-1.957-2.032-2.289-4.644-0.604-6.882c1.502-1.997,3.188-3.961,5.142-5.492
				c5.916-4.633,12.35-8.339,19.82-9.895c0.007-0.021,0.009-0.038,0.017-0.059c5.118-3.658,11.313-4.454,17.12-6.045
				c12.47-3.417,25.278-5.263,38.121-6.711c2.303-0.26,4.789-1.093,7.76,0.899c-2.579,3.094-4.642,6.252-8.394,7.827
				c0,0-0.001,0-0.001,0C1738.483,2093.449,1737.702,2093.684,1735.763,2094.656z M1827.494,2359.933
				c-0.334,15.86-2.618,15.264-15.701,15.83c-27.551,1.192-55.128,1.018-82.672-0.313c-15.928-0.769-31.943-0.243-47.766-2.767
				c-3.204-0.511-6.395-1.193-9.528-2.033c-6.376-1.71-9.616-6.147-10.198-12.561c-0.259-2.859-0.619-5.779,0.847-9.668
				c10.44,3.099,20.28,6.67,30.505,9.04c41.355,9.586,82.012,7.248,122.102-6.445
				C1827.169,2346.888,1827.761,2347.287,1827.494,2359.933z M1923.587,2082.336c8.503,16.17,15.047,33.002,17.317,51.295
				c0.671,5.403,2.029,10.73,2.532,16.143c3.294,35.415-3.988,68.767-21.042,99.783c-25.339,46.083-63.735,76.979-113.535,92.951
				c-61.512,19.727-120.734,13.475-175.852-20.713c-42.287-26.229-69.918-63.966-81.519-112.688
				c-7.861-33.014-5.585-65.64,5.423-97.703c0.609-1.775,1.32-3.362,3.269-4.608c8.458,17.727,23.59,28.072,40.67,36.067
				c16.214,7.59,33.355,12.459,50.953,15.318c60.581,9.843,120.231,5.497,178.788-12.897c17.009-5.343,33.316-12.417,48.563-21.778
				c7.768-4.769,15.067-10.15,21.644-16.477c8.511-8.188,15.083-17.646,18.433-29.028
				C1922.313,2078.258,1922.687,2080.625,1923.587,2082.336z M2379.702,1862.312c5.512-4.313,11.773-7.093,18.337-9.32
				c14.898-5.055,30.334-7.344,45.93-8.399c8.317-0.563,16.702-0.1,25.056-0.1c33.243-0.645,65.918,3.482,97.796,13.107
				c11.13,3.36,21.949,7.579,31.919,13.678c4.973,3.042,9.747,6.396,13.148,11.272c4.106,5.887,3.669,10.323-1.432,15.541
				c-3.095,3.166-6.897,5.303-10.836,7.191c-8.906,4.27-18.382,6.864-28.032,8.559c-25.888,4.547-51.928,5.521-78.167,3.363
				c-23.236-1.912-46.14-5.384-68.539-11.887c-10.114-2.936-19.987-6.568-29.375-11.396c-6.17-3.173-11.948-6.977-16.792-11.962
				C2372.476,1875.537,2372.306,1868.098,2379.702,1862.312z M2604.584,1994.151c-1.965,17.315-4.113,34.611-5.939,51.941
				c-2.701,25.638-5.211,51.296-7.752,76.951c-2.469,24.934-5.38,49.815-9.148,74.586c-1.679,11.038-1.94,10.908-10.901,17.466
				c-11.289,8.262-23.799,13.868-37.259,17.355c-11.269,2.92-22.711,4.7-34.421,4.824c-19.292,0.206-38.467-0.942-57.537-3.9
				c-6.812-1.057-13.644-2-20.482-2.863c-4.747-0.599-9.24-1.982-13.418-4.224c-4.944-2.653-8.339-6.277-9.612-12.274
				c-2.495-11.755-4.083-23.621-5.232-35.529c-5.058-52.436-8.421-104.978-9.318-157.666c-0.124-7.256-0.866-14.5-1.209-21.755
				c-0.153-3.235-0.026-6.483-0.026-10.273c4.206-0.689,7.062,1.357,10.083,2.346c26.039,8.521,52.821,12.871,80.066,14.8
				c18.508,1.311,37.002,1.484,55.523,0.067c25.819-1.976,51.152-5.943,74.896-17.002c0.274-0.128,0.708,0.088,1.086,0.146
				C2605.587,1990.635,2604.775,1992.465,2604.584,1994.151z M2609.895,1952.802c-0.393,4.337-1.48,8.654-1.457,12.976
				c0.038,6.79-3.373,10.543-9.172,13.284c-8.237,3.894-16.705,7.061-25.523,9.246c-28.417,7.038-57.32,9.228-86.486,8.007
				c-28.002-1.171-55.707-4.646-82.72-12.443c-6.262-1.807-12.319-4.309-18.55-6.234c-3.327-1.028-4.491-2.986-4.606-6.358
				c-0.422-12.342-1.121-24.673-1.612-37.013c-0.404-10.165-0.587-20.336-2.25-30.41c-0.35-2.121-0.291-4.308-0.409-6.275
				c1.253-0.791,2.181-1.009,3.21-0.345c18.589,12.002,39.371,18.395,60.691,23.081c28.12,6.18,56.66,9.04,85.452,8.444
				c19.618-0.406,39.144-2.071,58.243-7.12c9.478-2.505,18.51-6.076,28.937-11.967
				C2612.286,1925.364,2611.137,1939.087,2609.895,1952.802z"/>
			<g>
				<path d="M1726.559,2095.27c0.004,0.039,0.008,0.078,0.012,0.117c0.033-0.04,0.073-0.078,0.109-0.117
					C1726.639,2095.27,1726.6,2095.269,1726.559,2095.27c-0.001,0-0.002,0-0.003,0
					C1726.557,2095.27,1726.558,2095.27,1726.559,2095.27z"/>
			</g>
			<path style="fill:#727171;" d="M2791.879,2007.963c-0.046-1.416-0.185-2.836-0.121-4.247c0.15-3.28-1.604-4.338-4.582-4.237
				c-0.663,0.022-1.341-0.387-2.009-0.598c2.544-2.459,5.96-0.751,8.788-1.844c0,3.636,0,7.273,0,10.909
				C2793.263,2007.952,2792.571,2007.957,2791.879,2007.963z"/>
			<path d="M1196.764,2479.074c-58.875,1.335-117.748,2.731-176.624,3.988c-57.423,1.226-114.851,2.271-172.275,3.463
				c-68.69,1.425-137.379,2.916-206.068,4.386c-66.872,1.431-133.743,2.874-200.615,4.309
				c-59.966,1.287-119.933,2.573-179.899,3.843c-2.904,0.062-5.823,0.123-8.714-0.1c-2.388-0.185-3.905-1.773-4.459-4.078
				c-0.548-2.281,1.276-5.121,3.996-5.644c2.817-0.541,5.741-0.645,8.624-0.704c58.879-1.2,117.759-2.329,176.638-3.551
				c67.964-1.41,135.926-2.897,203.889-4.351c67.6-1.445,135.199-2.888,202.799-4.334c68.326-1.461,136.653-2.927,204.979-4.388
				c67.963-1.453,135.926-2.902,203.889-4.355c67.963-1.454,135.926-2.914,203.889-4.367c67.963-1.453,135.926-2.898,203.889-4.352
				c68.326-1.461,136.653-2.929,204.979-4.391c67.963-1.454,135.927-2.897,203.89-4.357c22.169-0.476,44.338-1.009,66.508-1.457
				c2.889-0.058,5.82,0.009,8.666,0.445c1.854,0.284,3.058,1.83,3.364,3.794c0.387,2.485-0.768,4.229-2.923,5.257
				c-3.07,1.465-6.42,1.045-9.664,1.107c-21.081,0.401-42.165,0.666-63.245,1.105c-68.69,1.43-137.379,2.912-206.068,4.382
				c-66.872,1.43-133.743,2.874-200.615,4.304c-69.053,1.477-138.105,2.944-207.158,4.419c-67.599,1.445-135.198,2.871-202.796,4.36
				c-19.624,0.432-39.245,1.055-58.867,1.59C1196.77,2479.29,1196.767,2479.182,1196.764,2479.074z"/>
			<path style="fill:#2D2525;" d="M1793.166,2087.297"/>
			<path style="fill:#DBCECE;" d="M1766.218,2114.967"/>
		</g>
	</g>
</g>
<g id="Layer_8_xA0_Image_1_">
</g>
<g id="Layer_10_xA0_Image_1_">
</g>
<g id="Layer_12_xA0_Image_1_">
</g>
</svg>
