<?xml version="1.0" encoding="iso-8859-1"?>
<!-- Generator: Adobe Illustrator 23.0.2, SVG Export Plug-In . SVG Version: 6.00 Build 0)  -->
<svg version="1.1" xmlns="http://www.w3.org/2000/svg" xmlns:xlink="http://www.w3.org/1999/xlink" x="0px" y="0px"
	 viewBox="0 0 2793 2793" style="enable-background:new 0 0 2793 2793;" xml:space="preserve">
<g id="Background_xA0_Image_1_">
</g>
<g id="Layer_2_xA0_Image_1_">
</g>
<g id="Layer_3_xA0_Image_1_">
</g>
<g id="Layer_5_xA0_Image_1_">
</g>
<g id="Layer_8_xA0_Image_1_">
</g>
<g id="Layer_10_xA0_Image_1_">
</g>
<g id="Layer_12_xA0_Image_1_">
</g>
<g id="Layer_16_xA0_Image_1_">
	<g>
		<path d="M2762.682,2239.884c-2.522-1.675-5.369-2.059-8.315-2.192c-7.626-0.345-15.251-0.741-22.874-1.153
			c-30.132-1.63-60.247-3.772-90.46-2.762c-8.722,0.292-17.455,0.332-26.168,0.769c-5.647,0.283-10.652-0.843-14.976-4.58
			c0-1.315-0.133-2.413,0.02-3.469c2.684-18.57,1.693-36.949-2.469-55.229c-3.063-13.452-6.168-26.91-8.657-40.475
			c-5.055-27.554-12.465-54.488-20.727-81.205c-4.843-15.661-12.639-30.108-19.038-45.13c-13.557-31.824-30.17-62.028-47.83-91.693
			c-15.104-25.374-31.956-49.416-52.992-70.363c-11.392-11.344-23.956-21.164-37.067-30.358c-3.007-2.109-6.255-3.74-10.005-3.93
			c-4.346-0.22-8.293,2.438-9.286,6.109c-1,3.696,0.268,6.897,3.896,9.265c3.032,1.978,6.294,3.614,9.257,5.684
			c25.337,17.699,46.223,39.788,63.588,65.236c9.42,13.805,18.093,28.088,26.482,42.556c15.506,26.743,28.673,54.603,41.664,82.632
			c12.462,26.886,21.151,54.807,27.867,83.487c3.641,15.551,7.058,31.155,10.573,46.735c5.848,25.923,11.593,51.852,7.041,78.712
			c-0.301,1.775-0.178,3.629-0.184,5.447c-0.021,5.848-0.705,11.571-2.43,17.204c-1.7,5.551-2.954,11.237-4.572,16.815
			c-2.948,10.162-6.902,19.784-13.24,28.478c-5.579,7.652-11.851,14.719-17.53,22.255c-14.837,19.689-34.543,32.978-56.291,43.693
			c-1.297,0.639-2.618,1.272-3.992,1.707c-7.611,2.407-15.262,4.689-22.858,7.138c-5.543,1.787-11.158,3.112-16.927,4.006
			c-14.734,2.284-29.642,3.116-44.377,5.128c-37.685,5.146-75.446,5.089-113.215,2.494c-41.694-2.864-83.328-6.606-124.984-10.015
			c-6.519-0.534-13.011-1.39-19.525-2c-19.177-1.798-38.357-3.576-57.54-5.311c-29.32-2.653-58.616-5.647-87.974-7.794
			c-35.526-2.598-71.154-3.745-106.63-7.126c-17.725-1.689-35.52-2.757-53.106-5.715c-13.966-2.349-27.952-4.596-41.866-7.223
			c-27.187-5.133-53.634-12.773-79.096-23.735c-14.802-6.372-28.341-14.736-40.734-24.973
			c-13.124-10.841-21.204-24.885-24.399-41.425c-1.784-9.237-2.802-18.757-2.039-28.229c1.61-19.986,1.881-39.915-0.914-59.833
			c-0.926-6.596-0.288-12.964,3.495-18.862c1.735-2.704,2.69-5.947,3.768-9.027c2.785-7.96,8.174-13.58,15.387-17.66
			c6.716-3.799,13.893-6.192,21.521-7.319c27.523-4.063,55.152-3.512,82.697-0.952c26.406,2.454,52.694,6.15,79.064,9.013
			c10.109,1.097,20.297,1.575,30.463,2.027c18.727,0.832,35.001-5.326,48.657-18.096c2.393-2.238,4.715-3.024,7.778-2.707
			c6.508,0.673,13.015,1.568,19.542,1.795c27.958,0.973,54.541,7.697,80.172,18.622c2.333,0.995,4.693,2.006,7.135,2.649
			c4.475,1.179,8.673-0.526,10.341-3.91c1.7-3.451,0.597-7.92-3.228-10.482c-3.599-2.409-7.431-4.656-11.454-6.216
			c-26.91-10.432-54.463-18.015-83.64-17.983c-3.271,0.003-6.548-0.091-9.812-0.297c-4.545-0.287-5.037-0.816-5.209-5.01
			c-0.044-1.089,0.096-2.187,0.017-3.271c-1.393-19.108-8.902-34.95-24.524-46.639c-9.391-7.026-19.551-12.514-30.568-16.448
			c-7.518-2.684-15.146-5.078-22.595-7.939c-25.455-9.775-49.691-22.215-73.942-34.556c-16.883-8.591-34.213-15.885-52.347-21.306
			c-34.899-10.434-70.701-16.435-106.677-21.48c-27.709-3.885-55.472-7.376-83.375-9.627c-6.117-0.493-12.219-1.156-18.118-1.72
			c-0.473-1.046-0.986-1.689-1.033-2.364c-0.407-5.802-0.823-11.606-1.063-17.417c-2.464-59.613-2.234-119.238-0.53-178.862
			c0.727-25.437,1.727-50.866,2.575-76.3c0.23-6.905,0.082-13.834,0.598-20.715c1.194-15.926,1.725-31.885,5.23-47.622
			c3.6-16.161,12.187-28.538,25.498-37.906c5.346-3.762,10.732-7.511,16.359-10.826c21.376-12.594,40.803-27.806,59.735-43.735
			c23.647-19.896,42.895-43.345,57.607-70.513c6.271-11.58,10.822-23.646,12.46-36.908c1.742-14.104,2.502-28.246,2.933-42.4
			c0.208-6.855-0.681-13.811-1.729-20.62c-1.572-10.213-6.703-18.275-15.879-23.544c-7.597-4.363-15.507-7.939-24.026-10.052
			c-6.411-1.59-12.293-4.324-17.931-7.719c-5.113-3.078-7.641-7.108-7.328-13.412c0.74-14.891,1.423-29.765,3.788-44.516
			c2.127-13.27,4.123-26.561,6.139-39.849c0.6-3.953,0.991-7.938,1.636-11.882c0.384-2.346,1.644-3.973,4.358-3.846
			c2.179,0.102,4.361,0.195,6.541,0.214c27.635,0.234,55.307,0.971,82.884-0.84c28.683-1.884,57.399-2.247,86.096-3.324
			c15.983-0.6,31.981-0.14,47.96,1.101c7.305,0.567,14.276,2.664,21.476,3.595c10.599,1.37,17.442-2.892,20.951-12.975
			c1.21-3.477,1.783-7.035,1.905-10.689c0.513-15.271,0.801-30.521-1.735-45.691c-1.197-7.164-1.885-14.411-2.893-21.608
			c-3.073-21.944-5.339-44.013-9.858-65.736c-8.357-40.175-16.679-80.358-25.236-120.491c-4.769-22.369-9.889-44.644-17.587-66.276
			c-3.522-9.896-5.371-20.342-6.315-30.866c-2.761-30.769-5.448-61.537-10.409-92.067c-5.783-35.589-14.249-70.474-27.057-104.199
			c-8.551-22.514-19.385-43.892-34.913-62.522c-29.905-35.879-64.6-65.738-107.37-85.592
			c-25.116-11.659-51.093-20.546-77.914-27.375c-37.505-9.549-75.364-15.685-114.187-15.022c-22.576,0.385-44.969,2.1-67.163,6.575
			c-27.555,5.555-53.709,15.112-79.492,26.072c-35.906,15.264-67.911,36.303-95.244,64.075
			c-19.955,20.275-37.424,42.542-49.227,68.763c-2.682,5.958-5.208,12.013-8.325,17.741c-8,14.702-14.757,29.965-21.117,45.415
			c-11.635,28.261-21.902,56.938-26.282,87.387c-0.872,6.062-1.884,12.104-2.841,18.212c-3.938,0.78-7.466,1.523-11.01,2.173
			c-14.669,2.69-27.664,9.089-38.659,18.952c-27.756,24.898-38.677,56.339-34.647,93.112c1.683,15.359,7.17,29.501,15.85,43.098
			c-3.109,2.134-5.792,4.464-8.055,7.29c-20.682,25.831-40.537,52.267-58.894,79.808c-7.062,10.596-13.251,21.683-18.53,33.288
			c-3.333,7.326-5.767,14.913-7.046,22.832c-3.937,24.372,7.569,44.438,27.957,53.695c9.68,4.395,19.757,7.256,30.261,8.561
			c15.143,1.881,30.321,3.478,45.464,5.362c9.081,1.129,18.125,1.177,27.186-0.015c5.387-0.708,10.775-1.343,16.522-0.743
			c2.439,6.14,4.799,12.215,7.258,18.249c9.115,22.363,22.984,41.117,42.248,55.83c10.428,7.964,21.409,15.024,33.178,20.811
			c13.527,6.651,27.98,10.386,42.895,11.527c24.753,1.893,49.428,1.646,73.242-6.973c3.351-1.212,6.758-2.135,10.17-1.773
			c1.411,2.552,0.457,4.606-0.152,6.596c-1.489,4.859-3.173,9.658-4.698,14.506c-5.378,17.099-9.003,34.449-7.507,52.54
			c0.078,0.948-0.469,1.947-0.704,2.838c-1.967,0.672-3.641,1.416-5.394,1.81c-5.464,1.228-7.782,4.988-8.243,10.154
			c-0.517,5.793-0.891,11.601-1.236,17.408c-0.414,6.96,0.45,13.782,2.431,20.469c4.016,13.555,10.892,18.994,24.95,20.294
			c10.91,1.009,21.8,0.229,32.7,0.25c33.11,0.062,66.137-1.826,99.148-4.123c6.449-0.449,12.901-0.852,19.781-0.702
			c0.466,6.208-0.624,11.444-1.459,16.767c-1.428,9.102-0.583,8.743-9.712,9.355c-4.307,0.289-8.618,1.267-12.807,2.382
			c-5.647,1.502-10.835,4.147-15.617,7.535c-21.815,15.458-26.385,43.821-10.539,65.393c14.101,19.196,40.746,28.154,64.273,21.739
			c10.073-2.747,18.931-7.529,25.833-15.396c10.223-11.653,14.278-25.019,10.577-40.43c-2.649-11.031-8.613-19.892-17.099-27.202
			c-4.438-3.823-9.391-6.907-14.79-9.093c-2.854-1.155-3.942-2.721-3.628-5.701c0.836-7.95,1.529-15.916,2.318-23.871
			c0.209-2.108,1.508-3.159,3.593-3.284c1.088-0.066,2.176-0.153,3.265-0.202c35.957-1.626,71.915-3.222,107.87-4.892
			c8.353-0.388,16.698-0.964,25.038-1.58c2.516-0.186,5.072-0.554,7.484-1.266c5.661-1.672,9.298-5.291,10.537-11.298
			c0.817-3.963,1.06-7.917,0.971-11.921c-0.268-12.163-0.589-12.296,10.553-6.902c1.306,0.632,2.572,1.347,3.881,1.971
			c8.312,3.959,12.289,10.362,13.005,19.722c1.34,17.522-0.289,34.825-2.02,52.195c-1.107,11.107-4.977,21.151-10.182,30.809
			c-13.608,25.248-31.389,47.093-53.319,65.611c-18.628,15.73-37.823,30.64-58.831,43.126c-6.238,3.708-12.286,7.787-18.14,12.079
			c-15.825,11.602-26.194,26.791-30.664,46.132c-4.039,17.479-5.116,35.232-5.927,53.008c-1.061,23.242-1.381,46.51-2.309,69.765
			c-2.756,69.051-3.166,138.131-0.278,207.202c0.152,3.633,0.206,7.275,0.509,10.896c0.533,6.379-1.025,6.471-5.664,6.313
			c-14.945-0.51-29.759,1.088-44.551,2.961c-2.524,0.32-5.062,0.759-7.592,0.752c-2.744-0.007-5.522,2.026-8.197,0.088
			c-0.287-0.821-0.698-1.489-0.735-2.177c-1.589-29.037-4.161-58.029-3.548-87.164c0.322-15.266,0.084-30.544,0.191-45.816
			c0.122-17.453,0.174-34.909,0.557-52.357c0.908-41.451,1.164-82.899-0.653-124.328c-0.365-8.32-1.29-16.721-3.028-24.857
			c-6.25-29.262-20.898-53.056-46.166-69.989c-12.398-8.309-25.25-15.794-38.273-23c-21.964-12.152-38.467-29.584-50.492-51.41
			c-13.634-24.746-21.222-50.845-17.667-79.468c0.895-7.207,1.063-14.503,1.617-21.754c0.336-4.394,0.144-8.769-1.114-12.975
			c-2.171-7.26-9.38-9.616-15.573-5.095c-2.028,1.48-3.709,3.451-5.479,5.265c-12.706,13.027-24.474,26.894-35.997,40.949
			c-8.285,10.106-16.58,20.25-23.238,31.588c-3.771,6.422-6.038,13.271-5.71,20.711c0.223,5.065,0.709,10.206,1.868,15.126
			c6.089,25.866,17.142,49.228,34.792,69.408c14.396,16.461,29.913,31.733,46.173,46.314c17.112,15.346,32.84,31.908,44.831,51.733
			c4.134,6.835,8.677,13.426,13.158,20.044c1.198,1.769,2.687,3.436,4.342,4.78c2.582,2.098,5.286,2.001,8.072,0.256
			c2.78-1.74,4.067-4.388,3.332-7.4c-0.674-2.758-2.047-5.412-3.472-7.907c-4.143-7.252-8.55-14.353-12.698-21.602
			c-5.442-9.509-11.848-18.294-19.228-26.378c-9.075-9.941-18.515-19.498-28.612-28.431c-14.716-13.019-28.558-26.914-41.569-41.675
			c-15.222-17.271-25.072-37.1-31.134-59.224c-3.651-13.324-1.927-24.714,6.592-35.743c12.01-15.547,24.473-30.693,37.368-45.497
			c1.112-1.276,2.088-3.097,4.781-2.109c-0.309,3.846-0.46,7.826-0.977,11.758c-1.583,12.047-0.954,24.12,1.65,35.814
			c10.052,45.138,32.156,82.256,72.931,106.449c4.683,2.779,9.422,5.467,14.186,8.105c9.226,5.11,18.057,10.832,26.799,16.725
			c18.654,12.575,30.183,30.101,36.078,51.518c2.902,10.545,4.185,21.369,4.57,32.307c1.241,35.262,1.303,70.544,0.572,105.802
			c-0.912,43.998-0.632,87.994-0.82,131.99c-0.043,10.168,0.68,20.343,1.169,30.509c0.612,12.711,1.424,25.413,1.987,38.126
			c0.191,4.302-0.261,4.808-4.799,5.502c-14.718,2.252-29.402,4.988-44.207,6.358c-28.979,2.682-57.733,6.664-86.207,12.635
			c-20.606,4.322-41.096,9.234-61.779,13.142c-14.974,2.829-30.193,4.342-45.272,6.64c-8.968,1.366-17.861,3.216-26.816,4.674
			c-20.792,3.386-41.614,6.592-62.401,10.011c-19.351,3.183-38.707,6.362-57.988,9.94c-6.224,1.155-7.978-0.836-9.854-5.697
			c-3.265-8.462-6.385-16.981-9.618-25.456c-1.68-4.405-3.341-8.824-5.241-13.136c-2.926-6.641-6.124-13.162-9.076-19.791
			c-9.874-22.17-23.198-41.907-40.954-58.566c-15.492-14.534-33.84-23.719-54.406-28.32c-26.785-5.992-53.927-7.44-81.305-5.441
			c-15.602,1.139-31.072,3.219-46.574,5.209c-23.457,3.013-46.41,8.526-69.534,13.203c-1.416,0.286-2.879,0.555-4.181,1.14
			c-3.061,1.374-5.112,5.027-4.659,7.931c0.566,3.632,3.667,6.386,7.574,6.529c1.806,0.066,3.643-0.053,5.432-0.315
			c6.826-0.999,13.656-1.989,20.453-3.165c22.19-3.837,44.338-7.856,66.73-10.484c30.459-3.574,60.76-4.531,91.258,0.323
			c28.224,4.492,51.126,17.141,69.514,39.046c17.395,20.721,26.929,45.475,37.638,69.668c3.666,8.282,6.529,16.923,9.635,25.445
			c0.676,1.855,2.552,3.551,1.182,6.071c-3.775,2.228-8.307,1.958-12.506,2.914c-14.507,3.304-28.503,8.641-43.296,10.813
			c-1.739,0.255-3.509,1.06-5.012,2.01c-4.549,2.873-4.063,10.22,0.746,12.666c1.994,1.014,4.082,1.437,6.329,1.056
			c5.012-0.85,10.064-1.498,15.045-2.5c16.723-3.365,33.184-7.912,50.087-10.52c17.581-2.712,35.093-5.914,52.573-9.23
			c32.128-6.094,64.474-10.83,96.79-15.748c5.642-0.859,11.474-1.171,17.876-0.198c-3.416,12.373-4.266,24.617-5.081,36.893
			c-1.455,21.911,0.156,43.588,4.513,65.059c4.403,21.696,8.675,43.444,17.09,64.08c0.113,0.277-0.035,0.66-0.091,1.362
			c-4.54,0.797-9.148,1.913-13.822,2.375c-26.502,2.622-52.268,8.839-77.686,16.399c-17.76,5.282-34.98,12.171-50.585,22.468
			c-3.016,1.99-6.136,4.008-8.624,6.578c-6.553,6.769-6.553,14.252-0.367,21.439c3.151,3.661,7.141,6.079,11.652,7.778
			c6.52,2.456,13.273,3.51,20.174,4.273c10.435,1.153,21.046,0.956,31.269,3.835c1.374,2.152,3.564,1.111,5.42,1.381
			c1.305,0.066,2.63-0.155,3.903,0.294c-1.288-0.33-2.603-0.186-3.906-0.223c-1.931,0.155-3.977-0.465-5.742,0.839
			c-21.588,2.97-43.175,5.949-64.765,8.907c-15.834,2.17-31.654,4.459-47.513,6.429c-21.27,2.643-42.561,5.121-63.861,7.505
			c-24.192,2.707-48.382,5.457-72.613,7.765c-20.981,1.999-42.034,3.224-63.026,5.11c-44.913,4.034-89.935,6.165-134.977,7.865
			c-63.922,2.413-127.885,3.282-191.721,8.421c-40.205,3.236-80.589,3.198-120.873-1.423c-23.724-2.721-45.275-10.104-63.917-25.141
			c-7.062-5.696-13.911-11.706-20.437-18.009c-21.764-21.022-37.809-45.886-48.757-74.052c-1.043-2.682-1.786-5.544-2.216-8.39
			c-2.117-14.005-4.533-27.988-5.975-42.067c-1.479-14.444-2.813-28.936-2.042-43.531c1.883-35.643,6.49-70.895,14.898-105.6
			c5.056-20.868,11.336-41.337,22.144-60.086c20.515-35.59,45.632-67.307,78.094-92.894c11.7-9.222,23.102-18.828,34.549-28.367
			c18.57-15.474,34.844-33.037,46.962-54.054c8.323-14.435,20.034-24.675,35.174-31.25c0.997-0.433,1.921-1.029,2.907-1.489
			c9.655-4.501,18.156-10.635,25.689-18.136c6.183-6.156,12.288-12.392,18.543-18.473c13.171-12.803,28.559-20.724,47.141-22.649
			c15.148-1.57,30.282-3.627,44.957-8.137c8.835-2.715,16.731-6.954,23.639-13.052c6.012-5.307,11.705-10.96,16.223-17.602
			c14.305-21.03,28.327-42.25,39.325-65.265c4.224-8.839,7.93-17.924,11.964-26.856c7.851-17.38,18.484-32.793,31.701-46.621
			c17.356-18.159,37.882-31.585,60.423-42.135c27.625-12.931,56.05-23.82,85.004-33.458c33.612-11.189,68.025-17.977,103.25-21.116
			c26.057-2.323,52.128-4.581,78.125-7.473c24.608-2.738,49.206-4.258,73.981-3.678c20.003,0.469,39.958,1.334,59.857,3.405
			c2.547,0.265,5.032,0.515,7.48-0.63c2.515-1.176,4.055-3.004,4.38-5.769c0.37-3.147-0.524-5.887-3.396-7.415
			c-1.888-1.004-4.041-1.792-6.152-2.052c-13.341-1.64-26.667-3.766-40.066-4.501c-37.839-2.077-75.544,0.087-113.162,4.545
			c-19.84,2.351-39.756,4.088-59.656,5.894c-22.447,2.037-44.78,4.711-66.75,9.956c-46.79,11.169-91.509,28.068-134.883,48.675
			c-5.893,2.8-11.665,5.907-17.281,9.23c-36.744,21.739-64.733,51.388-81.065,91.2c-11.65,28.4-27.394,54.452-44.532,79.742
			c-3.044,4.492-6.573,8.693-10.183,12.758c-7.951,8.955-17.786,14.479-29.607,17.167c-12.087,2.749-24.296,4.513-36.549,5.852
			c-20.67,2.259-38.24,10.84-53.468,24.638c-4.037,3.658-7.943,7.486-11.656,11.472c-10.999,11.802-23.215,21.733-38.147,28.432
			c-15.26,6.846-27.5,17.535-35.872,32.285c-0.716,1.26-1.646,2.397-2.387,3.645c-11.266,18.975-25.947,34.991-42.774,49.101
			c-11.696,9.808-23.422,19.591-35.375,29.081c-21.789,17.297-40.674,37.345-57.172,59.668
			c-19.559,26.464-35.836,54.609-44.468,86.726c-11.364,42.285-17.809,85.289-19.445,129.022
			c-0.354,9.452-0.059,18.895,1.045,28.312c0.55,4.689,0.789,9.419,1.055,14.137c0.187,3.31-0.173,3.808-3.645,3.932
			c-13.078,0.468-26.159,0.896-39.243,1.168c-43.976,0.917-87.953,1.761-131.93,2.634c0,5.818,0,11.636,0,17.455
			c55.246-1.09,110.492-2.226,165.741-3.172c3.824-0.065,8.38-2.065,11.459,1.001c2.604,2.593,1.358,6.924,2.097,10.432
			c1.498,7.104,3.046,14.198,4.573,21.296c6.752,8.76,9.039,19.735,14.434,29.158c20.287,35.43,47.484,64.137,83.156,84.341
			c11.125,6.301,23.335,9.901,35.984,11.999c16.162,2.68,32.436,4.076,48.78,4.99c32.38,1.811,64.699,0.356,97.007-1.596
			c16.688-1.008,33.335-2.869,50.033-3.527c62.854-2.476,125.729-4.43,188.58-6.977c24.332-0.986,48.642-2.754,72.923-4.662
			c29.348-2.306,58.668-5.005,87.977-7.783c23.877-2.263,47.759-4.564,71.567-7.444c30.657-3.708,61.243-8.012,91.859-12.057
			c35.302-4.665,70.576-9.608,106.048-12.807c10.776-0.971,21.598-2.78,32.519-0.407c14.189,3.083,28.454,5.827,42.71,8.593
			c22.813,4.426,45.635,8.806,68.473,13.1c17.125,3.22,34.092,7.275,51.447,9.276c31.718,3.657,63.094,2.914,93.957-6.271
			c13.583-4.042,27.41-7.199,41.411-9.35c26.758-4.112,53.733-3.376,80.559-1.601c19.894,1.316,39.764,3.79,59.52,6.95
			c6.325,1.012,10.462,2.995,13.183,9.081c4.827,10.801,12.64,19.467,21.809,26.853c11.92,9.602,24.602,17.986,38.604,24.348
			c12.575,5.715,25.379,10.802,38.566,14.875c41.122,12.702,83.346,19.687,126.073,23.935c11.935,1.187,23.91,1.986,35.871,2.908
			c15.945,1.23,31.876,2.879,47.846,3.497c25.812,0.998,51.503,3.44,77.236,5.414c9.423,0.722,18.861,1.29,28.266,2.203
			c24.96,2.424,49.881,5.271,74.862,7.432c22.805,1.973,45.567,4.343,68.459,5.555c26.844,1.421,53.578,4.809,80.403,6.757
			c25.746,1.87,51.546,2.986,77.378,1.62c23.968-1.268,47.748-4.493,71.619-6.771c24.826-2.368,48.345-9.113,70.792-19.804
			c15.185-7.232,29.17-16.23,41.383-27.917c11.609-11.111,21.115-23.971,31.023-36.51c10.099-12.78,16.511-27.251,20.087-43.066
			c0.641-2.832,1.435-5.63,2.213-8.429c2.344-8.43,2.353-8.375,10.734-8.181c10.175,0.235,20.369,0.821,30.527,0.462
			c31.311-1.104,62.512,0.856,93.729,2.654c7.98,0.46,15.98,0.613,23.973,0.833c2.954,0.081,5.787-0.535,8.305-2.202
			C2767.227,2249.751,2767.235,2242.907,2762.682,2239.884z M1842.231,1093.795c0.146-0.618,0.833-1.163,1.375-1.625
			c13.964-11.876,21.216-27.854,24.093-45.135c4.347-26.119,5.551-52.616,3.029-79.113c-0.409-4.303-1.617-8.526-2.321-12.808
			c-0.282-1.718-0.598-3.86,1.579-4.543c2.297-0.72,3.137,1.189,3.64,2.966c1.679,5.931,3.368,11.903,3.49,18.096
			c0.185,9.419,0.048,18.845,0.048,28.268c0.042,13.772-0.267,27.533-2.027,41.242c-2.173,16.928-8.569,32.106-18.141,46.038
			c-3.09,4.497-6.735,8.596-12.062,10.625c-1.014,0.386-2.287,0.171-2.682-1.002
			C1841.946,1095.889,1842.004,1094.753,1842.231,1093.795z M1812.728,792.374c1.06-0.686,2.939,0.87,3.6,3.064
			c4.823,16.02,7.6,32.479,10.226,48.95c2.798,17.551,5.429,35.132,7.783,52.747c1.345,10.064,2.4,20.201,2.876,30.339
			c1.175,25.019,2.865,50.032,2.455,75.098c-0.119,7.242-0.944,14.474-1.495,21.707c-0.082,1.072-0.146,2.347-0.746,3.117
			c-0.539,0.691-1.783,0.998-2.758,1.111c-0.438,0.051-1.324-0.722-1.413-1.225c-0.307-1.756-0.582-3.572-0.465-5.339
			c1.058-15.964,0.646-31.937,0.328-51.98c-1.097-26.036-1.824-56.214-6.599-86.007c-4.416-27.555-7.486-55.369-14.508-82.475
			c-0.452-1.745-0.601-3.577-0.779-5.38C1811.089,794.643,1811.348,793.267,1812.728,792.374z M1074.915,1067.828
			c-3.231,0.942-6.477,0.802-9.643-0.296c-15.195-5.268-29.25-24.374-29.518-40.589c0.392-4.191,1.033-8.818,2.674-13.327
			c3.129-8.601,7.64-16.438,12.6-24.06c2.971-4.565,5.975-9.111,8.839-13.742c3.277-5.299,5.262-11.12,6.746-17.152
			c0.402-1.636,0.799-3.625,3.252-3.682c1.772-0.041,2.668,1.963,2.091,5.235c-1.016,5.766-2.896,11.271-5.811,16.338
			c-3.256,5.661-6.716,11.208-10.191,16.739c-4.061,6.464-7.77,13.077-10.825,20.107c-6.125,14.096-2.729,26.193,7.149,37.072
			c1.944,2.142,4.181,4.041,6.422,5.884c4.591,3.775,9.57,6.552,15.87,5.827c1.715-0.198,2.873,1.27,2.952,2.609
			C1077.601,1066.142,1076.394,1067.396,1074.915,1067.828z M1772.553,803.68c0.216-1.659,1.438-2.852,2.792-2.801
			c1.35,0.051,2.566,1.397,2.758,2.933c0.359,2.875,0.597,5.773,0.727,8.669c0.326,7.25,0.563,14.505,0.835,21.758
			c0.062-0.003,0.124-0.005,0.187-0.008c0.309,6.887,0.65,13.773,0.907,20.661c0.081,2.169-0.017,4.35-0.122,6.521
			c-0.076,1.579-0.919,3.008-2.419,3.198c-2.162,0.273-2.975-1.446-3.374-3.301c-0.076-0.354-0.154-0.714-0.169-1.073
			c-0.75-18.492-1.494-36.984-2.23-55.476C1772.43,804.403,1772.506,804.04,1772.553,803.68z M1695.781,737.051
			c0.097-0.671,0.419-1.495,0.921-1.868c0.461-0.343,1.363-0.367,1.96-0.179c0.642,0.201,1.253,0.728,1.709,1.257
			c5.924,6.873,11.773,13.81,17.728,20.655c11.789,13.551,18.824,29.013,20.26,47.116c1.008,12.716,0.954,25.39,0.335,38.085
			c-2.243,46.054-4.686,92.099-6.768,138.16c-0.737,16.311-1.258,32.667,0.719,48.962c0.131,1.074,0.138,2.17,0.122,3.254
			c-0.025,1.663-0.897,2.756-2.55,2.886c-1.711,0.135-2.684-1.195-2.99-2.542c-0.56-2.461-0.917-5.006-1.009-7.528
			c-0.292-7.981-0.691-15.972-0.563-23.951c0.37-22.868,0.458-45.75,2.321-68.572c0.443-5.426,0.551-10.878,0.814-16.319
			c-0.027-0.001-0.054-0.002-0.081-0.004c1.132-20.663,2.237-41.327,3.404-61.988c0.82-14.51,1.066-29.027,0.696-43.554
			c-0.468-18.423-6.308-34.841-18.264-48.983c-5.389-6.375-10.803-12.731-16.099-19.182
			C1697.113,741.13,1695.43,739.491,1695.781,737.051z M1616.371,1010.53c3.913-24.029,9.869-47.618,15.289-71.324
			c10.194-44.583,13.422-89.74,10.944-135.341c-0.828-15.236-1.645-30.485-3.03-45.676c-1.517-16.633-3.56-33.221-5.606-49.801
			c-1.734-14.05-3.831-28.054-5.675-42.091c-0.228-1.732,0.054-3.545,0.218-5.31c0.083-0.901,0.762-1.256,1.635-1.01
			c0.654,0.184,1.728,0.302,1.858,0.698c1.005,3.063,2.122,6.138,2.646,9.301c1.544,9.311,3.083,18.636,4.167,28.008
			c2.714,23.448,6.602,46.765,7.74,70.392c0.944,19.598,2.102,39.185,2.85,52.961c0.297,46.325-3.741,86.336-13.268,125.749
			c-4.947,20.464-9.832,40.954-13.313,61.726c-2.162,12.901-3.898,25.884-1.176,38.998c0.964,4.646,2.269,9.132,4.095,13.503
			c4.463,10.684,12.26,17.961,23.032,21.781c5.438,1.928,11.176,3.252,16.889,4.118c18.757,2.841,37.624,3.112,56.534,1.725
			c19.206-1.409,38.419-2.729,57.632-4.04c1.789-0.122,3.63-0.061,5.392,0.241c0.958,0.164,2.036,0.903,1.682,2.262
			c-0.168,0.644-0.505,1.599-0.975,1.747c-2.047,0.645-4.148,1.302-6.271,1.492c-11.215,1.005-22.431,2.056-33.669,2.744
			c-23.562,1.442-47.121,3.912-70.747,1.04c-5.406-0.657-10.825-1.29-16.185-2.234c-23.734-4.18-39.49-17.231-43.768-45.836
			C1613.506,1034.412,1614.434,1022.425,1616.371,1010.53z M1162.926,721.366c0.497-4.326,1.138-8.644,1.928-12.926
			c1.499-8.12,1.401-8.423,8.626-12.125c13.689-7.015,27.745-7.905,41.838-1.033c7.573,3.692,14.004,9.051,20.367,14.484
			c2.482,2.119,4.881,4.427,7.649,6.101c4.918,2.975,10.478,0.978,12.663-4.083c0.936-2.167,0.944-4.243-0.171-6.267
			c-0.692-1.255-1.402-2.617-2.447-3.544c-9.514-8.437-19.108-16.71-30.549-22.632c-13.758-7.121-27.896-6.992-42.395-3.317
			c-2.404,0.61-4.774,1.354-8.456,2.407c0.26-6.642,2.473-11.23,4.078-15.968c11.798-34.817,26.458-68.345,45.149-100.05
			c3.309-5.613,5.881-11.61,10.034-16.795c4.151-5.184,8.855-8.056,15.666-8.209c8.705-0.195,17.389-1.211,26.088-1.791
			c18.229-1.215,36.305,0.856,54.36,2.844c15.88,1.749,31.74,3.734,47.557,5.983c65.195,9.271,127.289,28.52,186.23,57.97
			c4.871,2.434,7.981,5.524,10.065,10.548c7.85,18.925,11.807,38.827,15.698,58.794c7.12,36.542,9.525,73.446,9.093,110.6
			c-0.122,10.539,0.01,21.08-0.111,31.619c-0.044,3.815-0.684,4.241-4.601,4.297c-0.726,0.01-1.453-0.029-2.18-0.047
			c-34.153-0.833-68.305-1.67-102.458-2.499c-7.993-0.194-15.988-0.331-23.981-0.547c-7.186-0.194-7.34-0.198-8.548-6.771
			c-1.389-7.558-3.805-14.765-6.963-21.717c-16.417-36.141-54.198-60.958-96.934-56.627c-26.584,2.694-48.169,15.157-64.485,36.465
			c-1.323,1.728-2.751,3.437-3.723,5.36c-1.691,3.347-4.147,3.966-7.838,4.34c-13.715,1.39-27.361,3.483-41.015,5.437
			c-6.303,0.901-6.332,1.053-9.006-4.609c-3.74-7.919-8.201-15.368-13.88-22.065c-11.37-13.406-25.459-22.518-42.462-27.12
			C1162.633,726.47,1162.38,726.117,1162.926,721.366z M1371.415,772.684c-1.276,1.752-2.715,3.395-4.189,4.989
			c-16.249,17.573-32.509,35.135-48.796,52.673c-1.218,1.312-2.598,2.502-4.032,3.575c-0.965,0.722-2.077,0.327-2.96-0.386
			c-0.917-0.74-1.368-1.817-0.76-2.85c0.909-1.545,1.923-3.075,3.135-4.387c17.22-18.65,34.473-37.27,51.756-55.862
			c0.962-1.035,2.19-1.876,3.426-2.577c0.495-0.281,1.463-0.138,2,0.179c0.556,0.327,0.852,1.098,1.431,1.915
			C1372.139,770.768,1371.996,771.886,1371.415,772.684z M1379.55,804.112c0.926-0.949,2.391-1.631,3.702-1.843
			c0.749-0.122,1.693,0.956,2.255,1.309c0.722,2.029-0.131,3.291-1.081,4.338c-3.164,3.49-6.413,6.903-9.676,10.301
			c-4.771,4.968-9.563,9.914-14.389,14.827c-1.005,1.023-2.157,1.917-3.317,2.769c-0.953,0.701-2.195,0.721-2.906-0.134
			c-0.608-0.731-1.134-2.033-0.896-2.851c0.382-1.314,1.251-2.6,2.213-3.615C1363.434,820.795,1371.449,812.412,1379.55,804.112z
			 M1346.865,876.127c10.307-11.243,20.705-22.404,31.078-33.586c9.633-10.384,19.259-20.773,28.939-31.113
			c1.709-1.825,3.148-4.007,5.738-4.855c1.155-0.378,3.392,0.864,3.302,1.989c0.307,1.627-0.657,2.774-1.6,3.836
			c-3.375,3.802-6.776,7.583-10.241,11.303c-16.833,18.071-33.691,36.118-50.537,54.177c-0.743,0.797-1.414,1.665-2.198,2.417
			c-1.765,1.693-3.196,4.197-6.3,3.063C1343.056,882.63,1343.666,879.617,1346.865,876.127z M1156.865,875.228
			c5.369-7.313,10.741-14.624,16.133-21.919c7.119-9.631,14.237-19.262,21.408-28.854c1.28-1.712,2.308-3.688,4.428-4.67
			c1.073-0.498,3.464,0.388,3.619,2.203c-0.083,0.355-0.104,1.5-0.606,2.365c-1.089,1.876-2.376,3.646-3.667,5.396
			c-11.633,15.77-23.268,31.54-34.954,47.271c-1.487,2.001-2.673,4.427-5.318,5.229c-0.595,0.18-1.498,0.018-1.997-0.346
			c-0.51-0.372-0.871-1.153-0.993-1.812C1154.549,878.104,1155.801,876.678,1156.865,875.228z M1148.366,843.204
			c-0.868,1.164-2.041,2.073-4.069,1.391c-0.41-0.603-1.178-1.394-1.505-2.338c-0.19-0.549,0.159-1.462,0.55-2.008
			c6.746-9.444,13.525-18.864,20.349-28.252c0.379-0.521,1.168-0.879,1.829-1.02c0.659-0.141,1.678-0.176,2.04,0.211
			c0.679,0.724,1.597,1.986,1.367,2.674c-1.404,4.2-4.488,7.399-7.032,10.913C1157.425,830.948,1152.919,837.094,1148.366,843.204z
			 M1100.85,1028.55c-2.31,0.611-3.407-1.059-3.845-2.794c-1.146-4.541-2.368-9.112-2.906-13.747
			c-1.124-9.681-3.062-19.292-2.801-29.111c-0.212-4.31-1.019-8.639-0.026-12.943c0.347-1.502,1.292-2.566,2.966-2.517
			c1.79,0.052,2.359,1.275,2.246,2.84c-0.472,6.536,0.551,12.965,1.159,19.439c0.98,10.439,2.252,20.819,4.469,31.074
			c0.304,1.406,0.508,2.864,0.5,4.297C1102.603,1026.458,1102.593,1028.089,1100.85,1028.55z M1103.635,835.845
			c-1.086,1.445-2.176,2.894-3.369,4.249c-1.219,1.384-2.69,2.615-4.612,1.387c-1.975-1.262-1.512-2.984-0.427-4.646
			c0.395-0.605,0.794-1.21,1.229-1.788c17.385-23.13,34.762-46.267,52.192-69.364c1.064-1.41,2.501-2.554,3.846-3.729
			c0.837-0.731,3.346,0.287,3.682,2.05c-0.077,0.367-0.045,1.518-0.546,2.347c-1.119,1.848-2.482,3.551-3.783,5.284
			C1135.781,793.043,1119.711,814.446,1103.635,835.845z M1496.406,1427.577c-0.604,0.354-1.346,0.535-2.049,0.649
			c-17.787,2.898-34.595-11.24-34.351-29.039c0.154-1.615-0.095-3.53,1.317-4.929c0.445-0.441,1.264-0.791,1.856-0.72
			c0.601,0.071,1.501,0.622,1.625,1.123c0.34,1.379,0.38,2.838,0.473,4.27c1.045,16.043,12.487,22.104,24.015,23.13
			c2.135,0.19,4.313-0.148,6.472-0.174c1.605-0.019,2.877,0.701,2.968,2.387C1498.817,1425.823,1497.657,1426.844,1496.406,1427.577
			z M1505.987,1413.152c1.032,0.414,1.699,1.202,1.443,2.78c-0.669,0.35-1.504,1.114-2.386,1.172
			c-1.449,0.096-2.448-1.786-1.751-3.034C1503.891,1412.999,1504.906,1412.719,1505.987,1413.152z M1542.372,1312.733
			c-1.237,0.704-2.595,1.418-3.976,1.61c-6.116,0.85-12.239,1.769-18.392,2.208c-24.28,1.732-48.576,3.228-72.857,4.941
			c-14.133,0.997-28.249,2.239-37.26,2.96c-18.209,1.232-31.26,1.141-44.249-1.039c-5.766-0.967-11.381-2.453-16.608-5.037
			c-6.705-3.315-10.566-8.853-10.979-16.359c-0.238-4.325,0.119-8.697,0.457-13.028c0.061-0.777,1.234-1.914,2.064-2.093
			c1.736-0.374,2.582,1.036,2.787,2.519c0.196,1.414-0.008,2.882-0.024,4.326c-0.021,1.815-0.16,3.641-0.022,5.445
			c0.584,7.637,4.219,12.932,11.767,15.28c8.022,2.495,16.224,4.123,24.598,4.323c9.075,0.217,18.19,0.321,27.239-0.279
			c22.476-1.492,44.92-3.464,67.385-5.143c13.766-1.029,27.552-1.807,41.318-2.831c6.152-0.458,12.274-1.304,18.42-1.854
			c2.508-0.224,5.051-0.257,7.564-0.125c1.177,0.062,1.732,1.262,1.71,2.362C1543.3,1311.548,1542.883,1312.443,1542.372,1312.733z
			 M1574.554,1309.997c-1.486,0.156-2.591-0.628-2.615-2.367c-0.018-1.295,0.969-1.565,1.696-1.844
			c1.4-0.406,2.466,0.326,2.662,1.164C1576.595,1308.224,1576.247,1309.82,1574.554,1309.997z M1640.71,1155.645
			c-2.792,15.731-5.679,31.447-8.294,47.209c-2.442,14.718-3.91,29.546-3.772,44.49c0.04,4.292-0.375,5.687-5.373,5.889
			c-38.498,1.556-77.035,2.615-115.465,5.228c-39.181,2.664-78.38,4.545-117.603,6.242c-11.588,0.502-23.12,2.387-34.669,3.711
			c-10.069,1.154-10.175,1.046-10.702-9.245c-0.508-9.893,0.477-19.649,3.125-29.148c3.895-13.973,6.978-28.191,12.314-41.745
			c2.161-5.491,3.284-11.163,2.001-17.067c-0.802-3.688-3.52-5.69-7.175-4.908c-3.535,0.757-6.945,2.076-10.443,3.023
			c-13.649,3.698-27.308,7.362-40.974,10.997c-1.749,0.466-3.553,0.906-5.348,0.991c-17.432,0.826-34.857,1.62-52.161-1.781
			c-10.044-1.974-19.721-4.96-28.673-9.945c-6.022-3.353-11.964-6.883-17.721-10.671c-21.589-14.206-37.123-33.29-46.649-57.425
			c-8.176-20.718-13.602-42.142-17.488-63.979c-5.231-29.395-7.885-59.058-8.487-88.911c-0.198-9.81,0.699-19.516,1.634-29.908
			c3.652,0.282,6.769,0.622,9.893,0.737c3.267,0.121,6.556,0.22,9.808-0.028c3.248-0.248,6.465-0.915,9.689-1.439
			c3.12-0.508,6.231-1.067,9.42-1.617c0.146,3.265-2.027,4.973-3.068,7.192c-5.508,11.75-5.11,23.179,1.736,34.278
			c5.278,8.558,12.244,15.271,21.494,19.452c1.983,0.896,3.907,1.944,5.941,2.7c8.428,3.13,13.589,9.414,17.021,17.399
			c0.999,2.323,1.704,4.805,2.951,6.98c1.737,3.03,5.327,4.521,8.296,3.895c3.632-0.766,6.457-3.78,6.914-7.505
			c0.363-2.956-0.313-5.744-1.38-8.511c-4.619-11.981-11.954-21.528-23.888-27.024c-2.966-1.366-5.962-2.67-8.911-4.071
			c-5.759-2.735-10.076-7.053-13.384-12.431c-4.29-6.976-3.926-13.854,0.952-20.305c2.62-3.466,5.719-6.577,8.681-9.775
			c13.187-14.24,24.533-29.763,31.724-47.896c8.416-21.221,12.663-43.146,9.21-66.083c-0.162-1.078-0.298-2.161-0.409-3.246
			c-0.216-2.113,0.584-3.449,2.84-3.685c5.784-0.606,11.557-1.364,17.353-1.809c6.067-0.466,12.154-1.081,18.745-0.772
			c-0.949,5.983-1.825,11.262-2.62,16.552c-6.015,40.06,17.472,90.47,69.186,105.536c56.061,16.332,108.336-20.585,117.333-72.562
			c0.619-3.575,1.319-7.136,1.982-10.712c1.762-1.829,4.037-1.199,6.113-1.149c41.435,1.006,82.869,2.057,124.304,3.107
			c1.814,0.046,3.65,0.024,5.431,0.31c2.046,0.328,3.062,1.693,2.885,3.829c-0.03,0.362-0.043,0.726-0.074,1.087
			c-2.188,26.076-2.841,52.276-6.101,78.262c-6.969,55.555-16.026,110.706-32.733,164.322c-1.51,4.846-3.46,9.553-5.138,14.348
			c-1.078,3.081-2.436,6.14-2.96,9.325c-1.159,7.034-0.005,12.89,5.458,18.811c8.124,8.802,17.795,13.593,28.956,16.087
			c15.626,3.492,31.532,5.168,47.463,6.583c3.583,0.318,7.298-0.202,10.604,1.427
			C1641.621,1152.11,1641.026,1153.866,1640.71,1155.645z M1632.746,2249.843c-2.813,1.856-5.69,0.8-8.325,0.213
			c-24.201-5.382-48.711-7.836-73.469-8.057c-10.896-0.097-21.796-0.347-32.688-0.157c-23.745,0.415-47.041,4.323-69.685,11.196
			c-37.843,11.488-75.886,10.957-114.218,3.593c-28.505-5.477-57.01-10.95-85.477-16.622c-33.432-6.662-67.055-12.47-99.865-21.972
			c-18.608-5.389-37.815-6.922-56.98-8.612c-5.094-0.449-10.091-1.132-15.004-2.502c-1.748-0.488-3.312-1.201-4.217-3.348
			c6.407-4.663,13.37-8.448,20.632-11.75c20.257-9.21,41.651-14.687,63.211-19.787c17.009-4.024,34.372-5.614,51.534-8.54
			c26.817-4.572,53.88-7.954,80.122-15.421c17.432-4.96,34.78-10.248,52.026-15.819c21.451-6.93,43.352-11.882,65.455-16.12
			c28.468-5.459,55.653-2.882,80.935,12.374c4.969,2.999,10.012,5.875,14.992,8.858c6.849,4.103,13.625,8.329,20.51,12.37
			c18.075,10.608,37.579,15.207,58.477,13.342c16.274-1.452,32.523-3.184,49.694-4.881c2.146,14.058,2.879,27.82,1.744,41.573
			c-1.29,15.632-1.674,31.187,0.576,46.748C1632.875,2247.55,1632.746,2248.62,1632.746,2249.843z M1639.943,2122.249
			c-0.839,2.009-1.581,4.058-2.457,6.05c-5.376,12.223-2.54,10.7-17.235,13.054c-13.608,2.18-27.445,2.97-41.197,4.202
			c-16.781,1.504-32.505-2.041-47.052-10.535c-7.835-4.575-15.568-9.328-23.306-14.066c-13.339-8.167-26.974-15.794-42.024-20.328
			c-15.487-4.665-31.341-5.922-47.447-3.948c-27.098,3.323-53.593,9.356-79.67,17.357c-19.066,5.849-38.093,11.839-57.258,17.347
			c-14.653,4.212-29.641,7.089-44.682,9.602c-2.506,0.418-5.061,0.531-7.577,0.894c-2.871,0.414-4.96-0.38-5.991-3.301
			c-1.808-5.124-4.25-10.1-5.411-15.363c-4.455-20.199-8.96-40.408-12.524-60.774c-1.87-10.685-1.827-21.704-2.506-30.706
			c0.845-18.942,1.344-36.009,5.942-52.642c0.878-3.176,2.147-4.83,5.526-5.633c34.25-8.142,68.639-15.566,103.262-21.997
			c22.192-4.122,44.595-6.053,66.962-8.586c16.946-1.919,33.764-4.957,50.645-7.45c19.405-2.866,38.825-5.637,58.437-6.675
			c3.986-0.211,8.004-0.275,11.984-0.031c18.859,1.15,37.747,2.038,56.554,3.774c19.162,1.769,38.292,4.073,57.346,6.777
			c21.562,3.06,43.106,6.383,64.507,10.398c26.4,4.953,52.563,11.039,77.425,21.612c5.673,2.412,11.308,4.934,16.843,7.646
			c16.615,8.14,33.14,16.463,49.758,24.594c16.313,7.981,33.128,14.729,50.426,20.294c10.772,3.466,20.815,8.371,29.935,15.213
			c9.176,6.883,14.464,15.886,16.967,27.005c2.104,9.347-1.06,16.599-7.997,22.199c-7.429,5.997-15.848,10.085-25.742,10.605
			c-13.132,0.689-26.156-0.496-39.153-1.933c-26.715-2.954-53.343-6.856-80.115-9.073c-27.524-2.28-55.161-2.87-82.673,1.266
			c-12.42,1.867-23.868,5.971-34.205,13.17C1648.884,2107.388,1643.4,2113.978,1639.943,2122.249z"/>
		<path d="M1287.613,1056.059c-3.204-2.874-6.927-5.304-10.724-7.358c-10.116-5.469-21.096-7.511-32.541-7.447
			c-3.62,0.247-7.282,0.227-10.853,0.79c-12.068,1.904-23.162,6.088-31.852,15.088c-11.766,12.187-12.214,28.285-1.313,41.285
			c5.01,5.974,11.346,10.142,18.445,13.132c14.514,6.115,29.581,6.972,44.836,3.771c8.212-1.723,15.875-5.068,22.532-10.383
			C1302.969,1091.506,1303.688,1070.477,1287.613,1056.059z M1278.093,1095.248c-3.993,2.65-8.53,3.627-13.425,3.904
			c-2.029-0.175-4.213-0.46-4.847-3.097c-0.552-2.298,0.16-4.282,2.015-5.718c4.593-3.556,9.676-4.4,15.227-2.632
			c1.529,0.487,2.547,1.561,2.935,2.899C1280.541,1092.479,1279.671,1094.201,1278.093,1095.248z"/>
		<path d="M1833.567,1344.801c30.984-0.576,61.689,2.546,92.364,6.515c47.987,6.208,95.192,16.227,141.829,28.907
			c23.148,6.293,45.518,14.921,66.811,26.086c17.359,9.102,34.89,17.901,51.538,28.308c43.841,27.407,79.757,62.834,107.89,106.212
			c9.916,15.289,18.436,31.264,25.046,48.254c4.08,10.487,8.539,20.836,12.297,31.435c9.725,27.429,16.963,55.519,21.615,84.268
			c2.379,14.699,5.086,29.345,7.383,44.057c1.12,7.172,1.794,14.425,2.347,21.666c0.188,2.459-0.272,5.105-1.041,7.468
			c-1.124,3.454-4.064,5.049-7.538,5.346c-3.434,0.293-7.104-2.501-8.159-6.034c-0.412-1.379-0.617-2.845-0.722-4.285
			c-1.59-21.786-6.081-43.137-9.455-64.662c-3.949-25.199-10.442-49.744-18.124-73.967c-6.036-19.035-13.545-37.62-22.297-55.548
			c-14.613-29.933-34.12-56.515-57.519-80.29c-25.989-26.408-55.711-47.459-88.452-64.741c-26.07-13.761-52.42-26.599-80.721-35.081
			c-21.572-6.465-43.573-11.237-65.521-16.168c-35.477-7.972-71.402-13.354-107.533-17.238
			c-36.243-3.896-72.571-3.941-108.902-1.095c-10.142,0.794-20.284,1.617-30.407,2.619c-4.439,0.44-4.89,1-4.721,5.548
			c0.407,10.911,0.856,21.832-0.88,32.657c-3.047,18.999-5.466,38.25-12.199,56.339c-17.526,47.086-49.215,80.717-96.541,98.869
			c-2.699,1.035-5.559,1.687-8.385,2.343c-3.047,0.707-5.795-0.407-8.208-2.104c-4.678-3.289-4.473-9.545,0.227-12.885
			c2.157-1.533,4.614-2.175,7.119-2.537c2.897-0.42,5.698-0.969,8.35-2.29c24.063-11.988,45.089-27.38,61.062-49.648
			c14.342-19.995,22.968-41.857,26.804-65.919c0.971-6.093,2.591-12.083,3.549-18.177c1.585-10.078,2.152-20.232,1.576-30.443
			c-0.225-3.99-0.401-8.004-0.237-11.992c0.36-8.764,3.318-12.693,11.914-14.357c10.33-2,20.775-3.467,31.215-4.822
			C1795.736,1344.974,1814.672,1345.195,1833.567,1344.801z"/>
		<path style="fill:#D42488;" d="M1247.871,519.665c-0.231-2.599,1.772-3.873,3.164-5.416
			c26.102-28.934,56.112-52.685,91.673-69.081c28.442-13.114,57.442-24.549,88.387-30.423c15.018-2.85,30.085-5.203,45.385-5.554
			c22.534-0.517,45.062-0.962,67.51,2.036c19.475,2.601,38.614,6.796,57.699,11.346c31.602,7.534,61.856,18.519,90.641,33.74
			c25.038,13.239,46.726,30.66,66.549,50.637c1.28,1.29,2.425,2.716,3.735,3.973c25.514,24.495,42.045,54.424,53.367,87.596
			c10.001,29.301,17.031,59.29,22.136,89.802c3.541,21.166,5.413,42.516,7.984,63.789c0.26,2.147,0.22,4.329,0.315,6.378
			c-2.481,1.356-3.489-0.498-4.588-1.711c-8.376-9.249-18.145-16.711-28.852-23.062c-11.253-6.675-22.24-13.805-33.591-20.305
			c-36.943-21.154-71.889-45.438-107.696-68.37c-48.155-30.84-98.21-58.043-151.228-79.641
			c-38.5-15.685-78.298-26.723-119.197-34.087c-28.279-5.092-56.761-8.356-85.313-11.34c-13.058-1.365-26.073-2.107-39.169-1.828
			c-7.267,0.155-14.529,0.294-21.715,1.724C1252.749,520.328,1250.213,521.255,1247.871,519.665z"/>
		<path style="fill:#020202;" d="M1368.35,695.925c-10.441,0.609-20.747,2.275-29.541,9.013c-1.43,1.095-2.941,2.187-4.583,2.882
			c-3.61,1.527-7.501,0.282-9.627-2.814c-1.972-2.872-1.898-6.085,0.474-9.052c1.115-1.395,2.492-2.641,3.932-3.708
			c17.409-12.9,36.564-17.15,57.602-11.185c12.762,3.618,23.936,10.328,34.242,18.536c3.136,2.498,5.975,5.298,7.536,9.153
			c1.646,4.064,0.564,8.008-3.002,10.516c-3.247,2.283-6.64,2.195-10.014-0.534c-1.682-1.36-2.958-3.221-4.637-4.587
			C1398.395,704.112,1384.989,696.505,1368.35,695.925z"/>
		<path style="fill:#010001;" d="M1768.197,579.436c-0.055,3.702-1.949,6.105-5.28,7.495c-3.15,1.315-5.763,0.036-7.905-2.053
			c-1.531-1.493-2.724-3.396-3.817-5.263c-7.235-12.364-16.74-22.829-27.347-32.294c-17.337-15.471-34.852-30.742-52.285-46.105
			c-11.501-10.135-23.762-19.094-38.046-25.012c-1.976-0.819-3.887-2.001-5.527-3.375c-2.406-2.013-3-6.284-1.39-9.017
			c1.592-2.702,4.132-4.287,7.237-3.927c2.477,0.288,4.926,1.221,7.272,2.157c12.887,5.143,24.982,11.703,35.673,20.63
			c7.803,6.516,15.569,13.083,23.191,19.81c12.795,11.291,25.49,22.697,38.174,34.113c8.396,7.557,15.865,15.976,22.401,25.178
			c2.298,3.235,4.096,6.83,6.051,10.301C1767.879,574.345,1768.245,576.857,1768.197,579.436z"/>
		<path style="fill:#010001;" d="M1657.722,585.26c0.61,0.194,2.193,0.324,3.311,1.114c11.165,7.886,24.275,11.368,36.751,16.223
			c15.231,5.927,30.513,11.702,45.398,18.474c19.786,9.002,36.531,22.268,52.085,37.172c2.331,2.234,4.185,4.997,6.086,7.641
			c1.755,2.441,2.354,5.285,2.047,8.281c-0.522,5.095-5.818,8.076-10.485,5.999c-2.41-1.072-4.146-2.895-5.857-4.781
			c-18.677-20.578-41.264-35.326-67.103-45.348c-15.233-5.908-30.394-12.011-45.469-18.308c-6.686-2.793-13.313-5.831-19.353-9.949
			c-3.523-2.402-5.798-5.465-5.515-9.952C1649.857,588.019,1653.1,585.091,1657.722,585.26z"/>
		<path style="fill:#010001;" d="M1561.792,495.819c4.985,0.061,9.63,0.841,13.97,2.825c6.255,2.859,12.558,5.652,18.617,8.893
			c13.455,7.198,27.359,13.164,41.942,17.776c21.572,6.823,41.028,18.136,60.198,29.903c1.826,1.121,3.546,2.588,4.923,4.224
			c2.246,2.669,2.969,5.759,1.194,9.068c-1.795,3.347-5.419,5.186-9.184,3.93c-3.401-1.135-6.631-2.876-9.798-4.604
			c-8.586-4.685-17.043-9.607-25.653-14.244c-9.589-5.164-19.602-9.366-30.03-12.558c-15.313-4.687-29.881-11.028-43.554-19.424
			c-4.006-2.46-8.226-4.588-12.429-6.708c-3.895-1.965-7.943-3.214-12.433-3.498c-5.678-0.36-8.747-3.516-8.629-7.738
			c0.12-4.258,3.57-7.261,8.914-7.746C1560.563,495.853,1561.289,495.844,1561.792,495.819z"/>
		<path style="fill:#010001;" d="M1486.348,478.609c-12.089-2.651-24.165,0.515-36.093,3.552
			c-11.744,2.99-23.556,4.291-35.605,4.195c-11.251-0.09-22.482,0.917-33.757-0.463c-11.577-1.418-22.954-3.594-34.155-6.766
			c-2.085-0.59-4.174-1.322-6.093-2.313c-3.719-1.922-5.339-5.583-4.269-9.033c1.188-3.83,5.178-6.316,9.486-5.333
			c6.374,1.454,12.728,2.889,19.183,4.011c7.207,1.253,14.429,1.924,21.687,2.035c12.72,0.195,25.445,0.04,38.168,0.021
			c7.346-0.011,14.348-2.09,21.462-3.534c8.182-1.661,16.376-3.288,24.609-4.672c5.423-0.912,10.892-0.675,16.201,0.956
			c2.066,0.635,4.143,1.371,6.042,2.384c3.168,1.691,4.741,4.417,4.266,8.099c-0.466,3.613-3.411,6.346-7.409,6.841
			C1488.997,478.722,1487.895,478.609,1486.348,478.609z"/>
		<path style="fill:#010001;" d="M1614.331,577.221c-6.499-0.156-12.09-1.802-17.604-3.591
			c-28.042-9.096-55.229-20.163-80.556-35.44c-10.256-6.187-20.298-12.765-31.692-16.817c-3.161-1.124-5.779-2.918-7.201-6.201
			c-1.111-2.567-0.994-4.908,0.486-7.236c1.789-2.815,4.508-3.55,7.561-3.138c1.403,0.189,2.725,0.946,4.097,1.403
			c11.417,3.807,22.218,8.964,32.506,15.159c22.5,13.547,46.471,23.852,71.145,32.645c6.847,2.44,13.784,4.527,20.952,5.827
			c2.126,0.385,4.278,0.913,6.261,1.749c3.776,1.591,5.888,5.216,5.312,8.566c-0.602,3.498-3.543,6.222-7.535,6.834
			C1616.635,577.199,1615.169,577.172,1614.331,577.221z"/>
		<path style="fill:#010001;" d="M1602.281,492.801c-3.367-0.072-6.368-1.357-9.304-2.832c-6.817-3.426-13.62-6.88-20.44-10.299
			c-23.491-11.778-48.192-20.197-73.641-26.55c-3.162-0.789-6.378-1.553-9.363-2.816c-3.871-1.638-5.709-5.395-4.831-8.768
			c1.006-3.865,4.87-6.616,9.234-5.808c8.561,1.587,17.063,3.505,25.557,5.428c22.84,5.17,44.151,14.37,64.976,24.825
			c5.519,2.771,11.06,5.506,16.491,8.443c2.534,1.371,5.017,2.967,7.182,4.854c2.719,2.369,3.366,6.01,2.118,8.942
			C1609.008,491.162,1605.95,492.918,1602.281,492.801z"/>
		<path style="fill:#020001;" d="M1826.766,656.62c-0.016,0.106-0.043,1.221-0.369,2.242c-0.938,2.935-2.678,5.168-5.908,5.741
			c-3.083,0.547-5.957-0.095-7.729-2.785c-1.581-2.399-2.767-5.081-3.937-7.723c-5.892-13.306-12.298-26.331-20.403-38.464
			c-1.002-1.499-2.004-3.076-2.584-4.762c-1.021-2.967-0.46-5.745,1.933-7.964c2.389-2.216,6.299-2.657,9.059-0.688
			c1.739,1.241,3.33,2.836,4.605,4.555c9.338,12.598,17.158,26.092,23.481,40.444C1826.092,649.89,1827.022,652.646,1826.766,656.62
			z"/>
		<path style="fill:#D42488;" d="M1359.877,747.535c-15.742-0.068-30.072,4.447-43.028,13.347
			c-25.537,17.542-39.1,51.957-28.905,86.035c11.057,36.956,49.518,64.381,91.89,55.049c29.198-6.431,54.65-30.03,58.225-66.881
			C1442.592,788.366,1406.11,747.807,1359.877,747.535z M1383.251,802.269c0.749-0.122,1.693,0.956,2.255,1.309
			c0.722,2.029-0.131,3.291-1.081,4.338c-3.164,3.49-6.413,6.903-9.676,10.301c-4.771,4.968-9.563,9.914-14.389,14.827
			c-1.005,1.023-2.157,1.917-3.317,2.769c-0.953,0.701-2.195,0.721-2.906-0.134c-0.608-0.731-1.134-2.033-0.896-2.851
			c0.382-1.314,1.251-2.6,2.213-3.615c7.978-8.417,15.994-16.8,24.094-25.1C1380.475,803.164,1381.94,802.482,1383.251,802.269z
			 M1314.397,833.921c-0.965,0.722-2.077,0.327-2.96-0.386c-0.917-0.74-1.368-1.817-0.76-2.85c0.909-1.545,1.923-3.075,3.135-4.387
			c17.22-18.65,34.473-37.27,51.756-55.862c0.962-1.035,2.19-1.876,3.426-2.577c0.495-0.281,1.463-0.138,2,0.179
			c0.556,0.327,0.852,1.098,1.431,1.915c-0.286,0.815-0.429,1.933-1.01,2.731c-1.276,1.752-2.715,3.395-4.189,4.989
			c-16.249,17.573-32.509,35.135-48.796,52.673C1317.211,831.657,1315.832,832.848,1314.397,833.921z M1414.322,812.398
			c-3.375,3.802-6.776,7.583-10.241,11.303c-16.833,18.071-33.691,36.118-50.537,54.177c-0.743,0.797-1.414,1.665-2.198,2.417
			c-1.765,1.693-3.196,4.197-6.3,3.063c-1.99-0.727-1.38-3.741,1.819-7.23c10.307-11.243,20.705-22.404,31.078-33.586
			c9.633-10.384,19.259-20.773,28.939-31.113c1.709-1.825,3.148-4.007,5.738-4.855c1.155-0.378,3.392,0.864,3.302,1.989
			C1416.228,810.189,1415.264,811.336,1414.322,812.398z"/>
		<path style="fill:#D42488;" d="M1200.725,771.833c-22.409-32.822-65.153-37.899-94.985-11.739
			c-19.79,17.354-28.233,39.823-29.256,65.407c0.615,17.602,4.775,33.867,14.908,48.327c23.144,33.028,65.919,37.934,95.885,10.989
			c10.473-9.417,18.12-20.729,22.715-34.022C1219.599,823.008,1217.454,796.335,1200.725,771.833z M1100.266,840.094
			c-1.219,1.384-2.69,2.615-4.612,1.387c-1.975-1.262-1.512-2.984-0.427-4.646c0.395-0.605,0.794-1.21,1.229-1.788
			c17.385-23.13,34.762-46.267,52.192-69.364c1.064-1.41,2.501-2.554,3.846-3.729c0.837-0.731,3.346,0.287,3.682,2.05
			c-0.077,0.367-0.045,1.518-0.546,2.347c-1.119,1.848-2.482,3.551-3.783,5.284c-16.065,21.407-32.134,42.811-48.21,64.209
			C1102.549,837.29,1101.459,838.739,1100.266,840.094z M1144.297,844.596c-0.41-0.603-1.178-1.394-1.505-2.338
			c-0.19-0.549,0.159-1.462,0.55-2.008c6.746-9.444,13.525-18.864,20.349-28.252c0.379-0.521,1.168-0.879,1.829-1.02
			c0.659-0.141,1.678-0.176,2.04,0.211c0.679,0.724,1.597,1.986,1.367,2.674c-1.404,4.2-4.488,7.399-7.032,10.913
			c-4.469,6.172-8.975,12.318-13.528,18.428C1147.498,844.369,1146.325,845.278,1144.297,844.596z M1201.848,824.353
			c-1.089,1.876-2.376,3.646-3.667,5.396c-11.633,15.77-23.268,31.54-34.954,47.271c-1.487,2.001-2.673,4.427-5.318,5.229
			c-0.595,0.18-1.498,0.018-1.997-0.346c-0.51-0.372-0.871-1.153-0.993-1.812c-0.37-1.988,0.882-3.414,1.946-4.863
			c5.369-7.313,10.741-14.624,16.133-21.919c7.119-9.631,14.237-19.262,21.408-28.854c1.28-1.712,2.308-3.688,4.428-4.67
			c1.073-0.498,3.464,0.388,3.619,2.203C1202.371,822.343,1202.35,823.488,1201.848,824.353z"/>
		<path style="fill:#D42488;" d="M1511.874,1385.297c-14.113-10.578-29.829-12.843-46.027-4.982
			c-20.649,10.021-21.18,32.827-8.254,46.323c8.774,9.161,19.613,13.337,34.364,13.051c1.116-0.126,4.457-0.1,7.573-0.924
			c12.331-3.26,21.88-9.883,24.781-23.12C1527.117,1402.842,1521.722,1392.679,1511.874,1385.297z M1496.406,1427.577
			c-0.604,0.354-1.346,0.535-2.049,0.649c-17.787,2.898-34.595-11.24-34.351-29.039c0.154-1.615-0.095-3.53,1.317-4.929
			c0.445-0.441,1.264-0.791,1.856-0.72c0.601,0.071,1.501,0.622,1.625,1.123c0.34,1.379,0.38,2.838,0.473,4.27
			c1.045,16.043,12.487,22.104,24.015,23.13c2.135,0.19,4.313-0.148,6.472-0.174c1.605-0.019,2.877,0.701,2.968,2.387
			C1498.817,1425.823,1497.657,1426.844,1496.406,1427.577z M1507.43,1415.932c-0.669,0.35-1.504,1.114-2.386,1.172
			c-1.449,0.096-2.448-1.786-1.751-3.034c0.598-1.071,1.614-1.351,2.694-0.918C1507.02,1413.566,1507.687,1414.354,1507.43,1415.932
			z"/>
	</g>
</g>
</svg>
