<?xml version="1.0" encoding="iso-8859-1"?>
<!-- Generator: Adobe Illustrator 23.0.2, SVG Export Plug-In . SVG Version: 6.00 Build 0)  -->
<svg version="1.1" xmlns="http://www.w3.org/2000/svg" xmlns:xlink="http://www.w3.org/1999/xlink" x="0px" y="0px"
	 viewBox="0 0 2793 2793" style="enable-background:new 0 0 2793 2793;" xml:space="preserve">
<g id="Background_xA0_Image_1_">
</g>
<g id="Layer_2_xA0_Image_1_">
</g>
<g id="Layer_3_xA0_Image_1_">
</g>
<g id="Layer_4_xA0_Image_1_">
	<g>
		<path d="M2237.562,2025.9c-2.113-27.241-7.093-53.989-13.88-80.442c-3.794-14.789-9.115-29.111-13.138-43.8
			c-12.371-45.169-24.224-90.48-36.355-135.715c-17.961-66.975-36.38-133.823-55.13-200.584
			c-16.69-59.429-41.064-115.583-70.673-169.523c-12.575-22.908-25.704-45.643-43.668-64.996c-2.723-2.933-2.454-5.595-1.349-8.926
			c8.302-25.019,9.607-50.48,4.859-76.369c-4.08-22.25-10.636-43.723-19.578-64.476c-12.359-28.682-25.623-56.948-39.182-85.08
			c-11.746-24.369-19.593-49.962-23.78-76.715c-1.918-12.259-2.475-24.597-2.863-36.936c-0.537-17.079-0.547-34.175-0.803-51.263
			c-0.46-30.751-8.004-59.564-23.124-86.443c-8.917-15.85-18.471-31.282-28.638-46.342c-11.807-17.488-22.534-35.584-31.675-54.625
			c-6.16-12.831-11.052-26.084-13.975-40.003c-3.588-17.084-6.278-34.31-7.307-51.768c-0.706-11.981-1.726-23.95-4.406-35.673
			c-4.413-19.306-11.315-37.56-23.934-53.178c-9.22-11.411-20.233-20.883-32.509-28.83c-14.346-9.287-29.394-17.35-44.958-24.399
			c-11.348-5.139-23.151-8.341-35.795-8.232c-18.575,0.16-37.016,1.861-55.436,4.023c-19.12,2.244-38.135,5.627-57.508,5.163
			c-5.086-0.122-10.108,0.572-15.139,1.608c-11.016,2.268-22.058,4.591-33.201,6.013c-11.585,1.478-21.396,6.463-30.799,12.874
			c-9.956,6.788-19.033,14.603-27.533,23.096c-12.617,12.607-24.922,25.501-33.928,41.085c-4.907,8.491-9.916,16.942-14.361,25.675
			c-9.735,19.126-18.377,38.725-23.146,59.78c-3.93,17.35-7.44,34.798-11.564,52.101c-6.229,26.136-12.891,52.168-19.255,78.271
			c-5.418,22.221-10.118,44.606-15.872,66.759c-5.441,20.95-13.617,40.544-25.07,58.867c-14.653,23.442-27.022,48.118-39.052,72.973
			c-7.341,15.17-12.05,31.011-14.048,47.828c-2.743,23.074,0.523,44.857,11.37,65.495c6.771,12.884,13.964,25.511,22.615,37.22
			c10.798,14.614,21.77,29.103,32.867,43.492c7.332,9.507,14.392,19.181,20.742,29.374c6.212,9.972,10.315,20.79,13.056,32.16
			c0.592,2.455,1.294,4.946,0.117,7.668c-2.969,0.056-5.41-1.496-7.9-2.837c-14.065-7.573-28.249-14.937-42.149-22.801
			c-37.61-21.277-74.995-42.953-112.669-64.113c-25.956-14.578-52.266-28.526-78.382-42.819
			c-49.14-26.894-96.077-57.283-141.896-89.453c-41.979-29.474-83.271-59.793-120.134-95.694
			c-4.695-4.573-9.374-9.123-13.507-14.216c-12.697-15.646-11.257-38.867,2.013-51.687c9.389-9.07,17.881-19.121,26.306-29.128
			c23.421-27.822,47.69-54.893,71.804-82.106c38.845-43.836,78.938-86.464,121.488-126.75
			c12.146-11.501,23.874-23.432,34.955-35.983c7.731-8.758,14.542-18.154,19.884-28.557c3.517-6.848,6.327-13.963,5.519-21.879
			c-0.349-3.418,1.056-5.338,3.878-7.001c7.195-4.239,14.245-8.723,21.353-13.109c26.887-16.592,53.544-33.58,81.767-47.885
			c5.172-2.621,10.359-5.323,15.789-7.302c11.981-4.365,22.855-1.451,32.65,6.166c2.278,1.771,4.147,4.065,6.229,6.093
			c4.166,4.058,8.212,8.253,12.558,12.109c6.251,5.546,13.677,7.965,22.067,7.693c5.547-0.179,10.759-1.515,15.812-3.667
			c4.674-1.99,9.337-4.005,14.009-5.999c11.52-4.916,22.629-4.34,33.284,2.473c2.753,1.76,5.473,3.591,8.337,5.155
			c4.131,2.257,8.354,4.352,12.584,6.42c5.449,2.664,11.294,2.715,17.095,1.96c8.976-1.168,15.869-8.491,16.835-17.426
			c0.951-8.792-1.378-16.68-7.266-23.211c-9.236-10.244-18.015-20.987-29.605-28.842c-1.786-1.21-3.45-2.69-4.901-4.29
			c-4.841-5.339-4.229-9.788,1.884-13.271c5.126-2.921,10.737-4.188,16.623-4.716c11.958-1.072,23.799-2.741,33.81-10.188
			c1.195,0.87,2.143,1.392,2.883,2.125c6.18,6.125,13.384,6.602,21.206,3.99c6.035-2.015,10.789-5.783,15.085-10.376
			c1.213-1.297,1.388-4.431,5.032-3.221c-0.416,4.607,0.518,9.229,1.527,13.836c1.582,7.218,4.495,13.915,9.36,19.444
			c5.57,6.331,12.12,10.589,21.082,6.363c0.458-0.216,1.262,0.302,1.98,0.5c0.793,6.452,1.711,12.921,2.347,19.417
			c0.515,5.259,2.533,9.81,5.744,13.887c7.924,10.06,22.789,10.596,31.479,1.176c3.013-3.266,5.036-7.129,6.499-11.254
			c2.79-7.868,5.932-15.665,7.971-23.733c2.57-10.164,5.396-20.277,5.604-30.996c0.335-17.339-5.34-32.768-13.25-47.714
			c-4.316-8.155-9.916-15.237-17.137-20.946c-7.124-5.632-14.29-11.229-21.685-16.494c-9.172-6.531-18.544-12.787-27.93-19.01
			c-12.195-8.086-22.478-18.442-33.25-28.166c-15.497-13.987-33.811-22.297-53.347-28.53c-5.933-1.893-12.022-2.95-18.215-3.068
			c-10.913-0.208-21.805,0.284-32.6,2.067c-21.645,3.576-42.265,10.493-62.013,19.869c-44.139,20.958-85.588,46.309-123.654,77.033
			c-18.105,14.613-36.232,29.206-54.04,44.178c-20.038,16.847-39.78,34.06-58.202,52.692c-7.664,7.752-15.033,15.818-22.162,24.065
			c-3.416,3.951-6.938,4.991-11.404,2.672c-4.973-2.582-9.874-1.998-14.709,0.084c-4.657,2.004-9.323,4.05-13.765,6.48
			c-16.637,9.101-31.862,20.291-46.563,32.194c-27.135,21.97-53.371,44.995-79.401,68.249
			c-61.292,54.754-121.416,110.763-180.485,167.912c-37.377,36.162-74.084,72.983-110.219,110.378
			c-7.071,7.318-13.962,14.823-20.668,22.477c-3.821,4.362-7.557,8.923-10.543,13.87c-12.597,20.873-11.597,36.252,5.99,56.412
			c0.477,0.546,0.991,1.079,1.564,1.518c4.66,3.57,8.354,8.084,12.137,12.494c10.192,11.88,21.121,23.05,32.299,33.992
			c16.371,16.024,32.993,31.807,48.962,48.222c46.152,47.442,93.486,93.696,140.358,140.414
			c9.525,9.494,19.432,18.612,29.305,27.749c52.037,48.159,103.996,96.404,156.234,144.344
			c30.361,27.863,57.843,58.356,83.774,90.263c43.812,53.907,84.948,109.805,123.47,167.627
			c11.301,16.963,21.702,34.403,30.407,52.84c0.767,1.624,1.25,3.96,2.56,4.65c5.48,2.889,6.735,8.356,8.75,13.305
			c22.791,55.987,39.292,113.908,52.379,172.82c7.802,35.122,13.454,70.644,17.987,106.345c5.364,42.247,8.303,84.635,8.393,127.229
			c0.042,20.004-0.356,39.989-1.317,59.967c-0.613,12.756,2.139,24.526,10.223,34.736c1.121,1.416,2.07,2.967,3.212,4.62
			c-11.218,14.38-20.829,29.793-29.673,45.66c-16.975,30.457-33.305,61.253-48.277,92.761
			c-24.814,52.219-45.223,106.18-64.208,160.73c-25.805,74.146-48.864,149.044-63.144,226.396
			c-3.692,20.001-7.399,40.003-9.866,60.207c311.272,0,622.545,0,933.818,0c-0.64-4.302-1.508-8.585-1.881-12.91
			c-2.313-26.806-5.608-53.502-9.659-80.085c-5.802-38.076-13.923-75.72-22.166-113.331c-10.188-46.485-23.05-92.283-35.184-138.272
			c-10.29-39-21.699-77.633-36.104-115.317c-10.628-27.804-21.708-55.438-32.8-83.061c-1.491-3.712-1.726-6.55,0.567-10.023
			c5.686-8.614,8.416-18.423,10.58-28.411c1.922-8.869,3.756-17.764,5.984-26.558c13.376-52.794,26.738-105.592,40.387-158.315
			c3.143-12.141,1.033-14.306,12.746-3.651c25.303,23.018,51.642,44.763,79.941,64.042c19.846,13.52,40.419,25.746,62.727,34.863
			c14.208,5.807,28.794,10.15,44.173,11.105c28.878,1.792,49.298-11.034,60.035-34.446c2.585-5.638,4.64-11.44,6.072-17.454
			C2238.321,2062.96,2239.002,2044.48,2237.562,2025.9z M1887.34,1031.882c0.09-1.362,0.225-3.261,2.054-3.17
			c2.693,0.135,1.953,2.264,1.704,3.952c0.734,4.987,1.469,9.974,2.204,14.96c0.923,3.594,2.826,6.958,2.535,10.836l0,0
			c4.68,12.569,9.147,25.223,14.088,37.688c8.034,20.268,18.006,39.649,27.617,59.195c7.685,15.628,15.655,31.156,20.365,48.052
			c1.654,5.932,3.863,11.751,3.76,18.05c0,0,0,0,0,0c3.333,9.505,2.551,19.241,1.625,28.985c0,0,0,0,0,0
			c-0.003,1.349-0.006,2.697-0.01,4.046c-0.256,1.348-0.386,2.741-0.837,4.021c-0.166,0.47-1.061,0.808-1.683,0.959
			c-0.891,0.217-1.341-0.289-1.382-1.188c-0.066-1.413-0.253-2.823-0.266-4.235c-0.039-4.241-0.846-8.501,0.266-12.718
			c-0.022-3.526-0.045-7.051-0.067-10.577c-0.197-1.827-0.393-3.654-0.59-5.482c0-0.001,0-0.002-0.001-0.003
			c-1.718-2.257-1.955-4.834-1.618-7.534c-6.637-26.993-19.635-51.311-31.926-75.928c-10.847-21.726-20.851-43.822-28.489-66.905
			c-1.462-4.418-3.539-8.778-3.325-13.642c-2.112-2.6-2.188-5.695-2.146-8.819c-2.507-4.161-1.865-8.874-2.344-13.391
			C1887.157,1036.914,1887.176,1034.384,1887.34,1031.882z M1784.926,646.476c3.136,4.771,3.199,8.888,3.567,12.912c0,0,0,0,0,0
			c0.044,1.414,0.089,2.827,0.133,4.241c0.468,5.367,1.434,10.72,0.43,16.126c0,0.003,0,0.005,0,0.008c0-0.002,0-0.004,0.001-0.006
			c2.037,4.62,1.887,9.497,1.677,14.38v0c0.073,0.776,0.192,2.034,0.266,2.811c0.586,2.955,1.042,5.916,0.305,8.932
			c0,0.001,0,0.001,0.001,0.002c0,0,0-0.001,0-0.001c1.691,2.359,1.93,5.025,1.646,7.802c0.703,4.418,2.664,8.625,2.222,13.235
			c5.816,24.44,18.587,45.562,32.481,65.931c13.286,19.477,26.906,38.693,38.096,59.499c9.611,17.868,15.022,36.822,15.179,57.185
			c0,0.001,0,0.001,0,0.002c1.75,7.672,1.673,15.348,0.062,23.029c-0.202,2.563-0.401,5.087-0.604,7.65
			c0.411,5.768,0.308,11.476-1.879,16.944c0.717,7.57-0.014,15.115-0.401,22.666c0.743,3.717,0.362,7.427-0.104,11.136
			c0.072,1.542,0.142,3.05,0.214,4.592c0.099,0.501,0.168,0.997,0.182,1.486c0.041,1.429-2.185,1.533-2.235,0.104
			c-0.023-0.654,0.052-1.328,0.168-2.009h0c-0.072-1.43-0.146-2.859-0.218-4.288c0,0,0,0,0,0
			c-2.464-11.149-2.068-22.332-0.389-33.53c0.256-4.085,0.512-8.169,0.768-12.254c0,0,0,0,0,0c-0.081-0.898-0.104-1.157-0.185-2.055
			l0.233-0.175c-0.042-13.106-0.083-26.212-0.125-39.319c0,0,0-0.001,0-0.001c-1.547-7.433-2.853-14.926-4.701-22.284
			c-2.477-9.866-6.583-19.086-11.571-27.985c-10.634-18.974-22.522-37.125-35.314-54.685
			c-11.149-15.305-19.296-32.253-27.412-49.218c-2.33-4.87-4.287-9.985-4.356-15.556c-3.009-8.935-4.837-18.052-4.255-27.542
			c0,0,0-0.001,0-0.001c0,0,0,0.001,0,0.001c-2.272-4.589-2.018-9.483-1.737-14.381c-0.253-6.388-0.507-12.775-0.761-19.163
			C1784.371,664.549,1784.229,656.312,1784.926,646.476z M1758.419,914.875c1.682-5.555,2.883-11.256,4.526-16.824
			c4.775-16.184,17.352-24.546,31.756-30.629c6.146-2.595,11.927-0.196,16.332,5.442c2.949,3.776,5.177,8.06,5.519,12.863
			c0.955,13.408,1.917,26.811,1.48,40.293c-0.427,13.157-5.734,23.82-15.171,32.668c-1.584,1.485-3.286,2.843-4.934,4.26
			c-3.521,1.919-6.171-0.339-9.054-1.798c-11.945-6.046-21.061-5.329-29.015,2.185c-7.734,7.306-9.744,20.236-5.093,31.317
			c2.02,4.812,6.917,8.852,4.366,15.011c-9.785,26.635-21.469,52.384-35.966,76.809c-8.733,14.714-18.535,28.673-29.9,41.496
			c-10.908,12.307-23.005,23.228-37.188,31.687c-16.924,10.094-35.062,15.554-54.958,14.555
			c-13.262-0.666-25.746-4.233-37.703-9.757c-13.621-6.292-25.774-14.843-37.019-24.725c-16.196-14.235-30.055-30.552-42.554-48.05
			c-13.321-18.651-24.945-38.337-35.361-58.744c-0.824-1.615-1.672-3.226-2.362-4.9c-1.131-2.747-0.519-4.138,2.171-4.906
			c2.092-0.597,4.214-1.136,6.357-1.493c18.048-3.005,35.192-8.603,51.221-17.526c3.799-2.115,7.712-4.053,11.68-5.836
			c15.012-6.743,28.829-15.317,41.092-26.344c6.45-5.799,13.574-10.878,18.95-17.818c0.419-1.061,6.547-6.645,6.547-6.645
			c0.333-1.12,24.569-24.945,33.108-38.545c2.497-3.977,4.592-8.243,6.518-12.535c3.122-6.954,3.707-13.998-0.291-20.922
			c-0.361-0.625-0.584-1.331-0.856-2.005c-2.409-5.964-1.807-8.693,2.733-12.423c5.292-4.349,8.076-4.08,12.861,1.342
			c5.123,5.806,8.648,12.548,11.171,19.807c2.264,6.512,4.202,13.138,6.474,19.648c2.519,7.215,5.602,14.155,10.168,20.392
			c4.36,5.955,9.856,10.571,15.924,13.992c0.84,3.347-1.38,5.175-2.292,7.392c-4.897,11.909-5.402,24.002-1.761,36.274
			c1.246,4.201,3.234,8.103,6.167,11.426c6.963,7.889,16.51,8.224,23.816,0.677c5.238-5.409,7.886-12.197,8.961-19.5
			c1.558-10.573,1.254-20.996-3.479-30.944c-1.584-3.329-1.066-3.878,2.594-5.482c7.408-3.248,15.151-4.789,23.211-5.393
			C1750.75,929.8,1754.99,926.199,1758.419,914.875z M1782.623,1098.123L1782.623,1098.123c-0.176,3.504-0.352,7.009-0.527,10.513
			c0.659,8.123-1.631,15.982-2.153,24c-0.512,8.866-1.038,17.73-3.952,26.234c0.127,5.213,0.767,10.5-2.215,15.261
			c0.438,3.874-0.266,7.509-2.28,10.868c-0.105,1.452-0.21,2.903-0.315,4.355c0,0,0,0,0,0c-0.716,5.07-1.433,10.14-2.15,15.209
			c0.466,3.308,0.045,6.452-1.729,9.345c0,0,0,0,0,0.001c0.512,3.456,1.023,6.912,1.535,10.368c0,0,0,0,0.001,0
			c0.215,1.442,0.431,2.884,0.646,4.326c1.841,0.807,2.069,2.458,2.181,4.17c0,0.001,0,0.002,0.001,0.004
			c0.766,1.438,1.532,2.875,2.298,4.312c1.337,1.158,1.959,2.674,2.198,4.383c1.114,1.825,2.305,3.611,3.289,5.504
			c0.243,0.466-0.186,1.281-0.305,1.936c-0.605-0.192-1.528-0.204-1.757-0.609c-0.682-1.204-1.091-2.562-1.607-3.86
			c-0.004-0.004-0.006-0.008-0.01-0.012c-2.002-1.159-3.392-2.816-4.064-5.051c0,0,0,0,0,0c-0.656-1.471-1.312-2.942-1.967-4.413
			c0,0,0,0,0,0c-0.753-2.148-1.506-4.295-2.259-6.443c0,0-0.001,0-0.001,0c-0.114-1.419-0.23-2.838-0.345-4.257
			c-3.415-4.74-2.362-9.909-1.448-15.065c-0.311-1.732-0.028-3.297,1.285-4.573c-0.098-5.215-0.353-10.454,2.273-15.263c0,0,0,0,0,0
			c0.091-1.452,0.182-2.904,0.273-4.355c-0.537-3.902,1.639-7.246,2.244-10.914c0.776-5.092,1.552-10.184,2.327-15.276
			c1.575-8.688,1.079-17.684,3.908-26.184c-0.428-8.101-0.069-16.133,2.138-24c-0.643-4.366-0.234-8.696,0.45-13.016
			c-0.29-4.472-0.324-8.912,1.622-13.107c0,0,0,0,0,0c0.178-6.495,0.356-12.99,0.535-19.485c0.003-6.662,0.007-13.325,0.011-19.987
			c-0.857-7.444-0.556-14.871-0.203-24.778c2.955,7.338,2.364,12.568,2.404,17.719c2.708,11.266,2.839,22.53-0.036,33.791
			c-0.205,4.208-0.41,8.415-0.615,12.622C1784.752,1087.745,1784.847,1093.058,1782.623,1098.123z M1786.762,1006.111
			c-11.732,5.441-18.056,3.371-26.297-8.605c0,0,0,0,0,0c-2.069-1.557-2.367-3.862-2.613-6.189c-1.739-2.01-1.842-4.45-1.635-6.888
			c0.098-1.158-0.367-3.102,1.705-2.925c1.596,0.137,1.973,1.788,2.195,3.129c0.225,1.355,0.168,2.757,0.235,4.139v0c0,0,0,0,0,0
			c0.758,2.157,1.517,4.315,2.274,6.472c0,0,0,0,0,0c0.88,1.099,1.717,2.238,2.649,3.292c5.18,5.858,11.384,7.982,18.928,5.108
			c0,0,0,0,0,0c2.121-2.33,4.203-4.698,6.404-6.951c0.352-0.359,1.437-0.481,1.82-0.206c0.458,0.329,0.848,1.28,0.714,1.825
			C1792.259,1001.891,1790.208,1004.592,1786.762,1006.111z M1714.834,1236.776c0.003,1.366-2.106,2.786-4.216,2.482
			c-18.345,7.94-37.772,10.222-57.458,10.158c-17.459-0.057-34.747-2.202-51.467-7.679c-8.992-2.946-17.708-6.494-25.374-12.167
			c-2.319-1.716-4.438-3.73-6.499-5.761c-1.646-1.622-2.281-3.654-1.415-5.963c2.503-6.665,5-13.333,7.616-20.312
			c31.291,22.531,66.017,33.861,103.371,37.96c0.001,0,0.002,0,0.003,0.001c0,0,0,0,0,0c3.563-1.099,7.163-0.178,10.748-0.189
			c6.85-0.022,13.7-0.098,20.55-0.069C1712.266,1235.244,1714.83,1234.296,1714.834,1236.776z M1507.424,1226.501
			c0.011-0.023,0.023-0.051,0.033-0.071l0,0c0.015-0.006,0.028-0.014,0.043-0.021c-0.01-1.274-0.137-2.586,0.131-3.771
			c0.84-6.355,1.668-12.627,2.508-18.982v-5.474c-0.164-1.786-0.43-4.681-0.594-6.466c-0.551-2.974-1.102-5.949-1.653-8.923
			c-0.107-0.72-0.215-1.441-0.323-2.161c-1.399-1.847-2.451-3.833-2.487-6.224c-2.486-2.529-3.428-5.741-4.031-9.103h0
			c-0.465-0.653-0.539-1.346-0.219-2.082c-2.068-0.806-2.289-2.499-2.104-4.386c-1.934-0.857-2.367-2.459-2.167-4.374
			c-1.95-0.83-2.413-2.426-2.239-4.349c-2.078-0.608-2.235-2.54-2.862-4.149c0,0,0,0,0,0c0,0,0,0,0,0
			c-3.348-3.226-5.709-7.118-7.627-11.309c-0.485-0.602-1.221-1.515-1.707-2.117c-2.33-1.672-3.979-3.873-4.967-6.588
			c-0.636-0.43-2.649-2.964-3.236-4.095v0c-3.485-2.231-5.821-5.435-7.663-9.057c-0.705-0.432-2.916-2.077-2.765-3.713l0,0
			c0.539-0.734,1.427-0.269,2.048,0.106c1.429,0.863,2.962,2.835,3.391,3.713c3.506,2.172,5.95,5.261,7.722,8.932
			c1.283,1.844,1.477,1.996,1.478,1.994c0.81,1.095,1.182,0.981,1.713,2.155c2.663,1.572,4.361,3.919,5.438,6.765c0,0,0,0,0,0
			c0,0,0.001,0,0.001,0c0.391,0.646,0.782,1.292,1.174,1.938c0,0,0.001,0.001,0.001,0.001c3.766,2.849,5.802,6.862,7.483,11.114
			c0,0,0,0,0,0c0,0,0.001,0,0.001,0c0.711,1.441,1.422,2.882,2.133,4.323c0.99,1.323,2.299,2.481,2.251,4.342c0,0,0,0,0,0
			c0.99,1.318,2.263,2.494,2.168,4.351c0,0,0,0,0,0c0.702,1.454,1.405,2.908,2.107,4.362c0,0,0,0,0,0c0,0,0,0,0,0
			c0.303,0.702,0.605,1.405,0.91,2.108c0,0.001,0.001,0.001,0.002,0.002c2.522,1.576,2.706,4.336,3.452,6.812v0
			c0.686,2.897,3.119,5.268,2.566,8.537c0.113,0.703,0.226,1.406,0.339,2.109c0,0,0,0,0,0c2.76,2.272,1.996,5.499,2.285,8.44
			c2.765,4.948,2.06,10.255,1.602,15.536c0.76,4.564-1.92,8.595-2.015,13.027c0,0,0,0,0,0c0,0,0,0,0,0
			c0.26,3.293-1.28,5.43-4.241,6.655c0,0.021,0.001,0.042,0.001,0.064l-0.022-0.022c0.011,0.011,0.022,0.021,0.021,0.021
			C1507.472,1226.483,1507.451,1226.492,1507.424,1226.501 M1426.609,971.024c-1.253,3.081-3.135,5.63-6.135,7.228l-0.001-0.001
			c0.18,0.586,0.108,1.136-0.215,1.653c-0.281,0.64-0.405,1.458-0.879,1.88c-0.694,0.616-2.207,1.5-2.388,1.314
			c-1.433-1.473-0.216-2.378,0.99-3.194c0.11-1.156,0.514-2.087,1.793-2.346l-0.001-0.002c0.236-2.808,1.42-5.036,3.939-6.45
			c0.001-0.001,0.002-0.001,0.003-0.002c0.569-1.142,1.116-2.309,2.595-2.514c0.001,0.001,0.002,0.002,0.004,0.003
			c-0.001-0.002-0.003-0.003-0.004-0.005c0.139-1.677,1.001-2.8,2.487-3.446c0.075-0.061,0.151-0.102,0.228-0.102
			c0.201-1.223,0.831-2.065,2.087-2.351c0,0,0.001-0.001,0.002-0.001c0.199-1.226,0.836-2.047,2.111-2.274
			c0,0,0.001,0.001,0.001,0.001c0-0.001,0-0.001,0-0.002c0.251-1.213,0.912-2.03,2.187-2.25c0.001,0.001,0.001,0.001,0.002,0.002
			c0-0.001,0-0.002,0-0.003c0.235-1.204,0.883-2.002,2.156-2.176c0.249-1.163,0.856-1.962,2.123-2.092
			c0.312-1.168,0.947-1.999,2.237-2.147c0,0.001,0.001,0.001,0.002,0.002c0-0.001,0-0.002,0-0.003
			c0.311-1.147,0.927-1.973,2.211-2.096c0.001,0.001,0.001,0.001,0.002,0.002c0-0.001,0-0.002,0-0.003
			c0.326-1.113,0.873-1.989,2.192-2.026c0.739-0.773,1.479-1.546,2.218-2.317v0c2.895-3.85,6.592-6.715,10.871-8.867
			c0.001,0.001,0.002,0.001,0.004,0.002c-0.001-0.001-0.002-0.002-0.003-0.003c1.988-2.007,4.196-3.696,6.861-4.721
			c0.395-0.621,0.949-1.023,1.662-1.206c0.704-0.398,1.407-0.796,2.11-1.193c0.405-1.192,1.256-1.741,2.49-1.742
			c1.296-0.83,2.592-1.66,3.888-2.49c2.459-2.953,5.609-4.929,9.097-6.425c0,0,0,0,0.001,0c0,0,0,0,0,0
			c1.724-1.992,3.757-3.549,6.26-4.442c0.639-0.404,1.252-0.484,1.84-0.254c-0.009-0.641,0.206-1.206,0.672-1.685l0.244-0.177
			c0.563-0.57,1.188-1.063,1.866-1.49c5.82-4.602,11.64-9.204,17.459-13.805c6.69-6.576,13.457-13.077,20.058-19.742
			c19.983-20.177,34.024-43.915,41.848-71.205c1.882-6.565,2.684-13.439,3.982-20.171c-0.424-4.822-0.119-9.56,1.609-14.136
			c0.004-0.012,0.007-0.023,0.012-0.035c-0.03-15.447-0.061-30.894-0.091-46.34c-0.16-0.389-0.284-0.781-0.379-1.176
			c-1.453-4.68-1.336-9.579-1.789-14.398c-0.386-0.586-0.88-1.128-1.136-1.766c-0.544-1.361-0.825-3.44,0.516-3.75
			c1.894-0.438,3.108,1.12,2.952,3.27c0.563,3.636,2.882,6.93,2.107,10.827c0.011,0.701,0.022,1.401,0.033,2.102
			c0.821,3.208,1.246,6.436,0.509,9.725c0,0.009,0.001,0.017,0.002,0.026c0-0.007,0-0.014,0-0.021
			c0.46,2.076,1.198,4.139,1.339,6.242c0.796,11.842,0.903,23.699,0.249,35.554c-0.158,2.857-0.171,5.766-1.573,8.402
			c0.519,2.62,0.248,5.186-0.52,7.719v0c0.372,3.474,0.337,6.882-1.601,9.986c0.691,6.014-1.759,11.412-3.632,16.824
			c-9.159,26.465-23.514,49.684-44.013,68.921c-5.792,5.435-11.113,11.411-17.781,15.87c-2.701,3.867-6.396,6.535-10.5,8.708
			c-0.542,1.225-1.438,1.96-2.813,2.031c0,0,0,0,0,0l0.003-0.01c-0.268,1.147-0.965,1.796-2.169,1.854l-0.449,0.306
			c-0.474,0.628-1.072,1.099-1.794,1.413c-0.264,0.729-0.78,1.046-1.55,0.95c-0.546,1.186-1.434,1.906-2.761,2.03
			c-1.69,2.106-3.858,3.539-6.35,4.517c-2.359,2.961-5.564,4.705-8.936,6.21c0,0-0.001,0-0.002,0c0,0,0.001,0.001,0.001,0.001
			c-1.071,1.238-2.264,2.289-3.973,2.53l-2.667,1.766l-0.215,0.123c-0.401,0.926-1.045,1.498-2.113,1.453
			c-0.395,0.62-0.96,0.92-1.694,0.902c-0.561,1.155-1.434,1.835-2.763,1.826c-1.269,0.835-2.538,1.67-3.807,2.505v0
			c-3.377,3.461-7.057,6.521-11.446,8.641c-0.931,1.386-2.079,2.482-3.782,2.839c0,0-0.001-0.001-0.001-0.001
			c0,0.001,0,0.002,0,0.003c-0.229,1.272-1.059,1.885-2.281,2.063v0c-0.168,1.313-1.011,1.911-2.233,2.108
			c-0.153,1.321-0.996,1.925-2.218,2.135c0,0,0,0,0-0.001c0,0,0,0.001,0,0.001c-0.145,1.322-0.971,1.957-2.203,2.183c0,0,0,0,0,0
			c0,0,0,0,0,0c-0.148,1.31-0.972,1.933-2.191,2.154c-0.139,1.318-0.948,1.96-2.187,2.168v0c-0.134,1.325-0.916,2.001-2.188,2.187
			c-0.11,1.339-0.856,2.046-2.172,2.189c0,0,0,0,0,0c-0.017,1.297-0.649,2.031-1.96,2.146
			C1427.403,970.134,1427.22,970.655,1426.609,971.024z M1446.323,1084.659c1.343,2.234,2.687,4.468,4.03,6.702c0,0,0,0,0,0
			c0.501,0.593,0.631,1.257,0.4,1.991c0.013-0.002,0.023,0,0.037-0.003c0,0-0.046,0.048-0.046,0.048
			c0.005-0.016,0.005-0.03,0.01-0.045c-1.633,0.252-2.211-0.893-2.742-2.101c-2.8-1.264-3.679-3.811-4.341-6.502
			c-2.499-2.58-3.448-5.665-3.742-10.314C1443.901,1077.748,1444.717,1081.449,1446.323,1084.659z M1689.387,949.679
			c2.46-3.405,6.668-2.862,8.749,1.003c2.192,4.072,1.578,8.485,1.88,11.664c-0.216,6.254-0.617,11.312-3.819,15.654
			c-1.963,2.661-5.505,2.599-7.279-0.167C1684.305,970.636,1684.543,956.384,1689.387,949.679z M1704.548,970.434
			c0.319-0.698,1.638-1.08,2.576-1.269c0.298-0.06,0.96,0.906,1.189,1.504c0.242,0.633,0.167,1.388,0.229,2.09
			c-0.165,0.671-0.186,1.433-0.535,1.987c-0.319,0.507-0.943,0.963-1.524,1.135c-1.225,0.363-2.293-0.575-2.442-1.422
			C1703.813,973.165,1704.003,971.626,1704.548,970.434z M1415.806,860.918c0.437-1.296,1.268-2.46,1.931-3.68
			c0.042-2.283,0.109-4.557,2.182-6.116c0,0,0,0,0,0c0.254-2.327-0.409-4.951,2.122-6.539c0.189-3.062-0.55-6.36,2.223-8.767
			c0-0.001,0-0.001,0.001-0.002c0.174-1.419,0.349-2.837,0.524-4.255h0v0c0.771-4.542,1.073-9.216,3.718-13.231
			c0.176-3.754-0.022-7.591,2.392-10.852c0.008-3.061-0.438-6.219,1.891-8.779c0.204-3.759-0.244-7.654,2.275-10.931
			c0.237-2.108,0.475-4.215,0.712-6.323c0,0,0,0,0,0.001c0,0,0-0.001,0-0.001c0.782-6.072,1.11-12.239,3.743-17.924c0,0,0,0,0,0
			c0,0,0,0,0,0c0.168-1.302,0.337-2.604,0.505-3.907c-0.596-5.32,1.537-10.195,2.486-15.262c0.871-4.662,0.658-9.589,3.371-13.8
			c0,0,0,0,0,0c0,0,0,0,0,0c-0.243-0.653-0.071-1.169,0.514-1.547c0.17-5.519,1.671-10.68,4.2-15.563c0,0,0,0,0,0
			c-0.375-0.718-0.252-1.336,0.369-1.856c0.104-4.077,1.552-7.723,3.585-11.181c0.015-3.814,1.488-7.214,3.014-10.598v0
			c2.706-11.225,5.925-22.283,10.744-32.817c-0.165-1.881,0.74-3.312,1.939-4.621c0.22-0.664,0.44-1.327,0.66-1.991v0c0,0,0,0,0,0
			c-0.164-1.228,0.491-2.035,1.396-2.714c-0.218-0.63-0.052-1.133,0.499-1.509v0c0.688-2.669,1.424-5.313,3.707-7.156c0,0,0,0,0,0
			c0,0,0,0,0-0.001c-0.115-0.646,0.097-1.156,0.635-1.53c0.574-3.474,2.49-6.261,4.585-8.956c-0.058-1.156,0.602-1.851,1.522-2.38
			c0.359-0.693,0.718-1.386,1.077-2.079c0.263-0.721,0.674-1.344,1.233-1.869l0.095-0.201c1.379-3.55,3.205-6.809,6.088-9.381
			c0,0,0,0,0,0c0,0,0,0,0-0.001c0.217-1.642,1.078-2.859,2.463-3.731c0.145-1.225,0.735-2.106,1.938-2.514
			c0,0,0.047-0.153,0.048-0.154c0,0,0,0.001,0.001,0.001c0-0.001,0-0.001,0-0.002c1.443-3.401,3.657-6.189,6.651-8.356c0,0,0,0,0,0
			l0-0.001c4.804-6.825,10.552-12.695,17.529-17.321c8.473-7.974,17.779-14.736,28.424-19.552
			c8.733-5.933,18.446-9.841,28.451-12.798c15.499-4.579,31.003-3.766,45.195,4.115c16.771,9.315,34.653,13.986,53.498,15.927
			c3.576,0.368,7.099,1.26,10.646,1.911c2.458-0.399,4.821-0.376,6.792,1.466c0.692-0.326,1.268-0.182,1.725,0.431
			c8.479,1.645,15.234,6.411,21.321,12.159c8.771,8.282,16.029,17.683,20.214,29.176c3.024,4.753,5.362,9.781,6.176,15.419
			c0.247,1.353,0.493,2.706,0.74,4.059c2.286,2.528,2.072,5.679,2.178,8.749c2.872,4.86,2.009,10.187,1.93,15.417
			c1.585,1.377,1.355,3.252,1.282,5.031c-0.027,0.659-0.381,1.784-0.754,1.859c-1.162,0.233-1.969-0.748-2.153-1.71
			c-0.333-1.739-0.326-3.544-0.461-5.321c0,0,0,0,0,0c-0.35-5.115-2.806-9.901-2.369-15.139c-0.841-2.872-1.683-5.744-2.524-8.615
			c-2.631-4.916-4.934-9.964-6.197-15.429c-0.481-0.47-0.629-1.027-0.445-1.674c0,0,0.001-0.001,0.001-0.002
			c-0.001,0-0.001,0-0.002,0c-2.259-3.676-4.398-7.432-6.798-11.012c-7.585-11.317-16.393-21.353-29.342-26.793
			c-3.318-1.394-6.741-2.538-10.116-3.797c-15.301-0.43-30.221-3.282-44.893-7.419c-5.916-1.668-11.475-4.332-16.89-7.353
			c-5.992-3.343-12.232-6.117-19.073-7.62c-12.534-2.754-24.515-1.038-36.228,3.541c-6.384,2.496-12.628,5.35-18.935,8.043v0
			c-9.512,6.501-19.024,13.003-28.536,19.504c-5.899,5.837-11.797,11.673-17.695,17.51v0c-1.688,3.243-3.961,6.028-6.658,8.48
			c0,0-0.001,0-0.001,0c0,0,0,0.001,0.001,0.001c-0.97,2.523-2.483,4.673-4.472,6.496c-1.64,3.463-3.373,6.864-6.236,9.526
			c0.166,0.627-0.048,1.071-0.642,1.333c-0.56,0.88-1.37,1.601-1.667,2.646c0.111,0.793-0.179,1.392-0.871,1.796
			c-0.345,0.803-0.816,1.525-1.411,2.165l-0.026,0.053v0c0,0,0,0,0,0c-0.05,1.462-0.725,2.55-1.971,3.297
			c-0.005,1.585-0.323,3.001-1.998,3.68c-0.001,0-0.001,0-0.002-0.001c0,0.001,0.001,0.001,0.001,0.002
			c0.116,0.661-0.095,1.193-0.633,1.595c-0.548,3.377-1.93,6.38-4.051,9.053c0,0,0,0,0,0.001c-0.229,0.671-0.458,1.341-0.687,2.011
			c0,0,0,0,0,0c0.155,1.212-0.477,2.028-1.368,2.713c-4.31,12.375-7.594,25.106-12.911,37.13c0,0,0,0-0.001,0c0,0,0,0,0.001,0.001
			c-0.165,2.925-0.719,5.723-2.639,8.074c-0.428,4.739-1.818,9.17-4.258,13.263c0,0,0,0,0,0c0,0,0,0,0,0
			c0.351,0.749,0.221,1.404-0.389,1.962c-0.477,4.639-1.41,9.148-3.777,13.248c-0.18,1.385-0.36,2.77-0.54,4.154
			c-0.586,6.222-1.513,12.373-3.804,18.239c-0.082,3.679,0.131,7.418-2.198,10.633c0,0,0,0,0,0
			c-0.151,1.292-0.302,2.585-0.453,3.878c-0.259,6.217-1.295,12.266-3.908,17.971c-0.222,1.299-0.444,2.598-0.666,3.898
			c0.289,3.841-1.479,7.261-2.228,10.89c0.53,3.176-1.292,5.831-1.938,8.746c0.458,3.882-1.599,7.24-2.268,10.887
			c-0.79,4.554-1.091,9.255-3.965,13.183c0,0,0,0,0,0c-0.228,1.426-0.456,2.852-0.684,4.278c-0.74,2.89-1.48,5.781-2.221,8.671
			c0,0,0,0,0,0c-0.584,2.194-1.169,4.388-1.754,6.582c-0.308,3.638-1.357,6.971-3.964,9.665c0,0,0-0.001-0.001-0.001
			c-0.074,1.041-0.169,2.344-1.394,2.374C1415.512,863.205,1415.52,861.767,1415.806,860.918z M1343.7,1129.885L1343.7,1129.885
			c-3.079-2.192-4.958-5.312-6.645-8.582v0c-2.98-2.396-4.832-5.582-6.311-9.026c-4.892-6.689-8.587-13.945-10.462-22.065l0,0
			c-1.397-3.339-3.101-6.596-2.779-10.395c-3.406-8.637-3.362-17.503-1.762-26.473c0,0,0,0,0,0s0,0,0,0
			c-0.13-5.658,0.912-11.049,3.644-16.058c0,0,0,0,0,0s0,0,0,0c-0.237-0.632-0.065-1.12,0.518-1.463
			c-0.196-2.079,0.129-3.973,1.893-5.359l0.316-1.178c0.45,0,0.676-0.016,0.676-0.016s-0.676,0.015-0.676,0.015
			c0.125-0.697,0.249-1.394,0.373-2.091l6.485-13.198c-0.114-1.891,1.108-3.097,2.232-4.354c-0.052-1.847,1.216-3.039,2.177-4.383
			c0.679-3.237,2.613-5.845,4.298-8.578c0.636-2.712,1.851-5.109,3.849-7.081c0.611-2.467,1.544-4.746,3.691-6.315
			c0,0,0.001-0.001,0.001-0.001c0.292-0.667,0.585-1.335,0.879-2.002c0.445-3.43,1.817-6.428,4.176-8.967
			c-0.12-0.735,0.074-1.374,0.583-1.917v0c0.624-2.183,1.248-4.366,1.872-6.549c-0.17-3.659,1.02-6.854,3.334-10.326
			c1.727,4.062,1.637,7.316-0.887,10.357c0,0,0,0,0,0c0,0,0,0,0,0c-0.203,2.362,0.248,4.926-2.057,6.636v0
			c-0.293,1.356-0.587,2.712-0.88,4.068c-0.59,2.547-1.082,5.143-3.441,6.794c-0.042,0.753-0.315,1.41-0.819,1.971
			c-0.663,3.322-2.382,6.127-4.31,8.832c-0.925,2.487-1.718,5.05-3.977,6.75c0,0,0,0-0.001,0c0,0,0,0.001,0.001,0.001
			c-0.791,2.519-1.792,4.911-3.979,6.588c-0.25,1.721-0.405,3.493-2.36,4.27c-0.045,1.812-0.324,3.503-2.254,4.335
			c0.011,1.818-0.238,3.506-2.168,4.358c0.267,0.76,0.12,1.428-0.441,2.005c-0.441,3.336-1.411,6.445-3.833,8.931
			c-0.283,2.388-0.442,4.821-2.387,6.608c-0.211,1.342-0.423,2.683-0.634,4.024c-1.597,6.807-1.152,13.964-3.541,20.635
			c0.491,4.825,0.982,9.65,1.473,14.474v0c0.876,3.531,1.753,7.061,2.629,10.591c0,0,0,0,0,0
			c3.691,7.911,7.382,15.822,11.074,23.734c2.835,2.537,4.684,5.756,6.311,9.128c2.129,2.926,4.258,5.851,6.387,8.777
			c7.857,8.051,15.715,16.102,23.572,24.154c0,0,0,0,0,0.001c0,0,0,0,0-0.001c0.693,0.022,0.988,0.376,0.884,1.062c0,0,0,0,0,0
			c0.578,0.546,1.156,1.093,1.733,1.639v0c1.159,0.247,1.871,0.944,2.116,2.108c1.609,0.625,2.729,1.721,3.255,3.386
			c0,0,0,0,0,0.001c0,0,0.001,0,0.001,0c0.677-0.113,1.071,0.17,1.181,0.849c0,0-0.001,0.001-0.001,0.001
			c0,0,0.001-0.001,0.002-0.001c4.646,3.366,7.993,7.876,11.084,12.609c2.753,2.479,5.281,5.126,6.497,8.747l0,0
			c1.953,1.801,3.587,3.822,4.422,6.396c5.667,6.324,8.743,13.886,10.541,22.058c0.454,0.539,0.668,1.16,0.643,1.863
			c2.692,2.971,2.461,6.233,1.217,10.128c-2.4-2.484-3.668-4.859-3.598-7.844l0,0c-0.246-1.342-0.491-2.683-0.736-4.025
			c-3.302-6.654-6.604-13.309-9.906-19.963c-1.575-2.205-3.149-4.41-4.724-6.615c-2.969-2.2-5.057-5.119-6.789-8.327c0,0,0,0,0,0
			c-4.063-4.072-7.906-8.328-10.991-13.214c-1.009-0.347-1.754-0.908-1.72-2.105c-1.194-0.292-2.036-0.93-2.197-2.237
			c-1.286-0.285-2.106-1.042-2.379-2.352c-1.247-0.07-1.932-0.783-2.229-1.943C1358.577,1147.041,1350.464,1139.144,1343.7,1129.885
			z M1548.54,369.326c-0.804-2.857-1.073-5.372,3.19-4.988c11.932,9.458,20.718,20.717,24.521,36.055
			c3.32,13.39,3.809,26.382,1.1,39.817c-2.665,13.22-7,25.89-11.457,38.541c-1.447,4.109-3.461,8.004-7.424,10.451
			c-5.466,3.374-10.555,2.68-14.31-2.482c-1.668-2.294-3.204-5.028-3.713-7.765c-3-16.118-4.541-32.016,0.638-48.337
			C1547.371,410.807,1549.6,390.189,1548.54,369.326z M1510.214,348.924c0.234-3.465-0.621-7.25,1.995-10.761
			c8.611,4.29,15.956,10.165,23.674,15.45c2.104,1.44,1.894,3.727,2.191,5.847c1.778,12.658,1.763,25.254-0.126,37.952
			c-2.086,14.019-4.246,27.971-9.5,41.229c-1.331,3.358-2.555,6.796-5.103,9.533c-1.9,2.042-4.494,2.388-6.844,0.785
			c-3.744-2.553-6.124-6.239-7.811-10.267c-3.083-7.362-5.564-14.92-6.159-22.985c-0.917-12.422,0.07-24.771,3.151-36.737
			C1508.24,369.04,1509.53,359.076,1510.214,348.924z M1468.533,310.532c1.183-5.881,2.408-6.417,6.632-2.634
			c8.113,7.263,15.809,15.016,24.923,21.085c2.118,1.41,2.489,3.325,2.332,5.635c-1.417,20.696-4.233,41.158-10.068,61.125
			c-2.053,7.026-4.877,13.704-9.535,19.416c-4.02,4.931-8.917,8.492-15.622,8.815c-6.808,0.328-10.177-1.889-12.207-8.305
			c-0.546-1.727-1.053-3.505-1.251-5.296c-0.319-2.881-0.366-5.792-0.618-10.316c0.872-7.077,2.066-15.705,2.976-24.364
			c2.091-19.904,6.654-39.32,11.328-58.721C1467.931,314.859,1468.103,312.667,1468.533,310.532z M1059.804,486.8
			c27.677-29.97,58.232-56.823,89.716-82.664c12.919-10.604,25.878-21.158,38.812-31.744
			c37.278-30.513,78.054-55.513,121.241-76.663c17.653-8.645,36.132-15.098,55.363-19.255c12.475-2.697,25.126-3.794,37.891-3.499
			c1.815,0.042,3.675-0.014,5.433,0.358c17.905,3.797,34.821,10.011,49.993,20.511c2.646,1.832,4.141,3.889,3.333,7.251
			c-4.151,17.278-7.034,34.882-13.31,51.611c-2.429,6.475-5.315,12.751-9.134,18.521c-1.995,3.013-4.347,5.815-6.753,8.522
			c-3.994,4.492-8.505,5.019-14.111-0.284c-2.171-2.053-3.333-4.774-4.235-7.524c-1.361-4.144-2.227-8.395-2.44-12.802
			c-0.369-7.62-0.952-15.23-1.516-22.839c-0.133-1.795-0.371-3.623-0.883-5.34c-0.556-1.862-1.989-3.005-4.024-2.985
			c-2.075,0.02-3.408,1.425-3.964,3.146c-0.542,1.681-0.687,3.587-0.57,5.366c0.693,10.51,1.344,21.028,2.367,31.509
			c0.459,4.707,2.348,9.139,4.647,13.288c2.342,4.225,5.702,7.438,10.083,9.616c6.912,3.438,13.327,2.96,19.164-2.235
			c2.428-2.161,4.691-4.507,7.028-6.769c2.358-0.36,3.696,0.275,2.911,2.983c-0.378,2.88-0.619,5.786-1.164,8.635
			c-1.174,6.136-1.716,12.3,0.015,18.359c1.129,3.952-0.659,6.318-3.533,8.257c-5.251,3.542-11.275,4.844-17.438,5.652
			c-5.402,0.708-10.834,1.247-16.194,2.195c-5.765,1.019-11.201,3.094-15.913,6.679c-8.436,6.417-9.691,15.267-3.418,23.828
			c2.602,3.551,5.889,6.376,9.51,8.88c10.581,7.32,18.524,17.352,27.099,26.715c2.997,3.273,4.594,7.402,5.018,11.855
			c0.668,7.029-3.265,12.005-10.214,13.022c-2.928,0.429-5.756-0.046-8.589-0.904c-4.919-1.49-9.356-3.898-13.674-6.608
			c-3.688-2.315-7.351-4.687-11.164-6.78c-11.143-6.118-22.835-6.743-34.762-2.79c-4.805,1.592-9.399,3.814-14.111,5.696
			c-3.023,1.207-6.028,2.516-9.144,3.429c-9.487,2.783-17.956,1.013-25.074-6.098c-4.112-4.109-8.269-8.175-12.289-12.373
			c-6.463-6.749-14.2-11.103-23.29-13.315c-6.155-1.498-12.192-1.587-18.287,0.024c-7.418,1.961-14.245,5.301-21.023,8.814
			c-29.038,15.05-56.867,32.142-84.377,49.776c-6.724,4.31-13.491,8.562-20.093,13.053c-2.625,1.786-4.699,1.438-6.785-0.536
			c-2.11-1.997-4.157-4.062-6.208-6.121c-12.31-12.359-24.548-24.796-37.78-36.189c-6.045-5.205-12.191-10.293-18.388-15.515
			C1055.655,489.75,1058.185,488.554,1059.804,486.8z M2223.304,2083.485c-1.89,6.302-4.301,12.35-7.798,17.915
			c-8.546,13.601-21.003,20.689-36.924,21.877c-13.27,0.991-26.034-1.503-38.576-5.582c-15.255-4.961-29.643-11.835-43.562-19.733
			c-30.785-17.468-58.813-38.788-85.722-61.642c-48.333-41.051-92.072-86.691-134.03-134.123c-3.315-3.748-4.438-6.912-1.962-11.54
			c3.077-5.75,5.573-11.812,8.297-17.75c10.141-22.108,20.272-44.221,30.408-66.332c0.605-1.321,1.326-2.598,1.816-3.959
			c0.934-2.591,2.749-3.307,5.108-2.291c5.664,2.438,11.411,4.745,16.858,7.611c21.868,11.506,43.278,23.827,63.543,37.995
			c17.867,12.491,35.482,25.344,53.165,38.097c10.629,7.666,20.538,16.211,30.207,25.044c2.949,2.694,6.042,5.233,9.132,7.766
			c1.78,1.459,3.868,1.882,6.14,1.343c2.516-0.596,4-4.062,2.516-6.027c-0.651-0.862-1.369-1.702-2.178-2.414
			c-18.825-16.578-37.828-32.926-58.778-46.849c-6.049-4.02-11.892-8.363-17.693-12.739c-21.803-16.443-45.069-30.574-68.846-43.925
			c-11.75-6.598-24.093-11.833-36.668-16.562c-4.869-1.831-4.915-1.709-8.538,3.322c-1.913,2.657-2.65,2.838-5.03,0.949
			c-1.991-1.582-3.91-3.259-5.81-4.951c-28.744-25.609-52.899-54.812-71.183-88.882c-12.91-24.055-24.184-48.749-33.399-74.44
			c-7.429-20.71-10.955-42.203-12.875-63.921c-1.866-21.1-6.022-41.677-11.469-62.052c-5.267-19.702-8.298-39.784-10.817-59.977
			c-0.673-5.394-1.708-10.77-2.988-16.054c-1.713-7.075-3.083-14.182-3.956-21.413c-0.917-7.604-2.432-15.094-6.915-21.572
			c-2.749-3.972-6.075-7.228-11.06-8.243c-7.053-1.436-12.963,0.535-17.516,6.103c-2.025,2.477-3.725,5.22-6.432,9.063
			c-1.217-2.827-1.878-4.514-2.656-6.144c-3.16-6.617-8.316-9.848-15.741-9.214c-2.173,0.185-4.373,0.148-6.527,0.452
			c-20.974,2.962-42.083,2.266-63.157,2.306c-31.744,0.061-63.099,3.48-94.027,10.613c-4.924,1.135-9.831,2.646-14.481,4.608
			c-12.254,5.171-18.608,14.607-19.042,27.936c-0.392,11.991-0.704,23.985-1.103,35.975c-1.078,32.377-0.281,64.696,2.771,96.958
			c1.746,18.452,3.172,36.935,5.019,55.377c1.012,10.116,2.569,20.178,3.937,30.257c0.486,3.582,1.158,6.895-1.342,10.348
			c-3.403,4.699-2.462,9.852,1.017,14.136c2.233,2.75,2.665,5.736,3.373,8.946c3.519,15.95,7.179,31.873,11.113,47.725
			c0.637,2.567,0.903,4.644,0.108,7.198c-1.632,5.248,0.893,9.167,4.964,12.21c2.946,2.202,6.328,3.51,9.947,4.204
			c6.82,1.308,13.654,1.871,20.604,1.091c19.86-2.232,39.703-4.702,59.61-6.417c18.818-1.621,37.708-2.42,56.568-3.546
			c7.357-0.439,14.444,1.339,21.547,2.858c5.619,1.202,9.84,4.442,13.014,9.182c5.683,8.485,10.618,17.313,13.58,27.178
			c1.982,6.6,4.272,13.108,6.494,19.634c3.784,11.112,10.918,19.586,20.724,25.86c12.398,7.932,25.448,14.04,40.611,13.958
			c17.94-0.097,31.875,7.441,43.627,20.926c10.938,12.552,22.673,24.497,35.903,34.207c-0.09,5.118-5.662,8.808-3.422,13.583
			c1.784,3.804,5.365,6.785,8.233,10.058c27.569,31.462,56.181,61.935,86.35,90.929c1.048,1.007,2.055,2.063,3.151,3.014
			c2.137,1.853,2.733,3.928,1.954,6.778c-2.68,9.804-5.139,19.669-7.663,29.515c-15.149,59.079-30.469,118.115-45.29,177.277
			c-2.905,11.597-9.685,18.042-20.52,21.645c-24.151,8.03-48.782,14.163-73.7,19.211c-36.376,7.37-73.133,12.108-110.128,14.636
			c-37.732,2.579-75.505,3.636-113.348,1.507c-26.874-1.513-53.671-3.498-80.311-7.345c-40.712-5.879-80.744-14.444-118.887-30.393
			c-19.586-8.189-37.709-18.609-53.187-33.423c-10.11-9.677-14.541-20.745-13.679-35.044c2.519-41.765,2.239-83.567-0.736-125.333
			c-1.266-17.766-2.616-35.51-4.727-53.208c-2.885-24.181-6.815-48.186-10.742-72.209c-6.924-42.367-17.132-83.963-29.12-125.115
			c-8.626-29.616-18.231-58.928-29.566-87.676c-8.189-20.771-19.104-39.937-31.415-58.4c-10.883-16.319-21.996-32.485-33.015-48.713
			c-33.507-49.349-69.49-96.863-107.113-143.115c-26.402-32.459-54.677-63.214-85.599-91.528
			c-48.799-44.685-97.279-89.72-145.818-134.687c-14.401-13.342-28.867-26.638-42.756-40.503
			c-45.287-45.208-91.104-89.886-135.65-135.838c-15.685-16.18-32.097-31.656-48.22-47.411
			c-17.433-17.034-33.74-35.095-49.655-53.546c-7.801-9.044-8.768-18.648-4.746-29.384c2.067-5.519,5.013-10.52,8.79-14.956
			c6.83-8.022,13.643-16.084,20.899-23.714c53.888-56.665,110.067-111.022,166.765-164.845
			c62.237-59.082,125.623-116.899,190.996-172.512c14.957-12.724,30.285-24.971,46.714-35.777c7.288-4.793,14.84-9.093,22.63-13.048
			c6.792-3.448,13.094-3.09,19.717,0.248c6.556,3.304,12.396,7.529,17.854,12.374c13.601,12.071,26.871,24.49,39.604,37.478
			c3.816,3.893,7.265,8.338,11.662,11.416c4.42,3.093,4.891,6.806,4.339,11.299c-0.587,4.78-2.7,9.047-4.971,13.176
			c-5.626,10.232-12.343,19.735-20.372,28.214c-9.997,10.557-19.894,21.246-30.425,31.255
			c-46.161,43.877-89.709,90.225-131.757,138.023c-20.409,23.2-40.707,46.516-61.778,69.106
			c-11.91,12.769-22.722,26.446-34.563,39.244c-4.329,4.678-6.253,10.597-7.57,16.68c-3.445,15.91-1.034,30.365,10.905,42.324
			c5.646,5.656,11.314,11.292,17.02,16.89c33.859,33.218,71.863,61.278,110.448,88.601c49.836,35.291,100.904,68.637,154.634,97.778
			c24.572,13.327,49.202,26.557,73.572,40.248c37.035,20.807,73.813,42.069,110.808,62.949
			c15.171,8.563,30.658,16.565,45.927,24.959c8.474,4.659,17.293,6.557,27.081,6.52c19.616-0.073,39.232,1.205,58.854,1.444
			c24.766,0.302,49.389-1.838,73.735-6.381c15.113-2.82,27.958-9.619,37.051-22.738c4.762-6.869,9.832-13.504,13.762-20.914
			c1.008-1.901,2.205-3.702,3.525-5.9c22.832,19.823,50.42,25.309,78.927,27.575c20.05,1.593,39.918-0.244,59.363-5.83
			c9.062-2.603,17.524-6.541,25.294-11.29c2.526,1.737,1.596,3.63,1.489,5.235c-0.413,6.165-0.648,12.368-1.553,18.467
			c-1.573,10.603,5.193,16.979,14.068,20.519c2.005,0.8,4.142,1.453,6.274,1.718c14.063,1.746,28.125,3.508,42.221,4.949
			c4.67,0.477,9.442,0.169,14.157-0.037c16.708-0.731,33.403-1.878,50.117-2.303c26.988-0.687,53.731,1.465,79.964,8.324
			c27.942,7.306,51.235,21.831,69.502,44.328c5.508,6.783,10.602,13.838,15.383,21.144c23.144,35.365,41.78,73.068,58.854,111.658
			c16.361,36.977,28.556,75.32,39.229,114.207c19.983,72.813,40.578,145.459,59.151,218.658
			c7.588,29.903,15.816,59.653,24.302,89.316c5.188,18.134,11.639,35.9,16.018,54.285c6.832,28.682,12.453,57.533,12.679,87.168
			C2228.31,2054.169,2227.644,2069.019,2223.304,2083.485z M1653.98,1678.731c-3.774-4.434-8.947-6.13-14.414-6.87
			c-3.582-0.484-7.259-0.483-10.885-0.375c-27.323,0.814-54.496-1.224-81.591-4.417c-9.378-1.105-18.687-2.973-27.435-6.671
			c-3.459-1.462-8.691-2.655-7.649-7.699c0.82-3.972,5.714-4.087,9.16-4.606c4.285-0.645,8.699-0.43,13.058-0.588
			c25.858-0.932,51.372-4.412,76.441-10.818c5.943-1.519,11.656-3.968,17.433-6.104c3.778-1.397,7.163-3.542,10.202-6.178
			c9.134-7.926,9.2-20.448,0.21-28.617c-3.568-3.242-7.815-5.285-12.273-6.885c-6.523-2.342-13.392-3.218-20.156-4.564
			c-14.234-2.834-28.509-5.546-42.601-8.988c-9.863-2.41-19.404-6.063-28.057-11.621c-3.681-2.364-7.209-4.92-10.031-8.317
			c-3.205-3.86-4.956-8.038-2.731-13.045c2.208-4.969,6.335-6.712,11.431-6.723c4.381-0.01,8.642,0.686,12.887,1.88
			c39.921,11.228,80.688,18.282,121.642,24.351c7.553,1.12,15.207,1.296,22.855,0.743c5.163-0.374,10.005-1.767,14.413-4.485
			c6.57-4.051,10.792-9.793,11.367-17.602c0.453-6.148,0.482-12.343,0.396-18.513c-0.247-17.447-0.521-34.895-1.04-52.334
			c-0.313-10.532-1.141-21.048-1.669-31.574c-0.639-12.735-0.482-25.42,1.962-38.016c1.061-5.465,2.939-10.509,6.326-14.885
			c3.83-4.948,9-4.951,12.784-0.116c2.501,3.195,4.245,6.847,4.775,10.862c2.946,22.323,9.278,44.053,11.212,66.575
			c1.245,14.5,5.322,28.549,8.947,42.605c5.275,20.451,9.143,41.087,10.812,62.173c2.373,29.975,10.721,58.472,22.21,86.136
			c10.048,24.195,21.918,47.473,35.582,69.802c16.831,27.506,38.138,51.261,62.142,72.67c2.44,2.177,4.998,4.222,7.433,6.405
			c3.933,3.527,4.043,3.615,1.939,8.256c-10.036,22.143-20.151,44.249-30.488,66.916c-5.252-1.979-8.12-5.326-11.121-8.409
			c-7.1-7.293-14.07-14.713-21.104-22.071c-3.014-3.153-5.995-6.34-9.1-9.403c-9.447-9.321-20.928-14.178-34.072-15.254
			c-3.26-0.267-6.539-0.3-9.8-0.553c-15.834-1.228-29.247-8.029-41.132-18.159c-4.522-3.854-7.461-8.94-9.478-14.446
			c-2.496-6.812-4.836-13.696-6.886-20.653c-3.228-10.955-8.746-20.698-15.173-30c-4.528-6.554-10.651-10.638-18.481-12.496
			c-8.185-1.942-16.415-3.337-24.812-2.943c-28.314,1.328-56.61,2.743-84.757,6.541c-12.212,1.648-24.487,3.504-36.892,3.325
			c-5.063-0.074-10.193,0.256-15.013-1.953c-1.683-0.771-3.74-1.432-3.458-3.51c0.139-1.025,1.853-2.305,3.08-2.638
			c7.69-2.092,15.249-4.836,23.319-5.246c10.928-0.556,21.559-2.742,32.187-5.286c15.175-3.632,30.492-6.662,45.739-9.993
			c3.544-0.774,7.132-1.487,10.547-2.668c2.71-0.938,5.413-2.239,7.727-3.918C1658.572,1692.922,1659.333,1685.021,1653.98,1678.731
			z"/>
		<path d="M1787.81,663.802c0.272-0.058,0.544-0.115,0.816-0.173c-0.28,0.003-0.551,0.048-0.817,0.114
			C1787.809,663.762,1787.809,663.782,1787.81,663.802z"/>
		<path style="fill:#010101;" d="M1642.34,1106.188c-3.009-3.304-6.844-5.299-11.054-6.677c-17.923-5.869-35.745-5.271-53.388,1.054
			c-4.09,1.466-7.881,3.735-10.704,7.248c-3.884,4.834-3.868,10.127,0.071,14.888c3.128,3.781,7.407,5.816,11.864,7.406
			c7.972,2.842,16.317,3.34,24.175,3.499c8.896-0.152,17.221-0.807,25.23-3.461c5.191-1.72,10.205-3.897,13.927-8.156
			C1646.625,1117.225,1646.585,1110.849,1642.34,1106.188z M1630.926,1121.3c-3.103,1.93-6.447,3.012-10.137,2.558
			c-1.511-0.186-2.563-1.171-3.184-2.535c-0.708-1.553,0.21-2.751,1.149-3.76c1.832-1.969,4.272-2.436,6.854-2.37
			c1.825-0.022,3.465,0.404,4.97,1.559C1632.037,1117.873,1632.343,1120.418,1630.926,1121.3z"/>
		<path style="fill:#D42488;" d="M1706.779,1486.137c0.325,8.624,0.921,23.143,1.388,37.666c0.151,4.716,0.214,9.461-0.131,14.161
			c-0.535,7.293-4.507,11.987-11.566,14.144c-8.24,2.517-16.535,1.74-24.84,0.641c-28.801-3.812-57.319-9.177-85.731-15.222
			c-11.727-2.495-23.357-5.254-34.904-8.447c-4.537-1.255-9.152-2.455-13.81-2.996c-6.747-0.784-13.006,0.934-18.187,5.578
			c-7.624,6.834-9.258,16.874-4.176,25.715c2.006,3.49,4.672,6.453,7.75,9.069c6.716,5.709,14.254,10.047,22.442,13.189
			c10.518,4.036,21.257,7.329,32.4,9.276c12.154,2.124,24.285,4.396,36.377,6.844c5.688,1.152,11.334,2.71,16.25,6.024
			c7.01,4.727,7.275,12.197,0.242,16.842c-3.893,2.571-8.304,4.509-12.701,6.139c-13.348,4.947-27.33,7.344-41.347,9.338
			c-17.979,2.556-36.02,4.622-54.228,4.595c-1.449-0.002-2.902,0.182-4.346,0.114c-1.537-0.072-2.797-0.771-3.168-2.39
			c-0.324-1.41-0.481-2.859-0.69-4.294c-3.028-20.848-4.9-41.813-6.912-62.78c-3.162-32.955-4.706-65.93-4.243-99.016
			c0.214-15.26,0.447-30.519,0.675-45.778c0.022-1.453,0.049-2.907,0.109-4.359c0.449-11.011,5.698-18.349,16.276-21.995
			c11.395-3.928,23.212-5.904,35.013-7.847c23.707-3.904,47.601-5.375,71.637-5.066c20.709,0.267,41.399-0.337,61.977-3.082
			c6.975-0.931,9.297,0.517,11.402,7.05c0.994,3.084,1.52,6.339,2.045,9.552C1706.185,1425.78,1706.219,1453.02,1706.779,1486.137z"
			/>
		<path style="fill:#D32488;" d="M1520.504,1671.755c0.615,0.074,1.368,0.048,2.045,0.263c16.777,5.322,34.234,6.48,51.572,7.702
			c18.448,1.301,36.937,2.833,55.498,1.742c3.928-0.231,7.941,0.547,11.877,1.117c1.355,0.196,2.674,1.055,3.874,1.824
			c2.34,1.499,2.269,4.865-0.028,6.397c-2.781,1.854-5.948,2.676-9.141,3.383c-12.041,2.667-24.086,5.315-36.141,7.92
			c-4.61,0.996-9.351,1.517-13.852,2.858c-7.694,2.293-15.496,3.814-23.464,4.584c-10.123,0.978-20.162,2.356-29.941,5.334
			c-2.977,0.907-4.81,0.033-5.192-2.227c-2.003-11.848-6.088-23.149-8.956-34.766c-0.343-1.39-0.485-2.881-0.4-4.307
			C1518.321,1672.485,1519.122,1671.699,1520.504,1671.755z"/>
		<path style="fill:#D02385;" d="M1207.947,2725.776c-8.807-7.354-12.013-16.785-11.001-28.097c0.62-6.932,2.031-13.654,3.94-20.281
			c3.417-11.862,6.648-23.801,10.675-35.459c10.926-31.626,18.488-64.187,27.157-96.432c7.074-26.313,14.448-52.472,23.908-78.073
			c8.051-21.788,14.954-44.003,22.224-66.075c4.211-12.785,9.036-25.309,14.955-37.4c2.327-4.752,5.31-7.382,6.405-5.937
			c2.136,2.818,0.496,5.569-0.651,8.176c-12.745,28.985-21.839,59.254-31.652,89.281c-6.427,19.666-14.317,38.84-19.614,58.894
			c-8.066,30.538-16.074,61.094-24.549,91.52c-4.87,17.481-10.732,34.684-15.917,52.08c-3.006,10.087-5.596,20.3-8.281,30.48
			c-0.645,2.446-1.026,4.975-1.351,7.489c-1.108,8.57-0.138,16.667,5.55,23.674c0.666,0.82,0.97,1.933,1.441,2.91
			C1211.65,2725.145,1210.57,2726.229,1207.947,2725.776z"/>
		<path style="fill:#CB2383;" d="M1893.77,2321.648c4.326,4.27,5.743,9.981,7.613,15.454c8.107,23.723,15.042,47.792,21.551,72
			c7.543,28.052,16.469,55.714,23.475,83.927c9.453,38.063,18.793,76.147,26.838,114.539c6.928,33.066,15.419,65.751,24.229,98.357
			c1.227,4.539,2.178,9.16,3.044,13.782c0.141,0.754-0.619,2.1-1.336,2.493c-1.044,0.573-2.243-0.311-2.642-1.269
			c-1.389-3.339-2.867-6.688-3.775-10.173c-9.615-36.896-19.156-73.804-26.864-111.172c-10.714-51.94-23.271-103.439-38.095-154.375
			c-7.104-24.408-13.979-48.883-21.107-73.283c-3.766-12.892-7.785-25.712-11.839-38.516c-0.981-3.097-2.557-6.005-3.859-9
			C1890.542,2322.106,1891.548,2321.268,1893.77,2321.648z"/>
		<path style="fill:#CA2282;" d="M1609.459,2345.973c-17.908-0.255-35.267-4.056-52.516-8.359
			c-30.296-7.559-59.843-17.568-89.318-27.78c-22.618-7.837-45.181-15.833-67.779-23.729c-3.765-1.315-7.582-2.48-11.375-3.714
			c-10.012-3.257-20.086-6.082-30.692-3.703c-0.693-3.769,1.863-4.301,3.736-4.752c7.22-1.736,14.422-0.898,21.552,0.796
			c14.149,3.362,27.792,8.285,41.383,13.383c28.53,10.701,57.097,21.307,86.158,30.499c24.904,7.877,49.911,15.441,75.771,19.587
			c12.887,2.066,25.852,3.648,38.781,5.45c0.838,1.288,0.568,2.275-0.807,2.96
			C1619.381,2346.597,1614.367,2347.534,1609.459,2345.973z"/>
		<path style="fill:#CE2384;" d="M1736.297,804.485c-0.233,4.55,0.384,7.874-0.897,11.001c-0.727,1.774-2.085,2.988-4.066,3.148
			c-2.479,0.2-4.24-1.093-4.996-3.319c-0.571-1.679-0.747-3.544-0.811-5.336c-0.801-22.4-6.024-43.729-15.348-64.086
			c-0.434-0.946-0.597-2.035-0.77-3.077c-0.193-1.158,1.98-2.808,3.056-2.282c1.278,0.624,2.629,1.246,3.672,2.178
			c4.154,3.711,6.727,8.565,8.948,13.529C1732.13,771.989,1735.801,788.534,1736.297,804.485z"/>
		<path style="fill:#CE2384;" d="M1772.052,791.473c0,3.622,0.114,7.25-0.049,10.865c-0.08,1.769-0.473,3.591-1.1,5.246
			c-0.525,1.386-1.835,2.358-3.44,1.896c-0.93-0.268-2.279-0.989-2.435-1.72c-0.828-3.877-1.622-7.801-1.899-11.746
			c-0.637-9.061-2.178-17.947-4.125-26.807c-1.722-7.838-4.281-15.313-7.917-22.466c-2.458-4.836-4.706-9.802-5.606-15.217
			c-0.241-1.45,0.219-2.869,1.66-3.674c1.6-0.893,2.849,0.077,3.851,1.055c1.287,1.255,2.465,2.674,3.447,4.181
			c10.695,16.429,17.389,34.157,17.357,54.037c-0.002,1.45,0,2.899,0,4.349C1771.882,791.473,1771.967,791.473,1772.052,791.473z"/>
		<path style="fill:#9C1C6A;" d="M1893.77,2321.648c-0.922,0.921-1.843,1.843-2.766,2.764c-5.366-4.195-10.73-8.389-15.954-12.473
			c0.059-1.801,1.044-1.974,2.157-1.646C1883.954,2312.278,1889.729,2315.704,1893.77,2321.648z"/>
		<path style="fill:#B61F76;" d="M1207.947,2725.776c1.08-1.084,2.16-2.167,3.24-3.252c4.88,4.703,9.759,9.406,14.639,14.109
			c0.359,2.042-0.184,3.098-2.465,2.255C1217.058,2735.886,1212.011,2731.41,1207.947,2725.776z"/>
		<path style="fill:#AF185C;" d="M1609.459,2345.973c5.314-0.101,10.627-0.202,15.941-0.303c6.52-1.543,13.036-1.66,19.546,0.061
			c1.369-0.162,2.731-0.291,3.864,0.735c0.002,1.873-1.492,1.143-2.313,1.221c-9.595,0.912-19.201,0.57-28.801,0.05
			C1614.87,2347.583,1611.971,2347.652,1609.459,2345.973z"/>
		<path style="fill:#3E0B29;" d="M1806.138,2314.94c8.508-4.389,17.349-7.878,26.743-9.957c-7.207,6.041-16.478,7.79-24.472,12.135
			C1807.641,2316.403,1806.315,2316.271,1806.138,2314.94z"/>
		<path style="fill:#851348;" d="M1739.266,2332.905c-2.485,1.776-5.385,1.737-8.224,1.763c-6.758,0.063-13.518,0.02-21.172,0.02
			c2.912-3.326,6.163-1.782,8.879-2.27c4.323-1.686,8.83-0.467,13.237-0.838C1734.438,2331.876,1737.15,2330.758,1739.266,2332.905z
			"/>
		<path style="fill:#9B1A65;" d="M1771.395,2328.01c-4.287,1.07-8.424,2.996-13.023,2.275c-0.695-0.495-0.922-0.984-0.682-1.467
			c0.238-0.478,0.475-0.718,0.713-0.718c4.098-2.209,8.58-2.236,13.055-2.299c0.509,0.506,0.669,1.002,0.481,1.488
			C1771.753,2327.77,1771.572,2328.01,1771.395,2328.01z"/>
		<path style="fill:#570F39;" d="M1806.138,2314.94c0.758,0.727,1.516,1.454,2.273,2.179c-4.549,0.913-8.217,4.436-13.083,4.404
			c-0.645-0.566-0.846-1.116-0.606-1.651c0.237-0.527,0.468-0.79,0.694-0.79C1798.591,2316.668,1802.503,2316.163,1806.138,2314.94z
			"/>
		<path style="fill:#9C2385;" d="M1644.946,2345.731c-6.516-0.02-13.032-0.04-19.547-0.06c-0.062-0.676-0.141-1.349-0.236-2.02
			C1631.833,2343.612,1638.623,2342.459,1644.946,2345.731z"/>
		<path style="fill:#961654;" d="M1771.395,2328.01c0.021-0.736,0.041-1.472,0.062-2.208c2.348-2.418,5.368-2.088,8.32-2.036
			c1.689-1.012,3.344-1.118,4.945,0.187C1780.671,2326.589,1776.04,2327.323,1771.395,2328.01z"/>
		<path style="fill:#921A62;" d="M1223.36,2738.889c0.822-0.752,1.644-1.504,2.465-2.256c2.236,1.373,4.473,2.746,6.71,4.119
			c0.428,1.994-0.036,3.077-2.335,2.288C1227.747,2741.943,1225.121,2741.13,1223.36,2738.889z"/>
		<path style="fill:#541B66;" d="M1732.314,2332.437c-4.521-0.005-9.041-0.01-13.564-0.017c4.242-2.896,8.979-1.917,13.614-1.73
			c0.609,0.406,0.804,0.8,0.587,1.183C1732.739,2332.248,1732.527,2332.437,1732.314,2332.437z"/>
		<path style="fill:#A01C69;" d="M1758.403,2328.1c-0.01,0.728-0.021,1.457-0.031,2.185c-1.299,0.119-2.598,0.238-3.897,0.356
			c-3.428,1.128-6.83,1.731-10.089-0.507C1748.801,2327.687,1753.627,2328.065,1758.403,2328.1z"/>
		<path style="fill:#651140;" d="M1230.201,2743.041c0.778-0.763,1.556-1.526,2.334-2.289c1.273,0.596,2.594,1.111,3.797,1.824
			c0.525,0.312,0.808,1.03,1.201,1.563c-0.53,0.329-1.032,0.872-1.597,0.949C1233.705,2745.396,1231.751,2744.736,1230.201,2743.041
			z"/>
		<path style="fill:#A1113F;" d="M1744.385,2330.135c3.361,0.168,6.722,0.337,10.086,0.506c-3.534,2.509-7.568,2.127-11.56,1.994
			c-0.656-1.04-0.48-1.848,0.666-2.384L1744.385,2330.135z"/>
		<path style="fill:#991F77;" d="M1743.578,2330.251c-0.22,0.794-0.441,1.589-0.664,2.383c-1.22,0.09-2.437,0.18-3.651,0.27
			c-2.315-0.154-4.633-0.309-6.95-0.466c-0.085-0.588-0.069-1.17,0.05-1.75C1736.102,2330.543,1739.84,2330.397,1743.578,2330.251z"
			/>
		<path style="fill:#77195F;" d="M1795.416,2319.082c-0.029,0.814-0.057,1.628-0.087,2.441c-2.185,0.579-4.37,1.157-6.554,1.736
			c-0.999-0.17-1.726-0.708-2.181-1.615C1789.015,2319.001,1792.383,2319.619,1795.416,2319.082z"/>
		<path style="fill:#8B185E;" d="M1786.594,2321.645c0.727,0.539,1.455,1.078,2.182,1.615c-1.352,0.23-2.704,0.461-4.055,0.692
			c-1.645-0.062-3.291-0.124-4.94-0.186C1781.598,2321.608,1784.074,2321.554,1786.594,2321.645z"/>
		<path style="fill:#060505;" d="M1605.042,1046.051c-13.555-0.273-23.112-5.878-25.872-20.187
			c-1.511-7.831-3.392-15.576-6.05-23.123c-2.896-8.224-2.397-16.481,0.623-24.53c3.055-8.14,6.443-16.155,9.694-24.221
			c0.271-0.671,0.448-1.528,0.959-1.924c1.099-0.852,2.207-1.939,3.858-1.454c1.894,0.556,3.572,1.765,3.362,3.702
			c-0.306,2.828-1.143,5.643-2.088,8.347c-2.032,5.813-4.28,11.549-6.436,17.319c-2.506,6.706-2.617,13.529-0.528,20.302
			c2.353,7.629,4.399,15.303,5.992,23.142c1.935,9.523,7.223,13.311,17.075,13.02c2.155-0.063,4.293-0.64,6.446-0.926
			c2.381-0.317,4.29,0.43,5.377,2.69c0.987,2.052-0.461,4.607-3.145,6.079C1611.3,1045.938,1608.013,1045.761,1605.042,1046.051z"/>
		<path style="fill:#010000;" d="M1544.8,1446.989c-1.328,0-2.784,0.074-4.231-0.013c-5.691-0.344-8.406-2.594-10.083-8.167
			c-1.176-3.909-1.135-7.902-0.74-11.88c0.43-4.329,2.731-7.421,6.823-9.056c1.342-0.536,2.698-1.147,4.105-1.391
			c13.576-2.349,27.163-4.633,40.751-6.913c1.07-0.18,2.168-0.225,3.256-0.266c5.524-0.208,11.345-0.543,14.381,5.282
			c3.632,6.968,5.29,14.424,1.471,21.901c-2.009,3.934-6.234,4.851-10.183,5.49c-6.081,0.985-12.211,1.709-18.339,2.363
			C1562.993,1445.302,1553.957,1446.105,1544.8,1446.989z"/>
		<path style="fill:#0A0206;" d="M1613.612,1510.56c-11.84,0.003-21.103-8.963-21.049-20.375
			c0.055-11.593,10.062-21.435,21.765-21.407c11.337,0.027,21.601,9.68,21.169,20.654
			C1634.938,1503.638,1623.49,1511.052,1613.612,1510.56z"/>
		<path style="fill:#D42588;" d="M1801.025,971.966c-1.292-2.922-3.654-5.464-3.097-9.018c-3.628-0.147-5.619-3.105-8.26-4.899
			c-14.444-9.815-36.484-2.069-39.985,18.188c-1.534,8.875-0.077,17.334,5.045,24.962c1.784,2.656,4.55,4.804,4.404,8.465
			c3.24-0.77,5.327,1.698,7.888,2.823c14.235,6.253,29.106,0.254,34.891-14.14C1805.491,989.44,1804.856,980.633,1801.025,971.966z
			 M1793.14,998.311c-0.881,3.58-2.932,6.281-6.378,7.801c-11.732,5.441-18.056,3.371-26.297-8.605c0,0,0,0,0,0
			c-2.069-1.557-2.367-3.862-2.613-6.189c-1.739-2.01-1.842-4.45-1.635-6.888c0.098-1.158-0.367-3.102,1.705-2.925
			c1.596,0.137,1.973,1.788,2.195,3.129c0.225,1.355,0.168,2.757,0.235,4.139v0c0,0,0,0,0,0c0.758,2.157,1.517,4.315,2.274,6.472
			c0,0,0,0,0,0c0.88,1.099,1.717,2.238,2.649,3.292c5.18,5.858,11.384,7.982,18.928,5.108c0,0,0,0,0,0
			c2.121-2.33,4.203-4.698,6.404-6.951c0.352-0.359,1.437-0.481,1.82-0.206C1792.885,996.815,1793.274,997.766,1793.14,998.311z"/>
		<path style="fill:#C82280;" d="M1621.32,1477.196c8.472,6.727,10.183,12.912,5.461,20.062c-3.789,5.737-9.279,7.644-15.903,6.779
			c-5.537-0.723-9.418-3.907-11.164-8.984c-2.03-5.902-0.734-11.403,4.108-15.687c1.049-0.928,2.427-1.486,3.653-2.215
			c5.716-0.47,4.198,3.792,4.514,6.855c-0.199,1.055-0.535,2.087-0.977,3.081c-1.645,3.707-2.423,7.743,2.919,8.211
			c4.824,0.423,6.038-3.049,4.477-7.377c-0.985-1.76-2.557-3.133-3.261-5.067c-0.555-2.244-0.402-4.324,1.359-6.043
			C1618.17,1476.233,1619.784,1476.233,1621.32,1477.196z"/>
	</g>
</g>
<g id="Layer_5_xA0_Image_1_">
</g>
<g id="Layer_8_xA0_Image_1_">
</g>
<g id="Layer_10_xA0_Image_1_">
</g>
<g id="Layer_12_xA0_Image_1_">
</g>
</svg>
