<?xml version="1.0" encoding="utf-8"?>
<!-- Generator: Adobe Illustrator 23.0.2, SVG Export Plug-In . SVG Version: 6.00 Build 0)  -->
<svg version="1.1" id="Layer_1" xmlns="http://www.w3.org/2000/svg" xmlns:xlink="http://www.w3.org/1999/xlink" x="0px" y="0px"
	 viewBox="0 0 499.5 433.3" style="enable-background:new 0 0 499.5 433.3;" xml:space="preserve">
<style type="text/css">
	.st0{fill:#68E6B3;}
	.st1{fill:#E1F0FF;}
	.st2{fill:#010101;}
	.st3{fill:#030202;}
	.st4{fill:#040404;}
	.st5{fill:#050505;}
	.st6{fill:#0B0909;}
	.st7{fill:#0A0A0A;}
	.st8{fill:#090707;}
	.st9{fill:#0A0909;}
	.st10{fill:#FFFFFF;}
	.st11{fill:#040605;}
	.st12{fill:#030403;}
	.st13{fill:#FFFEFE;}
	.st14{fill:#FEFFFF;}
	.st15{fill:#FEFEFE;}
	.st16{fill:#AFB9B9;}
	.st17{fill:#76C6A0;}
	.st18{fill:#395243;}
	.st19{fill:#060606;}
	.st20{fill:#0B0D0B;}
	.st21{fill:#161515;}
	.st22{fill:#090B09;}
	.st23{fill:#010000;}
	.st24{fill:#020101;}
	.st25{fill:#080707;}
	.st26{fill:#141111;}
	.st27{fill:#9CB6B6;}
	.st28{fill:#060706;}
	.st29{fill:#C3B9B9;}
	.st30{fill:#E07476;}
	.st31{fill:#E17476;}
	.st32{fill:#DF7375;}
	.st33{fill:#606868;}
</style>
<title>Asset 227</title>
<g>
	<g id="Layer_1-2">
		<path class="st0" d="M294.5,368.7c1.6-0.6,1.9-1.4,1.1-3.1c-2.9-6.1-5.7-12.3-8.4-18.5c-3.4-7.8-5.6-16-8.1-24.1
			c-2.7-9.5-4.8-19.1-6.4-28.8c0-0.4,0-0.8,0-1.3c6.4,1.4,13,1.8,19.5,2.6c11.8,1.4,23.6,2.7,35.4,3.7c6.9,0.6,13.8,0.2,20.6,1
			c6.4,0.8,12.9-0.6,19.4-0.7c3.6-0.1,4,0.1,4.1,3.8c0.1,3.4-0.1,6.8,0,10.2c0.3,12.7,3.2,25.1,8.6,36.6c0.9,2.1,2.3,4.1,4,5.7
			c1.8,1.6,3.6,1.6,5.4,0c1.7-1.7,3.1-3.8,3.8-6.2c3-7.5,4.9-15.4,8.8-22.5c2-3.7,4.2-7.4,6.6-10.9c0.7-1,1.4-2.5,2.9-2.2
			s1.7,1.8,2,3c2.2,7,3.2,14.3,4.2,21.5c0.9,6.1,0.9,12.3,0.1,18.4c-0.9,9.6-6.4,18.2-14.6,23.1c-5,3.1-9.7,6.5-13.5,11.1
			c-10.8,13-24.8,14.1-39.4,9.8c-16.9-5-32.3-13.4-46.3-24.1c-0.6-0.4-1.2-0.9-1.7-1.4C300.6,372.5,297.8,370.2,294.5,368.7z"/>
		<path class="st0" d="M460.1,286.2c2.2,3.9,2.8,8.4,4.5,12.5c2.7,6.8,5.1,13.7,7.5,20.6c3.8,10.6,6.1,21.6,8.1,32.6
			c1.3,7.4,2,14.9,3.3,22.3c1.2,7.2,2,14.5,4.3,21.4c1.4,4.1,3,8,6.3,10.9c0.8,0.6,1.1,1.6,0.8,2.6c-0.1,0.2-0.3,0.4-0.6,0.5
			l-1.9,0.1c-2.2,0.6-4.6,0.9-6.9,0.9c-4,0.1-8-0.1-12,0.6c-1.9,0.4-3.9,0-5.5-1c-0.2-0.2-0.5-0.4-0.5-0.8c0.7-4.3,0.6-4.3-3.3-6
			c-11.9-5.3-24.4-8.5-37.3-8.6c-19.3-0.1-37,4.7-50.8,19.4c-0.5,0.8-1.4,1.4-2.3,1.6c-12.6-0.4-24.8-2.2-36.5-7
			c-1.3-1.7,1.4-1.4,1.3-2.7c-3.3-2.1-7.1-3.4-10.6-5.3c-6.3-3.3-12.1-7.4-18.2-11.1c-4.7-2.8-9.7-4.1-15.2-3
			c-1.6,0.3-3.2,0.2-4.7-0.3c-3.5-1.3-4.8-4.3-3.1-7.6c1.4-2.7,3.5-5.1,6-6.9c2.3-1.7,4.7-1.4,6.8,0.9
			c14.9,15.9,34.1,24.2,54.4,30.2c11.9,3.5,23.6,1.8,33.4-7c2.1-1.9,3.8-4.3,5.8-6.3c2.7-2.7,5.7-5.1,9-7
			c11.8-6.9,17.5-17.3,17.6-31c0.1-13-2-25.9-6.3-38.1c-0.7-1.6-0.5-3.4,0.5-4.8c0.1-0.2,0.2-0.4,0.3-0.5c6.3-10,4.1-8.1,15-11
			c7.3-1.9,14.7-3.4,21.8-6C454.4,290,457.7,288.9,460.1,286.2z"/>
		<path d="M460.1,286.2c-0.1,1.8-1,2.7-2.7,3.4c-8.3,3.8-17.1,5.6-25.8,7.9c-2.9,0.7-5.8,1.4-8.6,2.1c-1.6,0.3-3,1.2-3.8,2.6
			c-1.5,2.5-3.2,5-4.8,7.5c-0.7,0.9-0.8,2.2-0.3,3.2c5.1,13.7,7.2,28.2,6.3,42.8c-0.7,10.6-5.5,19-14.1,25.2
			c-1.6,1.2-3.4,2.2-5.1,3.3c-3.2,1.9-6,4.4-8.4,7.2c-2,2.3-4.2,4.5-6.5,6.6c-5.7,5-12.5,6.9-19.9,7.2c-6.7,0.2-13.4-0.9-19.6-3.2
			c-13.3-4.7-25.6-11.4-37.4-18.9c-3.8-2.3-7.1-5.4-9.8-9c-2.2-3.1-4.3-3.3-7.2-1c-2.3,1.9-4.2,4.3-5.4,7c-1,2.5-0.4,4.1,2,5.2
			c1.6,0.7,3.3,1,5,0.7c6.9-1.1,13,0.6,18.7,4.5c8.5,5.9,17.7,11,27.2,15.1c0.3,0.2,0.6,0.4,0.8,0.6c-0.5,2.2-2.8,1.1-3.8,2.2
			c-1.4,1.4-3.2,1-4.8,0.8c-15.3-1.6-30.8-0.8-45.8,2.5c-1.7,0.4-3.3,0.6-5,0.9c-3.1,0.6-5.9,0.6-7.7-2.8c-0.7-1.3-2-0.9-3.1-0.8
			c-5.7,0.6-11.4,1.5-17,2.8c-1.5,0.4-3.1,0.7-4.7,0.9c-1.6,0.1-3.1-0.1-3.8-1.6s0-2.7,1-3.7c2.6-2.5,5.2-5,8.8-6
			c6.8-4.1,13.8-7.7,21.5-9.9c2.8-0.8,5.5-1.5,8.2-2.4c1-0.3,2.1-0.4,2.8-1.3c-4.7-4.2-4.9-6.5-1.4-11.9c2.1-3.2,4.7-6,8.5-7.3
			c2.7-0.3,4.6,0.9,6.2,3c2.8,3.5,6.1,6.5,10,8.8c11.7,7.7,24.3,14,37.4,18.9c7.8,2.8,16.2,3.6,24.4,2.1c4.3-0.7,8.3-2.6,11.6-5.5
			c1.8-1.5,3.5-3.1,5-4.9c3.7-4.4,8.2-8.1,13.1-11c5-2.9,9.1-7.1,11.9-12.1c2.1-4,3.3-8.5,3.5-13.1c0.9-13.8-1.6-27.2-5.4-40.3
			c-1.3-0.2-1.4,0.7-1.8,1.3c-6.4,8.9-11.2,18.8-14.3,29.3c-0.9,3.2-2.1,6.2-3.8,9.1c-3.3,5.4-7,5.6-10.5,0.4
			c-3.7-5.8-6.4-12.3-7.9-19c-2.6-10-3.7-20.3-3.4-30.6c0-1.5,0-3,0-4.6c-3.5,0.2-6.9,0.2-10.2,0.5c-4.5,0.4-9.1,0.5-13.7,0.3
			c-13.9-0.4-27.8-1.4-41.6-3c-9-1-17.9-2.1-26.8-3.1c-2-0.2-3.9-0.9-5.7-2c-2-11.3-3.8-22.7-4.8-34.2c-11.1,1.6-21.9,0.1-32.7-1.7
			c-5.2-0.9-10.4-2.2-15.5-3.5c-1.4-0.4-2.5-0.5-3.3,1.2s-2.3,2.1-4,2.1c-1.2-0.1-2.3-0.2-3.4-0.6c-3.8-1.2-3.9-1.4-3.8-5.3
			c-0.1-1.2-0.1-2.3,0-3.5c2.5-13.7,1.6-27.4,1-41.1c-0.1-2.5-0.5-5.1,0.1-7.6c0.1-1.2-0.7-2.2-1-3.3c-0.4-1.6,0-2.5,1.6-2.9
			c2.2-0.4,4.3-1.1,6.3-2.1c1.4-0.7,2.1,0.2,2.7,1.4c0.7,1.4,0.2,3.6,1.9,4.1c1.4,0.3,3.1-0.6,4.6-0.8c10.9-1.8,21.3-5.7,30.8-11.5
			c3.9-2.4,6.6-5.9,9.9-9c0.5-0.6,0.7-1.3,0.7-2.1c2.1-12.9,7.2-25.2,14.8-35.8c2-2.8,3.8-5.6,5.7-8.4c2-0.2,3,1.4,4.2,2.5
			c1,1.3,2.8,1.7,4.3,0.9c5.9-2.6,12.2-4.5,18.5-5.6c2.4-0.4,2.6-1.5,1.8-3.5c-2.9-7.4-3.4-15.5-1.5-23.2c2.7-11.2,9.7-18.5,21.1-21
			c2.8-0.6,3.5-1.7,3.6-4.4c0.7-11.5,5.8-20.6,16.1-26c12.4-6.6,27.7-2.9,35.7,8.6c0.4,0.6,0.9,1.2,1.3,1.8c2.2,3.5,2.2,3.5,5.7,1.5
			c3.7-2.2,7.7-3.7,12.1-3.2c7,0.8,11.7,4.7,13.9,11.4c2.9,8.9,1.1,17.3-3.4,25.1c-1.9,3.3-2.5,5.8-0.8,9.6
			c2.5,5.5,1.9,11.7,0.5,17.5c-0.5,2.3-0.4,4,1.1,5.9c2.8,3.4,3.2,7.6,3.5,11.7c0.2,3.1,0.1,6.1,0.5,9.2c0.5,3.8-1.4,5.3-5.1,4.4
			c-2.2-0.7-4.4-1.6-6.4-2.8c-3.5-1.6-7-3-10.7-4.1c-1.9-0.6-2.8-0.3-2.4,2c1.3,6.8,1.9,13.7,1.9,20.6c0,2,0.9,2.5,2.8,2.3
			c6.8-0.9,13.2-3.3,18.9-7.2c1.4-0.9,2.6-2.7,4.7-1.6c-1,10.8,1.3,21.3,3.6,31.7c4,17.4,9.9,34.1,15.4,51
			C449.7,257.8,455.5,271.7,460.1,286.2z"/>
		<path class="st1" d="M254.8,401.4c-2.2,1.7-4.3,3.4-6.5,5.1c-0.7,0.5-1.3,1.1-1.9,1.7c-0.8,0.8-1.5,1.6-1,2.8c0.6,1.3,1.9,1.3,3,1
			c4.3-0.8,8.5-1.8,12.8-2.6c3.5-0.6,7.1-1.1,10.7-1.5c1.3-0.2,2.4-0.4,2.6,1.7s2,2.7,4.5,2.4s5-0.8,7.5-1.3
			c14.6-3.1,29.7-4,44.6-2.5c1.9,0.2,3.8,0.1,5.7,0.2c1.6,0,3.1,0.3,4.6,0.9c5.9,2.2,12.1,3.7,18.4,4.3c4.7,0.6,9.4,1,14.1,1.5
			c0.1,2,0.5,2.9,3,2.3c5.4-1.2,10.7,0.3,16,1.7c1.5,0.4,3.1,0.9,4.6,1.4c3.7,1.6,8,1.4,11.4-0.7c5.8-3.2,12.4-2.4,18.7-1.8
			c6.3,0.7,12.6,2.1,18.6,4.1c3.8,1.2,4.7,1,7-2.2c3.4-4.6,8.3-7.1,12.9-10.1c0.4-0.3,1-0.3,1.5,0c2.9,0.6,5.9,0.7,8.8,0.1
			c2.5-0.5,5-0.1,7.6-0.2c1.8,0.1,3.6,0,5.3-0.5c1-0.3,2.1-0.1,3,0.5c1.6,1.6,3.9,2,5.5,3.7c2.4,2.7,2.3,5.4-0.6,7.5
			c-2.2,1.6-4.6,2.7-7.1,3.4c-7,2-14,4.1-21.1,5.9c-6.1,1.4-12.2,2.3-18.5,2.5c-8.3,0.4-16.5,0.8-24.8,0.4c-5.1-0.1-10.1-0.4-15.2-1
			c-3.3-0.5-6.7-0.7-10.1-0.8c-10.9-0.1-21.9,0.1-32.8-0.1c-4.6-0.1-9.3-0.4-13.9-1c-2.9-0.4-5.9-0.6-8.8-0.6
			c-4.2-0.2-8.5-0.6-12.6-1c-5.5-0.5-11-0.3-16.5-0.5c-3.8,0-7.6,0.4-11.3,1.1c-3.5,0.5-6.9,0.8-10.4,0.8c-9.6,0.1-19.3,0.1-29,0
			c-2.9,0-5.7-0.3-8.5-0.8c-1.7-0.3-3.3-0.4-5-0.4c-4.6,0-9-0.9-13.6-1.1c-5.2-0.3-10.3-1.1-15.4-1.6c-6.4-0.5-12.8-0.8-19.2-1.6
			c-3.3-0.4-6.7-0.7-10.1-0.9s-6.9-0.7-10.4-1c-1.5-0.1-3-0.2-4.4-0.2c-7-0.2-13.9-1.1-20.7-2.6c-1.3-0.3-2.7-0.7-3.9-1.2
			c-3.5-1.4-4-4.1-1.2-6.5c2.5-2.2,5.8-2.9,8.9-4.1c1.2-0.5,2.5-0.6,2.8-2.2c1.6,0.3,1.3,1.7,1.5,2.8c0.6,3.3,1.9,6.5,3.8,9.3
			c-0.6-3.1-1.8-5.3-2.3-7.8c-0.3-1.4-1.1-2.8,0.1-4.2c3.3,0.3,6.4-1,9.6-1.4c0.7-0.1,1-0.7,1.3-1.2c1.4,0.2,1.2,1.5,1.6,2.4
			c0.5,1.1,0.6,2.5,1.9,3.1c0.5-1.9-1.9-3.5-0.5-5.4c3,0.3,5.9-0.6,8.8-0.8c4.4-0.4,8.8-0.9,13.2-1.1c13.5-0.7,27.1-0.5,40.6-0.6
			C247.7,400.6,251.2,401.6,254.8,401.4z"/>
		<path class="st0" d="M426.1,160.6c-1.8,0.2-3.1,1.4-4.4,2.3c-6.8,4.8-14.4,7.1-22.9,7.7c0.3-9.3-0.6-18.6-2.5-27.7
			c2.7,0.3,5.4,1,8,2c3.6,1.3,7.1,2.8,10.5,4.6c1.3,0.9,2.9,1.4,4.5,1.5c1.8,0,2.8-0.7,2.5-2.5c-0.8-5.5-0.2-11.1-1.4-16.5
			c-0.5-2.6-1.8-5.1-3.8-6.9c-0.9-0.7-1.2-2-0.7-3c1.3-3.7,1.9-7.6,1.7-11.6c0-3.8-1-7.6-3-10.9c-0.8-1-0.8-2.4,0.1-3.3
			c4-5.5,6.4-12.1,6.8-18.9c0.2-2.9-0.2-5.7-1-8.5c-2.8-9.2-10.8-13.4-20-10.6c-1.7,0.5-3.4,1.3-4.9,2.2c-1.4,0.9-2.8,1.9-4.2,2.8
			c-0.9-0.3-1-1.2-1.3-1.8c-5.9-11.3-17-17.3-28.8-15.6s-21.2,11.1-23.7,23.2c-0.6,2.6-0.8,5.3-0.6,7.9c0.1,1.3-0.2,1.8-1.7,2
			c-12.7,1-22.3,11.1-23.8,25c-0.8,7.4,0.5,14.9,3.6,21.6c-0.4,0.9-1.3,0.8-1.9,1c-7.3,1.2-14.5,3.3-21.2,6.3
			c-0.9,0.6-2.1,0.4-2.8-0.4c-1.1-1-2.2-2-3.1-3.1c-0.4-0.7-1-1.1-1.8-1.2c3.5-4.8,6.9-9.6,10.3-14.4c8.3-11.7,15.2-24.3,22.1-36.8
			c5-9.1,10-18.3,16.7-26.3c8.2-10,17.9-17.8,30.5-21.5c8.8-2.6,17.6-1.9,26.2,1.1c6.5,2.3,12.6,5.7,18,10c3.9,3.3,7.1,7.3,9.5,11.9
			c4.6,8.2,8,17.1,10.1,26.3c0.9,4.2,1.5,8.6,1.6,12.9c0.4,8.9,0.4,17.8,0,26.8c-0.2,5.5-1,11-1.5,16.4c-0.3,3.7-0.8,7.4-0.9,11.1
			C426.9,150.7,426.6,155.7,426.1,160.6z"/>
		<path class="st0" d="M206.3,198.7c0.4,0.6,0.6,1.4,0.6,2.1c0.9,12.5,1.1,25.1,0.5,37.7c-0.2,4.2-1,8.4-2.3,12.4
			c-1.2-1.8-3.3-1.5-4.9-1.6c-4.4-0.3-8.8-1.1-13.3-0.8c-10.7,0.9-21.5,1.2-32.1,3.3c-0.3,0.1-0.6,0.3-0.8,0.4
			c-1.5,0.5-3.3,0-4.7,1.2c-4.1,1.2-8.3,2.4-12.3,4c-4.5,1.7-7.2-0.7-6.4-5.5c0.4-2.1,1.1-4.1,1.4-6.1c0.6-1.1,1.4-2,2.4-2.8
			c2.3-2.2,3.9-5,5.9-7.4c9.3-11.2,20.7-20.5,33.6-27.2c6.9-3.7,14.4-5.4,22-7C199.4,200.8,202.9,199.9,206.3,198.7z"/>
		<path d="M149.6,253c0-0.8,0.2-1.4,1.2-1.4c1.1,0,2.2,0.2,3.3,0.7c4.6,3.5,9.7,6.4,14.6,9.6c8.8,5.5,17.4,11.4,25.8,17.5
			c3.8,2.8,3.7,2.8,0.5,6.3c-2.4,2.6-4.7,5.2-6.9,8c-10.6,14-21.3,27.8-32.3,41.5c-8.5,10.7-15.7,22.1-20.6,35
			c-3.6,9.3-5.2,19.3-4.6,29.3c0.2,2.3,0.6,4.6,1.1,6.9c0.7,3.3,0,4-3.2,3.1c-37-10.2-73.9-20.5-110-33.7c-3.9-1.4-7.8-2.8-11.7-4.1
			c-1.8-0.7-3.5-1.6-5-2.8c-1.8-1.3-2.1-2.9-1.9-5c1.9-15.6,6.3-30.8,13-45c7.4-15.9,15.5-31.4,26.3-45.3
			c8.6-11.2,18.2-21.6,28.5-31.2c5.2-4.8,10.2-9.6,15.5-14.2c1.2-1.1,2.8-1.4,4.3-0.8c15.9,4.2,31.5,9.5,46.6,15.8
			c-0.1,1.3-0.5,2.3-2,2.3c-1.5,0.5-2.7-0.3-3.9-0.8c-12.9-5.2-26.1-9.6-39.4-13.5c-2.2-0.6-3.7-0.1-5.4,1.3
			c-6,4.9-10.8,11-16.9,15.7c0.3,1.2,1.2,1.1,1.9,1.3c23.3,7.5,46.1,16.6,68.2,27.2c13.5,6.5,26.5,13.9,38.8,22.4
			c1.7,1.2,2.8,1.4,4.2-0.5c3.7-5,7.7-9.9,11.9-14.5c1.5-1.6,0.1-2.2-0.9-2.9c-7.8-5.6-15.8-11.1-24-16.1
			c-5.1-3.2-10.1-6.6-15.3-9.7C150.6,254.7,149.6,254.3,149.6,253z"/>
		<path class="st2" d="M214.1,59.2l-5.1,6.1c-0.4,0.5-0.8,1-1.3,1.4c-0.4,0.4-1,0.5-1.5,0.2c-0.5-0.3-0.6-0.9-0.4-1.4
			c0.4-0.7,0.8-1.3,1.3-1.8c3.2-3.8,6.4-7.6,9.3-11.7c0.5-0.8,1.4-1.3,2.4-1.2c1.1,0.1,1.1,1,1.3,1.9c1.3,5.5,2.6,10.9,4,16.4
			c0.3,1,0.9,2.3-0.6,2.7s-1.7-1-1.9-2c-0.8-3.3-1.6-6.6-2.3-9.9c-0.1-0.6-0.2-1.3-1-1.6c-3.4,16.9-7.2,33.6-8.7,50.7
			c-0.2,2.6-0.7,5.3-1.1,7.9c-0.1,0.7-0.3,1.4-0.6,2.1c-0.9,2-2.5,2.2-3.9,0.4c-0.7-0.9-1.3-1.9-1.8-3c-2.3-4.6-4.4-9.2-6.7-13.7
			c-1.5-3.4-3.5-6.5-5.8-9.3c-0.6,1-0.9,2.2-1.1,3.4c-3.1,16.1-6.3,32.2-8.9,48.5c-0.5,3.1-1.2,6.2-1.8,9.4
			c-0.1,0.8-0.5,1.5-1.3,1.5c-1.1-0.1-1.3-1-1.2-1.9c0.6-3.1,1.3-6.2,1.8-9.4c2.4-16.5,5.7-32.8,8.9-49.1c0.2-1.2,0.5-2.3,0.9-3.4
			c1-2.6,2.7-2.9,4.6-1c1.2,1.3,2.2,2.6,3,4.1c3.2,5.1,5.6,10.7,8.2,16.1c0.7,1.8,1.7,3.5,2.8,5.1c1.1-2.7,1.1-5.4,1.3-8
			c1.4-15.3,4.5-30.4,7.6-45.5c0.2-0.8,0.3-1.7,0.4-2.5C214.9,59.9,215.5,59,214.1,59.2z"/>
		<path class="st3" d="M103.1,167.4c-0.2,0.6-0.5,1.5-0.8,2.2c-2.9,7.3-7.1,13.9-11.5,20.4c-7.1,10.5-16,19.6-26.4,26.8
			c-2.5,1.8-5.2,3.3-8,4.5c-0.8,0.3-1.6,0.5-2.4,0.6c-0.6,0-1-0.4-1.1-0.9c-0.1-0.4,0.1-0.9,0.5-1.1c0.3-0.2,0.5-0.3,0.8-0.4
			c10.4-4.4,18.5-11.9,25.8-20.2c8-9.1,14.9-19,19.7-30.3c0.4-0.9,0.8-1.7,1.3-2.5c0.3-0.5,0.9-0.6,1.4-0.4
			C102.8,166.5,103.1,166.8,103.1,167.4z"/>
		<path class="st4" d="M167.5,405.8c0.2,3.1,1,6,2.2,8.9c0.3,0.7,0.6,1.3,0.8,2c0.2,0.5-0.1,1.1-0.5,1.3c-0.5,0.3-1.1,0.2-1.4-0.2
			c-0.7-0.9-1.3-1.9-1.7-3c-1.3-2.9-1.6-6.1-2.5-9.1c-0.8-7.1-1-14.3-0.6-21.5c0.1-1.7,0.3-3.4,0.6-5c0.1-0.6,0.3-1.2,0.7-1.7
			c0.3-0.5,0.9-0.6,1.4-0.4c0.4,0.2,0.6,0.6,0.6,1c-0.1,0.7-0.3,1.5-0.4,2.2C165.9,388.8,165.8,397.4,167.5,405.8z"/>
		<path class="st5" d="M266.5,1.9c0-0.9,0-1.9,1.2-1.9c1-0.1,1.1,0.8,1.3,1.5c3.1,11.5,6.1,22.9,9.7,34.2c0.2,0.5,0.3,1,0.3,1.5
			c0.1,0.6-0.3,1.1-0.8,1.2c-0.5,0.2-1.1-0.1-1.3-0.6c-0.6-1.3-1.2-2.7-1.6-4.1c-2-6.8-3.8-13.7-5.7-20.5c-0.8-2.9-1.6-5.7-2.3-8.6
			C266.9,3.8,266.7,2.8,266.5,1.9z"/>
		<path class="st5" d="M464.2,119.3c-0.6-0.1-1-0.5-1-1.1c0-0.4,0.1-0.8,0.3-1.2c3.1-9.4,6.3-18.9,10.6-27.9c0.5-1,1.1-2,1.7-3
			c0.3-0.5,0.9-0.7,1.4-0.4c0,0,0,0,0,0c0.5,0.2,0.8,0.8,0.6,1.3c-0.1,0.5-0.4,1-0.6,1.4c-3.7,8.1-6.9,16.4-9.6,24.9
			c-0.5,1.6-1.2,3.2-1.8,4.8C465.6,118.8,464.9,119.3,464.2,119.3z"/>
		<path class="st6" d="M108.3,182c-0.1,0.4-0.3,0.8-0.5,1.1c-1.8,3.4-3.9,6.7-6.2,9.9c-0.1,0.2-0.3,0.3-0.4,0.5
			c-0.7,0.7-1.6,1.4-2.5,0.6c-1.1-0.9,0-1.6,0.6-2.3c2.1-2.9,4.1-5.9,5.8-9c0.4-0.7,0.9-1.4,1.4-2.1c0.4-0.4,1-0.5,1.4-0.1
			C108.3,180.7,108.4,181.2,108.3,182z"/>
		<path class="st7" d="M181.5,403.3c0.1,1.6,0.9,3,1.4,4.5c0.3,0.9,1.1,1.9-0.1,2.5s-1.9-0.6-2.3-1.5c-0.8-1.8-1.4-3.7-2.1-5.5
			c-0.4-1.6-0.7-3.3-1-4.9c-0.1-0.6-0.2-1.2-0.3-1.9c-0.1-0.9,0.1-1.8,1.2-1.8c0.9,0,1.1,0.7,1.3,1.5
			C179.9,398.5,180.5,401,181.5,403.3z"/>
		<path class="st8" d="M284.3,48.9c1.8,0.2,3.1,1.7,3,3.5c0,1.6-1.2,2.8-2.8,2.9c-1.6-0.2-2.8-1.7-2.7-3.3
			C281.8,50.1,282.8,48.8,284.3,48.9z"/>
		<path class="st9" d="M462.6,134.1c-0.1,1.8-1.5,3.3-2.9,3.2c-1.3-0.2-2.3-1.4-2.2-2.7c0-1.7,1.3-3,2.9-3.1c0,0,0,0,0.1,0
			C461.9,131.7,462.6,132.6,462.6,134.1z"/>
		<path class="st10" d="M494.3,409.5l0.6-0.5C494.9,409.3,494.6,409.5,494.3,409.5z"/>
		<path class="st11" d="M317.3,373.8c-0.1,0.8-0.7,1-1.4,0.9c-1-0.2-2-0.8-2.6-1.6c-1.9-1.9-3.5-4-4.7-6.4c-1.4-2.5-2.8-5-4.1-7.5
			c-0.3-0.6-0.5-1.1-0.7-1.7c-0.2-0.6,0.1-1.3,0.7-1.5c0.5-0.2,1,0,1.3,0.4c0.4,0.6,0.8,1.2,1.2,1.9c2.8,5.1,5.3,10.4,9.9,14.3
			C317.1,372.7,317.4,373.3,317.3,373.8z"/>
		<path class="st2" d="M467.7,409.7l-8.5,5.6c-2.2,1.5-4.1,3.4-5.6,5.5c-2.6,3.5-3.2,3.6-7.5,2.2c-8.1-2.8-16.6-4.4-25.2-4.6
			c-5.5,0-10.8,0.7-15.3,4.2c-1.2,0.9-2.4,0.5-3.6,0.1c-3.5-1.1-7.1-2.2-10.6-3.2c-3.6-1-7.2-1.6-11-1.6c-1.8-0.1-3.6,0.2-5.3,0.9
			c-0.9,0.4-1.7,0.5-2.3-0.3s-0.1-1.6,0.5-2.3c0.3-0.3,0.5-0.7,0.7-1.1c12.1-13.5,27.4-19.7,45.2-20.9c15.3-1,29.7,1.9,43.7,7.6
			c1.7,0.7,3.3,1.5,4.9,2.4c2.4,1.4,2.5,2.4,0.7,4.5C468.3,409.1,468,409.4,467.7,409.7z"/>
		<path class="st12" d="M468.5,358.3c0,0.4,0,0.7,0,1.1c-0.1,0.8,0,1.8-1.3,1.8c-1,0-1.2-0.8-1.3-1.5c-1.6-11.1-5.5-21.7-8.2-32.5
			c-0.2-0.9-0.3-1.9-0.4-2.8c0.1-0.6,0.6-1,1.2-1c0.3,0,0.6,0.2,0.8,0.5c0.2,0.3,0.3,0.5,0.4,0.9c2.5,10.3,6.2,20.2,8.3,30.6
			C468.3,356.4,468.4,357.6,468.5,358.3z"/>
		<path class="st10" d="M370.4,297.4c-12.8,1.5-25.6,1-38.5,0.3c-14.8-0.9-29.6-2.8-44.3-4.5c-3.3-0.4-6.5-0.6-9.8-0.9
			c-1.5,0.1-2.8-1-2.9-2.5c0,0,0-0.1,0-0.1c-1.7-10.4-3.5-20.7-4.2-31.2c-0.7-9.8-1.6-19.7-2.2-29.5c-0.6-10.4-1.1-20.8-1.6-31.2
			c-0.3-6.4-0.5-12.7-0.6-19.1c-0.2-4.2,0.3-8.5,1.4-12.6c2.4-8.6,6-16.8,10.8-24.3c1.1-1.8,1.2-1.8,2.8-0.5
			c6,4.8,12.2,9.2,18.8,13.1c11.2,6.9,22.1,14.2,33.3,21.2c1.5,0.8,2.6,2.2,3.1,3.8c0.2,0.7,0.4,1.4,0.7,2.1
			c1.7,2.8,1.1,5.5-0.2,8.3c-4.4,10.1-9.7,19.8-14.4,29.8c-2.6,5.5-5.2,10.9-7.9,16.3c-1.4,2.8-1.8,6-1.1,9
			c1.1,4.9,2.5,9.9,3.8,14.8c0.1,0.5,0.3,1,0.6,1.5c0.9,1.7,1.6,2,3.3,1c2.1-1.2,4-2.8,5.7-4.6c0.8-1.1,1.7-2.2,2.7-3.2
			c3.8-3.6,5.3-8,5.5-13.1c0.4-9.6,2.4-18.9,3.7-28.4c1.1-8.3,2.4-16.6,2.3-25c-0.1-1.2,0.5-2.3,1.5-2.8c2-1.2,3.7-3.1,5.8-3.8
			s4.1,1.2,6.3,1.6c1.8,0.4,3.6,0.6,5.4,0.6c9.2,0,18.5,0.3,27.7-0.7c10.3-1.1,20.7-2.1,30.4-6.3c1.7-0.8,3.5-1.6,5.4-2.4
			c1.1,6.1,2,12.1,3.4,17.9c0.6,2.4,1.1,4.7,1.8,7.1c6.9,25.7,15.5,50.9,24.8,75.8c1.4,3.8,2.6,7.6,4,11.6
			c-11,5.4-22.8,7.2-34.9,10.7c1.1-2,1.9-3.4,2.6-4.8c4.6-8.3,8.5-17.1,11.5-26.2c0.8-3.1,1.4-6.2,1.6-9.4c0-0.3,0-0.7,0-1
			c0-1.2,0-2.7-1.5-2.8s-1.4,1.6-1.4,2.7c0,5.8-1.7,11.3-3.9,16.6c-2.5,6.2-5.3,12.3-8.5,18.1c-1.1,2-1.1,2-3.3,0.9
			c-13.3-6.6-25.8-14.6-38.3-22.7c-1.5-1-1.6-1.8-0.9-3.3c3.9-9,9.1-17.2,14.5-25.4c3.5-5.4,7.2-10.8,10-16.6
			c2.2-4.2,3.4-8.7,3.7-13.4c0.2-5.3,1.8-7.7,8.8-8.7c0.8-0.1,1.7-0.1,2.5-0.2c0.5-0.1,1-0.5,1-1.1c0.1-0.7-0.4-1.1-1.1-1.3
			c-5.9-1.7-13.5,3.3-13.7,9.5c-0.2,7.1-2.9,13.2-6.5,19c-2.4,3.9-4.9,7.7-7.3,11.5c-5.4,8.5-10.9,16.9-14.8,26.3
			c-0.1,0.3-0.4,0.5-0.7,0.8c-1-0.5-2-1.1-3.1-1.5c-1.7-0.7-2.5-0.3-3.1,1.5c-0.2,0.5-0.3,1-0.4,1.5c-1.3,4.9-1.3,4.9,2.9,7.8
			c1.4,2.5,0,4.9-0.2,7.4c-0.2,3.5-0.7,6.9-0.9,10.4C372,294.6,371.8,296.3,370.4,297.4z"/>
		<path class="st0" d="M412.9,122.4c-8.3-5-17-8.4-23.6-15.4c-1-1.1-2.2-2-3.4-2.9c-5.4-4-11.4-3.3-15.8,1.8
			c-1.2,1.4-2.2,2.9-3.2,4.4c-1.1,1.6-2.3,2.7-4.4,2.4c-1.5-0.3-3.1,0.4-3.9,1.7c-0.8,1.3-1.9,1.5-3.2,1.7c-2.9,0.5-5.9,0.5-8.9,0.2
			c-6.9-0.9-12.7,1.4-17.9,5.7c-0.6,0.5-1.1,1-1.5,1.6c-1.5,2.1-1.4,3.8,0.8,5.1c2.9,2,5.3,4.6,7.1,7.6c4.3,6.7,9.6,12.7,15.7,17.9
			c7.3,6,15.5,9,25,8.1c1.6-0.1,3.2,0,4.8-0.3c2.7-0.4,3.3-1.6,2-3.9c-2.2-4.5-3.9-9.2-5.1-14c-0.5-1.9-0.5-3.9-0.2-5.9
			c5,1.6,10.1,2.8,15.2,3.7c1.1,0.2,1.3,0.9,1.4,1.8c0.5,3,1.1,6.1,1.4,9.1c0.6,5.2,0.8,10.4,0.6,15.6c-0.2,2.6-0.2,2.7-2.8,2.8
			c-7.6,0.4-15.3,0.3-22.9,0.2c-6.4,0-12.7-0.6-19-1.8c-2.4-0.5-4.7-1.3-6.8-2.6c-13.6-8-27.5-15.6-40.9-23.9
			c-3.5-2.2-6.9-4.6-10.1-7.1c0.3-1.2,1.3-1.2,2-1.5c7-2.6,14-4.9,21.5-5.5c2.4-0.2,2.7-0.9,1.6-3c-3.9-7.8-5.6-16-3.7-24.7
			c2-9.3,7.2-16,16.5-18.8c2-0.7,4.1-1,6.3-0.9c2.3,0.3,2.6,0,2.3-2.3c-0.6-4-0.2-8.1,1-12c2.9-9.1,8.7-15.5,18-18.1
			c9.9-2.8,20.4,1.2,26.5,9.9c1.3,1.9,2.4,4,3.3,6.2c1,2.4,1.8,2.6,3.7,0.9c1.9-1.7,4-3.1,6.3-4.3c10.1-4.7,19.1,0.7,19.8,11.9
			c0.4,6.4-1.2,12.8-4.6,18.3c-0.5,1-1.2,2-1.9,2.9c-1.6,1.8-1.6,3.2-0.3,5.3C416.3,107.4,415.4,114.7,412.9,122.4z"/>
		<path class="st10" d="M263.6,178.7c0,1.2,0,2.5,0,3.7c0.1,12.3,1,24.6,1.6,36.9c0.6,11,1.5,22,2.3,33c0.3,3.6,0.2,3.7-3.4,4.2
			c-3.4,0.4-6.8,0.4-10.2,0.1c-11.4-0.9-22.7-2.8-33.8-5.8c-1.1-0.3-2-0.6-1.6-2.1c1.8-8.2,1.1-16.5,1.5-24.7
			c0.4-6.7,0.1-13.4-0.9-20c-0.2-1.7-0.5-3.3-0.9-5.2c8.2-2,16.6-3.1,24.2-6.6s15.2-7,20.5-14L263.6,178.7z"/>
		<path class="st0" d="M370.4,297.4c0.4-1.6,0.7-3.3,0.9-4.9c0.4-5.7,1-11.5,2-17.1c7.2,4.9,14.6,9.3,22.3,13.3
			c7.1,3.7,14,8,21.3,11.1c0.1,1.2-0.6,1.8-1.1,2.5c-3.1,4.9-6.1,9.9-9.5,14.7c-5.6,8.3-9.8,17.4-12.6,27c-0.9,3.2-2.1,6.2-3.8,9.1
			c-2,3.2-3.5,3.4-5.6,0.2c-3.6-5.8-6.2-12.1-7.8-18.7c-2.7-11-3.8-22.4-3.1-33.8C373.5,297.7,373.5,297.7,370.4,297.4z"/>
		<path class="st13" d="M418.8,148.2c-2.2-0.4-3.6-1.5-5.2-2.3c-7.3-3.5-15-5.9-23-7.1c-12.4-2-23.4-7.4-33.5-14.6
			c-2-1.5-3.9-3.2-5.6-5c1.7-0.1,2.9-0.1,4.1-0.3c1.9-0.3,3.9-0.4,5-2.3c0.6-1,1.5-1,2.5-0.9c2.4,0.2,4.7-1,5.8-3.2
			c0.8-1.3,1.7-2.4,2.5-3.7c1.3-1.8,3.1-3.2,5.2-4c2-0.9,4.3-0.7,6.1,0.5c1.6,0.9,3,2,4.3,3.3c4.4,4.8,9.9,8,15.4,11.1
			c3,1.7,6.1,3.4,9.1,5.1c3.9,2.1,6.4,6.2,6.5,10.6C418.2,139.7,418.5,143.8,418.8,148.2z"/>
		<path class="st0" d="M329.3,405.3c-15.9-1.7-31.5-0.1-47,3.3c-0.7,0.2-1.5,0.3-2.2,0.4c-1.6,0.2-3.1,0.5-3.1-2.1
			c0-1.5-1.6-1.8-2.9-1.8c-3.5,0.1-7,0.4-10.4,1.1c-3.3,0.5-6.7,1.1-10,1.7c-0.8,0.3-1.5,0.4-1.4-0.8c6.1-5,13-8.8,20.4-11.3
			c3.4-1.2,6.9-2.1,10.3-3.1c3-0.7,5.9-1.8,8.6-3.3c0.3-0.3,0.7-0.4,1.1-0.5c5.2-0.4,10.4-0.9,15.1,2.1c3.4,2.1,6.8,4.3,10.2,6.4
			c4.3,2.8,8.7,5.2,13.3,7.4C331.1,406.1,330.1,405.3,329.3,405.3z"/>
		<path class="st13" d="M375.8,159.2c-3.6,1.2-7,0.6-10.4-0.3c-4.7-1.2-9.1-3.5-12.9-6.7c-5.9-4.9-11-10.7-15.1-17.1
			c-2.1-3.1-4.1-6.2-7.4-8.2c-1.2-0.7-0.9-1.5-0.1-2.3c2.9-2.7,6.4-4.6,10.3-5.4c1-0.1,1.9,0.1,2.7,0.7c1.9,1.1,3.6,2.6,5,4.4
			c2.3,2.9,4.4,6,6.4,9.1c1.8,3,3.7,5.9,5.7,8.8C364.3,148.8,368.8,155,375.8,159.2z"/>
		<path class="st10" d="M342.9,169.8c-1.4,1.8-2.6,4.4-4.6,5s-3.9-1.7-5.7-2.9c-15-10-30.6-19-45.4-29.3c-1.6-1.1-3.2-2.4-4.8-3.6
			c-0.9-0.7-1.1-1.4-0.3-2.4c1-1.3,1.9-2.8,3-4.3c5,4.6,10.4,8.8,16.1,12.6c5,3.3,10.1,6.2,15.3,9.2c8.3,4.9,16.7,9.7,25,14.5
			C342,168.9,342.5,169.3,342.9,169.8z"/>
		<path class="st14" d="M422.9,165.6c0.2,6.4,1.1,4.9-4.1,7.5c-6.8,3.4-14.2,4.8-21.7,5.9c-12.1,1.8-24.3,2.1-36.5,2
			c-3.1-0.1-6.1-0.6-9-1.6c-2.4-0.8-3.8-2.2-4-4.7c-0.1-1-0.6-2-0.3-3.1c14.1,3.3,28.2,3.2,42.4,2.6c4.9-0.2,9.7-0.6,14.5-1.3
			c5.3-0.8,10.5-2.6,15.2-5.3C420.6,167,421.6,166.4,422.9,165.6z"/>
		<path class="st15" d="M208.3,195.2c1.8-0.5,3.5-1.8,4.9-1.2s1.1,2.8,1.7,4.2c1.8,5.1,2.2,10.4,2.3,15.7c0.3,9.8-0.1,19.5-0.6,29.3
			c-0.2,2.9-0.8,5.7-1.8,8.4c-0.8,2.1-3.1,3.1-5.1,2.3c-0.6-0.2-1.1-0.5-1.5-1c-0.4-0.4-0.4-1-0.2-1.5c0.3-1.2,0.6-2.5,0.9-3.7
			c1.8-7.4,1.5-15,1.6-22.5c0.1-8.1-0.2-16.1-1-24.1C209.3,199.1,208.9,197.1,208.3,195.2z"/>
		<path class="st10" d="M373.3,267.2c2.4,1.4,4.6,2.6,6.6,3.9c12.2,8.1,24.5,15.9,37.7,22.5c0.7,0.4,1.8,0.5,2,1.4
			c0.1,0.7-0.2,1.5-0.8,2c-0.6,0.7-1.2,0-1.7-0.2c-2.6-1.2-5.2-2.5-7.7-3.8c-12-6.3-23.8-12.9-35.4-20c-1.9-1.2-2-1.5-1.3-3.9
			L373.3,267.2z"/>
		<path class="st15" d="M331.8,243.9c-4.9-2.5-9.9-4-15-5.8c1.4-3,2.8-5.9,4.1-8.9c0.2-0.8,1.1-1.2,1.9-1c0,0,0.1,0,0.1,0
			c3,0.8,5.9,1.8,8.7,3c0.9,0.3,1.5,1.2,1.3,2.2C332.5,236.8,332.2,240.2,331.8,243.9z"/>
		<path class="st10" d="M353.8,125.4c6.1,4.4,12.6,8.2,19.5,11.3c0.9,0.4,1.4,0.8,1.3,1.8c-0.5,5.7,1.6,10.8,3.3,16.1
			c0.2,0.7,0.8,1.3,0.4,2.3c-2.9-1.4-5.6-3.3-7.9-5.6c-0.8-0.8-0.5-1.8-0.5-2.7c0.1-2.8-0.3-5.5-1.3-8.1c-1.6-4.5-5.4-7.9-10.1-8.9
			c-1.9-0.3-3.5-1.5-4.3-3.2c-0.4-0.7-0.9-1.4-1.4-2.1C352.7,125.6,353,125.2,353.8,125.4z"/>
		<path class="st15" d="M320.1,259.5c-1.6-6.5-3.7-12.2-4.2-18.6c4.9,1.4,9.6,3.2,14.1,5.6c0.6,0.4,1.5,0.7,0.8,1.6
			C327.9,252.1,325.1,256.3,320.1,259.5z"/>
		<path class="st10" d="M333.4,228.8c-3.4-1.4-6.9-2.6-10.5-3.5c1.2-2.5,2.4-4.8,3.5-7.2c0.5-1,1.1-1.5,2.2-1.1
			c0.2,0.1,0.4,0.1,0.6,0.1c5.9,1.3,5.9,1.3,4.9,7.2C333.9,225.8,333.7,227.1,333.4,228.8z"/>
		<path class="st10" d="M335.5,215.8c-2.3-0.4-4.6-1-6.9-1.8c1-2.7,2.2-5.2,3.6-7.7c0.9-1.5,2.3-0.4,3.4-0.3s1.1,1,0.9,1.9
			C336.1,210.5,335.8,213,335.5,215.8z"/>
		<path class="st10" d="M340.6,183.1l-0.5-0.7c-1.5-2.5-1.5-4.7,1.1-6.6c1.2-1.1,2.2-2.2,3.1-3.5c1,2.3,0.8,4.6,1.8,6.5
			c0.3,0.6-0.2,0.9-0.6,1.3C344.1,181.2,342.4,182.3,340.6,183.1z"/>
		<path class="st10" d="M366.8,147.1c-3.2-4-6.1-8.2-8.7-12.5C363.4,135.4,367.1,140.4,366.8,147.1z"/>
		<path class="st10" d="M338.2,194.2c-0.3,3-0.5,5.4-0.8,7.7c-0.1,1.6-1.1,1.5-2.3,1.2c-1.3-0.3-0.9-1.2-0.5-1.9
			C335.8,199.1,336.4,196.8,338.2,194.2z"/>
		<path class="st16" d="M350.1,123c-1.1-1.3-2.2-2.5-3.2-3.6c1.2,0.1,1.2,0.1,4.2,3.5C350.9,123.2,350.5,123.3,350.1,123
			C350.1,123,350.1,123,350.1,123z"/>
		<path class="st10" d="M350.1,123l1-0.1c1,0.7,1.9,1.5,2.6,2.5l-1,1C351.7,125.4,350.8,124.3,350.1,123z"/>
		<path class="st0" d="M329.3,405.3c0.6-0.3,1.6,0.2,2-0.7c0.7-0.1,1.1,0.3,1.7,1C331.5,405.9,330.4,406.1,329.3,405.3z"/>
		<path class="st17" d="M252.2,407c0.3,0.6,0.9,0.7,1.4,0.8c-0.6,0.6-1.3,0.5-2,0.7s-0.8-0.1-0.7-0.7L252.2,407z"/>
		<path class="st18" d="M251,407.7c0.1,0.4,0.4,0.6,0.7,0.7c-0.5,0.5-1.1,0.8-1.5,0.3C249.9,408.3,250.4,407.9,251,407.7z"/>
		<path class="st10" d="M149.6,253c7.7,4.9,15.3,9.8,23,14.7c6.6,4.3,13,8.7,19.4,13.3c0.7,0.5,1.3,1,2.2,1.7
			c-5.9,5.9-10.8,12.6-15.8,19c-34.9-24-73.4-39.6-113.2-52.6c0.2-0.4,0.4-0.7,0.6-1c6-5.7,12.1-11.3,18-17.1
			c1.1-1.3,2.9-1.7,4.5-1.1c15,4.2,29.7,9.3,44.1,15.4c0.5,0.7,0.6,1.6,0.2,2.3c-0.6,1.6-1,3.2-1.3,4.9c-0.6,3.7,1.4,5.5,5,4.2
			s6.9-2.6,10.5-3.5C147.6,253.1,148.6,252.9,149.6,253z"/>
		<path class="st10" d="M176.6,304.3c-5.4,6.9-10.6,13.6-15.9,20.2c-8.1,10.1-16.1,20.3-22.1,31.8c-4.2,8.1-7.9,16.5-9.4,25.5
			c-1.3,7.7-1.9,15.4-0.4,23.1c0.1,0.4,0,0.8,0.1,1.5c-3.3-0.6-6.6-1.5-9.9-2.5c-32.9-9.3-65.8-18.6-98-30.3c-4-1.5-8-2.6-12-4
			c-5.9-2.1-6.5-3.1-5.5-9.4c2.3-14.5,6.7-28.5,12.9-41.8c7.7-16.4,16.2-32.2,27.7-46.3c5.5-6.8,11.2-13.3,17.3-19.6
			c0.9-0.9,1.6-1.6,3.2-1c22,7.6,43.9,15.6,65,25.6c14.1,6.6,27.8,14.2,40.9,22.6c1.6,1,3.1,2.2,4.7,3.3
			C175.5,303.3,175.9,303.7,176.6,304.3z"/>
		<path class="st0" d="M466.3,406.9c-2,1.7-4.2,3.3-6.5,4.6c-3.4,2-6.4,4.7-8.6,7.9c-1.1,1.7-2.2,1.8-4,1.1
			c-7.3-2.6-14.9-4.2-22.7-4.8c-4.4-0.4-8.8-0.1-13,1c-1.4,0.4-3.1,0.6-4.1,1.5c-2.9,2.6-5.7,1.6-8.8,0.6c-6.6-2.2-13.3-4-20.4-3.6
			c-0.1-1,0.6-1.3,1-1.7c8.5-8,19.1-13.3,30.6-15.3c18.6-3.4,36.3-0.6,53.5,6.8C464.4,405.4,465.5,406,466.3,406.9z"/>
		<path class="st4" d="M271.4,194.7c0.6-11.5,1.2-23.1,4.3-34.3c0.3-1.2,0.3-3.1,2-2.6s0.7,2.2,0.5,3.3c-2.4,9.1-3,18.4-3.6,27.7
			c-0.2,3.6-0.3,7.2-0.4,10.8c0,0.4-0.1,0.8-0.1,1.3c-0.1,0.5-0.5,0.9-1,1c-0.7,0.1-1.3-0.4-1.3-1c0,0,0,0,0,0
			c-0.1-1.4-0.1-2.8-0.1-4.1C271.4,196,271.4,195.4,271.4,194.7z"/>
		<path class="st19" d="M279.7,258.5c0.1,1.1,0.1,1.6,0.1,2c0,0.6-0.1,1.3-0.9,1.5c-0.7,0.2-1.4-0.3-1.6-1c0-0.1,0-0.1,0-0.2
			c-0.3-1.5-0.5-2.9-0.7-4.4c-0.8-7.1-1.6-14.1-2.4-21.1c-0.1-0.6-0.1-1.3-0.1-1.9c0-0.8,0.2-1.5,1.1-1.6s1.3,0.5,1.4,1.4
			c0,0.1,0,0.2,0,0.3C277.6,241.9,278.7,250.5,279.7,258.5z"/>
		<path class="st2" d="M377.3,83.6c0,5.3-2.2,10.3-6.1,13.8c-1,1-2.2,1.7-3.4,2.3c-4.1,1.7-7.7,0-9.1-4.1c-0.8-2.4-0.8-5-0.2-7.5
			c0.9-4.4,3.2-8.4,6.8-11.2c2.5-1.9,5.3-2.9,8.3-1.4c2.8,1.4,3.8,4.1,3.8,7.2V83.6z"/>
		<path class="st2" d="M403.3,92.1c-0.2,4.5-1.5,8.4-4.6,11.4c-4.7,4.6-10.5,3-12.1-3.3c-1.3-5.5,0.2-10.3,3.9-14.4
			c2-2.3,4.6-3.7,7.7-2.7c2.9,0.9,4.3,3.3,4.9,6.2C403.1,90.2,403.2,91.2,403.3,92.1z"/>
		<path class="st20" d="M378.9,96.9c1.6,0,3.1,0.6,4.4,1.5c0.7,0.5,1,1.1,0.6,1.9c-0.4,0.6-1.1,0.7-1.7,0.4c-1.5-1-3.4-1.4-5.1-0.9
			c-0.5,0.2-1-0.3-1.2-0.9c-0.2-0.5,0.1-1.1,0.6-1.3C377.2,97.1,378.1,96.8,378.9,96.9z"/>
		<path class="st21" d="M413.4,134c0,1.3-0.3,2-1.1,2.1c-0.6,0.1-1.2-0.4-1.3-1c0,0,0,0,0-0.1c-0.3-1.3-1.1-2.5-2.1-3.5
			c-0.5-0.4-0.5-1.1-0.2-1.5c0-0.1,0.1-0.1,0.2-0.2c0.5-0.5,1.2-0.6,1.7-0.1C412,130.8,413,132.3,413.4,134z"/>
		<path class="st22" d="M289.8,395.2c1.2-0.1,1.9,0.1,2.1,0.8c0.2,0.6-0.1,1.3-0.7,1.5c0,0-0.1,0-0.1,0c-2.6,0.8-5.2,1.8-7.7,3
			c-0.5,0.3-1.1,0.1-1.4-0.4c-0.4-0.5-0.4-1.2,0.1-1.6c0,0,0.1,0,0.1-0.1c0.9-0.8,1.9-1.3,3.1-1.6
			C286.9,396.2,288.6,395.6,289.8,395.2z"/>
		<path class="st23" d="M101.5,319.5c2.3,1.3,4.1,3.1,5.9,3.2s3-2.4,4.3-3.9c6.5-7.2,14-13.3,21.8-19c2.4-1.8,4.9-3.4,7.5-4.8
			c1.5-0.9,3.3-0.9,4.8,0c4.2,2.4,8.2,5.2,12,8.3c2.5,2.1,2.4,3.7-0.2,5.6c-2.4,1.9-5,3.5-7.5,5.3c-6.6,4.5-13,9.5-19,14.8
			c-2.3,2-4.3,4.4-6.5,6.7c0.1,0.7,1.1,1,1.4,1.8c0.4,0.6,0.3,1.3-0.2,1.7c-0.4,0.4-1,0.4-1.5,0c-0.5-0.3-0.9-0.6-1.3-1
			c-18.3-15.5-39.2-26.3-61.4-34.8c-4.5-1.7-9.2-3.4-13.8-4.7c-0.7-0.2-1.4-0.4-2.1-0.6c-0.9-0.3-2-0.6-1.7-1.9s1.5-0.9,2.4-0.6
			c1.4,0.5,2.2-0.2,3.1-1c2.6-2.4,5.2-4.7,7.7-7.1c1.3-1.5,3.5-1.8,5.2-0.8c2.6,1.5,5.3,2.7,8.1,3.5c1.9,0.5,2.1,1.7,0.6,3.2
			c-2.1,2-4.2,3.9-6.3,5.9c-0.5,0.4-1,0.8-1.4,1.3c0,0.4,0.1,0.5,0.3,0.6c3.6,1.6,3.7,1.6,6.2-1.5c3.9-4.9,8.3-9.4,13-13.5
			c3.5-2.9,4.2-3,8.2-0.7c1.7,0.9,3.4,1.7,5.1,2.7c1.8,1.1,2.1,2.2,0.9,4c-1.4,1.9-2.9,3.6-4.6,5.3L82,308.4
			c0.2,0.4,0.3,0.6,0.4,0.7c3.6,2.1,3.6,2.1,6.3-1.1c6.9-8.1,13.9-16,22.3-22.6c3-2.4,3.2-2.5,6.4-0.6s6.4,3.7,9.6,5.7
			c2.8,1.7,2.9,2.8,0.6,5.2c-5.4,5.7-11.1,11.1-17.2,16.1C107.6,314.2,104.7,316.8,101.5,319.5z"/>
		<path class="st24" d="M10.6,352.7c0.2-1.7,0.6-3.3,1.2-4.9c2-6.4,4.7-12.5,8-18.3c2.3-4.2,4.6-8.3,6.6-12.7c0.2-0.5,0.5-1,0.8-1.4
			c0.3-0.5,0.9-0.7,1.4-0.5c0.5,0.2,0.8,0.7,0.7,1.3c-0.2,0.8-0.5,1.6-0.8,2.4c-1.9,3.8-3.8,7.6-5.7,11.4
			c-3.5,6.8-6.9,13.6-8.8,21.1c-0.8,2.9-0.8,2.9,2.2,3.5c10.7,1.8,21.3,3.6,31.7,6.9c15.6,5,31.3,10,46.8,15.5
			c1.3,0.5,2.6,0.9,3.9,1.4c0.8,0.3,1.3,0.8,1,1.7c-0.2,0.7-1,1.1-1.7,0.9c0,0-0.1,0-0.1-0.1c-1.4-0.4-2.8-0.9-4.2-1.3
			c-16.7-5.8-33.5-11.4-50.4-16.5c-8.6-2.4-17.3-4.3-26.1-5.5c-1.2-0.2-2.3-0.4-3.4-0.7C11.1,356.1,10.5,355,10.6,352.7z"/>
		<path class="st2" d="M94.2,341.5c-7.6,3.4-14.7,7.7-21.2,12.8c-1.2,1-2.6,1.9-3.9,2.7c-1.8,1-3,0.5-3.6-1.5c-1-3.1-0.8-6.3-1-9.5
			c-0.1-1.8,0-3.6,0-5.5c-1.5,0.1-2.3,1.1-3,1.8c-2.9,2.8-5.8,5.6-8.7,8.4c-1.2,1.3-2.7,2.5-4.3,3.3c-2.2,1-3.6,0.1-3.2-2.3
			c0.4-2.3,0.8-4.6,1.5-6.8c0.4-1.5,0.6-3.1,0.6-4.7c-1.3-0.2-2,0.6-2.8,1c-4.2,2.2-8.5,4.4-12.7,6.6c-0.6,0.3-1.2,0.5-1.8,0.7
			c-0.5,0.2-1.1-0.1-1.4-0.5c-0.3-0.6-0.1-1.3,0.5-1.6c0.2-0.1,0.4-0.2,0.6-0.3c5.5-2.8,10.9-5.7,16.3-8.7c2.3-1.3,3.9-0.4,4.2,2.4
			c0.1,2.1-0.2,4.2-0.8,6.3c-0.3,1.4-1.1,2.7-0.7,4.7c1.8-1.7,3.4-3.2,5-4.8c2.4-2.5,5-4.9,7.7-7.2c0.6-0.5,1.3-1,2.1-1.5
			c2.1-1.1,3.6-0.3,3.7,2.1c0.2,3.6,0.3,7.2,0.5,10.8c0.1,1.3-0.1,2.8,1,4.2c7.8-6.4,16.3-11.8,25.4-16.4c-0.8-0.1-1.5-0.3-2.3-0.5
			c-0.7-0.2-1.1-0.8-0.9-1.5c0.1-0.5,0.5-0.9,1.1-1c2.6-0.2,5.3,0,7.9,0.5c1.5,0.3,1.6,1.7,1.1,2.8c-1.5,2.9-3.2,5.7-5.1,8.4
			c-0.4,0.6-1.2,0.8-1.8,0.4c-0.6-0.4-0.8-1.2-0.4-1.8l0,0c0.5-1,1.1-2,1.7-3.1c0-0.3,0.1-0.6,0.3-0.8v-0.3l-0.3,0.1
			C94.8,341.2,94.5,341.3,94.2,341.5z"/>
		<path class="st25" d="M108.9,348.2c-1.3-0.5-2.7-0.9-4.1-1c-0.6,0-1.1-0.4-1.1-1c0-0.1,0-0.1,0-0.2c-0.1-0.7,0.4-1.3,1.1-1.3
			c0.1,0,0.2,0,0.3,0c1,0.1,2.1,0.3,3.1,0.6c1.4,0.4,2.5,0.4,3-1.3c0.1-0.4,0.3-0.8,0.5-1.2c0.2-0.6,0.9-1,1.6-0.8
			c0.9,0.3,1,1.1,0.8,1.8s-0.5,1.4-0.8,2c0.6,1,1.8,0.6,2.5,1.1c0.6,0.4,0.9,0.9,0.7,1.6c-0.2,0.5-0.7,0.8-1.2,0.9
			c-0.1,0-0.2,0-0.3,0c-3-1.4-4.2,0.3-4.9,2.9c-0.2,0.7-0.8,1.4-1.7,1c-1-0.4-1-1.3-0.7-2.1S108.5,349.3,108.9,348.2z"/>
		<path class="st26" d="M27.5,334.5c1.1,0.3,2.3,0.5,3.5,0.9c0.6,0.2,1,0.8,0.8,1.4c0,0,0,0,0,0.1c-0.1,0.5-0.6,0.9-1.2,0.8
			c-1.4,0-2.7-0.3-4-0.8c-0.7-0.2-1.3-0.8-1.1-1.6S26.6,334.4,27.5,334.5z"/>
		<path class="st27" d="M95.6,341.6c-0.1,0.3-0.2,0.6-0.6,0.6c-0.3-0.2-0.6-0.5-0.8-0.7c0.3-0.5,0.8-0.7,1.3-0.7
			C95.8,340.9,95.8,341.3,95.6,341.6z"/>
		<path class="st28" d="M410.2,403.8c0.8,0,1.6,0,1.8,0.9s-0.6,1.3-1.3,1.5c-2,0.7-4,1.3-6,2c-2.5,0.9-4.9,2-7.1,3.5
			c-0.8,0.5-1.6,0.9-2.2-0.1s0.1-1.6,0.8-2.1c2.9-1.8,5.9-3.3,9.1-4.4C406.9,404.5,408.5,404.1,410.2,403.8z"/>
		<path class="st10" d="M368.8,94.2c0.1-1.4,0-2.7-0.5-4.1c-1-2.7-2.6-4.6-6.3-4.3c1.5-3.6,3.5-6.4,6.9-7.9c2.1-0.9,4,0,5,2.1
			c0.8,1.8,0.9,3.7,0.5,5.6c-0.5,3.6-2.2,6.9-4.9,9.4C368.9,95.1,368.6,94.9,368.8,94.2z"/>
		<path class="st29" d="M368.8,94.2l0.8,0.8c-0.3,0.5-0.6,1.3-1.3,0.8S368.3,94.7,368.8,94.2z"/>
		<path class="st10" d="M396.4,101.6c-0.2-1.7-0.7-3.3-1.4-4.8c-0.9-1.7-2.1-3.2-4.3-3.3c-1.4,0-1.2-0.7-0.8-1.6
			c0.7-2.1,2.1-3.9,3.9-5.3c2.5-1.7,5-1,6.1,1.8C401.6,92.5,400.1,98.4,396.4,101.6z"/>
		<path class="st30" d="M156.8,306.1c-2.6,1.8-4.8,3.4-7.1,5c-9.3,6.5-18.5,13.2-26.4,21.4c-0.7,0.7-1.2,1.5-2.3,0.5
			c-3.6-2.8-7.2-5.5-10.8-8.3c-0.1-0.5,0.1-0.9,0.5-1.2c7.9-8.5,16.7-16.1,26.1-22.7c6.3-4.5,6.3-4.5,12.9-0.2
			C152.3,302.2,154.6,304.1,156.8,306.1z"/>
		<path class="st31" d="M88.5,312.3c1.7-2,3.1-3.6,4.6-5.3c5.8-6.9,12.3-13.2,19.2-19c1.4-1.2,2.5-1.6,4.2-0.5c3,2,6.2,3.7,9.3,5.5
			c0,1.1-0.9,1.5-1.4,2.1c-7.3,7.9-15.7,14.6-23.8,21.6c-1.1,1-1.9,1.3-3.3,0.5C94.5,315.5,91.7,314.1,88.5,312.3z"/>
		<path class="st30" d="M70.1,303.8c4.6-5.5,9.1-10.6,14.3-14.9c3.2-2.7,2.9-2.2,5.7-0.6c1.5,0.8,3,1.6,4.6,2.5
			c-0.8,1.5-1.9,2.8-3.2,3.9c-3.7,3.9-7.4,7.8-11.2,11.7c-0.7,0.7-1.2,1.3-2.4,0.8C75.4,306,72.9,305,70.1,303.8z"/>
		<path class="st32" d="M67.5,292.6l-6.8,6.9c-0.4,0.4-0.9,0.5-1.4,0.3c-2.7-0.9-5.3-1.8-8.3-2.8c2.7-2.9,5.5-5,8.1-7.5
			c0.6-0.5,1.4-0.5,2.1-0.1L67.5,292.6z"/>
		<path class="st33" d="M95.6,341.6c0-0.3-0.1-0.6-0.1-0.8s0.4-0.4,0.5-0.2C96.3,341,96.1,341.4,95.6,341.6z"/>
	</g>
</g>
</svg>
