<?xml version="1.0" encoding="utf-8"?>
<!-- Generator: Adobe Illustrator 23.0.2, SVG Export Plug-In . SVG Version: 6.00 Build 0)  -->
<svg version="1.1" id="Layer_1" xmlns="http://www.w3.org/2000/svg" xmlns:xlink="http://www.w3.org/1999/xlink" x="0px" y="0px"
	 viewBox="0 0 502.7 412.2" style="enable-background:new 0 0 502.7 412.2;" xml:space="preserve">
<style type="text/css">
	.st0{fill:#E1F0FF;}
	.st1{fill:#38A1FC;}
	.st2{fill:#1E2319;}
	.st3{fill:#010101;}
	.st4{fill:#020202;}
	.st5{fill:#030303;}
	.st6{fill:#040404;}
	.st7{fill:#4C8EE1;}
	.st8{fill:#050505;}
	.st9{fill:#070707;}
	.st10{fill:#090909;}
	.st11{fill:#060606;}
	.st12{fill:#101010;}
	.st13{fill:#121212;}
	.st14{fill:#0D0D0D;}
	.st15{fill:#818181;}
	.st16{fill:#949494;}
	.st17{fill:#B6C5D7;}
	.st18{fill:#000101;}
	.st19{fill:#000001;}
	.st20{fill:#4B8EE2;}
	.st21{fill:#010203;}
	.st22{fill:#020204;}
	.st23{fill:#010304;}
	.st24{fill:#030508;}
	.st25{fill:#3A6CAC;}
	.st26{fill:#FFD574;}
	.st27{fill:#FFFFFF;}
	.st28{fill:#4481CE;}
	.st29{fill:#BED6F4;}
	.st30{fill:#476285;}
	.st31{fill:#1E242B;}
	.st32{fill:#294E7D;}
	.st33{fill:#4077BE;}
	.st34{fill:#3868A6;}
	.st35{fill:#35629D;}
	.st36{fill:#7C7C7C;}
	.st37{fill:#152941;}
	.st38{fill:#355D8F;}
	.st39{fill:#FEFEFE;}
	.st40{fill:#8D8D8D;}
	.st41{fill:#414141;}
	.st42{fill:#A1A1A1;}
	.st43{fill:#A3A3A3;}
	.st44{fill:#515151;}
	.st45{fill:#4A4A4A;}
	.st46{fill:#284B76;}
	.st47{fill:#4B8FE1;}
</style>
<title>Asset 237</title>
<g>
	<g id="Layer_1-2">
		<path class="st0" d="M28.3,305.3c-6.6,2.3-18.3,6.7-24.5,17.9c-8.3,15.1-0.6,32.3,0,33.8c7.8,16.9,25.2,22.9,36.1,26.6
			c5.5,1.9,43.8,14.3,76.1-4.1c10.5-6,16.3-12.9,28.5-13.4c11.7-0.5,20,5.2,26.8,9.1c27.3,15.5,60.5,17.7,82.6,13.4
			c7.9-1.5,38.2-7.5,49.8-31.9c4.3-9.2,5.5-19.6,3.6-29.5c-3.7-17.9-17.3-27.8-26.3-34.3c-23.8-17.4-49.7-17.7-58.1-17.5
			c-21.4,0.6-28.3,7.9-50.8,14.8C117.5,306.7,81.2,287.4,28.3,305.3z"/>
		<path class="st0" d="M360.6,302.7c-5.4,5.8-2.1,10.2-7.7,15.3c-10.5,9.5-25.2-3-38.8,4.6c-13.1,7.3-19.5,29.8-11.7,43.1
			c3.6,6.1,9.3,8.8,12.3,10.2c21,9.7,45.4-4.3,47-0.7c1.3,2.8-14.8,8.3-14.8,15.4c0.1,17,91.7,31.6,134.2,12.7
			c12.8-5.7,17.1-12.7,18.8-16.2c6.9-14.2-1-29.6-1.8-30.9c-2.2-4.1-5.5-10.4-12.3-13c-10.5-4-16.8,5.7-25.3,2.5
			c-9.9-3.8-6-18.9-17.8-31.2c-6-6.3-13.5-8.3-28.5-12.3C397.1,297.5,371.7,290.8,360.6,302.7z"/>
		<path class="st1" d="M469.9,378.9c-2.1-2.8-4-5.6-4.7-9c-0.3-1-0.1-2.1,0.7-2.8c0.9-0.7,1.9-0.3,2.8,0.1c0.7,0.4,1.3,1.1,2.2,0.9
			c-0.4-1.9-1.3-3.6-2.5-5.1c-2.4-3-6.6-3.9-10-2.1c-2.5,1.2-5,2.4-7.4,3.8c-4,2.2-7.5,1.1-10.9-1.4c-3.1-2.3-5.1-5.5-7-8.8
			c-1.2-2-2.2-4.2-2.9-6.4c2.2-0.3,4.4-0.2,6.5,0.4c-0.2-1.8-2.1-1.9-3-3c-0.6-0.8-1.1-1.5-0.7-2.5s1.2-1,2.1-1
			c1.3-0.1,2.6,0.3,3.7,1.2c0.6,0.5,1.2,1.5,2.3,1c-0.1-0.3-0.2-0.6-0.3-0.9c-3-4.5-7.3-6.9-12.5-7.9c-2.1-0.4-2.3-0.5-2.6-2.6
			c-0.4-2.3-0.8-4.6-0.9-6.9c-0.2-3.1-0.7-6.1-0.3-9.2c0.1-0.2,0.3-0.5,0.1-0.7c-2.1-2.4-2-5.3-2.4-8.2s0.1-5.7,0.2-8.5
			c0.3-7.3,1.2-14.5,2.7-21.6c1.3-6.5,4.7-12.3,6.9-18.6c0.7-1.5,0.6-3.3-0.4-4.7c-2.1-3.3-3.9-6.8-5.9-10.2c-0.6-1-1-2.6-2.3-2.2
			c-1.1,0.3-0.7,1.9-0.9,2.9c-0.1,0.6,0,1.4-0.8,1.7s-1.4-0.4-1.9-0.9c-0.8-0.9-1.5-1.8-2.1-2.8c-2.7-4.7-4.9-9.5-6.7-14.6
			c-0.5-1.4-1-2.8-3-1.8c-7.8,4.2-16.4,6.4-24.7,9c-10.6,3.2-21.6,4.9-32.6,5.1c-1.8,0.1-3.6-0.9-5.4-0.3c0.1,0.9,0.3,1.8,0.8,2.6
			c2.3,5,4.7,10,7.2,14.9c5.3,10.4,11,20.5,15.6,31.2c1.9,4.4,3.8,8.7,5.7,13.1c2.8,5.8,5,11.9,6.4,18.1c0.8,3.4,1,6.9,0.6,10.4
			c-1.2,7.8-8.5,13.1-16.2,11.9c-0.2,0-0.4-0.1-0.7-0.1c-2.7-0.7-5.3-1.5-7.9-2.5c-2.9-1.1-6-1.5-9.1-1.2c-3.4,0.3-6.5,1.4-8.5,4.2
			c-3,4-4.7,8.9-4.8,14c1.2-0.2,1.4-1.3,1.8-2.2c1.4-2.7,3-5.2,4.9-7.5c0.8-1.1,1.8-2,3-2.6c2.1-0.9,3.5-0.1,3.6,2.2
			c0.1,2-0.6,4-1.9,5.6c-1.5,2-3.1,3.9-4.9,5.7c-0.8,0.7-1.8,1.4-1.8,2.6c5.4,0.3,10.9,0,16.2-0.8c4.5-0.6,9.1-1.4,13.6-2.2
			c2.9-0.5,5.8-0.4,8.7-1.1c6.2-1.6,12.6-2.7,19-3.2c4.7-0.4,9.5-0.9,14.2-1.5c1.7-0.2,2.1,0.2,1.7,2c-0.8,3.7-2.8,7.1-5.7,9.5
			c-2.3,2-2.3,2.1-4.4-0.1c-2.8-3.1-7.1-4.2-11-3c-7.7,2.2-12.8,9.5-12.4,17.5c1.5-0.2,1.8-1.6,2.5-2.6c1.5-2.4,3.3-4.4,5.5-6.1
			c1.3-0.9,2.6-1.3,3.9-0.4s1,2.6,0.5,3.9c-0.6,1.5-1.6,2.8-2.9,3.7c-1.2,0.8-2.3,1.7-3.4,2.6c-0.8,0.8-2.2,1.3-2.2,2.8
			c4.1,0.6,8.3,0.8,12.4,1.5c3.8,0.8,7.7-0.3,10.5-2.9c1.6-1.4,2.3-3.2,3.3-4.9c1.2,0.2,2.3,0.7,3.3,1.4c2.1,1.3,3.9,2.8,4.2,5.5
			c0.2,1.9,1.5,3.5,2.6,5.1c1.6,2.6,4.6,4.1,7.7,3.9c0.4-0.5,0.1-1-0.1-1.4c-1.1-2.4-1.8-5.1-1.9-7.7c-0.4-3.1,0.3-6.2,2-8.9
			c1.2-1.8,2.7-1.7,3.4,0.1c1.4,3.6,2,7.4,1.8,11.2c-0.2,2-1.4,3.9-0.8,6c4.4-0.8,6.9-2.9,7.6-6.8c0.1-1.1,0.2-2.2,0.1-3.3
			c0-1.4,0.3-1.6,1.7-1.3c4.2,0.6,8.3,1.7,12.3,3.3c3.5,1.5,7.2,2.2,11,2c2.7-0.2,5.6-0.2,7.4-2.9
			C471.7,380.7,470.6,379.9,469.9,378.9z M410.2,339.1c-2.9-0.7-5.4-2.5-6.9-5c-3.1-4.5-5.1-9.6-5.8-15c-0.4-3-0.8-5.9-1.3-8.9
			c-0.2-1.2-0.2-2.3-0.1-3.5l0,0c-0.3-4.6-0.1-9.3,0.4-13.9c0-0.6,0.3-1.1,0.9-1.4c1.6,0.4,1.8,3,3.9,2.5c0.2,0,0.4,0,0.5,0.1
			c2.6,3.2,5,6.5,6.3,10.5c0.2,2,1.2,3.8,1.1,5.9c1.2,3.6,1.6,7.5,2.3,11.2c0.8,5.1,1.4,10.2,1.6,15.4
			C413.3,339.5,412.8,339.7,410.2,339.1z"/>
		<path class="st2" d="M283.4,308.1c-0.8,4.3-1.7,8.7-3,12.9c-3.2,10.8-9.2,20.6-17.5,28.3c-5.8,5.4-12.7,8.9-19.8,12.2
			c-9.4,4.4-19.2,5.5-29.4,4.9c-14.6-0.9-28.9-4.2-42.3-9.9c-6.3-2.6-12.5-5.8-17.4-10.7c-1.5-1.5-2.9-3.1-4.2-4.9
			c-0.3,0.2-0.5,0.2-0.6,0.4c-4.6,7.4-11.5,11.9-18.9,16.1c-6.7,3.7-13.9,5.6-21.3,7.1c-9.2,2-18.6,2.7-28,2.1
			c-14.3-1.1-28-4.2-40.3-11.8c-15-9.2-23-22.6-24.8-40c-0.1-1.5-0.3-3-0.5-4.5c-0.1-4.9,0.2-9.7,0.9-14.5c1.2-7,3.1-13.9,5.5-20.6
			c3.5-9.2,7.8-18,12.9-26.3c3.8-6.8,6.4-14.2,7.6-21.9c0.4-1.7-0.2-3.5-1.6-4.6c-3.1-2.6-6.4-4.9-9.6-7.3c-3.3-2.5-6.3-5.2-9.2-8.1
			c-1.3-1.3-2.4-2.8-3-4.6c-1-2.5-0.4-5.3,1.5-7.2c1.2-1.2,2.5-2.2,4-3c6.9-3.5,14.4-5.5,22.2-5.8c1.2,0,2.3,0.1,3.5,0.3
			c3.9,0.7,5.9,3.7,5,7.6c-0.3,1.4-0.9,2.7-1.3,4.1c-1.3,4.1-0.3,5.4,4,5.3c3.6-0.1,7.2-0.8,10.5-2.1c4.5-1.7,9-3.8,13.2-6.1
			c1.4-0.7,2.7-1.7,3.6-3c1.2-1.2,1.3-3.1,0.2-4.4c-0.5-0.8-1.2-1.4-1.7-2.2c-0.7-0.8-0.7-2.1,0.2-2.8c0.2-0.1,0.3-0.2,0.5-0.3
			c1-0.5,2.2-0.9,3.3-1c2.5-0.5,4.9-1,7.4-1.3c0.9-0.1,1.7-0.7,2.1-1.5c3.5-6.7,6.6-13.5,9.8-20.3c0.6-1.4,1.1-2.8,1.4-4.3
			c0.5-2.3-0.4-4.8-2.4-6.1c-5.3-4-10.7-7.8-16-11.7c-2.7-2-5.3-4.1-7.7-6.4c-1.2-1.1-2-2.5-2.4-4c-0.8-3.5,0-6.4,3.1-8.6
			c1.4-1,3-1.8,4.7-2.4c7.2-2.4,14.6-3.8,22.1-4.3c1.5-0.1,3,0,4.5,0.1c2.8,0.3,4,1.8,3.9,4.6c-0.1,1.3-0.3,2.7-0.8,3.9
			c-0.5,1.4-0.8,2.9-1.2,4.4c-0.5,1.8,0.6,3.6,2.4,4.1c0.2,0,0.4,0.1,0.6,0.1c2.1,0.4,4.2,0.3,6.3-0.2c8.1-1.7,15.9-4.9,22.8-9.5
			c0.6-0.4,1.2-0.9,1.8-1.4c2.3-1.8,3-5.1,1.6-7.7c-1.8-3.9-1.5-4.7,2.8-5.6c7.8-1.7,15.7-2.4,23.7-2.3c0.8,0,1.7,0.1,2.5,0.4
			c2.4,0.8,3.1,2.6,1.8,4.7c-0.7,1-1.4,1.9-2.2,2.8c-0.6,0.6-1.1,1.3-1.6,1.9c-0.6,0.9-0.4,1.4,0.7,1.4c2.8,0.1,5.5-0.1,8.3-0.4
			c6.8-0.8,13.5-2.4,20.3-3.5c1.4-0.2,2.8-0.3,4.3-0.2c2.6,0.2,3.9,1.9,3.4,4.5c-0.4,1.6-1.1,3.2-2,4.6
			c-5.9,10.9-12.3,21.5-18.4,32.3c-0.4,0.8-0.9,1.6-1.3,2.4c-1.1,2.1-1.2,4.6-0.2,6.8c1.4,3.3,3.3,6.4,5.6,9.2
			c3.6,4,7.5,7.6,11.4,11.3c0.6,0.5,1.3,0.7,2,0.5c7.2-0.3,14.4-1.1,21.6-0.8c1,0,2,0.2,3,0.5c2.9,0.8,3.9,3.3,2.3,5.9
			c-0.5,0.7-1,1.4-1.6,2c-0.5,0.6-1.2,1.1-1.2,2.2c1.4,0.8,2.9,0.4,4.4,0.3c7.8-0.4,15.4-1.9,23.1-3.2c1.2-0.2,2.3-0.3,3.5-0.3
			c2,0,2.6,0.8,2.7,2.8c0,1.3-0.3,2.7-1,3.8c-5.7,10.3-10.5,21-16.5,31c-1.6,2.6-1.8,5.8-0.4,8.5c1.7,4,3.9,7.8,6.5,11.3
			c3.2,4.3,6.4,8.6,9.8,12.8c8.3,10.2,12.4,22,14.2,34.9C283.7,297.1,283.8,302.6,283.4,308.1z"/>
		<path class="st1" d="M344.7,106.1c1.5-3.4,2.9-6.8,4.4-10.2c0.3-0.8,1-1.6,0.5-2.6c0.2-1.2,1.3-1,2-1.1c4.6-1.1,9.2-1.8,13.7-3.1
			c1.7-0.5,3.6,0,4.8,1.4c1.9,1.9,3.5,4.1,4.8,6.4c0.5,1,1.2,2,1.8,3c3,4,6.7,4.8,11,2.4c3.1-1.6,5.8-4,7.7-7
			c4.4-7.2,8.3-14.5,10.6-22.7c0.9-3.2,1.5-6.5,1.5-9.9c0-3,0.6-3.6,3.6-4c2.3-0.4,4.6-0.8,6.9-1.2c-1.8-0.7-3.5-0.3-5.3,0.1
			c-5,1-10.2,1-15.2,0.1c-0.8-0.1-1.9-0.1-2-1.1s0.8-1.2,1.4-1.5c1.5-0.9,2.9-2.1,4-3.4c0.9-1.3,2.5-1.9,4-1.5c1.3,0.2,2.7,0.2,4,0
			c0.8,0,1.4-0.6,1.6-1.3c0.2-0.8-0.4-1.5-1.1-1.7c0,0,0,0,0,0c-3.1-0.7-4.3-3.2-5.5-5.7c-1.3-2.8-3.6-5.1-6.5-6.4
			c-2.6-1.3-5.6-1.4-8.3-0.2c-2.7,1.3-5.2,3.1-7.2,5.3c-1.4,1.5-1.5,3.5-1.5,5.4c0,0.8,0.2,1.7,0.1,2.5c0,0.4-0.1,0.8-0.3,1.1
			c-0.2,0.2-0.4,0.4-0.7,0.4c-0.4,0-0.8-0.2-1.1-0.4c-3.5-3.4-7.7-3.7-12.1-2.5c-0.4-0.1-0.7-0.4-0.9-0.7c-0.4-1.2-0.7-2.4-0.9-3.6
			c-0.5-2.3-1.6-4-4.3-3.9c-0.5,0-1-0.1-1.4-0.5c0.3-1.4,1.5-2.3,2-3.6c0-0.4-0.3-0.9,0.2-1.2c2.1-1.4,4.6-1.7,7.1-2.1
			c2.3-0.4,2.5-1.2,1.5-3.3c-0.6-1.1-2-1.8-1.9-3.3c0.8-0.2,1.2-0.8,1.8-1.3c4.6-3.9,10.1-6.5,16-7.7c2.3-0.3,4.7-0.4,7-0.1
			c-0.2,1.6-1.7,1.9-2.6,2.8c-0.3,0.4-0.8,0.7-0.7,1.3s0.7,0.6,1.2,0.7c8.3,1.2,15.2,5.3,21.3,10.9c2.3,2.1,3.4,1.7,4.1-1.3
			c1.1-4.6-1.2-8-3.9-11.3c-0.7-0.8-2.1-1.1-1.9-2.6c5.4-0.9,10.8-1.3,16.1,0.7c0.9,0.3,1.8,0.5,2.6,0.7c0.5,1.5-0.5,2.5-1.1,3.6
			c-0.9,1.5-1.5,3.2-2.2,4.8c-0.5,1-0.3,1.6,1,1.5c2,0.8,2.8,3,4.6,4c1.1,1.2,2.2,0.8,3.4,0.2c3.1-1.5,6.3-2.9,9-5.1
			c0.8-0.6,1.5-1.6,2.8-0.8c-0.3,1.1,0.7,1.5,1.2,2c2.8,2.7,5.3,5.8,7.5,9.1c2.3,3.4,3.9,7.2,4.8,11.2c0.3,1.2,0.9,2.8-0.5,3.4
			s-2-1-2.9-1.8c-0.5-0.5-0.9-1-1.3-1.5c-0.6-0.3-0.9-0.1-0.6,0.6c0.6,1.6,1.2,3.3,1.7,4.9c0.2,0.8,0.4,1.6,0.4,2.4
			c0.1,0.7,0.1,1.4-0.7,1.7s-1.2-0.2-1.6-0.8c-0.5-0.8-1.1-1.6-1.7-2.4c-0.6-0.7-1.3-1.3-1.9-1.9c-0.5-0.1-0.9,0-0.7,0.7
			c0.5,1.9,1.1,3.8,1.5,5.8c1,4.6,0.6,9.4-1.1,13.8c-3.3,9.3-6.2,18.9-8.5,28.5c-0.1,0.6-0.3,1.3-1,1.7c-1.3,0-2.6,0.3-3.8,0.9
			c-7,2.9-14.2,5-21.7,6.1c-6.4,1-12.7,2.2-19.1,2.8c-5.8,0.6-11.7,0.9-17.5,1.6c-1.8,0.4-3.6-0.8-4-2.6c0,0,0,0,0,0
			c-0.5-1.7-1.5-2-2.7-0.7c-4.3,4.7-9.2,4.6-14.6,2.1c-3.6-1.7-7.6-2.6-11-4.8C345.8,107.5,344.8,107.3,344.7,106.1z"/>
		<path class="st1" d="M311.1,230.7c0.3,1.6-0.1,2.1-1.4,1.9c-1.5-0.2-2.9-0.6-4.4-1c-8.9-2.8-16.9-7.9-23.3-14.7
			c-2.1-2.1-2.6-4.6-2.3-7.6c0.5-4.7,1.5-9.4,3-13.9c0.7-2.3,0.6-4.9-0.3-7.1c-0.7-1.9-1.2-3.8-1.6-5.8c-0.7-3.7,0.1-7.6,2.1-10.8
			c1.6-2.5,3.4-4.8,5.5-6.8c3.2-3.3,6.4-6.6,9.7-9.8c7.2-6.8,13-14.8,18.9-22.8c5.5-7.5,10.9-15,15.3-23.3c0-0.1,0.1-0.1,0.1-0.2
			c0.8-1.3,1.6-2.6,3.5-2.3c1.7,0.5,2.8,2,2.8,3.8c0.1,2.4,0.2,4.8,0.5,7.3c0.1,0.6,0.2,1.1,0.3,1.7c0.4,2.5-0.7,4.8-1.3,7.2
			c-0.2,0.4-0.4,0.9-0.6,1.3c-0.2,0.5-0.3,1.1-0.4,1.6c-0.3,2.7-1.7,4.8-3,7.4c8.2-4.9,16.7-8.9,23.6-15.3c0.8-0.7,1.5-1.5,2.3-2.1
			c1.6-0.8,2.4-2.4,3.8-3.4c2.6,0.2,4.3-1.6,6.2-2.9c3-2.2,3.1-2.2,4.5,1.1c0.3,0.7,0.9,1.2,1.2,1.9c0.3,1.8,0.4,3.5,0.2,5.3
			c-0.1,0.8-0.4,1.6-0.5,2.3c-2.3,5.9-4.5,11.9-8.7,16.9c-1.3,0.7-1.7,2.1-2.6,3.1c-1.7,0.7-2.6,2.7-4.6,3c-1.8-0.1-1.9,2-3.2,2.6
			c-8.5,4.2-16.6,9-25.8,11.6c-5.2,1.5-10.5,2.9-15.3,5.3c0.4,0,0.6-0.3,0.9-0.3c3.8-1.4,7.4-3,11.3-4.1c2.5-0.7,4.3,0.1,4.7,2.6
			c0.9,5.3,1.8,10.6,0.6,15.9c-0.8,3.6-2.5,5.2-6.4,5.5c-1.2-1.2-2.9-1.8-4.5-1.6c-4.3,0.4-8.5-0.7-12.8-0.4
			c-1.4,0.1-3.7-0.5-3.8,1.3c-0.1,1.3,2.3,1.3,3.6,1.6c3.6,0.8,7.3,1.2,11,1.1c1.6-0.1,2.3,0.7,2.4,2.2c0.1,5.5-0.3,11-1.1,16.5
			c-0.2,1.3-1.1,2-2.1,2.7c-3.6,2.5-7.7,2.7-11.8,2.8c-3.5,0.1-7,0.5-10.5,1.2c1.5,0.2,3,0.2,4.4-0.1c4.1-0.4,8.2-0.3,12.2-1
			c0.7-0.1,1.5-0.3,2.2-0.5c4.9-1.5,6.5-3.6,6.7-8.7c-0.1-1.8,0.1-3.7,0.7-5.4c0.7-2.1,0.2-4.2,0.4-6.3c0.1-1-0.2-2.2,0.7-3
			c1.4-0.2,1.4,0.9,1.6,1.8c2.7,13.2,7.6,25.7,13,38c0.3,0.8,1.1,1.6,0.4,2.6c-5.8-0.1-11.5-0.8-16.9-3.1c-0.8-0.4-1.7-0.1-2.4-0.7
			c-0.1,0.1-0.2-0.3-0.4-0.1s-0.1-0.2,0.2,0.1c0.6,0.3,1.3,0.5,1.5,1.2c1.4,1,3,1.9,4.6,2.5c0.7,0.3,1.5,0.6,1.4,1.5s-1.1,1.1-2,1.1
			c-3.2-0.1-6.3-0.6-9.3-1.5c-1.4-0.4-2.7-0.8-4.1-1.2c-0.9-0.2-1.7-0.4-2.5-0.7c-0.2-0.1-0.3-0.3-0.5-0.2c0.2,0.1,0.4,0.2,0.6,0.3
			C310,229.6,310.7,230.1,311.1,230.7z"/>
		<path d="M375,123.7c0-0.7,0.2-1.4,0.5-2.1c1.6-1,3.4-0.9,5.1-1.1c11.8-1.3,23.7-1.8,35.5-3.5c5.3-0.7,10.6-1.8,15.8-3.2
			c5-1.3,5.4-1.8,5.9-6.9c-0.2-0.3,0.9-1.5-0.6-1c-6.7,2.7-13.6,4.6-20.7,5.8c-11.7,2.1-23.5,3.5-35.3,4.1c-1.9,0.1-3.8,1.1-5.6-0.2
			c-0.8-0.1-1.4-0.7-1.4-1.5c-0.1-0.9-0.4-1.7-0.8-2.5c-1.8,1.3-3.6,2.4-5.3,3.7c-1.1,0.9-2.6,1.3-3.9,0.9c-1.4,0.6-2.6,0-3.9-0.4
			c-4-1.3-7.8-2.9-11.6-4.7c-0.9-0.4-2.1-1.7-2.8-0.4c-0.9,1.5,0.8,2.1,1.8,2.7c3.6,2,7.3,3.7,11.1,5.2c0.7,0.2,1.5,0.3,1.8,1.2
			c-0.5,0.8-1.1,1.4-1.9,1.8c-0.8,0.2-1.7,0.1-2.5-0.3c-3.5-1.4-6.9-3-10.1-4.9c-2.1-1.3-2.1-1.3-2.9,1.2c-0.8,2.6-1.8,5.2-3.1,7.7
			c-0.4,0.8-0.7,1.7-1.7,2.1c-0.4,0-0.7-0.2-0.5-0.7c0.6-2.4,1.2-4.9,1.8-7.3c1.4-3.6,2.2-7.4,3.8-10.8c0.4-0.8,0.5-1.8,1.3-2.4
			c6,3.9,12.7,6.2,19.6,7.9c1,0.3,2.2,0,3-0.6c1.7-1.2,3.4-2.5,5-3.8s2.1-1.1,2.8,0.8c1.2,3.3,1.2,3.3,4.7,2.9
			c7.2-0.8,14.5-1.1,21.7-2.1c10.4-1.5,20.8-3,30.9-6.4c2.1-0.6,4.1-1.5,6-2.6c1-0.7,1.9-0.7,2.4,0.5c-0.1,3.6-0.6,7.2-1.5,10.7
			c-0.4,2.3-0.7,4.7-0.7,7c-0.7,7.1-0.9,14.2-0.5,21.3c0.6,14.6,2.5,29.1,3.8,43.7c0.3,3.6,1.5,7,2,10.6c0.1,0.8,0.6,1,1.2,0.6
			c0.7-0.5,1.4-0.9,2.2-1.3c1-0.6,2.2-0.4,2.9,0.6c0.1,0.2,0.2,0.3,0.2,0.5c0.9,1.9,1.4,3.9,1.7,6c0.1,1-0.4,2-1.4,2.5
			c-1.5,1-3.1,2-4.6,3c-0.1,0.6-0.5,1.1-1,1.3c-8.8,3.8-17.2,8.7-26.1,12.3c-1.6,0.7-3.3,1.2-5,1.7c-2.4,0.6-2.5,0.8-1.6,3.1
			c2.1,5.9,4.8,11.6,8.1,16.9c0.2-1,0.3-1.9,0.2-2.9c0.1-1.4,0.1-2.8,1.8-3.2s2.2,0.9,2.9,2c2.6,4.6,5.2,9.2,7.8,13.8
			s5.3,9.3,8.4,14c0.5-0.9,0.6-2.2,1.9-2.1s2.1,1.3,2.7,2.3c3.7,6.8,7.2,13.6,11.4,20.1c2.6,4.1,4.8,8.4,6.8,12.8
			c0.5,1.1,1.1,2.1,1.8,3c1.9,2.7,3.3,5.6,4.3,8.7c0.2,0.5,0.3,1.1,0.4,1.7c0.1,1.3-0.7,1.8-1.9,1.6c-0.9-0.3-1.7-0.7-2.4-1.3
			c-1.5-1.1-2.9-2.3-4.3-3.4c-0.7-0.6-1.3-1.5-2.4-0.4c-0.5,0.5-1.5,0-2-0.5c-1.1-1-2.2-2-3.3-3c-0.6-0.2-0.8,0-0.6,0.6
			c0.9,3.5,2.3,6.8,4.1,9.9c2,3.7,4.1,7.2,6.4,10.7c0.4,0.8,0.8,1.7,1.1,2.5s0.6,1.6,0,2.4s-1.5,0.6-2.3,0.3c-0.5-0.2-1-0.3-1.5-0.4
			c-0.5,2.3-0.7,2.6-2.9,2.2c-4.1-0.8-8.1-2-11.9-3.7c-6.5-2.8-12.6-6.5-18.2-10.9c-1.2-0.9-2.4-1.8-3.6-2.7L425,317
			c-0.1-0.1-0.2-0.2-0.4-0.2c-2.2-2.1-2.9-4.6-3-7.6c-0.4-10.9,0.7-21.8,3.1-32.4c0.7-3.2,1.8-6.3,3.2-9.2c1.5-3.1,2.5-6.4,3.9-9.5
			c0.3-0.7,0.3-1.5-0.1-2.1c-2.6-4.4-5.1-8.9-7.6-13.3c-0.1-0.2-0.2-0.5-0.8-0.3c0,1.1,0,2.3,0,3.6c0,0.9-0.2,1.7-1.1,2.1
			s-1.6-0.3-2.2-0.9c-1-1.1-1.9-2.4-2.6-3.7c-2.7-4.8-5.1-9.8-7-15c-0.2-0.5-0.4-1.1-0.7-1.8c-8.1,4.6-16.9,6.9-25.6,9.6
			c-8.8,2.7-17.8,4.4-27,4.9c-1.8,0.1-3.5,0.3-5.3,0.4c-2.3,0.2-4.5-0.2-6.6-1c-2-2.5-3.2-5.4-4.9-8.1c-0.4-0.6-0.8-1.3-1.2-1.9
			c-4.5-10-8.4-20.2-11.6-30.6c-1.2-3.8-1.9-7.8-2.9-11.6c-0.4-1.9-1.6-2.5-3.5-2.3s-3.9,0-5.8,0c-1.4-0.3-2.9-0.3-4.4-0.5
			c-0.4-0.1-0.9,0.3-1.3-0.4c0.3,0.7,0.8,0.2,1.1,0.4c1.2,0,2.4,0.3,3.5,0.3c2.1,0.4,4.3,0.1,6.5,0.2c0.9-0.1,1.8,0,2.7,0.4
			c0.2,0.2,0.4,0.5,0.5,0.8c-0.5,3.5,0.2,7.1-0.4,10.6c-0.8,2.7-0.5,5.5-0.8,8.2c-0.2,1.7-1.1,3.2-2.4,4.2c-2.9,2.2-6.2,2.9-9.6,3.1
			c-4.6,0.4-9.2,0.4-13.7,1.1c-0.2,0-0.5,0-0.8,0c-0.6,0-1.2-0.1-1.3-0.8s0.5-1.1,1.2-1.3c3-0.4,6-0.7,9-0.8c2.5-0.1,5-0.2,7.5-0.6
			c2.4-0.2,4.7-1.1,6.7-2.6c0.7-0.4,1.2-1.2,1.3-2c0.5-5.7,1-11.3,1-17c0-0.2-0.1-0.5-0.2-0.7c-3.7,0.4-7.4-0.2-11-0.7
			c-1.7-0.3-3.4-0.7-5.1-1.1c-0.8-0.2-1.5-0.5-1.6-1.4s0.7-1.4,1.5-1.7c1.4-0.4,3-0.6,4.5-0.5c3.9,0.1,7.9,0.3,11.8,0.4
			c0.7,0,1.3,0,2,0c2.3-0.1,2.3-0.2,3.1,2c1,0.7,1,1.9,1.2,2.9c3.6,16.6,9.5,32.5,17.7,47.4c0.9,1.9,2.9,3.1,5.1,2.9
			c10.6-0.4,21.2-2.1,31.4-5c5.2-1.5,10.4-3.3,15.5-5c2.2-0.7,4.3-1.5,6.3-2.5c1-0.5,2.6-0.8,2.9-1.8c0.5-1.4-1.4-1.6-2.1-2.4
			c-2.6-2.7-3.2-6.3-1.2-9.4c0.4-0.7,0.4-1.5,0-2.1c-3-7.8-4.9-16-5.8-24.4c-0.6-5-0.3-10-0.2-15.1c0-1,0.3-2.2,1.6-2.2
			c1.4,0,1.6,1.2,1.7,2.3c0.1,2.8,0,5.5,0.1,8.3c0.4,10.2,2.4,20.3,6.1,29.9c0.7,2,1.9,2.6,3.9,2c9-2.7,18-5.2,26.1-10.2
			c0.9-0.6,1.8-1.2,2.7-1.8c1.2-0.7,1.7-2.2,1.3-3.5c-2.7-11.1-3-22.5-4.2-33.8c-1.1-8.8-1.6-17.7-1.6-26.5
			c-0.1-5.4,0.2-10.9,0.9-16.3c0.3-2.2-0.1-2.5-2.1-2c-12.1,3.4-24.5,4.5-37,5.6c-6.3,0.5-12.7,1-19,1.6
			C376.8,124.6,375.8,124.3,375,123.7z"/>
		<path class="st1" d="M464.4,299.8c-0.8-0.8-1.4-1.7-1.8-2.7c-4.4-8.7-10.1-16.6-14.5-25.2c-0.9-1.8-1.9-3.5-2.9-5.3
			c-0.3-0.5-0.6-1-1.1-1.4c-0.5-0.4-1.2-0.4-1.6,0.1c-0.2,0.2-0.2,0.4-0.3,0.6c-0.1,0.8-0.1,1.6,0,2.5c-0.8-0.6-1.4-1.3-1.8-2.2
			c-5.3-8.5-10.1-17.2-15-25.8c-0.4-0.8-0.9-1.6-1.4-2.4c-1-1.2-2.3-0.9-2.6,0.6c-0.2,1.2-0.3,2.3-0.3,3.5c-0.1,0.6-0.1,1.3-0.3,2.5
			c-4.2-6.5-7.6-13.6-10-21c0.3-0.4,0.7-0.6,1.2-0.7c3.3-0.7,6.5-1.8,9.5-3.2c5.9-2.7,11.9-5.4,17.6-8.5c1.8-1,3.5-2.3,5.7-2.4
			c0.6,0,0.9-0.7,1.4-1c1.1,6.5,2.3,13,3.4,19.5c0.9,5.5,1.5,11.1,2.3,16.6c1.9,12.5,3.9,24.9,7.3,37.1
			C460.8,287.3,462.5,293.5,464.4,299.8z"/>
		<path d="M358.9,37.8c4.1-1.1,5.8,1.1,6.4,4.6c0.2,1.1,0.3,2.1,0.5,3.2c-0.1,0.2-0.1,0.5-0.1,0.7c-0.2,0.2-0.2-0.2-0.1,0.2
			s0.2,0.2,0.3,0c0.2-0.1,0.4-0.2,0.7-0.2l1.6-0.6c2.6-1.1,5.6-0.8,7.9,0.8c1,0.7,2,1.5,3,2.2c0.1,0.2,0.3,0.3,0.5,0.4l0.5,0.3
			c0.1-0.1,0.3-0.1,0.4,0c0.1-0.1,0.1-0.3,0-0.4c0,0,0,0-0.1,0c0-0.3-0.1-0.6-0.2-0.9c-0.3-1.7-0.3-3.3-0.2-5
			c0.1-1.4,0.7-2.7,1.7-3.8c1.6-1.7,3.4-3.2,5.4-4.4c5-3,10.1-2.4,14.3,1.7c2,2,3.6,4.5,4.5,7.2c0.3,0.9,1.1,1.6,2.1,1.8
			c0.6,0.2,1.3,0.4,1.9,0.7c1.1,0.5,2,1.2,1.7,2.5c-0.2,1.1-1.1,2-2.3,2.1c-1.5,0.3-3,0.2-4.5-0.2c-1.1-0.4-2.4,0-3,1
			c-1.6,2-3.6,3.6-6,4.6c0.6,0.8,1.4,0.6,2.1,0.7c5.2,1,10.5,0.9,15.7-0.3c1.4-0.3,2.8-0.4,4.2-0.5c0.8,0,1.9-0.2,1.9,1
			c0,1-0.9,1.1-1.7,1.1c-2.6,0.1-5.1,0.9-7.7,1.1c-1.4,0.1-1.9,0.7-1.9,2c-0.2,13.1-6.1,24.1-12.8,34.9c-2.2,3.4-5.5,6-9.3,7.4
			c-3.1,1.4-6.7,0.6-8.9-2c-1.2-1.5-2.3-3.1-3.2-4.8c-1.3-2.3-2.8-4.4-4.6-6.2c-0.9-1.1-2.5-1.6-3.9-1.1c-5.2,1.8-10.8,2.3-16.1,3.7
			c-6.4,1.7-12.5,4.4-18,8c-6.9,4.5-11.6,11-15.4,18.2c-0.5,0.9-0.6,2.4-2,2.3s-1.5-1.6-1.7-2.7c-1.5-6.1-1.1-12.3-0.1-18.4
			c2.3-13.7,10-23.4,21.6-30.4c4.2-2.6,8.3-5.2,12.5-7.9c2-2.3,4.9-3.4,7.2-5.3c1-0.7,2-1.5,2.8-2.3c-1.9-1.4-4-2.5-4.5-5.1
			c-1-0.6-2.1-0.1-3.2-0.3c-0.6-0.1-1.3-0.1-2-0.3c-0.6-0.1-1.1-0.6-1.1-1.2c-0.1-0.6,0.3-1.2,0.8-1.4c0.9-0.4,1.9-0.7,2.8-1
			c0.7-0.2,1.5-0.3,2.2-0.4c1.4,0,2.7-0.9,3.1-2.3C355.7,40.8,357.1,39.1,358.9,37.8z"/>
		<path class="st3" d="M446.1,25.3c-1.3,0.4-2.4,1.1-3.4,2c-2.9,2.2-6.2,3.9-9.6,5.1c-1.2,0.5-2.1,0.4-2.3-1.2c0-1,0.8-1.2,1.4-1.5
			c3.5-1.5,6.9-3.4,10.1-5.6c2.8-1.9,6.1-2.6,9.4-3.5c1.2-0.3,2.3-0.7,3.5-1.1c-1.4-0.2-2.4,0-3.4-0.2c-1,0-1.8-0.6-2.1-1.5
			c-0.3-0.9,0-1.9,0.8-2.5c0.7-0.6,1.5-1.1,2.3-1.5c7.8-4,16.1-6.1,24.6-7.7c0.8-0.1,1.5,0.1,2-0.3c-0.1,0.2-0.6,0.1-1,0.2
			c-4.5-0.2-9,0.1-13.4,0.9c-6.7,1-13.1,3.5-18.8,7.2c-1.4,0.9-3.1,2.5-4.7,0.9s-0.3-3.3,0.5-4.8c1.1-2.4,2.7-4.6,4.7-6.3
			c0.1-0.1,0.2-0.2,0.3-0.2c-0.1-0.1-0.1-0.1-0.3,0.1c-8.4,3.9-13.4,10.9-17.5,18.8c-0.9,1.6-1.2,3.6-2.9,4.8
			c-0.4,0.4-0.7,1.3-1.5,0.8c-0.6-0.4-0.5-1-0.3-1.5c0.6-1.5,1.2-3.1,2-4.6s1.6-3.3,2.5-4.9c1.4-1.9,2.7-3.8,4.1-5.6
			c3.5-4.9,8.4-8.7,14.1-10.8c0.9-0.3,1.7-0.6,2.7-0.7c1.6-0.2,2.3,1,1.5,2.4c-0.5,0.8-1,1.5-1.7,2.2c-1.7,1.9-3.2,3.9-4.5,6
			c-0.2,0.2-0.2,0.5-0.2,0.7l-0.1,0.2l0.2-0.1c0.2-0.1,0.4-0.2,0.6-0.3c9.3-5.9,19.5-8,30.4-8.1c1.8,0,3.5,0.2,5.2,0.6
			c1.9,0.4,2.8,1.2,2.7,2.2c-0.1,1.5-1.5,1.8-2.5,2c-3.1,0.8-6.2,1.4-9.3,2.2c-5.9,1.3-11.6,3.2-17,5.8c0.9,0.7,1.8,0.5,2.6,0.8
			c1,0.3,1.9,0.7,2.1,1.9c0.2,1.1-0.3,2.2-1.3,2.7c-0.6,0.4-1.3,0.7-2,0.9C452.8,23.2,449.5,24.3,446.1,25.3z"/>
		<path d="M409.9,15.7c3.1,2.7,5.7,5.8,6.6,10.1c0.4,2.1,0.1,4.2-0.9,6.1c-0.8,1.5-1.7,1.7-3,0.6c-1.9-1.5-3.7-3.1-5.6-4.6
			c-4.4-3.5-9.6-5.9-15.1-6.8c-0.8-0.1-1.7-0.2-2.5-0.2c-0.5,0-1,0-1.3-0.6c-0.2-0.6-0.1-1.2,0.4-1.6c1-1,2-2,3.2-2.8
			c0.3-0.2,0.5-0.4,0.8-0.6c3.7-1.9,7.9-2.5,11.9-1.8C406.3,13.9,408.2,14.7,409.9,15.7z"/>
		<path class="st4" d="M247.4,83.2c-0.7,0-1.4,0-1.5-0.9c0-0.8,0.6-0.9,1.3-1s1.5-0.3,2.2-0.3c3.4-0.3,6.5-1.9,8.6-4.6
			c2.5-3,4.4-6.3,5.8-9.9c1.3-3.3,2.6-6.7,4.1-10c3.6-8.4,9.8-14.3,18-18.1c2.6-1.2,5.3-2,8.1-2.4c0.7-0.1,1.4-0.2,1.6,0.7
			c0.1,0.8-0.5,1-1,1.2s-1.3,0.4-1.9,0.5c-10,2.6-17.5,8.3-22.2,17.7c-1.8,3.6-3.2,7.4-4.6,11.1c-1.5,3.9-3.6,7.6-6.4,10.7
			C256.3,81.7,252.1,83.1,247.4,83.2z"/>
		<path class="st3" d="M367.7,24.3c1.5,1.1,2.7,2.7,3.2,4.5c0.5,1.6,0,2.3-1.6,2.5c-2.9,0.3-5.7,0.7-8.3,2.3
			c-0.1,0.4-0.5,0.4-0.7,0.5c-1.7,0.6-2.9,2-4.2,3.2c-0.3,0.4-0.9,0.5-1.4,0.3c-0.4-0.2-0.5-0.7-0.5-1.1c-0.4-4.5,4.4-11.2,8.8-12.4
			C364.6,23.6,366.2,23.7,367.7,24.3z"/>
		<path class="st5" d="M51.4,136.9c0.4-8.7,1.5-17.3,3.3-25.9c1.1-5.6,2.8-11,5.1-16.3c0.2-0.5,0.5-1.1,0.8-1.6
			c0.2-0.5,0.7-0.7,1.2-0.5c0,0,0,0,0,0c0.5,0.3,0.6,0.8,0.4,1.3c-0.1,0.5-0.3,1-0.5,1.4c-3.8,9.1-5.7,18.7-7,28.4
			c-0.7,5.3-1.2,10.6-1.4,16c-0.2,2.3,0,4.7,0.5,7c0.2,0.6,0.1,1.2-0.6,1.4s-1.1-0.3-1.3-0.9c-0.2-0.6-0.3-1.1-0.4-1.7
			C51.2,142.7,51.1,139.8,51.4,136.9z"/>
		<path class="st5" d="M143.7,85c-2.2,0.2-4.4,0-6.5-0.4c-0.4-0.1-0.8-0.2-1.2-0.4c-0.6-0.2-1.1-0.6-0.9-1.3s0.8-0.8,1.4-0.6
			c3.4,1.1,7,0.8,10.5,0.6c8.8-0.6,16.2-6.9,18.1-15.5c1-4-1.3-8.1-6.3-7.5c-0.7,0.1-1.4,0.3-1.6-0.6s0.6-1.3,1.4-1.5
			c3.9-1,8.2,2.1,8.8,6.3c0.2,2-0.1,4-0.8,5.9c-2.2,7-9.2,14.8-19.9,15C145.7,85,144.7,85,143.7,85z"/>
		<path class="st6" d="M253.3,157.5c0,0.7,0,1.2-0.6,1.4c-0.5,0.2-1.1-0.1-1.3-0.6c0-0.1,0-0.1-0.1-0.2c-0.2-0.6-0.4-1.1-0.5-1.7
			c-1.9-8.7-5.9-16.4-10.5-23.9c-0.3-0.5-0.6-1-0.9-1.5c-0.2-0.4-0.2-0.9,0.2-1.1c0.4-0.3,0.9-0.3,1.3,0c0,0,0,0,0.1,0.1
			c0.3,0.3,0.6,0.6,0.8,1c5,7.8,9.4,15.9,11.3,25.2C253.1,156.7,253.2,157.2,253.3,157.5z"/>
		<path class="st7" d="M352,49.6c1.5,1.9,2.9,4,6.1,4.7c-4,3.1-7.5,6-11.7,8.1c-0.5-2.7,0.8-4.9,1.9-7.1
			C349.4,53.2,350.6,51.3,352,49.6z"/>
		<path class="st8" d="M466.5,79.6c0.4-3.1,0.7-5.9,1.1-8.6c0.8-5,1.6-10.1,2.4-15.1c0.1-0.7,0.3-1.3,0.4-2s0.5-1.2,1.2-1
			s0.8,0.8,0.7,1.4c-0.3,1.6-0.6,3.1-0.8,4.7c-0.8,5.9-1.6,11.8-2.5,17.6c-0.1,0.9-0.3,1.8-0.5,2.7c-0.1,0.6-0.4,1.1-1.2,1.1
			C466.9,80.4,466.5,80.1,466.5,79.6z"/>
		<path class="st8" d="M475.4,95.5c0.8-7.8,1.4-15,2.6-22.1c0.2-0.9,0.1-2.3,1.6-2c1.1,0.3,0.5,1.4,0.4,2.2
			c-1.1,7-1.7,14.1-2.3,21.1c-0.1,0.9-0.2,1.8-0.4,2.7c-0.1,0.6-0.4,1.2-1.2,1c-0.6-0.1-0.7-0.7-0.7-1.2
			C475.4,96.5,475.4,95.7,475.4,95.5z"/>
		<path class="st9" d="M63.7,113.2c-0.4,0-0.8-0.4-0.8-0.8c0-0.6,0.1-1.2,0.3-1.7c1.4-4.2,3.2-8.2,5.5-12c0.4-0.7,0.8-1.8,1.8-1.3
			s0.4,1.4,0,2.2c-2.2,4.1-4.5,8.2-5.8,12.8C64.5,113,64.1,113.2,63.7,113.2z"/>
		<path class="st10" d="M253.5,71.7c-0.5,0-0.9-0.4-0.9-0.9c0-0.1,0-0.2,0.1-0.3c0.1-0.4,0.5-0.7,0.8-0.9c3.1-2.3,5.4-5.4,6.7-8.9
			c0.1-0.2,0.2-0.5,0.3-0.7c0.2-0.5,0.7-0.7,1.2-0.6c0,0,0,0,0.1,0c0.4,0.1,0.7,0.6,0.6,1c-0.1,0.4-0.1,0.8-0.3,1.2
			c-1.3,3.6-3.5,6.7-6.4,9.1C255,71.3,254.3,71.6,253.5,71.7z"/>
		<path class="st11" d="M259.3,149.8c0,0.5-0.1,0.9-0.5,1.1c-0.5,0.2-1,0-1.2-0.5c0,0,0,0,0,0c-0.3-0.5-0.5-1.1-0.6-1.6
			c-0.8-3.9-1.6-7.7-3.6-11.1c-0.3-0.4-0.4-1,0.1-1.4c0.5-0.3,1.2-0.2,1.5,0.3c0,0,0,0,0,0.1c0.1,0.1,0.2,0.3,0.3,0.4
			C257.5,141.1,258.3,145.5,259.3,149.8z"/>
		<path class="st10" d="M175,64.3c0,1.1-0.2,2.2-0.5,3.2c-0.3,0.7-0.4,1.6-1.4,1.4s-0.8-1.1-0.6-1.9c0.4-1.1,0.5-2.3,0.5-3.4
			c0-2.5-0.9-4.8-2.6-6.6c-0.5-0.5-1-1.1-0.3-1.7s1.3-0.2,1.8,0.3C174.1,57.9,175.3,61.1,175,64.3z"/>
		<path class="st12" d="M361.8,17.3c0.3,0,0.6,0.1,0.8,0.2c0.3,0.1,0.6,0.4,0.6,0.7c0.1,0.4-0.2,0.8-0.6,0.9
			c-0.4,0.1-0.8,0.2-1.2,0.3c-2.2,0.3-4.2,1.1-6,2.3c-0.5,0.4-1,0.7-1.5,0.1s-0.2-1.3,0.4-1.7C356.5,18.5,359.1,17.5,361.8,17.3z"/>
		<path class="st9" d="M464.7,87.9c0-1.5,0.9-2.7,2-2.7s2.4,1.6,2.4,2.8c0,1.3-1,2.4-2.3,2.4C465.6,90.5,464.7,89.4,464.7,87.9z"/>
		<path class="st13" d="M405,7.3c0.4,0.1,0.8,0.3,1,0.6c1.2,1.3,2.8,2.2,4.5,2.6c0.5,0.1,1,0.4,0.9,1s-0.7,0.9-1.3,1
			c-1.5,0.1-5.4-2.3-6-3.7C403.9,8,404.3,7.3,405,7.3z"/>
		<path class="st14" d="M477.5,104.6c0,1.1-0.8,2.1-1.9,2.2c-1.1,0-1.9-0.8-1.9-1.9c0,0,0,0,0,0c-0.2-1.1,0.4-2.1,1.5-2.3
			c1.1-0.2,2.1,0.4,2.3,1.5C477.5,104.2,477.5,104.4,477.5,104.6z"/>
		<path class="st15" d="M453.8,306.7c-0.4-0.3-0.7-0.9-0.3-1.2s0.8,0.1,0.9,0.6C454,306.2,454,306.5,453.8,306.7z"/>
		<path class="st16" d="M444.2,11.6c0-0.4,0.2-0.8,0.6-1l0.6,0.6c0,0.3-0.3,0.4-0.5,0.5C444.7,11.8,444.4,11.8,444.2,11.6z"/>
		<path class="st17" d="M360.3,34.1c0.1-0.3,0.4-0.4,0.7-0.5c0.2,0.3,0.3,0.5-0.1,0.6L360.3,34.1z"/>
		<path class="st18" d="M334.3,357.1c1.3-2.5,2.7-5,4.2-7.4c1.3-1.8,2.7-3.4,4.3-4.9c1-1.1,2.6-1.5,3.9-0.9c1.6,0.7,1.7,2.1,1.7,3.6
			c-0.2,1.9-0.9,3.6-2,5.1c-1.5,2.1-3.2,4.1-5.1,5.9c-0.9,0.7-1.6,1.5-2.2,2.4c-1.4,1.1-2.6,2.4-3.7,3.7c-0.5,0.6-0.7,1.5-1.7,1.2
			c-1.1-0.4-0.9-1.4-0.8-2.3C333.2,361.3,333.9,359.2,334.3,357.1z"/>
		<path class="st19" d="M471.6,382.1c-1.8-2.5-3.9-4.8-5.3-7.6c-0.9-1.6-1.6-3.3-1.8-5.1c-0.1-1.3,0-2.6,1.3-3.3
			c1.2-0.6,2.6-0.4,3.5,0.5l1.7,1.4c0.6,1.2,1.4,2.3,2.4,3.2c3.3,3.4,5.3,7.8,5.7,12.5c0,0.7,0,1.3,0,2c0,0.8-0.1,1.5-1,1.8
			c-0.9,0.3-1.9-0.1-2.3-1c-1-1.5-2.1-2.8-3.3-4.1C472.2,382.4,471.9,382.2,471.6,382.1z"/>
		<path class="st19" d="M427.1,391.6c-2.8-4.8-3.5-10.6-1.8-15.9c0.3-1.3,1-2.5,1.9-3.5c1.4-1.3,3-1.1,3.6,0.6
			c2.3,6,3.3,12,0.6,18.2c-0.2,0.3-0.3,0.6-0.5,0.9c-1.1,1.7-1.9,1.8-3.3,0.4C427.5,392.1,427.3,391.9,427.1,391.6z"/>
		<path class="st18" d="M379.1,378c1.1-1.6,2.1-3.2,3.2-4.7c1.4-2.1,3.3-3.8,5.5-5.1c2.4-1.3,4.8,0.1,4.9,2.9c0,1.7-0.8,3.3-2,4.5
			c-1.8,2-4.1,3.4-6.1,5.2c-0.5,0.4-1.2,0.7-1.5,1.3c-1.3,0.9-2.4,2-3.3,3.3c-0.9,1-1.6,0.8-1.9-0.4c-0.4-0.9-0.4-2-0.1-2.9
			C378.3,380.7,378.6,379.4,379.1,378z"/>
		<path class="st3" d="M436.9,348.5c-0.8-0.9-1.9-1.3-2.9-2c-0.6-0.4-1.2-1-1.5-1.6c-0.6-1.2-0.2-2.7,1-3.3c0.3-0.2,0.7-0.3,1.1-0.3
			c1.6-0.2,3.2,0.2,4.5,1.2c0.7,0.6,1.4,1.2,2.1,1.8c1.3,1.5,2.6,3,3.9,4.5c0.5,0.6,1,1.3,1.5,2c0.5,0.7,0.4,1.7-0.2,2.2
			c0,0,0,0,0,0c-0.7,0.6-1.2,0.2-1.8-0.2C442.1,351.2,439.4,349.9,436.9,348.5z"/>
		<polygon class="st20" points="424.9,316.9 425,316.9 425,317 424.9,317 		"/>
		<path class="st21" d="M401.1,294.1c-0.6,1-1.3,0.5-1.7-0.1c-0.7-0.9-1.3-1.8-2-2.8c-3.3-5.4-5.5-11.2-7.9-17
			c-2.2-5.4-4.5-10.8-8.2-15.4c-0.4-0.5-0.7-1-0.2-1.6s1.3-0.3,1.7,0.2c0.5,0.6,1,1.1,1.4,1.8c2.7,4.1,5,8.5,6.9,13.1
			c2.1,4.9,3.9,9.9,6.5,14.6c0.5,0.9,1,1.7,1.5,2.6c0.7,0.4,1.2,1,1.5,1.7c0.2,0.4,0.4,0.8,0.6,1.2S401.6,293.6,401.1,294.1z"/>
		<path class="st22" d="M401.1,294.1c0-0.5-0.2-1-0.5-1.5c0.4-0.7-0.1-1.1-0.3-1.7c-0.5-0.7-0.3-1.6-0.7-2.4
			c-1.5-4.5-2.6-9.2-4.3-13.6c-0.1-0.3-0.3-0.6-0.3-0.9c-0.1-0.5-0.1-1.1,0.4-1.3c0.7-0.3,1.1,0.1,1.4,0.7c0.6,1.5,1.2,2.9,1.7,4.4
			c0.8,2.5,1.5,5,2.3,7.4c1.8,5.9,4.7,11.5,8.3,16.5c1.4,1.8,1.2,2.1-1.1,2.7c-2-3.3-4.3-6.4-6-9.8C401.9,294,401.5,294,401.1,294.1
			z"/>
		<path class="st23" d="M377.2,273.7c-0.1,0.8-0.6,1-1.2,0.9c-0.7-0.2-1.2-0.5-1.7-1c-5.8-4.7-10.9-10.2-15-16.4
			c-0.3-0.3-0.4-0.7-0.5-1.1c0-0.5,0.3-0.9,0.9-1c0.2,0,0.4,0,0.5,0.1c0.5,0.3,0.9,0.8,1.1,1.3c4,5.9,8.9,11.1,14.5,15.6
			C376.4,272.5,377.1,272.9,377.2,273.7z"/>
		<path class="st24" d="M372.5,263.5c0.5,0,0.9,0.2,1.2,0.5c3.1,2.4,6.3,4.7,9.4,7.1c0.7,0.5,1.9,1.1,1.2,2.1
			c-0.8,1.2-1.8,0.1-2.5-0.5c-2.8-2.1-5.6-4.2-8.4-6.4c-0.7-0.4-1.2-0.9-1.5-1.6C371.6,264,371.9,263.6,372.5,263.5z"/>
		<path class="st25" d="M399.6,288.6c0.5,0.7,0.9,1.6,1.1,2.5c0.2,0.5-0.1,0.6-0.5,0.5c-0.5-0.6-0.8-1.3-1-2
			C399.5,289.4,399.5,289,399.6,288.6z"/>
		<path class="st26" d="M124.9,236.3c5.1,11.6,12.3,22,18.6,32.8c0.5,0.9,1,1.7,1.5,2.6c3.9,6.7,7.1,13.8,9.7,21.2
			c1.9,5.8,2.7,11.9,2.1,18c-0.7,8.2-2.8,16.2-6.3,23.6c-4.3,9.3-11.4,15.5-20.1,20.3c-6.7,3.6-14,6.1-21.5,7.4
			c-9,2-18.2,2.7-27.4,2.2c-14.2-1.1-28-4.1-40.3-11.9c-11.2-7-18.7-16.8-21.8-29.8c-2.8-11.8-2.3-23.5,0.8-35.2
			c3.2-11.7,7.9-23,14-33.5c2.8-4.9,5.7-9.7,7.3-15.1c0.3-1,0.7-1.1,1.6-0.8c9.8,3.4,20,5.6,30.3,6.5c5.3,0.4,10.6,0.3,15.8-0.3
			c8.8-0.7,17.6-2.3,26.2-4.6C118.7,239,121.7,237.5,124.9,236.3z"/>
		<path class="st26" d="M167.6,237c0.4,0.1,0.8,0.2,1.1,0.4c8.3,3.9,17.2,5.2,26.3,6.1c9.2,0.7,18.4,0.8,27.6,0.3
			c6.9-0.2,13.9-1.1,20.6-2.8c2.8-0.7,5.6-1.7,8.2-3.1c0.9-0.4,1.3-0.3,1.8,0.5c3.6,6.8,8.5,12.8,13.4,18.8
			c8.5,10.4,12.8,22.4,14.5,35.5c1.8,13.8-1.1,26.7-7.2,38.9c-5.3,10.5-13.7,19-24.2,24.4c-5.5,2.9-11.1,5.6-17.1,7.1
			c-5.1,1.2-10.4,1.6-15.7,1.4c-14.9-0.6-29.6-3.8-43.4-9.5c-6.1-2.5-12.1-5.4-17-9.9c-1.8-1.6-3.4-3.5-4.8-5.4
			c-0.6-0.6-0.6-1.6-0.1-2.3c5.2-9.6,7.4-20,7.7-30.9c0.1-2.6-0.1-5.2-0.7-7.7c-1.7-7.4-4.4-14.6-8-21.3c-1-1.7-1.2-3.8-0.4-5.7
			c1.3-3.4,2.8-6.8,4.6-10c4.2-8,8.7-15.8,12.6-24C167.3,237.5,167.4,237.2,167.6,237z"/>
		<path class="st26" d="M152.8,122.3v6.5c0,0.5,0,1,0,1.5c0.1,0.8,0,1.9,1.1,1.9s0.8-1.2,0.8-2c0.1-5.6,0.1-11.2,0.1-16.8
			c-0.1-2.5-0.8-4.9-2.1-7c0.7-1,1.8-1,2.7-1.1c7.1-1.4,14.3-2.1,21.5-2.1c1.3,0,3.1-0.3,3.7,0.9s-0.9,2.4-1.8,3.3
			c-2.2,2.2-3.5,5.2-3.5,8.3c-0.3,5.1-1.1,10.1-1.7,15.2c-0.2,1.9-0.3,3.8-0.3,5.8c0,0.7,0.1,1.5,0.9,1.6c1,0.1,1.1-0.8,1.1-1.6
			c0.1-4.3,0.7-8.5,1.1-12.8c0.3-3.2,0.7-6.3,1.1-9.4c6.9,0.4,13.6-0.7,20.3-1.9c3.7-0.7,7.4-1.4,11.1-2c0.9-0.2,1.8-0.2,2.8-0.1
			c1.8,0.1,2.4,1,1.8,2.7c-0.4,1.1-0.9,2.2-1.5,3.2c-5.6,10.5-11.8,20.6-17.6,31c-0.7,1.2-1.7,2.1-2.9,2.6
			c-6.8,3.1-13.9,5.3-21.3,6.6c-9.2,1.7-18.6,2.2-28,1.5c-10.5-0.8-20.7-3.5-30.2-8c-1.8-0.9-3-2.3-4.5-3.5
			c-5.4-4.3-11.1-8.1-16.6-12.2c-2.3-1.7-4.5-3.5-6.6-5.5c-0.6-0.6-1.1-1.2-1.6-1.9c-1.6-2.5-1-5.8,1.4-7.6c1.3-1,2.7-1.7,4.2-2.2
			c7.1-2.4,14.6-3.9,22.1-4.3c1.3-0.1,2.7,0,4,0.2c1.1,0,1.9,0.9,1.8,2c0,0.1,0,0.2,0,0.3c-0.1,1.3-0.4,2.7-0.8,3.9
			c-1.2,3.2-1.3,6.8-0.3,10c1.6,5.5,3.6,10.8,6,16c0.3,0.7,0.7,1.4,1.1,2c0.3,0.5,0.7,1,1.4,0.7s0.6-0.9,0.3-1.5s-0.6-1.4-0.9-2
			c-1.9-4-3.5-8.1-4.9-12.4c-0.3-0.6-0.4-1.2-0.4-1.8c13.2,0.3,24.4-4.7,34.7-12.4C153.8,119,152.8,120.7,152.8,122.3z"/>
		<path class="st26" d="M147.4,271.7c-5.9-10.6-12.9-20.6-18.4-31.4c-1.9-3.8-3.1-7.9-3.8-12.2c-0.2-1.7,0.2-3.4,1.2-4.8
			c5.5-8.9,10.4-18.2,14.6-27.8c0.9-1.9,1.5-3.9,2-5.9c0.6-2.7-0.4-3.8-3.1-3.6c-4.7,0.5-9.5,1.2-14.1,2.2c-4.3,1-8.7,1.6-13.2,1.8
			c-0.9,0.1-1.9,0.1-2.8-0.2c-0.2-1,0.7-1.4,1.2-2c0.9-0.9,1.7-1.8,2.4-2.9c1.1-2.2,0.4-4-2-4.7c-1.6-0.4-3.3-0.6-5-0.6
			c-2.4,0-4.8,0-7.4,0c2.7-4.8,4.8-9.6,7.1-14.3c0.4-0.8,0.8-1,1.8-0.6c6.5,2.9,13.5,3.8,20.5,4.7c10.2,1.2,20.6,1.5,30.8,0.9
			c11.3-0.5,22.3-2.3,32.9-6.4c0.8-0.3,1.4-0.8,2.1,0.4c3.3,5.5,8,9.6,12.5,14c0.6,0.6,1.2,1.2,1.9,1.7c0.8,0.6,1.2,1.6,0.9,2.6
			c-0.4,1.5,0.3,2.9,0.9,4.3c1.3,3.2,1.1,4.2-1.8,6.1c-6.4,4.1-13,7.9-20.5,9.8c-1.8,0.5-3.6,0.7-5.5,0.7c-3.5,0-5.6-2.1-3.9-5.8
			c0.6-1.2,1.1-2.4,1.7-3.6c2-4.7-0.6-7.3-4.4-7.8s-7,0.1-10.5,0.6c-5,0.7-9.8,2-14.5,3.9c-1.9,0.7-3.6,1.7-5.2,3
			c-3.8,3.2-4.3,7-1.1,10.8c3.6,4.3,7.9,8,12.7,11c3.6,2.4,7,4.9,10.4,7.4c1.2,0.9,1.4,1.6,1,3.1c-1.7,6.3-4.2,12.4-7.4,18.1
			c-2.9,5.4-5.8,10.8-8.7,16.2c-1.7,3.2-3.2,6.4-4.5,9.8C148.1,270.7,148.1,271.3,147.4,271.7z"/>
		<path class="st26" d="M179.4,205.3c5.1,0.9,9.7-0.2,14.1-2c5.4-2.2,10.7-4.9,15.6-8.1c0.5-0.4,1.1-0.7,1.7-0.8
			c0.2,0.9,0.3,1.9,0.2,2.8c0,3,0,6,0.1,9c0,0.7,0,1.3,0.1,2c0.1,0.7,0.6,1.3,1.4,1.1c0.6-0.1,1-0.7,1-1.3c0-0.7,0-1.3,0-2
			c0.1-5.6-0.3-11.2-0.5-16.8c-0.1-1-0.4-2-0.8-2.9c-0.3-0.8-0.6-1.5-0.9-2.4c-0.3-1.4,0-1.8,1.4-2.2c0.6-0.2,1.1-0.3,1.7-0.3
			c5.3-0.2,10.5-0.5,15.8-0.6c2-0.2,4,0,6,0.4c1.9,0.6,2.3,1.5,1.2,3.1c-0.4,0.6-0.9,1.2-1.4,1.7c-1.2,1.3-2,2.9-2.3,4.7
			c-0.7,4.6-1.9,9-2.9,13.5c-0.1,0.5-0.2,1-0.3,1.5c-0.1,0.8,0,1.6,1,1.7c0.8,0.1,1.2-0.4,1.4-1.1s0.4-1.3,0.5-1.9
			c0.7-3.5,1.5-7.1,2.2-10.6c0.4-2,0.4-1.9,2.6-2c5.4-0.1,10.9-0.7,16.2-1.6c3.7-0.7,7.4-1.2,11.2-1.8c0.6-0.1,1.2-0.1,1.8-0.1
			c0.8,0,1,0.4,1,1.1c-0.1,0.9-0.4,1.8-0.9,2.6c-5.8,10.6-11,21.5-16.9,31.9c-0.5,1.1-1.5,2-2.7,2.4c-4.8,1.7-9.8,2.9-14.8,3.7
			c-9.1,1.6-18.3,2.2-27.5,2c-8-0.2-16-1.4-23.7-3.8c-5-1.7-9.7-4.3-13.8-7.5c-3.2-2.4-6.5-4.8-9.8-7c-3.6-2.5-7-5.2-10.1-8.3
			c-0.9-0.9-1.7-1.8-2.4-2.9c-1.5-2.2-1.4-3.9,0.3-6c1.4-1.6,3.1-2.8,5.1-3.5c4.8-2,9.8-3.4,15-4.1c3.2-0.5,6.4-1.1,9.7-0.5
			c2.9,0.5,3.7,1.9,2.7,4.6c-0.3,0.7-0.6,1.4-0.9,2.1c-1.8,3-1.8,6.2-1.1,9.5c0.6,2.8,1.6,5.4,2.5,8.1c0.2,0.5,0.4,0.9,0.7,1.3
			c0.3,0.5,0.8,0.7,1.3,0.4c0.5-0.2,0.8-0.7,0.7-1.2c-0.2-0.7-0.4-1.5-0.6-2.2C180.4,209.1,179.8,207.2,179.4,205.3z"/>
		<path class="st26" d="M54.3,205.4c5,0.5,10.1-0.1,14.9-2c5.6-2,11-4.6,16-7.8c0.1-0.1,0.3,0,0.7,0c0,3.4,0.1,6.8,0.1,10.2
			c0,1.7,0.1,3.3,0.3,5c0.1,0.4,0.2,0.8,0.3,1.2c0.2,0.3,0.5,0.5,0.8,0.4c0.3,0,0.6-0.2,0.8-0.6c0.1-0.4,0.1-0.8,0.1-1.2
			c-0.6-4.5-0.3-9-0.5-13.6c-0.1-2.1-0.4-4.1,0.4-6.2c0.6-1.4-0.1-3-1-4.3c-0.5-0.7-1-1.3-1.4-1.9c0.2-0.8,0.8-0.7,1.2-0.8
			c7.2-1.6,14.5-2.8,21.9-2c0.3,0,0.7,0,1,0.1c2,0.4,2.3,1.1,1.1,2.7c-0.1,0.2-0.3,0.4-0.5,0.6c-2.9,2.2-3.7,5.4-4,8.8
			c-0.3,3.7-0.9,7.3-1.3,11c-0.1,0.4-0.1,0.8-0.1,1.2c0,0.5,0.4,1,0.9,1c0.6,0,0.9-0.4,0.9-1c0.3-2.6,0.6-5.1,0.9-7.7
			c0.2-1.7,0.4-3.5,0.6-5.2c0.1-0.9,0.3-1.4,1.4-1.3c6.3,0.4,12.5-1.1,18.6-2.3c3.5-0.7,7.1-1.1,10.6-1.7c0.6-0.2,1.3-0.1,1.8,0.3
			c-0.2,1.9-0.8,3.7-1.6,5.4c-4.2,9.6-9,18.9-14.4,27.8c-0.6,0.9-1.5,1.6-2.5,2c-6.7,3.5-13.9,5.8-21.4,6.9
			c-19.4,3-38.2,0.6-56.1-7.8c-0.9-0.4-1.8-0.9-2.5-1.6c-3.1-3.1-6.8-5.5-10.2-8.1c-3.1-2.3-6-4.9-8.7-7.6c-1.1-1.1-2-2.4-2.6-3.9
			c-0.7-1.7-0.3-3.8,1-5.1c1-1,2.1-1.9,3.4-2.5c6.6-3.4,13.8-5.3,21.2-5.6c1.4-0.2,2.9,0,4.2,0.5c2,0.9,2.8,2.2,2.4,4.4
			c-0.3,1.4-0.7,2.7-1.2,4.1c-0.9,2.5-0.9,5.2-0.1,7.6c1.6,5.2,3.7,10.2,5.8,15.2c0.1,0.2,0.1,0.3,0.2,0.5c0.3,0.6,0.7,1.3,1.5,0.9
			s0.5-1,0.3-1.6c-0.2-0.8-0.6-1.6-0.9-2.4c-1.4-3.5-2.8-7-4.2-10.5C54.3,206.7,54.2,206,54.3,205.4z"/>
		<path class="st26" d="M152.8,122.3c-0.2-1-0.2-2.1-0.1-3.1c0-0.6,0.1-1.2-0.5-1.5c0.1-0.2,0.3-0.4,0.4-0.6
			c0.5-0.3,0.6,0.2,0.6,0.5C153.1,119.1,153.4,120.7,152.8,122.3z"/>
		<path class="st27" d="M477.5,6.5c-5.3,1.3-10.6,2.3-15.8,4.1c-2.9,1-5.8,2.2-8.6,3.6c-0.8,0.4-1.6,0.9-2.4,1.4
			c-0.8,0.5-1.3,1.1-1,2.1s1.1,0.9,1.9,0.9c1.8-0.1,3.7,0,5.5,0.2c-0.5,0.8-1.3,1.3-2.1,1.4c-3.1,1-6.2,2-9.3,2.9
			c-1.2,0.3-2.4,0.9-3.4,1.6c-3.2,2.4-6.7,4.4-10.5,5.7c-0.4,0.2-0.7,0.4-1,0.7c-0.7,0-1.5,0-1.8-0.6c-0.6-1.5-2-2.1-2.9-3.2
			c2.6-6.6,6.5-12.7,11.3-17.9c2.7-2.8,5.9-5,9.5-6.4c0.5-0.2,0.6,0,0.5,0.5c-2.2,2.3-4,4.9-5.5,7.7c-0.6,1.1-1.4,2.4-0.3,3.5
			s2.4,0,3.3-0.7c6.7-4.5,14.5-7.4,22.6-8.2c3.6-0.6,7.3-0.7,11-0.2C478.8,6.6,477.8,6.1,477.5,6.5z"/>
		<path class="st1" d="M365.2,46.8c0.1-0.4,0.3-0.8,0.6-1.1l0.7,0.7l-0.6,0.5C365.7,47,365.4,47,365.2,46.8z"/>
		<path class="st1" d="M380.1,48.2c0.3,0.3,0.5,0.6,0.5,1c0.2,0.2,0.1,0.5-0.1,0.7c-0.3-0.1-0.5-0.3-0.6-0.5
			C379.9,48.9,380,48.6,380.1,48.2z"/>
		<path class="st1" d="M379.5,49.2c-0.2,0-0.5-0.2-0.5-0.4C379.3,48.8,379.5,48.9,379.5,49.2z"/>
		<path class="st27" d="M375,123.7c2.3,0,4.7-0.2,7-0.6c7.4-0.8,14.9-1,22.3-1.8c10.9-1.2,21.8-2.4,32.4-5.9
			c0.2,1.1,0.2,2.3-0.1,3.4c-1.4,11.5-1,23.1,0,34.6c0.9,9.7,1.8,19.3,2.7,29c0.5,4.5,1.2,9,2.4,13.3c0.5,1.4,0,3-1.4,3.8
			c-6.1,4.1-12.8,7.3-19.9,9.4c-3.5,1.1-7,2.1-10.6,3.1c-2.2,0.6-2.3,0.5-3.2-1.5c-2.5-5.7-3.9-11.7-5.1-17.8
			c-1.4-7.1-1.9-14.3-1.5-21.5c0.1-0.9,0.4-2.1-0.9-2.3s-1.1,1.2-1.1,2.1c-1.1,14.4,1.7,28.1,7,41.6c-0.6,0.4-1.8,0.1-2.2,1.2
			c-0.3,1-0.4,2-0.1,3c0.7,2.9,1.8,5.4,5.1,6.2c1,0.2,1,0.9,0.2,1.4c-1.5,1.1-3.1,1.9-4.8,2.6c-6.8,2.8-13.9,4.9-20.9,7
			c-10.1,2.9-20.4,4.6-30.9,5.1c-0.6,0-1.2,0-1.8,0c-2.2,0.1-3.6-0.9-4.7-2.9c-7.8-14.5-13.7-30-17.5-46.1c-0.4-1.6-0.6-3.3-0.9-4.9
			c5.3-1.4,5.4-2.6,6-8.4c0.4-3.5-0.4-7-0.6-10.5c0-0.2-0.1-0.3-0.1-0.5c-0.6-4.3-1.4-4.8-5.6-3.3c-2.1,0.7-4.2,1.6-6.4,2.4
			c-1.4,0.6-2.8,1.1-4.3,1.3c-0.6,0.2-1.1,0.4-1.1-0.6c3.1-1.8,6.5-3.1,10-4c10.7-2.6,20.5-7.5,30.2-12.6c0.6-0.3,1-0.9,1.8-0.7
			c0.6,1.1-0.1,2.1-0.4,3.1c-1.6,4.8-3.3,9.5-5.1,14.1c-1.7,4.5-0.4,8.6,1.1,12.6c0.6,1.6,1.6,1.7,2.8,0.3c2.3-2.6,4.5-5.3,7-7.9
			c0.9-1,1.5-2.3,1.6-3.6c0.6-6.6,1.6-13.1,1.7-19.7c-0.1-2.5,0.3-5,1.1-7.4c3.7-4.5,5.6-9.8,8-15
			C374.6,124.8,374.8,124.3,375,123.7z"/>
		<path class="st27" d="M375.4,115.7c15.2-1.2,30.4-2.3,45.3-5.5c5.8-1.1,11.5-2.9,17-5.1c0.9,0,0.8,0.6,0.6,1.2
			c-0.1,1.5-0.3,3-0.4,4.5c0,1.2-0.8,2.2-2,2.6c-3.3,1.3-6.8,2.3-10.3,2.9c-9.4,1.8-18.8,3-28.3,3.7c-7.3,0.6-14.6,1.3-21.9,1.9
			L375.4,115.7z"/>
		<path class="st27" d="M338.2,127.2c2.4-4,3.8-8.5,5.2-13c4.7,3,9.7,5.5,15,7.4c-2.3,2.5-5,4.7-8,6.4c-5.2,3.2-10.5,6.2-15.8,9.3
			c-0.3,0.2-0.7,0.6-1.2,0.2c1.2-2.7,2.8-5.2,3.4-8.2c0.2-0.5,0.4-0.9,0.6-1.3C337.6,127.7,337.9,127.4,338.2,127.2z"/>
		<path class="st3" d="M366.3,140.3c-0.1,6.1-0.6,12.2-1.1,18.3c-0.2,2.8-0.6,5.5-0.8,8.2c-0.1,2.1-1,4.1-2.6,5.5
			c-2.3,2.2-4.4,4.6-6.4,7.1c-0.1,0.2-0.3,0.4-0.5,0.6c-1.4,1.4-2.5,1.3-3.3-0.5c-0.7-1.6-1-3.4-1.6-5c-0.9-2.5-0.9-5.1,0-7.6
			c1.9-6.2,4.4-12.1,6.4-18.2c0.3-1,1-1.9,1.8-2.5c0.4-0.2,0.7-0.3,1,0.2c0.8,1.5-0.2,2.7-0.6,4c-0.6,1.8,0,2,1.6,1.7
			c1.9-0.3,2.9-1.2,2.9-3.3c0-1.9-0.6-3.8,0.7-5.5C364.1,141.9,365,140.7,366.3,140.3z"/>
		<path class="st27" d="M360.4,119.9c-4.7-1.4-9.3-3.4-13.5-5.9c-3.3-1.9-2.9-1.5-1.2-4.9c5.7,3.3,11.9,5.7,18.3,7.4
			C363.1,117.8,361.9,119,360.4,119.9z"/>
		<path class="st27" d="M364,143.2c-0.1,2.5-0.2,5-0.3,7.5c0,1-0.4,1.7-1.6,1.7c-1.5,0.1-3,0.6-4.8,0.6c0.7-2.3,1.4-4.5,2.1-6.7
			C361.2,145.7,362.1,143.8,364,143.2z"/>
		<path class="st28" d="M323.6,186.6c-0.8-0.6-1.8-0.7-2.8-0.5c-2.2,0.2-4.4,0.1-6.6-0.1c-0.1-1,0.5-0.6,1-0.5l6.8,0.1
			c2.5,0,2.5,0,2.7,2.5c-0.6,0.5-0.4,1.2-0.5,1.8c0,1.9,0,3.8,0,5.6c0,0.7,0.2,1.5-0.5,2.1c-0.1-2.4-0.1-4.8,0.1-7.2
			C323.9,189.1,323.7,187.9,323.6,186.6L323.6,186.6z"/>
		<path class="st29" d="M314.6,165.9c0.2,0.5,0.7,0.4,1.1,0.6c-0.7,0.7-1.5,0.4-2.3,0.4C313.5,166.1,314.1,166,314.6,165.9z"/>
		<path class="st30" d="M337.7,128.3c-0.1,0.5-0.4,0.9-0.9,1.1c-0.2-0.6-0.1-1.2,0.3-1.6C337.5,127.7,337.6,128,337.7,128.3z"/>
		<path class="st31" d="M337.7,128.3l-0.5-0.6c0-0.4,0.2-0.8,0.5-1.1c0.2,0.2,0.3,0.4,0.5,0.6C338.3,127.7,337.9,127.9,337.7,128.3z
			"/>
		<path class="st1" d="M466.8,310.8c-4-2.7-7.4-6.3-9.8-10.5c-0.5-0.9-1-1.7-1.6-2.5c-0.2-0.4-0.7-0.5-1.1-0.3
			c-0.5,0.2-0.7,0.7-0.5,1.2c0,0,0,0,0,0c0.2,0.5,0.4,0.9,0.6,1.3l2,3.5c0.1,0.5-0.1,0.8-0.6,0.6c-2.5-2.6-4.7-5.5-6.5-8.5
			c-3.7-5.7-6.4-11.9-9.4-18c-0.3-0.9-0.8-1.7-1.4-2.4c-0.4-0.4-0.9-0.5-1.4-0.2c-0.5,0.3-0.5,0.8-0.2,1.3c4.1,8.2,7.4,16.9,13,24.3
			c0.6,0.6,0.9,1.4,1,2.2c0.4,6.5,3.3,12,6.5,17.5c1.6,2.8,3.4,5.6,5,8.4c0.3,0.4,0.4,0.9,0.2,1.3c-2.1-0.9-4.1-2-6-3.3
			c-0.7-0.4-1.4-1.3-2.2-0.5s0.1,1.5,0.8,2c0.9,0.6,0.7,1.9,1.6,2.5c0.1,0.5-0.1,0.8-0.6,0.6c-8.2-1.9-15.5-5.8-22.4-10.4
			c-2.8-1.8-5.3-4-8.1-6c-1.2-0.8-1.9-2.1-1.9-3.5c-0.3-4.3-0.4-8.7-0.1-13c0.4-7.7,1.5-15.3,3.4-22.8c1.5-5.6,4.4-10.6,6-16.2
			c1,0.4,1.2,1.2,1.6,1.8c1.7,2.7,3.4,5.4,5.1,8.1c0.5,0.8,1.1,1.6,1.8,2.4c1.6,1.7,2.2,1.6,3.5-0.5c2.6,4.5,5.1,9,7.7,13.5
			c2,3.5,4.5,6.7,6.5,10.2c2.8,5,5.9,9.9,8.2,15.2C467.7,310.7,467.4,310.9,466.8,310.8z"/>
		<path class="st27" d="M448.2,197.3c1.1,1.5,1,3.1,1.5,4.5c0.3,0.8-0.2,1.3-0.8,1.6c-1.2,0.7-2.4,1.5-3.7,2.2
			c-7.8,3.9-15.6,8-23.6,11.6c-3.5,1.7-7.3,3-11.1,3.8c-2.7,0.5-5.2-1.2-5.8-3.9c-0.1-0.4-0.1-0.9-0.1-1.3c0-0.6,0.4-0.7,0.8-0.8
			c1-0.2,2-0.2,3-0.4c10.5-2.5,20.9-5.4,30.3-11.1c2.8-1.7,5.2-4,8.1-5.4C447.3,197.8,447.7,197.5,448.2,197.3z"/>
		<path class="st32" d="M315.2,185.4l-1,0.5c-1.3,0.3-2.4-0.4-3.6-0.4c-0.2-0.1-0.2-0.2-0.2-0.3s0.1-0.1,0.2-0.1
			C312.2,185.1,313.7,184.7,315.2,185.4z"/>
		<path class="st33" d="M455.8,304.2c0.2-0.2,0.4-0.4,0.6-0.6c0.6,0.6,1.2,1.2,1.5,2c0.2,0.2,0.1,0.5-0.1,0.7
			C457,305.8,456.3,305.1,455.8,304.2z"/>
		<path class="st34" d="M466.8,310.8l0.7-0.7c0.4,0.3,0.7,0.9,0.3,1.2S467.1,311.2,466.8,310.8z"/>
		<path class="st35" d="M456.3,331.4l0.6-0.6c0.4,0.1,0.9,0.5,0.8,0.8C457.3,332.2,456.7,331.8,456.3,331.4z"/>
		<path class="st36" d="M438.4,106.2c-0.2-0.4,0-1-0.6-1.2c0.2-0.3,0.5-0.5,0.8-0.3C439,105.2,438.8,105.7,438.4,106.2z"/>
		<path class="st37" d="M310.6,185.1c0,0.1,0,0.3,0,0.4c-0.4,0-0.8,0.1-1.1-0.2C309.8,184.9,310.3,185,310.6,185.1z"/>
		<path class="st38" d="M457.9,306.3c0-0.2,0.1-0.5,0.1-0.7c0.3,0.1,0.5,0.4,0.4,0.7c0,0,0,0,0,0
			C458.3,306.5,458.1,306.5,457.9,306.3z"/>
		<path class="st27" d="M314.6,117.6c-1.5-5.2-1.2-10.4-0.3-15.5c0.5-3.4,1.4-6.7,2.7-9.9c3.4-8.3,9.3-14.4,16.7-19.2
			c7-4.5,14.4-8.5,21.2-13.4c2.9-2.1,5.7-4.2,7.8-7.3c1.8-2.4,4.3-4.1,7.2-4.8c1.4-0.4,2.9-0.2,4.1,0.5c1,0.6,2,1.3,2.9,2
			c6.6,5.9,14.4,8.6,23,9.5l5.1,0.5c-0.2,0.9-0.7,1.7-1.3,2.3c-6.4,8.2-14.6,14.9-23.9,19.6c-8.1,4-16.8,6.8-25.7,8.2
			c-8,1.4-15.7,4.4-22.6,8.7c-6.3,4-11.6,9.5-15.2,16.1C315.7,115.7,315.2,116.7,314.6,117.6z"/>
		<path class="st27" d="M370,88.3c14.5-5.1,26.5-13.1,35.9-25.5c0.2,1.6,0.1,3.3-0.3,4.9c-0.8,4.3-2.1,8.5-3.8,12.4
			c-0.1,0.2-0.1,0.5-0.3,0.7c-2.1,1.9-4.4,3.6-6.4,5.7c-0.4,0.4-0.9,0.1-1.4-0.2c-1.1-0.6-2.3-1.1-3.5-1.4c-3.2-1.1-6.7-0.2-9,2.3
			c-1.4,1.5-2.5,3.1-3.4,4.9c-0.5,1.2-1.8,1.7-3,1.3c-0.4-0.2-0.8-0.5-1-0.8C372.6,91,371.3,89.6,370,88.3z"/>
		<path class="st1" d="M403.8,44.6c-7.1-1.2-13.8-2.5-20.7-3.5c2.6-2.8,5.4-5.3,9.3-5.8c1.9-0.2,3.9,0.4,5.5,1.5
			C400.8,38.5,402.3,41.3,403.8,44.6z"/>
		<path class="st39" d="M398.1,87c-1.9,4.2-3.9,8.3-7.5,11.4c-1.5,1.2-3.1,2.3-4.9,3c-2.9,1.3-5.1,0.8-7.2-1.7c-1-1.2-1.9-2.6-2.6-4
			c0.5-0.3,1.1-0.4,1.7-0.2c6.7,0.7,12.3-1.6,17.3-5.9c0.9-0.8,1.9-1.7,2.8-2.5C397.8,86.8,397.9,86.8,398.1,87z"/>
		<path class="st27" d="M400.2,49.6c-2.7,4-6.1,5.5-10.4,4.6c-3.6-0.7-7.7-4.4-8-8c-0.1-0.8-0.6-1.7,0.3-2.3
			c0.5-0.3,2.8,0.5,3.1,1.1s0.4,0.9,0.6,1.4c1.5,3.2,3.9,4.4,7.3,3.7c0.7-0.1,1.5-0.3,2.2-0.6C397.6,48.7,397.6,48.7,400.2,49.6z"/>
		<path class="st27" d="M392.9,88.4c-3.6,3.3-8.3,5.1-13.2,5.2C381.3,87.1,386.7,84.9,392.9,88.4z"/>
		<path class="st1" d="M356.2,44.2c0.7-1.5,1.8-2.9,3.1-4c0.7-0.7,1.7-0.8,2.5-0.3c0.8,0.8,1.3,1.9,1.3,3.1c-0.2,0.5-0.6,0.5-1,0.6
			L356.2,44.2z"/>
		<path class="st27" d="M360.4,51.3c-1.7,1.2-4,0.9-5.2-0.8c-0.1-0.1-0.2-0.3-0.3-0.4c-0.2-0.3-0.4-0.6-0.1-0.9s0.8-0.2,1,0.1
			c0.8,1.3,2.5,1.9,3.9,1.4C360.3,50.5,360.5,50.7,360.4,51.3z"/>
		<path class="st40" d="M360.3,50.2c0.7-0.4,0.3-1.6,1.4-2c0.4,0.9-0.2,1.5-0.6,2.1C360.8,50.5,360.5,50.5,360.3,50.2
			C360.3,50.3,360.3,50.3,360.3,50.2z"/>
		<path class="st41" d="M398,86.4c0.1-0.4,0.4-0.8,0.8-0.6s0.1,0.5-0.2,0.6S398.2,86.7,398,86.4z"/>
		<path class="st42" d="M360.3,50.2l0.8,0.1c-0.1,0.4-0.3,0.8-0.7,0.9c-0.1-0.3-0.3-0.5-0.6-0.6L360.3,50.2z"/>
		<path class="st43" d="M398,86.4h0.6c-0.1,0.3-0.1,0.6-0.5,0.5l-0.2,0.1l-0.2-0.1L398,86.4z"/>
		<path class="st1" d="M365.2,46.8h0.7c-0.2,0.3-0.4,0.5-0.7,0.4S365,46.9,365.2,46.8z"/>
		<path class="st1" d="M380.5,49.9l0.1-0.7c0.3,0.2,0.5,0.5,0.3,0.8C380.8,50.2,380.6,50.1,380.5,49.9z"/>
		<path class="st27" d="M477.5,6.5l1-0.9c0.4-0.1,0.9-0.1,1.3,0.3C479.1,6.3,478.3,6.6,477.5,6.5z"/>
		<path class="st44" d="M447.4,3.5c0-0.3-0.3-0.4-0.5-0.5c0.3-0.4,0.7-0.8,1.1-0.3C448.2,3.1,447.8,3.5,447.4,3.5z"/>
		<path class="st45" d="M444.2,11.6l0.7,0.1c-0.2,0.3-0.5,0.5-0.8,0.3C444,11.9,444,11.7,444.2,11.6z"/>
		<path class="st46" d="M400.1,291.6c0.2-0.2,0.4-0.4,0.5-0.5c0.4,0.5,0.9,1.1-0.1,1.6L400.1,291.6z"/>
		<path class="st3" d="M80.7,310.7c0-1.1,0.3-2.3-0.1-3.2c-0.5-1.1-2-0.6-3-0.9c-3.3-0.9-6.2-2.8-8.2-5.4c-0.4-0.5-0.9-1.1-0.2-1.8
			s1.4-0.2,1.9,0.4c1.8,2.3,4.2,3.9,7,4.6c0.6,0.1,1.1,0.2,1.7,0.3c0.7,0.1,1-0.1,1.1-0.9c0.3-4.3,0.6-8.5,0.9-12.8
			c0.2-0.7-0.3-1.4-1-1.6c0,0-0.1,0-0.1,0c-1.9-0.5-3.7-1-5.6-1.5c-4.8-1.4-5.6-4.1-2-7.7c2.3-2.4,5.3-4.2,8.5-5c1-0.1,1.7-1,1.6-2
			c0,0,0-0.1,0-0.1c0-1.5,0-3,0-4.5c0-0.7,0-1.5,0.9-1.5s1.1,0.7,1.1,1.4c0,1.5,0.1,3,0,4.5c-0.1,1.2,0.4,1.5,1.6,1.6
			c3.7,0.1,7.3,1.8,9.6,4.8c0.4,0.4,0.7,0.9,1,1.4c0.3,0.5,0.2,1.2-0.3,1.6c-0.7,0.4-1-0.1-1.4-0.6c-1.8-2.9-4.8-4.8-8.2-5.1
			c-2.3-0.3-2.4-0.2-2.6,2.1c-0.2,2.6-0.3,5.2-0.6,7.8c-0.3,1.3,0.3,2.6,1.6,3c1.8,0.8,3.5,2,4.9,3.4c2,1.9,3,4.6,2.5,7.3
			c-0.4,3.2-2.8,5.7-5.9,6.4c-0.7,0.2-1.5,0.3-2.2,0.4c-2.2,0.4-2.2,0.3-2.3,2.7c0,1.3,0,2.5,0,3.8c0,0.7-0.2,1.4-1,1.5
			c-1.1,0.1-1.1-0.8-1.1-1.6C80.7,312.5,80.7,311.6,80.7,310.7z"/>
		<path class="st3" d="M206,286c-1.5,0-3,0.1-4.5,0c-3-0.2-3.9-2.3-2.3-4.7c0.9-1.2,2-2.2,3.4-3c2.9-1.8,6-3,9.3-3.6
			c1.4-0.3,1.8-0.8,1.8-2.1c0-1.5,0.2-3,0.3-4.5c0.1-0.7-0.2-1.8,0.8-1.8s1.1,1.1,1.1,1.9c0,1.1-0.1,2.2-0.1,3.3
			c-0.1,2.5-0.1,2.5,2.4,2.6c1.7,0,3.3,0.4,4.9,1.1c0.6,0.3,1.2,0.7,1.7,1.1c0.6,0.5,0.9,1.1,0.4,1.8c-0.6,0.8-1.1,0.2-1.6-0.3
			c-1-0.9-2.3-1.4-3.6-1.5c-4-0.7-4.4-0.4-4.6,3.7c-0.1,1.4-0.5,2.9-0.2,4.2c0.4,1.5,2.3,1.4,3.4,2.2c4.3,3.2,5.6,9.1,3.1,13.9
			c-1.2,2.1-3.2,3.5-5.6,4c-2.2,0.6-2.2,0.6-2.3,3c-0.1,2-0.2,4-0.4,6c0,0.2,0,0.3,0,0.5c-0.1,0.7-0.4,1.4-1.2,1.3
			c-0.7-0.1-0.9-0.7-0.9-1.3c0.1-1.4,0.1-2.8,0.2-4.3c0-0.6,0.1-1.2,0.2-1.8c0.1-3.3,0.3-2.8-2.7-3c-2.1-0.2-4.1-0.7-6-1.6
			c-0.9-0.4-1.8-1-2.4-1.8c-0.4-0.4-0.4-1.1,0-1.6c0,0,0,0,0,0c0.4-0.4,1-0.5,1.4-0.1c0,0,0.1,0.1,0.1,0.1c2.3,2.4,5.3,2.5,8.3,2.9
			c1.1,0.1,1.4-0.3,1.5-1.4c0.1-3,0.3-6,0.4-9c0.1-1.5,0.2-3,0.3-4.5c0.1-1.1-0.4-1.5-1.4-1.6l-5-0.2L206,286z"/>
		<path class="st11" d="M398.8,155.2c0.5-2.7,1.2-5.4,2.2-8c1.4-4,3.1-7.9,5.1-11.7c0.4-0.8,0.7-2.1,1.9-1.6s0.4,1.6,0,2.3
			c-2.9,6.1-5.6,12.3-6.9,19c0,0.2-0.1,0.3-0.1,0.5c-0.2,0.7-0.6,1.3-1.4,1.1S398.6,155.9,398.8,155.2z"/>
		<path class="st27" d="M362.2,165.6c0.2,1.9-0.5,3.8-1.9,5.1c-2.3,2.3-4.4,4.7-6.9,7.3c-0.6-2.3-1.3-4.4-1.8-6.6
			c-0.4-1.5,0.4-2.9,0.7-4.4c0-0.3,0.3-0.6,0.6-0.7C356.1,165.9,359.1,165.7,362.2,165.6z"/>
		<path class="st27" d="M353.4,164c0.9-2.7,1.7-4.9,2.5-7.2c0.3-0.8,0.6-1.3,1.5-1.4c1.9-0.1,3.7-0.8,5.8-0.7c0,2.6-0.4,5.1-0.7,7.7
			c0,0.5-0.4,0.9-0.9,0.9c0,0-0.1,0-0.1,0C359,163.5,356.3,163.7,353.4,164z"/>
		<path class="st47" d="M323.6,186.6l0.2-0.2L323.6,186.6L323.6,186.6z"/>
		<path class="st6" d="M376.9,56.2c1.4,0,2.8,0.4,4.1,1c0.6,0.3,1,0.8,0.6,1.4c-0.3,0.5-0.7,0.5-1.3,0.4c-2.9-0.5-3-0.3-3.7,2.4
			c-0.1,0.6-0.3,1.2-0.9,1.4c-0.7,0.2-1.4-0.1-1.8-0.7c-1.1-1.1-1.4-2.7-0.9-4.1C373.7,56.3,375.3,56.2,376.9,56.2z"/>
		<path class="st26" d="M84.1,291c2.2,0.9,4.1,2.3,5.7,4c3.1,3.7,1.4,8.7-3.3,9.7c-3.5,0.7-3.5,1.1-3.2-2.8
			C83.5,298.3,83.6,294.8,84.1,291z"/>
		<path class="st26" d="M82.8,277.1c0.1,3.6-0.4,6.9-0.7,10.5c-2.6-0.7-5-1.3-7.4-2c-1.8-0.6-2.1-1.5-0.8-2.9
			C76.2,279.8,79.3,277.9,82.8,277.1z"/>
		<path class="st26" d="M213.9,302.2c0.3-5,0.2-10,0.8-14.9c3.9,1.1,6.5,5,5.8,9C220.1,299.9,217.7,302,213.9,302.2z"/>
		<path class="st26" d="M200.8,283.5c1.4-3,6.3-5.7,12.3-6.8c0.1,2.2,0,4.5-0.4,6.6c0,0.5-0.3,0.8-0.8,0.7c-3.5-0.6-7,0-10.5-0.2
			C201.2,283.8,201,283.6,200.8,283.5z"/>
	</g>
</g>
</svg>
