<?xml version="1.0" encoding="utf-8"?>
<!-- Generator: Adobe Illustrator 23.0.2, SVG Export Plug-In . SVG Version: 6.00 Build 0)  -->
<svg version="1.1" id="Layer_1" xmlns="http://www.w3.org/2000/svg" xmlns:xlink="http://www.w3.org/1999/xlink" x="0px" y="0px"
	 viewBox="0 0 509.4 423.9" style="enable-background:new 0 0 509.4 423.9;" xml:space="preserve">
<style type="text/css">
	.st0{fill:#38A1FC;}
	.st1{fill:#E1F0FF;}
	.st2{fill:#1E2319;}
	.st3{fill:#010101;}
	.st4{fill:#020202;}
	.st5{fill:#030303;}
	.st6{fill:#040404;}
	.st7{fill:#050505;}
	.st8{fill:#070707;}
	.st9{fill:#090909;}
	.st10{fill:#060606;}
	.st11{fill:#101010;}
	.st12{fill:#121212;}
	.st13{fill:#0D0D0D;}
	.st14{fill:#818181;}
	.st15{fill:#949494;}
	.st16{fill:#B6C5D7;}
	.st17{fill:#000101;}
	.st18{fill:#000001;}
	.st19{fill:#4B8EE2;}
	.st20{fill:#010203;}
	.st21{fill:#020204;}
	.st22{fill:#010304;}
	.st23{fill:#030508;}
	.st24{fill:#3A6CAC;}
	.st25{fill:#FFD574;}
	.st26{fill:#FFFFFF;}
	.st27{fill:#4481CE;}
	.st28{fill:#BED6F4;}
	.st29{fill:#476285;}
	.st30{fill:#1E242B;}
	.st31{fill:#294E7D;}
	.st32{fill:#4077BE;}
	.st33{fill:#3868A6;}
	.st34{fill:#35629D;}
	.st35{fill:#7C7C7C;}
	.st36{fill:#152941;}
	.st37{fill:#355D8F;}
	.st38{fill:#FEFEFE;}
	.st39{fill:#8D8D8D;}
	.st40{fill:#414141;}
	.st41{fill:#A1A1A1;}
	.st42{fill:#A3A3A3;}
	.st43{fill:#515151;}
	.st44{fill:#4A4A4A;}
	.st45{fill:#284B76;}
	.st46{fill:#4B8FE1;}
	.st47{fill:#010100;}
</style>
<title>Asset 233</title>
<g>
	<g id="Layer_1-2">
		<path class="st0" d="M471.6,378.9c-2.1-2.8-4-5.6-4.7-9c-0.3-1-0.1-2.1,0.7-2.8c0.9-0.7,1.9-0.3,2.8,0.1c0.7,0.4,1.3,1.1,2.2,0.9
			c-0.4-1.9-1.3-3.6-2.5-5.1c-2.4-3-6.5-3.9-10-2.1c-2.5,1.2-5,2.4-7.4,3.8c-4,2.2-7.5,1.1-10.9-1.4c-3.1-2.3-5.1-5.5-7-8.8
			c-1.2-2-2.2-4.2-2.9-6.4c2.2-0.3,4.4-0.2,6.6,0.4c-0.3-1.8-2.2-1.9-3-3c-0.6-0.8-1.1-1.5-0.7-2.5s1.2-1,2.1-1
			c1.3-0.1,2.6,0.3,3.7,1.2c0.6,0.5,1.1,1.5,2.3,1c-0.1-0.3-0.2-0.6-0.3-0.9c-3-4.5-7.3-6.9-12.5-7.9c-2.1-0.4-2.3-0.5-2.6-2.6
			c-0.3-2.3-0.8-4.6-0.9-6.9c-0.2-3.1-0.7-6.1-0.3-9.2c0.1-0.2,0.3-0.5,0.1-0.7c-2.1-2.4-2-5.3-2.4-8.2s0.1-5.7,0.2-8.5
			c0.3-7.3,1.2-14.5,2.7-21.6c1.4-6.5,4.7-12.3,6.9-18.6c0.7-1.5,0.5-3.3-0.4-4.7c-2.1-3.3-3.9-6.8-5.9-10.2c-0.6-1-0.9-2.6-2.3-2.2
			c-1.1,0.3-0.7,1.9-0.9,2.9c-0.1,0.6,0,1.4-0.8,1.7s-1.4-0.4-1.9-0.9c-0.8-0.9-1.5-1.8-2.1-2.8c-2.7-4.6-5-9.5-6.8-14.5
			c-0.5-1.4-1-2.8-3-1.8c-7.8,4.2-16.4,6.4-24.7,9c-10.6,3.2-21.6,4.9-32.6,5.1c-1.8,0.1-3.6-0.9-5.4-0.3c0.1,0.9,0.3,1.8,0.8,2.6
			c2.3,5,4.7,10,7.2,14.9c5.3,10.4,11,20.5,15.6,31.2c1.9,4.4,3.8,8.7,5.8,13.1c2.8,5.8,5,11.9,6.4,18.1c0.8,3.4,1.1,6.9,0.7,10.4
			c-1.2,7.8-8.5,13.1-16.2,11.9c-0.2,0-0.4-0.1-0.7-0.1c-2.7-0.7-5.3-1.5-7.9-2.5c-2.9-1.1-6-1.5-9.1-1.2c-3.4,0.3-6.5,1.4-8.5,4.2
			c-3,4-4.7,8.9-4.8,14c1.3-0.2,1.4-1.3,1.9-2.2c1.4-2.7,3-5.2,4.9-7.5c0.8-1.1,1.8-2,3-2.6c2.1-0.9,3.5-0.1,3.6,2.2
			c0.1,2-0.6,4-1.9,5.6c-1.5,2-3.1,3.9-4.9,5.7c-0.8,0.7-1.8,1.4-1.8,2.6c5.4,0.3,10.9,0,16.2-0.8c4.5-0.6,9.1-1.4,13.6-2.2
			c2.9-0.5,5.8-0.4,8.7-1.1c6.2-1.6,12.6-2.7,19-3.2c4.7-0.4,9.5-0.9,14.2-1.5c1.7-0.2,2.1,0.2,1.7,2c-0.8,3.7-2.8,7.1-5.7,9.5
			c-2.3,2-2.3,2.1-4.4-0.1c-2.8-3-7.1-4.2-11-3c-7.6,2.2-12.8,9.4-12.4,17.4c1.5-0.2,1.8-1.6,2.5-2.6c1.5-2.4,3.3-4.4,5.5-6.1
			c1.3-0.9,2.6-1.3,3.9-0.4s1,2.6,0.5,3.9c-0.6,1.5-1.6,2.8-2.9,3.7c-1.1,0.9-2.4,1.6-3.4,2.6c-0.8,0.8-2.2,1.3-2.2,2.8
			c4.1,0.6,8.3,0.8,12.4,1.5c3.8,0.8,7.7-0.3,10.5-2.9c1.6-1.4,2.3-3.2,3.3-4.9c1.2,0.2,2.3,0.7,3.3,1.4c2.1,1.3,3.9,2.8,4.2,5.5
			c0.2,1.9,1.5,3.5,2.6,5.1c1.6,2.6,4.6,4.1,7.6,3.9c0.4-0.5,0.1-1-0.1-1.4c-1.1-2.4-1.8-5.1-1.9-7.7c-0.4-3.1,0.3-6.2,2-8.9
			c1.2-1.8,2.7-1.7,3.4,0.1c1.4,3.6,2,7.4,1.8,11.3c-0.2,2-1.4,3.9-0.8,6c4.4-0.8,6.9-2.9,7.6-6.8c0.1-1.1,0.2-2.2,0.1-3.3
			c0.1-1.4,0.3-1.6,1.7-1.3c4.2,0.6,8.4,1.7,12.4,3.2c3.5,1.5,7.2,2.2,11,2c2.7-0.2,5.6-0.2,7.4-2.9
			C473.5,380.7,472.4,379.9,471.6,378.9z M410.9,310.2c-4.3-1.2-8.6-2.7-13-3.5c-0.3-4.6-0.1-9.3,0.4-13.9c0-0.6,0.3-1.1,0.9-1.4
			c1.6,0.4,1.8,3,3.9,2.5c0.2,0,0.4,0,0.5,0.1c2.6,3.2,5.1,6.5,6.3,10.5C410.1,306.4,411,308.2,410.9,310.2z"/>
		<path class="st1" d="M466.1,327.4c3.8,1.1,7.8,1.8,11.8,2c13.2,0.5,22.9,6.8,28.8,18.6c1.1,2.2,1.9,4.6,2.3,7.1
			c0,0.3,0.2,0.6,0.5,0.9v26.2c-1,0.9-0.5,2.2-0.8,3.3c-2.6,8.9-8.3,16.6-16,21.8c-8.5,6.1-18.1,10.4-28.3,12.8
			c-4.8,1.1-9.6,1.8-14.5,2.4c-9.1,1.2-18.3,1.6-27.5,1.4c-3.5-0.1-7-0.3-10.5-0.8c-2-0.3-4.1-0.3-6.2-0.5
			c-5.6-0.6-11.2-1.6-16.8-2.5c-7.3-1.1-14.4-2.7-21.5-4.7c-7.9-2.1-15.6-5.1-22.8-8.9c-1.8-0.8-3.7-1.5-5.7-1.9
			c-9.3-2.8-18.7-5.6-28.1-8.4c-4.2-1.3-8.5-2.4-12.9-3.2c-2.5-0.4-5-0.4-7.5-0.6c-10.1-0.7-20.2-0.5-30.4-0.6c-2.6,0-5.2,0-7.8,0
			c-3.7,0-7.3,0.3-10.9,0.9c-3.5,0.5-7.1,0.7-10.7,1.1s-7.1,0.9-10.6,1.4c-3.2,0.4-6.4,0.7-9.7,1.1l-10.9,1.4
			c-3.3,0.4-6.6,0.8-9.9,1.1c-4,0.5-7.9,1-11.9,1.4c-2.1,0.2-4.2,0.4-6.2,0.5c-3.4,0.1-6.8,0.5-10.2,0.7c-2.7,0.1-5.5,0.3-8.2,0.8
			c-2,0.3-4,0.5-6,0.5c-3,0.2-6,0.5-9,0.7c-3.4,0.3-6.9,0.1-10.2,0.8c-0.3,0.1-0.7,0.1-1,0.1c-6.6-0.2-13.2,1-19.8,0.4
			c-4.7-0.4-9.5-0.3-14.2-0.8c-5.1-0.5-10.1-1-15.1-1.7c-6.6-0.9-13.1-2.3-19.5-4.2c-6.9-1.8-13.6-4.1-20.2-6.7
			c-7.5-3-14.5-7.3-20.5-12.7c-3.4-3.1-6.5-6.5-9.2-10.2C3.7,362.2,1,355,0.2,347.5c-1-8.5,0.9-17,5.3-24.3c3-5.1,6.9-9.5,11.6-13
			c1.2,1.6,1,3.5,1.2,5.3c1.3,10.2,4.5,19.6,11.3,27.5c6.8,7.7,15.4,13.6,25.1,17c13.3,4.8,27.4,6.8,41.5,5.8c9-0.5,18-2.2,26.6-5.2
			c8.2-2.8,15.7-7.2,22.2-13c1.7-1.7,3.3-3.6,4.6-5.6c1-1.4,2.1-1.9,3.4-0.3c6.9,8.6,16.6,12.8,26.5,16.5c9.6,3.4,19.4,5.8,29.5,7.1
			c19.8,2.8,37.4-2.2,52.9-14.6c10.8-8.7,17.4-20.2,20.6-33.6c0.5-2.3,1.1-4.6,1.5-6.9c0.1-0.8,0-1.8,1.1-2c0.1,0.7,0.7,1.2,1.4,1.1
			c0,0,0,0,0,0c3.6-0.2,7.2,0.4,10.7-0.4c0.7-0.1,1.3-0.1,2-0.1c3.4-0.1,6.8-0.4,10.2-0.9c3.8-0.5,7.6-0.7,11.4-1.1
			c3.4-0.4,6.8-0.9,10.1-1.2c3.6-0.4,7.3-0.9,10.9-1.3c2.9-0.3,5.8-0.1,8.7-0.8c0.2-0.1,0.5-0.1,0.7-0.1c6.7-0.1,13.3-0.8,20-0.5
			c1,0,2,0.4,3,0.5c0.8,0,1.8,0.3,2-0.9c1.2,0,1.3,1.1,1.6,1.9c3.1,7.4,5.7,14.9,6.3,23.1c0.7,9.8-8.4,18.1-18,16
			c-3-0.7-5.9-1.9-8.9-2.8c-3.6-1.2-7.5-1.2-11.1-0.1c-2.7,0.8-4.9,2.7-6.2,5.1c-1.9,3.5-3,7.3-3.4,11.2c-0.2,2.2-1.1,4.4-1.2,6.6
			c0,0.5-0.2,1.1,0.3,1.4s0.9-0.3,1.2-0.6c1.4-1.3,2.4-3,4.4-3.6c10.1,0,19.9-2,29.9-3.3c7-0.9,13.8-2.9,20.8-3.6
			c6.8-0.7,13.6-1.3,20.5-2.1c1.9-0.2,2.8,0.6,2.4,2.5c-0.8,4.5-3.4,8.5-7.1,11.1c-1,0.8-2.5,0.7-3.3-0.3c0,0-0.1-0.1-0.1-0.1
			c-3.2-3.5-7-4.9-11.5-3.4c-4.8,1.5-8.6,5.2-10.2,10c-0.8,2-1.2,4.2-1.2,6.4c-0.1,1.7-1,3.2-1.3,4.8c-0.2,0.8-0.3,1.8,0.6,2.2
			s1-0.6,1.5-1c0.7-0.9,1.7-1.6,2.8-2c3.8,0.1,7.5,0.5,11.2,1.1c6,1,10.8-0.4,13.8-6.1c0.3-1,1.5-1.6,2.5-1.2
			c0.2,0.1,0.3,0.1,0.4,0.2c3,1.5,5.5,3.1,6.5,6.8c1.2,4.7,4,8.3,9.4,8.8c1.7,1.4,3.3,1.3,4.6-0.5c4.8-1.2,7.1-4.3,7.2-9.2
			c0-2.1,0.8-2.6,2.9-2.3c4.1,0.6,8.2,1.7,12.1,3.3c2.8,1.1,5.8,1.8,8.8,1.9c3.1,0.3,6.2-0.6,8.7-2.5c1.7-0.3,2.4,1.2,3.4,2.1
			c0.5,0.6,1,1.1,1.4,1.8c0.4,0.5,0.9,1.1,1.7,0.7c0.6-0.3,0.6-0.9,0.7-1.5c0.1-2.9-0.6-5.9-2-8.4c-1.1-2.1-2.5-4-4.1-5.7
			c-0.8-0.8-1.5-1.8-1.9-2.9c-0.5-1.3-1.1-2.6-1.9-3.8c-2-3.3-6.2-4.5-9.7-2.8c-2.6,1.2-5.1,2.5-7.6,3.8c-3.8,2.1-7.2,1.2-10.6-1
			c-2.7-1.9-4.9-4.3-6.5-7.2c-1.3-2.2-2.5-4.5-3.6-6.9c-1-2.1-0.5-2.8,1.9-2.9c1.4,0,2.8,0.2,4.2,0.6c2.7,1,5.1,2.7,7.7,4.1
			c0.5,0.3,1,0.8,1.5,0.2s0.1-1.1-0.2-1.6c-1.3-2.3-3.6-3.9-4.9-6.2c-2.5-4.4-6.8-7.3-11.8-8c-2.5-0.4-3.5-1.6-3.9-4
			c-0.7-4.5-0.9-9-1.3-13.5c-0.1-0.7,0-1.4,0.4-1.9c0.2-0.2,0.4-0.3,0.7-0.3c0.3,0,0.5,0.1,0.7,0.2c5.8,4.2,11.5,8.6,18,11.7
			c4.3,2.1,8.8,3.7,13.4,4.8c1.6,0.4,3.1,0.8,4.2-1c0.4-0.7,1.1-0.5,1.8-0.5c2.1,0.1,2.3-0.2,1.7-2.3
			C466.1,328.8,465.6,328.1,466.1,327.4z"/>
		<path class="st2" d="M285.1,308.1c-0.8,4.3-1.8,8.7-3,12.9c-3.2,10.8-9.2,20.6-17.5,28.3c-5.8,5.4-12.7,8.9-19.8,12.2
			c-9.4,4.4-19.2,5.5-29.4,4.9c-14.6-0.9-28.9-4.2-42.3-9.9c-6.3-2.6-12.5-5.8-17.4-10.7c-1.5-1.5-2.9-3.1-4.2-4.9
			c-0.3,0.2-0.5,0.2-0.6,0.4c-4.6,7.4-11.6,11.9-18.9,16.1c-6.7,3.7-13.9,5.6-21.3,7.1c-9.2,2-18.6,2.7-27.9,2.1
			c-14.3-1.1-28-4.2-40.3-11.8c-15-9.2-23-22.6-24.8-40c-0.1-1.5-0.3-3-0.5-4.5c-0.1-4.9,0.2-9.7,0.9-14.5c1.2-7,3.1-13.9,5.5-20.6
			c3.5-9.2,7.8-18,12.9-26.3c3.8-6.8,6.4-14.2,7.6-21.9c0.4-1.7-0.2-3.5-1.6-4.6c-3-2.6-6.4-4.9-9.6-7.3c-3.3-2.5-6.4-5.2-9.2-8.1
			c-1.3-1.3-2.4-2.8-3-4.6c-1-2.5-0.4-5.3,1.5-7.2c1.2-1.2,2.5-2.2,4-3c6.9-3.5,14.4-5.5,22.2-5.8c1.2,0,2.3,0.1,3.5,0.3
			c3.9,0.7,5.8,3.7,5,7.6c-0.3,1.4-0.8,2.7-1.3,4.1c-1.3,4.1-0.3,5.4,4,5.3c3.6-0.1,7.2-0.8,10.5-2.1c4.6-1.7,9-3.7,13.2-6.1
			c1.4-0.7,2.7-1.7,3.7-3c1.2-1.2,1.3-3.1,0.2-4.4c-0.5-0.8-1.2-1.4-1.7-2.2c-0.7-0.8-0.7-2.1,0.2-2.8c0.2-0.1,0.3-0.2,0.5-0.3
			c1-0.5,2.2-0.9,3.3-1c2.5-0.5,4.9-1,7.4-1.3c0.9-0.1,1.7-0.7,2.1-1.6c3.5-6.7,6.6-13.5,9.8-20.3c0.6-1.4,1.1-2.8,1.4-4.3
			c0.5-2.3-0.4-4.8-2.4-6.1c-5.3-4-10.7-7.8-16-11.7c-2.7-2-5.3-4.1-7.7-6.4c-1.2-1.1-2-2.5-2.4-4c-0.8-3.5,0-6.4,3.1-8.6
			c1.4-1,3-1.8,4.7-2.4c7.2-2.4,14.6-3.8,22.1-4.3c1.5-0.1,3,0,4.5,0.1c2.8,0.3,3.9,1.8,3.9,4.6c-0.1,1.3-0.3,2.7-0.8,3.9
			c-0.4,1.4-0.9,2.9-1.1,4.4c-0.5,1.8,0.6,3.6,2.4,4.1c0.2,0,0.4,0.1,0.6,0.1c2.1,0.4,4.2,0.3,6.3-0.2c8.1-1.7,15.8-5,22.8-9.6
			c0.6-0.4,1.2-0.9,1.8-1.4c2.3-1.8,3-5.1,1.6-7.7c-1.8-3.9-1.5-4.7,2.8-5.6c7.8-1.7,15.7-2.4,23.7-2.3c0.8,0,1.7,0.1,2.5,0.4
			c2.4,0.8,3.1,2.6,1.8,4.7c-0.7,1-1.4,1.9-2.2,2.8c-0.6,0.6-1.1,1.3-1.6,1.9c-0.6,0.9-0.4,1.4,0.7,1.4c2.8,0.1,5.5-0.1,8.3-0.4
			c6.8-0.8,13.5-2.4,20.3-3.5c1.4-0.2,2.8-0.3,4.3-0.2c2.6,0.2,3.8,1.9,3.4,4.5c-0.4,1.6-1.1,3.2-2,4.6
			c-5.9,10.9-12.3,21.5-18.4,32.3c-0.5,0.8-0.9,1.6-1.3,2.4c-1.1,2.1-1.2,4.6-0.2,6.8c1.3,3.3,3.2,6.4,5.6,9.2
			c3.6,4,7.5,7.6,11.4,11.3c0.6,0.5,1.3,0.7,2,0.5c7.2-0.3,14.4-1.1,21.6-0.8c1,0,2,0.2,3,0.5c2.9,0.8,3.9,3.3,2.3,5.9
			c-0.5,0.7-1,1.4-1.5,2c-0.5,0.6-1.2,1.1-1.2,2.2c1.4,0.8,2.9,0.4,4.4,0.3c7.8-0.4,15.4-1.9,23.1-3.2c1.2-0.2,2.3-0.3,3.5-0.3
			c2,0,2.6,0.8,2.7,2.8c0,1.3-0.4,2.7-1,3.8c-5.7,10.3-10.5,21-16.5,31c-1.7,2.6-1.8,5.8-0.4,8.5c1.7,4,3.9,7.8,6.5,11.3
			c3.2,4.3,6.4,8.6,9.8,12.7c8.3,10.2,12.4,22,14.2,34.9C285.4,297.1,285.5,302.6,285.1,308.1z"/>
		<path class="st0" d="M346.4,106.1c1.5-3.4,2.9-6.8,4.4-10.2c0.3-0.8,1-1.6,0.5-2.6c0.2-1.2,1.2-1,2-1.1c4.5-1.1,9.2-1.8,13.7-3.1
			c1.7-0.5,3.6,0,4.8,1.4c1.9,1.9,3.5,4.1,4.8,6.4c0.5,1,1.2,2,1.8,3c3,4,6.7,4.8,11,2.4c3.1-1.6,5.8-4,7.7-7
			c4.4-7.2,8.3-14.5,10.6-22.7c0.9-3.2,1.5-6.5,1.5-9.9c0-3,0.6-3.6,3.6-4c2.3-0.4,4.6-0.8,6.9-1.2c-1.8-0.7-3.5-0.3-5.3,0.1
			c-5,1-10.2,1-15.2,0.1c-0.8-0.1-1.9-0.1-2-1.1s0.8-1.2,1.4-1.5c1.5-0.9,2.9-2.1,4-3.4c0.9-1.3,2.5-1.8,4-1.5c1.3,0.2,2.7,0.2,4,0
			c0.8,0,1.4-0.6,1.6-1.3c0.2-0.8-0.3-1.5-1.1-1.7c0,0-0.1,0-0.1,0c-3.1-0.7-4.3-3.2-5.5-5.7c-1.3-2.8-3.6-5.1-6.5-6.4
			c-2.6-1.3-5.6-1.4-8.3-0.2c-2.7,1.3-5.2,3.1-7.2,5.3c-1.4,1.5-1.5,3.5-1.5,5.4c0,0.8,0.2,1.7,0.2,2.5c0,0.4-0.1,0.8-0.3,1.1
			c-0.1,0.2-0.4,0.4-0.7,0.4c-0.4,0-0.8-0.2-1.1-0.4c-3.5-3.4-7.7-3.7-12.1-2.5c-0.4-0.1-0.7-0.4-0.9-0.7c-0.4-1.2-0.7-2.4-0.9-3.6
			c-0.5-2.3-1.6-4-4.3-3.9c-0.5,0-1-0.1-1.4-0.5c0.3-1.4,1.5-2.3,2-3.6c0-0.4-0.3-0.9,0.2-1.2c2.1-1.4,4.6-1.7,7.1-2.1
			c2.3-0.4,2.5-1.2,1.5-3.3c-0.6-1.1-2-1.8-1.9-3.3c0.8-0.2,1.2-0.8,1.8-1.3c4.6-3.9,10.1-6.5,16-7.7c2.3-0.3,4.6-0.4,7-0.1
			c-0.2,1.6-1.7,1.9-2.6,2.8c-0.3,0.4-0.8,0.7-0.7,1.3s0.7,0.6,1.2,0.7c8.3,1.2,15.2,5.3,21.3,10.9c2.3,2.1,3.4,1.7,4.1-1.3
			c1.1-4.6-1.2-8-3.9-11.3c-0.7-0.8-2.1-1.1-1.9-2.6c5.4-0.9,10.8-1.3,16.1,0.7c0.9,0.3,1.8,0.5,2.7,0.7c0.5,1.5-0.5,2.5-1.1,3.6
			c-0.9,1.5-1.5,3.2-2.2,4.8c-0.5,1-0.3,1.6,1,1.5c2,0.8,2.8,3,4.6,4c1.1,1.2,2.2,0.8,3.4,0.2c3.1-1.5,6.3-2.9,9-5.1
			c0.8-0.6,1.5-1.6,2.8-0.8c-0.3,1.1,0.7,1.5,1.2,2c2.8,2.7,5.3,5.8,7.5,9.1c2.3,3.4,3.9,7.2,4.8,11.2c0.3,1.2,0.9,2.8-0.5,3.4
			s-2-1-2.9-1.8c-0.5-0.5-0.9-1-1.3-1.5c-0.6-0.3-0.9-0.1-0.6,0.6c0.6,1.6,1.2,3.3,1.7,4.9c0.2,0.8,0.4,1.6,0.4,2.4
			c0.1,0.7,0.1,1.4-0.7,1.7s-1.2-0.2-1.6-0.8c-0.5-0.8-1.1-1.6-1.7-2.4c-0.6-0.7-1.3-1.3-2-1.9c-0.5-0.1-0.9,0-0.7,0.7
			c0.5,1.9,1.1,3.8,1.5,5.8c1,4.6,0.6,9.4-1.1,13.7c-3.3,9.4-6.2,18.9-8.5,28.5c-0.1,0.6-0.3,1.3-1,1.7c-1.3,0-2.6,0.3-3.8,0.9
			c-7,2.9-14.2,5-21.7,6.1c-6.4,1-12.7,2.2-19.1,2.8c-5.8,0.6-11.6,0.9-17.5,1.6c-1.8,0.4-3.6-0.8-4-2.6c0,0,0,0,0,0
			c-0.5-1.7-1.5-2-2.7-0.7c-4.3,4.7-9.2,4.6-14.6,2.1c-3.6-1.7-7.6-2.6-11-4.8C347.5,107.5,346.5,107.3,346.4,106.1z"/>
		<path class="st0" d="M312.9,230.8c0.3,1.6-0.1,2.1-1.4,1.9c-1.5-0.2-2.9-0.6-4.4-1c-8.9-2.8-16.9-7.9-23.3-14.7
			c-2.1-2.1-2.6-4.6-2.3-7.6c0.5-4.7,1.5-9.4,3-13.9c0.7-2.3,0.6-4.9-0.3-7.1c-0.7-1.9-1.2-3.8-1.6-5.8c-0.7-3.7,0.1-7.6,2.1-10.8
			c1.6-2.5,3.4-4.8,5.5-6.8c3.2-3.3,6.4-6.6,9.7-9.8c7.2-6.8,13-14.8,18.9-22.8c5.5-7.5,10.9-15,15.3-23.3c0-0.1,0.1-0.1,0.1-0.2
			c0.8-1.3,1.6-2.6,3.5-2.3c1.7,0.5,2.8,2,2.8,3.8c0.1,2.4,0.2,4.8,0.6,7.3c0.1,0.6,0.2,1.1,0.3,1.7c0.4,2.5-0.7,4.8-1.3,7.2
			c-0.2,0.4-0.4,0.9-0.6,1.3c-0.2,0.5-0.3,1.1-0.3,1.6c-0.3,2.7-1.7,4.8-3,7.4c8.2-4.9,16.7-8.9,23.6-15.3c0.8-0.7,1.5-1.5,2.3-2.1
			c1.6-0.8,2.4-2.4,3.8-3.4c2.6,0.2,4.3-1.6,6.2-2.9c3-2.2,3-2.2,4.5,1.1c0.3,0.7,0.9,1.2,1.2,1.9c0.3,1.7,0.4,3.5,0.2,5.3
			c-0.1,0.8-0.4,1.6-0.5,2.3c-2.3,5.9-4.5,11.9-8.7,16.9c-1.3,0.7-1.7,2.1-2.6,3.1c-1.7,0.7-2.6,2.7-4.6,3c-1.8-0.1-1.9,2-3.2,2.6
			c-8.5,4.2-16.6,9-25.8,11.6c-5.2,1.5-10.5,2.9-15.3,5.3c0.4,0,0.6-0.3,0.9-0.3c3.8-1.4,7.4-3,11.3-4.1c2.5-0.7,4.3,0.1,4.7,2.6
			c0.9,5.3,1.8,10.6,0.6,15.9c-0.8,3.6-2.5,5.2-6.4,5.5c-1.2-1.2-2.8-1.8-4.5-1.5c-4.3,0.4-8.5-0.7-12.8-0.4
			c-1.4,0.1-3.7-0.5-3.8,1.3c-0.1,1.3,2.3,1.3,3.6,1.6c3.6,0.8,7.3,1.2,11,1.1c1.6-0.1,2.3,0.7,2.4,2.2c0.1,5.5-0.3,11-1.1,16.5
			c-0.2,1.3-1.1,2-2.1,2.7c-3.6,2.5-7.7,2.7-11.8,2.8c-3.5,0.1-7,0.5-10.5,1.1c1.5,0.2,3,0.2,4.4-0.1c4.1-0.4,8.2-0.3,12.2-1
			c0.7-0.1,1.5-0.3,2.2-0.5c4.9-1.5,6.5-3.6,6.7-8.7c-0.1-1.8,0.1-3.7,0.7-5.4c0.7-2.1,0.2-4.2,0.4-6.3c0.1-1-0.2-2.2,0.7-3
			c1.4-0.2,1.4,0.9,1.6,1.8c2.8,13.2,7.7,25.7,13,38c0.4,0.8,1.1,1.6,0.4,2.6c-5.8-0.1-11.5-0.8-16.9-3.1c-0.8-0.4-1.7-0.1-2.4-0.7
			c-0.1,0.1-0.2-0.3-0.3-0.1s-0.1-0.2,0.2,0.1c0.6,0.3,1.3,0.5,1.5,1.2c1.4,1,3,1.9,4.6,2.5c0.7,0.3,1.5,0.6,1.4,1.5s-1.1,1.1-2,1.1
			c-3.2-0.1-6.3-0.6-9.3-1.5c-1.4-0.4-2.7-0.8-4.1-1.2c-0.9-0.2-1.7-0.4-2.5-0.7c-0.2-0.1-0.3-0.3-0.5-0.2c0.2,0.1,0.4,0.2,0.6,0.3
			C311.8,229.7,312.5,230.1,312.9,230.8z"/>
		<path d="M376.7,123.7c0-0.7,0.2-1.4,0.5-2.1c1.6-1,3.4-0.9,5.1-1.1c11.8-1.3,23.7-1.8,35.5-3.5c5.3-0.7,10.6-1.8,15.7-3.2
			c5-1.3,5.4-1.8,5.9-6.9c-0.2-0.3,0.9-1.5-0.6-1c-6.7,2.7-13.6,4.6-20.7,5.8c-11.7,2.1-23.5,3.5-35.3,4.1c-1.9,0.1-3.8,1.1-5.6-0.2
			c-0.8-0.1-1.4-0.7-1.5-1.5c-0.1-0.9-0.4-1.7-0.8-2.5c-1.8,1.3-3.6,2.4-5.3,3.7c-1.1,0.9-2.6,1.3-3.9,0.9c-1.4,0.6-2.6,0-3.9-0.4
			c-4-1.3-7.8-2.9-11.6-4.7c-0.9-0.4-2-1.7-2.8-0.4c-0.9,1.5,0.7,2.1,1.8,2.7c3.6,2,7.3,3.7,11.1,5.2c0.7,0.2,1.5,0.3,1.8,1.2
			c-0.5,0.8-1.1,1.4-1.9,1.8c-0.8,0.2-1.7,0.1-2.5-0.3c-3.5-1.4-6.9-3-10.1-4.9c-2.1-1.3-2.1-1.3-2.9,1.2c-0.8,2.6-1.8,5.2-3.1,7.7
			c-0.4,0.8-0.7,1.7-1.7,2.1c-0.4,0-0.7-0.2-0.5-0.7c0.6-2.4,1.2-4.9,1.8-7.3c1.4-3.6,2.2-7.4,3.8-10.8c0.4-0.8,0.5-1.8,1.3-2.4
			c6,3.9,12.7,6.2,19.6,7.9c1,0.3,2.2,0,3-0.6c1.7-1.2,3.4-2.5,5-3.8s2.1-1.1,2.8,0.8c1.2,3.3,1.2,3.3,4.7,2.9
			c7.2-0.8,14.5-1.1,21.7-2.1c10.4-1.5,20.8-3,30.9-6.4c2.1-0.6,4.1-1.5,6-2.6c1-0.7,1.9-0.7,2.4,0.5c-0.1,3.6-0.7,7.2-1.6,10.7
			c-0.6,2.3-0.5,4.6-0.8,7c-0.7,7.1-0.9,14.2-0.5,21.3c0.6,14.6,2.5,29.1,3.8,43.7c0.3,3.6,1.5,7,2,10.6c0.1,0.8,0.6,1,1.2,0.6
			c0.7-0.5,1.4-0.9,2.2-1.3c0.9-0.6,2.2-0.4,2.9,0.6c0.1,0.2,0.2,0.3,0.2,0.5c0.9,1.9,1.4,3.9,1.7,6c0.1,1-0.4,2-1.4,2.5
			c-1.5,1-3.1,2-4.6,3c-0.1,0.6-0.5,1.1-1,1.3c-8.8,3.8-17.2,8.7-26.1,12.3c-1.6,0.7-3.3,1.2-5,1.7c-2.4,0.6-2.5,0.8-1.6,3.1
			c2.1,5.9,4.8,11.6,8.1,16.9c0.2-1,0.3-1.9,0.2-2.9c0.1-1.4,0.1-2.8,1.8-3.2s2.2,0.9,2.9,2c2.6,4.6,5.2,9.2,7.8,13.8
			c2.7,4.5,5.3,9.3,8.4,14c0.5-0.9,0.5-2.2,1.9-2.1s2.1,1.3,2.7,2.3c3.7,6.8,7.2,13.6,11.5,20.1c2.6,4.1,4.8,8.4,6.8,12.8
			c0.5,1.1,1.1,2.1,1.8,3c1.9,2.7,3.3,5.6,4.3,8.7c0.2,0.5,0.3,1.1,0.4,1.7c0.1,1.3-0.7,1.8-1.9,1.6c-0.9-0.3-1.7-0.7-2.4-1.3
			c-1.5-1.1-2.9-2.3-4.3-3.4c-0.7-0.6-1.3-1.5-2.4-0.4c-0.5,0.5-1.5,0-2-0.5c-1.1-1-2.2-2-3.3-3c-0.6-0.2-0.8,0-0.6,0.6
			c0.9,3.5,2.2,6.8,4.1,9.9c2,3.7,4.1,7.2,6.4,10.7c0.4,0.8,0.8,1.7,1.1,2.5s0.6,1.6,0,2.4s-1.5,0.6-2.3,0.3c-0.5-0.2-1-0.3-1.4-0.4
			c-0.5,2.3-0.7,2.6-2.9,2.2c-4.1-0.8-8.1-2-11.9-3.7c-6.5-2.8-12.6-6.5-18.2-10.9c-1.2-0.9-2.4-1.8-3.6-2.7l-0.2-0.1
			c-0.1-0.1-0.2-0.2-0.4-0.2c-2.2-2.1-2.9-4.6-3-7.6c-0.4-10.9,0.7-21.8,3.1-32.4c0.7-3.2,1.8-6.3,3.2-9.2c1.5-3.1,2.5-6.4,3.9-9.5
			c0.3-0.7,0.3-1.5-0.1-2.1c-2.6-4.4-5.1-8.9-7.6-13.3c-0.1-0.2-0.2-0.5-0.8-0.3c0,1.1,0,2.3,0,3.6c0,0.9-0.2,1.7-1.1,2.1
			s-1.6-0.3-2.2-0.9c-1-1.1-1.9-2.4-2.6-3.7c-2.7-4.8-5.1-9.8-7-15c-0.2-0.5-0.4-1.1-0.7-1.8c-8.1,4.6-16.9,6.9-25.6,9.6
			c-8.7,2.7-17.8,4.4-26.9,4.9c-1.8,0.1-3.5,0.3-5.3,0.4c-2.3,0.2-4.5-0.2-6.6-1c-2-2.5-3.2-5.4-4.9-8.1c-0.4-0.6-0.8-1.3-1.2-1.9
			c-4.5-10-8.4-20.2-11.6-30.6c-1.2-3.8-1.9-7.8-2.9-11.6c-0.4-1.9-1.6-2.5-3.5-2.3s-3.9,0-5.8,0c-1.4-0.3-2.9-0.3-4.4-0.5
			c-0.4-0.1-0.9,0.3-1.3-0.4c0.3,0.7,0.8,0.2,1.1,0.4c1.2,0,2.4,0.3,3.5,0.3c2.1,0.4,4.3,0.1,6.5,0.2c0.9-0.1,1.8,0,2.7,0.4
			c0.2,0.2,0.4,0.5,0.5,0.8c-0.5,3.5,0.2,7.1-0.4,10.6c-0.8,2.7-0.5,5.5-0.8,8.2c-0.2,1.7-1.1,3.2-2.4,4.2c-2.9,2.2-6.2,2.9-9.6,3.1
			c-4.6,0.4-9.2,0.4-13.8,1.1c-0.2,0-0.5,0-0.8,0c-0.6,0-1.2-0.1-1.3-0.8s0.5-1.1,1.2-1.3c3-0.5,6-0.7,9-0.8c2.5-0.1,5-0.2,7.5-0.6
			c2.4-0.2,4.7-1.1,6.7-2.6c0.7-0.5,1.2-1.2,1.3-2c0.5-5.7,1-11.3,1-17c0-0.2-0.1-0.5-0.2-0.7c-3.7,0.4-7.4-0.2-11-0.7
			c-1.7-0.3-3.4-0.7-5.1-1.1c-0.8-0.2-1.5-0.5-1.6-1.4s0.7-1.4,1.5-1.7c1.4-0.4,3-0.6,4.5-0.5c3.9,0.1,7.9,0.3,11.8,0.4
			c0.7,0,1.3,0,2,0c2.3-0.1,2.3-0.2,3.1,2c1,0.7,1,1.9,1.2,2.9c3.6,16.6,9.5,32.5,17.7,47.4c0.9,1.9,2.9,3.1,5.1,2.9
			c10.6-0.4,21.2-2.1,31.4-5c5.2-1.5,10.4-3.3,15.5-5c2.2-0.7,4.3-1.5,6.3-2.5c1-0.5,2.6-0.8,2.9-1.8c0.5-1.4-1.4-1.6-2.1-2.4
			c-2.6-2.7-3.2-6.3-1.1-9.4c0.4-0.7,0.4-1.5,0-2.1c-3-7.8-4.9-16-5.8-24.4c-0.6-5-0.3-10-0.2-15.1c0-1,0.3-2.2,1.6-2.2
			c1.4,0,1.7,1.2,1.7,2.3c0.1,2.8,0,5.5,0.1,8.3c0.4,10.2,2.4,20.3,6.1,29.9c0.7,2,1.9,2.6,3.9,2c9-2.7,18-5.2,26.1-10.2
			c0.9-0.6,1.8-1.2,2.7-1.8c1.2-0.7,1.7-2.2,1.3-3.5c-2.7-11.1-3-22.5-4.2-33.8c-1.1-8.8-1.6-17.7-1.6-26.5
			c-0.1-5.4,0.2-10.9,0.9-16.3c0.3-2.2-0.1-2.5-2.1-2c-12.1,3.4-24.5,4.5-37,5.6c-6.3,0.5-12.7,1-19,1.6
			C378.6,124.4,377.5,124.6,376.7,123.7z"/>
		<path class="st0" d="M466.1,299.8c-0.8-0.8-1.4-1.7-1.8-2.7c-4.4-8.7-10.1-16.6-14.5-25.2c-0.9-1.8-1.9-3.5-2.9-5.3
			c-0.3-0.5-0.6-1-1.1-1.4c-0.5-0.4-1.2-0.3-1.6,0.1c-0.2,0.2-0.3,0.4-0.3,0.7c-0.1,0.8-0.1,1.6,0,2.5c-0.8-0.6-1.4-1.3-1.8-2.2
			c-5.3-8.5-10.1-17.2-15-25.8c-0.4-0.8-0.9-1.6-1.4-2.4c-1-1.2-2.3-0.9-2.6,0.6c-0.2,1.2-0.3,2.3-0.3,3.5c-0.1,0.6-0.2,1.3-0.3,2.5
			c-4.2-6.5-7.6-13.6-10-21c0.3-0.4,0.7-0.7,1.2-0.7c3.3-0.7,6.5-1.8,9.5-3.2c6-2.7,11.9-5.4,17.6-8.5c1.8-1,3.5-2.3,5.7-2.4
			c0.6,0,0.9-0.7,1.4-1c1.1,6.5,2.4,13,3.4,19.5c0.9,5.5,1.5,11.1,2.3,16.6c1.9,12.5,3.9,24.9,7.3,37.1
			C462.5,287.3,464.3,293.6,466.1,299.8z"/>
		<path d="M360.6,37.9c4.1-1.1,5.8,1.1,6.4,4.6c0.2,1.1,0.3,2.1,0.5,3.2c-0.1,0.2-0.1,0.5-0.1,0.7c-0.2,0.2-0.2-0.2-0.1,0.2
			s0.2,0.2,0.3,0c0.2-0.1,0.4-0.2,0.7-0.2l1.6-0.6c2.6-1.1,5.5-0.8,7.8,0.8c1,0.7,2,1.5,3,2.2c0.1,0.2,0.3,0.3,0.5,0.4l0.5,0.3
			c0.1-0.1,0.3-0.1,0.4,0c0.1-0.1,0.1-0.3,0-0.4c0,0,0,0-0.1,0c0-0.3-0.1-0.6-0.2-0.9c-0.3-1.7-0.3-3.3-0.2-5
			c0.1-1.4,0.7-2.7,1.7-3.8c1.6-1.7,3.4-3.2,5.5-4.4c5-3,10.1-2.4,14.3,1.7c2,2,3.6,4.5,4.5,7.2c0.3,0.9,1.1,1.6,2.1,1.8
			c0.6,0.2,1.3,0.4,1.9,0.7c1,0.5,1.9,1.2,1.7,2.5c-0.2,1.1-1.1,1.9-2.3,2.1c-1.5,0.3-3,0.2-4.5-0.2c-1.1-0.4-2.4,0-3,1
			c-1.6,2-3.6,3.6-6,4.6c0.6,0.8,1.4,0.6,2.1,0.7c5.2,1,10.5,0.9,15.7-0.3c1.4-0.3,2.8-0.4,4.2-0.5c0.8,0,1.9-0.2,1.9,1
			c0,1-0.9,1.1-1.7,1.1c-2.6,0.1-5.1,0.9-7.7,1.1c-1.4,0.1-1.9,0.7-1.9,2c-0.3,13.1-6.1,24.1-12.8,34.9c-2.2,3.4-5.5,6-9.3,7.4
			c-3.1,1.4-6.7,0.6-8.9-2c-1.2-1.5-2.3-3.1-3.2-4.8c-1.3-2.3-2.8-4.4-4.6-6.2c-0.9-1.1-2.5-1.6-3.9-1.1c-5.2,1.8-10.8,2.3-16.1,3.7
			c-6.4,1.7-12.5,4.4-18,8c-6.9,4.5-11.6,11-15.4,18.2c-0.5,0.9-0.6,2.4-2,2.3s-1.5-1.6-1.7-2.7c-1.5-6.1-1.1-12.3-0.1-18.4
			c2.3-13.7,10-23.4,21.6-30.4c4.2-2.6,8.3-5.2,12.5-7.9c2-2.3,4.9-3.4,7.2-5.3c1-0.7,2-1.5,2.8-2.3c-1.9-1.4-4-2.5-4.5-5.1
			c-1-0.6-2.1-0.1-3.2-0.3c-0.6-0.1-1.3-0.1-2-0.3c-0.6-0.1-1.1-0.6-1.1-1.2c-0.1-0.6,0.3-1.2,0.8-1.4c0.9-0.4,1.9-0.7,2.8-1
			c0.7-0.2,1.5-0.3,2.2-0.4c1.4,0,2.7-0.9,3.1-2.3C357.4,40.8,358.9,39.1,360.6,37.9z"/>
		<path class="st3" d="M447.8,25.3c-1.3,0.4-2.4,1.1-3.4,2c-2.9,2.2-6.2,3.9-9.6,5.1c-1.2,0.5-2.1,0.4-2.3-1.2c0-1,0.8-1.2,1.4-1.5
			c3.5-1.5,6.9-3.4,10.1-5.6c2.8-1.9,6.1-2.6,9.4-3.5c1.2-0.3,2.3-0.7,3.5-1.1c-1.4-0.2-2.4,0-3.5-0.2c-1,0-1.8-0.6-2.1-1.5
			c-0.3-0.9,0.1-1.9,0.8-2.5c0.7-0.6,1.5-1.1,2.3-1.5c7.8-4,16.1-6.1,24.6-7.7c0.7-0.1,1.5,0.1,2-0.3c-0.1,0.2-0.6,0.1-1,0.2
			c-4.5-0.2-9,0.1-13.4,0.9c-6.7,1-13.1,3.5-18.8,7.3c-1.4,0.9-3.1,2.5-4.7,0.9s-0.3-3.3,0.5-4.8c1.3-2.4,2.6-4.7,4.7-6.4
			c0.1-0.1,0.2-0.2,0.3-0.2c-0.1-0.1-0.1-0.1-0.3,0.1c-8.4,3.9-13.4,10.9-17.6,18.8c-0.9,1.6-1.2,3.6-2.9,4.8
			c-0.4,0.4-0.7,1.3-1.5,0.8c-0.6-0.4-0.5-1-0.3-1.5c0.6-1.5,1.2-3.1,1.9-4.6s1.6-3.3,2.5-4.9c1.4-1.9,2.7-3.8,4.1-5.6
			c3.5-4.9,8.4-8.7,14.1-10.8c0.9-0.3,1.7-0.6,2.6-0.7c1.6-0.2,2.3,1,1.5,2.4c-0.5,0.8-1,1.5-1.7,2.2c-1.7,1.9-3.2,3.9-4.5,6
			c-0.2,0.2-0.2,0.5-0.2,0.7l-0.1,0.2l0.2-0.1c0.2-0.1,0.4-0.2,0.6-0.3c9.3-5.9,19.5-8,30.4-8.1c1.8,0,3.5,0.2,5.2,0.6
			c1.9,0.4,2.8,1.2,2.7,2.2c-0.1,1.5-1.5,1.8-2.5,2c-3.1,0.8-6.2,1.4-9.3,2.2c-5.9,1.3-11.6,3.2-17,5.8c0.9,0.7,1.8,0.5,2.6,0.8
			c1,0.3,1.9,0.7,2.1,1.9c0.2,1.1-0.3,2.2-1.3,2.7c-0.6,0.4-1.3,0.7-2,0.9C454.5,23.3,451.2,24.3,447.8,25.3z"/>
		<path d="M411.6,15.7c3.1,2.7,5.7,5.8,6.6,10.1c0.4,2.1,0.1,4.2-0.9,6.1c-0.8,1.5-1.7,1.7-3,0.6c-1.9-1.5-3.7-3.1-5.6-4.6
			c-4.4-3.5-9.6-5.9-15.1-6.8c-0.8-0.1-1.7-0.2-2.5-0.2c-0.5,0-1,0-1.3-0.6c-0.2-0.6,0-1.2,0.4-1.6c1-1,2-2,3.2-2.7
			c0.3-0.2,0.5-0.4,0.8-0.6c3.7-1.9,7.9-2.5,11.9-1.8C408,14,409.9,14.7,411.6,15.7z"/>
		<path class="st4" d="M249.1,83.2c-0.7,0-1.4,0-1.4-0.9c0-0.8,0.6-0.9,1.3-1s1.5-0.3,2.2-0.3c3.4-0.3,6.5-1.9,8.6-4.6
			c2.5-3,4.4-6.3,5.8-9.9c1.3-3.3,2.7-6.7,4.1-10c3.6-8.4,9.8-14.3,18-18.1c2.6-1.2,5.3-2,8.1-2.4c0.7-0.1,1.4-0.2,1.6,0.7
			c0.1,0.8-0.5,1-1,1.2s-1.3,0.4-1.9,0.5c-10,2.6-17.6,8.3-22.2,17.7c-1.8,3.6-3.2,7.4-4.6,11.1c-1.5,3.9-3.7,7.6-6.4,10.7
			C258,81.7,253.9,83.1,249.1,83.2z"/>
		<path class="st3" d="M369.4,24.3c1.5,1.1,2.7,2.7,3.3,4.5c0.5,1.6,0,2.3-1.6,2.5c-2.9,0.3-5.7,0.7-8.3,2.3
			c-0.1,0.4-0.5,0.4-0.8,0.5c-1.6,0.8-3,1.8-4.2,3.2c-0.3,0.4-0.9,0.5-1.4,0.3c-0.4-0.2-0.5-0.7-0.5-1.1c-0.4-4.5,4.4-11.2,8.8-12.4
			C366.3,23.6,367.9,23.7,369.4,24.3z"/>
		<path class="st5" d="M53.2,136.9c0.4-8.7,1.5-17.3,3.3-25.9c1.1-5.6,2.8-11,5.1-16.3c0.2-0.5,0.5-1.1,0.8-1.6
			c0.2-0.5,0.7-0.7,1.2-0.5c0,0,0,0,0,0c0.6,0.3,0.6,0.8,0.4,1.3c-0.1,0.5-0.3,1-0.5,1.4c-3.8,9.1-5.7,18.7-7,28.4
			c-0.7,5.3-1.2,10.6-1.4,16c-0.2,2.3,0,4.7,0.5,7c0.2,0.6,0.1,1.2-0.6,1.4s-1.1-0.3-1.3-0.9c-0.2-0.6-0.3-1.1-0.4-1.7
			C52.9,142.8,52.9,139.8,53.2,136.9z"/>
		<path class="st5" d="M145.4,85c-2.2,0.2-4.4,0-6.5-0.4c-0.4-0.1-0.8-0.2-1.2-0.4c-0.6-0.2-1.1-0.6-0.9-1.3s0.8-0.8,1.4-0.6
			c3.4,1.1,7,0.8,10.5,0.6c8.8-0.6,16.2-6.9,18.1-15.5c1-4-1.3-8.1-6.3-7.5c-0.7,0.1-1.4,0.3-1.6-0.6s0.6-1.3,1.4-1.5
			c3.9-1,8.2,2.1,8.8,6.3c0.2,2-0.1,4-0.8,5.9c-2.3,7-9.2,14.8-19.9,15C147.4,85,146.4,85,145.4,85z"/>
		<path class="st6" d="M255,157.6c0,0.7,0,1.2-0.6,1.4c-0.5,0.2-1.1-0.1-1.3-0.6c0-0.1,0-0.1-0.1-0.2c-0.2-0.6-0.3-1.1-0.5-1.7
			c-1.9-8.7-5.9-16.4-10.5-23.9c-0.3-0.5-0.6-1-0.9-1.5c-0.2-0.4-0.2-0.9,0.2-1.1c0.4-0.3,0.9-0.3,1.3,0c0,0,0,0,0.1,0.1
			c0.3,0.3,0.6,0.6,0.8,1c5,7.8,9.4,15.9,11.3,25.2C254.9,156.7,255,157.2,255,157.6z"/>
		<path class="st0" d="M353.7,49.6c1.5,1.9,2.9,4,6.1,4.7c-4,3.1-7.5,6-11.7,8.1c-0.5-2.7,0.8-4.9,1.8-7.1
			C351.1,53.2,352.3,51.4,353.7,49.6z"/>
		<path class="st7" d="M468.2,79.6c0.4-3.1,0.7-5.9,1.1-8.6c0.8-5,1.6-10.1,2.4-15.1c0.1-0.7,0.3-1.3,0.4-2s0.5-1.2,1.2-1
			s0.8,0.8,0.7,1.4c-0.3,1.6-0.6,3.1-0.8,4.7c-0.8,5.9-1.6,11.8-2.5,17.6c-0.1,0.9-0.3,1.8-0.5,2.7c-0.1,0.6-0.4,1.1-1.2,1.1
			C468.6,80.5,468.2,80.1,468.2,79.6z"/>
		<path class="st7" d="M477.1,95.5c0.8-7.8,1.4-15,2.6-22.1c0.2-0.9,0.1-2.3,1.5-2c1.1,0.3,0.5,1.4,0.4,2.2
			c-1.1,7-1.7,14.1-2.3,21.1c-0.1,0.9-0.2,1.8-0.4,2.7c-0.1,0.6-0.4,1.2-1.2,1s-0.7-0.7-0.7-1.2C477.1,96.5,477.1,95.7,477.1,95.5z"
			/>
		<path class="st8" d="M65.4,113.2c-0.4,0-0.8-0.4-0.8-0.8c0-0.6,0.1-1.2,0.3-1.7c1.4-4.2,3.2-8.2,5.5-12c0.4-0.7,0.8-1.8,1.8-1.3
			s0.4,1.4,0,2.2c-2.2,4.1-4.4,8.2-5.7,12.8C66.3,113,65.9,113.3,65.4,113.2z"/>
		<path class="st9" d="M255.3,71.7c-0.5,0-0.9-0.4-0.9-0.9c0-0.1,0-0.2,0.1-0.3c0.1-0.4,0.5-0.7,0.8-0.9c3.1-2.3,5.4-5.4,6.7-8.9
			c0.1-0.2,0.1-0.5,0.3-0.7c0.2-0.5,0.7-0.7,1.2-0.6c0,0,0,0,0,0c0.4,0.1,0.7,0.6,0.6,1c-0.1,0.4-0.2,0.8-0.3,1.2
			c-1.3,3.6-3.5,6.7-6.4,9.1C256.7,71.3,256,71.6,255.3,71.7z"/>
		<path class="st10" d="M261,149.9c0,0.5-0.1,0.9-0.5,1.1c-0.5,0.2-1,0-1.2-0.5c0,0,0,0,0,0c-0.3-0.5-0.5-1.1-0.6-1.6
			c-0.8-3.9-1.6-7.7-3.6-11.1c-0.3-0.4-0.4-1,0.1-1.4s1.1-0.1,1.5,0.4c0.1,0.1,0.2,0.3,0.3,0.4C259.3,141.1,260.1,145.5,261,149.9z"
			/>
		<path class="st9" d="M176.8,64.3c0,1.1-0.2,2.2-0.5,3.2c-0.3,0.7-0.4,1.6-1.4,1.4s-0.8-1.1-0.6-1.9c0.4-1.1,0.5-2.3,0.5-3.4
			c0-2.5-0.9-4.8-2.6-6.6c-0.5-0.5-1-1.1-0.3-1.7s1.3-0.2,1.8,0.3C175.8,58,177,61.1,176.8,64.3z"/>
		<path class="st11" d="M363.6,17.3c0.3,0,0.6,0.1,0.8,0.2c0.3,0.1,0.6,0.4,0.6,0.7c0.1,0.4-0.2,0.8-0.6,0.9
			c-0.4,0.1-0.8,0.2-1.2,0.3c-2.2,0.3-4.2,1.1-6,2.3c-0.5,0.4-1,0.7-1.5,0.1s-0.2-1.3,0.4-1.7C358.2,18.5,360.8,17.5,363.6,17.3z"/>
		<path class="st8" d="M466.4,87.9c0-1.5,0.9-2.7,2-2.7s2.4,1.6,2.4,2.8c0,1.3-1,2.4-2.3,2.4C467.3,90.5,466.4,89.4,466.4,87.9z"/>
		<path class="st12" d="M406.7,7.3c0.4,0.1,0.8,0.3,1,0.6c1.2,1.3,2.8,2.2,4.5,2.6c0.5,0.1,1,0.4,0.9,1s-0.7,0.9-1.3,1
			c-1.5,0.1-5.4-2.3-6-3.7C405.6,8,406,7.3,406.7,7.3z"/>
		<path class="st13" d="M479.2,104.6c0,1.1-0.8,2.1-1.9,2.2c-1.1,0-1.9-0.8-1.9-1.9c0,0,0,0,0,0c-0.2-1,0.5-2.1,1.5-2.3
			c1-0.2,2.1,0.5,2.3,1.5C479.2,104.3,479.2,104.4,479.2,104.6L479.2,104.6z"/>
		<path class="st14" d="M455.5,306.8c-0.4-0.3-0.7-0.9-0.3-1.2s0.8,0.1,0.9,0.6C455.8,306.2,455.7,306.5,455.5,306.8z"/>
		<path class="st15" d="M446,11.6c0-0.4,0.2-0.8,0.6-1l0.6,0.6c0,0.3-0.3,0.4-0.5,0.5C446.5,11.9,446.2,11.8,446,11.6z"/>
		<path class="st16" d="M362,34.1c0.1-0.3,0.4-0.4,0.8-0.5c0.2,0.3,0.3,0.5-0.1,0.6L362,34.1z"/>
		<path class="st17" d="M336,357.1c1.3-2.5,2.7-5,4.3-7.4c1.3-1.8,2.7-3.4,4.3-4.9c1-1.1,2.6-1.5,3.9-0.9c1.6,0.7,1.7,2.1,1.7,3.6
			c-0.1,1.8-0.8,3.6-2,5.1c-1.5,2.1-3.2,4.1-5.1,5.9c-0.9,0.7-1.6,1.5-2.2,2.4c-1.3,1.1-2.6,2.4-3.7,3.7c-0.5,0.6-0.7,1.5-1.7,1.2
			c-1.1-0.4-0.9-1.4-0.8-2.3C334.9,361.3,335.6,359.2,336,357.1z"/>
		<path class="st18" d="M473.3,382.1c-1.8-2.5-3.9-4.8-5.3-7.6c-0.9-1.6-1.6-3.3-1.8-5.1c-0.1-1.3,0-2.6,1.3-3.3
			c1.2-0.6,2.6-0.4,3.5,0.5l1.7,1.4c0.6,1.2,1.4,2.3,2.4,3.2c3.3,3.4,5.3,7.8,5.7,12.5c0,0.7,0,1.3,0,2c0,0.8-0.1,1.5-1,1.8
			c-0.9,0.3-1.9-0.1-2.3-1c-1-1.5-2.1-2.8-3.3-4.1C473.9,382.4,473.6,382.3,473.3,382.1z"/>
		<path class="st18" d="M428.8,391.7c-2.8-4.8-3.5-10.6-1.8-15.9c0.3-1.3,1-2.5,1.9-3.5c1.4-1.3,3-1.1,3.6,0.6
			c2.3,6,3.3,12,0.7,18.2c-0.2,0.3-0.3,0.6-0.5,0.9c-1.1,1.7-1.9,1.8-3.3,0.4C429.3,392.2,429,391.9,428.8,391.7z"/>
		<path class="st17" d="M380.8,378c1.1-1.6,2.1-3.2,3.2-4.7c1.4-2.1,3.3-3.8,5.5-5.1c2.4-1.3,4.8,0.1,4.9,2.9c0,1.7-0.7,3.3-2,4.5
			c-1.8,2-4.1,3.4-6.1,5.2c-0.5,0.4-1.1,0.7-1.5,1.3c-1.3,0.9-2.4,2-3.3,3.3c-0.9,1-1.6,0.8-1.9-0.4c-0.4-0.9-0.4-2-0.1-2.9
			C380,380.7,380.4,379.4,380.8,378z"/>
		<path class="st3" d="M438.6,348.5c-0.8-0.9-2-1.3-2.9-2c-0.6-0.4-1.2-1-1.5-1.6c-0.6-1.2-0.2-2.7,1-3.3c0.3-0.2,0.7-0.3,1.1-0.3
			c1.6-0.2,3.2,0.2,4.5,1.2c0.7,0.6,1.4,1.2,2.1,1.8c1.3,1.5,2.6,3,3.9,4.5c0.5,0.6,1,1.3,1.5,2c0.5,0.7,0.4,1.6-0.2,2.2
			c0,0-0.1,0-0.1,0.1c-0.7,0.6-1.2,0.2-1.8-0.2C443.8,351.2,441.2,350,438.6,348.5z"/>
		<polygon class="st19" points="426.6,316.9 426.7,316.9 426.8,317 426.6,317.1 		"/>
		<path class="st1" d="M410.9,310.2c1.2,3.6,1.6,7.5,2.3,11.2c0.8,5.1,1.4,10.2,1.6,15.4c0.2,2.6-0.2,2.9-2.9,2.3
			c-2.9-0.7-5.4-2.5-6.9-5c-3.1-4.5-5.1-9.6-5.8-15c-0.4-3-0.8-5.9-1.2-8.9c-0.2-1.2-0.3-2.3-0.1-3.5c0.1-0.1,0.3-0.3,0.4-0.3
			C402.7,307,407.1,307.8,410.9,310.2z"/>
		<path class="st20" d="M402.8,294.1c-0.6,1-1.3,0.5-1.7-0.1c-0.7-0.9-1.3-1.8-2-2.8c-3.3-5.4-5.5-11.2-7.9-17
			c-2.2-5.4-4.5-10.8-8.2-15.4c-0.4-0.5-0.7-1-0.2-1.6s1.3-0.3,1.7,0.2c0.5,0.6,1,1.1,1.4,1.8c2.7,4.1,5,8.5,6.9,13.1
			c2.1,4.9,3.9,9.9,6.5,14.6c0.5,0.9,1,1.7,1.5,2.6c0.7,0.4,1.2,1,1.5,1.7c0.2,0.4,0.4,0.8,0.6,1.2
			C403.1,293.1,403.3,293.6,402.8,294.1z"/>
		<path class="st21" d="M402.8,294.1c0-0.5-0.2-1-0.5-1.5c0.4-0.7-0.1-1.1-0.3-1.7c-0.5-0.7-0.3-1.6-0.7-2.4
			c-1.5-4.5-2.5-9.2-4.3-13.6c-0.1-0.3-0.2-0.6-0.3-1c-0.1-0.5-0.1-1.1,0.4-1.3c0.7-0.3,1.1,0.1,1.4,0.7c0.6,1.5,1.2,2.9,1.7,4.4
			c0.8,2.5,1.5,5,2.3,7.4c1.8,5.9,4.7,11.5,8.3,16.5c1.4,1.8,1.2,2.1-1.1,2.7c-2-3.3-4.3-6.4-6-9.8
			C403.6,294,403.3,294.1,402.8,294.1z"/>
		<path class="st22" d="M379,273.7c-0.1,0.8-0.6,1-1.2,0.9c-0.7-0.2-1.2-0.5-1.7-1c-5.8-4.7-10.9-10.2-15-16.4
			c-0.3-0.3-0.4-0.7-0.5-1.1c0-0.5,0.4-1,0.9-1c0.2,0,0.4,0,0.5,0.1c0.5,0.3,0.9,0.8,1.1,1.3c4,5.9,8.9,11.1,14.4,15.6
			C378.1,272.5,378.8,272.9,379,273.7z"/>
		<path class="st23" d="M374.2,263.5c0.5,0,0.9,0.2,1.2,0.5c3.1,2.4,6.3,4.7,9.4,7.1c0.7,0.5,1.9,1.1,1.2,2.1
			c-0.8,1.2-1.8,0.1-2.5-0.5c-2.8-2.1-5.6-4.2-8.4-6.4c-0.7-0.4-1.2-0.9-1.5-1.6C373.3,264.1,373.6,263.6,374.2,263.5z"/>
		<path class="st24" d="M401.3,288.6c0.5,0.7,0.9,1.6,1.1,2.4c0.2,0.5-0.1,0.6-0.5,0.5c-0.5-0.6-0.8-1.3-1-2
			C401.3,289.4,401.3,289,401.3,288.6z"/>
		<path class="st25" d="M126.6,236.3c5.1,11.6,12.3,22,18.6,32.8c0.5,0.9,1,1.7,1.5,2.6c3.9,6.7,7.1,13.8,9.7,21.2
			c1.9,5.8,2.7,11.9,2.2,18c-0.7,8.2-2.8,16.2-6.3,23.6c-4.3,9.3-11.4,15.5-20.1,20.3c-6.7,3.6-14,6-21.5,7.4
			c-9,2-18.2,2.8-27.4,2.2c-14.2-1.1-28-4.1-40.3-11.9c-11.2-7-18.7-16.8-21.8-29.8c-2.7-11.6-2.4-23.7,0.8-35.2
			c3.1-11.7,7.9-23,14-33.5c2.8-4.9,5.7-9.7,7.3-15.1c0.3-1,0.6-1.1,1.6-0.8c9.8,3.4,20,5.6,30.3,6.5c5.2,0.4,10.5,0.3,15.8-0.2
			c8.8-0.7,17.6-2.3,26.2-4.6C120.4,239,123.4,237.5,126.6,236.3z"/>
		<path class="st25" d="M169.3,237c0.4,0.1,0.8,0.2,1.1,0.4c8.3,3.9,17.3,5.2,26.3,6.1c9.2,0.7,18.4,0.8,27.6,0.3
			c6.9-0.2,13.9-1.1,20.6-2.8c2.8-0.7,5.6-1.7,8.2-3.1c0.9-0.4,1.3-0.3,1.8,0.5c3.7,6.8,8.5,12.8,13.4,18.8
			c8.5,10.4,12.8,22.4,14.5,35.5c1.8,13.8-1.1,26.7-7.2,38.9c-5.3,10.5-13.7,19-24.2,24.4c-5.5,2.9-11.1,5.6-17.1,7.1
			c-5.1,1.2-10.4,1.6-15.7,1.4c-14.9-0.6-29.6-3.8-43.4-9.5c-6.1-2.5-12.1-5.4-17-9.9c-1.8-1.6-3.4-3.5-4.8-5.4
			c-0.5-0.6-0.6-1.6-0.1-2.3c5.2-9.6,7.4-20,7.7-30.9c0.1-2.6-0.2-5.2-0.7-7.7c-1.7-7.4-4.4-14.6-8-21.3c-1-1.7-1.2-3.8-0.4-5.7
			c1.3-3.4,2.8-6.8,4.6-10c4.2-8,8.7-15.8,12.6-24C169,237.5,169.2,237.2,169.3,237z"/>
		<path class="st25" d="M154.6,122.3v6.5c0,0.5,0,1,0,1.5c0.1,0.8,0,1.9,1.1,1.9s0.8-1.2,0.8-2c0.1-5.6,0.1-11.2,0.1-16.8
			c-0.1-2.5-0.8-4.9-2.1-7c0.7-1,1.8-1,2.7-1.1c7.1-1.4,14.2-2.1,21.4-2.2c1.3,0,3.1-0.3,3.7,0.9s-0.9,2.4-1.8,3.3
			c-2.2,2.2-3.5,5.2-3.5,8.3c-0.3,5.1-1.1,10.1-1.7,15.2c-0.2,1.9-0.3,3.8-0.3,5.8c0,0.7,0.1,1.5,0.9,1.6c1,0.1,1.1-0.8,1.1-1.6
			c0.1-4.3,0.7-8.5,1.1-12.8c0.3-3.2,0.7-6.3,1.1-9.4c7,0.4,13.6-0.7,20.3-1.9c3.7-0.7,7.4-1.4,11.1-2c0.9-0.2,1.8-0.2,2.8-0.1
			c1.8,0.1,2.4,1,1.7,2.7c-0.4,1.1-0.9,2.2-1.5,3.2c-5.6,10.5-11.8,20.6-17.6,31c-0.7,1.2-1.7,2.1-2.9,2.6
			c-6.8,3.1-13.9,5.3-21.3,6.6c-9.2,1.7-18.6,2.2-28,1.5c-10.5-0.8-20.7-3.5-30.2-8c-1.8-0.9-3-2.3-4.5-3.5
			c-5.4-4.3-11.1-8.1-16.6-12.2c-2.3-1.7-4.5-3.5-6.6-5.5c-0.6-0.6-1.1-1.2-1.6-1.9c-1.6-2.5-1-5.8,1.4-7.6c1.2-1,2.7-1.7,4.2-2.2
			c7.2-2.4,14.6-3.8,22.2-4.2c1.3-0.1,2.7,0,4,0.2c1.1,0,1.9,0.9,1.9,2c0,0.1,0,0.2,0,0.3c-0.1,1.3-0.4,2.7-0.8,3.9
			c-1.2,3.2-1.3,6.8-0.2,10.1c1.6,5.5,3.6,10.8,6,16c0.3,0.7,0.7,1.4,1.1,2c0.3,0.5,0.7,1,1.4,0.7s0.6-0.9,0.3-1.5s-0.6-1.4-0.9-2
			c-1.9-4-3.5-8.1-4.9-12.4c-0.3-0.5-0.4-1.2-0.4-1.8c13.2,0.3,24.4-4.7,34.7-12.4C155.5,119,154.5,120.7,154.6,122.3z"/>
		<path class="st25" d="M149.1,271.7c-5.9-10.6-12.9-20.6-18.4-31.4c-1.9-3.8-3.1-7.9-3.7-12.2c-0.2-1.7,0.2-3.4,1.2-4.8
			c5.5-8.9,10.3-18.2,14.6-27.8c0.9-1.9,1.5-3.9,2-5.9c0.6-2.7-0.4-3.8-3.1-3.6c-4.7,0.5-9.5,1.2-14.1,2.2c-4.3,1-8.7,1.6-13.2,1.8
			c-0.9,0.1-1.9,0.1-2.8-0.2c-0.2-1,0.7-1.4,1.2-2c0.9-0.9,1.7-1.8,2.4-2.9c1.1-2.2,0.4-4-2-4.7c-1.6-0.4-3.3-0.6-5-0.6
			c-2.4,0-4.8,0-7.4,0c2.7-4.8,4.8-9.6,7.1-14.3c0.4-0.8,0.8-1,1.8-0.6c6.5,2.9,13.5,3.8,20.5,4.7c10.2,1.2,20.6,1.5,30.8,0.9
			c11.3-0.5,22.3-2.3,32.9-6.4c0.8-0.3,1.4-0.8,2.1,0.4c3.3,5.5,8,9.6,12.5,14c0.6,0.6,1.2,1.2,1.9,1.7c0.9,0.6,1.2,1.6,0.9,2.6
			c-0.4,1.5,0.3,2.9,0.9,4.3c1.3,3.2,1.1,4.2-1.8,6.1c-6.4,4.1-13,7.9-20.5,9.8c-1.8,0.5-3.6,0.7-5.5,0.7c-3.5,0-5.6-2.1-3.9-5.8
			c0.6-1.2,1.1-2.4,1.7-3.6c2-4.7-0.6-7.3-4.3-7.8s-7,0.1-10.5,0.6c-5,0.7-9.8,2-14.5,3.9c-1.9,0.7-3.7,1.7-5.2,3
			c-3.8,3.2-4.3,7-1.1,10.8c3.6,4.3,7.9,8,12.7,11c3.6,2.4,7,4.9,10.4,7.4c1.2,0.9,1.4,1.6,1,3.1c-1.7,6.3-4.2,12.4-7.4,18.1
			c-2.9,5.4-5.8,10.8-8.7,16.1c-1.7,3.2-3.2,6.4-4.5,9.8C149.9,270.7,149.8,271.3,149.1,271.7z"/>
		<path class="st25" d="M181.1,205.3c5.1,0.9,9.7-0.2,14.1-2c5.4-2.2,10.7-4.9,15.6-8.1c0.5-0.4,1.1-0.7,1.7-0.8
			c0.2,0.9,0.3,1.9,0.2,2.8c0.1,3,0.1,6,0.1,9c0,0.7,0,1.3,0.1,2c0.1,0.7,0.6,1.3,1.4,1.1c0.6-0.1,1-0.7,1-1.3c0-0.7,0-1.3,0-2
			c0.1-5.6-0.3-11.2-0.5-16.8c-0.1-1-0.4-2-0.8-2.9c-0.3-0.8-0.6-1.5-0.9-2.4c-0.3-1.4,0-1.8,1.4-2.2c0.6-0.2,1.1-0.3,1.7-0.3
			c5.3-0.2,10.5-0.5,15.8-0.6c2-0.2,4,0,6,0.4c1.9,0.6,2.3,1.5,1.2,3.1c-0.4,0.6-0.9,1.2-1.4,1.7c-1.2,1.3-2,2.9-2.3,4.7
			c-0.8,4.6-1.9,9-2.9,13.5c-0.1,0.5-0.2,1-0.3,1.5c-0.1,0.8,0,1.6,1,1.7c0.8,0.1,1.2-0.4,1.4-1.1s0.4-1.3,0.5-1.9
			c0.7-3.5,1.5-7.1,2.2-10.6c0.4-2,0.4-1.9,2.6-2c5.4-0.1,10.9-0.7,16.2-1.6c3.7-0.7,7.4-1.2,11.1-1.8c0.6-0.1,1.2-0.1,1.8-0.1
			c0.8,0,1,0.4,1,1.1c-0.1,0.9-0.4,1.8-0.9,2.6c-5.8,10.6-11,21.5-16.9,31.9c-0.6,1.1-1.5,2-2.7,2.4c-4.8,1.7-9.8,2.9-14.8,3.7
			c-9.1,1.6-18.3,2.2-27.5,2c-8-0.2-16-1.4-23.7-3.8c-5-1.7-9.7-4.3-13.8-7.5c-3.2-2.4-6.5-4.8-9.8-7c-3.6-2.5-7-5.2-10.1-8.3
			c-0.9-0.9-1.7-1.8-2.4-2.9c-1.5-2.2-1.4-3.9,0.3-6c1.4-1.6,3.1-2.8,5.1-3.5c4.8-2,9.8-3.4,15-4.1c3.2-0.5,6.4-1.1,9.7-0.5
			c2.9,0.5,3.7,1.9,2.7,4.6c-0.3,0.7-0.6,1.4-1,2.1c-1.9,3-1.8,6.2-1.1,9.5c0.6,2.8,1.6,5.4,2.5,8.1c0.2,0.5,0.4,0.9,0.7,1.3
			c0.3,0.5,0.8,0.7,1.3,0.4c0.5-0.2,0.8-0.7,0.7-1.2c-0.2-0.7-0.4-1.5-0.6-2.2C182.1,209.1,181.5,207.2,181.1,205.3z"/>
		<path class="st25" d="M56,205.4c5,0.5,10.1-0.1,14.9-2c5.6-2,11-4.6,16-7.8c0.1-0.1,0.3,0,0.7,0c0,3.4,0.1,6.8,0.1,10.2
			c0,1.7,0.1,3.3,0.3,5c0.1,0.4,0.2,0.8,0.3,1.2c0.2,0.3,0.5,0.5,0.8,0.4c0.3,0,0.6-0.2,0.8-0.6c0.1-0.4,0.2-0.8,0.1-1.2
			c-0.6-4.5-0.3-9-0.5-13.6c-0.1-2.1-0.4-4.1,0.4-6.2c0.6-1.4-0.1-3-1-4.3c-0.5-0.7-1-1.3-1.4-1.9c0.2-0.8,0.8-0.7,1.2-0.8
			c7.2-1.6,14.4-2.8,21.9-2c0.3,0,0.7,0,1,0.1c2,0.4,2.3,1.1,1.1,2.7c-0.1,0.2-0.3,0.4-0.5,0.6c-2.9,2.2-3.7,5.4-4,8.8
			c-0.3,3.7-0.9,7.3-1.3,11c-0.1,0.4-0.1,0.8-0.1,1.2c0,0.5,0.4,1,0.9,1c0.6,0,0.9-0.4,0.9-1c0.3-2.6,0.6-5.1,0.9-7.7
			c0.2-1.7,0.4-3.5,0.6-5.2c0.1-0.9,0.3-1.4,1.4-1.3c6.3,0.4,12.5-1.1,18.6-2.3c3.5-0.7,7.1-1.1,10.6-1.7c0.6-0.2,1.3-0.1,1.8,0.3
			c-0.2,1.9-0.8,3.7-1.6,5.4c-4.2,9.6-9,18.9-14.4,27.8c-0.6,0.9-1.5,1.6-2.5,2c-6.7,3.5-13.9,5.8-21.4,6.9
			c-19.5,3-38.2,0.6-56.1-7.8c-0.9-0.4-1.8-0.9-2.6-1.6c-3.1-3.1-6.8-5.5-10.2-8.1c-3.1-2.3-6-4.9-8.7-7.6c-1.2-1.1-2.1-2.4-2.7-3.9
			c-0.7-1.7-0.4-3.8,1-5.1c1-1,2.1-1.9,3.4-2.5c6.6-3.4,13.8-5.3,21.2-5.6c1.4-0.2,2.9,0,4.2,0.5c2,0.9,2.8,2.2,2.4,4.4
			c-0.3,1.4-0.7,2.7-1.3,4.1c-0.9,2.5-0.9,5.2-0.1,7.6c1.6,5.2,3.7,10.2,5.8,15.2c0.1,0.2,0.1,0.3,0.2,0.5c0.3,0.6,0.7,1.3,1.5,0.9
			s0.5-1,0.3-1.6c-0.3-0.8-0.6-1.6-0.9-2.4c-1.4-3.5-2.8-7-4.2-10.5C56,206.7,55.9,206.1,56,205.4z"/>
		<path class="st25" d="M154.6,122.3c-0.2-1-0.2-2.1-0.1-3.1c0-0.6,0.1-1.2-0.5-1.5c0.1-0.2,0.3-0.4,0.4-0.6
			c0.5-0.3,0.6,0.2,0.6,0.5C154.8,119.1,155.1,120.8,154.6,122.3z"/>
		<path class="st26" d="M479.2,6.5c-5.2,1.3-10.6,2.3-15.8,4.1c-2.9,1-5.8,2.2-8.6,3.6c-0.8,0.4-1.6,0.9-2.4,1.4s-1.3,1.1-1,2.1
			s1.1,0.9,1.9,0.9c1.8-0.1,3.7,0,5.5,0.2c-0.5,0.8-1.3,1.3-2.1,1.4c-3.1,1-6.2,2-9.3,2.9c-1.2,0.3-2.4,0.9-3.4,1.6
			c-3.2,2.4-6.7,4.4-10.5,5.7c-0.4,0.2-0.7,0.4-1,0.7c-0.7,0-1.5,0-1.8-0.6c-0.6-1.5-2-2.1-2.9-3.2c2.6-6.6,6.4-12.7,11.3-17.9
			c2.7-2.8,5.9-5,9.5-6.4c0.5-0.2,0.6,0,0.5,0.5c-2.2,2.3-4,4.9-5.5,7.7c-0.6,1.1-1.4,2.4-0.3,3.5s2.4,0,3.3-0.7
			c6.7-4.5,14.5-7.4,22.6-8.2c3.6-0.6,7.3-0.7,11-0.2C480.5,6.6,479.5,6.1,479.2,6.5z"/>
		<path class="st0" d="M367,46.8c0.1-0.4,0.3-0.8,0.6-1.1l0.7,0.7l-0.6,0.5C367.5,47,367.2,47,367,46.8z"/>
		<path class="st0" d="M381.8,48.2c0.3,0.3,0.5,0.6,0.5,1c0.2,0.2,0.1,0.5-0.1,0.7c-0.3,0-0.5-0.1-0.5-0.4L381.8,48.2z"/>
		<path class="st0" d="M381.2,49.2c-0.2,0-0.5-0.2-0.5-0.4C381,48.8,381.2,49,381.2,49.2z"/>
		<path class="st26" d="M376.7,123.7c2.3,0,4.7-0.2,7-0.6c7.4-0.8,14.9-1,22.3-1.8c10.9-1.2,21.8-2.4,32.4-5.9
			c0.2,1.1,0.2,2.3-0.1,3.4c-1.4,11.5-1,23.1,0,34.6c0.9,9.7,1.8,19.3,2.7,29c0.5,4.5,1.2,9,2.4,13.3c0.5,1.4,0,3-1.4,3.8
			c-6.1,4.1-12.8,7.3-19.9,9.4c-3.5,1.1-7,2.1-10.6,3.1c-2.2,0.6-2.3,0.5-3.2-1.5c-2.4-5.7-4.1-11.7-5.1-17.8
			c-1.5-7.1-1.9-14.3-1.5-21.5c0.1-0.9,0.4-2.1-0.9-2.3s-1.1,1.2-1.1,2.1c-1.1,14.4,1.7,28.1,7,41.6c-0.6,0.4-1.8,0.1-2.2,1.2
			c-0.3,1-0.3,2-0.1,3c0.7,2.9,1.8,5.4,5.1,6.2c0.9,0.2,1,0.9,0.2,1.4c-1.5,1.1-3.1,1.9-4.8,2.6c-6.8,2.8-13.9,4.9-20.9,7
			c-10.1,2.9-20.4,4.6-30.9,5.1c-0.6,0-1.2,0-1.8,0c-2.2,0.1-3.6-0.9-4.7-2.9c-7.8-14.5-13.7-30-17.5-46.1c-0.4-1.6-0.6-3.3-0.9-4.9
			c5.3-1.4,5.4-2.6,6-8.4c0.4-3.5-0.3-7-0.6-10.5c0-0.2-0.1-0.3-0.1-0.5c-0.6-4.3-1.4-4.8-5.6-3.3c-2.1,0.7-4.2,1.6-6.3,2.4
			c-1.4,0.6-2.8,1.1-4.3,1.3c-0.6,0.2-1.1,0.4-1-0.6c3.1-1.8,6.5-3.1,10-4c10.7-2.6,20.5-7.5,30.1-12.6c0.6-0.3,1-0.9,1.8-0.7
			c0.6,1.1-0.1,2.1-0.4,3.1c-1.6,4.8-3.3,9.5-5.1,14.1c-1.7,4.5-0.4,8.6,1.2,12.6c0.6,1.6,1.6,1.7,2.8,0.3c2.3-2.6,4.5-5.3,7-7.9
			c0.9-1,1.5-2.3,1.6-3.6c0.6-6.6,1.6-13.1,1.7-19.7c-0.1-2.5,0.3-5,1.1-7.4c3.6-4.5,5.6-9.8,8-15
			C376.3,124.8,376.5,124.3,376.7,123.7z"/>
		<path class="st26" d="M377.2,115.7c15.2-1.2,30.4-2.3,45.3-5.5c5.8-1.1,11.5-2.9,17-5.1c0.9,0,0.8,0.6,0.6,1.2
			c-0.1,1.5-0.3,3-0.4,4.5c0,1.2-0.8,2.2-2,2.6c-3.3,1.3-6.8,2.3-10.4,2.9c-9.3,1.8-18.8,3-28.3,3.7c-7.3,0.6-14.6,1.3-21.9,1.9
			L377.2,115.7z"/>
		<path class="st26" d="M339.9,127.2c2.4-4,3.8-8.5,5.2-13c4.7,3,9.7,5.5,15,7.4c-2.3,2.5-5,4.7-8,6.4c-5.2,3.2-10.5,6.2-15.8,9.3
			c-0.3,0.2-0.7,0.6-1.2,0.2c1.2-2.7,2.8-5.2,3.4-8.2c0.2-0.4,0.3-0.9,0.6-1.3C339.3,127.7,339.6,127.4,339.9,127.2z"/>
		<path class="st3" d="M368.1,140.3c-0.1,6.1-0.6,12.2-1.1,18.3c-0.3,2.8-0.6,5.5-0.8,8.2c-0.1,2.1-1,4.1-2.6,5.5
			c-2.3,2.2-4.4,4.6-6.4,7.1c-0.1,0.2-0.3,0.4-0.5,0.6c-1.4,1.4-2.5,1.3-3.3-0.5c-0.7-1.6-1-3.4-1.6-5c-0.9-2.5-0.9-5.1,0-7.6
			c1.9-6.2,4.4-12.1,6.4-18.2c0.3-1,1-1.9,1.8-2.5c0.4-0.2,0.7-0.3,1,0.2c0.8,1.5-0.2,2.7-0.6,4c-0.6,1.8,0,2,1.6,1.7
			c2-0.3,2.9-1.2,2.9-3.3c0-1.9-0.6-3.8,0.7-5.5C365.8,141.9,366.8,140.8,368.1,140.3z"/>
		<path class="st26" d="M362.1,119.9c-4.7-1.4-9.3-3.4-13.5-5.9c-3.3-1.9-2.9-1.5-1.2-4.9c5.7,3.2,11.9,5.7,18.3,7.4
			C364.8,117.9,363.6,119.1,362.1,119.9z"/>
		<path class="st26" d="M365.7,143.2c-0.1,2.5-0.2,5-0.2,7.5c0,1-0.4,1.7-1.6,1.7c-1.5,0.1-3,0.6-4.8,0.6c0.7-2.3,1.4-4.5,2.1-6.7
			C362.9,145.7,363.9,143.8,365.7,143.2z"/>
		<path class="st27" d="M325.3,186.6c-0.8-0.6-1.8-0.7-2.8-0.5c-2.2,0.2-4.4,0.1-6.6-0.1c-0.1-1,0.5-0.6,1-0.5l6.8,0.1
			c2.5,0,2.5,0,2.7,2.5c-0.6,0.5-0.4,1.2-0.4,1.8c0,1.9,0,3.8,0,5.6c0,0.7,0.2,1.5-0.5,2.1c-0.1-2.4-0.1-4.8,0.1-7.2
			C325.6,189.1,325.5,187.9,325.3,186.6L325.3,186.6z"/>
		<path class="st28" d="M316.4,165.9c0.2,0.5,0.7,0.4,1,0.6c-0.7,0.7-1.5,0.4-2.3,0.4C315.3,166.1,315.8,166,316.4,165.9z"/>
		<path class="st29" d="M339.5,128.3c-0.1,0.5-0.4,0.9-0.9,1.1c-0.2-0.6-0.1-1.2,0.3-1.6C339.3,127.7,339.3,128,339.5,128.3z"/>
		<path class="st30" d="M339.5,128.3c-0.2-0.2-0.4-0.4-0.5-0.6c0-0.4,0.2-0.8,0.5-1.1l0.5,0.6C340,127.7,339.7,128,339.5,128.3z"/>
		<path class="st0" d="M468.5,310.9c-4-2.7-7.4-6.3-9.8-10.5c-0.5-0.9-1-1.7-1.6-2.5c-0.2-0.4-0.7-0.5-1.1-0.3
			c-0.5,0.2-0.7,0.7-0.5,1.2c0,0,0,0,0,0c0.2,0.5,0.4,0.9,0.7,1.3c0.6,1.1,1.3,2.3,2,3.5c0.1,0.5-0.1,0.8-0.6,0.6
			c-2.5-2.6-4.7-5.5-6.5-8.5c-3.7-5.7-6.5-11.9-9.4-18c-0.3-0.9-0.8-1.7-1.4-2.4c-0.4-0.4-0.9-0.5-1.4-0.2c-0.5,0.3-0.4,0.8-0.2,1.3
			c4.1,8.2,7.4,16.9,13,24.3c0.6,0.6,0.9,1.4,1,2.2c0.4,6.5,3.3,12,6.5,17.5c1.6,2.8,3.4,5.6,5,8.4c0.3,0.3,0.4,0.9,0.2,1.3
			c-2.1-0.9-4.1-2-6-3.3c-0.7-0.4-1.4-1.3-2.2-0.5s0.1,1.5,0.8,2c0.9,0.6,0.7,1.9,1.6,2.5c0.1,0.5-0.1,0.8-0.6,0.6
			c-8.2-1.9-15.5-5.8-22.4-10.4c-2.8-1.8-5.3-4-8.1-6c-1.2-0.8-1.9-2.1-1.9-3.5c-0.3-4.3-0.4-8.7-0.1-13c0.4-7.7,1.5-15.3,3.4-22.8
			c1.5-5.6,4.4-10.6,6-16.2c1,0.4,1.2,1.2,1.5,1.8c1.7,2.7,3.4,5.4,5.1,8.1c0.5,0.8,1.2,1.6,1.8,2.4c1.6,1.7,2.2,1.6,3.5-0.5
			c2.6,4.5,5.1,9,7.7,13.5c2,3.5,4.5,6.7,6.5,10.2c2.8,5,5.9,9.9,8.2,15.2C469.4,310.8,469.1,310.9,468.5,310.9z"/>
		<path class="st26" d="M450,197.3c1.1,1.5,1,3.1,1.5,4.5c0.3,0.8-0.2,1.3-0.8,1.6c-1.2,0.7-2.4,1.5-3.7,2.2
			c-7.9,3.9-15.6,8-23.6,11.6c-3.5,1.7-7.3,3-11.1,3.8c-2.7,0.5-5.2-1.2-5.8-3.9c-0.1-0.4-0.1-0.9-0.1-1.3c0-0.6,0.4-0.7,0.8-0.8
			c1-0.2,2-0.2,3-0.4c10.5-2.5,20.9-5.4,30.3-11.1c2.8-1.7,5.2-4,8.1-5.4C449,197.8,449.4,197.6,450,197.3z"/>
		<path class="st31" d="M316.9,185.5l-1,0.5c-1.3,0.3-2.4-0.4-3.6-0.4c-0.2-0.1-0.2-0.2-0.2-0.3c0-0.1,0.1-0.1,0.2-0.1
			C313.9,185.1,315.5,184.7,316.9,185.5z"/>
		<path class="st32" d="M457.6,304.2l0.6-0.6c0.6,0.6,1.2,1.2,1.5,2c0.2,0.2,0.1,0.5-0.1,0.7C458.8,305.8,458,305.1,457.6,304.2z"/>
		<path class="st33" d="M468.5,310.9l0.7-0.7c0.4,0.3,0.7,0.9,0.3,1.2S468.8,311.2,468.5,310.9z"/>
		<path class="st34" d="M458,331.4l0.6-0.6c0.4,0.1,0.9,0.5,0.7,0.8C459,332.2,458.5,331.8,458,331.4z"/>
		<path class="st35" d="M440.1,106.2c-0.2-0.4,0-1-0.6-1.2c0.2-0.3,0.5-0.5,0.8-0.3C440.7,105.2,440.5,105.7,440.1,106.2z"/>
		<path class="st36" d="M312.4,185.1c0,0.1,0,0.3,0,0.4c-0.4,0-0.8,0.1-1.1-0.2C311.6,184.9,312,185,312.4,185.1z"/>
		<path class="st37" d="M459.6,306.3c0-0.2,0.1-0.5,0.1-0.7c0.3,0.1,0.4,0.4,0.4,0.7c0,0,0,0,0,0C460,306.6,459.8,306.6,459.6,306.3
			z"/>
		<path class="st26" d="M316.4,117.6c-1.5-5.2-1.2-10.4-0.3-15.5c0.5-3.4,1.4-6.7,2.6-9.9c3.4-8.3,9.3-14.4,16.7-19.2
			c7-4.5,14.4-8.5,21.2-13.4c2.9-2.1,5.7-4.2,7.8-7.3c1.8-2.4,4.3-4.1,7.2-4.8c1.4-0.4,2.9-0.2,4.1,0.5c1,0.6,2,1.3,2.9,2
			c6.6,5.9,14.4,8.6,23,9.5l5.1,0.5c-0.2,0.9-0.7,1.7-1.4,2.3c-6.4,8.2-14.6,14.9-23.9,19.6c-8.1,4-16.7,6.8-25.7,8.2
			c-8,1.4-15.7,4.4-22.6,8.7c-6.3,4-11.5,9.6-15.1,16.1L316.4,117.6z"/>
		<path class="st26" d="M371.7,88.3c14.5-5.1,26.5-13.1,35.9-25.5c0.2,1.6,0.1,3.3-0.3,4.9c-0.8,4.3-2.1,8.5-3.8,12.4
			c-0.1,0.2-0.1,0.5-0.3,0.7c-2.1,1.9-4.4,3.6-6.4,5.7c-0.4,0.4-0.9,0.1-1.4-0.2c-1.1-0.6-2.3-1.1-3.5-1.4c-3.2-1.1-6.7-0.2-9,2.3
			c-1.4,1.5-2.5,3.1-3.4,4.9c-0.5,1.2-1.8,1.7-3,1.3c-0.4-0.2-0.8-0.5-1-0.8C374.3,91,373,89.6,371.7,88.3z"/>
		<path class="st0" d="M405.5,44.7c-7.1-1.2-13.8-2.5-20.7-3.5c2.6-2.8,5.4-5.3,9.3-5.8c1.9-0.2,3.9,0.4,5.5,1.5
			C402.5,38.6,404,41.3,405.5,44.7z"/>
		<path class="st38" d="M399.8,87c-1.9,4.2-4,8.3-7.5,11.4c-1.5,1.2-3.1,2.3-4.9,3c-2.9,1.3-5.1,0.8-7.2-1.7c-1-1.2-1.9-2.6-2.6-4
			c0.5-0.3,1.1-0.4,1.7-0.2c6.7,0.7,12.3-1.6,17.2-5.9c0.9-0.8,1.9-1.7,2.8-2.5C399.5,86.9,399.7,86.8,399.8,87z"/>
		<path class="st26" d="M401.9,49.6c-2.7,4-6.1,5.5-10.4,4.6c-3.6-0.7-7.7-4.4-8-8c-0.1-0.8-0.6-1.7,0.3-2.3
			c0.5-0.3,2.8,0.5,3.1,1.1s0.4,0.9,0.6,1.4c1.5,3.2,3.9,4.4,7.4,3.7c0.7-0.1,1.5-0.3,2.2-0.6C399.3,48.7,399.3,48.7,401.9,49.6z"/>
		<path class="st26" d="M394.6,88.4c-3.6,3.3-8.3,5.1-13.2,5.2C383,87.2,388.4,85,394.6,88.4z"/>
		<path class="st0" d="M358,44.3c0.7-1.5,1.8-2.9,3.1-4c0.7-0.7,1.7-0.8,2.5-0.3c0.8,0.8,1.3,1.9,1.3,3.1c-0.2,0.5-0.6,0.5-1,0.6
			L358,44.3z"/>
		<path class="st26" d="M362.1,51.3c-2.2,1.3-4.2,0.8-5.5-1.2c-0.2-0.3-0.4-0.6-0.1-0.9s0.8-0.2,1,0.1c0.8,1.3,2.5,1.9,3.9,1.4
			C362,50.5,362.2,50.8,362.1,51.3z"/>
		<path class="st39" d="M362,50.3c0.7-0.4,0.3-1.6,1.4-2c0.4,0.9-0.2,1.5-0.6,2.1C362.6,50.6,362.2,50.5,362,50.3
			C362,50.3,362,50.3,362,50.3z"/>
		<path class="st40" d="M399.8,86.5c0.1-0.4,0.4-0.8,0.8-0.6s0.1,0.5-0.2,0.6S400,86.7,399.8,86.5z"/>
		<path class="st41" d="M362,50.3l0.8,0.1c0,0.4-0.3,0.8-0.7,0.9c-0.1-0.3-0.3-0.5-0.6-0.6L362,50.3z"/>
		<path class="st42" d="M399.8,86.5h0.6c-0.1,0.3-0.1,0.6-0.5,0.5l-0.2,0.1l-0.2-0.1L399.8,86.5z"/>
		<path class="st0" d="M367,46.8h0.7c-0.2,0.3-0.4,0.5-0.7,0.4S366.7,47,367,46.8z"/>
		<path class="st0" d="M382.2,50l0.1-0.7c0.3,0.2,0.5,0.5,0.3,0.8C382.5,50.2,382.3,50.2,382.2,50z"/>
		<path class="st26" d="M479.2,6.5l1-0.9c0.4-0.1,0.9-0.1,1.3,0.3C480.9,6.4,480.1,6.6,479.2,6.5z"/>
		<path class="st43" d="M449.1,3.6c0-0.3-0.3-0.4-0.5-0.5c0.3-0.4,0.7-0.8,1.1-0.3C449.9,3.1,449.6,3.5,449.1,3.6z"/>
		<path class="st44" d="M446,11.6l0.7,0.1c-0.2,0.3-0.5,0.5-0.8,0.3C445.7,11.9,445.8,11.7,446,11.6z"/>
		<path class="st45" d="M401.9,291.6l0.5-0.5c0.4,0.5,0.9,1.1-0.1,1.6L401.9,291.6z"/>
		<path class="st10" d="M400.5,155.2c0.5-2.7,1.2-5.4,2.2-8c1.4-4,3.1-7.9,5.1-11.7c0.4-0.8,0.7-2.1,1.9-1.6s0.4,1.6,0,2.3
			c-2.9,6.1-5.6,12.3-6.9,19c0,0.2-0.1,0.3-0.1,0.5c-0.2,0.7-0.6,1.3-1.4,1.1S400.3,155.9,400.5,155.2z"/>
		<path class="st26" d="M363.9,165.6c0.2,1.9-0.5,3.8-1.9,5.1c-2.3,2.3-4.4,4.7-6.9,7.3c-0.6-2.3-1.3-4.4-1.8-6.6
			c-0.4-1.5,0.4-2.9,0.7-4.4c0-0.3,0.3-0.6,0.6-0.7C357.8,166,360.9,165.7,363.9,165.6z"/>
		<path class="st26" d="M355.1,164c0.9-2.7,1.7-4.9,2.5-7.2c0.3-0.8,0.6-1.3,1.5-1.4c1.9-0.1,3.7-0.8,5.8-0.7c0,2.6-0.4,5.1-0.7,7.7
			c0,0.5-0.4,0.9-0.9,0.9c0,0-0.1,0-0.1,0C360.7,163.5,358.1,163.8,355.1,164z"/>
		<path class="st46" d="M325.3,186.6l0.2-0.2L325.3,186.6L325.3,186.6z"/>
		<path class="st6" d="M378.6,56.2c1.4,0,2.8,0.4,4.1,1c0.6,0.3,0.9,0.8,0.6,1.4c-0.3,0.5-0.7,0.5-1.3,0.4c-2.9-0.5-3-0.3-3.7,2.4
			c-0.1,0.6-0.3,1.2-0.9,1.4c-0.7,0.2-1.4-0.1-1.8-0.7c-1.1-1.1-1.4-2.7-0.9-4.2C375.5,56.3,377,56.2,378.6,56.2z"/>
		<path class="st25" d="M85.8,291c2.2,0.9,4.1,2.3,5.7,4c3.1,3.7,1.4,8.7-3.3,9.7c-3.5,0.7-3.5,1.1-3.2-2.8
			C85.2,298.4,85.3,294.9,85.8,291z"/>
		<path class="st25" d="M84.6,277.1c0,3.5-0.3,7-0.7,10.5c-2.6-0.7-5-1.3-7.4-2c-1.8-0.6-2.1-1.5-0.8-2.9
			C78,279.9,81.1,277.9,84.6,277.1z"/>
		<path class="st25" d="M215.6,302.2c0.3-5,0.2-10,0.8-14.9c3.9,1.1,6.5,5,5.9,9C221.8,299.9,219.4,302,215.6,302.2z"/>
		<path class="st25" d="M202.5,283.5c1.4-3,6.3-5.7,12.3-6.8c0.1,2.2,0,4.5-0.4,6.6c-0.1,0.5-0.3,0.8-0.8,0.7c-3.5-0.6-7,0-10.5-0.2
			C202.9,283.9,202.7,283.6,202.5,283.5z"/>
		<path class="st47" d="M94.6,282.8c0.7,0.9,1.3,1.5,1.8,2.2c1.1,1.4,1.7,3,1.8,4.8c0.1,1.2,0.6,1.5,1.7,1.5c3-0.1,6.1-0.1,9.1,0
			c1,0,2.3-0.2,2.6,1.2c0.2,0.9-0.7,1.4-2.7,1.4c-3.1,0-6.2,0.1-9.3,0c-1.1-0.2-2.1,0.4-2.5,1.4c-1.6,2.9-3.9,5.3-6.8,6.9
			c-4.2,2.6-9.1,4-14,4.1c0.2,0.9,0.9,1.3,1.4,1.7c4.1,3.9,8.4,7.6,12.2,11.8c0.9,1,1.8,2.1,2.6,3.2c0.5,0.5,0.5,1.4,0,1.9
			c0,0-0.1,0.1-0.2,0.1c-0.8,0.6-1.4,0.1-1.9-0.5c-5.5-6.8-12.1-12.3-18.5-18.1c-0.2-0.2-0.5-0.4-0.7-0.7c-0.4-0.4-0.6-1-0.3-1.6
			c0.2-0.6,0.8-0.9,1.4-0.8c0.6,0,1.1,0.1,1.7,0.2c6.3,0.5,12.5-1.4,17.4-5.4c1.3-1,2.4-2.2,3.2-3.7c-0.5-0.9-1.2-0.5-1.8-0.5
			c-5.1,0.3-10.2,0.6-15.2,0.9c-0.8,0-2,0.5-2.1-0.9s1-1.4,1.9-1.5c2.5-0.3,5.1-0.4,7.6-0.6c3.1-0.2,6.2-0.4,9.3-0.5
			c1.2,0,1.5-0.5,1.4-1.7c-0.4-3.4-4.3-7.1-8.1-7.1c-5.3-0.1-10.7,0.1-16,0.2c-3.5,0.1-7,0.5-10.5,0.7c-0.5,0-1,0-1.5,0
			c-0.4-0.1-0.8-0.4-0.8-0.8c-0.1-0.5,0.1-1,0.6-1.2c0.6-0.2,1.3-0.4,1.9-0.4c14-1.5,28-1.3,42-0.9c1.8,0,2.6,0.5,2.5,1.4
			c-0.3,1.4-1.5,1.3-2.6,1.3C100.3,282.7,97.4,282.7,94.6,282.8z"/>
		<path class="st47" d="M223.9,283c0.6,1,1.1,1.7,1.5,2.4c0.9,1.5,1.3,3.2,1.2,4.9c-0.1,1.2,0.4,1.6,1.5,1.7c3,0.3,6,0.7,9,1.1
			c1,0.1,2.3,0,2.4,1.5c0.1,0.9-0.9,1.3-2.8,1c-3.1-0.4-6.2-0.7-9.3-1.1c-1-0.3-2.1,0.2-2.6,1.1c-1.9,2.7-4.5,4.8-7.6,6
			c-4.5,2.1-9.5,2.9-14.4,2.4c0,0.9,0.7,1.4,1.2,1.9c3.6,4.3,7.4,8.5,10.7,13.1c0.8,1.1,1.6,2.3,2.2,3.5c0.4,0.6,0.3,1.4-0.3,1.8
			c0,0-0.1,0.1-0.1,0.1c-0.8,0.5-1.4,0-1.8-0.7c-4.6-7.3-10.5-13.6-16.2-20.1c-0.2-0.3-0.4-0.5-0.6-0.8c-0.4-0.5-0.4-1.1-0.2-1.6
			c0.3-0.5,0.9-0.8,1.5-0.6c0.6,0.1,1.1,0.3,1.7,0.4c6.2,1.3,12.6,0.1,17.9-3.3c1.4-0.8,2.6-1.9,3.6-3.3c-0.4-0.9-1.2-0.6-1.7-0.7
			c-5.1-0.3-10.1-0.6-15.2-0.9c-0.8,0-2,0.2-2-1.1s1.2-1.2,2-1.2c2.5,0,5.1,0.2,7.6,0.3c3.1,0.2,6.2,0.3,9.3,0.6
			c1.2,0.1,1.6-0.4,1.6-1.5c0-3.4-3.4-7.5-7.1-8c-5.3-0.7-10.6-1.2-15.9-1.7c-3.5-0.3-7-0.4-10.6-0.5c-0.5,0-1-0.1-1.5-0.2
			c-0.4-0.1-0.7-0.4-0.8-0.9c-0.1-0.5,0.2-1,0.8-1.1c0.7-0.1,1.3-0.2,2-0.2c14.1,0.1,28,2,41.8,4.1c1.8,0.3,2.5,0.8,2.3,1.6
			c-0.4,1.4-1.6,1.1-2.7,1C229.5,283.7,226.7,283.3,223.9,283z"/>
	</g>
</g>
</svg>
