<?xml version="1.0" encoding="utf-8"?>
<!-- Generator: Adobe Illustrator 23.0.2, SVG Export Plug-In . SVG Version: 6.00 Build 0)  -->
<svg version="1.1" id="Layer_1" xmlns="http://www.w3.org/2000/svg" xmlns:xlink="http://www.w3.org/1999/xlink" x="0px" y="0px"
	 viewBox="0 0 497.9 486.1" style="enable-background:new 0 0 497.9 486.1;" xml:space="preserve">
<style type="text/css">
	.st0{fill:#E1F0FF;}
	.st1{fill:#68E6B3;}
	.st2{fill:#FFD574;}
	.st3{fill:#38A1FC;}
	.st4{fill:#020202;}
	.st5{fill:#030303;}
	.st6{fill:#030202;}
	.st7{fill:#050404;}
	.st8{fill:#060807;}
	.st9{fill:#070908;}
	.st10{fill:#141C17;}
	.st11{fill:#111713;}
	.st12{fill:#8AE0B6;}
	.st13{fill:#010101;}
	.st14{fill:#030403;}
	.st15{fill:#040504;}
	.st16{fill:#090F0C;}
	.st17{fill:#3C4F45;}
	.st18{fill:#060806;}
	.st19{fill:#070A08;}
	.st20{fill:#080C0A;}
	.st21{fill:#0A100D;}
	.st22{fill:#FFFFFF;}
	.st23{fill:#8DC8C8;}
	.st24{fill:#535C5C;}
	.st25{fill:#E5F4F4;}
	.st26{fill:#BAC4C4;}
	.st27{fill:#FEFFFF;}
	.st28{fill:#4C5D5D;}
	.st29{fill:#020302;}
	.st30{fill:#636D6D;}
	.st31{fill:#FEFEFE;}
	.st32{fill:#4A5858;}
	.st33{fill:#AEB8B8;}
	.st34{fill:#484E4E;}
	.st35{fill:#96A6A6;}
	.st36{fill:#273131;}
	.st37{fill:#798181;}
	.st38{fill:#404646;}
	.st39{fill:#9BA2A2;}
	.st40{fill:#8B9797;}
</style>
<title>Asset 226</title>
<g>
	<g id="Layer_1-2">
		<path class="st0" d="M415.8,457.4c-0.1-1.4-0.8-2.6-2.1-3.3c-2.4-1.4-5.2-2.3-8-2.4c-5.6-0.3-11.2-1.4-16.8-1.8
			c-1.2,0-2.4-0.3-3.3-1c-1-0.2-1.5,0.4-2.2,0.9c-2.8,2.2-5.7,4.3-8.7,6.2c-13.7,9-28.7,12.3-44.9,10.7c-21.1-2-41.4-9.3-59-21.1
			c-0.7-0.6-1.6-1-2.5-1c-2.3,0.3-4.7,0.2-6.9,1.2c0.3,1.3,0.3,1.3,2.2,1.7c5,0.8,9.2,3.9,11.5,8.4c1.5,2.6,1.4,5.8-0.4,8.2
			c-1.5,2.5-4.2,3.8-5.7,6.2c-0.6,0.8-1.3,1.4-2.2,1.8c-3.6,0.3-7.3,0-10.9,0.2c-0.8,0.1-1.5,0.3-2.2,0.7c-3.3,1.5-6.8,0.9-10.2,0.9
			c-5.4,0-10.1-2.1-14.2-5.6c-2.7-2.3-3.1-4.9-1.6-8.1c1.1-2.1,2.2-4.2,3.1-6.4c0.4-1.1,1.1-2.4,0.1-3.5c0,0,0,0.1,0,0.1
			c-6.9,1.2-13.8,1-20.7,1.7l0,0c-0.6,0.8-0.1,1.7,0.2,2.5c0.5,1.2,1.2,2.2,1.8,3.4c2,3.9,1,7-3,8.7c-8.2,3.5-17.1,5.3-26.1,5.3
			c-5.7-0.1-11.3-0.6-16.8-1.7c-0.3-0.1-0.5-0.2-0.8-0.2c-2-0.6-3.9-0.9-5.9-1.4c-0.3-0.1-0.5-0.2-0.8-0.3c-2.7-1.6-3.1-2.6-2.3-5.6
			c1-3.8,3.4-6.8,6.1-9.5c0.7-0.7,1.8-1,1.6-2.3c-3.8-0.4-7.5,0.2-11.2,0.6c-3.4,0.3-6.6,1.3-9.6,2.8c-1.6,0.9-3,2.1-4,3.6
			c-1.7,2.4-1.2,5.5,1.2,7.9c5,5.2,11.2,8.3,18.1,10.1c6,1.6,12,2.6,18.1,3.8c5.5,1,11.1,1.7,16.7,2.1c5.9,0.5,11.8,0.8,17.7,1.1
			c5.1,0.3,10.1,0.7,15.2,1.1c5.9,0.4,11.8,0.8,17.7,1.1c6.4,0.4,12.8,0.4,19.1,0.5c13.7,0.2,27.3,0.4,41-0.3
			c4.9-0.3,9.8-0.5,14.7-0.8c3.8-0.3,7.6-0.5,11.4-0.8c2.9-0.3,5.8-0.5,8.7-0.8c5.9-0.5,11.7-1.4,17.6-2c5.7-0.6,11.4-1,17.1-1.6
			c6.7-0.6,13.3-1.7,19.8-3.4c6.4-1.7,12.5-4.2,17.5-8.5C414.3,465.1,416.2,461.7,415.8,457.4z"/>
		<path class="st1" d="M196.2,444.5c1.9,1.8,4.4,1.5,6.6,2c0.6,0.1,1.3,0,1.9,0.1c1.2,0.3,2.4-0.4,2.8-1.6c1.6,1.7,1.6,4.1,2.7,6
			c0.1,0.3,0.1,0.5,0.2,0.8c0,0.1,0,0.3,0,0.4c0.5,1.6,1.2,3,2.1,4.4c0.2,0.3,0.4,0.6,0.6,0.9c2.4,4.4,1.3,8.1-3.4,10
			c-5,2-10.1,3.5-15.4,4.4c-3,0.5-6.1,0.5-9.2,0.9s-6.1-0.5-9.2-0.5c-3.1-0.2-6.1-0.5-9.2-1c-0.3-0.1-0.5-0.2-0.7-0.4
			c2.6-4.7,5.6-8.9,10.9-10.9c-2.7,0.3-5.9,2.6-8.2,5.8c-1.2,1.6-2.1,3.4-3.2,5c-2.1-0.4-4.1-0.9-6.1-1.6c0.8-6.1,4.6-9.9,9.5-12.9
			c1.2-0.8,2.6-1.2,3.6-2.2c-6.9,2.9-12.2,7.2-13.6,15.1c-3-1.3-3.9-2.9-3-5.9c1.2-4.4,3.9-8.4,7.5-11.1c0.4-0.3,0.7-0.6,1-0.9
			c5.4-3.8,11.3-4,17.5-2.5c2.6,0.7,5.3,1.2,8.1,1.4C194.1,450.1,195.7,448.6,196.2,444.5z"/>
		<path class="st1" d="M230,443.4c3.6-0.8,7.2-1.5,10.4-3.4c0.5,0.2,0.9,0.6,1.1,1.1c1.3,3.6,4.2,4.1,7.5,4.2s6.2,0,9.2,0
			c1.1,0,2.2-0.1,3,0.8c1.4,0.8,3,0.5,4.4,1c5.3,1.8,9.1,5,11,10.4c0.6,1.5,0.6,3.3-0.2,4.8c-1.1,2.2-2.3,4.4-4.4,5.7
			c-1,0.8-1.9,1.7-2.6,2.8c-0.5-0.3-0.7-0.9-0.6-1.5c0.6-4.1-1.1-7.6-3.2-11c2.7,4.2,3.4,9.4,2,14.2c-0.5,0.6-1.1,0.4-1.8,0.4h-10.4
			c-0.3-3,0.4-6.2-2-9.2c1.3,3.5,2.5,6.6,0.4,9.8c-1,0.7-2.3,1.1-3.6,1c-3.9,0.1-7.8,0.5-11.7-0.5c-4-1-7.6-3-10.6-5.9
			c-2.3-2-2.8-5.4-1.3-8c1.5-2.9,3.3-5.7,3.9-8.9c0-0.3,0-0.5,0-0.8C230.1,448.2,229.8,445.8,230,443.4z"/>
		<path class="st1" d="M389.5,441.1c-4.7-5.1-9.8-9.8-15.2-14c-3.2-2.3-6.2-5.1-10.4-5.7c-1.8,4-3.5,8.2-5.6,12.1
			c-2.4,4.7-6,8.7-10.4,11.6c-1.5,0.5-2.9,1.1-4.2,1.8c-6.7,3.7-14.1,5.8-21.6,6.1c-9.9,0.6-19.1-2.1-28-6.1c-2.6-1.2-5.1-2.8-8-3.4
			c-4.8-2.4-8.9-5.6-13.2-8.8c-7.8-5.8-15.3-12.1-22.3-18.9l-11.6-11.3c-0.5,0.4-0.7,1.1-0.5,1.8c1,4.9,1.6,9.9,2.3,14.8
			c0.2,0.2,0.6,0.2,0.7,0.4l0.1,0.1v-0.1c0.6-0.4,0.8,0.2,1,0.5c6.8,7.3,14.2,14,22.1,20.1c1.3,1,2.8,1.7,3.9,2.9l0,0
			c1.5,0.5,2.5,1.7,3.9,2.5c12.2,7.2,24.7,13.5,38.7,16.6c9.2,2,18.3,3.7,27.8,3.4c1.5-0.1,2.9,0,4.4,0c4.9,0,9.8-0.9,14.4-2.5
			c10.2-3.8,19.8-8.9,28-16.1c1.5-2,3.7-3.4,5.1-5.5C390.9,442.3,390.1,441.7,389.5,441.1z"/>
		<path class="st1" d="M187.2,315.7c-3.9-1.1-7.7-2.5-11.4-4.4c-7.9-4-15.1-9.1-21.4-15.3c-0.8-0.8-1.8-1.6-2.8-2.2
			c0-0.1,0-0.2,0-0.3c-0.1-0.6-0.6-1-0.9-1.5c-4.1-6.7-7.7-13.7-10.7-20.9c-3.5-8.3-0.8-16.1,3.4-23.5c0.7-1.3,2.1-1.6,3.5-1.9
			c7.1-1.1,14-0.3,20.9,1.2c0.9,0.2,1.7,0.7,2.9,0.3c-1.1-0.7-2.3-1.1-3.6-1.4c-2.4-0.9-2.6-1.4-1.2-3.6c2.4-3.6,4.5-7.3,4.9-11.7
			c0.4-4-0.5-7.5-3.8-9.9c-3.1-2.3-6.6-2.3-10.1-0.8c-1.1,0.5-2.5,1.8-3.5,0.8c-1.1-1.1,0.3-2.5,0.8-3.7s1.4-2.6,1.9-3.9
			c1.2-3.8,4-5.5,7.8-5.9c3.5-0.4,7-1.2,10.6-1.3c0.4,0,0.7,0,1.1-0.1c0.9-0.3,2.2-0.3,2.3-1.5c0.1-1-1-1.4-1.8-1.8
			c-2.5-1-5.1-1.9-7.8-2.5c-1-0.3-2.5-0.2-2.4-1.6c0-1.3,1-2.5,2.4-2.6c2-1.6,4-3.2,6-4.6c5.2-3.9,11.2-6.6,17.5-8.2
			c2.5-0.6,5-0.9,7.6-0.9c-1.4-0.7-2.9-1.3-4.4-1.7c-0.6-0.2-1.2-0.4-1.8-0.6s-1-0.6-1-1.2c0.1-0.7,0.6-1.2,1.2-1.3
			c0.6-0.1,1.3-0.2,1.9-0.2c3.9-0.2,7.9,0.3,11.6,1.3c0.6,0.3,1.3,0.4,2,0.2c-0.8-1.7-1.9-3.2-3.4-4.4c-0.8-0.7-1.5-1.6-2.1-2.5
			c-0.4-0.5-0.3-1.3,0.2-1.7c0.4-0.4,1.1-0.4,1.5,0.1c1.6,1.3,3.3,2.6,4.9,3.9c1.1,0.8,1.7,2.5,3.1,2.6c1.1,0,2.3-1,3.4-1.6
			c3.3-1.7,6.9-2.9,10.6-3.6c0.3-0.1,0.5-0.1,0.8-0.1c1.1-0.1,2.4-0.3,2.9,1s-0.6,1.8-1.4,2.4c-2,1.4-4,2.8-6,4.3
			c0.6,0.8,1.3,0.5,2,0.5c7.4,0.1,14.7,1.3,21.8,3.5c3.7,1.2,7.1,3,10.1,5.4c6.9,5.2,13.5,10.9,19.5,17.2c2.2,2.4,4.5,4.8,6.9,7
			c1.3,1.4,3.5,1.8,5.2,0.8c4-1.9,8-3.5,12.2-4.9c10.5-3.6,21.1-6.9,32.2-8.3c5.4-0.7,10.9-1.2,16.3-1.3c6-0.1,12,0.5,17.9,1.6
			c13.8,2.4,26.5,7.6,38.5,14.4c10,5.6,17,13.6,19.5,25.2c0.8,4.5,0.9,9.1,0.2,13.6c-1.6,14.3-7,27.3-13.6,39.9
			c-3.8,7.1-8.1,13.9-13.9,19.6c-9.3,9.5-21.4,15.9-34.5,18.3c-4.8,0.9-9.8,1.2-14.7,1.1c-6.2-0.1-12.3-2-17.5-5.5
			c-7.7-5-15.4-10.1-22-16.6c-2.4-2.3-4.5-4.7-6.7-7.2c-5.7-6.5-11.5-13-17.2-19.5c-1-1.4-0.2-2.8,0.1-4.2
			c1.6-6.4,1.6-12.9,1.4-19.5c-0.2,3-0.2,6-0.2,8.9c-0.1,3.1-0.5,6.2-1.2,9.2c-0.6,3-1.5,6-2.8,8.8c-4.5,4.9-8.5,10.2-13.1,15
			c-7.4,7.6-16.5,11.8-26.8,13.6c-3.9,0.7-7.8,1-11.7,1c-0.8,0-1.7-0.2-2.3,0.5c-2.3-2.4-5-2-8-1.7c-6.4,0.7-12.8,1.4-19.3,0.5
			c-3.5-0.5-7.1-0.1-10.6-0.7C189.6,314.9,188.3,315.1,187.2,315.7z"/>
		<path class="st1" d="M148.5,291.6c-1.5-0.2-2.9,0.1-4.2,0.8c-7.1,3.3-14.6,5-22.3,6.2c-4,0.6-8.1,0.3-12-0.6
			c-2.3-0.7-4.3-1.9-6-3.6c-6.5-5.6-11.9-12.4-15.7-20.2c-4.2-8.7-6.8-18.1-7.9-27.7c-0.5-4.1-0.9-8.1-1-12.2
			c0.1-10.8,1.8-21.4,5-31.7c2.2-7.3,5.3-14.4,9.2-21c4.4-7.4,11.1-10.6,19.5-11.1c10.2-0.6,20.4,0.8,30.1,3.9
			c4.8,1.6,9.1,4.2,12.8,7.6c4.1,3.6,8.4,7,11.4,11.6c-1.9,3.1-3.9,5.7-7.8,7c-6.5,2.1-10.6,7.5-14,13.2c-0.3,0.4-0.3,0.9,0,1.3
			c0.5,0.5,1,0.2,1.5-0.1c1.8-1.1,3.4-2.4,5.4-3.3c0.8-0.4,1.7-1.1,2.5-0.4s0.4,1.8-0.1,2.5c-2.6,4.4-3.6,9.5-6.7,13.7
			c-3.4,4.5-5.1,9.7-3.1,15.4c0.5,1,0.2,2.2-0.8,2.7c-0.2,0.1-0.5,0.2-0.7,0.2c-1.6,0.5-2.8,1.1-2.2,3.2c0.2,0.8-0.5,1.7-0.8,2.6
			c-3.9,8.6-3.8,17.1,1,25.4c2.4,4.1,4.1,8.5,6.5,12.6C148.6,290.2,148.7,290.9,148.5,291.6z"/>
		<path d="M238.9,404.5c1.1,5.6,1.9,11.3,2.6,16.9c0.5,0.5,0.8,1.3,0.8,2c0.1,5.5,0.6,11-1.2,16.3c-0.6,1.2-1.8,2.1-3.2,2.3
			c-2.5,0.7-4.9,1.9-7.6,1.8c-1.5-0.4-2.1-1.7-2.7-2.9c-2-4.3-3.9-8.6-5.8-13c-0.8-1.8-1.6-3.5-2.5-5.2c-0.7-1.4-1.8-2.5-3.4-2.3
			s-1.2,2-1.4,3.1c-1.6,7.4-3.8,14.7-6.5,21.8c-0.6,1.3-1.9,2-3.3,2c-2.3-0.1-4.5-0.4-6.7-1c-0.9-0.2-1.6-1-1.7-1.9
			c-2-9-4.9-17.7-8.5-26.2c-4-9.3-7.5-18.8-10.4-28.4c-2-6.4-2.4-13.1-1.2-19.7c0.2-0.6,0.3-1.2,0.1-1.9l-1.8,1
			c-1.2-0.1-2.2-0.8-2.7-2c-1.7-3.9-3.3-7.8-5.2-11.6c-0.4-0.8-0.1-1.6-0.4-2.4c-0.4-1.3-0.9-2.6-1.1-3.9c-0.5-2.4,2.2-5.1,4.6-4.4
			c0.9,0.2,1.1,0,1.4-0.6c3.2-6.5,7.5-12.2,11.8-18c1.4-2,2.6-4.1,3.8-6.3c0.8-1.3,1.1-3,0.6-4.5c0-1,0.4-1.8,1.6-1.7
			c4.3,0.3,8.6,0.2,12.8,0.8c4.7,0.6,9.3,0,13.9,0c2.6-0.1,5.3-0.3,7.9-0.8c3.6-0.6,3.9-0.4,5.4,2.8c0.4,1.9,1.4,3.5,2.9,4.8
			c8.5,8.1,16.2,16.9,22.2,27.1c0.8,1.3,1.3,2.9,3.6,2.6c1.1-0.1,1.7,1.3,2.1,2.3c0.5,1.1-0.3,1.9-1,2.6c-3.6,3.8-7.9,6.8-12.6,8.8
			c-2.5,0.6-3.6,0.2-4.5-1.7c-0.3-0.6-0.6-1.4-0.1-1.8c1.3-1.2,0.3-1.8-0.4-2.6c-1.8-1.9-3.6-3.8-5.8-6.1c0,1.4,0,2.4,0,3.3
			c0.1,7.4-0.2,14.8-1,22.1c-1.7,3.9,0.1,7.4,1,11c1.1,4.4,2.2,8.8,3.3,13.3C238.5,403.1,238.7,403.8,238.9,404.5z"/>
		<path class="st2" d="M273,43.2c-3.2,0.9-5.9,1.7-8.5,2.4c-2.1,0.6-4.2,1.1-6.4,1.5c-0.7,0.1-1.4,0.2-2.2,0.1
			c-2.2-0.2-3-1.9-1.6-3.6c1.8-2.1,3.8-4,5.9-5.7c14.2-11.2,29.3-21.1,44.2-31.2c2.5-1.7,4.9-3.5,7.3-5.3c0.7-0.5,1.4-0.9,2.1-1.3
			c0.6-0.3,1.3-0.2,1.8,0.3c0.6,0.6,0.3,1.2,0,1.8c-0.7,1.2-1.5,2.3-2.4,3.3c-2.1,2.2-4.3,4.2-6.7,6c-2,1.7-4,3.5-5.8,5.4
			c-4,4.1-8.3,8-12.6,11.7c-0.8,0.5-1.4,1.2-1.6,2.1h9.2c1.1,0,2.1,0.7,2.5,1.8c0.5,0.9,0.3,2.1-0.5,2.8c-1.1,1.2-2.3,2.3-3.6,3.3
			c-8.1,5.8-16.2,11.8-24.4,17.6c-9,6.5-18.3,12.6-28,18.2c-4.5,2.6-8.9,5.4-13.2,8.3c-1.8,1.2-3.7,2.3-5.6,3.5
			c-0.5,0.3-0.9,0.5-1.4,0.8c-0.8,0.4-1.7,0.4-2.1-0.6c-0.4-0.8-0.1-1.7,0.6-2.2c1-0.8,2.1-1.5,3.1-2.2c8.8-6.2,17.1-13.1,25.6-19.6
			c7.5-5.7,15-11.5,22.5-17.3C272,44.5,272.6,43.9,273,43.2z"/>
		<path d="M390.7,443.3c-3.1-3.1-6.2-6.4-9.4-9.4c-5.1-5.1-10.9-9.3-17.4-12.5c1.4-3.5,3.4-6.7,5.8-9.5c4.9-5.7,11.3-7,18.3-5.6
			c10.4,2.2,13.5,11.1,11.7,19.9C398.3,432.6,395.2,438.6,390.7,443.3z"/>
		<path d="M148.5,291.6c-3.1-5.9-6.2-11.7-9.1-17.7c-3.3-6.6-2.9-13.4-0.4-20.2c0.5-1.3,1-2.5,1.6-3.8c0.3-0.8,0.7-1.4-0.2-2.1
			c-0.7-0.6-0.4-1.4,0.4-1.7c1.3-0.6,2.7-1,4.2-1.6c-1.8-3.9-1.9-8.4-0.3-12.4c0.8-2.1,1.9-4.1,3.4-5.9c1.1-1.4,2-3,2.6-4.8
			c1.2-3.4,3-6.6,4.7-10.6c-2.4,1.1-4.6,2.4-6.7,3.9c-0.7,0.5-1.3,0.9-2,1.4c-0.6,0.5-1.5,0.3-2-0.3c-0.5-0.5-0.6-1.2-0.2-1.8
			c0.1-0.2,0.1-0.3,0.2-0.5c3.4-5.5,7.5-10.3,13.4-13.3c0.1,0,0.2-0.1,0.3-0.1c1.5-0.9,3.5-0.5,4.8-1.7c1.2-1.3,2.2-2.7,3.1-4.1
			c0.3-0.4,0.7-0.6,1.1-0.8l0.7,2.2l-2.6,3c3.3,0.5,6.5,1.3,9.6,2.6c1,0.3,2.1,0.8,3,1.4c1.6,1.1,1.4,2.6-0.4,3.3
			c-1.3,0.4-2.6,0.7-4,0.7c-4.1,0.4-8.1,1-12.2,1.7c-1.8,0.3-3.4,1.5-4,3.2c-1.3,3-2.8,5.9-4.4,9.2c0.9-0.1,1.9-0.5,2.6-1.1
			c1.6-0.9,3.4-1.4,5.2-1.5c6.7-0.1,11.1,4.6,10.7,11.6c-0.3,4.6-2.2,8.6-4.7,12.3c-0.6,0.8-1.4,1.4-1.6,2.6c1.9,0.5,3.7,1,5.5,1.6
			c0.7,0.2,1.5,0.6,1.2,1.5s-1.1,1-2,0.7c-6.5-1.9-13.2-2.7-20-2.4c-5.8,0.3-5.9,0.3-8.1,5.8c-1.1,2.4-1.9,4.9-2.4,7.5
			c-0.9,5.2,0,10.5,2.6,15.1c3.2,6,6.3,12.1,9.5,18.2c0.1,0.1,0.2,0.2,0.2,0.4c0,0.1-0.1,0.2-0.1,0.2c-0.2,0.1-0.4,0.1-0.6,0l0,0
			c-0.1-0.2-0.3-0.4-0.6-0.4L148.5,291.6z"/>
		<path class="st1" d="M166,353.4c2,4.4,4,8.7,6,13.1c0.5,1.1,1,2.4,2.3,2.8c-1.3,0.3-1.7,1.5-2.5,2.4c-3.6,3.6-7.4,6.6-12.6,7.8
			c-3.4,0.8-7-0.2-9.6-2.6c-2.4-2-4.7-4-7.2-5.8c0.1-1.1,0.9-1.9,1.3-2.9c-1.1,0.2-1,2-2.4,1.8c-1.2-0.8-2.3-1.7-3.2-2.9
			c0.1-1.5,1.1-2.7,2.1-4.1c-1.6,0.5-1.7,2.1-2.9,2.6c-1.2-3.6-0.6-6.2,2-8.2c1.2-1.1,2.9-1.3,4.3-0.7c1.9,0.7,3.6,1.7,5.1,3
			c2.5,2.2,5.2,4,8.6,4.4c1.9,0.4,3.9-0.4,4.9-2.1c0.8-1.2,1.5-2.5,2-3.9C164.9,356.5,165.5,355,166,353.4z"/>
		<path class="st1" d="M245.8,365l12.7-8.8c0,1.4,0.9,2.4,1.5,3.5c2.5,4.4,2.4,8.1-0.7,12.2c-3.1,3.8-6.5,7.4-10.3,10.5
			c-1.1,0.9-2.1,2.1-2.6,3.4c-0.5,1.1-1.8,1.7-1.9,3.1c-0.2,1.6,0.2,2.6,2,2.6c0.3,1.5,1.6,0.9,2.4,1.1c1.1,0.3,2.2,0.6,2.5,1.8
			c0.4,1.2,0.1,2.4-0.7,3.3c-0.9,1-2.2,1.4-3.5,1.3c-4.7-0.7-8.1-3-9.6-7.7c-1.6-4.5-0.9-9.6,2.1-13.4c2-2.5,4.1-4.9,6.4-7.1
			C248.2,368.4,248.2,367.3,245.8,365z"/>
		<path class="st0" d="M347.9,445.1c-6.1,4.6-13.1,6.8-20.5,8.1c-3.9,0.6-8,0.8-11.9,0.5c-3.1-0.2-6.1-0.7-9.1-1.6
			c-7.2-1.8-14.1-4.8-20.4-8.7c7.1,0.2,14.2-1.1,21.2-0.5c5.5,0.5,11.1-0.1,16.6,0.9c0.4,0,0.7,0,1.1,0c4.5-0.3,8.9,0.5,13.3,0.7
			C341.4,444.8,344.7,444.9,347.9,445.1z"/>
		<path class="st3" d="M162.7,98.4c0.3-2.6,1.2-5.1,2.7-7.4c3.4-5.8,7.2-11.4,10.9-17c2.6-3.9,5.1-8,7.6-12c1.6-2.5,3-5.2,4-8.1
			c0.1-0.3,0.1-0.5,0.3-0.8c0.4-0.6,0.8-1.4,1.6-1.1s0.4,1.1,0.3,1.7c-3.5,11.3-6.1,22.9-10.9,33.8c-1.4,3.4-3,6.6-4.9,9.7
			c-1.2,1.8-2.7,3.5-4.3,4.9c-1.4,1.2-2.9,2-4.7,1S162.7,100.6,162.7,98.4z"/>
		<path class="st3" d="M340.2,92.6c0.2-1.5,0.7-3,1.4-4.4c2.6-5.3,6.6-9.4,10.6-13.5c4.3-4.5,8.8-8.8,12.8-13.5
			c2-2.3,3.7-4.7,5.2-7.4c0.2-0.4,0.4-0.8,0.7-1.2c0.2-0.4,0.8-0.6,1.2-0.3c0,0,0,0,0,0c0.5,0.3,0.4,0.8,0.2,1.2
			c-0.7,1.5-1.5,2.9-2.5,4.2c-3.2,3.9-5.1,8.4-6.8,13c-3.2,8.4-8,16.1-14.2,22.6c-0.9,1-1.8,1.8-2.9,2.5c-1.1,0.7-2.3,1.1-3.6,0.4
			C341,95.5,340.2,94.1,340.2,92.6z"/>
		<path class="st4" d="M28.3,218.2c0.4-4.9,1.8-9.7,4.2-14c2.5-4.3,5.5-8.2,8.9-11.8c4.5-4.9,9.1-9.8,13.3-14.9
			c3.9-4.7,7.4-9.5,9.3-15.3c0.1-0.3,0.2-0.5,0.3-0.8c0.3-0.5,0.6-1,1.3-0.8c0.9,0.2,0.8,1,0.5,1.6c-1.2,2.7-1.5,5.6-2.4,8.4
			c-2.7,7.9-5.1,16-9.1,23.4c-4.3,8.1-9.4,15.9-15,23.1c-1.3,1.7-2.7,3.2-4.4,4.5c-1.5,1.2-3.2,1.9-5.1,0.8
			C28.5,221.6,28.3,219.9,28.3,218.2z"/>
		<path class="st3" d="M417.6,184.3c0.2-2,0.8-3.9,1.8-5.5c1.4-2.3,3-4.3,4.9-6.2c3.7-3.6,7.4-7.3,11.1-10.9c2-2,3.9-4.1,5.5-6.4
			c0.3-0.4,0.5-0.7,0.9-1c0.3-0.3,0.7-0.3,1,0c0.2,0.2,0.3,0.4,0.3,0.7c-0.1,0.5-0.3,1.1-0.5,1.6c-4,9.4-8.7,18.3-15.2,26.1
			c-1.5,1.8-3,3.7-5.2,4.8C419.5,188.8,417.5,187.5,417.6,184.3z"/>
		<path class="st3" d="M435,323.1c-0.9,3-2,5.9-3.2,8.7c-3.4,7.9-7.9,15.3-13.4,21.8c-1,1.2-2.2,2.2-3.5,3c-2.1,1.2-3.8,0.2-4-2.2
			c-0.2-2,0.3-4,1.4-5.7c1.8-2.8,3.8-5.4,6.1-7.7c4.5-4.9,9.1-9.7,12.9-15.3c0.7-1,1.4-2.2,2-3.3c0.3-0.5,0.6-0.9,1.3-0.8
			S435,322.5,435,323.1z"/>
		<path class="st3" d="M0,65.3c0.2-2.9,1.1-5.7,2.7-8.2c0.8-1.4,1.7-2.8,2.9-4c3.8-4.4,7.2-9.2,10-14.3c0.1-0.2,0.3-0.5,0.4-0.7
			c0.2-0.4,0.7-0.6,1.1-0.4c0,0,0,0,0,0c0.5,0.2,0.5,0.7,0.5,1.2c0,0.2,0,0.4-0.1,0.5c-2.4,7.1-3.8,14.4-6.7,21.4
			c-0.7,2-1.6,3.9-2.6,5.7c-0.5,0.8-1,1.5-1.6,2.2c-1,1.1-2.1,2.2-3.8,1.6c-1.6-0.6-2.7-2.1-2.7-3.8C0,66,0,65.6,0,65.3z"/>
		<path class="st5" d="M475.3,271.2c-1.7,0.3-3.3-0.9-3.7-2.5c-0.7-2.4,0-4.5,1-6.6c1.8-3.7,4.2-7.1,7.1-10c2.3-2.4,4.7-4.8,7.1-7.2
			c3.1-2.9,6-6.1,8.7-9.4c0.3-0.4,0.6-0.7,0.9-1c0.7-0.5,1.2-0.2,1.4,0.6c0.1,0.6,0,1.3-0.3,1.9c-3.5,9.5-7.5,18.8-13.4,27
			c-1.5,2.3-3.5,4.2-5.7,5.8C477.6,270.5,476.5,271,475.3,271.2z"/>
		<path class="st5" d="M15.8,433c0.2-3,0.9-5.9,2.1-8.7c2.1-4.7,4.5-9.3,7.2-13.8c2.6-4.7,5.4-9.3,7.2-14.4c0.2-0.4,0.4-0.8,0.6-1.2
			c0.3-0.4,0.6-0.7,1.1-0.6c0.7,0.2,0.6,0.8,0.5,1.4c-3.4,12.1-5.6,24.5-10.3,36.2c-0.6,1.5-1.3,3-2.2,4.4c-1.2,1.7-2.5,2.5-3.8,2
			c-1.7-0.6-2.2-2.1-2.3-3.7C15.9,434.1,15.8,433.6,15.8,433z"/>
		<path class="st6" d="M452.4,411.2c0-1.4,0.4-2.8,1-4.1c1.5-3.1,3.3-6.1,5.5-8.7c3.7-4.6,7.6-9.1,11.4-13.6c2.1-2.4,4-5,5.7-7.6
			c0.4-0.6,0.7-1.5,1.6-1c0.6,0.4,0.3,1.2,0,1.7c-3.8,7.2-7.1,14.8-11.7,21.5c-1.9,2.7-3.6,5.5-5.4,8.2c-1.2,1.9-2.8,3.6-4.7,4.9
			C453.7,413.7,452.4,412.9,452.4,411.2z"/>
		<path class="st5" d="M91.9,364.1c0.3-2.5,1-5,2.1-7.3c2.6-5.3,5.2-10.6,8.2-15.7c1.5-2.6,3.1-5.1,3.7-8.2c0.2-0.8,0.5-2,1.7-1.7
			s0.4,1.4,0.3,2.1c-1.3,7.2-3.2,14.2-5.5,21.1c-1.1,3.2-2.4,6.3-4.1,9.2c-0.6,0.9-1.3,1.8-2,2.6c-0.7,1-2,1.4-3.2,1
			C91.8,366.6,91.9,365.3,91.9,364.1z"/>
		<path class="st3" d="M31.1,288.7c0.1-2.1,0.9-4.2,2.2-5.9c1.4-2,2.9-4,4.4-6c1.8-2.4,3.4-5,4.5-7.8c0.2-0.4,0.3-0.8,0.5-1.2
			c0.2-0.4,0.7-0.7,1.1-0.6c0.6,0.1,0.6,0.7,0.5,1.1c-1.1,7.5-2.9,14.7-7.7,20.8c-0.4,0.5-0.8,1-1.3,1.4c-0.9,0.9-1.9,1.5-3.2,1
			S31.1,289.7,31.1,288.7z"/>
		<path class="st7" d="M244.9,127.5c0.2-1.4,0.6-2.7,1.3-3.8c1-1.7,2.2-3.4,3.5-4.9c3.3-4,6.9-7.8,9.3-12.5c0.3-0.6,0.7-1.2,1.5-0.8
			c0.6,0.3,0.4,1,0.2,1.5c-1.3,2.9-1.5,6.2-2.5,9.2c-1.1,3.9-2.9,7.5-5.1,10.8c-0.9,1.3-2,2.4-3.3,3.3c-0.9,0.8-2.3,1-3.3,0.3
			C245.4,130,244.8,128.8,244.9,127.5z"/>
		<path class="st8" d="M282.7,286.7c-0.5-0.8,0-1.5,0.3-2.3c2.7-8.2,3.7-16.8,3-25.4c0-0.4-0.1-0.7-0.1-1.1s0-0.7,0.5-0.8
			c0.4-0.1,0.9,0.1,1,0.6c0,0,0,0,0,0.1c0.2,0.7,0.3,1.4,0.4,2.1c0.5,7.3-0.1,14.6-2,21.7c-0.2,0.6-0.3,1.2-0.4,1.9L282.7,286.7z"/>
		<path class="st9" d="M246.5,391.3c-0.6,0.4-1.1,1.4-2.1,0.8c-0.7-0.4-0.8-1.2-0.8-1.9c0-1.1,0.3-2.2,0.7-3.2
			c0.2-0.9,1.2-1.5,2.1-1.3c0.7,0.6,1,1.6,0.7,2.5C246.9,389.2,246.7,390.3,246.5,391.3z"/>
		<path class="st10" d="M137.4,365.6c0.4-1.5,1.3-2.8,2.6-3.6c0.4-0.3,0.9-0.2,1.2,0.2c0,0,0,0,0,0c0.3,0.3,0.2,0.7-0.1,1
			c-1.4,1-1.6,3-3,4L137.4,365.6z"/>
		<path class="st11" d="M141.3,370c0.6-1,1.3-2,1.9-2.9c0.3-0.5,0.9-0.6,1.4-0.3c0,0,0,0,0.1,0c0.6,0.5,0.3,1-0.1,1.4
			c-0.9,0.9-0.9,2.4-2.2,3L141.3,370z"/>
		<path class="st12" d="M151.2,293.3l0.6-0.1c0.1,0.1,0.2,0.2,0.2,0.4s-0.1,0.2-0.1,0.2l-0.1,0.2
			C151.4,293.8,151.2,293.6,151.2,293.3z"/>
		<path class="st12" d="M150.6,292.9c0.3,0,0.5,0.1,0.6,0.4C150.8,293.3,150.6,293.2,150.6,292.9z"/>
		<path d="M249.4,254.6c0.1,3-0.4,6-1.6,8.8c-0.7,1.5-0.3,2.3,1.1,3c1,0.6,2,1.2,2.9,2c0.5,0.4,0.9,1,0.4,1.7
			c-0.4,0.5-1.1,0.6-1.7,0.3c0,0,0,0,0,0c-0.4-0.2-0.8-0.5-1.2-0.7c-10.2-6.8-21.7-10.3-33.7-11.9c-4.1-0.7-8.4-0.7-12.5-0.1
			c-0.7,0.1-1.4,0-1.6-0.7c-0.2-0.5,0.1-1.1,0.6-1.3c0.1,0,0.2-0.1,0.4-0.1c1.8-0.1,2-1.3,2.3-2.8c2-10.6,10.8-18.5,21.5-19.6
			c11.4-1.1,21.8,7.7,22.9,19.3C249.3,253.2,249.3,254.2,249.4,254.6z"/>
		<path d="M158.4,274.6c4.1,0,4,0,3.7-3.7c-0.2-1.8-0.5-3.5-2.5-4.4c-1.4-0.8-2.5-1.9-3.2-3.3c-1.9-2.7-3.5-5.6-4.8-8.6
			c-0.5-0.8-0.3-1.8,0.5-2.3c0.1-0.1,0.2-0.1,0.3-0.1c6.4-3.6,12.9-4.3,19.5-0.6c2.9,1.6,4.3,4.3,5.1,7.4c0.3,1.1-0.1,2.2-1.1,2.8
			c-3.2,2.6-6.8,4.6-10.8,5.7c-1,0.3-1.4,0.7-1.1,1.7c0.4,1.4,0.5,2.9,0.4,4.3c-0.2,1.4,0.6,1.9,1.8,2.2c4.4,1.2,8.5,3.5,11.8,6.6
			c0.8,0.7,2.1,1.5,1.1,2.6s-1.9-0.2-2.6-0.9c-3.8-3.4-8.5-5.8-13.5-6.9c-2.6-0.4-5.2-0.5-7.8-0.2c-0.4,0-0.9,0.2-1.4,0.2
			c-0.8,0-1.6-0.1-1.6-1s0.7-0.9,1.3-1.1C155,274.8,156.7,274.6,158.4,274.6z"/>
		<path d="M254.9,221.1c-0.1,2.1-1.2,3-3.1,2.7c-1.2-0.3-2.4-0.9-3.4-1.6c-4.3-2.9-8.6-5.9-12.9-8.7c-7-4.6-15.1-7.1-23.5-7.2
			c-1,0-2,0.2-3,0.3c-0.7,0.1-1.3-0.3-1.4-1c0,0,0,0,0,0c-0.1-0.6,0.2-1.1,0.7-1.3c0.4-0.2,0.8-0.4,1.2-0.6c2.8-1.1,5.7-2,8.5-2.9
			c5.2-1.6,10.9-0.9,15.5,2c5.7,3.3,11,7.2,15.9,11.6c1.5,1.4,2.9,2.8,4.3,4.2C254.5,219.2,254.9,220.1,254.9,221.1z"/>
		<path class="st13" d="M349.8,218.2c13.3-0.3,26.5,1.9,39,6.5c0.7,0.2,1.3,0.5,2,0.8c0.5,0.2,0.8,0.7,0.7,1.2c0,0,0,0.1,0,0.1
			c-0.2,0.5-0.8,0.8-1.4,0.7c-1-0.2-1.9-0.5-2.9-0.8c-5.1-1.8-10.3-3.2-15.5-4.3c-10.2-1.8-20.6-2.4-31-1.7
			c-9.5,0.5-18.8,2.1-28,4.6c-3.5,0.9-6.9,2.2-10.2,3.9c-0.3,0.2-0.7,0.4-1,0.5c-0.6,0.2-1.3,0.3-1.6-0.5s0.2-1.1,0.6-1.4
			c1.6-1,3.3-1.9,5.1-2.6c7.9-3.2,16.2-4.8,24.6-6C336.7,218.4,343.3,218,349.8,218.2z"/>
		<path class="st14" d="M315.1,259.7c-0.2,0.8-0.7,1-1.4,0.7s-1.1-0.9-1.6-1.5c-4.1-4.7-8.6-8.9-13.6-12.6c-2.5-2-5.3-3.6-8.3-4.7
			c-0.4-0.1-0.8-0.3-1.2-0.6c-0.5-0.2-0.7-0.8-0.5-1.3c0,0,0,0,0-0.1c0.2-0.4,0.7-0.6,1.1-0.5c0.6,0.2,1.2,0.4,1.8,0.6
			c2.7,1.1,5.3,2.5,7.6,4.2c5.4,3.8,10.3,8.2,14.6,13.2C314.9,258.5,315.2,259.1,315.1,259.7z"/>
		<path class="st15" d="M304.2,271.9c-0.1,0.7-0.1,1.3-0.8,1.5s-1-0.3-1.3-0.8c-0.1-0.2-0.2-0.5-0.3-0.8c-2.3-6.1-5.5-11.9-9.4-17.2
			c-0.3-0.4-0.5-0.8-0.6-1.2c-0.1-0.4,0-0.9,0.5-1.2c0.3-0.2,0.7-0.1,1,0.1c0.4,0.4,0.8,0.8,1.1,1.2c3.8,5.1,6.9,10.7,9.4,16.6
			C304,270.8,304.1,271.4,304.2,271.9z"/>
		<path class="st8" d="M291.5,245.2c0.5,0,0.9,0.2,1.3,0.5c3.7,2.7,7,5.8,9.9,9.4c0.3,0.4,0.5,0.7,0.7,1.1c0.2,0.3,0.1,0.8-0.2,1
			c-0.3,0.4-0.8,0.5-1.2,0.2c0,0,0,0,0,0c-0.5-0.4-1-0.8-1.4-1.3c-2.6-3.1-5.5-5.8-8.7-8.3c-0.4-0.3-0.8-0.7-1.1-1.2
			C290.4,245.9,290.8,245.4,291.5,245.2z"/>
		<path class="st16" d="M287.5,221.8c-0.1,1.3-0.2,3.3-0.4,5.3c-0.1,0.5-0.2,1.1-0.5,1.5c-0.1,0.4-0.5,0.5-0.9,0.4
			c-0.4-0.1-0.6-0.4-0.6-0.8c0.1-1.1,0.3-2.2,0.3-3.3c0.1-3.1,0.1-6.2-0.1-9.3c0-0.6-0.2-1.3,0.8-1.4s0.9,0.7,1,1.3
			C287.2,217.5,287.3,219.3,287.5,221.8z"/>
		<path class="st17" d="M151.8,293.7l-0.1-0.5c-0.1-0.1-0.1-0.3,0-0.5C152,293,152.6,293.3,151.8,293.7z"/>
		<path class="st18" d="M158.9,469.1c-0.8-0.7-0.5-1.4-0.3-2.2c1.4-4.8,4.6-8.2,8.5-11c1.7-1.2,3.6-2.2,5.6-2.9
			c0.6-0.2,1.1-0.2,1.4,0.4s-0.1,1-0.6,1.3c-0.9,0.5-1.8,0.9-2.7,1.3c-5.2,2.7-9.2,6.5-10.8,12.4c-0.1,0.4-0.3,0.7-0.6,0.9l-0.3-0.1
			L158.9,469.1z"/>
		<path class="st19" d="M165.5,470.7c0.9-3.5,3-6.6,5.9-8.9c1.6-1.4,3.4-2.4,5.4-3.2c0.6-0.2,1.3-0.4,1.6,0.5c0.2,0.6-0.3,1-0.8,1.2
			l-1,0.5c-3.7,1.7-6.7,4.5-8.6,8.1c-0.4,0.8-0.6,2-2,2C165.8,470.8,165.6,470.8,165.5,470.7z"/>
		<path class="st20" d="M267.9,472.5c-0.4-0.1-1.1,0-0.8-0.7c2-4.7,0.4-8.8-1.8-13c-0.3-0.6-1.3-1.5-0.3-2.1
			c1.2-0.7,1.5,0.6,1.9,1.4c2.3,3.9,3.7,8.1,2.7,12.7C269.2,471.6,268.6,472.1,267.9,472.5z"/>
		<path class="st21" d="M254.2,473.5c0.9-3.4,0.4-7-1.4-10c-0.2-0.3-0.1-0.8,0.2-1c0.1,0,0.1-0.1,0.2-0.1c0.4-0.2,0.9,0,1.1,0.5
			c1.8,3.1,3,6.4,1.4,10C255.2,472.9,254.6,473.1,254.2,473.5z"/>
		<path class="st22" d="M253.4,352.7l-9.1,5.9c-2.1-2-4.1-3.9-6.1-5.8c-1.2-1.1-2.3-2.4-3.4-3.5c-0.4-0.4-0.9-0.8-1.4-0.5
			c-0.6,0.3-0.9,0.9-0.8,1.6c0.1,0.5,0.1,0.9,0.2,1.4c0.6,8.6-0.3,17.1-0.9,25.7c-0.1,1.4-0.9,1.2-1.9,1.2
			c-8.6-0.4-17.1-0.4-25.7,0.1c-7.9,0.7-15.7,2.3-23.2,4.8l-2.4,0.7c-0.7-2.2-1-4.5-0.9-6.8c0.1-4.3,0.9-8.5,1.4-12.8
			c0.1-0.7,0.5-1.4,1-1.9c1.4-1.7,2.7-3.4,3.8-5.3c0.3-0.5,0.6-1.1,0.7-1.7c0.2-0.5,0-1-0.5-1.1c-0.4-0.2-0.9-0.1-1.2,0.3
			c-0.6,0.8-1,1.7-1.6,2.5c-1,1.6-2.1,3.1-3.4,4.4c-1.8-4.7-3.3-9.1-5.6-13.3c-0.6-1,0-1.8,0.4-2.5c2.6-5,5.7-9.8,9.2-14.2
			c2-2.4,3.8-4.9,5.2-7.7c0.4-0.9,1.3-1.5,2.4-1.4c4.1-0.1,8.2,0.7,12.3,0.7c1.5,0,2.3,1.4,3.3,2.2c1.8,1.3,2.1,2.8,1.7,5.1
			c-2,9.7-3.7,19.5-6.2,29.1c-1,3.9,1.1,6.4,2.8,9.3c0.4,0.7,1.3,1,2.1,0.6c0,0,0.1,0,0.1-0.1c2.6-1.4,5-3,7.3-4.8
			c0.9-0.6,0.7-1.6,0.6-2.5c-1-10.7-2-21.4-3.1-32.1c-0.3-1.4,0.3-2.9,1.5-3.7c1.7-1.4,3.4-2.6,5.7-2.8c3.3-0.3,6.5-0.8,9.7-1.5
			c1.2-0.3,2.4,0.1,3.1,1.1c7.7,7.7,14.9,15.8,20.5,25.2c0.7,1.3,1.5,2.5,2.3,3.7C253.3,352.4,253.3,352.5,253.4,352.7z"/>
		<path class="st22" d="M220.7,419.4c1.6-0.4,2.8-0.6,4-0.9c0.6-0.2,1.2-0.6,1-1.4s-0.8-0.9-1.5-0.8c-2,0.3-3.9,0.8-5.9,1
			c-2.6,0.3-5.1,0.1-7.2-1.6c-0.5-0.4-1-0.6-1.5-0.2s-0.4,1.1-0.1,1.7c0.2,0.3,0.4,0.7,0.8,0.8c2.1,0.6,1.8,2.1,1.5,3.7
			c-1.2,7.3-3.9,14.2-6.2,21.2c-0.1,0.8-0.9,1.4-1.7,1.3c0,0,0,0-0.1,0h-0.3c-4.5,0-5.2-0.6-6.3-4.9c-1.8-7.2-4.2-14.2-7.1-20.9
			c-3.5-7.9-6.3-16.1-9.3-24.3c-0.6-1.8-0.6-1.8,1.3-2.4c5.2-1.4,10.5-2.5,15.8-3c8-1,16-1.4,24-1.1c2.9,0.1,5.8,0.4,8.7,0.6
			c1-0.1,2,0.6,2.1,1.6c3.2,13.1,6.6,26.2,6.5,39.9c0,2.6-0.3,5.1-0.8,7.6c-0.1,0.9-0.7,1.7-1.7,1.9c-1.9,0.5-4,2-5.7,1.4
			s-1.8-3.2-2.6-4.9C226,430.3,223.9,424.8,220.7,419.4z"/>
		<path class="st22" d="M231.8,385.9c-7.1-0.7-14.2-0.9-21.4-0.6c0-1.6-0.5-3.2-1.6-4.4c2.3-0.1,4.1-0.3,5.9-0.3
			c4.6,0,9.1,0.1,13.7,0.2c2.3,0,2.3,0.1,2.8,2.4L231.8,385.9z"/>
		<path class="st22" d="M200.4,381.4c0.1,1.5-0.2,3,0.8,4.3c-2.3,0.8-4.4,0.8-6.5,1.1c-4.5,0.6-9,1.6-13.4,2.9
			c-1,0.3-1.9,0.6-2.3-0.9c-0.6-2.1-0.7-2.1,0.9-2.7C186.7,383.8,193.5,382.3,200.4,381.4z"/>
		<path class="st22" d="M226.9,319.8l-11.2,1.9c-0.8,0.2-1.6-0.2-2-0.9c-0.6-1.1-1.4-2.1-2.2-3.5c2.1-0.2,4,0,5.8-0.3
			c2.1-0.3,4.1-0.5,6.2-0.8c2.4-0.3,2.5-0.3,3.3,2.1C227.1,318.8,227.1,319.4,226.9,319.8z"/>
		<path class="st22" d="M189.2,320.3c0.5-3.6,0.5-3.6,3.9-3.5c4.1,0,8.2,0.3,12.3,0.9c-0.2,1.2-1.1,1.9-1.6,2.8
			c-0.3,0.5-1,0.8-1.6,0.7C197.9,320.8,193.7,320.6,189.2,320.3z"/>
		<path class="st22" d="M174.3,366.2c-2.1-5.7-5.1-10.6-6.8-16.1c-0.1-0.3-0.2-0.5-0.3-0.8c-0.2-0.9,0.5-1.3,1.1-1.7s1,0.3,1.2,0.7
			c1.2,1.9,2.2,4,3,6.1c1,2.5,1.9,5.1,2.8,7.7C176,363.9,176,363.9,174.3,366.2z"/>
		<path class="st22" d="M205.1,367.4c-0.7-1.2-1.3-2.2-1.9-3.2c-0.8-1.1-0.5-2.2-0.3-3.4c0-0.6,0.5-1.1,1.2-1.1c0.1,0,0.2,0,0.4,0.1
			c1.7,0.3,3.4,0.4,5.1,0.7c0.6,0.1,1.4-0.1,1.5,0.8s0.6,1.9-0.6,2.7C208.6,365,206.9,366.2,205.1,367.4z"/>
		<path class="st22" d="M210.6,357.9l-3.3-0.4c-3.6-0.4-3.6-0.4-2.8-4.1c0.6-2.7,0.7-2.8,3.6-2.4c1.5,0.2,2.3,0.6,2.2,2.3
			C210.3,354.8,210.4,356.3,210.6,357.9z"/>
		<path class="st22" d="M208.5,317.8c1.7,1.4,3.1,3.2,4,5.2l-3.4,2.9c-4.3-2.9-4.3-2.9-1.5-6.9C207.9,318.8,208.1,318.4,208.5,317.8
			z"/>
		<path class="st22" d="M255.9,354.8c-3.4,2.7-6.9,5.3-10.5,7.7c-0.1,0.1-0.3,0.2-0.5,0.3c-0.5,0.2-1.1,0.5-1.4-0.2s0.3-0.7,0.6-1
			c1.9-1.3,3.7-2.6,5.6-3.8s4-2.5,6-3.7l0.2,0.2C256.1,354.5,256,354.6,255.9,354.8z"/>
		<path class="st22" d="M209.9,348.4c-0.2,0.1-0.4,0.1-0.6,0.1c-4.1-0.4-3.9,0.8-3-4.1c0.2-1.1,0.7-1.2,1.6-1.3s1.5,0.4,1.6,1.4
			C209.7,345.7,209.8,346.9,209.9,348.4z"/>
		<path class="st22" d="M205.5,385.6c-1.1,0.2-2.1-0.3-2.6-1.3c-0.4-0.7-0.4-1.6,0-2.4c0.4-0.7,1.3-0.5,2-0.5c0.5,0,0.9,0.2,1.3,0.4
			c1,0.5,2,1.3,1.9,2.4C207.8,385.7,206.4,385.4,205.5,385.6z"/>
		<path class="st22" d="M208.7,335.4c0.2,1.3,0.3,2.6,0.5,4c0.1,0.8-0.2,1.2-1,1.1s-1.2-0.3-1-1.1s0.4-1.6,0.5-2.4
			c0.4-0.5,0.1-1.2,0.4-1.7l0,0C208.3,335.2,208.5,335.2,208.7,335.4z"/>
		<path class="st23" d="M255.8,354.1c0.3-0.3,0.6-0.8,1.1-0.3c0.2,0.2,0,0.7-0.4,0.8c-0.2-0.1-0.4-0.2-0.6-0.2
			C255.8,354.3,255.8,354.2,255.8,354.1z"/>
		<path class="st24" d="M208.2,334.4c-0.1-0.4,0-0.9,0.3-1.3c0.3,0.4,0.4,0.8,0.2,1.3C208.5,334.6,208.3,334.6,208.2,334.4z"/>
		<path class="st22" d="M208.1,335.4c0,0.6,0.2,1.2-0.4,1.7C207.6,336.5,207.8,335.9,208.1,335.4z"/>
		<path class="st22" d="M208.7,335.4h-0.6c-0.1-0.2,0-0.4,0.1-0.5c0.1-0.2,0.3-0.2,0.4,0L208.7,335.4z"/>
		<path class="st25" d="M255.9,354.4c0.3-0.1,0.4,0,0.6,0.2l-0.5,0.3C255.9,354.7,255.9,354.5,255.9,354.4z"/>
		<path class="st26" d="M208.6,334.9h-0.4v-0.5c0.2,0,0.3,0,0.5,0C208.8,334.6,208.7,334.7,208.6,334.9z"/>
		<path class="st22" d="M209.8,451.6l0.5,0.6C210.1,452.1,209.9,451.9,209.8,451.6z"/>
		<path class="st27" d="M169.2,226.5c1,6.9-2.1,12.2-6.3,17.2c-0.4,0.6-1.2,0.9-1.9,0.7c-4.1-0.6-8.2-0.7-12.3-0.3
			c-0.9,0.2-1.8-0.4-2.1-1.3c-0.7-1.6-1-3.3-0.9-5.1c0.3-4.6,2.4-8.3,5.7-11.9c0.1,1.3,0.1,2.3,0.2,3.2c0.6,4.6,4.6,7.2,9,5.7
			c3.6-1.2,6.4-4.1,7.5-7.7C168.5,226.7,168.6,226.1,169.2,226.5z"/>
		<path class="st22" d="M160.2,226c0,1.8-1.2,3.3-2.7,3.2c-1.2-0.2-2.1-1.3-1.9-2.5c0,0,0,0,0,0c0.1-1.7,1.4-3.4,2.6-3.4
			S160.2,224.3,160.2,226z"/>
		<path class="st22" d="M163.8,229.7c0,0.6-0.6,1.1-1.2,1.1c0,0-0.1,0-0.1,0c-0.5-0.1-0.9-0.6-0.9-1.1c0,0,0,0,0,0c0-0.6,0.4-1,1-1
			c0.1,0,0.2,0,0.3,0C163.4,228.6,163.8,229.1,163.8,229.7z"/>
		<path class="st28" d="M169.2,226.5l-1,0.6c-0.1-0.7,0-1.3,0.7-1.4C169.3,225.6,169.4,226.1,169.2,226.5z"/>
		<path class="st29" d="M150.7,365.7c0.1,1.6-1.3,2.7-2.7,1.9c-2.4-1.2-4.3-3.2-5.2-5.7c-0.4-0.9-0.1-2,0.8-2.4
			c0.4-0.2,0.9-0.2,1.3-0.1C147.2,359.6,150.6,363.3,150.7,365.7z"/>
		<path class="st22" d="M60.3,174.4c-1.9,6.8-4.6,13.4-7.8,19.7c-4,7.3-8.5,14.2-13.5,20.8c-1.4,1.9-3,3.7-4.8,5.2
			c-0.9,0.7-1.9,1.3-3,0.7s-1.1-1.8-1-2.9c0.7-6.5,3.2-12.6,7.2-17.7c1.5-2,3.2-4,4.9-5.9c6-6.5,12-13,17.4-19.9
			c0.1-0.2,0.3-0.2,0.5-0.1C60.2,174.3,60.3,174.3,60.3,174.4z"/>
		<path class="st22" d="M60.3,174.4h-0.6c0-0.5,0.4-0.7,0.6-1.1c0.1-0.2,0.3-0.2,0.4-0.1c0.1,0,0.1,0.1,0.1,0.1
			C60.8,173.7,60.8,174.2,60.3,174.4z"/>
		<path class="st30" d="M60.8,173.3h-0.6c0.2-0.4,0.3-1.1,0.9-0.8C61.4,172.6,61.2,173.1,60.8,173.3z"/>
		<path class="st31" d="M494.1,240.7c-2.8,8.1-6.8,15.7-11.8,22.7c-1.4,2.1-3.3,3.9-5.5,5.3c-0.9,0.5-1.8,1-2.8,0.4
			s-0.7-1.6-0.7-2.5c0.1-1.7,0.7-3.4,1.7-4.9c1.9-3.3,4.3-6.4,7-9.1c3.9-4,7.8-8,11.7-11.9C493.8,240.4,493.9,240.5,494.1,240.7z"/>
		<path class="st32" d="M494.1,240.7l-0.3,0.1l-0.2-0.1c0-0.4,0.2-0.7,0.6-0.8c0.1,0,0.3,0.1,0.3,0.2
			C494.5,240.4,494.3,240.6,494.1,240.7z"/>
		<path class="st22" d="M28.5,411.1c-1.3,6-3.1,12-5.2,17.8c-0.6,2-1.4,3.9-2.5,5.8c-0.5,0.8-1,2.1-2.1,1.7s-1-1.6-1-2.6
			c0-3,0.7-6,1.9-8.8c2.4-5.4,5.2-10.6,8.3-15.6C29.3,409.6,28.7,410.4,28.5,411.1z"/>
		<path class="st22" d="M28.5,411.1c-0.2-0.6,0.1-1.3-0.6-1.7c-0.1-0.5,0.3-0.8,0.5-1.1c0.5-0.1,0.9,0,0.6,0.7
			C29.2,409.7,29,410.5,28.5,411.1z"/>
		<path class="st33" d="M29.1,409l-0.6-0.7l0.6-1.5c0.5-0.2,0.7,0,0.6,0.5C29.7,407.9,29.5,408.5,29.1,409z"/>
		<path class="st34" d="M29.7,407.2l-0.6-0.5c0.1-0.5,0.5-1.1,0.8-0.9C30.4,406.2,30.1,406.8,29.7,407.2z"/>
		<path class="st22" d="M468,392c-4.9,9.3-10.4,17-13.8,18.8c0.3-2,1-3.9,2.2-5.6c1.9-3.1,4-6.1,6.4-8.8c1.5-1.7,3-3.4,4.5-5.1
			C467.8,391.2,468.1,391.4,468,392z"/>
		<path class="st22" d="M468,392l-0.7-0.7c0.4-0.8,1-1.6,1.7-2.2l0.2,0.1c0.1,0.1,0.1,0.3,0.2,0.5C469.2,390.5,468.7,391.4,468,392z
			"/>
		<path class="st35" d="M470.1,388.1c0,0.5,0,0.9-0.5,1.1c-0.2,0.1-0.3,0.2-0.5,0.3c-0.1-0.1-0.1-0.2-0.1-0.3c0.1-0.5,0.6-1,1.1-1.1
			L470.1,388.1z"/>
		<path class="st36" d="M470,387.5c0.1-0.4,0.4-0.9,0.8-0.7s0.1,0.5-0.2,0.7C470.5,387.6,470.3,387.7,470,387.5
			C470.1,387.6,470.1,387.5,470,387.5z"/>
		<path class="st37" d="M470,387.5h0.5c0,0.3-0.1,0.5-0.5,0.6L470,388C470,387.8,470,387.7,470,387.5z"/>
		<path class="st22" d="M469.1,389.4l0.5-0.3l-0.2,0.5C469.3,389.6,469.2,389.5,469.1,389.4z"/>
		<path class="st22" d="M103.1,345.5c-2,9.6-6.1,18.3-9.6,19.8c1.3-7.9,5.5-14.3,9-21C103.6,344.3,103.2,345,103.1,345.5z"/>
		<path class="st22" d="M103.1,345.5c-0.2-0.4-0.1-0.9-0.6-1.2l0.5-1.1c0.5-0.1,0.8,0.1,0.6,0.7S103.6,345,103.1,345.5z"/>
		<path class="st38" d="M103.6,342c0.1-0.5,0.5-1,0.8-0.8c0.5,0.4,0.2,0.9-0.2,1.4C103.8,342.6,103.7,342.3,103.6,342z"/>
		<path class="st39" d="M103.6,342c0.4,0,0.5,0.3,0.6,0.6c0,0.5-0.2,0.9-0.5,1.2l-0.6-0.7L103.6,342z"/>
		<path class="st22" d="M256.5,114.7c-0.9,4.1-2.7,7.9-5.2,11.3c-0.5,0.7-1.1,1.4-1.8,2c-0.6,0.5-1.3,1.3-2.1,0.8s-0.4-1.5-0.3-2.3
			c0.4-1.2,0.9-2.4,1.7-3.4c2.1-3.2,4.8-5.9,7.1-9C256.4,114,256.6,114.2,256.5,114.7z"/>
		<path class="st40" d="M256.5,114.7l-0.6-0.6c0.1-0.5,0.5-1.1,0.8-0.9C257.3,113.7,257,114.3,256.5,114.7z"/>
		<path class="st22" d="M242.4,242.3c1.4,1.4,2.5,3.2,3.1,5.1c1.9,4.8,2,10.2,0.1,15c-0.4,1.1-0.7,1.7-2.1,1
			c-9-4.4-18.8-7.2-28.8-8.2c-2.5-0.3-5.1-0.2-8-0.3c0.9-7.1,5.1-13.4,11.4-16.9c1,6.7,4.4,11.1,11,11.9
			C235.3,250.6,239.6,247.6,242.4,242.3z"/>
		<path class="st22" d="M229.7,239.2c0,1.6-0.9,3-2.3,3.8c-0.8,0.6-1.9,0.4-2.5-0.3c-0.1-0.1-0.2-0.3-0.3-0.5
			c-0.6-1.9-0.1-3.9,1.3-5.3c0.7-0.5,1.6-0.6,2.3-0.2C229.3,237.2,229.8,238.2,229.7,239.2z"/>
		<path class="st22" d="M232.6,242.8c0.7,0.1,1.3,0.7,1.2,1.4c0,0.1,0,0.1,0,0.2c-0.1,0.8-0.6,1.4-1.4,1.3c-0.6,0-1.1-0.5-1.1-1.1
			c0-0.1,0-0.1,0-0.2C231.2,243.7,231.8,242.9,232.6,242.8z"/>
		<path class="st22" d="M161.1,255.4c-0.6,1.8-0.7,3.8-0.4,5.6c0.1,0.4-0.1,0.9-0.5,1c0,0-0.1,0-0.1,0c-0.5,0.1-0.9-0.3-1-0.7
			c0,0,0,0,0,0c-0.5-2.2-0.3-4.6,0.4-6.7c0.2-0.6,0.7-1,1.3-0.7C161.3,254.1,161.3,254.7,161.1,255.4z"/>
	</g>
</g>
</svg>
