<?xml version="1.0" encoding="utf-8"?>
<!-- Generator: Adobe Illustrator 23.0.2, SVG Export Plug-In . SVG Version: 6.00 Build 0)  -->
<svg version="1.1" id="Layer_1" xmlns="http://www.w3.org/2000/svg" xmlns:xlink="http://www.w3.org/1999/xlink" x="0px" y="0px"
	 viewBox="0 0 357.3 469.8" style="enable-background:new 0 0 357.3 469.8;" xml:space="preserve">
<style type="text/css">
	.st0{fill:#E07476;}
	.st1{fill:#549BF8;}
	.st2{fill:#010101;}
	.st3{fill:#010001;}
	.st4{fill:#030303;}
	.st5{fill:#040404;}
	.st6{fill:#030102;}
	.st7{fill:#DE7375;}
	.st8{fill:#070707;}
	.st9{fill:#080707;}
	.st10{fill:#0B0B0B;}
	.st11{fill:#0E0909;}
	.st12{fill:#DC7274;}
	.st13{fill:#D87375;}
	.st14{fill:#1C1616;}
	.st15{fill:#1C1111;}
	.st16{fill:#1D1616;}
	.st17{fill:#1E1919;}
	.st18{fill:#181313;}
	.st19{fill:#DA7274;}
	.st20{fill:#FFFFFF;}
	.st21{fill:#020101;}
	.st22{fill:#050202;}
	.st23{fill:#060303;}
	.st24{fill:#0B0505;}
	.st25{fill:#0D0606;}
	.st26{fill:#14090A;}
	.st27{fill:#160A0A;}
	.st28{fill:#140808;}
	.st29{fill:#1A0E0F;}
	.st30{fill:#1E0F10;}
	.st31{fill:#150A0A;}
	.st32{fill:#4E2526;}
	.st33{fill:#372122;}
	.st34{fill:#3E2425;}
	.st35{fill:#060202;}
	.st36{fill:#893D3E;}
	.st37{fill:#8F5354;}
	.st38{fill:#492E2F;}
	.st39{fill:#E1F0FF;}
	.st40{fill:#010000;}
	.st41{fill:#040202;}
	.st42{fill:#D47476;}
	.st43{fill:#FEFEFE;}
	.st44{fill:#EDF1F6;}
	.st45{fill:#FFD574;}
	.st46{fill:#0A0506;}
	.st47{fill:#090505;}
	.st48{fill:#CAD1E5;}
	.st49{fill:#73A6E5;}
	.st50{fill:#7B3C3D;}
	.st51{fill:#DF7476;}
	.st52{fill:#DF7A7C;}
	.st53{fill:#D9787A;}
	.st54{fill:#999393;}
	.st55{fill:#848888;}
	.st56{fill:#9AA8A8;}
	.st57{fill:#6B7575;}
	.st58{fill:#602A2B;}
	.st59{fill:#050505;}
	.st60{fill:#525050;}
	.st61{fill:#623738;}
	.st62{fill:#914C4D;}
	.st63{fill:#B65E5F;}
	.st64{fill:#583435;}
	.st65{fill:#DD7274;}
	.st66{fill:#DB7274;}
	.st67{fill:#DB7173;}
	.st68{fill:#D97173;}
	.st69{fill:#BD6062;}
	.st70{fill:#DD7375;}
	.st71{fill:#181212;}
	.st72{fill:#171414;}
	.st73{fill:#080606;}
	.st74{fill:#080505;}
	.st75{fill:#0B0808;}
	.st76{fill:#0E0D0D;}
	.st77{fill:#0B0909;}
	.st78{fill:#171515;}
	.st79{fill:#151313;}
	.st80{fill:#110B0B;}
	.st81{fill:#0D0B0B;}
	.st82{fill:#6DA3EA;}
	.st83{fill:#65A2ED;}
	.st84{fill:#64A1EF;}
	.st85{fill:#69A2EB;}
	.st86{fill:#6BA4E7;}
	.st87{fill:#69A1EE;}
	.st88{fill:#63A0EF;}
	.st89{fill:#64A0F0;}
	.st90{fill:#629FF1;}
	.st91{fill:#68A3EA;}
	.st92{fill:#68A2EC;}
	.st93{fill:#E68889;}
	.st94{fill:#E78D8E;}
	.st95{fill:#414040;}
	.st96{fill:#010100;}
</style>
<title>Asset 228</title>
<g>
	<g id="Layer_1-2">
		<path class="st0" d="M196.8,65.9c-0.2,0.4-1,0.7-0.2,1.3c1,0.8,2.1,1.5,3.3,2c2.5,1,5.1,1.6,7.8,1.8c4.4,0,8.9-0.3,13.3-1
			c4.5-0.8,9.1-0.8,13.6,0c9.2,1.8,14.8,7.7,16.9,16.7c1.2,4.9,1.8,9.8,1.6,14.8c-0.1,3.7-1,7.4-2.6,10.7c-2,4.4-5.9,7.6-10.6,8.8
			c-1.2,0.2-2.2,0.9-2.8,1.9c-0.8-2.8-3-3.3-5.5-4c-7.8-2.3-16.3-1.2-23.3,2.9c-3.4,1.9-7.1,3.2-11,3.6c-6.3,0.7-11.1-2.2-15.4-6.2
			c-3.3-3-6.3-6.3-9.5-9.4c-1-1.1-2.2-2-3.4-2.8c-6-3.9-11.3-3.6-16.9,0.8c-2.4,1.9-4.3,4.3-5.6,7c2.3-2.3,4.3-5,6.9-6.9
			c4.6-3.4,9.4-3.6,14.2-0.5c2.5,1.5,4.8,3.5,6.7,5.8c3,3.6,6.5,6.9,10.3,9.6c1.5,1.2,2.5,2.3,1.9,4.4c-0.5,1.7,0.4,2.7,2.1,2.9
			c4.7,0.3,9.4,0,14.1-0.7c1.4-0.1,2.4-1.3,2.4-2.7c0.1-1.9,1.3-2.8,2.9-3.6c3.6-1.9,7.4-3.4,11.4-4.3c2-0.4,3.5-0.3,3.9,2.2
			c0.3,1.7,1.6,2.5,3.1,2.7c2.4,0.4,4.8,0.6,7.2,0.7c0.7,0,1.5-0.3,2.1,0.4c-2.1,5.2-4.8,10.2-8.1,14.8c-1.3,1.7-2.2,3.6-2.8,5.7
			c-1.2,0.8-0.1,2.1-0.6,3.1c-4,5.7-7.4,11.8-11.9,17c-4.4,5.1-9.3,9.5-16,11.4c-2.9-2-5.2-0.4-7.4,1.4c-12.6,1.1-25.3-1.4-36.5-7.4
			c-8.8-4.7-17.4-9.5-25-16c-3.8-3.3-7.3-6.8-10.7-10.6c-0.2-1-0.8-1.9-1.7-2.4c0-1.7-1.2-2.9-2-4.2c-5.8-9.1-5.6-18.5-1.1-28
			c3.3-7.1,8.3-13.2,12.8-19.4c3.6-4.9,7.8-9.4,10.9-14.7c0.9-1.3,1.5-2.8,2-4.3c0.5-1.9,0-2.7-1.9-3.3c-1.5-0.4-3-0.8-4.5-1.4
			c-6.8-2.5-10-8.9-8-15.9c0.8-2.7,2-5.2,3.7-7.4c1.7-2.7,5.4-3.5,8.1-1.7c0,0,0,0,0,0c1.9,1.1,3.3,2.7,4.2,4.7
			c1.1,2.4,2.1,4.9,3.3,7.4c0.7,1.9,1.8,3.7,3.1,5.2c1.4,1.8,4,2,5.7,0.6c0,0,0,0,0,0c1.8-1.1,2.8-2.9,4.1-4.4
			c1-1.2,1.8-2.6,3.3-3.3c0.6,1.5-0.3,2.7-0.8,3.9c-1.3,3.9-2.5,7.7-1.6,11.9c0.9,3.8,3.3,6.8,6.6,7.4c3.8,0.7,6.3-1.4,8.4-4.2
			c0.7-0.9,1.1-1.9,1.8-2.8c0.4-0.5,1-0.7,1.6-0.5c1.4,1.2,2.2,2.9,3.6,4.2c3.8,3.7,8.5,2.7,10.3-2.3c1.4-4,0.9-8.2,0.5-12.4
			c-0.1-1.3-0.9-2.5-0.1-3.8c0.9,0.3,1.3-0.3,1.7-1c0.9-1.7,1.6-3.5,2.2-5.4c0.8-2.7,2.5-5,4.9-6.5c2.3-1.3,4.7-0.8,5.6,1.5
			c1.9,4.8,2.7,9.7,0.6,14.7c-1-1.3-0.7-2.8-0.4-4.3c0.3-1.6,0.1-3.3-0.5-4.9c-1-2.7-3.4-3.1-5.4-1c-1,1.2-1.6,2.7-1.7,4.3
			c-0.6,4.3-0.4,8.7-2.6,12.7c-0.6,1.1,0,1.7,1.2,1.9C195.5,65.3,196.3,65.1,196.8,65.9z"/>
		<path d="M189.3,177.6c0.1,0,0.2-0.1,0.3-0.1c2.8-3.6,3.4-3.6,6.8-0.9c0.8-0.1,1.3,0.5,1.9,1c2.9,2.3,3.1,2.3,6.4,0.4
			c8.6-5,15.6-12.5,20-21.5c0.9-1.8,1.8-3.7,2.7-5.4c-1.4-0.8-3.2-1.1-3.3-3.3c-0.3-0.7-0.8-1.3-0.7-2c0.1-1.1,0.8-1,1.6-0.6
			c2.5,2.9,5.2,5.5,8.3,7.8c6.3,4.8,12.3,9.8,18.1,15.2c7.5,7.1,16.2,12,26.6,13.3c0.7,0.1,1.5,0.3,2.4,0.4c0-2.7,1.9-3,3.9-3.2
			c1.4-0.1,2.7-0.6,4.1,0s1.1,2.1,1.2,3.3c-0.1,1.1-0.3,2.1-0.7,3.1c-0.9,3.4,0.1,6.8,0.5,10.2c0.4,4.5,1.4,9,2.1,13.4
			c0.6,3.9,2.2,6.5,6.3,7.4c2,0.4,4,0.9,5.9,1.4c1.7,0.4,2.6,1.2,1,2.8l-1.3,0.1c-3.3,0.8-6-0.9-8.8-1.7c1.4,1.4,2.3,3.2,2.7,5.1
			c0.4,0.8,0.9,1.6,1.6,2.3c1,1.4,1,1.8-0.4,3c-0.7,0.6-1.4,1.2-2.2,1.8c-1.5,1.1-2.1,1-3.1-0.6c-1.5-2.4-1.5-2.4-4.5-1.4
			c0.6,1,1.3,1.9,2.2,2.7c8.4,8.7,14.2,19,18.4,30.1c3.1,8.1,4.4,16.7,3.7,25.3c-0.4,5.8-0.6,11.7-2.4,17.3c-2,6.4-5,12.4-8.9,17.8
			c-3.1,4.1-5.6,8.6-9.1,12.3c-4,4.4-4.5,9.5-5.4,14.7c-1.4,8.9-2.6,17.8-3.9,26.7c-1,6.5-2.5,12.9-4.4,19.2c-0.8,2.6-2,5.2-3.4,7.6
			c-0.7,1.4-2.1,2.4-3.7,2.7c-2.8,0.8-5.6,1.4-8.4,1.9c-14.6,3-29,7-43.2,11.2c-1.6,0.5-3.3,0.9-4.8-0.3c-0.9-0.9-1.5-2.1-1.7-3.4
			c-2.6-9-7.1-17.1-11.2-25.4c-1-1.6-2.2-3-3.6-4.3c-1-1-1.8-1.2-2.7,0.1c-6.3,9.8-14.7,18.2-20.7,28.2c-2.7,4.3-6,8-10,11.1
			c-0.9,0.8-2,1.3-3.2,1.5c-3.5,0.3-7.1-0.1-10.4-1.2c-10.8-3.5-22-4.8-33.4-4.8c-3.5,0-7,0.1-10.6,0c-1.7-0.1-3.4-0.1-4.4-1.8
			c-0.8-2.1-1.2-4.3-1-6.5c0.8-7.8-0.8-15.3-2.6-22.8c-3-12.1-5-24.5-6-37c0-0.7-0.1-1.5-0.4-2.2c-1.5-2.4-1.6-5.1-1.7-7.8
			c-0.3-5-0.2-10-0.1-15c0.1-3.4-0.9-6.6-1.9-9.8c-1.3-3.5-2.8-6.9-4.4-10.2c-3.1-6.8-5.7-13.7-6.6-21.1c-0.8-6.5-0.3-13.2,1.7-19.5
			c2.2-6.9,5.4-13.4,9.5-19.4c4.5-6.8,9.4-13.3,14.6-19.6c1-1.1,0.7-1.9,0.2-2.9c-2.3-5-4-10.2-5-15.6c-1.8-10.2,0-20.7,5.2-29.7
			c1-1.6,1.5-3.4,1.6-5.2c0-6.9,1.7-13.7,4.7-19.8c0.5-1.1,0.9-2.1-0.2-3.2c-0.8-0.8-0.2-1.8,0.1-2.6c0.9-2.3,2.2-4.5,3.8-6.4
			c0.5-0.2,1-0.9,1.7-0.3s0.4,1.3,0.1,1.9c-0.1,1.5-1.1,2.5-1.8,3.7c-1,1.3-0.7,3.1,0.6,4.1c0.1,0,0.1,0.1,0.2,0.1
			c5.8,4.9,12,9.4,18.4,13.4c1.1,0.6,2.3,1.1,3.6,1.4c7.9,2.5,15.2,5.9,21,12c1,1.2,2.4,2,4,2.3c6.3,1,12.6,1.9,19,2.5
			c2.3,0.2,3.9-0.3,4.8-2.6C187.1,179.2,188.1,178.2,189.3,177.6z"/>
		<path class="st1" d="M288.9,182c0-1.1-0.2-2.2-0.6-3.2c-0.4-5.6-0.5-11.1,1.6-16.4c0.2-0.6,0.5-1.2,0.7-1.8c0.3-0.6,0.3-1.4-0.2-2
			c-2.4-3.9-2.1-8.1,0.7-11.3c2.3-2.7,7.5-4.5,11.4-2.4c1.2,0.7,2.7,0.7,3.9,0c2.2-1.1,4.5-1.8,6.9-2.1c1.3-0.2,1.8-0.6,1.7-2
			c-0.1-1.6-0.1-3.1,0-4.7c0-1.3-0.4-1.9-1.8-1.7c-1.2,0.1-2.4,0.1-3.6,0.1c-0.5,0-0.9-0.3-1-0.8c0-0.5,0.3-0.9,0.7-1
			c0.3-0.1,0.5-0.2,0.8-0.2l11.4-0.8c0.2,0,0.4,0,0.5,0c0.5,0,0.9,0.4,1,0.9c0.1,0.5-0.2,1.1-0.8,1.2c0,0-0.1,0-0.1,0
			c-1,0.1-2,0.2-3,0.2c-1.4,0-2,0.7-1.9,2.1c0,0.5,0,0.9,0,1.4c0.1,1.5-0.4,3.2,0.5,4.3s2.6,0.4,4,0.6c2.2,0.2,4.4,0.7,6.5,1.3
			c1.3,0.7,3,0.4,4-0.7c2.8-2.5,6.2-2.5,9.5-1.5c4,1.1,6.4,5.2,5.4,9.2c-0.2,0.9-0.7,1.8-1.3,2.6c-1.1,1.6-0.8,2.5,0.1,3.9
			c3.1,4.8,4.7,10.3,4.7,16c0,5.8-1.6,11.5-4.6,16.4c0.5,1.3-0.9,1.8-1.2,2.8c-0.2,0.3-0.4,0.6-0.7,0.9c-0.6,0.6-1.1,1.3-1.6,2
			c-0.4,0.5-0.8,1-1.3,1.3c-1.1,0.7-2,1.6-2.9,2.5c-8.2,6.1-18.7,7.9-28.4,4.9c-1.7-0.5-3-0.7-3.9,1.2s-2.7,2-4.5,1.2
			c-2.5-1.2-4.9-2.6-7.1-4.3c-1.9-1.5-2.1-2.9-0.5-4.7s1.3-3-0.1-4.6c-1.2-1.5-2.3-3.1-3-4.9c-0.2-0.5-0.5-1-0.7-1.5
			C289.3,184.8,289.3,183.3,288.9,182z"/>
		<path class="st0" d="M291.1,187c1.3,2.4,2.8,4.6,4.5,6.6c0.7,0.5,0.8,1.4,0.3,2c-0.1,0.1-0.2,0.2-0.3,0.3
			c-0.6,0.6-1.1,1.2-1.7,1.8c-0.8,0.6-0.8,1.8-0.2,2.6c0.1,0.1,0.3,0.3,0.4,0.3c2.6,2,5.3,3.7,8.2,5.1c1.4,0.7,2.2,0.3,3-1.1
			c0.2-0.4,0.4-0.8,0.6-1.3c0.4-1.4,1.2-1.5,2.5-1.1c10.2,3.6,19.8,2.3,28.8-3.8c0.4-0.3,0.8-0.5,1.2-0.7c3.2-0.6,6.9,1.9,8.1,5.5
			c0.4,1.1,0.6,2.1,1.6,2.8c0.1,0.1,0.1,0.2,0.2,0.4c-3.8,3.9-8.6,5.8-13.5,7.9c-8.1,3.5-16.6,4.9-25.3,5.4
			c-1.7,0.1-3.4,0.8-5.2,0.5c0.6-1.9,0.6-2.1-0.9-2.2c-3.4-0.2-6.5-1.4-9.6-2.6c-1-0.4-1.9-1.2-2.2-2.2c-1.4-3.6-1.7-7.4-2.4-11.1
			c-0.7-4-1.1-8-1.6-12.1c-0.3-1.7-0.2-3.5,0.3-5.2c1-0.1,1.5,0.7,2.2,1.2C290.7,186.4,290.8,186.8,291.1,187z"/>
		<path class="st0" d="M103.6,418.1c1.8,0.8,3.7,1.1,5.7,1c6.2-0.1,12.4,0.1,18.6,0.5c8,0.4,16,1.9,23.7,4.3
			c3.6,1.1,7.4,1.6,11.2,1.6c0.2,1.4,0.1,1.6-1.9,2.6c-0.9,0.7-0.6,1.7-0.6,2.6c0,2.4,0,4.8,0,7.2c0,3-0.9,5.4-3.7,7
			c-1.8,1-3.5,2.3-5.4,3.4c-2.8,1.7-6.1,2.2-9.3,1.4c1.1-8.5-4.1-16.6-11.7-18.3c-0.6-0.2-1.3-0.3-1.9-0.3
			c-6.8,1.7-13.1-0.9-19.6-2.2c-1.5-0.3-2.6,1.1-4,0.5c0.4-2.3,0.1-4.7-0.7-6.9c0-0.4,0-0.7,0-1.1c-0.2-0.4-0.1-0.8-0.3-1.1
			L103.6,418.1z"/>
		<path class="st0" d="M215.4,417.4c1.3,1.1,2.7,0.8,4.2,0.3c10.7-3.4,21.6-6.1,32.5-8.9c5.5-1.4,11.2-2.5,16.8-3.7
			c2.3-0.5,4.7-0.9,6.6-2.6c0.3,1.4-0.3,2.6-0.5,4c-0.3,1.9-0.3,1.9,1.7,2.1c-0.2,1.2-1.3,1.1-2.1,1.3c-2.5,0.8-4.7,2-6.7,3.6
			c-2.7,2.2-4.2,5.4-4.1,8.9c-0.1,0.4-0.5,0.7-0.9,0.8c-1.3-0.3-2.1-1.4-3.3-2c-2.6-1.3-5-1.1-6.6,0.6s-1.6,4.5-0.2,6.9
			c0.5,0.8,1.6,1.3,1.6,2.5c-2.5,0.5-5-0.1-7.4-0.5c-4.7-0.7-9.5-1.3-14.2-1.6c-5.1-0.4-10.1-2-15-3.5c-1.9-0.5-3.1-2.3-2.9-4.2
			c0-0.9,0-1.8,0-2.8C214.5,417.9,214.4,417.3,215.4,417.4z"/>
		<path class="st2" d="M296.4,24.8c-1.9,0.9-3.7,1.9-5.4,3.1c-0.5,0.4-1.1,0.7-1.7,1c-0.4,0.2-1,0-1.2-0.4c-0.3-0.4-0.3-0.9,0.1-1.2
			c0,0,0,0,0,0c0.5-0.5,1.1-0.9,1.7-1.4c6.5-4.4,13.5-7.6,20.7-10.7c8.9-3.8,18-6.7,27.1-10l0.5-0.2c0.7-0.2,1.3-0.2,1.6,0.6
			s-0.2,1.3-0.8,1.6c-0.7,0.3-1.3,0.6-2,0.8c-2.3,0.8-4.5,1.7-6.8,2.4c-1.2,0.2-2,1.3-1.8,2.5c0,0,0,0.1,0,0.1c0.1,1.9,0,3.7,0,5.6
			c-0.1,6.6-0.9,13.1-4.4,18.7c0,0.5,0.1,0.6,0.3,0.6c5.3-0.2,9.7,2,13.6,5.4c2.9,2.6,6,5,9.1,7.3c0.7,0.7,1.7,0.7,2.5,0.2
			c0.6-0.4,1.3-0.8,1.9-1.1s1.6-0.9,2.1,0.2s-0.4,1.5-1,1.9c-0.5,0.3-0.9,0.6-1.4,0.8c-11.1,5.6-21.8,11.8-32.7,17.7
			c-2.8,1.5-5.7,2.7-8.5,4c-0.8,0.4-1.5,0.5-1.9-0.4s0.4-1.3,1-1.7c1.4-0.8,3.6-0.9,4.3-2.3c0.6-1.3,0-3.1,0.2-4.7
			c0.6-5.2,1-10.5,2.4-15.6c0.8-3.1,2-6.1,3.6-8.8c-4.8-0.6-9.4-2.4-13.3-5.3C302.3,32.4,299.4,28.5,296.4,24.8z"/>
		<path class="st2" d="M38.6,76.6c1.2,1.2,2.3,2.6,3.2,4.1c1.6,3.1,2.5,6.6,2.6,10.1c0.1,3.6,0.7,7.2,1.2,10.8
			c0.1,1.1,0.5,1.7,1.6,1.9c0.8,0.2,1.6,0.4,2.4,0.6s1.4,0.7,1.1,1.6s-1,0.8-1.6,0.7c-1.3-0.3-2.5-0.6-3.8-1
			c-9.1-3.2-18.4-5.7-27.7-8.3c-4.9-1.4-9.7-3-14.5-4.8c-0.3-0.1-0.7-0.3-1-0.4c-0.5-0.3-1-0.7-0.8-1.3c0.1-0.6,0.7-1,1.3-0.8
			c0.1,0,0.1,0,0.2,0.1c1.3,0.4,2.6,0.9,3.9,1.4c0.8,0.3,1.2,0.1,1.9-0.5c4.5-4.4,9.5-8.3,14.8-11.6c2.8-1.8,5.8-3.1,9-4.1
			c0.1-1-0.6-1.4-1-2c-2.9-4.2-4.4-9.2-4.4-14.4c-0.1-3.1,0.1-6.3,0.6-9.4c0.4-1-0.1-2-1.1-2.4C26.6,47,26.3,47,26.1,47
			c-1.5-0.3-2.9-0.6-4.4-0.9c-0.6-0.1-1.2-0.3-1.8-0.6c-0.3-0.2-0.5-0.6-0.4-0.9c0.1-0.4,0.3-0.7,0.7-0.8c0.6-0.1,1.3-0.1,1.9,0.2
			c7.9,1.3,15.3,4.1,22.7,7.1c9,3.6,17.5,8,26.2,12.1c0.4,0.1,0.7,0.3,1,0.5c0.3,0.2,0.4,0.6,0.3,1c-0.1,0.5-0.5,0.9-1,0.8
			c-0.8,0-1.7-0.3-2.4-0.7c-2.2-1.1-4.3-2.1-6.5-3.1c-2.2-1-1.8-1.3-3.7,0.6c-2.2,2.3-4.6,4.6-7.1,6.7c-3.7,3.1-7.7,5.8-12.5,6.9
			C39,76,38.7,76.1,38.6,76.6z"/>
		<path d="M173.7,68.1c-0.8,2.4-2.3,4.5-4.3,6c-3.5,2.7-8.5,2.1-11.2-1.3c-0.2-0.3-0.4-0.6-0.6-0.9c-1.7-2.8-2.4-6.1-2-9.3
			c0.4-3.8,2-7.3,3.3-10.8c1-1.6,2.3-3.1,3.7-4.5c1.4-1.4,3.3-2.2,5.3-1.9c3.8,0.6,4.2,3.9,5.2,6.6c0,0.2,0,0.3,0,0.5
			c0,0.3,0.1,0.5,0.2,0.8c0-0.2-0.2-0.5-0.1-0.7c0.5-2.1,1.1-4.1,2.8-5.6c1.8-2.5,5.1-2.3,7.9-0.3c2.2,1.7,4,3.9,5.3,6.3
			c1.4,4.5,1.4,9.1,1.1,13.7c-0.2,1.9-0.9,3.8-2.1,5.3c-1.9,2.7-5.6,3.4-8.4,1.6c-2.3-1.4-4.1-3.5-5-6
			C174,67.1,173.9,67.7,173.7,68.1z"/>
		<path class="st3" d="M235.8,124.7c-3.5,0.8-7,0.1-10.4-0.6c-1.6-0.2-2.8-1.7-2.7-3.3c0,0,0,0,0,0c0.1-1.6-0.8-1.7-1.9-1.5
			c-3.3,0.5-6.5,1.5-9.5,3c-1,0.5-2,1-3,1.4c-1.6,0.6-2.6,1.4-2.3,3.4c0.3,1.6-0.8,2.8-2.6,3c-5,0.7-10,1-15,0.8
			c-2.4-0.2-3.4-1.7-2.6-4c0.6-1.7,0.1-2.4-1.3-3.3c-4.6-3.1-8.3-7.3-12.2-11.3c-1.3-1.4-2.6-2.6-4.1-3.7c-5-3.8-10.6-3.6-15.2,0.5
			c-2.2,1.8-4,3.9-5.5,6.2c-0.2,0.4-0.5,0.8-0.8,1.1c-0.3,0.3-0.7,0.3-1,0.1c-0.3-0.2-0.5-0.5-0.6-0.9c0-0.7,0.3-1.4,0.8-2
			c2.2-3.5,5.1-6.4,8.6-8.5c5.3-3,10.4-1.8,15.1,1.5c2.8,2,5,4.7,7.4,7.1s4.7,4.7,7.3,6.8c5.8,4.9,12.2,5.3,19,2.7
			c2.2-0.9,4.4-1.9,6.6-3c6.3-3.4,13.6-4.2,20.5-2.2c1.5,0.4,3.1,0.7,4.6,0.8c2.2,0.4,2.2,0.4,2.2,2.7c0,0.5,0,0.9-0.1,1.4
			C236.8,123.7,236.3,124.2,235.8,124.7z"/>
		<path class="st2" d="M263.3,422.4c-0.6-3.1,0.6-5.5,2.5-7.8c2.9-3.4,6.7-5,10.9-6l3.2,0.6c0.9,0.7,2.1,0.6,3.1,1
			c4.2,1.3,7.3,4.7,8.4,8.9c0.7,2.7,0.5,5.6-3.2,6.2c-0.6,0.2-1.2,0.5-1.7,0.9c-2.4,2-5.3,2.6-8.3,2.8c-2.7,0.2-5.3,0.7-8,0.3
			c-1.7,0.1-2.7-0.9-3.8-2c-0.2-0.3-0.5-0.6-0.7-0.9c-0.4-0.5-0.8-0.9-1.2-1.3c-0.1-0.2-0.3-0.4-0.4-0.5c-0.2-0.4-0.4-0.8-0.6-1.2
			C263.3,423.2,263.5,422.8,263.3,422.4z"/>
		<path class="st4" d="M0,153.5c-0.1-1.2,0.1-1.8,0.8-2s1.2,0.2,1.3,1c0.5,3,2,5.6,3.5,8.1c6,10.3,12.6,20.1,20.7,28.8
			c0.6,0.7,2,1.4,1,2.5s-2-0.3-2.7-1c-6-6.1-10.9-13.1-15.5-20.2c-3.2-4.7-5.9-9.6-8.2-14.8C0.5,154.9,0.2,154,0,153.5z"/>
		<path class="st5" d="M235.9,40.3c-0.5-10.7-1.9-21.4-4.2-31.9c-0.3-2.3-1.1-4.5-2.3-6.5c-0.4-0.5-0.5-1,0-1.5
			c0.5-0.4,1.2-0.4,1.7,0.1c0,0,0,0,0.1,0.1c0.8,0.9,1.3,2,1.6,3.2c1.2,4,2.2,8,2.8,12.1c1.3,7.6,2.1,15.2,2.7,22.9
			c0.1,2.3,0,4.6-0.4,6.9c0,0.2,0,0.4-0.1,0.5c-0.1,0.7-0.4,1.3-1.2,1.2s-1-0.7-0.9-1.4s0.1-1.7,0.1-2.5
			C235.9,42.2,235.9,40.9,235.9,40.3z"/>
		<path class="st6" d="M196.8,65.9c-1.1,0.1-2.2,0.1-3.3,0c-1.1-0.3-1.7-1-1.1-2c2.6-4,2.4-8.6,3-13.1c0.1-1.6,0.6-3.1,1.5-4.5
			c1-1.6,2.3-2.7,4.4-2.3c1.4,0.2,2.7,2,3.1,3.8c0.5,2.3,0.1,4.6-0.1,6.9c0,0.5,0,1.1,0,1.7c-0.6,2.1-1.6,4.2-2.9,6
			C200.2,64,198.6,65.2,196.8,65.9z"/>
		<path class="st7" d="M340.7,196l1.4-1.3c3.8-0.8,6.6,0.9,9.3,3.3c0.6,0.6,0.7,2,2.2,1.5c0.1-0.3,0.2-0.7,0.1-1
			c-0.1-0.2-0.2-0.4-0.3-0.6s-0.3-0.5-0.5-0.8s-0.2-0.3-0.4-0.4l-0.4-0.4c0,0-0.2-0.2-0.2-0.2c-0.2-0.2-0.4-0.3-0.7-0.4
			c-0.2-0.1-0.3-0.2-0.5-0.3c-0.1-0.1-0.3-0.2-0.4-0.4s-0.2-0.2-0.2-0.1l-0.5-0.3c-0.2-0.1-0.3-0.2-0.5-0.3
			c-0.2-0.1-0.5-0.3-0.7-0.4l-0.5-0.2c-0.4-0.1-0.8-0.2-1.2-0.3c-0.2-0.1-0.4-0.2-0.6-0.3c-0.4-0.4-1.1-0.8-0.4-1.5
			c0.7-0.3,1.5-0.4,2.2-0.2c0.7,0.2,1.4,0.4,2.1,0.5c0.2,0,0.4,0.1,0.7,0.1c0.4,0.1,0.8,0.3,1.2,0.5c0.2,0.1,0.4,0.2,0.5,0.3
			s0.5,0.3,0.8,0.4c0.2,0.1,0.3,0.2,0.5,0.3c0.2,0.1,0.3,0.2,0.4,0.4l0.2,0.2c0.1,0.1,0.3,0.3,0.4,0.4c0.1,0.1,0.2,0.3,0.3,0.5
			c0.1,0.2,0.2,0.3,0.3,0.4c0,0,0.2,0.2,0.2,0.2c0.2,0.1,0.3,0.1,0.5,0.2c0.2,0,0.4,0.1,0.6,0.1c0.3,0.1,0.5,0.2,0.7,0.5
			c0.1,0.6,0,1.1-0.4,1.5c-1.3,1.2-2.1,2.7-2.4,4.4c-0.6,2.7-3.3,4.5-6.1,4.1l-0.2-0.2c-0.4-4.6-3-7.5-6.9-9.5
			C341,196.7,340.8,196.4,340.7,196z"/>
		<path class="st8" d="M91.2,51.8c1,0,1.1,0.8,1.4,1.5c1.9,4.4,4,8.7,6.3,12.9c0.7,1.2,1.4,2.4,2.1,3.6c0.4,0.7,0.8,1.5,0,2
			s-1.5-0.1-2-0.8s-0.8-1.2-1.2-1.9c-2.7-4.7-5-9.5-7.1-14.4c-0.3-0.6-0.4-1.2-0.5-1.8C90.2,52.2,90.6,51.8,91.2,51.8z"/>
		<path class="st9" d="M20.3,169.8c0,0,0.4,0.4,0.8,0.8c3.5,4,7.1,8,10.6,12.1c0.5,0.6,1,1.2,0.2,1.9s-1.4,0.1-1.9-0.5
			c-1.6-1.8-3.2-3.6-4.8-5.4c-1.9-2.2-3.9-4.4-5.8-6.7C18.6,171.1,18.8,170,20.3,169.8z"/>
		<path class="st8" d="M105,56.1c0.7,0.1,1.2,0.6,1.4,1.2c0.7,1.5,1.4,3,2.1,4.5c1.3,2.7,2.6,5.5,3.9,8.2c0.4,0.5,0.6,1.1,0.7,1.8
			c0.1,0.5-0.2,0.9-0.7,1.1c-0.4,0.1-0.8,0-1-0.3c-0.4-0.4-0.7-0.9-0.9-1.3c-2.1-4.4-4.1-8.9-6.1-13.3
			C103.8,56.8,104.2,56.1,105,56.1z"/>
		<path class="st10" d="M245.1,31.1c0.1,2.6-0.1,5.3-0.6,7.8c-0.2,1.3-0.6,2.5-1.3,3.6c-0.3,0.4-0.8,0.6-1.2,0.4
			c-0.5-0.2-0.7-0.6-0.7-1.1c0-0.3,0.1-0.5,0.2-0.8c1.4-4.4,1.5-8.9,1.3-13.4c0-0.9-0.4-2.1,0.9-2.1c1.2,0,1.2,1.2,1.2,2.1
			C245.1,28.9,245.1,30.2,245.1,31.1z"/>
		<path class="st11" d="M354.6,195.2c0-0.1,0-0.3-0.2-0.4c-0.1-0.2-0.3-0.4-0.5-0.5l0,0c-0.2-0.2-0.4-0.3-0.6-0.5l-0.1-0.1
			c-0.2-0.4-0.8-0.3-1-0.6l0,0c-0.3-0.3-0.8-0.2-1.1-0.5l-0.1-0.1h-0.2c-0.8-0.4-1.7,0-2.5-0.5c-0.9-0.3-1.9-0.3-2.8,0
			c-0.3,0.3-0.7,0.3-1,0.1c-0.1,0-0.1-0.1-0.1-0.2c0.2-1.1,1-1.8,1.6-2.6c3,0.3,6,0.4,8.6,2.3c1.4,1,2.8,2.2,2.6,4.2
			c-0.2,0.6-0.8,0.4-1.2,0.6h-0.2c-0.3-0.1-0.6-0.2-0.8-0.5l0,0C354.8,195.8,354.6,195.5,354.6,195.2z"/>
		<path class="st12" d="M172.6,52.3c-0.3-0.8-0.7-1.7-0.9-2.6c-0.4-2.1-1.9-3.8-3.9-4.6c1.7-0.2,3.5,0.2,5,1c1,0.5,2.1,0.7,3.2,0.6
			c-1,2-1.8,4-2.4,6.1C173,53.3,172.8,52.7,172.6,52.3z"/>
		<path class="st13" d="M297.1,223.9c-1.6-1.5-2.3-3.5-3.2-6c3,1.3,6.1,2.1,9.3,2.6C300.9,221.1,299,222.5,297.1,223.9z"/>
		<path class="st14" d="M253.6,111.1c2,0.3,3.9,0.9,5.8,1.8c0.4,0.1,0.7,0.6,0.6,1.1c0,0,0,0,0,0c-0.1,0.4-0.6,0.7-1,0.5
			c0,0-0.1,0-0.1,0c-2.1-0.6-4.1-1.5-6.4-1.6c-0.2,0-0.5-0.3-0.6-0.5c-0.1-0.4,0.1-0.8,0.4-1C252.7,111,253.2,111,253.6,111.1z"/>
		<path class="st15" d="M260,94.6c1,0,1.8,0.1,2.5,0.1c0.5,0,0.9,0.4,0.9,0.9c0,0.6-0.4,0.8-0.9,0.8c-2.1-0.1-4.2,0.1-6.3,0.6
			c-0.4,0.1-0.8-0.1-0.9-0.4c-0.2-0.4,0-1,0.4-1.2c0.5-0.2,1-0.4,1.6-0.5C258.3,94.8,259.3,94.7,260,94.6z"/>
		<path class="st16" d="M262.4,106.6c-0.1,0.4-0.5,0.7-0.9,0.6c-0.1,0-0.1,0-0.2-0.1c-1.7-0.8-3.3-1.7-4.9-2.6
			c-0.6-0.4-0.3-1.1,0.3-1.3c1-0.3,5.4,2.1,5.6,3C262.4,106.3,262.4,106.5,262.4,106.6z"/>
		<path class="st17" d="M117.4,81.9c-1.1-0.1-1.7-0.6-1.7-1.6c-0.1-0.6,0.3-1.2,0.9-1.3c0.1,0,0.2,0,0.2,0c0.8-0.1,1.5,0.5,1.6,1.2
			c0,0,0,0,0,0C118.6,81.2,118,81.7,117.4,81.9z"/>
		<path class="st18" d="M104.7,80.2c-0.8-0.1-1.4-0.8-1.3-1.6c0,0,0-0.1,0-0.1c0-0.7,0.4-1.3,1.2-1.1c0.8,0.1,1.4,0.9,1.3,1.8
			c0,0,0,0,0,0C105.9,79.9,105.5,80.2,104.7,80.2z"/>
		<path class="st19" d="M356,196.5l1.2-0.6c0,0.2,0.1,0.5,0.1,0.7L356,196.5z"/>
		<path class="st20" d="M103.6,420.2c0.3,0.3,0.5,0.7,0.3,1.1C103.6,421.1,103.5,420.6,103.6,420.2z"/>
		<path class="st20" d="M189.3,177.6c-1.1,1.6-2.1,3.2-2.9,5c-0.3,1-1.4,1.6-2.4,1.3c-6.9-0.6-13.8-1.6-20.7-2.6
			c-1.9-0.2-3.7-1.2-5-2.6c-5.6-6-12.8-9.4-20.5-11.7c-1.8-0.5-3.4-1.2-5-2.2c-6.3-4.2-12.4-8.8-18.2-13.7c-1.1-0.9-1.4-1.7-0.7-3.1
			c0.7-1.7,1.8-3.2,3-4.6c4.9,4.9,9.7,10,15.2,14.2c8.5,6.3,17.7,11.5,27.4,15.6c6.4,2.7,13.3,4.2,20.2,4.2
			C183,177.6,186.2,177.3,189.3,177.6z"/>
		<path class="st20" d="M224.1,147.9c0.5,0.5,1,1.1,1.6,1.5c2.3,2,2.2,2,0.8,4.8c-2.8,5.6-5.8,10.9-10.2,15.5
			c-3.9,4-8.3,7.3-13.3,9.9c-1.6,0.9-2.9,1-4.2-0.5c-0.8-0.9-1.7-1.6-2.6-2.5c0.2-0.4,0.6-0.7,1.1-0.8c6-2.3,10.6-6.2,14.6-11.1
			c3.6-4.6,6.9-9.4,10-14.3C222.6,149.5,223,148.4,224.1,147.9z"/>
		<path class="st2" d="M140.9,133.6c-0.3-1.6-0.6-3.1-0.9-4.6c-0.2-1.2,0-2.4,0.3-3.6c0.2-0.8,0.7-1.6,1.7-1.4s0.7,1.1,0.6,1.8
			c-0.9,4.1,0.8,7.8,2.1,11.6c0.2,0.6,0.9,0.9,1.4,1.3c2,1.4,4,2.7,6,4c0.5,0.4,1.2,0.6,1.5,1.2c0.2,0.3,0.2,0.7,0,1.1
			c-0.2,0.3-0.6,0.5-1,0.4c-0.3-0.1-0.7-0.2-1-0.4c-2.4-1.5-4.9-2.7-6.9-4.6c-0.4-0.6-1.4-0.4-1.8-1.2c-10.3-6.7-16.6-16-18-28.2
			c-0.7-6.3,0.9-12.3,4-17.8c1.7-2.9,3.6-5.6,5.7-8.2c2.2-2.7,4.3-5.6,6.1-8.6c0.2-0.3,0.4-0.6,0.6-0.9c0.4-0.6,0.9-1,1.6-0.6
			c0.9,0.4,0.7,1.2,0.4,1.9c-0.4,0.7-0.8,1.5-1.3,2.2c-2,3.2-4.4,6.2-6.7,9.2c-2.6,3.2-4.7,6.7-6.2,10.4c-3.5,9.6-1.8,18.6,3.4,27.1
			c2,3.3,4.6,6.3,7.7,8.7C140.8,134.4,141.1,134.3,140.9,133.6z"/>
		<path class="st21" d="M207.5,143c-2.6,0.4-5.1,0.8-7.7,1.1c-6.1,0.7-12-0.6-17.7-2.5c-0.7-0.2-1.3-0.4-1.1-1.3
			c0.2-0.6,0.8-1,1.5-0.9c0,0,0,0,0.1,0c0.7,0.1,1.4,0.3,2.1,0.6c11.3,3.7,21.9,1.6,32.3-3.3c2.4-1.2,4.5-3,6.2-5.1
			c0.5-0.6,1-1.1,1.6-1.6c0.4-0.3,0.9-0.3,1.3,0.1c0.4,0.3,0.6,0.8,0.4,1.2c-0.3,0.6-0.7,1.1-1.1,1.6c-2.6,3.3-6.1,5.8-10,7.2
			c-1.5,0.5-2.8,1.5-3.6,2.8c-1,1.7-2.4,3.1-4.1,4.1c-0.5,0.4-1.1,0.7-1.7,0.9c-0.6,0.2-1.3,0.3-1.6-0.5c-0.2-0.6,0.1-1.2,0.6-1.4
			c1.2-0.7,2.3-1.5,3.3-2.5C208.4,143.1,208.1,142.8,207.5,143z"/>
		<path class="st21" d="M219.8,144.5c0.7,1.9-0.3,3-1.7,4c-10.4,7.5-22,10.1-34.6,9.7c-5.2-0.2-10.2-1.6-15.4-2.2
			c-0.5-0.1-0.9-0.3-1-0.8c-0.1-0.6,0.3-1.1,0.8-1.3c0.8-0.2,1.7-0.2,2.4,0c3,0.5,6,1.1,9,1.5c7.2,0.9,14.5,0.4,21.5-1.4
			c6.1-1.5,11.5-4.5,16.6-8.1l1.8-1.3C219.3,144.5,219.5,144.5,219.8,144.5z"/>
		<path class="st21" d="M128.1,54.2c0.2-1.9,0.6-3.8,1.3-5.6c1.2-2.9,3.8-3.3,6-1.1c1,1,1.6,2.3,2,3.6c0.4,1.2,0.7,2.5,0.9,3.8
			c0.6,3.7,1.5,7.3,4.1,10.1c0.3,0.4,0.6,1,0.6,1.5c0.1,0.5-0.3,1-0.9,1.1c-0.2,0-0.4,0-0.6-0.1c-0.4-0.2-0.7-0.5-1-0.9
			c-1.4-1.8-3.4-3-5.6-3.4C130.1,62.1,128,59.3,128.1,54.2z"/>
		<path class="st22" d="M196.8,76.3c3.2,0.1,6.3,0.7,9.3,1.9c0.2,0.1,0.3,0.2,0.5,0.3c0.6,0.3,1.1,0.8,0.8,1.6
			c-0.2,0.6-0.9,0.9-1.6,0.7c0,0,0,0-0.1,0c-2.3-0.9-4.8-1.4-7.3-1.7c-6.3-0.4-12.6,1.4-17.8,5c-0.7,0.5-1.5,1.6-2.3,0.5
			s0.2-1.8,0.9-2.3c3.7-2.7,7.9-4.5,12.4-5.2C193.3,76.5,195,76.3,196.8,76.3z"/>
		<path class="st23" d="M142.9,139.2c0.7,0.2,1.4,0.4,1.8,1.2c-0.3-0.1-0.7-0.3-0.8-0.1c-3.8,3.4-4.9,8.8-2.8,13.5
			c1.5,3.2,3.4,6.2,5.7,8.9c0.4,0.5,0.8,1,1.2,1.5c0.3,0.4,0.6,0.8,0.2,1.2c-0.3,0.4-1,0.5-1.4,0.2c0,0-0.1,0-0.1-0.1
			c-0.2-0.1-0.4-0.3-0.6-0.4c-4.1-4-7.3-8.6-8.3-14.4c-0.6-3.8,0.9-7.1,3.2-10C141.4,139.8,142.4,139.9,142.9,139.2z"/>
		<path class="st21" d="M195.2,94.7c-2.8,0-5.4-1.4-6.9-3.7c-0.8-0.8-0.9-2.1-0.3-3.1c0.6-0.8,1.7-1.2,2.7-1
			c2.5,0.2,4.9,1.2,6.8,2.8c1.1,0.9,2.2,1.9,1.7,3.5S196.9,94.6,195.2,94.7z"/>
		<path class="st22" d="M219.5,88.5c-2,0-5.5-2.8-6-4.8c-0.4-1.2,0.3-2.4,1.5-2.8c0.4-0.1,0.8-0.1,1.2,0c2.5,0.5,4.5,2.3,5.4,4.7
			C222.2,87.6,221.4,88.6,219.5,88.5z"/>
		<path class="st24" d="M176.5,74.7c0.6,0.1,1.8,0.2,2.8,0.5c0.6,0,1,0.5,0.9,1.1c0,0,0,0.1,0,0.1c-0.1,0.6-0.6,1-1.1,1
			c-0.5,0-0.9,0-1.4-0.1c-3.1-0.6-5.8,0.3-8.5,1.8c-0.8,0.5-1.8,1.7-2.6,0.4s0.7-1.9,1.5-2.4C170.7,75.4,173.6,74.6,176.5,74.7z"/>
		<path class="st25" d="M144.7,123.1c-2.5-0.4-4.8-1.8-6.2-3.9c-0.4-0.4-0.3-1.1,0.1-1.4c0,0,0.1,0,0.1-0.1c0.4-0.3,0.9-0.3,1.3,0
			c0.6,0.5,1.1,1,1.6,1.5c1.4,1.3,3,1.9,4.8,0.9c0.2-0.1,0.5-0.2,0.8-0.3c0.5-0.2,1.2,0.1,1.4,0.6c0.2,0.5,0,1-0.4,1.3
			C147.1,122.4,145.9,122.9,144.7,123.1z"/>
		<path class="st26" d="M245.7,110.4c-0.1,0.4-0.2,0.7-0.6,0.8c-0.4,0.1-0.8-0.1-0.9-0.4c-0.8-2-2-3.8-3.6-5.2
			c-0.3-0.3-0.4-0.7-0.1-1.1c0,0,0.1-0.1,0.1-0.1c0.3-0.2,0.7-0.3,1-0.1C243.3,105.1,245.8,108.9,245.7,110.4z"/>
		<path class="st27" d="M249.3,103c-0.1,0.4-0.5,0.7-1,0.6c0,0-0.1,0-0.1,0c-1.5-0.4-3-0.8-4.5-1.2c-0.4-0.1-0.6-0.4-0.6-0.8
			c0.1-0.3,0.2-0.5,0.4-0.6c1-0.5,5,0.6,5.6,1.5C249.3,102.6,249.3,102.8,249.3,103z"/>
		<path d="M187.5,104.7c-0.1,0.2-0.2,0.4-0.4,0.6c-1,1.1-2,2.1-3,3.2c-0.3,0.3-0.7,0.6-1.2,0.3c-0.4-0.2-0.5-0.8-0.2-1.1
			c0,0,0,0,0-0.1c0.8-1.4,1.9-2.7,3.3-3.6C186.8,103.6,187.3,103.8,187.5,104.7z"/>
		<path class="st28" d="M198.8,102.6c0,0.2,0,0.4-0.1,0.5c-1.3,1-2.6,1.9-4,2.8c-0.4,0.2-0.9-0.2-0.8-0.7c0.1-1.1,3.1-3.3,4.2-3.2
			C198.4,101.9,198.7,102.2,198.8,102.6z"/>
		<path class="st29" d="M200.4,118.9c-0.4-0.1-0.7-0.5-0.6-1c0,0,0-0.1,0-0.1c0.4-1,1-2,1.8-2.8c0.3-0.4,0.8-0.5,1.2-0.3
			c0.4,0.3,0.5,0.8,0.3,1.2c0,0,0,0,0,0.1c-0.5,0.9-1.1,1.7-1.7,2.5C201.2,118.9,200.8,119,200.4,118.9z"/>
		<path class="st30" d="M190.4,119.6c-0.4-0.1-0.6-0.4-0.6-0.8c0.3-1.3,1.1-2.4,2.2-3c0.7-0.1,1.2,0.2,1,0.9
			c-0.4,1.1-1.1,2.1-2.1,2.8C190.8,119.7,190.6,119.6,190.4,119.6z"/>
		<path d="M189.8,109.4c0.1,0.7-1.8,3-2.4,3.1c-0.4,0.1-0.8-0.2-0.9-0.5c0-0.1,0-0.2,0-0.2c0.3-1.2,1.2-2.3,2.3-2.9
			c0.4-0.2,0.8,0,1,0.4C189.8,109.3,189.8,109.3,189.8,109.4z"/>
		<path class="st31" d="M200.3,109.1c0.1,0.7-1.5,2.8-2.2,2.9c-0.5,0.1-1-0.3-0.9-0.7c0.2-1.2,1-2.2,2.1-2.7c0.4-0.2,0.8,0,1,0.4
			C200.2,109,200.2,109,200.3,109.1z"/>
		<path class="st32" d="M211.3,109.1c-0.1,0.4-0.4,0.6-0.8,0.6c-0.4,0-0.8-0.3-0.8-0.7c0-0.1,0-0.1,0-0.2c0-0.4,0.4-0.7,0.7-0.7
			c0,0,0,0,0,0c0.5,0,0.8,0.4,0.8,0.9C211.3,109.1,211.3,109.1,211.3,109.1z"/>
		<path class="st33" d="M246.2,97.9c-0.4-0.2-0.8-0.5-0.6-1c0.1-0.4,0.5-0.7,0.9-0.6c0,0,0.1,0,0.1,0c0.4,0.1,0.6,0.4,0.5,0.8
			c0,0,0,0,0,0c0,0.4-0.4,0.8-0.8,0.8C246.3,97.9,246.3,97.9,246.2,97.9z"/>
		<path d="M206.6,110.4c0.1,0.4-0.2,0.9-0.6,0.9c0,0,0,0-0.1,0c-0.5,0.1-0.9,0-1-0.6c-0.1-0.5,0.2-0.9,0.7-1c0,0,0,0,0.1,0
			c0.4-0.2,0.8,0,0.9,0.4C206.5,110.3,206.6,110.3,206.6,110.4z"/>
		<path class="st34" d="M206.6,105.4c-0.1,0.5-0.4,0.8-0.9,0.8c-0.4,0-0.8-0.4-0.7-0.8c0,0,0-0.1,0-0.1c0.1-0.4,0.4-0.6,0.8-0.6
			c0.4-0.1,0.8,0.2,0.9,0.6C206.6,105.2,206.6,105.3,206.6,105.4z"/>
		<path d="M209.7,114.2c0.1,0.4-0.2,0.7-0.6,0.8c-0.6,0.1-0.9-0.3-0.9-0.7c0-0.4,0.3-0.7,0.6-0.7c0,0,0,0,0.1,0
			C209.3,113.6,209.7,113.8,209.7,114.2C209.7,114.2,209.7,114.2,209.7,114.2z"/>
		<path class="st35" d="M238.1,102.9c-0.4,0-0.5-0.4-0.5-0.8c0-0.3,0.3-0.6,0.6-0.6c0,0,0.1,0,0.1,0c0.3,0,0.6,0.3,0.6,0.7
			c0,0,0,0,0,0.1C238.9,102.7,238.6,102.9,238.1,102.9z"/>
		<path d="M214.6,104.4c0,0.5-0.3,0.9-0.8,0.9c-0.3,0.1-0.7-0.2-0.7-0.5c0,0,0,0,0-0.1c-0.1-0.5,0.1-0.9,0.6-1
			S214.5,103.9,214.6,104.4z"/>
		<path d="M237.8,98.8c0.1,0.4-0.2,0.7-0.5,0.8c-0.3,0.1-0.7,0-0.8-0.3c0,0,0-0.1,0-0.1c-0.2-0.3,0-0.8,0.3-0.9
			c0.1,0,0.2-0.1,0.3-0.1C237.4,98.2,237.8,98.4,237.8,98.8C237.8,98.8,237.8,98.8,237.8,98.8z"/>
		<path d="M235.8,107.8c0,0.4-0.4,0.7-0.8,0.6c-0.4,0-0.7-0.3-0.7-0.7c0-0.1,0-0.2,0.1-0.3c0.1-0.4,0.4-0.6,0.8-0.5c0,0,0,0,0.1,0
			C235.6,107,235.9,107.4,235.8,107.8C235.9,107.7,235.8,107.8,235.8,107.8z"/>
		<path class="st36" d="M140.9,133.6c0.4,0.4,0.8,0.9,0.3,1.3c-0.3,0.2-0.8-0.2-0.9-0.7L140.9,133.6z"/>
		<path class="st37" d="M207.5,143c0.5-0.4,1-0.8,1.5-0.2c0.2,0.3-0.3,0.7-0.7,0.9L207.5,143z"/>
		<path class="st38" d="M173.7,68.1c0-0.5,0-1,0.6-1c0.3,0,0.4,0.2,0.5,0.5L173.7,68.1z"/>
		<path class="st39" d="M346.5,416.9c-3-3.2-6.6-5.7-10.7-7.2c-6.3-2.5-12.8-4.2-19.7-4c-5.2,0.1-10.4-0.3-15.5,0.5
			c-2.7,0.4-5.5,0.7-8.2,1c-4.2,0.4-8.3,2-12.5,2c0.4,1.5,1.9,1.3,2.9,1.7c3.9,1.3,6.9,4.6,7.9,8.6c0.4,1.6,0.5,3.4-1.1,4.3
			c-3.3,1.8-6.3,4.3-10.3,4.5c-3,0.2-6,0.9-9.1,0.7c-2.1,0.2-4.1,1.1-6.3,1.1c-3.2,0.7-6.4,0.4-9.6,0.4c-5.2,0.3-10.2-1.4-15.4-1.7
			c-6.5-0.4-13-1.5-19.3-3.4c-2.5-0.8-4.3-2-4.2-5c0.1-0.8-0.2-1.5-0.8-2c0,0,0,0.1,0,0.1c-0.7,0.7-0.5,1.6-0.5,2.4c0,1.4-0.6,2-2,2
			c-2.9,0-5.7,0.2-8.6,0.5c-5.3,0.5-10.6,1.1-15.9,1.9c-5.6,0.8-11.2,1.9-16.9,2.7c-2.4,0.3-4.8,0.2-7.1,0.9c-0.9,0.3-2.5,0.9-3-1
			l0.1-0.2c-1.5,0.3-1.3,1.5-1.4,2.5c-0.1,2.5,0,5-0.1,7.5c-0.1,2.1-0.5,4.1-2.3,5.4c-4.5,3.3-9.1,6.6-15.1,5.8
			c-1.8,0.4-3,1.7-4.5,2.6c-4.7,2.9-9.5,4.7-14.8,1.4c-1.2-0.8-2.5-0.4-3.7,0c-3.2,1.1-6.6,1.9-10,2.3c-3,0.5-6.2,0.2-8.4-1.9
			c-1.3-1.4-2.9-2.5-4.7-3.1c-1.3-0.4-2.2-1.4-1.7-2.8c1.6-4.4,2.7-9.2,6.4-12.5c1.9-1.7,3.5-3.8,4.7-6.1c0.5-2.4,0.7-4.8-1.3-6.8
			c-4.5-1-9,0-13.5,0.1c-2.9,0-5.7,0.6-8.3,1.8c-7.4,3.8-11.3,9.7-11.5,18.1c-0.1,4.7,1.9,9.2,5.5,12.3c3.5,3.1,7.6,5.4,12,6.8
			c6.3,2.2,12.8,3.6,19.4,4.4c5.9,0.8,11.9,1.6,17.8,2.3c2.1,0.2,4.3,0.2,6.3,0.5c4.2,0.6,8.4,1,12.7,0.9c15.6,0,31.3,0.6,46.9-0.4
			c3.6-0.2,7.2-0.4,10.8-0.8c5.9-0.6,11.9-1.2,17.9-2c6-0.8,12.1-1.5,18.1-2.5c11.7-1.9,23.5-3.8,35.1-6.1c16-3.2,32.1-6,47.8-10.5
			c6-1.8,12.1-3.5,17.6-6.6c3.7-2.1,7.3-4.3,9.6-8.1C350.9,427.5,350.3,421.3,346.5,416.9z"/>
		<path class="st40" d="M104.7,429.3l2.2-1.2c0.5-0.3,1.1-0.4,1.6-0.1c1.4,0.9,3,0.9,4.6,1c1.7,0.1,3.3,0.5,4.9,1.1
			c2.1,0.9,4.5,1.1,6.8,0.6c8-1.9,13.9,3.3,16.7,9.3c0.8,2,1.4,4,1.9,6.1c0.5,1.6-0.9,2.3-1.4,3.5c-1.9,1.2-3.6,2.9-5.7,4
			c-3.3,1.6-6.7,2.8-10.4,1.8c-0.7-0.1-1.4-0.4-2.1-0.8c-1.8-1.7-3.6-1-5.6-0.3c-3.8,1.3-7.7,2-11.7,2c-2,0-3.9-0.4-5.7-1.2
			c-0.9-0.4-1.9-0.8-1.7-2.2c0.1-0.4-0.1-0.7-0.4-0.9c-0.1,0-0.2,0-0.3,0c-0.3,0-0.6,0-0.8-0.1c-3.6-1-5.8-2-3.4-6.6
			c0.8-1.6,1.4-3.2,2-4.9c0.9-2.6,2.6-4.9,4.8-6.6C102.7,432.6,103.4,430.7,104.7,429.3z"/>
		<path class="st41" d="M254.3,431.2c-1.7-0.8-2.9-2.3-3.2-4.2c-0.7-2-0.2-4.3,1.3-5.9c1.7-1.8,3.7-1.8,5.9-1.2
			c1.8,0.5,3.4,1.6,4.5,3.1c0.4,0.2,0.8,0.5,1.1,0.9c0.3,0.2,0.4,0.6,0.6,0.8l0,0c0.4,0.6,0.8,1.1,1.3,1.7c0.3,0.4,0.5,0.9,0.6,1.3
			c0.1,1.3-0.7,2.5-1.9,3.1C261.1,431.9,257.7,431.6,254.3,431.2z"/>
		<path class="st42" d="M264.4,430.7c0.7-0.9,1.2-2,1.5-3.1c-0.2-0.6,0-0.8,0.6-0.7c1.2,0.8,2.2,2.1,3.7,2.5
			C268.3,430.1,266.5,430.9,264.4,430.7z"/>
		<path class="st20" d="M200.2,187.2c0.1-0.3,0.1-0.5,0.2-0.8c0.6-2.5,2-3.9,4.4-5.1c8.3-4.2,15.3-10.7,20-18.8
			c1.5-2.6,2.9-5.2,4.2-7.8c0.6-1.1,1.1-1.2,2.1-0.4c5.6,4.5,11.5,8.8,16.6,14c3.4,3.4,7.2,6.4,11.4,8.9c5.2,3.4,11.1,5.6,17.3,6.5
			c0.4,0.1,0.7,0.1,1.1,0.1c2.8,0.5,2.8,0.5,2.6,3.4c-0.5,10.2,1.2,20.4,5,29.9c1.2,3,3.3,5.6,4.9,8.4c-2.7,1.6-3.2,1.5-5.2-0.4
			c-3.8-3.6-7.5-7.2-11.3-10.7c-4.1-3.9-8.2-7.8-12-12c-5.5-6.1-11.4-11.9-17.3-17.7c-0.3-0.3-0.7-0.6-1-0.9c-0.6-0.5-1.4-0.7-2,0
			s-0.2,1.2,0.4,1.7c13.7,13.4,26.4,27.9,40.7,40.7c3.5,3.2,6.7,6.7,9.6,10.4c8.8,10.3,14.9,22.7,17.8,36c1.2,5.6,1.1,11.2,0.8,16.9
			c-0.3,7.7-2.1,15.3-5.4,22.2c-1.9,3.7-4.1,7.3-6.6,10.6c-0.9,1.3-2.4,2.1-3.9,2.1c-12.8,1.4-25.7,1.7-38.6,1.9
			c-14.3,0.2-28.6,0.5-42.8,0.6c-13,0.1-26-0.7-38.9-0.5c-4.4,0.1-8.9,0.2-13.4,0.2c-13.7-0.2-27.4-0.5-41.2-0.6
			c-7.5-0.1-15,0.1-22.5,0.1c-3.3,0-2.7,0-3.1-2.5c-0.8-4.9-2.3-9.6-4.5-14c-1.9-3.9-3.7-7.9-5.2-12c-5.1-13.6-4.3-26.9,2.3-39.8
			c1.4-2.9,3.1-5.7,4.8-8.4c4.2-6.3,8.7-12.4,13.2-18.6c0.6-0.9,1.3-1.7,2.2-2.3c1,1.8,2,3.5,3.1,5.3c4.9,7.7,9.2,15.9,12.6,24.4
			c1.6,4.2,4.3,7.9,7.8,10.6c3.5,2.9,8.1,4,12.5,2.9c1.4-0.3,2.1-0.1,2.2,1.4c0.3,3.5,1.2,3.8,4.9,2.5c0.9-0.3,1.5-1.1,1.6-2.1
			c-0.4-2.7,1-3.7,3.4-4.6c12.8-4.7,23.8-13.1,31.8-24.1c0.7-1,1.2-2.2,2.7-1.9c1.2,0.2,2.1,1.3,2.1,2.6c1.5,8.2,2.7,16.5,5.3,24.4
			c0.6,2.1,1.9,4,3.7,5.4c3,2.3,5.8,4.9,8.5,7.6c2,2,3,1.8,4.1-0.8c2.1-4.9,3.6-9.9,6.3-14.5c0.7-1.2,0.3-2.5,0-3.8
			c-2-7.7-3.7-15.5-6.5-23c0.2-1.9,1.2-3.5,1.9-5.2c0.9-2.2,2.8-2.2,4.7-1.9c3.9,0.7,7.6,0,11.3-1c5.2-1.4,5.9-5.4,4.6-9.9
			c-0.5-1.8-2.2-3-4.1-2.8c-8.8,0.1-16-4-22.9-9c-2.3-1.5-3.5-4.3-3-7c0.9-6.3-0.4-11.8-5-16.3C200.3,187.6,200.2,187.4,200.2,187.2
			z"/>
		<path class="st20" d="M100.1,376.4c1.3-0.3,2.6-0.4,3.9-0.2c2.5,0,4.8-1.2,6.1-3.3c1-1.5,1.7-3.1,2.4-4.7
			c2.2-5.4,3.7-11.1,4.4-16.9c0.2-1.6,0.9-2.1,2.4-2.3c8-0.9,15.9-2.4,24-3c5.2-0.4,10.4-0.7,15.5-1c12-0.7,23.9-0.4,35.9-0.3
			c8.7,0.1,17.4-0.5,26.1-1.3c14.1-1.2,28.3-1.2,42.5-1.8c2.7-0.1,2.7-0.1,3.4,2.7c0.8,3,1.4,6.1,2.4,9.1c2.4,7.3,5.9,9.6,13.6,9.1
			c-0.2,2.8-0.5,5.5-1,8.2c-1,7.2-2.5,14.2-4.5,21.2c-0.3,1.2-0.7,2.3-1.1,3.4c-2,5.7-2.5,6.3-8.4,7.5c-13.7,2.7-27.3,6.3-40.7,10.2
			c-2.7,0.8-5.3,1.6-7.9,2.5c-1.1,0.4-1.8,0.4-2.2-1c-2.3-8.9-6.9-16.7-10.6-25c-1.6-3.6-4.7-6.2-7.3-9c-1-1.1-2-1-3.1,0.1
			c-0.7,0.7-1.2,1.4-1.7,2.2c-4.5,6.7-9.5,13-14.6,19.3c-2.6,3.3-4.9,6.7-7.1,10.3c-2.2,3.4-5,6.5-8.1,9.1c-1.6,1.5-3.8,2.1-5.9,1.6
			c-2.1-0.5-4.1-1-6.1-1.7c-10.3-3.3-20.8-4.3-31.5-4.8c-4.2-0.2-8.3-0.2-12.5,0c-2.9,0.1-3.1-0.2-3.2-3.2c-0.1-4,0.2-8-0.2-11.9
			c-0.7-6.5-2.6-12.7-3.9-19C100.5,380.6,100.1,378.5,100.1,376.4z"/>
		<path class="st20" d="M130.4,168.2c10.9,0.8,22.4,5.7,30,17c4.7,6.8,8.1,14.4,10,22.4c0.1,0.5,0.2,1.1,0.3,1.6
			c0.6,2.8-0.3,5.7-2.3,7.8c-11.5,13.3-19.3,28.4-22.6,45.8c-0.2,1.2-0.5,2.4-0.7,3.5c-0.4,2.8-0.4,2.8-3.1,3.3
			c-2.8,0.6-5.8,0.1-8.3-1.4c-3.1-1.7-5.6-4.3-7.3-7.5c-0.9-1.8-1.8-3.7-2.6-5.5c-3.1-7.4-6.8-14.6-11.2-21.4
			c-5.1-8.2-9.2-16.8-10.5-26.4c-1.6-11.5,0.4-22.4,8.4-31.4C115.2,170.9,121,168.1,130.4,168.2z"/>
		<path class="st0" d="M200.2,187.2c1.9,1,3.4,2.6,4.2,4.6c1.7,3.5,2.4,7.5,1.8,11.3c-0.5,3.2,0.2,5.7,3,7.7
			c5.6,3.9,11.4,7.2,18.3,8.3c1.5,0.2,3,0.2,4.4,0.2c1.5-0.1,2.9,0.8,3.6,2.2c1.3,2.5,1.5,5.4,0.6,8c-0.7,1.8-2.2,3.1-4,3.6
			c-3.8,1.3-7.8,1.8-11.7,1.5c-0.3,0-0.6-0.1-0.8-0.1c-3.5-0.4-3.4-0.4-4.7,2.9c-0.5,1.2-1,2.4-1.5,3.6c-0.2,1,0,2.2-1.1,2.9
			c-5.8,4.2-12.1,3.4-18.4,1.8c-0.8-0.5-1.8-0.6-2.7-0.3c0-0.9-0.5-1.6-1.3-1.9c-0.7-0.3-1.2-0.3-1.6,0.4
			c-5.8,9.5-14.4,16-23.7,21.7c-3.1,2-6.5,3.5-10.1,4.4c-1.7,0.4-2.7,1-2.4,2.9c0,0.2-0.2,0.5-0.3,0.7c-0.1-6.5,0.7-12.8,3.6-18.8
			c2.7-5.7,5.2-11.4,8.3-16.9c3.6-6.4,7.8-12.4,12.5-18.1c0.4,0,0.4,0.1,0.4,0.3c0,0.9-0.5,2.1,0.8,2.3s1.2-1.1,1.5-2
			c1-2.9,2-5.8,1.6-8.9c0.6-2.4,2.7-3.4,4.5-4.6c2.3-1.5,3.8-3.3,3.9-6.3c0.1-1.8,0.3-3.7,0.8-5.5c0.3-1,0.5-2,1.5-2.5
			c0.7-0.6,1.4-1.3,0.9-2.4c1.3-2.4,3.6-3.3,6-3.8C198.3,188.2,199.3,187.7,200.2,187.2z"/>
		<path class="st20" d="M194.1,342.4c-6.8-0.6-13.1-0.1-19.4-0.2c-17.1-0.2-34.1,1-50.9,3.7c-8,1.3-16.2,2-24.3,2.7
			c-0.6,0.1-1.3,0-2,0c-1.3,0.1-2.5-0.8-2.7-2.2c0,0,0-0.1,0-0.1c-0.4-2.1-0.6-4.2-0.8-6.3c-0.1-3.4-0.1-6.8-0.1-10.3
			c0-1,0.1-1.5,1.3-1.5c13.6,0.1,27.2,0,40.9,0.3c10.6,0.2,21.3,0.5,32,0.4c8.7-0.1,17.4-0.1,26.1,0.1h3
			C193.8,333.1,190.9,336.9,194.1,342.4z"/>
		<path class="st20" d="M212.8,341.6c4.2-6.1,4.2-7.1,0.6-12c27.1-0.9,54.1-0.1,81.3-2.7c-1.9,3.3-4.1,6.4-6.5,9.3
			c-1.1,1.3-2.7,1.5-4.3,1.6c-7.4,0.8-14.8,1.1-22.2,1.4c-10.7,0.4-21.3,0.7-32,1.2c-4.6,0.2-9.2,0.6-13.9,1L212.8,341.6z"/>
		<path class="st20" d="M191,192.8c-1.1,2.8-1.6,5.9-1.7,8.9c0,2.1-1.1,4.1-3,5.2c-2.2,1.3-4.3,2.9-6.1,4.7l0,0
			c-0.1-0.2-0.3-0.4-0.6-0.5c-2-1.7-4-2.2-6.3,0.4c-0.8-10.5-6.2-18.8-10.6-27.7c2.4,0.2,4.7,0.5,7.1,1c4.6,0.6,9.2,1.2,13.8,1.7
			c1.1,0.1,2.1,0.6,2.8,1.5C187.8,189.7,189.3,191.3,191,192.8z"/>
		<path class="st20" d="M114.6,349.9c-0.8,6.7-2.6,13.3-5.3,19.5c-1.8,4.1-4.7,5.4-9,4.6c-1-0.2-1-0.9-1.2-1.6c-0.5-3-1.1-6-1.6-9
			c-0.5-3.6-0.9-7.2-1.3-10.7c-0.1-0.7-0.3-1.5,1-1.5c5.6,0,11-1,16.6-1.5C114.1,349.7,114.4,349.8,114.6,349.9z"/>
		<path class="st20" d="M268.3,341.3c6.2-0.1,11.9-0.6,17.7-1.2c0.1,1.6-0.1,3.2-0.5,4.8c-0.8,4.5-1.5,8.9-2.2,13.4
			c0,1-0.8,1.8-1.8,1.8c0,0-0.1,0-0.1,0c-4.5,0.5-7.8-1.4-9.5-5.5S269.5,346,268.3,341.3z"/>
		<path class="st20" d="M201,342.1c-1-0.1-2-0.3-3-0.5c-2.5-0.7-3.4-2.4-2.8-4.9c0.9-4.3,4.7-7.3,9.1-7.3c2.7-0.1,5.4,0.8,7.5,2.5
			c2.3,1.9,2.4,4,0.4,6.3c-0.9,1.1-2,1.9-3.3,2.4C206.4,341.6,203.7,342.1,201,342.1z"/>
		<path class="st20" d="M147.1,270.2c0-3,0.9-6,1.6-9.1c4.2-18.4,13.2-34.2,26.4-47.6l0.8-0.8c0.4-0.4,0.9-0.7,1.4-0.1
			s0.1,0.8-0.2,1.2c-1.6,2.2-3.1,4.4-4.7,6.5c-5.6,7.1-10.5,14.8-14.6,22.9c-3.6,6.9-6.6,14.1-7.8,21.8c-0.4,2.3-0.5,4.6-0.8,6.9
			c0,0.5-0.1,0.9-0.2,1.4c-0.1,0.3-0.6,0.4-0.9,0.5c-0.5,0.1-0.6-0.3-0.7-0.6C147.1,272.1,147,271.2,147.1,270.2z"/>
		<path class="st43" d="M114.1,153.8c5,4.1,9.9,8,15.6,11.9c-4.2,0.2-7.8,0.3-11.2,1.7c-3.4,1.5-6.4,3.6-9.2,6.1
			C109,166.3,111.2,160.1,114.1,153.8z"/>
		<path class="st20" d="M286.6,181.1c-0.8,4.4-0.9,8.9-0.5,13.3c1,11.4,3.6,22.3,10,32c0.5,0.7,0.7,1.2-0.2,1.8s-1.1-0.2-1.5-0.7
			c-7.4-8.8-10.4-19.2-11.6-30.3c-0.4-4.4-0.4-8.9,0-13.3c0.1-2.3,0.1-2.3,2.5-2.7C285.6,181.1,286.1,181,286.6,181.1z"/>
		<path class="st20" d="M197.9,186.6c-1.9,1.4-4.2,2.2-6,3.8c-0.3-0.3-0.7-0.6-1-0.9c-3.6-4-3.6-4-0.8-8.5c0.8-1.4,1.9-2.7,3.2-3.8
			c1.4,1.4,3,2.8,4.6,4c1.3,1,1.6,1.9,0.9,3.2C198.4,185.2,198.2,185.9,197.9,186.6z"/>
		<path class="st44" d="M290.5,186.6c-1-0.2-1.8-0.8-2.3-1.6c0.3-1,0.5-2,0.8-3c0.8,1.2,1.3,2.5,1.7,3.9
			C290.8,186.1,290.7,186.4,290.5,186.6z"/>
		<path class="st0" d="M179.7,211.1c0.3,0.1,0.5,0.2,0.6,0.5C179.9,211.7,179.8,211.4,179.7,211.1z"/>
		<path class="st45" d="M301.6,154.1c5.4-5.4,13.1-7.8,20.6-6.6c9.1,1.2,15.9,6,19.9,14.2c6.3,12.7,1.1,28-11.6,34.3
			c-2.2,1.1-4.5,1.8-6.9,2.3c-9.7,1.7-18-1.1-24.4-8.7c-6.6-7.8-7.7-16.8-4.2-26.3c0.1-0.2,0.3-0.5,0.5-0.7c0.3-0.3,0.6-0.5,1-0.5
			c0.9-0.5,2.7,1.6,2.8-1.1c-0.3-0.6-0.2-1.3,0.2-1.8C301,157.8,301.3,155.9,301.6,154.1z"/>
		<path class="st46" d="M340.7,196c2,0.9,3.9,2.1,5.5,3.6c1.9,1.9,2.9,4.1,2,6.8c-0.9,0.4-2,0.6-2-0.8c0-4.5-3.2-6-6.6-7.3
			c-0.4-0.1-0.7-0.2-1.1-0.2C339.1,197.2,339.8,196.5,340.7,196z"/>
		<path class="st47" d="M354.4,199.4c-0.1,0.7,0,1.5-1,1.7c-0.6,0-1.1-0.3-1.3-0.8c-2.1-4-6-4.9-9.9-5.5c0.4-0.9,1-1.6,1.7-2.2
			c1.1-0.4,1.9,0.4,2.8,0.6c0,0.1,0.2,0.2,0.3,0.1c0,0,0,0,0.1,0c0.5,0.2,1,0.1,1.3,0.5l0,0c0.3,0.3,0.8,0.2,1.1,0.5l0,0
			c0.3,0.4,0.8,0.2,1.1,0.6l0,0c0.2,0.2,0.4,0.3,0.6,0.4l0.1,0.1c0.2,0.4,0.8,0.2,0.9,0.7l0-0.1c0.3,0.1,0.5,0.3,0.6,0.6h0
			c0.5,0.5,0.9,1,1.2,1.6l0,0C354.3,198.5,354.2,199.1,354.4,199.4z"/>
		<path class="st45" d="M301.6,154.1c0.9,1.7,0.4,3.9-1.2,5c-0.6,0.4-0.8,1.2-0.4,1.9c0,0,0,0,0,0c-1,0.5-2.6,0.1-3.2,1.5l-1.3,0.1
			l0.1-1c0.1-0.3,0.2-0.5,0.5-0.7c0.1-0.1,0.1-0.2,0.1-0.4c0.1-0.3,0.2-0.5,0.5-0.7C298.1,157.7,299.4,155.6,301.6,154.1z"/>
		<path class="st19" d="M346.7,193.2c-1-0.1-1.9-0.3-2.8-0.6l0.6-0.6l1.1,0.1L346.7,193.2z"/>
		<path class="st48" d="M290.5,186.6c0-0.2,0.1-0.5,0.1-0.7c0.3,0.3,0.5,0.7,0.5,1.1L290.5,186.6z"/>
		<path class="st49" d="M296,160.9c0,0.3-0.2,0.6-0.5,0.7C295.5,161.3,295.7,161,296,160.9z"/>
		<path class="st49" d="M296.6,159.8c0,0.3-0.2,0.6-0.5,0.7C296.1,160.2,296.3,159.9,296.6,159.8z"/>
		<path class="st50" d="M263.8,424.3c-0.5-0.2-0.9-0.7-1.1-1.3l0.6-0.6c0.3,0.3,0.5,0.6,0.6,1.1C264,423.7,264,424,263.8,424.3
			C263.8,424.2,263.8,424.3,263.8,424.3z"/>
		<path class="st20" d="M310.5,35.2c-3.9-1.7-6.4-4.9-9.2-7.9c-1-1.1-1.9-2.3-2.8-3.5c3.2-2.5,21.3-10.2,27.7-11.8
			c0,5.4,0.3,10.7-1.1,15.9c-1.3,1.6-3.3,1.9-5,2.8c-2.3,1.3-4.8,2.3-7,3.8C312.3,35.2,311.4,35.7,310.5,35.2z"/>
		<path class="st20" d="M324.3,40.4c4.3-0.7,7.7,1.2,11,3.7c1.9,1.4,3.6,3.2,5.4,4.7c0,0.3-0.2,0.5-0.5,0.7
			c-7.4,3.5-13.9,8.6-21.4,11.8c-0.8,0.3-1.6,1-2.6,0.5c0.3-5.9,1.6-11.7,3.8-17.2c0.2-0.7,0.6-1.4,1.1-1.9c2.1,0.7,2,3.1,3.6,4.5
			C326,44.8,323.5,42.7,324.3,40.4z"/>
		<path class="st0" d="M316.2,61.8c5.5-2.5,10.8-5.4,15.8-8.6c2.7-1.8,5.6-3.3,8.6-4.4l5.1,3.8c-10.3,5.3-20,11-30.1,16.6
			C315.4,66.7,315.6,64.2,316.2,61.8z"/>
		<path class="st51" d="M310.5,35.2c3-1.6,6-3.2,9-4.8c1.8-1,3.6-1.8,5.5-2.4c-0.4,3.1-1.6,6-3.4,8.6c-0.6,1.1-1.9,1.7-3.2,1.5
			C315.5,37.7,312.8,36.7,310.5,35.2z"/>
		<path class="st52" d="M324.3,40.4c0.9,1.6,0.9,3.6,1.7,5.2c0.1,0.4,0.1,0.9,0,1.4c-0.2,0.7-0.5,1.5-1.4,1.5
			c-0.8,0-1.1-0.6-1.2-1.3c-0.2-1.8-1.6-2.8-2.2-4.3C321.6,41.4,322.8,40.5,324.3,40.4z"/>
		<path class="st20" d="M30.7,65.2c-1.7-4.2-1.2-8.5-1-12.9c0.1-1.3,0.3-2.5,0.5-4.1c9.6,3.1,18.9,6.9,27.9,11.4
			c-3.9,4-7.5,7.8-12,10.6c-1.3,0.3-2.3-0.3-3.5-0.6c-3.3-1.2-6.6-2.2-10-3C31.9,66.5,31.1,66,30.7,65.2z"/>
		<path class="st20" d="M36.7,78.5c3.4,2.2,4.3,5.7,5,9.3c0.5,2.6,0.6,5.3,0.5,7.9c-0.4,0.4-1,0.4-1.5,0.2c-7-2.7-14.7-3.5-21.7-6.3
			c-1.2-0.5-2.6-0.6-3.1-2c4-3.5,8.5-6.4,13.4-8.6c1-0.6,2.2-1,3.4-1.1c1.5,2-0.6,3.7-0.6,5.8C34.7,82.8,34.4,79.5,36.7,78.5z"/>
		<path class="st0" d="M15.9,87.7c4.7,2,9.5,3.5,14.4,4.6c4.1,0.9,8,2,11.9,3.5c0.3,2,0.6,4,1,6.4c-11.1-3.4-21.8-6.4-33-9.4
			C11.9,90.4,14.1,89.3,15.9,87.7z"/>
		<path class="st51" d="M30.7,65.2c5.3,1.2,10.5,2.8,15.5,4.9c-2.5,1.8-5.3,3-8.3,3.7c-1.5,0.5-3.2-0.2-4-1.6
			C32.4,70.1,31.3,67.8,30.7,65.2z"/>
		<path class="st53" d="M36.7,78.5c-0.8,1.5-1.6,3-2.4,4.6c-0.3,0.6-0.8,1-1.4,1.3c-0.5,0.4-1.3,0.3-1.8-0.2c-0.4-0.4-0.4-1.1,0-1.5
			c1.1-1.4,1.2-3.2,1.4-4.8C33.9,77.2,35.6,77.4,36.7,78.5z"/>
		<path class="st20" d="M168.6,71.3c-4.1,3.3-8.1,2.2-10-2.7c-1-2.6-1.1-5.2,0.6-7.6c0.4-0.6,0.7-1.3,1-1.9c0.2-0.2,0.4-0.3,0.7-0.3
			c0.2,0,0.5,0.1,0.6,0.3c0.4,0.7,0.4,1.9,1.8,1.4c0.2-0.1,0.5-0.1,0.7,0c0.2,0.2,0.3,0.4,0.4,0.6c0,0.2,0,0.5,0,0.8
			c-0.1,0.4-0.2,0.7-0.3,1.1c-1.1,4.9-0.2,6.4,4.4,7.6c0.1,0.1,0.2,0.3,0.1,0.5C168.7,71.2,168.7,71.3,168.6,71.3z"/>
		<path class="st20" d="M184.2,56.3c1.6,1.2,3.2,2.3,3.5,4.6c0.4,3.1,0.5,6.1-1.1,8.8c-1.5,2.5-3.9,3-6.3,1.2
			c-0.7-0.4-1.3-1.1-1.7-1.8c-0.2-0.5,0.1-0.7,0.5-0.9c0.1,0,0.2,0,0.3,0c2,0.4,4.2,1.5,5.3-1.5c0.8-2.4-0.6-6-2.8-7.2
			c-0.7-0.2-1.4-0.5-2-0.9c-0.3-0.6-0.1-1,0.3-1.4c0.9-0.6,2.3,0.3,3.1-0.8C183.5,56.3,183.8,56.1,184.2,56.3z"/>
		<path class="st20" d="M164.4,60.8l-0.6-0.1c-0.7-1,0.7-1.6,0.4-2.5c-1.1-0.3-1.6,1.2-2.6,0.9l-0.8-0.1c-0.1-0.2-0.1-0.4,0-0.6
			c0.1-0.1,0.2-0.3,0.2-0.4c0-0.3,0.2-0.5,0.5-0.7l0,0l0.5-0.6c0.8-0.7,1.7-1.4,2.6-2c2.5-1.5,5.1-0.7,6.4,2c1.4,2.7,1.8,5.9,1,8.9
			c-1.6-0.4-0.9-2-1.5-2.8c-0.8-1.5-1.7-3-3.8-2.7l-0.6,0.2l-0.3,0.2c-0.2,0.1-0.4,0.2-0.6,0.3l-0.3,0.1L164.4,60.8z"/>
		<path class="st20" d="M180.3,57.4l-0.6,1.1c-1.5,2.3-2.4,4.7-1.9,7.5c-0.1,0.2-0.3,0.4-0.6,0.5c-0.4-0.1-0.6-0.5-0.9-0.8
			c-0.5-2.6-1.3-5.2-0.6-7.9c0.1-0.5,0.3-1.1,0.4-1.6c0.9-2.5,1.6-2.9,4.2-2c0.3,0.1,0.7,0.3,1,0.5c0.1,0.1,0.2,0.2,0.2,0.4
			c0,0.2,0,0.2-0.1,0.2C181,55.9,180.6,56.7,180.3,57.4z"/>
		<path class="st54" d="M170.9,62.4c1,0.9,0.2,2.3,1,3.3c0,1-0.4,1.9-1,2.6c-0.3-0.2-0.5-0.5-0.6-0.8
			C170,65.7,169.6,63.9,170.9,62.4z"/>
		<path class="st20" d="M177,66.3h0.7c1,0.1,1.7,1.1,1.6,2.1c0,0,0,0.1,0,0.1l-0.6,0.6c-0.9-0.5-1-1.6-1.7-2.3
			c-0.1-0.1-0.1-0.4,0-0.5C176.9,66.4,177,66.3,177,66.3z"/>
		<path class="st55" d="M181.4,55.2c0-0.2,0-0.4,0-0.5c1.1,0.2,2,0.8,2.8,1.7l-0.6,0.6C182.4,56.8,181.5,56.6,181.4,55.2z"/>
		<path class="st56" d="M168.6,71.3v-0.7c-0.1-0.9,0.4-1.4,1.1-1.8c0.3,0,0.5,0,0.7,0.2C170.2,70,169.5,70.8,168.6,71.3z"/>
		<path class="st57" d="M170.4,69.1h-0.6c-0.5-1-0.1-1.6,0.9-1.8l0.2,1C171,68.6,170.9,69.1,170.4,69.1z"/>
		<path class="st58" d="M172.6,52.3l1.1,0.6c0,0.4,0,0.9-0.4,0.8C172.6,53.6,172.5,52.9,172.6,52.3z"/>
		<path class="st59" d="M177,66.3c-0.1,0.2-0.1,0.4-0.1,0.5c-0.3-0.3-0.5-0.7-0.4-1.1L177,66.3z"/>
		<path class="st60" d="M161.4,57.4c0,0.3-0.1,0.6-0.4,0.6C161,57.8,161.1,57.5,161.4,57.4z"/>
		<path class="st60" d="M160.7,58.5V59l-0.4,0.1c-0.1-0.3,0.1-0.5,0.3-0.6C160.7,58.5,160.7,58.5,160.7,58.5z"/>
		<path class="st60" d="M161.9,56.8c0,0.3-0.2,0.6-0.5,0.6C161.4,57.2,161.5,56.9,161.9,56.8C161.8,56.8,161.9,56.8,161.9,56.8z"/>
		<path class="st20" d="M191.7,128.7c-0.9,0-1.8,0-2.8,0s-1.2-0.6-0.9-1.5c0.2-0.7,0.3-1.4,1.4-1c4.3,1.4,8.5,1.1,12.8,0
			c0.6-0.2,1.3-0.5,1.5,0.5s-0.7,1-1.3,1.1c-3.6,0.4-7.1,0.7-10.7,1L191.7,128.7z"/>
		<path class="st20" d="M231.2,122.6c-1.7,0-3.3-0.2-4.9-0.6c-1-0.2-1.5-0.7-1.3-1.7s1-0.8,1.7-0.7c2.4,0.5,4.9,1,7.3,1.5
			c0.4,0.1,0.9,0.2,0.8,0.8c-0.1,0.4-0.4,0.6-0.8,0.6C233,122.6,232.1,122.6,231.2,122.6z"/>
		<path class="st51" d="M271.1,427.3c-0.1,0-0.8,0.2-1-0.1c-1.8-1.7-4-3.2-4.6-5.7c-0.5-2.2,0.8-3.9,2.3-5.4c1-1.1,2.1-2.1,3.4-2.9
			c1.5-1.2,3.7-1.2,5.2,0c2.7,1.9,4.7,4.4,5.2,7.9c0.1,1.1,0.4,2.2,0.7,3.3c0.5,1.3,0,1.7-1.1,1.9c-2.3,0.4-4.6,0.7-6.9,0.8
			C273.3,427,272.4,427.1,271.1,427.3z"/>
		<path class="st12" d="M281.1,412.3c3.9,0.7,7.1,3.7,7.9,7.6c0.5,2,0.3,2.2-1.7,3.1c-0.8,0.3-1.5,0.7-2.5,1.1
			c-1-4.1-1.4-8.4-4.8-11.2C279.9,411.9,280.5,412.2,281.1,412.3z"/>
		<path class="st61" d="M265.3,426.3c-0.6-0.3-1-1-1-1.7c0.8,0.3,1.4,0.9,1.7,1.7c-0.1,0.2-0.3,0.3-0.5,0.2
			C265.4,426.5,265.4,426.4,265.3,426.3z"/>
		<path class="st62" d="M281.1,412.3c-0.4,0.1-0.9,0.1-1.1,0.6c-0.4-0.2-1-0.4-0.8-0.9c0.1-0.3,0.6-0.3,1-0.1
			C280.5,412,280.8,412.2,281.1,412.3z"/>
		<path class="st63" d="M265.3,426.3h0.7l0.4,0.6l-0.6,0.7C265.7,427.2,265.5,426.8,265.3,426.3z"/>
		<path class="st64" d="M263.8,424.3l0.1-0.8c0.4,0.3,0.6,0.7,0.5,1.2C264.1,424.7,263.8,424.5,263.8,424.3z"/>
		<path class="st65" d="M195.3,63.4c1.9-3.7,1.9-7.6,2.3-11.4c0-1.8,0.6-3.5,1.7-4.9c0.9-1,1.6-1,2.5,0.1c1,1.2,1.4,2.7,1.1,4.2
			c-0.5,3.3-1.7,6.5-3.5,9.3C198.3,62.3,197.6,62.8,195.3,63.4z"/>
		<path class="st19" d="M348.4,192.1c0.8-0.2,1.7,0,2.5,0.5C350,192.5,349.1,192.9,348.4,192.1z"/>
		<path class="st19" d="M353.9,198.2c-0.6-0.4-1-1-1.2-1.6C353.5,196.7,354,197.4,353.9,198.2C353.9,198.2,353.9,198.2,353.9,198.2z
			"/>
		<path class="st19" d="M354.4,199.4c-0.4-0.3-0.6-0.7-0.6-1.2C354.4,198.4,354.5,198.9,354.4,199.4z"/>
		<path class="st19" d="M352.2,196.1c-0.4-0.1-0.8-0.3-0.9-0.7C351.7,195.4,352.1,195.6,352.2,196.1z"/>
		<path class="st19" d="M350.6,194.9c-0.4,0-0.8-0.2-1.1-0.6C349.9,194.2,350.4,194.5,350.6,194.9z"/>
		<path class="st19" d="M351.2,192.6c0.4-0.1,0.9,0.1,1.1,0.5C351.8,193.2,351.4,193,351.2,192.6z"/>
		<path class="st19" d="M348.3,193.8c-0.5,0.1-1-0.1-1.3-0.5C347.5,193.2,348,193.2,348.3,193.8z"/>
		<path class="st19" d="M352.3,193.2c0.4,0,0.8,0.2,1,0.6C352.9,193.8,352.4,193.6,352.3,193.2z"/>
		<path class="st19" d="M349.5,194.3c-0.4,0.1-0.9-0.1-1.1-0.5C348.8,193.7,349.2,193.9,349.5,194.3z"/>
		<path class="st19" d="M353.4,193.8c0.3,0,0.5,0.2,0.6,0.5c0,0,0,0,0,0L353.4,193.8z"/>
		<path class="st19" d="M355.1,195.9l0.8,0.5C355.5,196.4,355.2,196.2,355.1,195.9z"/>
		<path class="st19" d="M352.7,196.6c-0.3,0-0.6-0.3-0.6-0.6C352.5,196.1,352.7,196.3,352.7,196.6z"/>
		<path class="st19" d="M354.6,195.2l0.5,0.8C354.8,195.8,354.6,195.5,354.6,195.2z"/>
		<path class="st19" d="M351.2,195.3c-0.3,0-0.5-0.2-0.6-0.4L351.2,195.3z"/>
		<path class="st19" d="M353.9,194.3c0.3,0,0.5,0.2,0.5,0.5c0,0,0,0,0,0L353.9,194.3z"/>
		<path class="st66" d="M137,61.1c-5.1-0.6-6.4-2-6.4-6.7c0-1.7,0.3-3.3,1-4.8c0.5-1.1,1.1-1.1,1.9-0.3c0.8,0.9,1.4,2,1.6,3.2
			C135.8,55.2,136.4,58.1,137,61.1z"/>
		<path class="st0" d="M101.9,450.1c0.2-2.3,0.6-4.5,1.4-6.6c1.9-5,5.7-7.9,10.5-9.6c4.5-1.7,5.1-1.4,7.4,2.8
			c0.4,0.8,0.8,1.6,1.2,2.5c0.5,0.9,0.4,2-0.1,2.9c-1.2,2.3-1.9,4.8-2.1,7.4c-0.1,1-0.3,1.8-1.4,2.1c-4.2,1.6-8.7,2.4-13.3,2.4
			c-0.6,0-1.1-0.1-1.6-0.3C101.6,453.2,101.6,453.2,101.9,450.1z"/>
		<path class="st0" d="M128.4,453.4c-0.2,0-0.5,0-0.8-0.1c-5.9-1.2-5.9-2.6-4.7-7.1c1.5-5.4,5.1-8.7,10.3-10.3
			c1.1-0.4,2.3-0.1,3,0.8c2.5,2.7,3.6,6,4.4,9.4c0.1,0.5,0,0.9-0.3,1.3C137,450.6,133.3,453.1,128.4,453.4z"/>
		<path class="st67" d="M105.9,435.3c-2.7,2.5-4.6,5.7-5.5,9.3c-0.3,1.3-0.4,2.5-0.7,3.8s-0.8,1.5-2.5,0.9c-1.1-0.4-1.8-0.7-1.2-2.1
			c1.3-2.8,2.3-5.6,3.7-8.4C100.8,436.6,102.6,434.9,105.9,435.3z"/>
		<path class="st68" d="M131.9,433.7c-2.6,1.1-5,2.6-7.1,4.4c-1.3-1.2-1.6-2.9-2.8-4.5C125.4,432.9,128.4,432.2,131.9,433.7z"/>
		<path class="st69" d="M112.2,431.5c-2.2,1.7-4.5,1.3-6.8,1.4c1-2.7,1-2.7,3.5-2.1C109.8,431.1,110.8,431.2,112.2,431.5z"/>
		<path class="st70" d="M263.8,429.2c-2.7,0-4.9,0.1-7,0c-2.1-0.1-3.8-1.8-3.8-4c0-0.2,0-0.4,0.1-0.6c0.1-1.6,1.5-2.8,3.2-2.7
			c0.1,0,0.3,0,0.4,0.1c0.7,0.1,1.4,0.4,2.1,0.8C261,424.4,262.7,426.6,263.8,429.2z"/>
		<path class="st2" d="M191,245.4c1-1.9,1.1-1.9,2.2-0.4c1.4,1.7,1.4,3.8,1.7,5.8c0.3,1.8,1.1,2.3,2.8,2c4.5-0.8,8.9-1.6,13.4-2.3
			c1.6-0.3,1.8-1,1.5-2.5s-1.6-3-0.5-4.7c0.6-0.6,0.1-1.9,1.2-2.2c1.7,2.5,2.3,5.4,3.1,8.3c1.5,5.2,2.7,10.6,4.1,15.8
			c0.3,1,0.2,2.1-0.3,2.9c-2.8,4.4-4.3,9.4-6.2,14.2c-1.5,3.9-2.6,4.1-5.6,1.1c-2.9-3.1-6.1-5.9-9.5-8.5c-1.2-1-2.1-2.4-2.4-4
			c-2-6.2-3.4-12.5-4.4-18.9C191.7,249.8,191,247.6,191,245.4z"/>
		<path class="st71" d="M225.5,196.7h-2.8c-0.7,0-1.4,0-1.4-0.9s0.6-1.1,1.2-1.3c0.5-0.1,0.9-0.1,1.4-0.1c1.6,0,3.1,0.1,4.7,0.2
			c0.8,0,1.6,0.2,1.6,1.1c0,1.1-1,1.3-1.8,1.3C227.5,196.9,226.5,196.7,225.5,196.7z"/>
		<path class="st72" d="M229.3,192c-0.8-0.1-2-0.4-3.3-0.7c-0.6-0.2-1.2-0.6-1.1-1.4s0.8-0.9,1.5-0.8c1.4,0.2,2.7,0.4,4.1,0.6
			c0.7,0.1,1.3,0.3,1.2,1.1s-0.7,1-1.4,1.1C230.2,192,230,192,229.3,192z"/>
		<path class="st73" d="M146.4,369.2c-5-1.2-9.9-3.4-13.7-7.6c-0.5-0.5-1.1-1.2-0.4-1.9s1.5-0.1,2.1,0.5c3.5,3.6,8.1,5.9,13.1,6.7
			c0.3,0,0.5,0.1,0.8,0.2c0.6,0.2,1,0.6,0.9,1.2c-0.1,0.5-0.5,0.8-1,0.8C147.7,369.2,147.2,369.2,146.4,369.2z"/>
		<path class="st9" d="M265.6,360c-0.1,0.4-0.3,0.9-0.5,1.3c-1.8,4.3-4.5,8.1-7.9,11.2c-0.8,0.7-1.8,1.9-2.8,0.9
			c-1.2-1.2,0.4-1.9,1.1-2.5c3.1-2.9,5.7-6.4,7.5-10.2c0.2-0.5,0.5-1,0.8-1.4c0.3-0.3,0.8-0.4,1.2-0.1
			C265.3,359.3,265.6,359.6,265.6,360z"/>
		<path class="st74" d="M145.4,406.7c-0.2,1-0.9,1.2-1.6,1.2c-2.6,0.3-5.3,0.9-7.8,1.7c-2,0.5-3.9,1.2-5.7,2
			c-0.7,0.3-1.5,0.6-1.9-0.3c-0.4-0.9,0.2-1.4,0.9-1.7c4.5-2.1,9.3-3.5,14.3-4C144.4,405.6,145.3,405.5,145.4,406.7z"/>
		<path class="st75" d="M272.4,386.1c0,0.6-0.3,1.1-0.8,1.4c-2.1,1.7-4.5,2.8-7.1,3.5c-0.8,0.2-1.6,0.1-1.8-0.7s0.4-1.3,1.2-1.5
			c2.4-0.7,4.6-1.9,6.6-3.3C271.4,384.9,272.3,385.3,272.4,386.1z"/>
		<path class="st76" d="M264.5,370.6c0,0.3-0.1,0.5-0.1,0.8c-0.9,2.2-2.4,4.2-4.4,5.5c-0.5,0.3-1,0.5-1.5,0c-0.4-0.3-0.5-1-0.2-1.4
			c0.1-0.1,0.2-0.2,0.3-0.3c1.7-1.5,3-3.2,4-5.2c0.2-0.4,0.7-0.6,1.2-0.5C264.3,369.6,264.5,370.1,264.5,370.6z"/>
		<path class="st77" d="M135.8,377.4c-2-0.2-3.9-1-5.6-2.2c-0.6-0.3-0.8-1-0.5-1.5c0-0.1,0.1-0.1,0.1-0.1c0.3-0.5,0.9-0.6,1.4-0.3
			c0,0,0.1,0,0.1,0.1c1.7,1,3.5,1.7,5.4,2c0.6,0.1,1.3,0.5,1,1.4S136.8,377.4,135.8,377.4z"/>
		<path class="st78" d="M263.2,395.2c0-0.6,0.4-1.1,0.9-1.2c1.5-0.5,2.9-1.1,4.4-1.5c0.5-0.3,1.2-0.1,1.5,0.4
			c0.3,0.5,0.1,1.2-0.4,1.5c0,0-0.1,0-0.1,0.1c-1.6,0.9-3.4,1.4-5.2,1.7c-0.5,0.1-1.1-0.3-1.1-0.8
			C263.2,395.3,263.2,395.3,263.2,395.2z"/>
		<path class="st79" d="M116.4,407.1c-0.1,0.5-0.5,0.9-1.1,0.9c-1.7-0.1-3.3-0.8-4.5-2c-0.4-0.3-0.4-0.9-0.2-1.3
			c0.2-0.5,0.7-0.7,1.1-0.5c0,0,0,0,0,0c1.4,0.5,2.7,1.2,4.1,1.8C116.3,406.2,116.5,406.6,116.4,407.1z"/>
		<path class="st80" d="M140.3,222.8c-1,0-2,0-3,0c-0.4,0-0.7-0.2-0.8-0.6c-0.1-0.5,0.1-0.9,0.5-1.2c0.2-0.1,0.5-0.2,0.8-0.3
			c2.2-0.3,4.4-0.4,6.6-0.2c0.5,0,0.9,0.3,1,0.8c0.1,0.5-0.2,1.1-0.8,1.2c0,0-0.1,0-0.1,0C143.1,222.6,141.7,222.6,140.3,222.8
			L140.3,222.8z"/>
		<path class="st81" d="M138.2,208.1c0.2,0.1,0.5,0.1,0.7,0.3c1.4,1.1,2.9,2.3,4.3,3.5c0.6,0.3,0.7,1,0.4,1.6c0,0,0,0.1-0.1,0.1
			c-0.4,0.5-1,0.5-1.5,0.2c-1.8-1-3.3-2.3-4.7-3.9c-0.4-0.3-0.5-1-0.2-1.4C137.4,208.1,137.8,207.9,138.2,208.1L138.2,208.1z"/>
		<path class="st43" d="M212.1,243.2l2,7.4c-1.8,0.5-3.5,0.8-5.4,1c-4,0.8-8,1.4-12,2.2c-1.2,0.2-2.1,0.2-2.3-1.4
			c-0.2-2.5-1.1-4.9-1.2-7.4c2.1,0.3,4.2,0.8,6.3,1C204,246.4,208.3,245.9,212.1,243.2z"/>
		<path class="st82" d="M339.7,171.6c-0.7,0-1.6,0.1-1.8-0.8s0.7-1.2,1.4-1.4c0.9-0.2,1.8-0.4,2.7-0.6c0.7-0.2,1.3,0.2,1.6,0.8
			c0.2,0.8-0.3,1.2-1,1.4C341.7,171.3,340.7,171.5,339.7,171.6z"/>
		<path class="st83" d="M297.4,184.2c-0.5-0.1-0.9-0.6-0.9-1.1c0,0,0-0.1,0-0.1c0.1-1.2,2.6-2.9,3.7-2.6c0.5,0.1,0.7,0.5,0.7,1
			c0,0,0,0,0,0C300.8,182.1,298.1,184.2,297.4,184.2z"/>
		<path class="st84" d="M305.8,188.2c0.5-0.1,1,0.3,1.1,0.9c0,0.2,0,0.4-0.1,0.6c-0.1,0.3-0.4,0.6-0.6,0.9c-0.8,0.7-1.2,2-2.6,1.5
			c-0.4-0.2-0.5-0.7-0.4-1.2C303.7,189.6,304.6,188.6,305.8,188.2z"/>
		<path class="st85" d="M327.2,154.3c-0.2,0-0.4-0.1-0.5-0.2c-0.9-0.8-0.3-1.5,0.1-2.2s0.8-1.8,2-1.3c0.9,0.4,0.7,1.2,0.3,1.9
			S328.3,154.3,327.2,154.3z"/>
		<path class="st86" d="M319,195.2c0,0.4,0,0.7-0.1,1.1c0,0.6-0.4,1.1-1,1.1c-0.7,0.1-1-0.4-1.1-1c-0.1-0.4-0.1-0.7-0.1-1.1
			c0-1-0.1-2.3,1.3-2.3S318.9,194.3,319,195.2z"/>
		<path class="st87" d="M296.9,169.8c1,0,1.7,0.1,1.8,1.1c0,0.8-0.6,1.1-1.3,1.1c-0.9,0.1-1.9,0.4-2.6-0.3c-0.3-0.2-0.4-0.7-0.1-1
			C295.2,169.9,296.2,170.1,296.9,169.8z"/>
		<path class="st49" d="M296.8,162.5c0.1-2,0.3-2.2,1.9-1.9c0.4,0.1,0.9,0.2,1.3,0.4c0.7,1.9,0.4,2.4-1.4,2.1
			C298,162.9,297.4,162.7,296.8,162.5z"/>
		<path class="st88" d="M330,190.3c1,0,2.6,1.8,2.5,2.6c-0.1,0.5-0.6,0.9-1.1,0.9c0,0-0.1,0-0.1,0c-1.1-0.4-2-1.3-2.3-2.5
			C329,190.6,329.4,190.3,330,190.3z"/>
		<path class="st89" d="M340.8,184.7c-0.1,0.6-0.6,0.9-1.2,0.9c-1.3-0.1-2.6-1.3-2.4-2.2c0.1-0.5,0.7-0.9,1.2-0.7c0,0,0,0,0.1,0
			C339.7,182.9,340.9,184,340.8,184.7z"/>
		<path class="st90" d="M308.9,154.5c-0.1,0.5-0.4,0.9-0.9,0.9c-1.2-0.3-2.1-1.1-2.5-2.2c-0.1-0.5,0.2-0.9,0.6-1c0,0,0,0,0,0
			C307.6,152.1,308.7,153.1,308.9,154.5z"/>
		<path class="st91" d="M338.4,158.4c-0.1,1.2-1,2.1-2.2,2.3c-0.5,0-0.9-0.3-1-0.8c-0.1-0.8,1.2-2.1,2.1-2.2c0.5-0.1,1,0.2,1.1,0.7
			C338.4,158.4,338.4,158.4,338.4,158.4z"/>
		<path class="st92" d="M315.9,150.4c0.1-0.8-0.1-1.8,1-1.7s1.1,1,1.3,1.8s-0.1,1.5-1.1,1.6C315.9,152.1,316.1,151.1,315.9,150.4z"
			/>
		<path class="st93" d="M326.9,50.2c0.5,0.1,0.8,0.3,0.8,0.8s-0.3,1-1,1c-0.4,0-0.8-0.4-0.7-0.9c0,0,0,0,0-0.1
			C326.1,50.6,326.4,50.2,326.9,50.2C326.9,50.2,326.9,50.2,326.9,50.2z"/>
		<path class="st94" d="M31.7,87.9c0,0.4-0.3,0.8-0.7,0.8c-0.6,0.1-1-0.3-1-1c0-0.4,0.3-0.8,0.7-0.8c0,0,0.1,0,0.1,0
			C31.4,87,31.7,87.3,31.7,87.9z"/>
		<path class="st4" d="M170.8,67.3c-0.4,0.5-0.8,1.2-0.9,1.8l-1.3,1.5c-3.2,0.7-4.9-0.5-5.4-3.6c-0.2-1.6,0-3.1,0.6-4.6
			c0.1-0.2,0.2-0.5,0.4-0.7c0-0.2,0.1-0.3,0.2-0.5c0-0.2,0.2-0.4,0.4-0.5v-0.1c0.1-0.2,0.3-0.4,0.5-0.5l0.1,0
			c0.1-0.2,0.3-0.4,0.5-0.4c2.8-0.8,3.5-0.4,5,2.6L170.8,67.3z"/>
		<path class="st60" d="M161.5,59.1c0.8-0.7,1.2-1.6,2.2-2c0.5-0.3,1.1-0.2,1.5,0.2c0.4,0.4,0.4,1.1,0,1.5c-0.5,0.7-1.3,1-1.5,1.9
			c-0.6,0.5-1.1,1.5-2,0.8S161.3,60,161.5,59.1z"/>
		<path class="st60" d="M164.8,60.8c0,0.3-0.1,0.5-0.4,0.5c0-0.2,0-0.3,0-0.5C164.5,60.8,164.6,60.8,164.8,60.8z"/>
		<path class="st60" d="M164.1,61.8c0.1,0.2,0,0.5-0.3,0.6c0,0-0.1,0-0.1,0C163.7,62.2,163.8,61.9,164.1,61.8
			C164.1,61.8,164.1,61.8,164.1,61.8z"/>
		<path class="st59" d="M179.2,68.5l-1.6-2.2c-0.1-0.4-0.2-0.9-0.3-1.3c-0.7-2.7-0.1-4.9,2.4-6.4c3.6,0.3,6.2,3.5,5.8,7
			c-0.1,0.8-0.3,1.5-0.6,2.2C183.9,70,182,70.2,179.2,68.5z"/>
		<path class="st95" d="M181.4,55.2c0.7,0.6,1.6,0.9,2.1,1.7c0,1.1-0.6,1.4-1.5,1.2c-0.6-0.2-1.1-0.4-1.7-0.6
			C179.5,56.1,180,55.4,181.4,55.2z"/>
		<path class="st60" d="M165.9,59.8c0,0.3-0.2,0.4-0.5,0.4C165.4,59.9,165.6,59.7,165.9,59.8z"/>
		<path class="st60" d="M165.3,60.3c0,0.3-0.2,0.5-0.4,0.5c0,0-0.1,0-0.1,0c0-0.2,0.1-0.5,0.4-0.5C165.2,60.3,165.3,60.3,165.3,60.3
			z"/>
		<path class="st43" d="M195.4,256.7l14-2.3c1.4-0.2,2.8-0.4,4.1-0.6c1.1-0.2,1.7,0.1,1.9,1.3c0.4,2.2,1,4.3,1.6,6.5
			c0.3,1.1-0.1,1.5-1.2,1.6c-5.7,0.8-11.3,1.7-17,2.6c-0.9,0.1-1.4,0-1.6-0.9C196.4,262.2,195.8,259.5,195.4,256.7z"/>
		<path class="st43" d="M218.3,266.1c-1.4,2.9-3.1,5.6-4.2,8.5c-0.2,0.4-0.5,0.8-1,0.8c-0.4,0.1-0.7,0.1-1.1,0.2
			c-6.7,1.6-6.9,1.6-11.8-2.9c-0.4-0.4-0.8-0.8-1-1.3c-1.2-2.5-1-2.8,1.8-3.2c4.3-0.6,8.6-1.3,12.9-1.9
			C215.4,266,216.8,265.9,218.3,266.1z"/>
		<path class="st20" d="M208.1,279.4c1.5-0.7,3-0.6,4.4-1c0.1,1.6-0.8,2.6-1.1,4C209.8,281.8,209.1,280.6,208.1,279.4z"/>
		<path class="st20" d="M166.2,67.9c-0.8-1.5-0.8-3.3,0-4.8c0.3-0.6,0.6-1.2,1.4-1.2c0.5,0,0.8,0.5,0.9,0.9c0.3,0.7,0.6,1.5-0.2,2
			C167.1,65.5,166.7,66.7,166.2,67.9z"/>
		<path class="st20" d="M182.9,66.6c-0.6-1.3-1.5-2.5-2.7-3.5c-0.5-0.2-0.7-0.8-0.5-1.3c0.1-0.1,0.1-0.2,0.2-0.3
			c0.6-0.8,1.4-0.5,1.9,0.1C183,62.9,183.4,64.4,182.9,66.6z"/>
		<path class="st96" d="M324.5,165.1c0.3,0.5,0.5,0.7,0.7,1.1c0.5,0.8,0.7,1.7,0.7,2.7c0,0.6,0.2,0.8,0.8,0.9
			c1.6,0.1,3.3,0.4,4.9,0.6c0.5,0.1,1.2,0,1.3,0.8c0,0.5-0.4,0.9-1.4,0.7c-1.7-0.2-3.4-0.3-5-0.5c-0.6-0.1-0.9-0.1-1.3,0.5
			c-1.1,1.5-2.5,2.6-4.2,3.3c-2.2,1.1-4.7,1.4-7.2,1.1c0.4,0.5,0.8,0.7,1,1c2,2.3,3,3.5,4.8,6c0.4,0.6,0.8,1.2,1.2,1.9
			c0.2,0.4,0.2,1.8-0.2,2s-0.7,0-1-0.4c-2.5-4-5.7-7.3-8.7-10.8c-0.1-0.1-0.2-0.3-0.3-0.4c-0.2-0.2-0.2-0.6-0.1-0.9
			c0.2-0.3,0.5-0.4,0.8-0.4c0.3,0,0.6,0.1,0.9,0.2c3.3,0.7,6.8,0,9.7-1.8c0.8-0.4,1.4-1,1.9-1.8c-0.5-0.1-1-0.2-1.5-0.2
			c-2.7-0.2-4.8-0.2-7.6-0.3c-0.5,0-1.2-0.2-1.2-0.9s0.6-0.7,1.1-0.7c1.4,0,2.7,0.1,4.1,0.2c1.7,0.1,3.4,0.2,5,0.3
			c0.7,0.1,0.7-0.2,0.7-0.8c-0.1-2-1.6-3.6-3.5-3.9c-2.8-0.4-6-0.8-8.9-1.1c-1.9-0.2-3.6-0.3-5.5-0.4c-0.3,0-0.6-0.1-0.8-0.2
			c-0.2,0-0.4-0.2-0.4-0.5c0-0.3,0.1-0.5,0.4-0.6c0.3-0.1,0.7-0.1,1-0.1c7.6,0.2,15.1,1,22.5,2.3c1,0.1,1.4,0.4,1.2,0.9
			c-0.2,0.6-0.8,0.9-1.4,0.8C327.5,165.4,326,165.2,324.5,165.1z"/>
	</g>
</g>
</svg>
