<?xml version="1.0" standalone="no"?>
<!DOCTYPE svg PUBLIC "-//W3C//DTD SVG 20010904//EN"
 "http://www.w3.org/TR/2001/REC-SVG-20010904/DTD/svg10.dtd">
<svg version="1.0" xmlns="http://www.w3.org/2000/svg"
 width="7500.000000pt" height="5000.000000pt" viewBox="0 0 7500.000000 5000.000000"
 preserveAspectRatio="xMidYMid meet">

<g transform="translate(0.000000,5000.000000) scale(0.100000,-0.100000)"
fill="#000000" stroke="none">
<path d="M29125 39001 c-246 -71 -480 -302 -650 -641 -96 -192 -146 -346 -165
-510 -30 -254 -102 -406 -264 -557 -35 -33 -149 -125 -252 -204 -326 -249
-499 -437 -609 -662 -149 -304 -150 -632 -3 -907 47 -88 109 -173 119 -162 3
4 28 72 54 152 136 411 308 810 434 1003 144 220 434 349 925 412 34 5 56 14
73 33 56 60 104 195 144 403 17 91 19 119 10 154 -14 57 -14 137 1 256 l12 97
150 5 c118 3 167 9 221 26 112 35 318 143 469 245 l140 94 18 -23 c64 -81 96
-199 104 -385 8 -160 -10 -262 -72 -418 -77 -195 -153 -315 -220 -347 -33 -16
-45 -16 -107 -5 -38 7 -72 8 -76 4 -5 -5 -14 -43 -20 -84 -7 -41 -15 -84 -18
-96 -4 -19 5 -23 114 -49 342 -81 593 -210 684 -353 l27 -43 20 33 c31 51 68
163 88 268 24 126 24 431 0 615 -86 671 -382 1439 -606 1573 -93 55 -166 72
-355 82 -239 13 -321 11 -390 -9z"/>
<path d="M30634 35483 c-9 -21 -39 -94 -68 -163 -29 -69 -187 -459 -352 -867
l-299 -742 -405 -3 -405 -3 -3 -37 -3 -38 1654 0 c1315 0 1656 3 1660 13 2 6
172 427 376 935 204 507 371 927 371 932 0 7 -429 10 -1256 10 l-1255 0 -15
-37z m1096 -798 c67 -35 68 -107 1 -178 -59 -65 -133 -76 -182 -28 -58 59 -21
157 76 202 49 23 68 23 105 4z"/>
<path d="M23326 30078 c96 -381 253 -1006 350 -1388 96 -382 177 -704 179
-715 3 -11 21 -83 40 -160 20 -77 38 -149 40 -160 3 -11 21 -83 40 -160 20
-77 38 -149 40 -160 3 -11 25 -101 51 -200 25 -99 102 -403 170 -675 68 -272
127 -504 130 -515 3 -11 8 -33 11 -50 3 -16 8 -37 13 -45 6 -12 22 -84 20 -92
0 -2 9 -37 21 -78 12 -41 23 -88 26 -105 3 -16 8 -37 13 -45 6 -12 18 -65 22
-97 0 -5 10 -39 20 -78 11 -38 22 -83 25 -100 3 -16 8 -37 13 -45 6 -12 18
-65 22 -97 0 -5 10 -39 20 -78 11 -38 22 -83 25 -100 3 -16 8 -37 13 -45 6
-12 18 -65 22 -97 0 -5 9 -39 20 -78 11 -38 22 -81 24 -95 3 -14 7 -32 10 -40
5 -13 368 -1454 379 -1505 3 -11 21 -83 40 -160 20 -77 38 -149 40 -160 3 -11
21 -83 40 -160 20 -77 38 -150 41 -161 2 -12 31 -129 65 -260 33 -132 114
-455 180 -719 66 -264 124 -493 129 -510 15 -52 32 -118 37 -145 2 -14 13 -59
24 -100 11 -41 22 -86 25 -100 2 -14 9 -39 15 -57 5 -17 12 -44 15 -60 3 -15
14 -62 25 -103 11 -41 22 -86 25 -100 2 -14 9 -39 15 -57 5 -17 12 -44 15 -60
3 -15 14 -62 25 -103 11 -41 22 -86 25 -100 2 -14 9 -39 15 -57 5 -17 12 -44
15 -60 3 -15 16 -71 30 -123 38 -142 535 -2123 536 -2137 1 -7 13 -13 27 -13
34 0 428 36 613 56 81 9 153 14 159 12 6 -2 -175 -218 -402 -480 -638 -734
-1020 -1173 -1119 -1285 -70 -80 -86 -103 -71 -103 31 0 478 66 751 111 135
22 260 41 278 42 45 1 108 76 168 199 25 51 58 108 72 127 14 19 41 64 61 100
22 39 44 67 55 69 18 4 19 -2 13 -97 l-6 -101 34 0 c69 0 173 67 297 192 49
49 92 86 97 83 5 -3 22 -42 38 -88 24 -71 28 -97 28 -192 0 -178 -13 -194
-371 -431 l-231 -153 29 -113 c16 -62 31 -122 33 -133 3 -11 21 -83 40 -160
20 -77 38 -150 41 -163 2 -12 29 -120 60 -240 30 -119 69 -271 85 -337 17 -66
35 -137 40 -157 l10 -38 14077 0 c7742 0 14082 4 14089 8 8 5 8 21 -3 62 -9
30 -17 64 -20 75 -2 11 -20 76 -39 145 -45 159 -40 139 -70 250 -14 52 -32
118 -40 145 -25 92 -65 239 -84 310 -11 39 -27 97 -37 130 -10 33 -19 65 -20
70 -1 6 -10 37 -19 70 -9 33 -27 98 -40 145 -13 47 -44 162 -70 255 -26 94
-51 184 -55 200 -8 29 -95 346 -109 395 l-7 25 -2930 5 -2929 5 -78 22 c-91
26 -226 87 -292 133 -123 85 -239 223 -285 340 -20 51 -480 2080 -494 2181
-25 173 88 366 264 452 145 72 -88 67 3038 67 1552 0 2822 1 2822 3 0 1 -16
58 -36 127 -19 69 -36 132 -38 140 -2 8 -11 42 -21 75 -9 33 -20 74 -24 90 -5
17 -19 66 -31 110 -12 44 -26 94 -31 110 -4 17 -19 71 -33 120 -13 50 -31 115
-39 145 -9 30 -25 91 -37 135 -12 44 -33 121 -47 170 -14 50 -34 122 -44 160
-31 111 -80 287 -90 323 -13 45 -29 104 -33 122 -2 8 -16 58 -31 110 -15 52
-31 113 -36 135 -6 22 -23 85 -39 140 -16 55 -36 126 -45 157 l-16 58 -3877 2
-3877 3 -70 24 c-276 93 -468 291 -535 551 -6 25 -29 108 -50 185 -84 301
-162 584 -185 665 -13 47 -79 283 -145 525 -67 242 -168 607 -225 810 -57 204
-120 431 -140 505 -20 74 -47 171 -60 215 -13 44 -35 123 -49 175 -14 52 -53
194 -87 315 -33 121 -90 326 -126 455 -36 129 -80 289 -98 355 -18 66 -63 228
-100 360 -36 132 -88 319 -115 415 -92 329 -202 725 -242 870 -54 196 -78 282
-138 500 -143 512 -143 514 -138 600 10 165 117 301 275 350 65 20 83 20 3934
20 2128 0 3869 3 3869 8 0 4 -40 151 -88 327 l-89 320 -8406 3 c-4624 1 -8407
0 -8407 -3 0 -3 60 -119 134 -257 73 -139 184 -351 246 -471 l112 -218 -22
-24 c-28 -30 -23 -39 72 -131 79 -78 276 -210 423 -284 83 -42 131 -57 239
-75 l40 -7 -50 -29 c-69 -40 -197 -85 -301 -105 -107 -20 -270 -15 -473 15
-74 10 -166 22 -205 26 l-70 7 -1 86 c-2 118 -15 160 -87 280 -47 79 -66 102
-82 102 -34 0 -582 484 -1066 942 l-157 148 -390 0 -391 0 -21 -57 c-28 -76
-441 -1191 -484 -1308 l-33 -90 -41 -3 -40 -3 -21 -67 c-105 -346 -156 -574
-175 -777 -20 -220 -7 -289 78 -430 19 -32 34 -61 32 -63 -7 -7 -152 71 -223
120 -154 106 -261 244 -433 557 -52 95 -105 183 -116 196 l-22 24 42 19 c22
10 72 29 109 42 94 33 139 75 187 173 32 67 110 298 110 325 0 4 -17 17 -38
29 l-39 22 9 53 c4 29 20 154 34 278 25 224 120 909 130 943 5 16 -189 17
-3989 17 l-3995 0 174 -692z m2329 227 c167 -74 233 -246 133 -344 -130 -127
-428 22 -428 214 0 139 138 201 295 130z m945 6 c186 -94 232 -300 84 -372
-85 -41 -209 -11 -299 72 -61 57 -89 110 -89 175 0 60 31 110 86 138 46 24
157 17 218 -13z m-1878 -13 c29 -14 73 -45 97 -69 104 -104 107 -219 8 -293
-42 -31 -174 -30 -235 2 -139 74 -210 222 -149 313 12 19 42 44 67 57 56 29
134 25 212 -10z m5818 -1843 c30 -30 52 -55 49 -55 -2 0 -29 25 -59 55 -30 30
-52 55 -49 55 2 0 29 -25 59 -55z m11834 -211 c113 -29 219 -105 252 -182 8
-18 30 -97 49 -175 18 -78 59 -245 90 -372 30 -126 78 -324 106 -440 28 -115
84 -345 124 -510 346 -1428 385 -1593 385 -1636 0 -74 -54 -138 -151 -176 -42
-17 -237 -18 -3879 -21 -2662 -2 -3856 1 -3905 8 -38 6 -98 24 -132 40 -69 32
-155 106 -172 148 -24 59 -752 3090 -753 3133 -1 89 53 149 167 185 32 10 816
13 3899 13 3487 1 3864 -1 3920 -15z m-12567 -990 c41 -26 58 -64 58 -130 l0
-61 564 -559 563 -559 59 63 c32 34 61 62 65 62 9 0 338 -313 342 -325 1 -6
-20 -36 -48 -67 l-51 -57 104 -49 c147 -69 404 -208 592 -320 729 -434 1403
-1009 1961 -1677 200 -240 405 -523 734 -1015 437 -654 542 -793 771 -1015
198 -192 388 -322 628 -431 123 -55 307 -121 316 -112 3 2 8 39 11 81 6 71 8
76 28 72 12 -2 120 -14 241 -26 121 -12 220 -22 221 -23 0 -1 -4 -49 -11 -108
l-11 -106 56 -11 c208 -40 613 -49 790 -18 382 66 642 225 881 538 84 110 168
244 319 504 226 390 354 576 520 749 99 104 227 215 321 279 l55 38 93 219 93
219 32 -13 c17 -7 60 -25 95 -40 35 -15 65 -26 66 -24 2 2 81 172 175 377
l171 374 -22 52 c-28 67 -20 116 25 161 41 41 94 52 150 33 56 -20 86 -66 86
-136 0 -47 -4 -58 -33 -90 -25 -27 -45 -38 -76 -42 l-42 -6 -174 -380 -175
-380 58 -27 c31 -15 65 -27 75 -28 10 0 62 11 115 24 340 85 754 118 1222 97
151 -7 286 -15 300 -17 22 -5 27 -14 42 -77 9 -40 467 -1801 1017 -3915 550
-2113 1003 -3853 1006 -3865 2 -12 12 -49 20 -82 25 -94 26 -99 30 -121 3 -11
18 -72 35 -135 16 -63 30 -115 30 -116 0 -2 -3262 -3 -7249 -3 l-7249 0 -5 23
c-3 12 -164 756 -357 1654 l-351 1632 586 673 585 673 -58 53 c-31 29 -64 58
-73 65 -10 7 -79 66 -154 132 -191 167 -192 167 -176 159 9 -5 12 -3 7 5 -4 6
-11 9 -15 7 -4 -3 -54 36 -111 86 l-104 90 -35 -41 c-309 -357 -687 -788 -690
-785 -3 3 -27 104 -37 159 -3 17 -10 48 -15 70 -5 22 -12 54 -15 70 -7 38 -93
425 -99 445 -10 33 -54 206 -59 230 -5 23 -9 42 -21 90 -3 11 -7 29 -10 40 -3
11 -7 29 -10 40 -3 11 -7 29 -10 40 -3 11 -7 29 -10 40 -3 11 -7 29 -10 40 -3
11 -7 29 -10 40 -3 11 -7 29 -10 40 -3 11 -7 29 -10 40 -3 11 -7 29 -10 40 -3
11 -7 28 -10 38 -26 100 -525 2083 -529 2102 -5 23 -9 42 -21 90 -3 11 -7 29
-10 40 -3 11 -7 29 -10 40 -3 11 -7 29 -10 40 -3 11 -7 28 -10 38 -52 195
-829 3288 -832 3315 -6 44 -25 42 243 27 1169 -67 2412 -332 3438 -734 112
-44 120 -46 137 -30 11 10 19 23 19 30 0 6 -253 261 -561 565 -556 549 -562
554 -603 555 -79 1 -89 4 -127 43 -36 36 -39 43 -39 94 0 49 4 61 31 92 48 54
128 67 186 29z m-1177 -9291 c39 -36 74 -133 67 -190 -7 -61 -49 -126 -122
-186 -59 -49 -210 -136 -263 -152 l-24 -7 21 21 c28 28 47 103 66 261 17 146
28 194 54 224 53 62 149 76 201 29z"/>
<path d="M39040 27072 c0 -8 197 -824 206 -854 5 -16 26 -18 207 -20 l201 -3
47 -193 c25 -106 48 -195 51 -197 3 -3 200 -4 439 -3 l435 3 -106 437 -105
438 -202 0 -201 0 -49 200 -48 200 -437 0 c-241 0 -438 -4 -438 -8z m853 -214
c21 -84 37 -159 37 -165 0 -10 -47 -13 -200 -13 l-200 0 7 -27 c3 -16 25 -106
48 -200 l42 -173 -161 0 -161 0 -83 343 c-45 188 -85 352 -88 365 l-6 22 364
0 364 0 37 -152z m467 -261 c0 -2 38 -161 85 -353 47 -192 85 -355 85 -362 0
-10 -76 -12 -362 -10 l-362 3 -38 155 c-20 85 -37 158 -38 163 0 4 90 7 200 7
110 0 200 2 200 4 0 2 -20 87 -45 187 -25 101 -45 190 -45 197 0 9 39 12 160
12 88 0 160 -1 160 -3z"/>
<path d="M35336 26953 c12 -54 56 -235 97 -403 l73 -305 202 -3 c111 -1 202
-3 202 -5 1 -1 22 -90 49 -197 l48 -195 405 -3 405 -2 -94 387 c-51 214 -95
394 -98 401 -3 9 -53 12 -204 12 -182 0 -200 2 -205 18 -3 9 -21 85 -41 167
-20 83 -40 167 -46 188 l-10 37 -403 0 -404 0 24 -97z"/>
<path d="M37200 27039 c0 -6 40 -178 90 -382 49 -205 92 -382 95 -394 5 -23 7
-23 190 -23 183 0 185 0 190 -22 3 -13 27 -111 53 -218 l48 -195 437 -3 c269
-1 437 1 437 7 0 9 -180 756 -201 834 l-10 37 -217 0 -218 0 -45 185 -44 185
-402 0 c-279 0 -403 -3 -403 -11z m1360 -786 c46 -192 85 -356 88 -365 4 -17
-18 -18 -360 -18 l-364 0 -83 347 c-46 190 -86 354 -89 365 -4 17 11 18 360
18 l364 0 84 -347z"/>
<path d="M40967 27023 c4 -16 48 -197 98 -403 l91 -375 202 -3 c111 -1 202 -3
202 -5 1 -1 22 -90 48 -197 l48 -195 405 -3 406 -2 -97 397 -96 398 -202 3
-201 2 -10 38 c-6 20 -24 96 -41 167 -17 72 -35 147 -41 168 l-10 37 -405 0
-404 0 7 -27z m931 -575 c23 -95 42 -176 42 -180 0 -5 -83 -8 -184 -8 l-184 0
-41 168 c-23 92 -41 173 -41 180 0 9 43 12 183 12 l183 0 42 -172z"/>
<path d="M31281 21909 c-57 -60 -135 -136 -175 -168 -216 -177 -487 -306 -730
-347 -50 -9 -94 -19 -97 -22 -4 -4 -131 -213 -283 -466 -253 -419 -275 -460
-261 -476 8 -9 12 -20 8 -25 -5 -4 -2 -5 5 -1 15 9 44 -12 36 -25 -3 -5 -1 -8
4 -7 11 4 156 -116 184 -152 11 -14 21 -23 22 -20 2 3 32 -20 67 -52 35 -31
107 -93 159 -138 117 -102 131 -116 122 -126 -4 -4 -2 -4 4 -1 7 4 22 -2 36
-12 l24 -19 404 341 404 342 2 105 c3 122 31 271 75 397 67 192 213 446 358
623 33 41 61 78 61 81 0 3 -30 29 -66 59 -55 45 -67 51 -78 39 -12 -13 -672
-773 -703 -811 -13 -14 -12 -20 1 -47 20 -38 21 -123 2 -160 -22 -42 -80 -89
-126 -101 -119 -32 -243 77 -226 199 8 58 49 118 99 144 42 21 122 26 154 8
19 -9 54 29 387 411 l367 422 -63 58 c-35 31 -65 57 -68 57 -3 0 -52 -49 -109
-110z"/>
<path d="M16335 29225 c-246 -53 -400 -253 -398 -515 1 -85 19 -176 167 -843
91 -412 166 -750 166 -753 0 -2 933 -4 2073 -4 l2074 0 -172 773 c-111 496
-182 792 -198 829 -115 257 -361 457 -629 512 -68 14 -243 16 -1550 15 -1177
0 -1485 -3 -1533 -14z m788 -899 c202 -164 367 -300 367 -303 0 -3 -83 -3
-184 1 l-185 7 -86 -132 c-47 -72 -88 -129 -91 -126 -3 2 -16 56 -30 118 -14
63 -61 255 -105 428 -43 172 -79 316 -79 319 0 6 -40 37 393 -312z m1857 9
c190 -153 354 -287 365 -298 20 -19 19 -19 -167 -13 l-187 7 -87 -131 c-48
-71 -90 -130 -93 -130 -4 0 -13 33 -20 73 -7 39 -53 232 -102 427 -49 195 -89
359 -89 364 0 5 8 2 18 -6 9 -8 172 -140 362 -293z"/>
<path d="M47994 28883 c3 -10 26 -92 51 -183 84 -304 70 -270 115 -270 47 0
47 2 20 90 -11 36 -20 68 -20 73 0 4 21 7 48 7 46 0 49 -2 132 -85 83 -84 85
-85 134 -85 l50 0 -89 91 -90 91 27 14 c34 18 48 43 48 87 0 70 -40 132 -110
167 -34 17 -59 20 -180 20 -130 0 -141 -1 -136 -17z m281 -68 c39 -19 58 -51
53 -91 -4 -40 -38 -55 -122 -52 l-69 3 -19 65 c-10 36 -18 71 -18 78 0 18 134
16 175 -3z"/>
<path d="M48347 28016 c-125 -34 -160 -158 -86 -305 31 -63 72 -101 149 -142
37 -20 60 -24 130 -24 75 0 90 3 133 28 27 16 47 34 44 40 -2 7 -14 54 -27
105 l-24 92 -102 0 -103 0 10 -32 c5 -18 9 -34 9 -35 0 -1 28 -3 61 -5 l62 -3
12 -42 c15 -50 10 -57 -54 -72 -91 -20 -187 37 -233 139 -28 64 -20 115 26
157 45 41 89 43 165 8 30 -14 54 -24 55 -23 1 2 7 13 14 25 19 35 16 40 -40
66 -66 31 -139 39 -201 23z"/>
<path d="M45750 27733 c0 -5 20 -80 45 -168 25 -88 45 -163 45 -167 0 -5 -72
-8 -161 -8 l-160 0 7 -22 c4 -13 29 -101 55 -197 27 -96 50 -176 52 -178 2 -2
83 106 179 239 97 134 219 303 272 376 l96 132 -215 0 c-118 0 -215 -3 -215
-7z"/>
<path d="M46012 27278 l-269 -373 375 -3 c206 -1 377 -1 379 1 5 6 -201 747
-209 747 -3 0 -127 -168 -276 -372z"/>
<path d="M48516 27004 c14 -49 39 -138 56 -199 16 -60 35 -127 40 -147 l10
-38 140 0 c158 0 200 12 216 59 20 56 -20 139 -77 164 -14 6 -27 12 -29 13 -1
0 4 14 13 30 20 39 19 60 -5 109 -13 27 -34 49 -63 65 -38 22 -56 25 -184 28
l-142 4 25 -88z m262 -10 c13 -9 28 -28 33 -42 17 -43 -16 -62 -107 -62 l-73
0 -16 52 c-8 28 -15 55 -15 60 0 16 154 9 178 -8z m93 -212 c34 -38 35 -46 9
-72 -18 -18 -31 -20 -107 -18 l-87 3 -17 57 c-9 31 -14 60 -10 63 3 4 46 5 94
3 86 -3 90 -4 118 -36z"/>
<path d="M16282 27063 c3 -10 112 -505 244 -1100 l239 -1083 2073 0 c1139 0
2072 1 2072 3 0 1 -110 495 -243 1097 l-243 1095 -2073 3 c-1971 2 -2073 1
-2069 -15z m3489 -649 l49 -35 -37 -57 c-20 -31 -137 -217 -261 -412 -123
-195 -228 -359 -233 -364 -10 -11 -110 55 -106 70 4 21 522 833 531 834 4 0
30 -16 57 -36z m-1926 -86 c3 -7 13 -52 24 -100 l19 -88 -63 0 -62 0 -7 40 -6
40 -100 0 c-55 0 -100 -3 -100 -7 0 -5 23 -115 52 -245 l52 -238 43 0 c48 0
57 -11 69 -91 l7 -39 -152 0 -151 0 -6 28 c-3 15 -10 41 -14 59 -10 39 -6 43
43 43 35 0 39 2 34 23 -3 12 -27 122 -54 245 l-48 222 -101 0 -102 0 9 -37 c5
-21 9 -41 9 -45 0 -5 -27 -8 -59 -8 l-59 0 -21 91 c-12 50 -21 97 -21 105 0
12 58 14 380 14 296 0 382 -3 385 -12z"/>
<path d="M49505 27056 c-43 -19 -66 -49 -72 -94 -11 -84 46 -179 132 -219 l52
-23 3531 2 3532 3 31 31 c86 87 18 248 -128 300 -56 20 -7033 20 -7078 0z"/>
<path d="M53040 25867 c0 -7 76 -287 169 -622 93 -336 174 -629 180 -652 l12
-43 1329 0 c950 0 1330 3 1330 11 0 6 -81 303 -180 660 -99 357 -180 651 -180
654 0 3 -598 5 -1330 5 -1072 0 -1330 -2 -1330 -13z"/>
<path d="M16782 24808 c5 -24 115 -520 244 -1103 129 -582 236 -1060 238
-1062 1 -2 934 -2 2072 -1 l2069 3 -244 1103 -244 1102 -2073 0 -2072 0 10
-42z m3170 -588 l93 -170 183 0 c101 0 182 -4 180 -8 -1 -5 -56 -55 -120 -111
-65 -56 -118 -104 -118 -106 0 -2 41 -79 91 -170 50 -92 89 -169 86 -171 -3
-3 -80 42 -173 99 l-167 105 -121 -104 c-66 -57 -125 -104 -129 -104 -5 0 -6
12 -3 28 3 15 10 79 16 142 6 63 13 129 15 145 5 30 1 33 -165 135 -93 58
-169 108 -170 113 0 4 80 7 179 7 l179 0 5 33 c4 17 11 88 17 157 12 126 16
150 24 150 3 0 47 -76 98 -170z m-1960 111 c129 -50 256 -182 300 -311 26 -78
29 -187 5 -242 l-16 -38 250 -210 c223 -189 249 -214 249 -241 0 -31 -30 -52
-60 -41 -8 3 -124 97 -257 209 l-242 203 -37 -25 c-78 -53 -182 -67 -289 -40
-88 23 -152 62 -232 141 -83 82 -128 164 -145 266 -13 78 8 172 51 233 31 44
106 100 155 115 55 16 205 6 268 -19z"/>
<path d="M17740 24223 c-184 -97 -127 -384 97 -495 149 -73 310 -24 353 108
18 55 7 150 -24 213 -60 117 -173 192 -301 199 -62 3 -76 0 -125 -25z"/>
<path d="M48094 24533 c3 -10 22 -74 41 -143 20 -69 38 -132 40 -140 8 -28 26
-95 35 -130 5 -19 39 -141 75 -270 37 -129 75 -266 85 -305 10 -38 29 -106 41
-150 12 -44 27 -100 34 -125 l12 -45 1332 -3 1331 -2 -6 25 c-4 14 -86 313
-183 663 l-177 637 -1333 3 c-1266 2 -1332 1 -1327 -15z"/>
<path d="M61909 23925 c-171 -27 -300 -86 -395 -181 -69 -68 -118 -157 -135
-244 l-11 -58 -47 21 c-65 29 -198 35 -277 12 -234 -68 -487 -323 -704 -710
-18 -33 -47 -76 -63 -94 -17 -19 -46 -69 -66 -110 -36 -76 -36 -76 -35 -211 0
-119 3 -145 27 -215 29 -89 104 -241 143 -293 22 -28 28 -31 41 -20 31 25 35
64 34 288 -1 202 1 233 19 290 21 67 95 210 108 210 5 0 19 -19 32 -42 47 -84
200 -275 299 -374 160 -160 316 -262 485 -319 113 -38 118 -31 20 31 -123 77
-233 157 -296 216 l-53 49 61 -30 c111 -54 167 -66 304 -64 69 1 146 6 172 11
l46 9 17 -71 c43 -190 48 -233 38 -297 -8 -49 -7 -75 6 -123 15 -60 15 -61 25
-31 23 66 64 131 96 153 29 20 42 22 87 16 139 -17 258 117 315 355 17 74 19
108 15 241 -5 188 -28 276 -115 450 -31 63 -58 118 -60 123 -2 4 25 7 61 7 50
0 71 5 97 23 43 28 100 133 142 257 27 80 32 110 32 190 0 83 -4 106 -34 184
-38 102 -114 221 -165 260 -105 81 -254 70 -417 -28 -61 -36 -68 -24 -12 19
47 36 133 73 223 95 89 22 62 24 -60 5z"/>
<path d="M17270 22607 c0 -2 180 -815 400 -1807 388 -1752 401 -1807 443
-1895 116 -239 312 -401 574 -477 l78 -23 1505 0 c1433 0 1508 1 1565 18 175
54 291 162 347 326 20 56 23 84 21 191 l-1 125 -394 1770 -394 1770 -2072 3
c-1140 1 -2072 1 -2072 -1z m2544 -1369 c44 -200 81 -369 84 -375 3 -10 100
-13 437 -13 239 0 436 -4 439 -9 6 -9 326 -1445 326 -1461 0 -7 -251 -10 -735
-10 l-735 0 -9 23 c-4 12 -48 201 -96 420 l-88 397 -394 0 c-216 0 -393 3
-393 6 0 4 -67 311 -150 683 -82 372 -150 682 -150 689 0 9 156 12 693 12
l692 0 79 -362z"/>
<path d="M19925 20738 c14 -58 115 -518 115 -523 0 -3 -115 -5 -255 -5 -140 0
-255 -1 -255 -2 12 -76 148 -649 153 -649 8 0 937 1187 937 1197 0 2 -158 4
-350 4 l-350 0 5 -22z"/>
<path d="M20249 20073 c-255 -328 -465 -600 -467 -605 -2 -4 269 -8 603 -8
573 0 606 1 601 18 -3 9 -62 278 -132 597 -70 319 -130 583 -134 588 -3 4
-215 -261 -471 -590z"/>
<path d="M23925 21354 c-387 -43 -723 -155 -950 -317 -153 -108 -241 -222
-251 -325 -18 -165 76 -494 223 -784 148 -294 300 -474 463 -552 60 -29 73
-31 170 -31 229 0 398 102 445 267 13 47 16 93 13 223 -3 153 -2 165 18 192
30 41 77 49 186 34 l92 -13 32 34 c59 65 108 241 146 528 19 142 26 171 51
210 36 59 67 159 67 221 0 139 -123 249 -325 290 -89 18 -303 31 -380 23z"/>
<path d="M26125 15089 c-593 -305 -1138 -511 -1480 -561 l-87 -12 -206 -239
c-114 -132 -508 -586 -877 -1009 -368 -423 -685 -788 -702 -811 -92 -119 -106
-295 -35 -447 28 -61 126 -163 195 -203 142 -83 332 -75 470 20 31 22 726 812
1755 1997 184 211 381 438 663 762 238 272 437 503 502 580 16 19 25 33 20 32
-4 0 -102 -50 -218 -109z"/>
<path d="M61657 15054 c-9 -30 -44 -214 -52 -271 l-7 -52 -31 6 c-18 4 -93 21
-167 39 -74 18 -136 31 -138 30 -4 -5 -21 -161 -36 -341 -29 -341 -39 -679
-33 -1075 8 -538 31 -830 112 -1475 95 -754 120 -1039 112 -1285 -19 -562
-163 -1515 -409 -2695 l-60 -289 -116 -130 c-65 -71 -163 -176 -220 -232 -113
-115 -96 -106 -321 -159 -138 -32 -205 -61 -260 -111 -46 -41 -65 -71 -76
-122 l-7 -32 754 2 753 3 9 75 c14 120 -4 222 -59 332 -37 77 -45 101 -45 149
0 69 33 137 187 389 482 790 854 1648 1007 2325 87 387 99 571 75 1165 l-11
275 41 240 c23 132 44 247 47 255 4 8 22 -43 41 -115 47 -179 331 -1214 794
-2895 215 -778 400 -1450 411 -1493 l21 -77 -59 -88 c-32 -48 -90 -119 -129
-159 l-70 -71 -100 -22 c-307 -66 -406 -126 -439 -263 l-6 -27 752 2 753 3 0
135 c-1 172 -18 233 -114 390 -114 189 -117 219 -62 501 39 199 86 524 108
754 24 254 24 875 0 1095 -42 379 -96 626 -212 980 -117 357 -206 752 -221
980 -4 52 -2 156 5 230 14 173 36 580 56 1025 28 660 76 1997 72 2001 -3 3
-49 -15 -103 -39 -295 -132 -609 -219 -977 -270 -145 -20 -202 -22 -552 -22
-391 1 -447 4 -737 46 l-78 11 -41 65 c-49 79 -139 260 -139 282 0 9 -4 22 -9
30 -7 11 -10 10 -14 -5z"/>
<path d="M20987 4806 c-32 -235 -35 -584 -5 -643 l16 -33 -8553 0 c-6414 0
-8560 -3 -8579 -11 -50 -23 -59 -125 -15 -165 21 -19 705 -19 33649 -19 32944
0 33628 0 33649 19 44 40 35 142 -15 165 -19 8 -5706 11 -22873 11 l-22848 0
-17 45 c-10 24 -33 57 -51 74 -33 29 -52 36 -220 81 -153 40 -290 119 -415
236 l-68 64 -58 -16 c-41 -11 -116 -18 -244 -21 -161 -4 -198 -2 -288 16 -56
12 -125 30 -153 41 -27 11 -51 20 -52 20 -5 0 13 -175 29 -277 14 -93 40 -201
59 -245 7 -17 -26 -18 -618 -18 l-625 0 4 38 c6 46 -19 90 -77 132 -42 30 -62
37 -235 84 -192 52 -374 148 -520 274 l-86 74 -82 -12 c-52 -8 -133 -11 -217
-7 -155 6 -271 34 -404 96 l-83 39 -5 -42z"/>
</g>
</svg>
