<?xml version="1.0" standalone="no"?>
<!DOCTYPE svg PUBLIC "-//W3C//DTD SVG 20010904//EN"
 "http://www.w3.org/TR/2001/REC-SVG-20010904/DTD/svg10.dtd">
<svg version="1.0" xmlns="http://www.w3.org/2000/svg"
 width="5000.000000pt" height="5001.000000pt" viewBox="0 0 5000.000000 5001.000000"
 preserveAspectRatio="xMidYMid meet">

<g transform="translate(0.000000,5001.000000) scale(0.100000,-0.100000)"
fill="#000000" stroke="none">
<path d="M33185 47403 c-27 -2 -156 -12 -285 -23 -129 -11 -345 -27 -480 -35
-442 -27 -603 -48 -895 -120 -992 -242 -2011 -668 -3355 -1403 -146 -80 -371
-202 -500 -272 -703 -380 -1192 -735 -1620 -1176 -451 -465 -755 -902 -1430
-2054 -390 -666 -637 -1020 -982 -1405 -257 -287 -509 -507 -798 -697 -211
-139 -568 -313 -780 -381 -191 -62 -259 -112 -231 -173 13 -30 17 -30 142 4
112 30 292 58 584 92 316 36 346 41 527 85 370 89 729 158 1393 270 1098 185
1094 184 1780 381 816 235 1153 295 1580 281 419 -15 799 -88 1640 -317 264
-72 353 -94 522 -134 405 -95 1099 -186 1738 -228 218 -14 2114 -18 2510 -5
241 8 564 23 685 32 36 2 110 7 165 10 480 29 1138 131 1555 241 743 196 1281
483 1697 905 130 131 305 347 406 499 430 650 461 1506 85 2400 -266 631 -755
1276 -1333 1755 -824 683 -1954 1169 -3285 1410 -307 56 -411 65 -715 63 -148
-1 -292 -3 -320 -5z m560 -243 c653 -43 1314 -201 1905 -455 519 -224 739
-329 990 -473 635 -364 1072 -750 1502 -1325 412 -552 664 -1134 729 -1687 14
-123 14 -390 0 -505 -30 -238 -86 -426 -191 -641 -240 -493 -654 -876 -1289
-1193 -444 -223 -1193 -399 -2011 -475 -559 -52 -1093 -67 -2455 -69 -782 -1
-1045 6 -1445 38 -102 8 -250 19 -330 25 -413 31 -705 89 -1610 315 -544 136
-754 184 -1005 230 -377 68 -725 95 -978 76 -367 -27 -630 -83 -1332 -286
-501 -144 -668 -186 -990 -245 -1231 -225 -1590 -300 -1920 -399 -270 -81
-412 -117 -525 -135 -128 -20 -160 -24 -160 -17 0 3 44 29 97 56 436 225 896
650 1435 1325 141 177 332 476 713 1115 636 1066 911 1452 1345 1885 317 318
530 473 1185 865 765 458 1560 867 2388 1229 305 134 947 358 1372 479 492
141 956 220 1330 226 61 1 166 8 235 16 280 34 720 44 1015 25z"/>
<path d="M18320 43413 c-294 -13 -609 -71 -830 -153 -176 -65 -426 -211 -605
-355 -233 -186 -467 -463 -640 -758 -108 -185 -263 -541 -290 -664 -3 -18 -10
-35 -13 -37 -4 -2 -225 -6 -492 -10 -466 -6 -724 -11 -1100 -21 -96 -3 -299
-7 -450 -10 -151 -3 -324 -7 -385 -10 -60 -3 -195 -7 -300 -10 -104 -3 -253
-7 -330 -10 -77 -3 -223 -7 -325 -10 -102 -3 -207 -8 -235 -10 -86 -7 -507
-15 -1120 -20 -324 -3 -612 -7 -640 -10 -27 -2 -171 -6 -320 -10 -148 -3 -299
-8 -335 -10 -36 -2 -128 -7 -205 -10 -221 -9 -357 -15 -545 -25 -96 -6 -301
-17 -455 -25 -383 -21 -1090 -64 -1145 -69 -50 -5 -243 -13 -540 -21 -1078
-31 -2280 -147 -3110 -301 -336 -62 -522 -120 -667 -205 -133 -79 -256 -235
-298 -382 -9 -31 -27 -84 -41 -117 -13 -33 -24 -80 -24 -106 0 -25 -8 -74 -17
-108 -12 -43 -17 -102 -17 -206 0 -163 18 -268 80 -470 19 -63 57 -194 85
-290 147 -510 408 -1202 790 -2088 391 -908 670 -1600 1209 -2997 161 -418
269 -721 450 -1260 565 -1689 964 -2827 1185 -3387 4 -10 14 -18 22 -18 11 0
13 -6 8 -22 -15 -51 -16 -193 -2 -334 8 -82 15 -192 14 -245 -1 -89 1 -100 31
-162 54 -109 130 -155 360 -218 81 -22 239 -69 352 -104 113 -35 414 -125 670
-200 834 -245 1579 -487 2525 -822 209 -74 610 -216 890 -315 1132 -401 2033
-686 2713 -858 163 -41 183 -43 228 -13 14 8 63 15 140 18 140 5 303 13 394
20 36 2 110 7 165 10 486 27 1452 106 2760 225 591 54 1342 110 1870 140 198
11 443 27 545 35 102 8 266 19 365 25 99 6 209 12 245 15 61 4 135 7 480 20
74 3 176 8 225 10 50 2 194 7 320 10 127 3 354 10 505 15 151 5 361 12 465 15
185 6 518 20 720 30 186 10 418 25 980 65 1156 82 1278 90 1675 109 113 6 255
13 315 16 218 11 651 35 715 40 36 3 144 10 240 15 96 6 204 13 240 15 36 3
198 14 360 25 688 48 1386 107 1925 165 155 16 479 31 890 40 149 3 344 10
435 15 151 10 461 44 492 55 7 2 67 11 134 20 152 19 220 37 312 80 93 44 170
116 216 204 62 119 129 386 145 578 5 60 14 126 21 149 17 59 -4 104 -67 143
-26 17 -57 31 -68 31 -11 0 -101 20 -200 45 -279 69 -581 126 -1205 229 -316
53 -654 111 -750 130 -96 20 -281 51 -410 70 -296 45 -682 105 -960 150 -1651
269 -2586 392 -3330 441 -308 19 -401 25 -528 30 -78 4 -154 10 -169 14 -36 9
-119 -4 -149 -24 -16 -10 -24 -25 -24 -45 0 -50 58 -80 198 -101 265 -42 465
-64 972 -109 374 -34 471 -43 645 -65 299 -38 805 -123 1895 -320 478 -86 913
-159 1290 -215 80 -12 273 -46 430 -75 157 -30 368 -68 470 -85 426 -72 853
-149 858 -154 3 -3 -42 -6 -99 -7 -57 0 -126 -2 -154 -4 -27 -2 -133 -6 -235
-10 -187 -6 -606 -32 -978 -60 -509 -38 -824 -57 -1177 -70 -82 -3 -179 -8
-215 -10 -36 -2 -135 -7 -220 -10 -85 -3 -184 -8 -220 -10 -130 -11 -1101 -54
-1325 -60 -285 -7 -451 -18 -865 -55 -179 -17 -350 -30 -381 -30 -71 0 -144
-22 -178 -53 -25 -24 -33 -25 -271 -36 -135 -7 -263 -14 -285 -16 -22 -2 -114
-7 -205 -10 -91 -3 -255 -10 -365 -15 -110 -6 -317 -14 -460 -20 -143 -6 -285
-12 -315 -15 -30 -2 -120 -7 -200 -10 -165 -7 -774 -43 -835 -50 -22 -2 -80
-7 -130 -10 -99 -7 -329 -28 -820 -74 -778 -74 -1547 -137 -2185 -181 -162
-11 -360 -24 -440 -30 -80 -5 -230 -14 -335 -20 -104 -5 -219 -12 -255 -15
-36 -2 -121 -7 -190 -10 -451 -21 -1305 -83 -1920 -140 -421 -39 -857 -83
-1005 -100 -66 -8 -210 -19 -320 -25 -226 -12 -391 -33 -479 -61 l-61 -18
-550 155 c-302 86 -644 184 -760 219 -330 99 -793 242 -875 270 -221 76 -487
151 -1085 304 -498 127 -630 169 -1435 453 -929 327 -1296 445 -1705 543 -423
102 -517 127 -682 176 -95 29 -173 55 -173 59 0 3 114 12 253 19 138 6 284 14
322 17 39 2 252 16 475 29 223 14 425 27 450 29 25 3 90 8 145 11 99 6 520 36
770 55 222 17 1028 79 1495 115 245 19 506 39 580 45 74 5 225 16 335 25 504
37 777 54 803 49 81 -16 192 60 192 131 0 28 -7 44 -31 66 -17 16 -39 30 -48
30 -25 3 -13 3 -596 -26 -571 -29 -1296 -82 -2590 -190 -2047 -171 -2792 -217
-2942 -184 -65 14 -88 36 -107 100 -9 30 -41 122 -70 204 -111 304 -182 508
-355 1023 -98 290 -218 640 -266 777 -48 138 -194 567 -325 955 -446 1323
-600 1754 -822 2310 -49 124 -126 322 -170 440 -148 398 -264 681 -623 1525
-260 611 -390 932 -605 1490 -185 479 -262 695 -314 880 -21 72 -55 189 -77
260 -70 232 -83 310 -83 495 1 182 14 257 74 420 21 57 30 100 28 129 -2 42 0
45 52 87 76 61 187 117 305 153 123 37 213 54 475 86 113 14 243 32 290 40
343 58 899 122 1340 155 80 5 170 12 200 15 30 2 98 7 150 10 52 3 136 8 185
10 50 3 119 8 155 10 36 2 124 7 195 10 72 3 175 7 230 10 237 11 328 15 450
20 293 12 968 44 1040 50 33 2 110 7 170 10 110 6 150 8 675 44 157 11 404 23
550 26 146 3 290 8 320 10 30 2 197 6 370 10 173 3 380 7 460 10 175 6 513 13
905 20 578 10 844 15 1045 20 113 3 390 7 615 10 226 3 644 10 930 15 286 5
662 12 835 15 173 3 420 8 548 11 193 5 232 4 232 -7 0 -8 -7 -51 -17 -95
l-17 -81 -85 -6 c-378 -27 -732 -46 -966 -52 -211 -5 -407 -11 -650 -20 -71
-3 -206 -7 -300 -10 -825 -27 -1634 -74 -2485 -146 -306 -25 -344 -28 -540
-34 -1111 -38 -2018 -85 -2650 -140 -91 -7 -230 -16 -310 -20 -721 -29 -2063
-161 -2985 -295 -71 -10 -218 -28 -325 -40 -487 -52 -725 -101 -935 -191 -112
-48 -136 -72 -142 -136 -3 -41 0 -55 25 -92 26 -37 29 -47 20 -77 -12 -47 5
-165 52 -349 34 -136 65 -240 174 -597 20 -64 45 -156 57 -205 11 -48 54 -196
94 -328 292 -945 657 -1933 1175 -3175 280 -671 600 -1543 1162 -3165 414
-1196 720 -2050 745 -2077 20 -22 80 -24 111 -2 12 8 27 12 32 9 10 -6 178 3
460 25 69 5 249 19 400 30 233 18 650 50 1730 135 102 8 361 28 575 45 215 16
408 32 430 34 37 5 130 8 605 21 102 3 230 7 285 10 55 3 159 7 230 10 233 11
635 48 656 60 3 3 77 7 165 11 190 8 248 23 281 73 27 40 29 68 7 99 -27 39
-52 42 -175 21 -63 -11 -121 -21 -129 -24 -31 -9 -393 -45 -595 -59 -202 -14
-306 -20 -590 -31 -71 -3 -179 -7 -240 -10 -60 -3 -184 -7 -275 -10 -91 -4
-284 -17 -430 -30 -456 -42 -814 -73 -1100 -95 -74 -6 -216 -17 -315 -25 -99
-8 -387 -30 -640 -50 -536 -41 -1029 -81 -1174 -95 -92 -9 -106 -8 -139 9 -36
19 -39 26 -111 223 -41 111 -109 307 -152 433 -42 127 -105 304 -139 394 -62
167 -163 452 -375 1061 -64 184 -164 470 -222 635 -356 1023 -516 1442 -1201
3156 -237 592 -436 1095 -442 1119 -6 24 -88 264 -182 534 -209 603 -304 890
-364 1094 -42 144 -70 233 -224 707 -29 88 -58 181 -65 207 -13 47 -13 48 13
60 30 15 45 68 19 68 -16 0 -34 40 -61 128 l-15 53 37 16 c89 37 441 116 747
167 254 43 355 56 1255 166 184 22 423 54 530 71 107 16 249 34 315 39 130 11
804 60 1160 85 557 38 816 57 1090 80 94 8 310 19 480 25 456 14 610 20 705
25 47 3 135 7 195 10 557 28 1010 55 1650 100 752 53 749 53 1100 60 143 3
314 8 380 10 130 5 341 12 640 20 217 6 433 13 585 20 58 3 182 7 275 10 167
5 290 11 470 20 269 14 577 26 581 22 3 -2 0 -56 -6 -118 -14 -146 -14 -481 0
-595 28 -238 90 -441 206 -674 125 -253 280 -464 516 -705 75 -77 136 -140
135 -140 -1 -1 -27 -12 -57 -24 -369 -155 -607 -368 -675 -605 -23 -78 -16
-203 14 -270 51 -117 158 -211 291 -258 86 -30 299 -32 400 -4 196 54 430 211
580 390 30 36 59 66 63 66 26 0 -42 -883 -74 -966 -5 -14 -10 -55 -10 -91 -1
-53 3 -68 20 -87 39 -42 78 -228 206 -996 124 -746 170 -984 267 -1385 22 -93
44 -174 48 -178 30 -33 150 92 320 332 120 170 558 657 1042 1159 118 122 148
147 148 123 0 -24 133 -136 251 -212 147 -95 487 -336 723 -514 296 -223 341
-256 438 -321 64 -43 105 -64 119 -62 71 10 94 211 69 578 -19 265 -78 730
-120 946 -35 178 -180 594 -286 823 -71 153 -187 359 -209 371 -21 12 -59 96
-132 300 -65 178 -200 590 -208 631 l-6 35 183 23 c391 48 592 110 632 196 14
30 44 339 68 715 17 263 17 1245 0 1485 -64 897 -192 1501 -386 1817 -240 393
-785 659 -1521 742 -129 15 -420 25 -545 19z m417 -238 c10 -28 60 -45 158
-55 103 -11 129 -19 145 -50 8 -15 5 -24 -12 -45 l-23 -26 -100 21 c-171 35
-238 79 -221 144 7 29 43 36 53 11z m11 -259 c29 -8 99 -18 155 -21 56 -4 109
-11 118 -16 25 -13 29 -46 10 -71 -21 -26 -70 -26 -183 -3 -176 37 -248 74
-223 115 9 14 61 12 123 -4z m-152 -205 c10 -10 188 -31 267 -31 70 0 101 -17
105 -57 3 -25 -2 -35 -22 -49 -25 -15 -33 -15 -157 10 -142 29 -236 61 -252
88 -20 31 31 65 59 39z m1802 -408 c201 -768 285 -1627 254 -2604 -12 -383
-48 -979 -60 -990 -7 -7 -158 -45 -307 -78 -120 -26 -357 -61 -421 -61 -62 0
-114 -31 -127 -76 -16 -54 216 -795 312 -999 l47 -100 -40 -71 c-63 -110 -119
-193 -270 -404 -76 -107 -153 -217 -170 -245 -16 -27 -98 -143 -180 -257 -83
-114 -175 -247 -203 -295 -29 -49 -56 -94 -60 -101 -13 -21 -553 261 -788 413
-564 363 -760 465 -975 510 -45 9 -55 15 -53 31 1 10 9 64 17 119 9 55 23 174
31 265 9 91 25 219 36 285 12 77 23 220 30 400 13 328 12 344 -5 387 -8 19
-16 96 -20 183 -9 190 -20 248 -55 287 l-28 31 -119 -12 c-169 -17 -254 2
-282 65 -28 60 -13 111 108 364 49 102 96 209 104 239 l16 54 -57 101 c-78
142 -172 298 -271 454 l-84 132 17 43 c49 123 171 304 409 606 89 113 197 252
239 308 299 396 475 770 513 1088 3 33 8 63 10 66 2 4 39 -4 81 -17 92 -28
285 -67 433 -86 153 -19 629 -16 845 6 131 13 725 83 930 109 17 2 46 5 66 6
l36 1 41 -157z m-3588 -13 c29 -54 -107 -387 -198 -483 -47 -50 -92 -56 -92
-12 0 39 14 64 100 185 98 138 128 195 137 258 9 69 32 92 53 52z m228 -84 c7
-88 -106 -353 -187 -437 -52 -53 -83 -62 -102 -28 -18 34 3 85 85 208 46 69
81 132 91 168 30 102 53 135 90 131 15 -2 21 -12 23 -42z m263 -93 c-23 -102
-72 -246 -108 -316 -54 -103 -117 -145 -143 -96 -19 34 -2 74 84 203 68 100
86 136 101 195 20 85 39 111 63 87 13 -13 14 -23 3 -73z m-497 -3802 c-1 -41
-5 -48 -55 -89 -100 -84 -187 -180 -201 -224 -14 -46 -55 -82 -80 -73 -24 9
-38 59 -28 95 13 45 89 146 167 221 85 83 141 120 173 117 23 -3 25 -7 24 -47z
m184 -43 c25 -25 12 -63 -40 -128 -29 -36 -73 -99 -98 -140 -49 -81 -79 -99
-100 -60 -9 17 -8 33 5 73 19 57 31 76 119 189 61 78 87 93 114 66z m126 -134
c25 -24 19 -57 -22 -120 -21 -33 -46 -71 -55 -86 -21 -33 -42 -36 -57 -8 -9
17 -5 36 20 98 17 42 36 84 43 93 9 12 44 37 54 39 1 0 9 -7 17 -16z m3166
-1059 c105 -211 248 -581 295 -760 82 -316 123 -638 150 -1180 3 -60 8 -136
11 -167 3 -32 2 -58 -2 -58 -3 0 -157 114 -343 253 -387 291 -525 389 -816
585 -115 77 -224 155 -241 174 l-31 33 254 375 c139 206 262 391 272 410 11
19 78 118 150 219 72 101 146 208 164 237 l32 54 22 -28 c13 -15 50 -81 83
-147z m-2775 -360 c116 -41 266 -122 645 -346 430 -253 699 -395 890 -469 19
-7 37 -15 39 -16 9 -7 -235 -282 -409 -459 -215 -219 -369 -390 -560 -621
-141 -170 -263 -320 -283 -348 -12 -17 -16 -6 -31 95 -24 159 -81 443 -115
574 -35 131 -58 254 -106 550 -32 198 -70 412 -95 535 -70 338 -95 441 -135
542 -8 20 10 16 160 -37z m-10410 -7693 c327 -116 643 -208 1575 -458 118 -31
285 -83 370 -115 85 -31 337 -124 560 -207 448 -166 760 -274 1010 -350 171
-52 283 -82 751 -201 450 -114 571 -149 899 -256 422 -138 1064 -331 1630
-489 190 -53 417 -121 505 -151 88 -30 171 -55 183 -55 17 0 27 8 35 30 6 17
18 30 27 30 8 0 92 7 185 15 204 18 402 35 875 75 195 17 380 32 410 35 30 3
168 14 305 25 138 11 304 24 370 30 251 20 515 41 970 75 259 19 529 39 600
45 72 5 198 15 280 20 83 6 247 17 365 26 277 19 585 39 985 64 176 11 381 27
455 35 120 13 328 33 660 65 286 27 1019 83 1375 105 50 3 119 8 155 10 62 5
176 12 570 35 96 5 261 14 365 20 105 5 231 12 280 15 50 3 304 17 565 31 831
43 1033 54 1115 59 44 3 195 12 335 20 261 15 327 26 385 65 24 16 47 20 110
20 79 0 545 25 1010 54 132 9 353 22 490 31 138 8 282 17 320 20 39 3 165 9
280 15 116 6 235 13 265 15 51 4 399 17 845 30 194 6 275 10 515 25 85 5 279
17 430 25 151 8 309 17 350 20 347 22 1070 24 1430 4 202 -12 190 -6 190 -84
0 -75 -30 -241 -61 -334 -18 -52 -34 -78 -79 -122 -68 -69 -133 -92 -310 -115
-63 -8 -140 -18 -170 -24 -102 -18 -344 -39 -520 -45 -96 -3 -231 -8 -300 -10
-69 -2 -222 -5 -340 -6 -243 -2 -382 -10 -620 -33 -405 -39 -1032 -88 -1660
-131 -632 -42 -669 -45 -865 -55 -104 -6 -215 -12 -245 -15 -30 -2 -111 -7
-180 -10 -69 -3 -195 -10 -280 -15 -85 -5 -209 -12 -275 -15 -289 -13 -684
-35 -730 -40 -27 -3 -162 -12 -300 -20 -137 -8 -284 -17 -325 -20 -98 -7 -551
-32 -810 -45 -113 -5 -239 -12 -280 -15 -41 -3 -183 -9 -315 -15 -132 -5 -274
-12 -315 -15 -41 -3 -138 -7 -215 -10 -77 -3 -180 -7 -230 -10 -109 -6 -257
-13 -425 -20 -767 -33 -1037 -45 -1105 -50 -44 -2 -145 -7 -225 -10 -80 -3
-176 -7 -215 -10 -77 -5 -177 -10 -485 -25 -113 -6 -232 -12 -265 -15 -33 -2
-114 -7 -180 -10 -117 -6 -514 -29 -665 -40 -41 -3 -178 -12 -303 -20 -635
-42 -1855 -147 -1987 -170 -28 -5 -240 -21 -395 -30 -333 -20 -659 -49 -1580
-140 -687 -69 -743 -69 -961 -16 -338 84 -1030 292 -1599 480 -403 133 -826
282 -1537 542 -1065 389 -1798 644 -2280 794 -115 36 -301 94 -415 130 -115
35 -365 107 -558 160 -429 118 -607 172 -794 241 -79 30 -145 55 -147 56 -1 2
-10 64 -18 138 -9 74 -23 186 -31 248 -21 159 -21 156 13 139 15 -8 104 -42
197 -75z"/>
<path d="M20073 42009 c-258 -25 -427 -83 -613 -210 -226 -154 -400 -360 -400
-471 0 -123 99 -139 156 -25 88 174 260 335 473 442 153 77 390 140 604 161
59 6 70 10 80 31 16 36 -15 61 -88 73 -67 11 -93 11 -212 -1z"/>
<path d="M20066 41688 c-2 -7 -7 -36 -10 -64 -2 -29 -15 -85 -28 -126 l-23
-75 -65 -17 c-222 -58 -406 -228 -459 -423 -27 -102 -27 -157 -1 -183 29 -29
55 -37 167 -51 298 -37 622 119 739 357 37 74 39 84 44 193 8 207 2 363 -15
380 -12 12 -19 13 -33 5 -13 -9 -17 -27 -18 -83 -1 -76 -30 -191 -48 -191 -47
1 -51 8 -53 98 -2 90 -20 173 -39 179 -13 4 -24 -41 -25 -101 0 -22 -8 -66
-17 -96 -16 -49 -21 -55 -47 -58 l-30 -3 0 133 c0 118 -2 133 -18 136 -9 2
-19 -2 -21 -10z m242 -373 c61 -18 61 -18 12 -121 -19 -40 -52 -82 -95 -123
-36 -35 -68 -61 -71 -59 -2 3 0 25 5 49 19 85 -19 183 -83 213 -46 22 -118 20
-164 -3 -54 -28 -82 -83 -82 -162 0 -79 28 -134 84 -166 l40 -21 -35 -6 c-119
-18 -317 -16 -349 4 -24 15 57 148 140 230 100 101 210 157 360 184 46 8 184
-3 238 -19z"/>
<path d="M18157 41084 c-248 -60 -532 -303 -666 -571 -35 -72 -45 -120 -30
-161 20 -57 44 -42 88 51 113 243 396 463 672 522 43 10 119 16 181 16 138 -1
173 15 160 70 -5 21 -62 53 -131 73 -66 19 -194 20 -274 0z"/>
<path d="M19110 40851 c-27 -52 -7 -112 92 -278 126 -209 292 -360 562 -510
48 -27 89 -53 89 -58 0 -6 -20 -21 -44 -35 -56 -31 -140 -32 -292 -2 -152 31
-173 30 -197 -10 -11 -18 -20 -41 -20 -51 0 -26 43 -62 91 -76 63 -19 255 -31
324 -19 138 22 255 108 255 187 0 62 -14 81 -112 151 -316 225 -529 436 -644
636 -49 87 -81 107 -104 65z"/>
<path d="M20471 40806 c-7 -8 -10 -19 -7 -25 3 -5 -1 -72 -11 -150 -13 -114
-14 -143 -3 -156 30 -36 109 3 96 48 -8 26 -24 171 -28 242 -3 53 -23 70 -47
41z"/>
<path d="M20307 40672 c-9 -10 -25 -70 -38 -140 l-23 -123 21 -20 c23 -24 59
-19 67 9 3 10 8 71 11 137 6 153 -1 178 -38 137z"/>
<path d="M20088 40553 c-7 -16 -14 -87 -16 -159 -3 -110 -1 -132 13 -144 12
-10 21 -10 40 -2 28 13 40 61 32 124 -3 22 -1 68 4 100 8 50 7 65 -6 84 -21
33 -53 31 -67 -3z"/>
<path d="M18427 40554 c-153 -27 -286 -86 -394 -173 -70 -56 -128 -71 -281
-71 -155 0 -125 -32 50 -53 54 -6 98 -14 98 -17 0 -3 -10 -17 -23 -32 -21 -26
-28 -28 -177 -40 -146 -12 -155 -14 -158 -34 -4 -27 10 -30 156 -40 81 -5 112
-10 112 -19 0 -20 -164 -55 -253 -55 -42 0 -78 -4 -82 -9 -12 -21 38 -31 177
-37 115 -5 145 -9 153 -22 42 -67 96 -85 250 -84 134 1 235 25 354 83 98 48
208 147 260 233 57 95 89 254 67 326 -18 54 -31 60 -135 59 -53 0 -131 -7
-174 -15z m209 -136 c-9 -67 -52 -160 -101 -215 -39 -45 -66 -59 -41 -20 22
32 29 97 17 143 -11 42 -47 82 -96 107 l-30 15 25 6 c14 3 34 7 45 9 11 3 58
5 104 6 l84 1 -7 -52z m-406 -60 c-27 -59 -26 -126 3 -169 31 -46 91 -79 147
-79 l45 -1 -45 -24 c-68 -37 -162 -64 -261 -75 -74 -8 -100 -7 -155 6 -36 9
-68 22 -70 29 -13 32 104 188 189 254 42 32 152 100 164 101 1 0 -7 -19 -17
-42z"/>
<path d="M18773 39898 c-10 -16 -9 -11 -17 -159 -8 -139 -1 -159 50 -159 40 0
47 36 36 181 -5 70 -13 132 -16 138 -10 15 -43 14 -53 -1z"/>
<path d="M18552 39735 c-12 -26 -32 -172 -32 -232 0 -38 31 -76 55 -67 24 9
47 62 41 92 -3 15 -8 56 -11 92 -8 77 -23 140 -34 140 -4 0 -13 -11 -19 -25z"/>
<path d="M18361 39622 c-35 -66 -40 -303 -7 -328 21 -15 42 -9 51 14 11 28 5
305 -7 319 -14 18 -26 16 -37 -5z"/>
<path d="M19903 39485 c-89 -40 -210 -92 -270 -114 -134 -51 -163 -77 -163
-152 0 -82 39 -134 139 -183 75 -37 134 -49 221 -44 190 11 341 147 356 321 7
78 -10 184 -34 217 -32 43 -70 36 -249 -45z m182 -108 c10 -77 -8 -130 -62
-188 -62 -67 -135 -94 -208 -79 -65 14 -151 65 -176 106 l-19 32 78 31 c44 18
140 59 213 91 74 32 142 59 151 59 13 1 18 -11 23 -52z"/>
<path d="M21564 42807 c-113 -67 -378 -386 -475 -572 -42 -83 -52 -139 -21
-133 10 2 36 39 62 88 40 77 66 106 260 300 224 223 268 281 240 315 -15 18
-37 19 -66 2z"/>
<path d="M21825 41926 c-39 -17 -130 -89 -220 -175 -84 -81 -169 -152 -250
-211 -87 -64 -172 -147 -180 -177 -7 -29 17 -63 45 -63 41 0 184 107 440 328
91 79 181 152 201 162 89 46 120 97 83 134 -19 19 -78 20 -119 2z"/>
<path d="M22318 41316 c-53 -25 -183 -79 -290 -121 -317 -126 -478 -217 -478
-271 0 -14 6 -24 14 -24 30 0 308 102 747 275 151 59 169 72 169 125 0 22 -33
60 -52 60 -7 0 -56 -20 -110 -44z"/>
<path d="M24795 38995 c-23 -8 -59 -34 -86 -63 -154 -166 -227 -503 -294
-1347 -14 -176 -31 -385 -40 -465 -36 -357 -53 -704 -50 -1025 1 -227 13 -311
43 -323 21 -8 70 50 76 90 2 18 21 224 41 458 62 720 115 1290 130 1404 9 60
22 217 30 350 17 265 26 340 55 460 34 136 139 331 164 306 17 -17 10 -207
-15 -460 -29 -289 -31 -515 -6 -553 12 -18 22 -24 35 -20 30 11 62 46 62 68 0
37 37 132 70 180 35 51 78 78 118 73 26 -3 27 -5 24 -53 -1 -27 -11 -94 -22
-147 -26 -127 -26 -192 0 -218 22 -22 51 -26 80 -10 10 5 51 53 90 105 77 103
153 162 171 134 15 -21 3 -91 -36 -210 -40 -125 -43 -161 -15 -189 41 -41 65
-24 153 113 47 73 94 99 135 76 15 -8 33 -28 41 -44 20 -40 2 -124 -60 -292
-58 -156 -56 -151 -108 -443 -79 -447 -117 -698 -146 -977 -8 -82 -23 -175
-31 -208 -35 -130 -27 -192 27 -220 41 -22 62 -19 91 13 34 36 46 84 54 212
22 392 190 1396 272 1630 23 64 27 92 27 185 0 131 -18 195 -71 246 -30 29
-42 34 -82 33 -27 0 -65 -10 -89 -22 -23 -12 -44 -22 -46 -22 -2 0 -1 21 3 47
31 205 -122 283 -274 140 -21 -21 -40 -37 -40 -37 -1 0 0 28 2 63 5 83 -12
143 -53 184 -28 28 -40 33 -79 33 -60 0 -114 -28 -160 -81 l-36 -43 0 67 c0
36 9 146 21 244 35 297 16 497 -51 544 -36 25 -79 30 -125 14z"/>
<path d="M12109 36507 c-53 -35 -73 -86 -77 -197 -1 -52 4 -135 11 -185 8 -49
13 -92 11 -94 -7 -8 -33 32 -65 99 -64 132 -165 272 -229 314 -61 40 -87 41
-122 6 l-31 -31 5 -107 c5 -100 15 -144 65 -291 3 -9 -31 24 -77 72 -87 92
-113 111 -172 122 -45 9 -101 -16 -117 -51 -14 -31 -14 -87 -1 -135 5 -19 49
-98 96 -175 71 -114 124 -212 124 -229 0 -2 -30 17 -67 41 -90 59 -191 91
-242 76 -43 -14 -73 -58 -75 -112 -1 -48 42 -118 157 -258 87 -105 138 -183
152 -232 4 -14 34 -86 65 -161 97 -225 165 -441 275 -874 31 -121 76 -290 101
-375 24 -85 49 -172 54 -192 8 -27 16 -38 30 -38 57 0 66 115 25 333 -29 156
-165 704 -226 907 -113 378 -240 613 -436 808 -57 56 -103 105 -103 107 0 14
80 2 110 -15 19 -12 92 -80 161 -152 111 -114 129 -129 150 -123 102 30 67
153 -138 480 -115 184 -143 236 -143 265 0 28 20 25 68 -10 50 -36 98 -100
148 -195 80 -152 147 -256 175 -270 37 -20 51 -19 83 6 37 29 34 59 -25 250
-79 252 -118 390 -125 439 l-6 45 35 -34 c43 -41 89 -125 152 -281 111 -272
158 -321 240 -255 l30 25 2 187 c1 104 2 223 2 266 1 126 11 112 108 -163 30
-85 76 -218 103 -295 174 -503 345 -927 564 -1395 115 -245 106 -229 138 -253
48 -36 107 -1 130 77 11 35 10 43 -11 80 -38 68 -225 482 -366 811 -74 171
-146 337 -160 370 -15 33 -69 170 -120 305 -164 432 -236 586 -311 666 -47 51
-74 55 -125 21z"/>
<path d="M26037 35209 c-43 -33 -50 -82 -52 -359 0 -140 -5 -292 -9 -337 l-9
-82 32 -31 c36 -37 61 -34 103 10 49 52 53 90 34 345 -8 127 -18 268 -20 315
-3 78 -27 160 -47 160 -3 0 -18 -9 -32 -21z"/>
<path d="M26342 34713 c-36 -32 -44 -82 -52 -308 -4 -121 -15 -268 -24 -326
-20 -128 -11 -175 40 -195 27 -11 36 -10 65 5 18 10 42 35 53 57 20 37 21 54
19 366 -1 339 -7 389 -43 408 -26 14 -35 13 -58 -7z"/>
<path d="M26805 34038 c-29 -181 -68 -347 -113 -482 -33 -100 -35 -111 -21
-135 21 -37 70 -41 103 -8 31 31 43 77 50 192 4 50 14 165 23 257 13 130 14
173 5 192 -18 40 -39 32 -47 -16z"/>
<path d="M12365 29276 c-153 -35 -245 -103 -245 -182 0 -38 63 -96 130 -121
124 -46 265 -38 387 22 145 71 195 205 76 205 -22 0 -36 6 -42 19 -30 55 -187
84 -306 57z m240 -117 c5 -5 17 -9 28 -9 33 0 14 -33 -34 -57 -37 -19 -62 -24
-135 -25 -90 -1 -201 23 -189 42 10 16 120 52 180 58 69 8 136 4 150 -9z"/>
<path d="M11087 29190 c-55 -14 -108 -44 -142 -80 -25 -26 -30 -40 -30 -80 0
-43 4 -54 39 -89 49 -50 144 -93 217 -99 109 -8 277 56 349 134 61 67 65 116
12 175 -37 41 -107 52 -136 21 l-18 -21 -50 20 c-59 23 -185 33 -241 19z m288
-137 l40 -9 -25 -16 c-52 -35 -104 -49 -176 -50 -61 -1 -79 3 -118 26 -51 30
-51 41 -3 55 37 11 222 7 282 -6z"/>
<path d="M10060 29069 c-105 -15 -206 -63 -254 -120 -33 -38 -36 -104 -7 -141
53 -66 253 -134 375 -126 223 15 404 250 251 326 -40 20 -202 61 -255 65 -30
3 -80 1 -110 -4z m148 -105 c46 -6 52 -9 52 -30 0 -24 25 -56 51 -67 11 -4 10
-9 -6 -21 -43 -36 -147 -46 -247 -25 -55 11 -148 56 -148 70 0 14 57 39 133
59 82 21 92 22 165 14z"/>
<path d="M26105 28810 c-144 -46 -209 -170 -121 -234 59 -44 94 -51 236 -51
120 0 141 3 185 23 28 13 62 35 77 49 58 55 61 142 6 188 -26 22 -39 26 -97
25 -36 -1 -84 4 -106 9 -58 15 -112 12 -180 -9z m203 -106 c46 -13 23 -32 -47
-39 -72 -7 -151 1 -151 15 0 20 145 38 198 24z"/>
<path d="M27302 28779 c-90 -11 -128 -26 -157 -60 -49 -59 -21 -137 72 -198
130 -86 301 -81 398 13 38 36 45 49 45 81 0 82 -80 146 -206 165 -38 5 -73 9
-79 9 -5 -1 -38 -5 -73 -10z m180 -95 c45 -6 46 -7 51 -48 4 -26 1 -44 -6 -49
-24 -17 -152 0 -205 27 -81 41 -79 50 14 66 65 10 93 11 146 4z"/>
<path d="M12452 28658 c-103 -15 -231 -104 -248 -173 -27 -108 98 -197 276
-198 167 0 338 73 385 164 20 37 19 119 -1 147 -30 44 -101 65 -144 42 -12 -6
-31 -5 -61 5 -56 17 -140 23 -207 13z m240 -122 c11 -14 26 -26 33 -26 66 0
-75 -82 -171 -99 -73 -13 -140 -2 -198 33 l-39 23 35 26 c72 55 147 77 247 73
67 -3 76 -6 93 -30z"/>
<path d="M11290 28547 c-142 -33 -213 -111 -175 -190 22 -47 77 -83 172 -114
70 -23 89 -25 188 -20 208 10 323 70 332 173 10 115 -102 200 -192 146 -27
-17 -35 -17 -74 -5 -66 19 -188 24 -251 10z m281 -103 c57 -17 109 -43 109
-55 0 -4 -24 -16 -52 -26 -41 -14 -83 -18 -178 -18 -115 0 -129 2 -169 25 -25
14 -46 30 -48 36 -3 10 58 33 122 47 48 11 166 6 216 -9z"/>
<path d="M13102 28090 c-64 -14 -142 -60 -174 -104 -64 -89 -16 -175 123 -217
57 -17 87 -20 157 -16 136 8 202 36 250 107 20 30 23 44 20 94 -4 53 -8 62
-41 92 -37 34 -77 43 -106 25 -8 -5 -26 -4 -47 5 -44 18 -129 25 -182 14z
m168 -107 c13 3 32 -6 57 -29 l36 -34 -49 -22 c-66 -29 -161 -30 -226 0 -27
11 -48 26 -48 32 0 26 174 76 197 57 7 -5 22 -7 33 -4z"/>
<path d="M27463 23755 c-203 -45 -352 -237 -326 -420 l6 -44 -43 20 c-104 50
-313 66 -460 35 -152 -33 -278 -115 -321 -209 -23 -52 -25 -148 -4 -207 8 -23
15 -46 15 -51 0 -5 -33 -6 -72 -3 -87 7 -198 -14 -275 -52 -112 -54 -193 -172
-212 -306 -22 -159 32 -324 158 -481 169 -209 344 -308 634 -357 138 -23 398
-29 657 -15 l132 8 -16 -31 c-35 -67 -57 -202 -71 -429 -8 -124 -15 -226 -17
-227 -2 -1 -30 -15 -63 -31 -114 -55 -199 -168 -181 -241 14 -53 77 -84 173
-84 l51 0 6 -72 c3 -40 10 -181 16 -313 6 -132 13 -269 15 -305 3 -36 12 -168
20 -295 8 -126 20 -297 25 -380 6 -82 17 -258 25 -390 32 -526 110 -1069 171
-1187 32 -62 111 -100 259 -123 167 -27 344 -25 694 4 73 7 135 10 136 9 1 -2
-22 -86 -51 -188 -30 -102 -88 -311 -130 -465 -41 -154 -79 -290 -84 -302 -6
-15 -23 -24 -57 -31 -82 -18 -226 -69 -340 -119 -421 -188 -824 -551 -1137
-1023 -249 -375 -707 -1228 -916 -1705 -45 -104 -134 -300 -197 -435 -152
-322 -231 -502 -499 -1127 -263 -614 -395 -905 -546 -1207 -157 -314 -349
-660 -355 -640 -1 5 -21 149 -43 319 -149 1140 -296 2008 -550 3250 -54 264
-107 466 -233 895 -58 195 -121 432 -142 525 -135 629 -235 980 -421 1475
-130 347 -245 612 -386 888 -171 336 -244 447 -352 541 -193 167 -363 199
-416 78 -45 -102 -37 -156 55 -397 76 -200 99 -270 92 -277 -4 -3 -20 0 -38 6
-112 39 -253 32 -327 -16 -79 -52 -98 -127 -60 -241 21 -61 22 -72 9 -67 -152
59 -258 31 -316 -83 -32 -64 -15 -181 35 -253 l21 -29 -33 8 c-65 14 -142 7
-181 -17 -71 -44 -85 -120 -43 -224 36 -86 69 -130 189 -247 l107 -105 25
-155 c13 -85 42 -247 64 -360 83 -427 103 -582 96 -736 -3 -60 -10 -291 -15
-514 -6 -223 -13 -466 -16 -540 -8 -181 -8 -1582 0 -1740 3 -69 11 -233 16
-365 75 -1750 378 -3010 890 -3701 l69 -92 -82 -6 c-45 -3 -167 -10 -272 -16
-350 -20 -686 -61 -1285 -156 -157 -25 -370 -59 -475 -74 -155 -24 -490 -79
-630 -105 -237 -42 -602 -112 -945 -180 -664 -131 -1078 -212 -1290 -250 -358
-65 -480 -92 -1115 -250 -707 -176 -1092 -259 -1315 -284 -42 -5 -90 -16 -107
-25 -71 -36 -100 -119 -89 -259 4 -51 11 -155 15 -232 10 -194 39 -254 149
-305 45 -22 323 -93 497 -129 402 -81 940 -141 1485 -166 279 -12 595 -25 760
-30 96 -3 211 -7 255 -10 44 -3 134 -7 200 -10 214 -10 416 -25 620 -45 682
-66 1283 -110 2060 -150 110 -5 238 -12 285 -15 47 -2 141 -7 210 -10 206 -9
340 -15 430 -20 47 -3 150 -7 230 -10 80 -3 231 -10 335 -15 105 -5 253 -12
330 -15 77 -3 219 -10 315 -15 96 -5 234 -12 305 -15 72 -3 159 -8 195 -10 36
-3 151 -10 255 -15 461 -25 789 -50 1105 -86 284 -31 748 -86 1089 -129 1756
-218 2277 -272 2906 -300 72 -3 164 -8 205 -10 41 -3 262 -12 490 -20 228 -8
465 -17 525 -20 61 -2 182 -7 270 -10 88 -4 324 -15 525 -26 201 -11 446 -24
545 -29 282 -15 566 -38 1015 -80 622 -59 740 -69 995 -85 291 -18 271 -14
319 -52 32 -24 51 -33 65 -28 28 9 36 41 17 70 -14 22 -14 26 1 53 19 34 40
41 513 181 146 43 380 114 520 159 140 44 388 119 550 166 433 125 848 234
1995 526 450 115 721 193 1575 455 600 184 992 301 1275 380 500 139 894 257
1400 419 508 162 969 321 1004 345 49 35 75 103 74 196 0 44 -7 105 -16 135
-19 70 -41 173 -67 325 -12 66 -32 163 -46 216 l-25 97 126 358 c70 198 160
454 200 569 40 116 135 386 210 600 162 463 557 1593 660 1890 336 966 1025
2937 1315 3760 120 341 246 699 279 795 79 232 268 761 491 1375 282 777 381
1057 535 1515 78 234 170 504 204 600 116 327 158 503 167 705 12 253 -46 438
-191 609 -30 36 -55 73 -55 84 0 54 -95 111 -261 156 -202 55 -427 91 -904
146 -143 17 -305 37 -360 46 -187 28 -1062 98 -1490 119 -66 3 -147 8 -180 10
-52 4 -198 11 -870 40 -121 5 -335 11 -890 25 -320 7 -1237 15 -1725 14 -162
0 -1735 -3 -3495 -6 -1760 -3 -3396 -9 -3636 -13 l-436 -8 -7 89 c-17 211
-104 470 -223 664 -315 509 -866 850 -1554 962 -112 18 -175 22 -384 22 -256
0 -332 -6 -735 -59 -389 -51 -572 -68 -670 -61 -183 11 -315 71 -513 233 -244
198 -377 291 -455 318 -62 22 -151 26 -219 10z m1322 -795 c232 -38 255 -45
281 -85 17 -27 8 -57 -24 -74 -39 -21 -317 61 -386 114 -43 32 -56 66 -36 90
10 13 18 11 54 -10 22 -13 73 -29 111 -35z m-651 -85 c60 -64 280 -135 484
-156 112 -11 125 -14 142 -37 26 -32 25 -55 -3 -88 -23 -26 -28 -27 -112 -26
-258 4 -533 110 -586 225 -24 53 -24 62 1 87 27 27 46 25 74 -5z m-315 -285
c78 -30 229 -57 421 -75 96 -9 183 -18 193 -21 47 -14 39 -108 -9 -120 -40
-10 -304 17 -403 42 -117 29 -274 110 -279 143 -3 19 12 51 24 51 2 0 26 -9
53 -20z m3361 -140 c25 -25 25 -41 -1 -74 -46 -58 -187 -116 -284 -116 -60 0
-81 16 -71 54 5 19 15 26 48 31 67 11 141 42 205 85 66 46 76 47 103 20z m188
-222 c39 -39 -16 -99 -122 -137 -79 -28 -120 -25 -124 7 -4 29 11 48 45 56 14
4 53 25 87 46 63 41 94 48 114 28z m-783 -143 c199 -47 405 -185 535 -357 72
-95 110 -166 142 -268 21 -68 23 -91 22 -260 -1 -102 -11 -329 -23 -505 -34
-519 -43 -782 -39 -1095 5 -329 9 -353 67 -411 l37 -37 124 -8 c184 -12 245
-8 294 18 72 40 72 42 79 450 4 200 10 483 14 629 l6 267 111 36 c109 35 113
36 256 33 123 -3 154 -7 203 -26 162 -64 257 -223 217 -364 -16 -61 -75 -135
-140 -178 -75 -50 -270 -138 -332 -149 -29 -6 -63 -20 -76 -33 -47 -42 -52
-73 -64 -355 -18 -454 13 -1038 88 -1627 26 -208 99 -708 109 -752 5 -20 2
-23 -28 -23 -18 0 -82 -9 -143 -20 -206 -38 -672 -94 -1304 -155 -820 -80
-1289 -131 -1568 -169 -67 -9 -95 -10 -100 -2 -4 6 -10 189 -13 406 -5 331 -9
407 -24 470 -18 77 -45 141 -73 173 -21 24 -105 22 -342 -8 -352 -45 -460 -55
-608 -55 -209 0 -323 31 -372 100 -53 75 -146 845 -165 1370 -7 193 -15 396
-20 490 -3 47 -9 261 -15 475 -6 215 -12 416 -15 447 l-4 57 57 11 c352 70
680 194 762 287 89 102 47 167 -125 191 -139 20 -301 3 -529 -54 -76 -19 -141
-32 -144 -29 -8 7 29 618 37 626 3 3 101 16 216 27 292 30 648 87 1097 177
236 46 615 114 779 139 439 66 881 93 1014 61z m976 -95 c30 -17 25 -66 -11
-100 -28 -26 -99 -50 -148 -50 -28 0 -62 29 -62 54 0 30 40 66 71 65 13 -1 44
8 69 19 52 25 55 25 81 12z m2714 -585 c330 -3 686 -8 790 -11 105 -4 1356 -8
2780 -9 2918 -3 4040 -15 4905 -50 63 -3 178 -7 255 -10 77 -3 169 -8 205 -10
36 -3 148 -10 250 -15 826 -47 1675 -145 2390 -276 382 -70 416 -79 445 -111
155 -174 216 -428 170 -703 -31 -190 -67 -309 -215 -711 -54 -146 -112 -313
-129 -371 -48 -166 -239 -715 -516 -1483 -239 -662 -425 -1197 -540 -1545 -26
-80 -106 -309 -177 -510 -407 -1146 -642 -1824 -1428 -4120 -475 -1388 -712
-2074 -981 -2843 l-153 -438 -51 6 c-27 4 -129 20 -225 35 -247 41 -318 48
-550 55 -312 8 -684 34 -1300 90 -205 19 -714 61 -835 70 -49 3 -200 14 -335
25 -215 17 -372 26 -715 45 -49 2 -151 7 -225 10 -74 3 -236 9 -360 15 -124 5
-304 12 -400 15 -96 3 -204 8 -240 10 -36 3 -164 10 -285 15 -121 6 -299 18
-395 26 -96 7 -227 14 -292 14 -64 0 -119 4 -122 8 -2 4 2 75 9 157 7 83 17
219 20 303 8 171 5 164 86 137 24 -8 73 -21 108 -29 61 -14 63 -14 68 5 6 23
-11 23 308 4 138 -8 327 -26 420 -39 198 -29 397 -50 690 -71 203 -15 338 -27
645 -60 80 -8 267 -24 416 -35 149 -11 381 -35 515 -54 228 -32 397 -53 729
-91 74 -8 207 -24 295 -34 88 -11 264 -29 390 -40 127 -12 280 -28 340 -36 61
-8 234 -31 385 -50 151 -20 304 -42 340 -49 64 -14 127 -20 183 -17 15 0 39
12 53 26 21 21 25 33 23 78 -3 59 35 164 461 1272 491 1276 689 1828 901 2505
98 310 179 548 339 995 302 844 374 1049 465 1330 54 165 159 491 235 725 242
744 287 888 625 1985 391 1270 525 1694 739 2333 52 155 98 308 102 340 3 31
13 72 20 91 16 39 10 123 -12 159 -22 34 -78 30 -115 -9 l-28 -30 -163 15
c-340 32 -818 66 -1138 81 -69 3 -163 7 -210 10 -159 8 -305 15 -470 20 -91 3
-212 7 -270 10 -109 5 -231 9 -760 25 -173 5 -367 12 -430 15 -63 2 -198 7
-300 10 -102 3 -214 8 -250 10 -337 25 -992 65 -1285 80 -60 3 -144 8 -185 10
-41 3 -228 12 -415 20 -187 8 -387 17 -445 20 -58 2 -170 7 -250 10 -148 5
-302 12 -490 20 -58 3 -186 7 -285 10 -99 3 -216 7 -260 10 -44 2 -156 7 -250
10 -93 3 -215 7 -270 10 -55 3 -176 7 -270 10 -591 20 -1002 47 -1755 115
-762 69 -1001 88 -1165 94 -140 6 -517 11 -1540 22 -559 6 -637 8 -655 19 -6
4 -10 73 -10 172 l0 166 723 -7 c397 -3 992 -8 1322 -11z m-1710 -440 c77 -3
163 -8 190 -10 81 -7 474 -14 1040 -20 507 -6 721 -14 940 -35 395 -39 1474
-122 1875 -145 136 -7 249 -14 330 -20 36 -2 126 -7 200 -10 74 -3 164 -8 200
-10 102 -7 489 -22 790 -30 847 -23 1508 -52 2515 -110 143 -8 339 -20 435
-25 554 -32 692 -40 760 -44 159 -11 271 -16 440 -21 96 -3 301 -10 455 -15
154 -5 381 -12 505 -15 124 -3 268 -7 320 -10 52 -2 160 -7 240 -10 506 -19
1080 -56 1420 -91 171 -17 494 -55 497 -58 3 -3 -65 -315 -101 -463 -24 -95
-31 -142 -24 -150 7 -8 -16 -77 -75 -230 -249 -640 -493 -1374 -847 -2548
-358 -1187 -453 -1480 -845 -2610 -339 -977 -509 -1479 -615 -1820 -164 -529
-456 -1333 -983 -2705 -140 -366 -279 -728 -307 -805 -29 -77 -55 -143 -59
-146 -3 -4 -68 2 -143 12 -303 41 -932 106 -1203 125 -49 3 -156 14 -238 25
-81 10 -263 30 -405 44 -141 14 -264 27 -272 30 -61 18 -775 95 -1030 110 -58
4 -195 17 -305 30 -208 24 -279 31 -430 40 -292 17 -420 28 -595 50 -392 49
-503 57 -857 64 l-352 6 45 175 c57 223 134 484 274 925 180 566 273 907 429
1565 220 931 370 1958 413 2833 36 730 -111 1225 -477 1605 -352 367 -878 577
-1665 666 -348 39 -644 49 -1405 43 -401 -3 -839 -11 -972 -18 -133 -7 -245
-10 -249 -6 -14 13 -98 593 -138 947 -59 517 -79 1037 -57 1488 l6 134 58 24
c361 152 555 491 429 747 -62 125 -207 219 -397 258 -55 11 -100 21 -100 22 0
1 1 50 3 110 3 91 6 107 20 107 24 0 79 -36 92 -59 6 -12 17 -21 25 -21 19 0
19 2 -5 45 -11 20 -20 38 -20 41 0 4 19 4 43 0 23 -3 105 -8 182 -11z m-10656
-2771 c268 -201 565 -757 846 -1584 92 -271 225 -697 225 -721 0 -13 -22 -24
-82 -44 -212 -70 -479 -174 -1007 -392 -255 -105 -270 -109 -271 -67 0 24 -71
503 -91 614 -38 213 -114 484 -145 515 -8 8 -54 42 -102 74 -98 68 -164 128
-198 183 -31 49 -30 58 7 58 34 0 105 -33 174 -80 97 -67 172 -79 202 -33 21
32 21 88 0 130 -9 17 -55 77 -102 134 -111 134 -132 199 -70 215 46 11 96 -13
211 -100 170 -129 202 -140 248 -85 49 58 35 113 -75 281 -68 105 -104 181
-93 199 8 14 105 11 155 -4 24 -8 90 -35 146 -61 133 -61 164 -66 197 -33 47
47 45 59 -50 294 -48 120 -111 272 -141 338 -30 66 -58 132 -63 147 -9 29 -3
68 10 68 4 0 35 -21 69 -46z m6916 -603 c13 -22 26 -183 35 -431 5 -146 12
-315 16 -376 l6 -111 -129 -6 c-70 -4 -147 -10 -169 -13 l-41 -6 34 118 c92
323 173 693 173 794 0 16 5 30 11 32 24 8 58 7 64 -1z m4014 -693 c20 -22 101
-113 180 -202 166 -185 277 -322 340 -419 68 -105 60 -169 -35 -263 -67 -68
-176 -134 -428 -260 -222 -111 -316 -163 -316 -174 0 -3 46 -39 103 -80 253
-182 351 -274 395 -369 37 -81 28 -150 -52 -400 -37 -112 -109 -362 -162 -555
-154 -563 -252 -881 -372 -1201 -33 -88 -78 -223 -101 -300 -72 -240 -118
-344 -173 -391 -36 -29 -54 -30 -68 -5 -16 32 -12 53 28 137 44 90 100 255
236 699 110 358 138 461 286 1025 106 405 164 620 214 788 20 69 22 89 13 118
-17 56 -69 107 -200 195 -67 45 -155 112 -195 148 -116 102 -137 168 -84 252
34 52 22 45 472 293 106 58 240 145 294 189 l29 23 -50 75 c-28 41 -104 137
-168 214 -162 192 -219 270 -265 359 -55 107 -52 146 13 146 22 0 39 -10 66
-42z m-619 -63 c0 -2 -33 -105 -74 -227 -41 -123 -114 -356 -161 -518 -48
-162 -114 -385 -146 -494 -33 -110 -61 -201 -63 -203 -2 -2 -24 30 -50 71 -67
108 -152 210 -331 397 -87 90 -182 197 -212 237 -102 137 -207 257 -362 415
-85 86 -152 159 -150 161 2 2 90 11 194 20 423 38 926 93 1195 130 103 15 160
19 160 11z m134 -22 c-4 -16 -13 -41 -20 -58 l-14 -30 6 40 c7 56 14 75 25 75
5 0 6 -12 3 -27z m-1779 -327 c142 -143 293 -320 440 -516 43 -58 121 -150
174 -205 137 -145 476 -548 514 -611 7 -13 -232 -970 -312 -1244 -27 -96 -84
-282 -125 -412 -41 -131 -96 -314 -122 -407 l-48 -169 -27 29 c-15 16 -37 29
-49 29 -36 0 -90 -31 -150 -87 l-57 -53 -114 132 c-104 120 -177 211 -267 332
-61 82 -154 176 -271 274 -109 92 -300 232 -316 232 -4 0 -19 8 -33 19 -33 23
-160 89 -227 119 -105 46 -312 130 -347 142 -33 10 -38 15 -38 43 0 18 -4 129
-10 247 -5 118 -11 292 -15 385 -3 94 -8 202 -11 240 l-5 70 73 100 c41 55
172 241 292 413 119 173 255 365 301 427 123 167 324 404 452 535 l112 114 73
-69 c40 -38 91 -87 113 -109z m-550 37 c-133 -148 -281 -346 -452 -606 -142
-215 -359 -567 -391 -633 -8 -19 -19 -34 -22 -34 -4 0 -10 75 -14 168 -3 92
-15 280 -26 417 -41 515 -53 685 -49 689 2 2 90 11 194 20 105 9 298 30 430
46 238 29 417 48 423 44 2 -1 -40 -51 -93 -111z m-1592 -65 c11 -41 -31 -106
-150 -236 -125 -138 -226 -273 -289 -386 -36 -67 -37 -69 -18 -83 53 -40 250
-152 424 -242 204 -106 270 -156 270 -204 0 -68 -100 -163 -417 -399 -112 -83
-203 -154 -203 -159 0 -5 15 -40 34 -77 18 -37 61 -134 96 -217 34 -82 80
-183 102 -223 36 -68 39 -77 27 -103 -14 -35 -42 -53 -69 -44 -27 9 -101 132
-150 250 -22 55 -72 163 -111 241 -56 114 -69 149 -69 188 0 64 9 77 87 130
38 24 109 82 160 128 221 200 278 252 281 258 1 3 -82 55 -185 114 -216 125
-325 199 -390 269 -44 47 -45 51 -40 97 10 81 67 175 221 360 142 170 337 360
370 360 8 0 16 -10 19 -22z m6421 -1031 l19 -26 -78 -223 c-42 -123 -119 -344
-170 -493 -343 -995 -567 -1614 -650 -1796 -59 -130 -113 -272 -205 -544 -109
-323 -165 -470 -269 -702 -114 -257 -141 -336 -184 -558 -32 -162 -110 -500
-137 -598 -14 -49 -43 -77 -79 -77 -24 0 -45 19 -131 118 -56 64 -212 234
-345 377 -508 544 -830 943 -1075 1329 -45 71 -114 165 -153 210 -182 205
-242 316 -188 346 11 5 26 10 35 10 32 0 414 -434 538 -612 150 -215 367 -479
798 -968 162 -184 342 -391 399 -458 97 -115 106 -122 114 -100 18 48 56 210
96 405 53 257 90 372 196 613 113 255 148 344 246 617 44 125 193 532 331 903
138 371 268 725 290 785 85 236 217 616 256 735 65 202 190 600 208 663 13 49
21 61 47 72 37 16 64 7 91 -28z m-5831 -1456 c49 -18 173 -73 275 -124 103
-51 222 -107 264 -126 99 -43 257 -146 378 -246 52 -44 223 -206 380 -361 157
-156 305 -299 330 -319 25 -21 46 -40 47 -44 1 -3 -37 -35 -84 -71 -168 -127
-312 -255 -656 -585 -109 -105 -202 -191 -206 -193 -12 -4 -139 105 -296 252
-379 357 -564 494 -777 576 -74 29 -84 30 -273 33 -122 2 -200 8 -206 14 -23
23 170 133 329 186 57 19 81 23 115 16 80 -16 116 -11 142 17 29 31 34 98 11
130 -14 18 -27 19 -303 16 -241 -3 -300 -1 -360 13 -40 9 -73 20 -73 24 0 11
72 38 140 52 61 13 214 16 480 9 195 -5 241 5 260 55 26 69 -46 110 -360 205
-222 67 -362 118 -355 130 15 24 340 28 470 5 123 -21 249 -58 358 -105 107
-47 129 -49 162 -15 31 30 31 56 0 124 -36 77 -124 156 -247 223 -137 75 -218
127 -218 140 0 23 179 2 273 -31z m309 -1988 c46 -43 126 -111 176 -152 l92
-74 -33 -36 c-18 -20 -39 -46 -47 -58 -9 -11 -34 -26 -57 -32 -46 -13 -78 -46
-88 -91 -12 -52 23 -145 138 -377 228 -457 413 -766 607 -1018 l77 -100 -53
-165 c-29 -91 -72 -228 -94 -305 -23 -77 -67 -225 -98 -328 -64 -210 -57 -209
-87 -17 -53 342 -117 618 -381 1640 -54 206 -115 467 -150 635 -40 189 -102
555 -94 555 4 0 45 -35 92 -77z m-2038 -1618 c-41 -527 -90 -992 -139 -1310
-9 -55 -19 -121 -22 -147 l-6 -48 -228 0 c-125 0 -230 3 -232 8 -4 6 17 74
153 497 81 254 119 347 155 383 27 26 37 50 55 125 34 138 72 239 172 456 95
206 99 214 102 209 2 -2 -3 -79 -10 -173z m3104 -421 c13 -9 27 -26 32 -38 10
-26 410 -536 518 -660 42 -49 138 -141 212 -204 74 -64 290 -269 480 -457 494
-488 558 -539 873 -700 304 -156 705 -341 774 -359 100 -25 163 -29 239 -13
112 24 167 58 269 165 49 52 160 157 246 233 86 76 225 213 309 306 202 221
403 426 518 525 67 58 146 146 291 326 110 136 224 273 254 304 139 143 216
156 208 35 0 -9 -52 -70 -114 -135 -61 -64 -195 -214 -297 -332 -184 -214
-435 -474 -520 -539 -25 -19 -84 -82 -132 -140 -126 -152 -296 -332 -423 -447
-60 -54 -132 -124 -159 -154 -216 -237 -376 -330 -571 -330 -82 0 -103 5 -240
51 -451 153 -857 353 -1128 558 -132 99 -237 200 -481 465 -119 128 -269 281
-335 340 -231 206 -361 356 -593 683 -271 380 -297 420 -304 464 -4 26 -1 40
11 52 21 21 34 21 63 1z m-3683 -340 c-35 -109 -80 -251 -99 -314 -65 -218
-148 -475 -155 -482 -3 -4 -62 -18 -131 -32 -69 -14 -168 -39 -220 -55 -52
-17 -96 -28 -99 -25 -6 5 30 56 253 364 155 213 286 406 449 660 32 51 61 90
63 88 2 -3 -25 -94 -61 -204z m371 -939 c7 -2 8 -24 3 -67 -11 -95 -47 -536
-54 -663 -3 -60 -8 -144 -10 -185 -3 -41 -10 -168 -15 -281 -10 -203 -33 -429
-46 -450 -9 -16 18 -128 36 -143 9 -9 71 -18 170 -25 85 -7 292 -25 460 -41
168 -16 352 -32 410 -35 58 -4 119 -8 135 -11 95 -14 718 -14 930 0 214 13
924 16 980 3 11 -3 144 -8 295 -11 151 -4 313 -9 360 -11 47 -2 175 -7 285
-10 110 -3 238 -7 285 -10 47 -2 184 -7 305 -10 121 -3 254 -7 295 -10 41 -2
170 -7 285 -10 116 -3 275 -7 355 -10 819 -27 1247 -32 2120 -29 437 2 867 7
956 12 141 8 166 12 205 33 40 22 46 31 67 92 56 169 45 407 -21 433 -15 5
-15 6 29 399 38 340 72 684 76 785 l3 65 35 -3 c19 -1 161 -9 315 -17 154 -8
366 -20 470 -25 577 -31 1015 -59 1315 -85 203 -18 561 -54 605 -60 17 -3 230
-21 475 -40 543 -43 745 -60 1005 -85 110 -11 301 -27 425 -35 499 -34 1173
-110 1130 -128 -8 -3 -89 -22 -180 -42 -387 -85 -991 -235 -1455 -361 -887
-242 -1590 -462 -2830 -887 -502 -172 -1125 -349 -2160 -612 -676 -172 -819
-209 -1016 -260 -113 -30 -257 -71 -320 -90 -63 -19 -125 -35 -140 -35 -14 0
-30 -5 -35 -10 -12 -12 -367 20 -844 74 -168 20 -404 47 -525 60 -348 40 -701
75 -815 81 -94 5 -467 15 -1075 30 -510 13 -619 15 -765 20 -85 3 -272 7 -415
10 -143 3 -316 7 -385 10 -69 3 -213 7 -320 10 -330 9 -530 15 -650 20 -63 3
-185 7 -270 10 -320 11 -752 29 -940 40 -47 2 -132 7 -190 10 -58 3 -139 8
-180 10 -41 2 -136 7 -210 10 -74 3 -164 8 -200 10 -36 3 -159 10 -275 15
-115 6 -295 14 -400 20 -104 5 -233 12 -285 15 -216 11 -500 27 -735 40 -137
8 -293 17 -345 20 -52 3 -120 8 -150 10 -30 3 -127 9 -215 15 -354 23 -869 64
-1315 105 -146 13 -326 26 -400 30 -74 3 -164 8 -200 10 -36 2 -168 7 -295 10
-126 3 -309 7 -405 10 -96 3 -287 7 -425 10 -424 9 -656 15 -745 20 -47 3
-175 10 -285 15 -110 6 -281 17 -380 25 -99 8 -265 22 -370 30 -104 9 -269 24
-365 35 -320 36 -772 71 -1335 105 -440 26 -862 55 -1035 70 -91 8 -218 17
-283 21 -65 4 -115 10 -110 14 8 8 68 22 518 125 1041 237 2014 440 2875 599
750 139 2010 346 2520 416 124 16 272 37 330 45 58 8 188 22 290 30 194 17
318 39 409 74 l54 20 41 -37 c208 -190 502 -334 831 -406 251 -55 324 -61 720
-61 347 0 377 1 483 23 454 92 864 356 1185 764 l69 86 91 7 c242 17 440 55
535 104 51 26 162 109 168 125 5 12 46 13 237 9 128 -2 237 -6 243 -8z m2851
-217 c9 -28 10 -117 5 -357 -7 -303 -8 -321 -28 -348 -43 -58 -101 -32 -90 41
3 23 10 111 16 196 32 467 38 514 69 508 9 -2 21 -20 28 -40z m12403 -606 c12
-59 37 -178 57 -266 28 -127 32 -160 22 -167 -19 -11 -925 -312 -1244 -413
-412 -130 -974 -300 -1450 -441 -236 -69 -527 -157 -645 -195 -631 -201 -1254
-377 -2195 -620 -1411 -364 -2053 -546 -2750 -782 -192 -66 -358 -122 -367
-125 -17 -5 -18 11 -18 234 0 191 -10 395 -23 467 -4 19 146 61 1153 321 1551
401 2165 581 2920 858 113 41 234 84 270 95 36 11 157 50 270 85 777 247 1489
445 3305 916 319 83 594 155 610 160 47 13 60 -7 85 -127z m-26835 -1261 c83
-6 260 -18 395 -26 926 -58 1995 -137 2360 -175 580 -60 1290 -97 2195 -115
419 -8 985 -24 1095 -30 342 -19 822 -54 1630 -119 574 -47 1036 -80 1235 -91
61 -3 137 -8 170 -10 74 -6 768 -42 965 -50 80 -3 183 -8 230 -10 110 -6 286
-13 480 -20 85 -3 207 -7 270 -10 131 -5 335 -12 590 -20 96 -3 247 -7 335
-10 88 -3 230 -7 315 -10 85 -3 261 -7 390 -10 129 -3 305 -7 390 -10 399 -12
513 -15 760 -20 146 -3 321 -7 390 -10 69 -2 217 -7 330 -10 415 -11 591 -16
860 -25 151 -5 363 -12 470 -15 298 -8 371 -14 695 -51 469 -53 766 -82 1079
-104 159 -11 295 -20 302 -20 9 0 14 -11 14 -31 0 -60 41 -91 106 -82 l31 5 7
-80 c6 -63 3 -92 -10 -138 -21 -68 -24 -198 -10 -401 9 -131 9 -133 -12 -133
-12 0 -76 4 -144 10 -68 5 -220 17 -338 25 -118 9 -352 27 -520 41 -490 39
-1265 98 -1445 109 -49 3 -117 8 -150 10 -189 16 -750 39 -1215 50 -817 20
-1432 64 -2390 171 -283 31 -300 33 -1270 154 -1396 173 -1715 205 -2370 240
-107 6 -224 12 -260 15 -36 2 -132 7 -215 10 -82 3 -247 10 -365 15 -118 5
-296 12 -395 15 -99 3 -225 7 -280 10 -55 3 -163 7 -240 10 -642 24 -1197 59
-1610 100 -132 13 -341 31 -465 40 -124 9 -299 22 -390 30 -233 21 -566 43
-760 50 -91 3 -212 7 -270 10 -58 3 -184 7 -280 10 -681 21 -940 38 -1420 95
-479 58 -957 106 -1282 130 -75 6 -179 17 -230 26 -118 20 -276 71 -288 94 -9
16 -30 254 -30 339 l0 44 208 -6 c114 -3 275 -11 357 -16z"/>
<path d="M30155 21544 c-166 -17 -363 -61 -550 -121 -273 -88 -402 -196 -366
-305 22 -67 47 -80 169 -86 134 -6 239 6 552 63 135 24 307 54 383 65 213 32
345 81 397 147 41 52 15 145 -50 178 -61 31 -200 55 -350 59 -80 2 -163 2
-185 0z"/>
<path d="M29870 20744 c-155 -33 -302 -140 -365 -266 -30 -61 -35 -80 -35
-142 0 -172 119 -286 350 -337 116 -25 242 -27 329 -4 170 44 326 167 402 317
29 57 29 58 12 100 -96 247 -405 395 -693 332z m239 -114 c112 -16 200 -73
302 -197 l61 -74 -27 -39 c-51 -74 -157 -170 -225 -203 -62 -31 -70 -32 -180
-31 -227 1 -353 62 -425 204 -13 26 -27 66 -31 88 -6 39 -4 42 62 109 80 81
150 119 256 138 90 16 125 17 207 5z"/>
<path d="M29866 20559 c-113 -27 -188 -174 -142 -282 29 -71 121 -117 194 -98
110 30 188 210 134 311 -31 56 -112 87 -186 69z"/>
<path d="M27803 20586 c-195 -63 -356 -301 -323 -476 29 -151 190 -238 388
-210 99 14 185 44 260 91 45 27 60 33 52 20 -21 -40 -109 -105 -207 -153 -98
-48 -129 -76 -106 -98 9 -10 146 36 222 75 28 14 67 40 87 57 49 43 148 177
185 250 42 83 37 148 -12 148 -10 0 -27 21 -44 57 -39 78 -135 172 -220 214
-58 28 -80 33 -154 36 -54 2 -102 -2 -128 -11z m209 -142 c64 -21 149 -84 193
-143 34 -48 35 -51 21 -78 -64 -124 -219 -213 -369 -213 -135 0 -183 26 -224
120 -13 30 -31 69 -40 87 -17 32 -17 32 21 88 97 139 239 189 398 139z"/>
<path d="M27795 20361 c-62 -38 -95 -100 -95 -178 0 -107 93 -178 187 -142
115 43 160 239 71 314 -37 32 -117 35 -163 6z"/>
<path d="M28532 20438 c-15 -19 -30 -84 -37 -168 -4 -41 -13 -85 -21 -97 -8
-12 -60 -71 -117 -131 -128 -136 -169 -195 -218 -318 -55 -135 -77 -265 -60
-347 16 -79 42 -121 94 -151 76 -44 116 -49 238 -31 301 44 492 145 411 218
-17 16 -25 14 -128 -24 -140 -53 -282 -89 -351 -89 -194 0 -217 154 -67 452
39 78 63 109 159 207 151 155 159 171 163 336 3 114 2 131 -14 142 -22 16 -39
16 -52 1z"/>
<path d="M29404 20255 c-38 -58 33 -231 134 -327 69 -66 117 -92 194 -107 96
-17 138 1 138 61 0 33 -19 43 -92 53 -69 9 -178 67 -228 121 -45 49 -84 126
-95 187 -8 43 -27 48 -51 12z"/>
<path d="M30242 19604 c-36 -25 -134 -184 -139 -225 -5 -32 -2 -39 21 -54 21
-14 31 -15 54 -6 33 14 48 36 73 108 10 30 27 67 39 82 22 32 26 81 8 99 -16
16 -29 15 -56 -4z"/>
<path d="M29856 19547 c-54 -54 -97 -179 -78 -223 13 -27 61 -34 80 -11 19 23
73 197 70 225 -4 37 -40 41 -72 9z"/>
<path d="M29587 19528 c-8 -18 -28 -55 -45 -82 -41 -64 -49 -102 -26 -127 9
-10 22 -19 29 -19 23 0 57 49 72 106 8 32 21 71 29 86 11 21 12 33 4 48 -17
31 -48 25 -63 -12z"/>
<path d="M27861 19498 c-25 -63 -51 -158 -51 -185 0 -18 7 -39 16 -48 28 -28
57 -14 84 40 20 40 24 65 25 130 l0 80 -32 3 c-27 3 -35 -1 -42 -20z"/>
<path d="M27702 19454 c-26 -18 -73 -109 -92 -176 -10 -38 -10 -51 0 -63 31
-38 70 8 89 105 6 32 20 69 31 83 23 28 27 67 7 67 -7 0 -23 -7 -35 -16z"/>
<path d="M28365 18911 c-128 -24 -252 -69 -292 -107 l-33 -31 -2 -124 c-6
-263 2 -321 55 -422 57 -109 151 -160 297 -161 69 -1 93 3 125 21 49 26 122
102 157 163 71 124 114 320 105 489 -6 129 -19 177 -50 185 -44 12 -273 4
-362 -13z m283 -171 c7 -138 -35 -364 -83 -445 -56 -96 -127 -128 -231 -105
-61 14 -108 49 -137 103 -20 38 -22 55 -20 167 1 76 9 160 20 215 l18 89 65
14 c96 19 205 30 290 29 l75 -2 3 -65z"/>
<path d="M26053 8065 c-62 -19 -129 -61 -154 -96 -12 -17 -24 -51 -27 -75 -4
-43 -3 -47 41 -89 90 -85 239 -107 552 -80 167 15 221 31 261 78 49 58 14 140
-80 189 -59 30 -120 46 -262 68 -147 23 -270 25 -331 5z m342 -96 c42 -7 78
-17 79 -23 2 -6 8 -25 13 -43 l11 -31 -87 -9 c-47 -4 -131 -8 -186 -8 -82 1
-109 5 -153 24 -29 13 -51 29 -49 35 5 16 68 45 119 55 63 13 167 13 253 0z"/>
<path d="M21988 7660 c-67 -12 -156 -39 -201 -61 -51 -27 -75 -76 -57 -119 31
-74 112 -108 295 -125 203 -19 402 -13 488 14 102 33 167 101 167 176 0 56
-79 95 -125 62 -15 -12 -28 -10 -89 11 -39 13 -105 31 -146 38 -81 14 -257 16
-332 4z m456 -117 c112 -30 83 -43 -114 -52 -161 -7 -368 1 -394 16 -15 8 -7
13 50 27 160 39 334 43 458 9z"/>
<path d="M25259 7570 c-145 -25 -219 -112 -180 -212 28 -72 175 -159 333 -197
240 -58 446 -39 540 50 43 41 48 68 19 115 -28 45 -73 77 -186 130 -138 63
-255 101 -355 113 -93 12 -104 12 -171 1z m231 -135 c0 -34 35 -54 117 -67 66
-10 203 -63 203 -79 0 -23 -215 -23 -336 0 -84 16 -160 50 -208 92 -25 22 -46
45 -46 50 0 16 65 27 168 28 l102 1 0 -25z"/>
<path d="M20670 7369 c-75 -13 -234 -67 -273 -93 -43 -29 -63 -71 -48 -103 15
-33 60 -50 230 -84 80 -16 193 -41 251 -54 232 -52 324 -53 455 -4 110 41 186
123 171 184 -18 70 -110 113 -313 146 -127 20 -372 24 -473 8z m534 -104 c86
-17 161 -52 161 -75 0 -9 -25 -25 -60 -40 -51 -20 -77 -24 -165 -24 -91 -1
-122 4 -235 36 -71 20 -150 40 -175 43 -61 10 -80 20 -49 28 44 11 259 37 312
38 29 0 61 4 72 9 11 4 29 6 40 4 11 -2 56 -10 99 -19z"/>
<path d="M22675 7155 c-113 -20 -156 -37 -197 -76 -73 -69 -40 -143 97 -212
93 -47 151 -58 320 -64 185 -6 316 7 410 41 137 50 175 102 137 188 -11 25
-36 58 -57 73 -34 26 -47 29 -153 36 -65 4 -166 13 -227 18 -140 14 -241 13
-330 -4z m541 -125 c15 -16 35 -32 45 -35 40 -13 15 -23 -93 -40 -211 -32
-415 -18 -521 37 l-42 22 45 13 c75 22 166 30 357 32 l183 1 26 -30z"/>
<path d="M24163 7075 c-109 -30 -175 -75 -194 -132 -25 -77 66 -153 226 -189
153 -34 649 -28 739 10 82 34 107 96 67 162 -48 78 -156 125 -284 124 -51 -1
-103 5 -137 15 -78 24 -345 30 -417 10z m413 -106 c32 -6 68 -19 79 -29 11
-10 44 -26 74 -36 50 -16 52 -18 30 -27 -13 -5 -125 -7 -249 -4 -187 4 -236 8
-293 24 -106 32 -104 39 16 64 95 20 257 24 343 8z"/>
<path d="M26393 6926 c-29 -24 -38 -26 -125 -26 -161 0 -284 -47 -322 -123
-15 -33 -16 -42 -5 -68 15 -39 66 -72 144 -96 73 -22 346 -24 465 -4 142 25
230 75 230 132 0 87 -154 197 -289 207 -61 4 -69 2 -98 -22z m109 -142 c26 -9
50 -19 53 -24 7 -12 -178 -34 -295 -34 -106 -1 -191 17 -173 35 9 9 140 34
213 42 61 5 153 -3 202 -19z"/>
<path d="M13649 23696 c-3 -3 -154 -6 -335 -6 -793 -1 -1425 -74 -2085 -240
-946 -238 -1780 -690 -2267 -1229 -344 -382 -544 -755 -630 -1176 -108 -528
22 -1080 368 -1565 109 -153 213 -271 446 -506 388 -391 730 -650 1284 -975
414 -241 640 -336 1047 -438 267 -67 524 -109 903 -147 189 -19 802 -27 995
-14 160 11 456 29 580 35 96 4 226 9 640 20 105 3 224 7 265 10 41 3 118 7
170 10 869 49 1703 180 2400 377 396 112 698 221 1355 493 488 201 720 291
975 375 464 155 910 238 1450 269 340 19 1174 8 1345 -19 182 -28 720 -85
1105 -117 307 -25 1355 -26 1535 0 138 19 236 48 282 83 24 18 43 24 70 22 31
-3 39 1 52 24 26 45 7 62 -80 70 -100 10 -422 73 -506 99 -274 85 -693 309
-1043 558 -964 687 -2122 1381 -3405 2041 -121 63 -299 156 -395 207 -655 352
-1290 636 -1995 893 -88 32 -241 90 -340 128 -1012 392 -2064 636 -3005 698
-227 15 -1170 31 -1181 20z m1026 -176 c573 -35 1126 -121 1701 -264 506 -126
932 -263 1486 -480 106 -42 290 -111 408 -155 250 -92 564 -222 840 -347 255
-116 937 -456 1260 -629 140 -76 395 -209 565 -297 738 -382 994 -526 1380
-778 116 -75 323 -204 460 -285 451 -266 536 -320 835 -534 194 -138 434 -298
580 -385 225 -135 599 -303 749 -338 28 -6 51 -15 51 -19 0 -21 -879 -17
-1245 6 -402 25 -934 77 -1240 121 -143 20 -894 30 -1185 15 -331 -17 -580
-44 -860 -92 -402 -70 -802 -206 -1733 -588 -1163 -477 -1523 -590 -2272 -710
-739 -119 -1187 -162 -1835 -176 -146 -3 -303 -8 -350 -11 -47 -2 -213 -11
-370 -19 -157 -9 -346 -19 -420 -23 -232 -12 -941 -8 -1085 6 -755 78 -1330
250 -1895 570 -260 146 -633 412 -941 668 -191 159 -473 440 -601 599 -454
564 -624 1122 -506 1665 87 405 315 786 700 1170 828 826 2100 1262 3853 1319
321 10 1457 4 1670 -9z"/>
</g>
</svg>
